<?xml version="1.0" standalone="no"?>
<!DOCTYPE svg PUBLIC "-//W3C//DTD SVG 1.1//EN" "http://www.w3.org/Graphics/SVG/1.1/DTD/svg11.dtd" >
<svg>
<metadata>
Created by FontForge 20090622 at Wed Nov 22 17:54:37 2017
 By deploy user
Copyright (c) 2010 by Rian Hughes / Device. All rights reserved.
</metadata>
<defs>
<font id="KorolevCondensed-Medium" horiz-adv-x="447" >
  <font-face 
    font-family="Korolev Condensed Medium"
    font-weight="500"
    font-stretch="condensed"
    units-per-em="1000"
    panose-1="2 0 0 0 0 0 0 0 0 0"
    ascent="807"
    descent="-193"
    x-height="561"
    cap-height="705"
    bbox="-39 -229 1217 940"
    underline-thickness="50"
    underline-position="-50"
    unicode-range="U+0020-U+FB02"
  />
<missing-glyph horiz-adv-x="506" 
d="M67 0v700h373v-700h-373zM89 680v-658l153 328zM419 22v658l-154 -330zM253 325l-140 -303h281zM113 680l140 -305l141 305h-281z" />
    <glyph glyph-name="fi" unicode="fi" horiz-adv-x="430" 
d="M371 561v-561h-79v561h79zM231 763q68 0 104 -34.5t36 -93.5h-79q0 54 -62 54q-40 0 -54 -19.5t-14 -62.5v-46h73v-71h-73v-490h-80v490h-49v71h49v25q0 90 34 133.5t115 43.5z" />
    <glyph glyph-name="fl" unicode="fl" horiz-adv-x="430" 
d="M371 610v-610h-80v576q0 61 -12 86t-51 25q-37 0 -51.5 -19t-14.5 -61v-46h73v-71h-73v-490h-80v490h-49v71h49v25q0 89 34.5 133t111.5 44q72 0 107.5 -41.5t35.5 -111.5z" />
    <glyph glyph-name=".notdef" horiz-adv-x="506" 
d="M67 0v700h373v-700h-373zM89 680v-658l153 328zM419 22v658l-154 -330zM253 325l-140 -303h281zM113 680l140 -305l141 305h-281z" />
    <glyph glyph-name=".null" horiz-adv-x="0" 
 />
    <glyph glyph-name="nonmarkingreturn" horiz-adv-x="333" 
 />
    <glyph glyph-name="space" unicode=" " horiz-adv-x="177" 
 />
    <glyph glyph-name="exclam" unicode="!" horiz-adv-x="194" 
d="M85 151q-37 429 -37 508q0 52 48 52q49 0 49 -52q0 -35 -9.5 -162l-18.5 -237l-9 -109h-23zM47 45q0 21 14.5 36t34.5 15q22 0 37 -15t15 -36t-15 -36t-37 -15q-20 0 -34.5 15t-14.5 36z" />
    <glyph glyph-name="quotedbl" unicode="&#x22;" horiz-adv-x="313" 
d="M197 432l-11 273h85q-1 -18 -6 -136.5t-6 -136.5h-62zM52 432l-11 273h86q-1 -18 -6 -136.5t-6 -136.5h-63z" />
    <glyph glyph-name="numbersign" unicode="#" horiz-adv-x="530" 
d="M304 758l-60 -291h74l60 291h78l-60 -291h65v-75h-82l-16 -72h98v-74h-115l-60 -292h-77l60 292h-75l-59 -292h-79l61 292h-66v74h83l15 72h-98v75h115l61 291h77zM227 392l-16 -72h74l16 72h-74z" />
    <glyph glyph-name="dollar" unicode="$" horiz-adv-x="446" 
d="M221 715q11 0 27 -2v56h36v-63q57 -18 90 -66t33 -121h-83q0 57 -28 86.5t-75 29.5q-45 0 -71 -24.5t-26 -66.5t29.5 -75.5t72 -59.5l85 -54.5t72 -74t29.5 -104.5q0 -71 -33.5 -117t-94.5 -61v-64h-36v58q-3 0 -11.5 -0.5t-12.5 -0.5q-19 0 -27 1v-58h-36v65
q-61 17 -95 66.5t-34 126.5h83q0 -61 29.5 -91t80.5 -30q47 0 75.5 26t28.5 75q0 45 -29.5 80.5t-72 62.5l-85 55.5t-72 72.5t-29.5 101q0 61 31 104.5t89 58.5v62h36v-55q4 0 11.5 0.5t12.5 0.5z" />
    <glyph glyph-name="percent" unicode="%" horiz-adv-x="892" 
d="M672 -6q-77 0 -119.5 48.5t-42.5 133.5v33q0 83 43 131.5t119 48.5q75 0 119 -49t44 -131v-33q0 -85 -43.5 -133.5t-119.5 -48.5zM672 316q-41 0 -63.5 -27t-22.5 -79v-33q0 -111 86 -111t86 111v33q0 52 -22.5 79t-63.5 27zM603 758l-249 -799h-77l248 799h78zM207 318
q-77 0 -119 48.5t-42 133.5v33q0 84 42.5 132.5t118.5 48.5q75 0 118.5 -49t43.5 -132v-33q0 -84 -43 -133t-119 -49zM207 640q-85 0 -85 -106v-33q0 -110 85 -110q86 0 86 110v33q0 106 -86 106z" />
    <glyph glyph-name="ampersand" unicode="&#x26;" horiz-adv-x="534" 
d="M238 -10q-94 0 -144.5 58t-50.5 136v22q0 59 25.5 99t71.5 54q-44 16 -67.5 55t-23.5 93v26q0 76 50 128.5t138 52.5q83 0 135.5 -54.5t52.5 -143.5h-84q0 57 -28 87.5t-75 30.5q-105 0 -105 -108v-13q0 -57 26 -87.5t73 -30.5h58v-74h-60q-50 0 -76.5 -29t-26.5 -85v-16
q0 -120 112 -120q48 0 80.5 30.5t32.5 90.5v124h142v-77h-59l-3 -73q-9 -84 -61.5 -130t-132.5 -46z" />
    <glyph glyph-name="quotesingle" unicode="'" horiz-adv-x="167" 
d="M51 432l-10 273h85q-3 -114 -12 -273h-63z" />
    <glyph glyph-name="parenleft" unicode="(" horiz-adv-x="262" 
d="M221 27v-73q-100 0 -136 43t-36 145v427q0 102 36 145t136 43v-73q-56 0 -74 -22t-18 -77v-458q0 -57 17 -78.5t75 -21.5z" />
    <glyph glyph-name="parenright" unicode=")" horiz-adv-x="262" 
d="M41 -46v73q58 0 75 21.5t17 78.5v458q0 56 -17.5 77.5t-74.5 21.5v73q100 0 136 -43t36 -145v-427q0 -102 -36 -145t-136 -43z" />
    <glyph glyph-name="asterisk" unicode="*" horiz-adv-x="437" 
d="M378 598q-7 -4 -45.5 -24.5l-59.5 -31.5l105 -57l-31 -50l-102 60l3 -116h-59l2 116l-103 -60l-30 50l104 57l-104 56l30 51l103 -61l-2 119h59l-3 -118l102 59z" />
    <glyph glyph-name="plus" unicode="+" horiz-adv-x="422" 
d="M372 319h-125v-130h-73v130h-125v74h125v129h73v-129h125v-74z" />
    <glyph glyph-name="comma" unicode="," horiz-adv-x="212" 
d="M72 -103h-64l84 265h87z" />
    <glyph glyph-name="hyphen" unicode="-" horiz-adv-x="297" 
d="M254 272h-213v65h213v-65z" />
    <glyph glyph-name="period" unicode="." horiz-adv-x="182" 
d="M142 45q0 -21 -15 -36t-36 -15t-35.5 15t-14.5 36t14.5 36t35.5 15t36 -15t15 -36z" />
    <glyph glyph-name="slash" unicode="/" horiz-adv-x="284" 
d="M267 758l-169 -804h-81l168 804h82z" />
    <glyph glyph-name="zero" unicode="0" horiz-adv-x="480" 
d="M240 -8q-85 0 -138 55.5t-53 144.5v322q0 89 53 144.5t138 55.5q84 0 137.5 -56t53.5 -144v-322q0 -88 -53.5 -144t-137.5 -56zM240 74q48 0 77 31.5t29 94.5v306q0 63 -29 94.5t-77 31.5q-49 0 -78 -31.5t-29 -94.5v-306q0 -63 29 -94.5t78 -31.5z" />
    <glyph glyph-name="one" unicode="1" horiz-adv-x="250" 
d="M34 568v82q44 0 58.5 11.5t14.5 43.5h77v-705h-83v581q-21 -13 -58 -13h-9z" />
    <glyph glyph-name="two" unicode="2" horiz-adv-x="465" 
d="M406 82v-82h-364v52q0 55 16 101.5t41.5 79.5t56.5 62t62.5 54.5t57 51t41.5 57.5t16 68q0 53 -28 80.5t-77 27.5q-47 0 -75.5 -31t-28.5 -82h-82q0 88 50.5 141t135.5 53q86 0 135.5 -52.5t49.5 -140.5q0 -50 -21.5 -94.5t-53.5 -75.5l-69 -64l-69 -60.5t-53.5 -66
t-21.5 -79.5h281z" />
    <glyph glyph-name="three" unicode="3" horiz-adv-x="468" 
d="M335 526q0 108 -105 108q-54 0 -80.5 -28.5t-26.5 -89.5h-81q0 93 50 145.5t140 52.5q86 0 136.5 -52.5t50.5 -128.5v-26q0 -54 -24 -93t-67 -55q45 -14 71 -54t26 -99v-22q0 -78 -50.5 -135.5t-140.5 -57.5q-91 0 -143.5 54.5t-52.5 148.5h85q0 -51 27.5 -86t83.5 -35
q107 0 107 118v16q0 56 -27 85t-76 29h-74v74h72q46 0 72.5 30.5t26.5 87.5v13z" />
    <glyph glyph-name="four" unicode="4" horiz-adv-x="487" 
d="M374 705v-450h72v-78h-72v-177h-82v177h-259v78l262 450h79zM115 256l177 -1v306z" />
    <glyph glyph-name="five" unicode="5" horiz-adv-x="474" 
d="M43 191h83q0 -61 28.5 -90t77.5 -29q109 0 109 144v64q0 60 -27 95t-81 35q-73 0 -100 -67l-79 14l52 348h288v-82h-221l-28 -187q14 18 43.5 33t67.5 15q81 0 124.5 -52t43.5 -151v-60q0 -106 -48.5 -168t-142.5 -62q-84 0 -137 55.5t-53 144.5z" />
    <glyph glyph-name="six" unicode="6" horiz-adv-x="466" 
d="M84 465l115 240h91l-110 -225q33 13 73 13q170 0 170 -211v-68q0 -103 -48.5 -163t-141.5 -60q-96 0 -142.5 59.5t-46.5 165.5v39q0 127 40 210zM233 422q-59 0 -82.5 -35.5t-23.5 -115.5v-36q0 -90 23.5 -126t82.5 -36q57 0 81.5 36.5t24.5 125.5v36q0 80 -24.5 115.5
t-81.5 35.5z" />
    <glyph glyph-name="seven" unicode="7" horiz-adv-x="410" 
d="M190 0h-84l173 623h-237v82h342z" />
    <glyph glyph-name="eight" unicode="8" horiz-adv-x="474" 
d="M231 395h12q46 0 72.5 30.5t26.5 87.5v13q0 108 -105 108t-105 -108v-13q0 -57 26 -87.5t73 -30.5zM233 73h8q106 0 106 121v13q0 56 -26.5 85t-75.5 29h-16q-50 0 -76.5 -29t-26.5 -85v-13q0 -121 107 -121zM233 -9q-96 0 -143.5 56.5t-47.5 136.5v22q0 59 25.5 99
t71.5 54q-44 16 -67.5 55t-23.5 93v26q0 77 49 129t142 52q89 0 138 -52t49 -129v-26q0 -54 -24 -93t-67 -55q45 -14 71 -54t26 -99v-22q0 -79 -48.5 -136t-142.5 -57h-8z" />
    <glyph glyph-name="nine" unicode="9" horiz-adv-x="466" 
d="M381 240l-115 -240h-91l110 224q-37 -13 -72 -13q-88 0 -128.5 57t-40.5 155v68q0 103 47.5 163t141.5 60q95 0 142.5 -61t47.5 -164v-42q0 -122 -42 -207zM233 283q106 0 106 150v56q0 76 -26 109t-80 33q-53 0 -79.5 -33t-26.5 -109v-56q0 -150 106 -150z" />
    <glyph glyph-name="colon" unicode=":" horiz-adv-x="182" 
d="M142 515q0 -21 -15 -36t-36 -15t-35.5 15t-14.5 36t14.5 36t35.5 15t36 -15t15 -36zM142 45q0 -21 -15 -36t-36 -15t-35.5 15t-14.5 36t14.5 36t35.5 15t36 -15t15 -36z" />
    <glyph glyph-name="semicolon" unicode=";" horiz-adv-x="220" 
d="M72 -103h-64l84 265h87zM172 515q0 -21 -15 -36t-35 -15q-21 0 -36 15t-15 36t15 36t36 15q20 0 35 -15t15 -36z" />
    <glyph glyph-name="less" unicode="&#x3c;" horiz-adv-x="388" 
d="M49 359l290 142v-79l-214 -99l214 -98v-79l-290 142v71z" />
    <glyph glyph-name="equal" unicode="=" horiz-adv-x="398" 
d="M347 388h-298v75h298v-75zM347 247h-298v74h298v-74z" />
    <glyph glyph-name="greater" unicode="&#x3e;" horiz-adv-x="388" 
d="M49 501l290 -141v-71l-290 -143v79l210 98l-210 99v79z" />
    <glyph glyph-name="question" unicode="?" horiz-adv-x="432" 
d="M244 45q0 -21 -14.5 -35.5t-36.5 -14.5q-21 0 -35.5 14.5t-14.5 35.5t14.5 36t35.5 15q22 0 36.5 -15t14.5 -36zM213 634q-106 0 -106 -113h-82q0 92 50 143t138 51q78 0 129 -47t51 -120q0 -52 -19.5 -93t-47.5 -69.5l-55.5 -56t-47 -67.5t-19.5 -89q0 -14 1 -22h-25
q-12 47 -12 82q0 42 15 77.5t36 60.5l42.5 49t36.5 54t15 63q0 44 -28 70.5t-72 26.5z" />
    <glyph glyph-name="at" unicode="@" horiz-adv-x="540" 
d="M385 598v-458q31 1 46.5 15.5t15.5 53.5v263q0 106 -42 156t-133 50q-93 0 -136.5 -50.5t-43.5 -155.5v-248q0 -107 45 -151.5t154 -44.5h148v-35h-148q-126 0 -180 54t-54 177v248q0 122 52.5 181.5t162.5 59.5q108 0 159 -59.5t51 -181.5v-226q0 -24 -3 -43t-6.5 -33
t-12.5 -25l-14.5 -18t-19.5 -11.5t-21 -7t-24.5 -3.5t-24.5 -1h-27v38q-21 -42 -78 -42q-56 0 -77.5 35t-21.5 96v223q0 35 3 58t12.5 45.5t30.5 33.5t53 11q57 0 78 -43v39h56zM212 472v-241q0 -18 1.5 -30t7 -25.5t17.5 -20.5t31 -7q36 0 47 27.5t11 91.5v144
q0 32 -1.5 52t-6.5 43t-17.5 34.5t-32.5 11.5q-57 0 -57 -80z" />
    <glyph glyph-name="A" unicode="A" horiz-adv-x="475" 
d="M240 586l-87 -354h171zM378 0l-38 158h-204l-39 -158h-86l182 705h92l179 -705h-86z" />
    <glyph glyph-name="B" unicode="B" horiz-adv-x="469" 
d="M65 0v705h171q88 0 137.5 -39.5t49.5 -120.5v-57q0 -101 -77 -131q82 -30 82 -131v-65q0 -82 -49.5 -121.5t-136.5 -39.5h-177zM148 81h91q53 0 79.5 21t26.5 76v53q0 92 -98 92h-99v-242zM148 391h101q46 0 68.5 21.5t22.5 72.5v43q0 53 -26.5 74t-80.5 21h-85v-232z
" />
    <glyph glyph-name="C" unicode="C" horiz-adv-x="472" 
d="M431 227v-35q0 -88 -53.5 -144t-137.5 -56q-85 0 -138 55.5t-53 144.5v321q0 89 53 145t138 56q83 0 137 -56.5t54 -144.5v-28h-85v32q0 55 -30 85t-76 30t-76.5 -29t-30.5 -86v-328q0 -56 30 -85.5t77 -29.5q45 0 75.5 29t30.5 86v38h85z" />
    <glyph glyph-name="D" unicode="D" horiz-adv-x="489" 
d="M248 705q99 -2 145.5 -61.5t46.5 -186.5v-216q0 -126 -46.5 -183.5t-145.5 -57.5h-183v705h183zM356 493q0 74 -30.5 102t-85.5 28h-91v-542h91q66 0 91 37.5t25 149.5v225z" />
    <glyph glyph-name="E" unicode="E" horiz-adv-x="429" 
d="M383 705v-82h-235v-229h172v-75h-172v-237h235v-82h-318v705h318z" />
    <glyph glyph-name="F" unicode="F" horiz-adv-x="404" 
d="M371 705v-82h-223v-229h159v-75h-159v-319h-83v705h306z" />
    <glyph glyph-name="G" unicode="G" horiz-adv-x="479" 
d="M239 74q107 0 107 143v42h-107v75h191v-114q0 -104 -49 -166t-142 -62q-85 0 -137.5 55.5t-52.5 144.5v321q0 89 53 145t137 56q83 0 136.5 -55t54.5 -141h-84q-1 55 -31 84.5t-76 29.5t-76.5 -29t-30.5 -86v-328q0 -56 30 -85.5t77 -29.5z" />
    <glyph glyph-name="H" unicode="H" horiz-adv-x="499" 
d="M149 319v-319h-84v705h84v-311h201v311h84v-705h-84v319h-201z" />
    <glyph glyph-name="I" unicode="I" horiz-adv-x="215" 
d="M148 705v-705h-83v705h83z" />
    <glyph glyph-name="J" unicode="J" horiz-adv-x="457" 
d="M315 205v500h84v-480q0 -107 -45 -170.5t-138 -63.5q-83 0 -133 55t-50 144v54h84v-56q0 -55 28 -85t71 -30q99 0 99 132z" />
    <glyph glyph-name="K" unicode="K" horiz-adv-x="454" 
d="M269 359l177 -359h-96l-151 320h-50v-320h-84v705h84v-308h50l151 308h96z" />
    <glyph glyph-name="L" unicode="L" horiz-adv-x="390" 
d="M364 82v-82h-299v705h84v-623h215z" />
    <glyph glyph-name="M" unicode="M" horiz-adv-x="604" 
d="M271 92l-123 375v-467h-83v705h83l153 -486l155 486h82v-705h-84v469l-123 -377h-60z" />
    <glyph glyph-name="N" unicode="N" horiz-adv-x="514" 
d="M448 705v-705h-78l-221 498v-498h-84v705h78l221 -503v503h84z" />
    <glyph glyph-name="O" unicode="O" horiz-adv-x="480" 
d="M240 -8q-85 0 -138 55.5t-53 144.5v321q0 89 53 145t138 56q83 0 137 -56.5t54 -144.5v-321q0 -88 -53.5 -144t-137.5 -56zM240 74q45 0 75.5 29t30.5 86v328q0 55 -30 85t-76 30t-76.5 -29t-30.5 -86v-328q0 -56 30 -85.5t77 -29.5z" />
    <glyph glyph-name="P" unicode="P" horiz-adv-x="470" 
d="M149 0h-84v705h171q93 0 143 -61t50 -175v-45q0 -114 -49.5 -173.5t-143.5 -59.5h-87v-191zM229 623h-80v-351h80q117 0 117 144v62q0 79 -29.5 112t-87.5 33z" />
    <glyph glyph-name="Q" unicode="Q" horiz-adv-x="480" 
d="M255 -109l-51 105q-87 13 -121 79t-34 183v221q0 107 48 171t143 64q94 0 142.5 -64t48.5 -171v-255q0 -191 -140 -226l62 -107h-98zM240 74q106 0 106 144v269q0 145 -106 145q-107 0 -107 -144v-269q0 -145 107 -145z" />
    <glyph glyph-name="R" unicode="R" horiz-adv-x="470" 
d="M149 0h-84v705h174q93 0 141.5 -59.5t48.5 -171.5v-39q0 -172 -121 -210l121 -225h-95l-105 206h-80v-206zM229 623h-80v-336h80q117 0 117 128v64q0 79 -28.5 111.5t-88.5 32.5z" />
    <glyph glyph-name="S" unicode="S" horiz-adv-x="446" 
d="M221 715q84 0 135 -52t51 -144h-83q0 57 -28 86.5t-75 29.5q-45 0 -71 -24.5t-26 -66.5t29.5 -75.5t72 -59.5l85 -54.5t72 -74t29.5 -104.5q0 -87 -50 -136t-138 -49t-140 52.5t-52 148.5h83q0 -61 29.5 -91t80.5 -30q47 0 75.5 26t28.5 75q0 45 -29.5 80.5t-72 62.5
l-85 55.5t-72 72.5t-29.5 101q0 76 47.5 123.5t132.5 47.5z" />
    <glyph glyph-name="T" unicode="T" horiz-adv-x="405" 
d="M380 705v-82h-136v-623h-85v623h-134v82h355z" />
    <glyph glyph-name="U" unicode="U" horiz-adv-x="496" 
d="M57 192v513h84v-516q0 -55 29.5 -85t76.5 -30q46 0 76.5 29t30.5 86v516h85v-513q0 -88 -54 -144t-138 -56t-137 56t-53 144z" />
    <glyph glyph-name="V" unicode="V" horiz-adv-x="466" 
d="M188 0l-171 705h86l129 -546l128 546h86l-172 -705h-86z" />
    <glyph glyph-name="W" unicode="W" horiz-adv-x="678" 
d="M159 0l-142 705h84l104 -519l97 519h74l97 -519l103 519h84l-143 -705h-82l-95 511l-96 -511h-85z" />
    <glyph glyph-name="X" unicode="X" horiz-adv-x="458" 
d="M442 0h-93l-120 275l-120 -275h-93l167 361l-159 344h93l112 -258l113 258h92l-160 -344z" />
    <glyph glyph-name="Y" unicode="Y" horiz-adv-x="452" 
d="M184 0v261l-176 444h89l129 -337l130 337h89l-178 -444v-261h-83z" />
    <glyph glyph-name="Z" unicode="Z" horiz-adv-x="414" 
d="M373 82v-82h-348l238 623h-219v82h337l-239 -623h231z" />
    <glyph glyph-name="bracketleft" unicode="[" horiz-adv-x="279" 
d="M65 757h173v-73h-93v-657h93v-72h-173v802z" />
    <glyph glyph-name="backslash" unicode="\" horiz-adv-x="284" 
d="M185 -46l-168 804h81l169 -804h-82z" />
    <glyph glyph-name="bracketright" unicode="]" horiz-adv-x="279" 
d="M214 757v-802h-173v72h93v657h-93v73h173z" />
    <glyph glyph-name="asciicircum" unicode="^" horiz-adv-x="433" 
d="M252 652l139 -288h-78l-98 215l-96 -215h-78l138 288h73z" />
    <glyph glyph-name="underscore" unicode="_" horiz-adv-x="452" 
d="M410 -123h-368v65h368v-65z" />
    <glyph glyph-name="grave" unicode="`" horiz-adv-x="421" 
d="M245 583h-65l-80 130h86z" />
    <glyph glyph-name="a" unicode="a" 
d="M193 -8q-69 0 -107.5 45.5t-38.5 131.5v224q0 86 39 130.5t107 44.5q45 0 77 -20.5t44 -44.5v58h75v-561h-75v58q-12 -24 -44 -45t-77 -21zM218 61q43 0 67 29t24 84v217q0 53 -24 81t-67 28q-44 0 -67.5 -29t-23.5 -83v-214q0 -113 91 -113z" />
    <glyph glyph-name="b" unicode="b" 
d="M253 -8q-87 0 -120 66v-58h-76v755h80v-248q11 24 40.5 42.5t75.5 18.5q70 0 108.5 -45t38.5 -130v-225q0 -86 -38.5 -131t-108.5 -45zM228 60q44 0 68 29.5t24 83.5v215q0 53 -24 82.5t-68 29.5q-42 0 -66.5 -28t-24.5 -80v-219q0 -55 24 -84t67 -29z" />
    <glyph glyph-name="c" unicode="c" horiz-adv-x="429" 
d="M218 65q91 0 91 112h80q0 -87 -45 -136t-126 -49t-126 49t-45 134v212q0 83 45 132t126 49q82 0 126.5 -49.5t44.5 -136.5h-80q0 112 -91 112q-43 0 -67.5 -25.5t-24.5 -72.5v-232q0 -48 25 -73.5t67 -25.5z" />
    <glyph glyph-name="d" unicode="d" 
d="M193 -8q-69 0 -108 45t-39 131v225q0 85 39 130t108 45q45 0 73.5 -18t40.5 -42v247h82v-755h-75v58q-36 -66 -121 -66zM218 60q43 0 67 29t24 84v218q0 52 -24 80t-67 28q-44 0 -67.5 -29t-23.5 -83v-214q0 -55 23.5 -84t67.5 -29z" />
    <glyph glyph-name="e" unicode="e" horiz-adv-x="434" 
d="M389 389v-135h-263v-75q0 -56 23.5 -87t68.5 -31q41 0 66 23.5t25 60.5v18h80v-9q0 -70 -45 -116t-126 -46t-126 49.5t-45 135.5v212q0 83 45 131.5t126 48.5q80 0 125.5 -49t45.5 -131zM309 398q0 47 -25 74t-66 27q-42 0 -67 -25.5t-25 -73.5v-87h183v85z" />
    <glyph glyph-name="f" unicode="f" horiz-adv-x="283" 
d="M254 755v-70q-10 2 -21 2q-47 0 -59 -22.5t-12 -103.5h91v-71h-91v-490h-80v490h-49v71h49q0 111 25.5 154t104.5 43z" />
    <glyph glyph-name="g" unicode="g" 
d="M193 -8q-69 0 -107.5 45.5t-38.5 131.5v224q0 83 37 128t101 45q47 0 82 -18.5t47 -44.5v58h75v-591q0 -88 -37.5 -130.5t-132.5 -42.5q-167 0 -167 141h78q0 -34 22 -55.5t67 -21.5q48 0 69 22.5t21 69.5v105q-12 -26 -41.5 -46t-74.5 -20zM218 59q91 0 91 119v211
q0 111 -91 111t-91 -112v-206q0 -123 91 -123z" />
    <glyph glyph-name="h" unicode="h" horiz-adv-x="451" 
d="M137 387v-387h-80v755h80v-253q12 32 44 49t74 17q73 0 109 -49.5t36 -156.5v-362h-80v353q0 77 -18 111.5t-74 34.5q-48 0 -69.5 -27t-21.5 -85z" />
    <glyph glyph-name="i" unicode="i" horiz-adv-x="190" 
d="M135 561v-561h-81v561h81zM146 676q0 -21 -15 -35.5t-36 -14.5t-35.5 14.5t-14.5 35.5t14.5 35.5t35.5 14.5t36 -14.5t15 -35.5z" />
    <glyph glyph-name="j" unicode="j" horiz-adv-x="193" 
d="M-18 -200v73q43 0 59 21.5t16 77.5v589h81v-573q0 -99 -35 -143.5t-121 -44.5zM148 676q0 -21 -15 -35.5t-36 -14.5t-35 14.5t-14 35.5t14 35.5t35 14.5t36 -14.5t15 -35.5z" />
    <glyph glyph-name="k" unicode="k" horiz-adv-x="424" 
d="M244 285l157 -285h-92l-131 250h-40v-250h-81v755h81v-437h40l130 243h92z" />
    <glyph glyph-name="l" unicode="l" horiz-adv-x="195" 
d="M138 755v-755h-81v755h81z" />
    <glyph glyph-name="m" unicode="m" horiz-adv-x="639" 
d="M137 407v-407h-80v561h76v-49q34 56 101 56q80 0 112 -71q13 29 44 50t74 21q124 0 124 -183v-385h-80v394q0 52 -15 77t-52 25q-42 0 -60 -24.5t-18 -74.5v-397h-80v394q0 54 -16.5 81t-56.5 27q-34 0 -53.5 -24.5t-19.5 -70.5z" />
    <glyph glyph-name="n" unicode="n" horiz-adv-x="451" 
d="M137 388v-388h-80v561h76v-59q12 25 43.5 45.5t76.5 20.5q147 0 147 -194v-374h-80v370q0 68 -18.5 99t-73.5 31q-91 0 -91 -112z" />
    <glyph glyph-name="o" unicode="o" horiz-adv-x="437" 
d="M218 -8q-81 0 -126 49t-45 134v212q0 83 45 131.5t126 48.5q80 0 125.5 -49t45.5 -131v-212q0 -85 -45.5 -134t-125.5 -49zM218 494q-43 0 -67.5 -25.5t-24.5 -72.5v-232q0 -48 25 -73.5t67 -25.5q41 0 66 26t25 73v232q0 47 -24.5 72.5t-66.5 25.5z" />
    <glyph glyph-name="p" unicode="p" horiz-adv-x="451" 
d="M253 567q147 0 147 -192v-206q0 -85 -38.5 -130t-108.5 -45q-46 0 -75.5 19.5t-40.5 43.5v-246h-80v750h76v-60q12 25 43.5 45.5t76.5 20.5zM228 499q-42 0 -66.5 -28.5t-24.5 -81.5v-215q0 -54 24 -82.5t67 -28.5q44 0 68 28.5t24 82.5v212q0 54 -24 83.5t-68 29.5z" />
    <glyph glyph-name="q" unicode="q" horiz-adv-x="450" 
d="M196 567q46 0 77.5 -20.5t43.5 -45.5v60h75v-750h-79v245q-35 -62 -117 -62q-69 0 -108 45t-39 130v221q0 86 39 131.5t108 45.5zM222 498q-92 0 -92 -113v-214q0 -111 92 -111q43 0 67 28.5t24 82.5v218q0 53 -24.5 81t-66.5 28z" />
    <glyph glyph-name="r" unicode="r" horiz-adv-x="297" 
d="M263 567v-80h-11q-63 0 -89 -42t-26 -123v-322h-80v561h76v-71q10 30 40 54t76 24z" />
    <glyph glyph-name="s" unicode="s" horiz-adv-x="418" 
d="M207 569q82 0 125 -44t43 -125h-77q0 96 -89 96q-38 0 -60.5 -20.5t-22.5 -52.5q0 -33 26 -56.5t63.5 -39.5t74.5 -35.5t63 -56t26 -88.5q0 -64 -42.5 -109.5t-125.5 -45.5q-81 0 -128 45.5t-47 123.5h80q0 -47 25.5 -73.5t69.5 -26.5q36 0 62.5 22.5t26.5 59.5t-26 63
t-63 43l-74 35.5t-63 53.5t-26 84q0 64 42.5 105.5t116.5 41.5z" />
    <glyph glyph-name="t" unicode="t" horiz-adv-x="288" 
d="M24 490v65q40 0 56.5 22t16.5 83h53v-99h102v-71h-102v-270q0 -97 9 -120q13 -32 62 -33q6 0 17.5 0.5t15.5 0.5v-72q-16 -2 -40 -2q-90 0 -117 46.5t-27 152.5v297h-46z" />
    <glyph glyph-name="u" unicode="u" horiz-adv-x="444" 
d="M49 175v386h81v-397q0 -48 25 -73.5t67 -25.5q41 0 66 26t25 73v397h80v-386q0 -85 -45.5 -134t-125.5 -49q-81 0 -127 49t-46 134z" />
    <glyph glyph-name="v" unicode="v" horiz-adv-x="423" 
d="M170 0l-152 561h87l107 -436l105 436h87l-151 -561h-83z" />
    <glyph glyph-name="w" unicode="w" horiz-adv-x="609" 
d="M145 0l-128 561h83l86 -402l83 402h71l83 -403l86 403h82l-127 -561h-78l-82 393l-82 -393h-77z" />
    <glyph glyph-name="x" unicode="x" horiz-adv-x="436" 
d="M405 561l-144 -272l153 -289h-90l-107 214l-107 -214h-90l152 289l-142 272h91l96 -196l97 196h91z" />
    <glyph glyph-name="y" unicode="y" horiz-adv-x="427" 
d="M118 -188l53 193l-153 556h87l108 -422l109 422h86l-208 -749h-82z" />
    <glyph glyph-name="z" unicode="z" horiz-adv-x="385" 
d="M342 73v-73h-313l209 488h-196v73h309l-208 -488h199z" />
    <glyph glyph-name="braceleft" unicode="{" horiz-adv-x="284" 
d="M158 569q0 -131 -13 -171q-11 -33 -32 -43q27 -14 37 -53.5t9 -85t0.5 -89t21 -72.5t62.5 -29v-73q-96 0 -130.5 49.5t-34.5 168.5v74q0 21 -1 31.5t-5 22.5t-13.5 17t-25.5 5v70q30 0 37.5 17t7.5 59v72q0 119 34.5 168.5t130.5 49.5v-73q-51 0 -68 -26.5t-17 -88.5z
" />
    <glyph glyph-name="bar" unicode="|" horiz-adv-x="195" 
d="M138 758v-804h-81v804h81z" />
    <glyph glyph-name="braceright" unicode="}" horiz-adv-x="284" 
d="M125 569q0 62 -17 88.5t-67 26.5v73q95 0 129.5 -49.5t34.5 -168.5v-72q0 -42 7.5 -59t37.5 -17v-70q-16 0 -25.5 -5t-13.5 -17t-5 -22.5t-1 -31.5v-74q0 -119 -34.5 -168.5t-129.5 -49.5v73q42 0 61.5 29t21 72.5t0.5 89t9 85t37 53.5q-21 10 -31.5 46.5t-12 67
t-1.5 89.5v11z" />
    <glyph glyph-name="nbspace" unicode="&#xa0;" horiz-adv-x="403" 
 />
    <glyph glyph-name="exclamdown" unicode="&#xa1;" horiz-adv-x="182" 
d="M79 554h23q37 -430 37 -508q0 -52 -49 -52q-48 0 -48 52q0 35 9.5 162t18.5 236zM41 660q0 21 14.5 36t34.5 15q22 0 37 -15t15 -36t-15 -36t-37 -15q-20 0 -34.5 15t-14.5 36z" />
    <glyph glyph-name="cent" unicode="&#xa2;" horiz-adv-x="430" 
d="M218 65q91 0 91 112h80q0 -68 -28.5 -114t-81.5 -63v-66h-35v60q-18 -2 -26 -2q-10 0 -26 2v-60h-36v66q-52 16 -80.5 61.5t-28.5 113.5v212q0 65 28 110t81 62v67h36v-60q16 2 26 2q8 0 26 -2v60h35v-67q110 -36 110 -177h-80q0 112 -91 112q-43 0 -67.5 -25.5
t-24.5 -72.5v-232q0 -48 25 -73.5t67 -25.5z" />
    <glyph glyph-name="sterling" unicode="&#xa3;" horiz-adv-x="473" 
d="M112 365q-16 37 -23.5 57t-14.5 54t-5 67q5 77 53 124.5t125 47.5q79 0 131.5 -54t52.5 -140h-82q0 54 -27.5 83.5t-73.5 29.5q-87 0 -96 -100q-6 -71 41 -169h135v-35h-121l24 -53h97v-35h-82q36 -84 36 -160h137v-82h-370v82h164q-2 71 -46 160h-115v35h100l-25 53h-75
v35h60z" />
    <glyph glyph-name="yen" unicode="&#xa5;" horiz-adv-x="469" 
d="M124 205h68v59l-176 441h89l129 -338l130 338h88l-177 -441v-59h69v-35h-69v-53h67v-35h-67v-82h-83v82h-68v35h68v53h-68v35z" />
    <glyph glyph-name="brokenbar" unicode="&#xa6;" horiz-adv-x="195" 
d="M57 312h81v-358h-81v358zM57 405v353h81v-353h-81z" />
    <glyph glyph-name="dieresis" unicode="&#xa8;" horiz-adv-x="402" 
d="M309 622q0 -17 -12 -29t-29 -12q-16 0 -27.5 12t-11.5 29q0 16 11.5 28t27.5 12q17 0 29 -11.5t12 -28.5zM172 622q0 -17 -11.5 -29t-27.5 -12q-17 0 -28.5 12t-11.5 29q0 16 11.5 28t28.5 12q16 0 27.5 -12t11.5 -28z" />
    <glyph glyph-name="copyright" unicode="&#xa9;" horiz-adv-x="540" 
d="M447 234v237q0 106 -42.5 157t-132.5 51q-92 0 -135 -51t-43 -157v-237q0 -106 43 -157t135 -51q90 0 132.5 51t42.5 157zM482 461v-217q0 -129 -50.5 -191t-159.5 -62q-110 0 -161.5 62.5t-51.5 190.5v217q0 128 51.5 190.5t161.5 62.5q109 0 159.5 -62t50.5 -191z
M333 272h61v-51q0 -59 -32 -94t-90 -35q-60 0 -91 40t-31 111v215q0 156 122 156q59 0 90.5 -34t31.5 -96v-46h-61v41q0 79 -61 79q-21 0 -34 -7.5t-18.5 -24t-7 -31.5t-1.5 -42v-215q0 -44 13.5 -65.5t47.5 -21.5t47.5 18t13.5 57v46z" />
    <glyph glyph-name="ordfeminine" unicode="&#xaa;" horiz-adv-x="443" 
d="M192 190q-68 0 -105.5 45t-37.5 131v171q0 84 36.5 128.5t101.5 44.5q47 0 79.5 -19t42.5 -44v58h75v-508h-75v58q-33 -65 -117 -65zM217 259q41 0 64 26t23 77v183q0 48 -23 73.5t-64 25.5q-87 0 -87 -103v-179q0 -103 87 -103zM268 45q0 -21 -14.5 -35.5t-36.5 -14.5
q-21 0 -36 14.5t-15 35.5t15 36t36 15q22 0 36.5 -15t14.5 -36z" />
    <glyph glyph-name="guillemotleft" unicode="&#xab;" horiz-adv-x="403" 
d="M298 471h64l-84 -165l84 -166h-64l-106 166zM147 471h63l-83 -165l83 -166h-63l-106 166z" />
    <glyph glyph-name="registered" unicode="&#xae;" horiz-adv-x="540" 
d="M447 234v237q0 106 -42.5 157t-132.5 51q-92 0 -135 -51t-43 -157v-237q0 -106 43 -157t135 -51q90 0 132.5 51t42.5 157zM482 461v-217q0 -129 -50.5 -191t-159.5 -62q-110 0 -161.5 62.5t-51.5 190.5v217q0 128 51.5 190.5t161.5 62.5q109 0 159.5 -62t50.5 -191z
M214 108h-60v499h110q66 0 100.5 -42t34.5 -121v-28q0 -121 -86 -149l86 -159h-67l-75 146h-43v-146zM257 549h-43v-238h43q83 0 83 91v45q0 56 -20.5 79t-62.5 23z" />
    <glyph glyph-name="macron" unicode="&#xaf;" horiz-adv-x="464" 
d="M346 585h-228v60h228v-60z" />
    <glyph glyph-name="degree" unicode="&#xb0;" horiz-adv-x="349" 
d="M174 443q-60 0 -92.5 35.5t-32.5 98.5v3q0 62 33 97.5t92 35.5q58 0 92 -36t34 -97v-3q0 -62 -33.5 -98t-92.5 -36zM174 657q-64 0 -64 -75v-11q0 -72 64 -72q66 0 66 75v11q0 35 -18 53.5t-48 18.5z" />
    <glyph glyph-name="acute" unicode="&#xb4;" horiz-adv-x="421" 
d="M239 584h-64l58 129h87z" />
    <glyph glyph-name="paragraph" unicode="&#xb6;" horiz-adv-x="289" 
d="M232 705v-743h-76v503q-61 0 -84 16t-23 71v66q0 56 24 71.5t83 15.5h76z" />
    <glyph glyph-name="periodcentered" unicode="&#xb7;" horiz-adv-x="182" 
d="M142 304q0 -21 -15 -36t-36 -15t-35.5 15t-14.5 36t14.5 36.5t35.5 15.5t36 -15.5t15 -36.5z" />
    <glyph glyph-name="cedilla" unicode="&#xb8;" horiz-adv-x="432" 
d="M199 23h51q-13 -52 -46 -153h-87z" />
    <glyph glyph-name="ordmasculine" unicode="&#xba;" horiz-adv-x="426" 
d="M213 187q-81 0 -124.5 48.5t-43.5 134.5v162q0 84 43.5 132.5t124.5 48.5q79 0 122.5 -48.5t43.5 -132.5v-162q0 -86 -43.5 -134.5t-122.5 -48.5zM213 639q-42 0 -65 -25t-23 -73v-182q0 -48 23 -73.5t65 -25.5q41 0 64 25.5t23 73.5v182q0 47 -23.5 72.5t-63.5 25.5z
M263 45q0 -21 -14.5 -36t-35.5 -15t-36 15t-15 36t15 36t36 15t35.5 -15t14.5 -36z" />
    <glyph glyph-name="guillemotright" unicode="&#xbb;" horiz-adv-x="403" 
d="M192 471h63l106 -165l-106 -166h-63l83 166zM41 471h63l106 -165l-106 -166h-63l83 166z" />
    <glyph glyph-name="questiondown" unicode="&#xbf;" horiz-adv-x="432" 
d="M187 662q0 21 14.5 35.5t36.5 14.5q20 0 35 -14.5t15 -35.5t-15 -36t-35 -15q-22 0 -36.5 15t-14.5 36zM218 73q106 0 106 113h82q0 -92 -50 -143t-138 -51q-78 0 -129 47t-51 120q0 52 19.5 93t47 69.5l55.5 56t47.5 67.5t19.5 89q0 14 -1 22h24q12 -46 12 -82
q0 -42 -15 -77.5t-36 -60.5l-42 -49t-36 -54t-15 -63q0 -44 28 -70.5t72 -26.5z" />
    <glyph glyph-name="Agrave" unicode="&#xc0;" horiz-adv-x="484" 
d="M244 586l-87 -354h171zM382 0l-38 158h-204l-39 -158h-86l182 705h92l179 -705h-86zM280 766h-65l-80 130h86z" />
    <glyph glyph-name="Aacute" unicode="&#xc1;" horiz-adv-x="484" 
d="M244 586l-87 -354h171zM382 0l-38 158h-204l-39 -158h-86l182 705h92l179 -705h-86zM269 767h-64l58 129h87z" />
    <glyph glyph-name="Acircumflex" unicode="&#xc2;" horiz-adv-x="484" 
d="M244 586l-87 -354h171zM382 0l-38 158h-204l-39 -158h-86l182 705h92l179 -705h-86zM173 753h-66l97 127h77l97 -127h-67l-68 75z" />
    <glyph glyph-name="Atilde" unicode="&#xc3;" horiz-adv-x="484" 
d="M244 586l-87 -354h171zM382 0l-38 158h-204l-39 -158h-86l182 705h92l179 -705h-86zM377 858v-66q-35 -24 -69 -24q-24 0 -63 11.5t-61 11.5q-38 0 -77 -26v66q41 24 70 24q23 0 62.5 -12.5t60.5 -12.5q38 0 77 28z" />
    <glyph glyph-name="Adieresis" unicode="&#xc4;" horiz-adv-x="484" 
d="M244 586l-87 -354h171zM382 0l-38 158h-204l-39 -158h-86l182 705h92l179 -705h-86zM350 807q0 -17 -12 -29t-29 -12q-16 0 -27.5 12t-11.5 29q0 16 11.5 28t27.5 12q17 0 29 -11.5t12 -28.5zM213 807q0 -17 -11.5 -29t-27.5 -12q-17 0 -28.5 12t-11.5 29t12 28.5
t28 11.5t27.5 -12t11.5 -28z" />
    <glyph glyph-name="Aring" unicode="&#xc5;" horiz-adv-x="484" 
d="M244 586l-87 -354h171zM382 0l-38 158h-204l-39 -158h-86l182 705h92l179 -705h-86zM309 833q0 -28 -19.5 -48t-46.5 -20q-28 0 -48 20t-20 48t20 47.5t48 19.5q27 0 46.5 -19.5t19.5 -47.5zM268 834q0 10 -7 17.5t-18 7.5t-18.5 -7.5t-7.5 -17.5q0 -11 7.5 -18.5
t18.5 -7.5t18 7.5t7 18.5z" />
    <glyph glyph-name="AE" unicode="&#xc6;" horiz-adv-x="740" 
d="M213 231h162v349zM693 0h-317v158h-194l-76 -158h-91l340 705h338v-82h-233v-229h170v-75h-170v-237h233v-82z" />
    <glyph glyph-name="Ccedilla" unicode="&#xc7;" horiz-adv-x="475" 
d="M431 227v-35q0 -80 -44.5 -134t-117.5 -64l-35 -124h-87l63 124q-72 10 -116.5 64t-44.5 134v321q0 89 53 145t138 56q83 0 137 -56.5t54 -144.5v-28h-85v32q0 55 -30 85t-76 30t-76.5 -29t-30.5 -86v-328q0 -56 30 -85.5t77 -29.5q45 0 75.5 29t30.5 86v38h85z" />
    <glyph glyph-name="Egrave" unicode="&#xc8;" horiz-adv-x="429" 
d="M383 705v-82h-235v-229h172v-75h-172v-237h235v-82h-318v705h318zM276 768h-65l-80 130h86z" />
    <glyph glyph-name="Eacute" unicode="&#xc9;" horiz-adv-x="429" 
d="M383 705v-82h-235v-229h172v-75h-172v-237h235v-82h-318v705h318zM247 769h-64l58 129h87z" />
    <glyph glyph-name="Ecircumflex" unicode="&#xca;" horiz-adv-x="429" 
d="M383 705v-82h-235v-229h172v-75h-172v-237h235v-82h-318v705h318zM152 769h-66l97 127h77l97 -127h-67l-68 75z" />
    <glyph glyph-name="Edieresis" unicode="&#xcb;" horiz-adv-x="429" 
d="M383 705v-82h-235v-229h172v-75h-172v-237h235v-82h-318v705h318zM331 807q0 -17 -12 -29t-29 -12q-16 0 -27.5 12t-11.5 29q0 16 11.5 28t27.5 12q17 0 29 -11.5t12 -28.5zM194 807q0 -17 -11.5 -29t-27.5 -12q-17 0 -28.5 12t-11.5 29t11.5 28.5t28.5 11.5
q16 0 27.5 -12t11.5 -28z" />
    <glyph glyph-name="Igrave" unicode="&#xcc;" horiz-adv-x="214" 
d="M148 705v-705h-83v705h83zM149 768h-65l-80 130h86z" />
    <glyph glyph-name="Iacute" unicode="&#xcd;" horiz-adv-x="214" 
d="M148 705v-705h-83v705h83zM131 769h-64l58 129h87z" />
    <glyph glyph-name="Icircumflex" unicode="&#xce;" horiz-adv-x="213" 
d="M148 705v-705h-83v705h83zM37 769h-66l97 127h77l97 -127h-67l-68 75z" />
    <glyph glyph-name="Idieresis" unicode="&#xcf;" horiz-adv-x="214" 
d="M148 705v-705h-83v705h83zM216 807q0 -17 -12 -29t-29 -12q-16 0 -27.5 12t-11.5 29q0 16 11.5 28t27.5 12q17 0 29 -11.5t12 -28.5zM79 807q0 -17 -11.5 -29t-27.5 -12q-17 0 -28.5 12t-11.5 29t12 28.5t28 11.5t27.5 -12t11.5 -28z" />
    <glyph glyph-name="Eth" unicode="&#xd0;" horiz-adv-x="499" 
d="M76 375v330h183q191 0 191 -251v-203q0 -251 -191 -251h-183v340h-58v35h58zM250 623h-90v-248h95v-35h-95v-259h90q63 0 90 43t27 159v164q0 99 -28.5 137.5t-88.5 38.5z" />
    <glyph glyph-name="Ntilde" unicode="&#xd1;" horiz-adv-x="514" 
d="M448 705v-705h-78l-221 498v-498h-84v705h78l221 -503v503h84zM391 858v-66q-35 -24 -69 -24q-24 0 -63 11.5t-61 11.5q-38 0 -77 -26v66q41 24 70 24q23 0 62.5 -12.5t60.5 -12.5q38 0 77 28z" />
    <glyph glyph-name="Ograve" unicode="&#xd2;" horiz-adv-x="480" 
d="M240 -8q-85 0 -138 55.5t-53 144.5v321q0 89 53 145t138 56q83 0 137 -56.5t54 -144.5v-321q0 -88 -53.5 -144t-137.5 -56zM240 74q45 0 75.5 29t30.5 86v328q0 55 -30 85t-76 30t-76.5 -29t-30.5 -86v-328q0 -56 30 -85.5t77 -29.5zM277 768h-65l-80 130h86z" />
    <glyph glyph-name="Oacute" unicode="&#xd3;" horiz-adv-x="480" 
d="M240 -8q-85 0 -138 55.5t-53 144.5v321q0 89 53 145t138 56q83 0 137 -56.5t54 -144.5v-321q0 -88 -53.5 -144t-137.5 -56zM240 74q45 0 75.5 29t30.5 86v328q0 55 -30 85t-76 30t-76.5 -29t-30.5 -86v-328q0 -56 30 -85.5t77 -29.5zM266 769h-64l58 129h87z" />
    <glyph glyph-name="Ocircumflex" unicode="&#xd4;" horiz-adv-x="480" 
d="M240 -8q-85 0 -138 55.5t-53 144.5v321q0 89 53 145t138 56q83 0 137 -56.5t54 -144.5v-321q0 -88 -53.5 -144t-137.5 -56zM240 74q45 0 75.5 29t30.5 86v328q0 55 -30 85t-76 30t-76.5 -29t-30.5 -86v-328q0 -56 30 -85.5t77 -29.5zM170 769h-66l97 127h77l97 -127h-67
l-68 75z" />
    <glyph glyph-name="Otilde" unicode="&#xd5;" horiz-adv-x="480" 
d="M240 -8q-85 0 -138 55.5t-53 144.5v321q0 89 53 145t138 56q83 0 137 -56.5t54 -144.5v-321q0 -88 -53.5 -144t-137.5 -56zM240 74q45 0 75.5 29t30.5 86v328q0 55 -30 85t-76 30t-76.5 -29t-30.5 -86v-328q0 -56 30 -85.5t77 -29.5zM374 858v-66q-35 -24 -69 -24
q-24 0 -63 11.5t-61 11.5q-38 0 -77 -26v66q41 24 70 24q23 0 62.5 -12.5t60.5 -12.5q38 0 77 28z" />
    <glyph glyph-name="Odieresis" unicode="&#xd6;" horiz-adv-x="480" 
d="M240 -8q-85 0 -138 55.5t-53 144.5v321q0 89 53 145t138 56q83 0 137 -56.5t54 -144.5v-321q0 -88 -53.5 -144t-137.5 -56zM240 74q45 0 75.5 29t30.5 86v328q0 55 -30 85t-76 30t-76.5 -29t-30.5 -86v-328q0 -56 30 -85.5t77 -29.5zM347 807q0 -17 -12 -29t-29 -12
q-16 0 -27.5 12t-11.5 29q0 16 11.5 28t27.5 12q17 0 29 -11.5t12 -28.5zM210 807q0 -17 -11.5 -29t-27.5 -12q-17 0 -28.5 12t-11.5 29t11.5 28.5t28.5 11.5q16 0 27.5 -12t11.5 -28z" />
    <glyph glyph-name="multiply" unicode="&#xd7;" horiz-adv-x="402" 
d="M300 204l-100 100l-99 -100l-52 53l99 100l-99 101l52 53l99 -101l99 101l52 -53l-99 -101l100 -100q-34 -36 -52 -53z" />
    <glyph glyph-name="Oslash" unicode="&#xd8;" horiz-adv-x="486" 
d="M240 -8q-42 0 -78 14l-19 -71h-37l24 89q-81 54 -81 168v321q0 89 53 145t138 56q38 0 74 -14l20 73h36q-8 -25 -24 -89q85 -57 85 -171v-321q0 -88 -53.5 -144t-137.5 -56zM240 74q45 0 75.5 29t30.5 86v328q0 51 -24 79l-138 -509q23 -13 56 -13zM133 189q0 -45 21 -76
l138 507q-24 12 -52 12q-46 0 -76.5 -29t-30.5 -86v-328z" />
    <glyph glyph-name="Ugrave" unicode="&#xd9;" horiz-adv-x="496" 
d="M57 192v513h84v-516q0 -55 29.5 -85t76.5 -30q46 0 76.5 29t30.5 86v516h85v-513q0 -88 -54 -144t-138 -56t-137 56t-53 144zM289 768h-65l-80 130h86z" />
    <glyph glyph-name="Uacute" unicode="&#xda;" horiz-adv-x="496" 
d="M57 192v513h84v-516q0 -55 29.5 -85t76.5 -30q46 0 76.5 29t30.5 86v516h85v-513q0 -88 -54 -144t-138 -56t-137 56t-53 144zM275 769h-64l58 129h87z" />
    <glyph glyph-name="Ucircumflex" unicode="&#xdb;" horiz-adv-x="496" 
d="M57 192v513h84v-516q0 -55 29.5 -85t76.5 -30q46 0 76.5 29t30.5 86v516h85v-513q0 -88 -54 -144t-138 -56t-137 56t-53 144zM177 769h-66l97 127h77l97 -127h-67l-68 75z" />
    <glyph glyph-name="Udieresis" unicode="&#xdc;" horiz-adv-x="496" 
d="M57 192v513h84v-516q0 -55 29.5 -85t76.5 -30q46 0 76.5 29t30.5 86v516h85v-513q0 -88 -54 -144t-138 -56t-137 56t-53 144zM356 807q0 -17 -12 -29t-29 -12q-16 0 -27.5 12t-11.5 29q0 16 11.5 28t27.5 12q17 0 29 -11.5t12 -28.5zM219 807q0 -17 -11.5 -29t-27.5 -12
q-17 0 -28.5 12t-11.5 29t12 28.5t28 11.5t27.5 -12t11.5 -28z" />
    <glyph glyph-name="Yacute" unicode="&#xdd;" horiz-adv-x="469" 
d="M192 0v261l-176 444h89l129 -337l130 337h89l-178 -444v-261h-83zM266 769h-64l58 129h87z" />
    <glyph glyph-name="Thorn" unicode="&#xde;" horiz-adv-x="466" 
d="M148 705v-85h91q190 0 190 -238v-49q0 -235 -190 -235h-90v-98h-84v705h83zM207 538h-58v-359h80q58 0 87.5 34.5t29.5 111.5v65q0 84 -34.5 116t-104.5 32z" />
    <glyph glyph-name="germandbls" unicode="&#xdf;" horiz-adv-x="486" 
d="M404 618q0 -74 -62 -89q56 -17 76.5 -61.5t20.5 -121.5v-137q0 -213 -168 -213l-26 1v74q9 -1 14 -1q27 0 46.5 9t29.5 21t15.5 34t6.5 39.5t1 45.5v112q0 87 -21 123t-92 36v71q44 0 61 13.5t17 39.5v20q0 52 -64 52h-20q-46 0 -59.5 -25t-13.5 -98v-563h-80v489h-51v72
h51q0 105 34 151.5t124 46.5h12q69 0 108.5 -31t39.5 -85v-25z" />
    <glyph glyph-name="agrave" unicode="&#xe0;" 
d="M193 -8q-69 0 -107.5 45.5t-38.5 131.5v224q0 86 39 130.5t107 44.5q45 0 77 -20.5t44 -44.5v58h75v-561h-75v58q-12 -24 -44 -45t-77 -21zM218 61q43 0 67 29t24 84v217q0 53 -24 81t-67 28q-44 0 -67.5 -29t-23.5 -83v-214q0 -113 91 -113zM254 620h-65l-80 130h86z
" />
    <glyph glyph-name="aacute" unicode="&#xe1;" 
d="M193 -8q-69 0 -107.5 45.5t-38.5 131.5v224q0 86 39 130.5t107 44.5q45 0 77 -20.5t44 -44.5v58h75v-561h-75v58q-12 -24 -44 -45t-77 -21zM218 61q43 0 67 29t24 84v217q0 53 -24 81t-67 28q-44 0 -67.5 -29t-23.5 -83v-214q0 -113 91 -113zM233 622h-64l58 129h87z" />
    <glyph glyph-name="acircumflex" unicode="&#xe2;" 
d="M193 -8q-69 0 -107.5 45.5t-38.5 131.5v224q0 86 39 130.5t107 44.5q45 0 77 -20.5t44 -44.5v58h75v-561h-75v58q-12 -24 -44 -45t-77 -21zM218 61q43 0 67 29t24 84v217q0 53 -24 81t-67 28q-44 0 -67.5 -29t-23.5 -83v-214q0 -113 91 -113zM154 621h-66l97 127h77
l97 -127h-67l-68 75z" />
    <glyph glyph-name="atilde" unicode="&#xe3;" 
d="M193 -8q-69 0 -107.5 45.5t-38.5 131.5v224q0 86 39 130.5t107 44.5q45 0 77 -20.5t44 -44.5v58h75v-561h-75v58q-12 -24 -44 -45t-77 -21zM218 61q43 0 67 29t24 84v217q0 53 -24 81t-67 28q-44 0 -67.5 -29t-23.5 -83v-214q0 -113 91 -113zM357 707v-66
q-35 -24 -69 -24q-24 0 -63 11.5t-61 11.5q-38 0 -77 -26v66q40 24 70 24q23 0 62.5 -12.5t60.5 -12.5q38 0 77 28z" />
    <glyph glyph-name="adieresis" unicode="&#xe4;" 
d="M193 -8q-69 0 -107.5 45.5t-38.5 131.5v224q0 86 39 130.5t107 44.5q45 0 77 -20.5t44 -44.5v58h75v-561h-75v58q-12 -24 -44 -45t-77 -21zM218 61q43 0 67 29t24 84v217q0 53 -24 81t-67 28q-44 0 -67.5 -29t-23.5 -83v-214q0 -113 91 -113zM330 659q0 -17 -12 -29
t-29 -12q-16 0 -27.5 12t-11.5 29q0 16 11.5 28t27.5 12q17 0 29 -11.5t12 -28.5zM193 659q0 -17 -11.5 -29t-27.5 -12q-17 0 -28.5 12t-11.5 29t12 28.5t28 11.5t27.5 -12t11.5 -28z" />
    <glyph glyph-name="aring" unicode="&#xe5;" 
d="M193 -8q-69 0 -107.5 45.5t-38.5 131.5v224q0 86 39 130.5t107 44.5q45 0 77 -20.5t44 -44.5v58h75v-561h-75v58q-12 -24 -44 -45t-77 -21zM218 61q43 0 67 29t24 84v217q0 53 -24 81t-67 28q-44 0 -67.5 -29t-23.5 -83v-214q0 -113 91 -113zM293 684q0 -28 -19.5 -48
t-46.5 -20q-28 0 -48 20t-20 48t20 47.5t48 19.5q27 0 46.5 -19.5t19.5 -47.5zM252 685q0 11 -7 18t-18 7t-18.5 -7.5t-7.5 -17.5q0 -11 7.5 -18.5t18.5 -7.5t18 7.5t7 18.5z" />
    <glyph glyph-name="ae" unicode="&#xe6;" horiz-adv-x="694" 
d="M389 395v-82h182v38q0 82 -19.5 115.5t-70.5 33.5q-41 0 -66.5 -27.5t-25.5 -77.5zM314 561h75v-54q11 24 42.5 42.5t70.5 18.5q79 0 114 -51.5t35 -159.5v-103h-262v-56q0 -62 23 -100.5t69 -38.5q41 0 65.5 25.5t24.5 65.5h80v-2q0 -70 -38.5 -113t-110.5 -43
q-81 0 -113 66v-58h-75v58q-12 -24 -44 -45t-77 -21q-69 0 -107.5 45.5t-38.5 131.5v224q0 86 39 130.5t107 44.5q45 0 77 -20.5t44 -44.5v58zM218 61q43 0 67 29t24 84v217q0 53 -24 81t-67 28q-44 0 -67.5 -29t-23.5 -83v-214q0 -113 91 -113z" />
    <glyph glyph-name="ccedilla" unicode="&#xe7;" horiz-adv-x="431" 
d="M218 65q91 0 91 112h80q0 -79 -37 -127t-105 -56l-39 -124h-86l66 124q-68 9 -104.5 56t-36.5 125v212q0 83 45 132t126 49q82 0 126.5 -49.5t44.5 -136.5h-80q0 112 -91 112q-43 0 -67.5 -25.5t-24.5 -72.5v-232q0 -48 25 -73.5t67 -25.5z" />
    <glyph glyph-name="egrave" unicode="&#xe8;" horiz-adv-x="432" 
d="M388 389v-135h-263v-75q0 -56 23.5 -87t68.5 -31q41 0 66 23.5t25 60.5v18h80v-9q0 -70 -45 -116t-126 -46t-126 49.5t-45 135.5v212q0 83 45 131.5t126 48.5q80 0 125.5 -49t45.5 -131zM308 398q0 47 -25 74t-66 27q-42 0 -67 -25.5t-25 -73.5v-87h183v85zM254 621h-65
l-80 130h86z" />
    <glyph glyph-name="eacute" unicode="&#xe9;" horiz-adv-x="432" 
d="M388 389v-135h-263v-75q0 -56 23.5 -87t68.5 -31q41 0 66 23.5t25 60.5v18h80v-9q0 -70 -45 -116t-126 -46t-126 49.5t-45 135.5v212q0 83 45 131.5t126 48.5q80 0 125.5 -49t45.5 -131zM308 398q0 47 -25 74t-66 27q-42 0 -67 -25.5t-25 -73.5v-87h183v85zM243 622h-64
l58 129h87z" />
    <glyph glyph-name="ecircumflex" unicode="&#xea;" horiz-adv-x="432" 
d="M388 389v-135h-263v-75q0 -56 23.5 -87t68.5 -31q41 0 66 23.5t25 60.5v18h80v-9q0 -70 -45 -116t-126 -46t-126 49.5t-45 135.5v212q0 83 45 131.5t126 48.5q80 0 125.5 -49t45.5 -131zM308 398q0 47 -25 74t-66 27q-42 0 -67 -25.5t-25 -73.5v-87h183v85zM146 620h-66
l97 127h77l97 -127h-67l-68 75z" />
    <glyph glyph-name="edieresis" unicode="&#xeb;" horiz-adv-x="432" 
d="M388 389v-135h-263v-75q0 -56 23.5 -87t68.5 -31q41 0 66 23.5t25 60.5v18h80v-9q0 -70 -45 -116t-126 -46t-126 49.5t-45 135.5v212q0 83 45 131.5t126 48.5q80 0 125.5 -49t45.5 -131zM308 398q0 47 -25 74t-66 27q-42 0 -67 -25.5t-25 -73.5v-87h183v85zM322 659
q0 -17 -12 -29t-29 -12q-16 0 -27.5 12t-11.5 29q0 16 11.5 28t27.5 12q17 0 29 -11.5t12 -28.5zM185 659q0 -17 -11.5 -29t-27.5 -12q-17 0 -28.5 12t-11.5 29t12 28.5t28 11.5t27.5 -12t11.5 -28z" />
    <glyph glyph-name="igrave" unicode="&#xec;" horiz-adv-x="197" 
d="M138 621h-65l-80 130h86zM138 561v-561h-81v561h81z" />
    <glyph glyph-name="iacute" unicode="&#xed;" horiz-adv-x="195" 
d="M121 622h-64l58 129h87zM138 561v-561h-81v561h81z" />
    <glyph glyph-name="icircumflex" unicode="&#xee;" horiz-adv-x="195" 
d="M138 561v-561h-81v561h81zM28 621h-66l97 127h77l97 -127h-67l-68 75z" />
    <glyph glyph-name="idieresis" unicode="&#xef;" horiz-adv-x="194" 
d="M207 660q0 -17 -12 -29t-29 -12q-16 0 -27.5 12t-11.5 29q0 16 11.5 28t27.5 12q17 0 29 -11.5t12 -28.5zM70 660q0 -17 -11.5 -29t-27.5 -12q-17 0 -28.5 12t-11.5 29q0 16 11.5 28t28.5 12q16 0 27.5 -12t11.5 -28zM138 561v-561h-81v561h81z" />
    <glyph glyph-name="eth" unicode="&#xf0;" horiz-adv-x="438" 
d="M250 755l34 -73h71v-35h-55q33 -67 47 -101q24 -55 34 -94.5t10 -90.5v-162q0 -206 -173 -206q-171 0 -171 207v166q0 199 156 199q38 0 59 -12l-43 94h-71v35h54l-34 73h82zM218 493q-91 0 -91 -116v-190q0 -63 22 -92t69 -29q54 0 73 29.5t19 108.5v173q0 116 -92 116z
" />
    <glyph glyph-name="ntilde" unicode="&#xf1;" horiz-adv-x="451" 
d="M137 388v-388h-80v561h76v-59q12 25 43.5 45.5t76.5 20.5q147 0 147 -194v-374h-80v370q0 68 -18.5 99t-73.5 31q-91 0 -91 -112zM359 711v-66q-35 -24 -69 -24q-24 0 -63 11.5t-61 11.5q-38 0 -77 -26v66q40 24 70 24q23 0 62.5 -12.5t60.5 -12.5q38 0 77 28z" />
    <glyph glyph-name="ograve" unicode="&#xf2;" horiz-adv-x="437" 
d="M218 -8q-81 0 -126 49t-45 134v212q0 83 45 131.5t126 48.5q80 0 125.5 -49t45.5 -131v-212q0 -85 -45.5 -134t-125.5 -49zM218 494q-43 0 -67.5 -25.5t-24.5 -72.5v-232q0 -48 25 -73.5t67 -25.5q41 0 66 26t25 73v232q0 47 -24.5 72.5t-66.5 25.5zM260 620h-65l-80 130
h86z" />
    <glyph glyph-name="oacute" unicode="&#xf3;" horiz-adv-x="437" 
d="M218 -8q-81 0 -126 49t-45 134v212q0 83 45 131.5t126 48.5q80 0 125.5 -49t45.5 -131v-212q0 -85 -45.5 -134t-125.5 -49zM218 494q-43 0 -67.5 -25.5t-24.5 -72.5v-232q0 -48 25 -73.5t67 -25.5q41 0 66 26t25 73v232q0 47 -24.5 72.5t-66.5 25.5zM246 621h-64l58 129
h87z" />
    <glyph glyph-name="ocircumflex" unicode="&#xf4;" horiz-adv-x="437" 
d="M218 -8q-81 0 -126 49t-45 134v212q0 83 45 131.5t126 48.5q80 0 125.5 -49t45.5 -131v-212q0 -85 -45.5 -134t-125.5 -49zM218 494q-43 0 -67.5 -25.5t-24.5 -72.5v-232q0 -48 25 -73.5t67 -25.5q41 0 66 26t25 73v232q0 47 -24.5 72.5t-66.5 25.5zM149 620h-66l97 127
h77l97 -127h-67l-68 75z" />
    <glyph glyph-name="otilde" unicode="&#xf5;" horiz-adv-x="437" 
d="M218 -8q-81 0 -126 49t-45 134v212q0 83 45 131.5t126 48.5q80 0 125.5 -49t45.5 -131v-212q0 -85 -45.5 -134t-125.5 -49zM218 494q-43 0 -67.5 -25.5t-24.5 -72.5v-232q0 -48 25 -73.5t67 -25.5q41 0 66 26t25 73v232q0 47 -24.5 72.5t-66.5 25.5zM353 708v-66
q-35 -24 -69 -24q-24 0 -63 11.5t-61 11.5q-38 0 -77 -26v66q40 24 70 24q23 0 62.5 -12.5t60.5 -12.5q38 0 77 28z" />
    <glyph glyph-name="odieresis" unicode="&#xf6;" horiz-adv-x="437" 
d="M218 -8q-81 0 -126 49t-45 134v212q0 83 45 131.5t126 48.5q80 0 125.5 -49t45.5 -131v-212q0 -85 -45.5 -134t-125.5 -49zM218 494q-43 0 -67.5 -25.5t-24.5 -72.5v-232q0 -48 25 -73.5t67 -25.5q41 0 66 26t25 73v232q0 47 -24.5 72.5t-66.5 25.5zM326 658
q0 -17 -12 -29t-29 -12q-16 0 -27.5 12t-11.5 29q0 16 11.5 28t27.5 12q17 0 29 -11.5t12 -28.5zM189 658q0 -17 -11.5 -29t-27.5 -12q-17 0 -28.5 12t-11.5 29q0 16 12 28t28 12t27.5 -12t11.5 -28z" />
    <glyph glyph-name="divide" unicode="&#xf7;" horiz-adv-x="396" 
d="M243 227q0 -19 -13.5 -32.5t-32.5 -13.5t-32.5 13.5t-13.5 32.5q0 20 13.5 33.5t32.5 13.5t32.5 -13.5t13.5 -33.5zM243 488q0 -19 -13.5 -32.5t-32.5 -13.5t-32.5 13.5t-13.5 32.5q0 20 13.5 33.5t32.5 13.5t32.5 -13.5t13.5 -33.5zM355 319h-306v74h306v-74z" />
    <glyph glyph-name="oslash" unicode="&#xf8;" horiz-adv-x="437" 
d="M141 -65h-37l22 79q-79 44 -79 161v212q0 83 45 131.5t126 48.5q28 0 55 -8l20 72h38l-24 -86q82 -44 82 -158v-212q0 -85 -45.5 -134t-125.5 -49q-31 0 -60 8zM309 396q0 44 -23 70l-108 -394q17 -7 40 -7q41 0 66 26t25 73v232zM218 494q-43 0 -67.5 -25.5t-24.5 -72.5
v-232q0 -43 22 -70l106 394q-15 6 -36 6z" />
    <glyph glyph-name="ugrave" unicode="&#xf9;" horiz-adv-x="443" 
d="M49 175v386h81v-397q0 -48 25 -73.5t67 -25.5q41 0 66 26t25 73v397h80v-386q0 -85 -45.5 -134t-125.5 -49q-81 0 -127 49t-46 134zM273 621h-65l-80 130h86z" />
    <glyph glyph-name="uacute" unicode="&#xfa;" horiz-adv-x="443" 
d="M49 175v386h81v-397q0 -48 25 -73.5t67 -25.5q41 0 66 26t25 73v397h80v-386q0 -85 -45.5 -134t-125.5 -49q-81 0 -127 49t-46 134zM237 622h-64l58 129h87z" />
    <glyph glyph-name="ucircumflex" unicode="&#xfb;" horiz-adv-x="443" 
d="M49 175v386h81v-397q0 -48 25 -73.5t67 -25.5q41 0 66 26t25 73v397h80v-386q0 -85 -45.5 -134t-125.5 -49q-81 0 -127 49t-46 134zM151 619h-66l97 127h77l97 -127h-67l-68 75z" />
    <glyph glyph-name="udieresis" unicode="&#xfc;" horiz-adv-x="443" 
d="M49 175v386h81v-397q0 -48 25 -73.5t67 -25.5q41 0 66 26t25 73v397h80v-386q0 -85 -45.5 -134t-125.5 -49q-81 0 -127 49t-46 134zM329 660q0 -17 -12 -29t-29 -12q-16 0 -27.5 12t-11.5 29q0 16 11.5 28t27.5 12q17 0 29 -11.5t12 -28.5zM192 660q0 -17 -11.5 -29
t-27.5 -12q-17 0 -28.5 12t-11.5 29q0 16 11.5 28t28.5 12q16 0 27.5 -12t11.5 -28z" />
    <glyph glyph-name="yacute" unicode="&#xfd;" horiz-adv-x="427" 
d="M118 -188l53 193l-153 556h87l108 -422l109 422h86l-208 -749h-82zM237 622h-64l58 129h87z" />
    <glyph glyph-name="thorn" unicode="&#xfe;" horiz-adv-x="451" 
d="M253 -7q-46 0 -75.5 19.5t-40.5 43.5v-245h-80v944h80v-253q11 25 41 45t75 20q70 0 108.5 -44.5t38.5 -130.5v-223q0 -86 -38.5 -131t-108.5 -45zM228 61q44 0 68 29t24 83v214q0 54 -24 83t-68 29q-42 0 -66.5 -28t-24.5 -80v-218q0 -54 24 -83t67 -29z" />
    <glyph glyph-name="ydieresis" unicode="&#xff;" horiz-adv-x="427" 
d="M118 -188l53 193l-153 556h87l108 -422l109 422h86l-208 -749h-82zM321 657q0 -17 -12 -29t-29 -12q-16 0 -27.5 12t-11.5 29q0 16 11.5 28t27.5 12q17 0 29 -11.5t12 -28.5zM184 657q0 -17 -11.5 -29t-27.5 -12q-17 0 -28.5 12t-11.5 29t11.5 28.5t28.5 11.5
q16 0 27.5 -12t11.5 -28z" />
    <glyph glyph-name="Amacron" unicode="&#x100;" horiz-adv-x="484" 
d="M244 586l-87 -354h171zM382 0l-38 158h-204l-39 -158h-86l182 705h92l179 -705h-86zM356 770h-228v60h228v-60z" />
    <glyph glyph-name="amacron" unicode="&#x101;" 
d="M193 -8q-69 0 -107.5 45.5t-38.5 131.5v224q0 86 39 130.5t107 44.5q45 0 77 -20.5t44 -44.5v58h75v-561h-75v58q-12 -24 -44 -45t-77 -21zM218 61q43 0 67 29t24 84v217q0 53 -24 81t-67 28q-44 0 -67.5 -29t-23.5 -83v-214q0 -113 91 -113zM339 621h-228v60h228v-60z
" />
    <glyph glyph-name="Abreve" unicode="&#x102;" horiz-adv-x="484" 
d="M244 586l-87 -354h171zM382 0l-38 158h-204l-39 -158h-86l182 705h92l179 -705h-86zM121 883v12h63v-17q0 -27 15.5 -40.5t41.5 -13.5q23 0 40.5 13.5t17.5 39.5v18h64v-14q0 -55 -32 -85t-90 -30q-56 0 -88 32t-32 85z" />
    <glyph glyph-name="abreve" unicode="&#x103;" 
d="M193 -8q-69 0 -107.5 45.5t-38.5 131.5v224q0 86 39 130.5t107 44.5q45 0 77 -20.5t44 -44.5v58h75v-561h-75v58q-12 -24 -44 -45t-77 -21zM218 61q43 0 67 29t24 84v217q0 53 -24 81t-67 28q-44 0 -67.5 -29t-23.5 -83v-214q0 -113 91 -113zM106 733v12h63v-17
q0 -27 15.5 -40.5t41.5 -13.5q23 0 40.5 13.5t17.5 39.5v18h64v-14q0 -55 -32 -85t-90 -30q-56 0 -88 32t-32 85z" />
    <glyph glyph-name="Aogonek" unicode="&#x104;" horiz-adv-x="484" 
d="M467 -96v-67q-32 -7 -61 -7q-54 0 -80 32.5t-24 86.5q3 70 70 92l-28 117h-204l-39 -158h-86l182 705h92l177 -705q-20 0 -30.5 -1t-28 -5t-26 -15.5t-8.5 -29.5q0 -50 56 -50q19 0 38 5zM244 586l-87 -354h171z" />
    <glyph glyph-name="aogonek" unicode="&#x105;" horiz-adv-x="446" 
d="M390 -96v-67q-35 -7 -67 -6t-54 24t-22 64q0 63 67 89v50q-12 -24 -44 -45t-77 -21q-69 0 -107.5 45.5t-38.5 131.5v224q0 86 39 130.5t107 44.5q45 0 77 -20.5t44 -44.5v58h75v-561q-26 0 -50.5 -17t-24.5 -41q0 -28 21.5 -38t54.5 0zM218 61q43 0 67 29t24 84v217
q0 53 -24 81t-67 28q-44 0 -67.5 -29t-23.5 -83v-214q0 -113 91 -113z" />
    <glyph glyph-name="Cacute" unicode="&#x106;" horiz-adv-x="472" 
d="M431 227v-35q0 -88 -53.5 -144t-137.5 -56q-85 0 -138 55.5t-53 144.5v321q0 89 53 145t138 56q83 0 137 -56.5t54 -144.5v-28h-85v32q0 55 -30 85t-76 30t-76.5 -29t-30.5 -86v-328q0 -56 30 -85.5t77 -29.5q45 0 75.5 29t30.5 86v38h85zM257 769h-64l58 129h87z" />
    <glyph glyph-name="cacute" unicode="&#x107;" horiz-adv-x="431" 
d="M218 65q91 0 91 112h80q0 -87 -45 -136t-126 -49t-126 49t-45 134v212q0 83 45 132t126 49q82 0 126.5 -49.5t44.5 -136.5h-80q0 112 -91 112q-43 0 -67.5 -25.5t-24.5 -72.5v-232q0 -48 25 -73.5t67 -25.5zM244 622h-64l58 129h87z" />
    <glyph glyph-name="Ccircumflex" unicode="&#x108;" horiz-adv-x="472" 
d="M431 227v-35q0 -88 -53.5 -144t-137.5 -56q-85 0 -138 55.5t-53 144.5v321q0 89 53 145t138 56q83 0 137 -56.5t54 -144.5v-28h-85v32q0 55 -30 85t-76 30t-76.5 -29t-30.5 -86v-328q0 -56 30 -85.5t77 -29.5q45 0 75.5 29t30.5 86v38h85zM166 769h-66l97 127h77l97 -127
h-67l-68 75z" />
    <glyph glyph-name="ccircumflex" unicode="&#x109;" horiz-adv-x="431" 
d="M218 65q91 0 91 112h80q0 -87 -45 -136t-126 -49t-126 49t-45 134v212q0 83 45 132t126 49q82 0 126.5 -49.5t44.5 -136.5h-80q0 112 -91 112q-43 0 -67.5 -25.5t-24.5 -72.5v-232q0 -48 25 -73.5t67 -25.5zM147 621h-66l97 127h77l97 -127h-67l-68 75z" />
    <glyph glyph-name="Cdotaccent" unicode="&#x10a;" horiz-adv-x="472" 
d="M431 227v-35q0 -88 -53.5 -144t-137.5 -56q-85 0 -138 55.5t-53 144.5v321q0 89 53 145t138 56q83 0 137 -56.5t54 -144.5v-28h-85v32q0 55 -30 85t-76 30t-76.5 -29t-30.5 -86v-328q0 -56 30 -85.5t77 -29.5q45 0 75.5 29t30.5 86v38h85zM287 816q0 -21 -15 -35.5
t-36 -14.5t-35.5 14.5t-14.5 35.5t14.5 35.5t35.5 14.5t36 -14.5t15 -35.5z" />
    <glyph glyph-name="cdotaccent" unicode="&#x10b;" horiz-adv-x="431" 
d="M218 65q91 0 91 112h80q0 -87 -45 -136t-126 -49t-126 49t-45 134v212q0 83 45 132t126 49q82 0 126.5 -49.5t44.5 -136.5h-80q0 112 -91 112q-43 0 -67.5 -25.5t-24.5 -72.5v-232q0 -48 25 -73.5t67 -25.5zM268 668q0 -21 -15 -35.5t-36 -14.5t-35.5 14.5t-14.5 35.5
t14.5 35.5t35.5 14.5t36 -14.5t15 -35.5z" />
    <glyph glyph-name="Ccaron" unicode="&#x10c;" horiz-adv-x="472" 
d="M431 227v-35q0 -88 -53.5 -144t-137.5 -56q-85 0 -138 55.5t-53 144.5v321q0 89 53 145t138 56q83 0 137 -56.5t54 -144.5v-28h-85v32q0 55 -30 85t-76 30t-76.5 -29t-30.5 -86v-328q0 -56 30 -85.5t77 -29.5q45 0 75.5 29t30.5 86v38h85zM99 895h67l70 -75l68 75h67
l-97 -126h-77z" />
    <glyph glyph-name="ccaron" unicode="&#x10d;" horiz-adv-x="431" 
d="M218 65q91 0 91 112h80q0 -87 -45 -136t-126 -49t-126 49t-45 134v212q0 83 45 132t126 49q82 0 126.5 -49.5t44.5 -136.5h-80q0 112 -91 112q-43 0 -67.5 -25.5t-24.5 -72.5v-232q0 -48 25 -73.5t67 -25.5zM80 746h67l70 -75l68 75h67l-97 -126h-77z" />
    <glyph glyph-name="Dcaron" unicode="&#x10e;" horiz-adv-x="490" 
d="M248 705q99 -2 145.5 -61.5t46.5 -186.5v-216q0 -126 -46.5 -183.5t-145.5 -57.5h-183v705h183zM356 493q0 74 -30.5 102t-85.5 28h-91v-542h91q66 0 91 37.5t25 149.5v225zM101 895h67l70 -75l68 75h67l-97 -126h-77z" />
    <glyph glyph-name="dcaron" unicode="&#x10f;" horiz-adv-x="570" 
d="M192 -8q-69 0 -108 45t-39 131v225q0 85 39 130t108 45q45 0 73.5 -18t40.5 -42v247h82v-755h-75v58q-36 -66 -121 -66zM217 60q43 0 67 29t24 84v218q0 52 -24 80t-67 28q-44 0 -67.5 -29t-23.5 -83v-214q0 -55 23.5 -84t67.5 -29zM483 488h-61l80 266h84z" />
    <glyph glyph-name="Dcroat" unicode="&#x110;" horiz-adv-x="499" 
d="M76 375v330h183q191 0 191 -251v-203q0 -251 -191 -251h-183v340h-58v35h58zM250 623h-90v-248h95v-35h-95v-259h90q63 0 90 43t27 159v164q0 99 -28.5 137.5t-88.5 38.5z" />
    <glyph glyph-name="dcroat" unicode="&#x111;" horiz-adv-x="448" 
d="M193 -8q-69 0 -108 45t-39 131v224q0 85 39 130t108 45q45 0 74.5 -19t42.5 -44v144h-96v35h96v72h79v-72h59v-35h-59v-648h-75v58q-12 -25 -44 -45.5t-77 -20.5zM218 60q43 0 67.5 29t24.5 84v218q0 52 -24.5 80t-67.5 28q-44 0 -67.5 -29t-23.5 -83v-214
q0 -55 23.5 -84t67.5 -29z" />
    <glyph glyph-name="Emacron" unicode="&#x112;" horiz-adv-x="429" 
d="M383 705v-82h-235v-229h172v-75h-172v-237h235v-82h-318v705h318zM337 770h-228v60h228v-60z" />
    <glyph glyph-name="emacron" unicode="&#x113;" horiz-adv-x="432" 
d="M388 389v-135h-263v-75q0 -56 23.5 -87t68.5 -31q41 0 66 23.5t25 60.5v18h80v-9q0 -70 -45 -116t-126 -46t-126 49.5t-45 135.5v212q0 83 45 131.5t126 48.5q80 0 125.5 -49t45.5 -131zM308 398q0 47 -25 74t-66 27q-42 0 -67 -25.5t-25 -73.5v-87h183v85zM331 622h-228
v60h228v-60z" />
    <glyph glyph-name="Ebreve" unicode="&#x114;" horiz-adv-x="429" 
d="M383 705v-82h-235v-229h172v-75h-172v-237h235v-82h-318v705h318zM104 883v12h63v-17q0 -27 15.5 -40.5t41.5 -13.5q23 0 40.5 13.5t17.5 39.5v18h64v-14q0 -55 -32 -85t-90 -30q-56 0 -88 32t-32 85z" />
    <glyph glyph-name="ebreve" unicode="&#x115;" horiz-adv-x="432" 
d="M388 389v-135h-263v-75q0 -56 23.5 -87t68.5 -31q41 0 66 23.5t25 60.5v18h80v-9q0 -70 -45 -116t-126 -46t-126 49.5t-45 135.5v212q0 83 45 131.5t126 48.5q80 0 125.5 -49t45.5 -131zM308 398q0 47 -25 74t-66 27q-42 0 -67 -25.5t-25 -73.5v-87h183v85zM94 734v12h63
v-17q0 -27 15.5 -40.5t41.5 -13.5q23 0 40.5 13.5t17.5 39.5v18h64v-14q0 -55 -32 -85t-90 -30q-56 0 -88 32t-32 85z" />
    <glyph glyph-name="Edotaccent" unicode="&#x116;" horiz-adv-x="429" 
d="M383 705v-82h-235v-229h172v-75h-172v-237h235v-82h-318v705h318zM268 817q0 -21 -15 -35.5t-36 -14.5t-35.5 14.5t-14.5 35.5t14.5 35.5t35.5 14.5t36 -14.5t15 -35.5z" />
    <glyph glyph-name="edotaccent" unicode="&#x117;" horiz-adv-x="432" 
d="M388 389v-135h-263v-75q0 -56 23.5 -87t68.5 -31q41 0 66 23.5t25 60.5v18h80v-9q0 -70 -45 -116t-126 -46t-126 49.5t-45 135.5v212q0 83 45 131.5t126 48.5q80 0 125.5 -49t45.5 -131zM308 398q0 47 -25 74t-66 27q-42 0 -67 -25.5t-25 -73.5v-87h183v85zM266 671
q0 -21 -15 -35.5t-36 -14.5t-35.5 14.5t-14.5 35.5t14.5 35.5t35.5 14.5t36 -14.5t15 -35.5z" />
    <glyph glyph-name="Eogonek" unicode="&#x118;" horiz-adv-x="428" 
d="M384 -96v-67q-32 -7 -61 -7q-54 0 -80 32.5t-24 86.5q1 30 15 51h-169v705h318v-82h-235v-229h172v-75h-172v-237h235v-82h-20q-73 -2 -73 -51q0 -50 56 -50q19 0 38 5z" />
    <glyph glyph-name="eogonek" unicode="&#x119;" horiz-adv-x="432" 
d="M318 -96v-67q-32 -7 -61 -7q-53 0 -80 32t-24 82q2 33 16 54q-58 13 -90 60t-32 119v212q0 83 45 131.5t126 48.5q80 0 125.5 -49t45.5 -131v-135h-263v-75q0 -56 23.5 -87t68.5 -31q41 0 66 23.5t25 60.5v18h80v-9q0 -50 -25 -90t-71 -59l-23 -8t-24 -9.5t-14.5 -14
t-7.5 -24.5q0 -50 56 -50q19 0 38 5zM309 398q0 47 -25 74t-66 27q-42 0 -67 -25.5t-25 -73.5v-87h183v85z" />
    <glyph glyph-name="Ecaron" unicode="&#x11a;" horiz-adv-x="429" 
d="M383 705v-82h-235v-229h172v-75h-172v-237h235v-82h-318v705h318zM82 895h67l70 -75l68 75h67l-97 -126h-77z" />
    <glyph glyph-name="ecaron" unicode="&#x11b;" horiz-adv-x="432" 
d="M388 389v-135h-263v-75q0 -56 23.5 -87t68.5 -31q41 0 66 23.5t25 60.5v18h80v-9q0 -70 -45 -116t-126 -46t-126 49.5t-45 135.5v212q0 83 45 131.5t126 48.5q80 0 125.5 -49t45.5 -131zM308 398q0 47 -25 74t-66 27q-42 0 -67 -25.5t-25 -73.5v-87h183v85zM79 745h67
l70 -75l68 75h67l-97 -126h-77z" />
    <glyph glyph-name="Gcircumflex" unicode="&#x11c;" horiz-adv-x="479" 
d="M239 74q107 0 107 143v42h-107v75h191v-114q0 -104 -49 -166t-142 -62q-85 0 -137.5 55.5t-52.5 144.5v321q0 89 53 145t137 56q83 0 136.5 -55t54.5 -141h-84q-1 55 -31 84.5t-76 29.5t-76.5 -29t-30.5 -86v-328q0 -56 30 -85.5t77 -29.5zM170 761h-66l97 127h77
l97 -127h-67l-68 75z" />
    <glyph glyph-name="gcircumflex" unicode="&#x11d;" 
d="M193 -8q-69 0 -107.5 45.5t-38.5 131.5v224q0 83 37 128t101 45q47 0 82 -18.5t47 -44.5v58h75v-591q0 -88 -37.5 -130.5t-132.5 -42.5q-167 0 -167 141h78q0 -34 22 -55.5t67 -21.5q48 0 69 22.5t21 69.5v105q-12 -26 -41.5 -46t-74.5 -20zM218 59q91 0 91 119v211
q0 111 -91 111t-91 -112v-206q0 -123 91 -123zM155 623h-66l97 127h77l97 -127h-67l-68 75z" />
    <glyph glyph-name="Gbreve" unicode="&#x11e;" horiz-adv-x="479" 
d="M239 74q107 0 107 143v42h-107v75h191v-114q0 -104 -49 -166t-142 -62q-85 0 -137.5 55.5t-52.5 144.5v321q0 89 53 145t137 56q83 0 136.5 -55t54.5 -141h-84q-1 55 -31 84.5t-76 29.5t-76.5 -29t-30.5 -86v-328q0 -56 30 -85.5t77 -29.5zM117 883v12h63v-17
q0 -27 15.5 -40.5t41.5 -13.5q23 0 40.5 13.5t17.5 39.5v18h64v-14q0 -55 -32 -85t-90 -30q-56 0 -88 32t-32 85z" />
    <glyph glyph-name="gbreve" unicode="&#x11f;" 
d="M193 -8q-69 0 -107.5 45.5t-38.5 131.5v224q0 83 37 128t101 45q47 0 82 -18.5t47 -44.5v58h75v-591q0 -88 -37.5 -130.5t-132.5 -42.5q-167 0 -167 141h78q0 -34 22 -55.5t67 -21.5q48 0 69 22.5t21 69.5v105q-12 -26 -41.5 -46t-74.5 -20zM218 59q91 0 91 119v211
q0 111 -91 111t-91 -112v-206q0 -123 91 -123zM104 731v12h63v-17q0 -27 15.5 -40.5t41.5 -13.5q23 0 40.5 13.5t17.5 39.5v18h64v-14q0 -55 -32 -85t-90 -30q-56 0 -88 32t-32 85z" />
    <glyph glyph-name="Gdotaccent" unicode="&#x120;" horiz-adv-x="479" 
d="M239 74q107 0 107 143v42h-107v75h191v-114q0 -104 -49 -166t-142 -62q-85 0 -137.5 55.5t-52.5 144.5v321q0 89 53 145t137 56q83 0 136.5 -55t54.5 -141h-84q-1 55 -31 84.5t-76 29.5t-76.5 -29t-30.5 -86v-328q0 -56 30 -85.5t77 -29.5zM288 817q0 -21 -15 -35.5
t-36 -14.5t-35.5 14.5t-14.5 35.5t14.5 35.5t35.5 14.5t36 -14.5t15 -35.5z" />
    <glyph glyph-name="gdotaccent" unicode="&#x121;" 
d="M193 -8q-69 0 -107.5 45.5t-38.5 131.5v224q0 83 37 128t101 45q47 0 82 -18.5t47 -44.5v58h75v-591q0 -88 -37.5 -130.5t-132.5 -42.5q-167 0 -167 141h78q0 -34 22 -55.5t67 -21.5q48 0 69 22.5t21 69.5v105q-12 -26 -41.5 -46t-74.5 -20zM218 59q91 0 91 119v211
q0 111 -91 111t-91 -112v-206q0 -123 91 -123zM262 672q0 -21 -15 -35.5t-36 -14.5t-35.5 14.5t-14.5 35.5t14.5 35.5t35.5 14.5t36 -14.5t15 -35.5z" />
    <glyph glyph-name="Gcommaaccent" unicode="&#x122;" horiz-adv-x="479" 
d="M239 74q107 0 107 143v42h-107v75h191v-114q0 -104 -49 -166t-142 -62q-85 0 -137.5 55.5t-52.5 144.5v321q0 89 53 145t137 56q83 0 136.5 -55t54.5 -141h-84q-1 55 -31 84.5t-76 29.5t-76.5 -29t-30.5 -86v-328q0 -56 30 -85.5t77 -29.5zM218 -228h-51l44 169h87
l-23 -48.5l-34 -71.5z" />
    <glyph glyph-name="gcommaaccent" unicode="&#x123;" 
d="M240 790h51l-13 -49l-18.5 -72l-12.5 -49h-87zM193 -7q-69 0 -107.5 45.5t-38.5 131.5v224q0 83 37 128t101 45q47 0 82 -18.5t47 -44.5v58h75v-591q0 -88 -37.5 -130.5t-132.5 -42.5q-167 0 -167 141h78q0 -34 22 -55.5t67 -21.5q48 0 69 22.5t21 69.5v105
q-12 -26 -41.5 -46t-74.5 -20zM218 60q91 0 91 119v211q0 111 -91 111t-91 -112v-206q0 -123 91 -123z" />
    <glyph glyph-name="Hcircumflex" unicode="&#x124;" horiz-adv-x="499" 
d="M149 319v-319h-84v705h84v-311h201v311h84v-705h-84v319h-201zM174 769h-66l97 127h77l97 -127h-67l-68 75z" />
    <glyph glyph-name="hcircumflex" unicode="&#x125;" horiz-adv-x="451" 
d="M137 387v-387h-80v755h80v-253q12 32 44 49t74 17q73 0 109 -49.5t36 -156.5v-362h-80v353q0 77 -18 111.5t-74 34.5q-48 0 -69.5 -27t-21.5 -85zM143 799h-66l97 127h77l97 -127h-67l-68 75z" />
    <glyph glyph-name="Hbar" unicode="&#x126;" horiz-adv-x="508" 
d="M154 319v-319h-84v531h-63v36h63v138h84v-138h201v138h84v-138h61v-36h-61v-531h-84v319h-201zM154 394h201v137h-201v-137z" />
    <glyph glyph-name="hbar" unicode="&#x127;" horiz-adv-x="451" 
d="M138 648v-146q25 66 118 66q73 0 109 -48t36 -153v-367h-80v358q0 141 -92 141q-26 0 -43.5 -10t-26.5 -23.5t-14 -39.5t-6 -46.5t-1 -55.5v-324h-81v648h-55v35h55v72h81v-72h95v-35h-95z" />
    <glyph glyph-name="Itilde" unicode="&#x128;" horiz-adv-x="213" 
d="M148 705v-705h-83v705h83zM242 858v-66q-35 -24 -69 -24q-24 0 -63 11.5t-61 11.5q-38 0 -77 -26v66q41 24 70 24q23 0 62.5 -12.5t60.5 -12.5q38 0 77 28z" />
    <glyph glyph-name="itilde" unicode="&#x129;" horiz-adv-x="194" 
d="M232 710v-66q-35 -24 -69 -24q-24 0 -63 11.5t-61 11.5q-38 0 -77 -26v66q41 24 70 24q23 0 62.5 -12.5t60.5 -12.5q38 0 77 28zM138 561v-561h-81v561h81z" />
    <glyph glyph-name="Imacron" unicode="&#x12a;" horiz-adv-x="214" 
d="M148 705v-705h-83v705h83zM221 770h-228v60h228v-60z" />
    <glyph glyph-name="imacron" unicode="&#x12b;" horiz-adv-x="194" 
d="M211 619h-228v60h228v-60zM138 561v-561h-81v561h81z" />
    <glyph glyph-name="Ibreve" unicode="&#x12c;" horiz-adv-x="213" 
d="M148 705v-705h-83v705h83zM-13 883v12h63v-17q0 -27 15.5 -40.5t41.5 -13.5q23 0 40.5 13.5t17.5 39.5v18h64v-14q0 -55 -32 -85t-90 -30q-56 0 -88 32t-32 85z" />
    <glyph glyph-name="ibreve" unicode="&#x12d;" horiz-adv-x="195" 
d="M-23 734v12h63v-17q0 -27 15.5 -40.5t41.5 -13.5q23 0 40.5 13.5t17.5 39.5v18h64v-14q0 -55 -32 -85t-90 -30q-56 0 -88 32t-32 85zM138 561v-561h-81v561h81z" />
    <glyph glyph-name="Iogonek" unicode="&#x12e;" horiz-adv-x="215" 
d="M149 -96v-67q-32 -7 -61 -7q-54 0 -80 32.5t-24 86.5q4 72 81 98v658h83v-705q-20 0 -30.5 -1t-28 -5t-26 -15.5t-8.5 -29.5q0 -50 56 -50q19 0 38 5z" />
    <glyph glyph-name="iogonek" unicode="&#x12f;" horiz-adv-x="195" 
d="M137 -96v-67q-32 -7 -61 -7q-54 0 -80 32.5t-24 86.5q4 75 84 99v513h80v-561h-20q-73 -2 -73 -51q0 -50 56 -50q19 0 38 5zM147 676q0 -21 -15 -35.5t-35 -14.5q-22 0 -36 14.5t-14 35.5t14 35.5t36 14.5q20 0 35 -14.5t15 -35.5z" />
    <glyph glyph-name="Idotaccent" unicode="&#x130;" horiz-adv-x="214" 
d="M148 705v-705h-83v705h83zM158 817q0 -21 -15 -35.5t-36 -14.5t-35.5 14.5t-14.5 35.5t14.5 35.5t35.5 14.5t36 -14.5t15 -35.5z" />
    <glyph glyph-name="dotlessi" unicode="&#x131;" horiz-adv-x="196" 
d="M138 561v-561h-81v561h81z" />
    <glyph glyph-name="Jcircumflex" unicode="&#x134;" horiz-adv-x="457" 
d="M315 205v500h84v-480q0 -107 -45 -170.5t-138 -63.5q-83 0 -133 55t-50 144v54h84v-56q0 -55 28 -85t71 -30q99 0 99 132zM187 769h-66l97 127h77l97 -127h-67l-68 75z" />
    <glyph glyph-name="jcircumflex" unicode="&#x135;" horiz-adv-x="193" 
d="M-18 -200v74q43 0 59 21.5t16 77.5v588h81v-530q0 -127 -31 -179t-125 -52zM27 625h-66l96 126h78l97 -126h-67q-55 60 -69 74z" />
    <glyph glyph-name="Kcommaaccent" unicode="&#x136;" horiz-adv-x="471" 
d="M269 359l177 -359h-96l-151 320h-50v-320h-84v705h84v-308h50l151 308h96zM218 -228h-51l44 169h87l-23 -48.5l-34 -71.5z" />
    <glyph glyph-name="kcommaaccent" unicode="&#x137;" horiz-adv-x="424" 
d="M244 285l157 -285h-92l-131 250h-40v-250h-81v755h81v-437h40l130 243h92zM185 -228h-51l44 169h87l-23 -48.5l-34 -71.5z" />
    <glyph glyph-name="kgreenlandic" unicode="&#x138;" horiz-adv-x="424" 
d="M244 285l157 -285h-92l-131 250h-40v-250h-81v561h81v-243h40l130 243h92z" />
    <glyph glyph-name="Lacute" unicode="&#x139;" horiz-adv-x="390" 
d="M364 82v-82h-299v705h84v-623h215zM170 766h-64l58 129h87z" />
    <glyph glyph-name="lacute" unicode="&#x13a;" horiz-adv-x="198" 
d="M138 755v-755h-81v755h81zM124 811h-64l58 129h87z" />
    <glyph glyph-name="Lcommaaccent" unicode="&#x13b;" horiz-adv-x="390" 
d="M364 82v-82h-299v705h84v-623h215zM182 -228h-51l44 169h87l-23 -48.5l-34 -71.5z" />
    <glyph glyph-name="lcommaaccent" unicode="&#x13c;" horiz-adv-x="196" 
d="M138 755v-755h-81v755h81zM63 -228h-51l44 169h87l-23 -48.5l-34 -71.5z" />
    <glyph glyph-name="Lcaron" unicode="&#x13d;" horiz-adv-x="405" 
d="M364 82v-82h-299v705h84v-623h215zM268 437h-63l83 268h87z" />
    <glyph glyph-name="lcaron" unicode="&#x13e;" horiz-adv-x="328" 
d="M138 755v-755h-81v755h81zM235 485h-61l80 268h84z" />
    <glyph glyph-name="Ldot" unicode="&#x13f;" horiz-adv-x="395" 
d="M364 82v-82h-299v705h84v-623h215zM311 340q0 -20 -13.5 -34t-33.5 -14q-21 0 -34 13.5t-13 34.5q0 20 13.5 34.5t33.5 14.5q19 0 33 -14.5t14 -34.5z" />
    <glyph glyph-name="ldot" unicode="&#x140;" horiz-adv-x="261" 
d="M138 755v-755h-81v755h81zM261 339q0 -17 -13 -29.5t-30 -12.5q-18 0 -30 12.5t-12 29.5q0 18 12 31t30 13q17 0 30 -13t13 -31z" />
    <glyph glyph-name="Lslash" unicode="&#x141;" horiz-adv-x="392" 
d="M366 82v-82h-299v335l-64 -21v65l64 21v305h83v-276l65 22v-65l-65 -22v-282h216z" />
    <glyph glyph-name="lslash" unicode="&#x142;" horiz-adv-x="202" 
d="M142 0h-81v335l-58 -21v64l58 20v357h81v-329l58 20v-65l-58 -21v-360z" />
    <glyph glyph-name="Nacute" unicode="&#x143;" horiz-adv-x="514" 
d="M448 705v-705h-78l-221 498v-498h-84v705h78l221 -503v503h84zM280 769h-64l58 129h87z" />
    <glyph glyph-name="nacute" unicode="&#x144;" horiz-adv-x="451" 
d="M137 388v-388h-80v561h76v-59q12 25 43.5 45.5t76.5 20.5q147 0 147 -194v-374h-80v370q0 68 -18.5 99t-73.5 31q-91 0 -91 -112zM265 622h-64l58 129h87z" />
    <glyph glyph-name="Ncommaaccent" unicode="&#x145;" horiz-adv-x="514" 
d="M448 705v-705h-78l-221 498v-498h-84v705h78l221 -503v503h84zM242 -228h-51l44 169h87l-23 -48.5l-34 -71.5z" />
    <glyph glyph-name="ncommaaccent" unicode="&#x146;" horiz-adv-x="451" 
d="M137 388v-388h-80v561h76v-59q12 25 43.5 45.5t76.5 20.5q147 0 147 -194v-374h-80v370q0 68 -18.5 99t-73.5 31q-91 0 -91 -112zM200 -228h-51l44 169h87l-23 -48.5l-34 -71.5z" />
    <glyph glyph-name="Ncaron" unicode="&#x147;" horiz-adv-x="514" 
d="M448 705v-705h-78l-221 498v-498h-84v705h78l221 -503v503h84zM119 895h67l70 -75l68 75h67l-97 -126h-77z" />
    <glyph glyph-name="ncaron" unicode="&#x148;" horiz-adv-x="451" 
d="M137 388v-388h-80v561h76v-59q12 25 43.5 45.5t76.5 20.5q147 0 147 -194v-374h-80v370q0 68 -18.5 99t-73.5 31q-91 0 -91 -112zM89 746h67l70 -75l68 75h67l-97 -126h-77z" />
    <glyph glyph-name="Eng" unicode="&#x14a;" horiz-adv-x="514" 
d="M448 705v-723q0 -77 -36 -125.5t-111 -48.5h-8v74q42 0 59 21t17 75v24l-220 496v-498h-84v705h78l221 -503v503h84z" />
    <glyph glyph-name="eng" unicode="&#x14b;" horiz-adv-x="451" 
d="M245 -192v73q43 0 59 21.5t16 76.5v410q0 111 -92 111q-91 0 -91 -112v-388h-80v561h76v-59q12 25 43.5 45.5t76.5 20.5q70 0 108.5 -45t38.5 -130v-408q0 -93 -35.5 -135t-119.5 -42z" />
    <glyph glyph-name="Omacron" unicode="&#x14c;" horiz-adv-x="480" 
d="M240 -8q-85 0 -138 55.5t-53 144.5v321q0 89 53 145t138 56q83 0 137 -56.5t54 -144.5v-321q0 -88 -53.5 -144t-137.5 -56zM240 74q45 0 75.5 29t30.5 86v328q0 55 -30 85t-76 30t-76.5 -29t-30.5 -86v-328q0 -56 30 -85.5t77 -29.5zM354 770h-228v60h228v-60z" />
    <glyph glyph-name="omacron" unicode="&#x14d;" horiz-adv-x="437" 
d="M218 -8q-81 0 -126 49t-45 134v212q0 83 45 131.5t126 48.5q80 0 125.5 -49t45.5 -131v-212q0 -85 -45.5 -134t-125.5 -49zM218 494q-43 0 -67.5 -25.5t-24.5 -72.5v-232q0 -48 25 -73.5t67 -25.5q41 0 66 26t25 73v232q0 47 -24.5 72.5t-66.5 25.5zM332 620h-228v60h228
v-60z" />
    <glyph glyph-name="Obreve" unicode="&#x14e;" horiz-adv-x="480" 
d="M240 -8q-85 0 -138 55.5t-53 144.5v321q0 89 53 145t138 56q83 0 137 -56.5t54 -144.5v-321q0 -88 -53.5 -144t-137.5 -56zM240 74q45 0 75.5 29t30.5 86v328q0 55 -30 85t-76 30t-76.5 -29t-30.5 -86v-328q0 -56 30 -85.5t77 -29.5zM118 883v12h63v-17q0 -27 15.5 -40.5
t41.5 -13.5q23 0 40.5 13.5t17.5 39.5v18h64v-14q0 -55 -32 -85t-90 -30q-56 0 -88 32t-32 85z" />
    <glyph glyph-name="obreve" unicode="&#x14f;" horiz-adv-x="437" 
d="M218 -8q-81 0 -126 49t-45 134v212q0 83 45 131.5t126 48.5q80 0 125.5 -49t45.5 -131v-212q0 -85 -45.5 -134t-125.5 -49zM218 494q-43 0 -67.5 -25.5t-24.5 -72.5v-232q0 -48 25 -73.5t67 -25.5q41 0 66 26t25 73v232q0 47 -24.5 72.5t-66.5 25.5zM98 733v12h63v-17
q0 -27 15.5 -40.5t41.5 -13.5q23 0 40.5 13.5t17.5 39.5v18h64v-14q0 -55 -32 -85t-90 -30q-56 0 -88 32t-32 85z" />
    <glyph glyph-name="Ohungarumlaut" unicode="&#x150;" horiz-adv-x="480" 
d="M240 -8q-85 0 -138 55.5t-53 144.5v321q0 89 53 145t138 56q83 0 137 -56.5t54 -144.5v-321q0 -88 -53.5 -144t-137.5 -56zM240 74q45 0 75.5 29t30.5 86v328q0 55 -30 85t-76 30t-76.5 -29t-30.5 -86v-328q0 -56 30 -85.5t77 -29.5zM309 766h-50l51 125h67zM197 766h-50
l51 125h68z" />
    <glyph glyph-name="ohungarumlaut" unicode="&#x151;" horiz-adv-x="437" 
d="M218 -8q-81 0 -126 49t-45 134v212q0 83 45 131.5t126 48.5q80 0 125.5 -49t45.5 -131v-212q0 -85 -45.5 -134t-125.5 -49zM218 494q-43 0 -67.5 -25.5t-24.5 -72.5v-232q0 -48 25 -73.5t67 -25.5q41 0 66 26t25 73v232q0 47 -24.5 72.5t-66.5 25.5zM293 621h-50l51 125
h67zM181 621h-50l51 125h68z" />
    <glyph glyph-name="OE" unicode="&#x152;" horiz-adv-x="710" 
d="M663 705v-82h-232v-229h169v-75h-169v-237h232v-82h-317v49q-16 -25 -49 -38.5t-66 -13.5q-82 0 -132 54t-50 134v317q0 93 44 149t124 56q90 0 129 -51v49h317zM239 633q-106 0 -106 -130v-321q0 -109 106 -109q49 0 78 36.5t29 108.5v271q0 144 -107 144z" />
    <glyph glyph-name="oe" unicode="&#x153;" horiz-adv-x="696" 
d="M218 495q-44 0 -69 -26t-25 -73v-232q0 -48 25 -73.5t69 -25.5q47 0 69.5 30.5t22.5 99.5v171q0 129 -92 129zM389 403v-23v-67h182v47q0 72 -21.5 106t-68.5 34q-42 0 -67 -25t-25 -72zM481 61q42 0 67.5 23t25.5 61v18h80v-9q0 -70 -45 -116t-125 -46q-49 0 -84 20.5
t-51 52.5q-16 -32 -50.5 -52.5t-82.5 -20.5q-81 0 -126 49t-45 134v212q0 83 45 131.5t126 48.5q47 0 83 -21t49 -52q16 33 51.5 53.5t84.5 20.5q83 0 125 -48.5t42 -139.5v-126h-262v-90q0 -50 26 -76.5t66 -26.5z" />
    <glyph glyph-name="Racute" unicode="&#x154;" horiz-adv-x="470" 
d="M149 0h-84v705h174q93 0 141.5 -59.5t48.5 -171.5v-39q0 -172 -121 -210l121 -225h-95l-105 206h-80v-206zM229 623h-80v-336h80q117 0 117 128v64q0 79 -28.5 111.5t-88.5 32.5zM230 769h-64l58 129h87z" />
    <glyph glyph-name="racute" unicode="&#x155;" horiz-adv-x="297" 
d="M263 567v-80h-11q-63 0 -89 -42t-26 -123v-322h-80v561h76v-71q10 30 40 54t76 24zM166 622h-64l58 129h87z" />
    <glyph glyph-name="Rcommaaccent" unicode="&#x156;" horiz-adv-x="470" 
d="M149 0h-84v705h174q93 0 141.5 -59.5t48.5 -171.5v-39q0 -172 -121 -210l121 -225h-95l-105 206h-80v-206zM229 623h-80v-336h80q117 0 117 128v64q0 79 -28.5 111.5t-88.5 32.5zM217 -228h-51l44 169h87l-23 -48.5l-34 -71.5z" />
    <glyph glyph-name="rcommaaccent" unicode="&#x157;" horiz-adv-x="297" 
d="M263 567v-80h-11q-63 0 -89 -42t-26 -123v-322h-80v561h76v-71q10 30 40 54t76 24zM108 -228h-51l44 169h87l-23 -48.5l-34 -71.5z" />
    <glyph glyph-name="Rcaron" unicode="&#x158;" horiz-adv-x="470" 
d="M149 0h-84v705h174q93 0 141.5 -59.5t48.5 -171.5v-39q0 -172 -121 -210l121 -225h-95l-105 206h-80v-206zM229 623h-80v-336h80q117 0 117 128v64q0 79 -28.5 111.5t-88.5 32.5zM91 895h67l70 -75l68 75h67l-97 -126h-77z" />
    <glyph glyph-name="rcaron" unicode="&#x159;" horiz-adv-x="297" 
d="M263 567v-80h-11q-63 0 -89 -42t-26 -123v-322h-80v561h76v-71q10 30 40 54t76 24zM13 748h67l70 -75l68 75h67l-97 -126h-77z" />
    <glyph glyph-name="Sacute" unicode="&#x15a;" horiz-adv-x="446" 
d="M221 715q84 0 135 -52t51 -144h-83q0 57 -28 86.5t-75 29.5q-45 0 -71 -24.5t-26 -66.5t29.5 -75.5t72 -59.5l85 -54.5t72 -74t29.5 -104.5q0 -87 -50 -136t-138 -49t-140 52.5t-52 148.5h83q0 -61 29.5 -91t80.5 -30q47 0 75.5 26t28.5 75q0 45 -29.5 80.5t-72 62.5
l-85 55.5t-72 72.5t-29.5 101q0 76 47.5 123.5t132.5 47.5zM248 769h-64l58 129h87z" />
    <glyph glyph-name="sacute" unicode="&#x15b;" horiz-adv-x="418" 
d="M207 569q82 0 125 -44t43 -125h-77q0 96 -89 96q-38 0 -60.5 -20.5t-22.5 -52.5q0 -33 26 -56.5t63.5 -39.5t74.5 -35.5t63 -56t26 -88.5q0 -64 -42.5 -109.5t-125.5 -45.5q-81 0 -128 45.5t-47 123.5h80q0 -47 25.5 -73.5t69.5 -26.5q36 0 62.5 22.5t26.5 59.5t-26 63
t-63 43l-74 35.5t-63 53.5t-26 84q0 64 42.5 105.5t116.5 41.5zM225 624h-64l58 129h87z" />
    <glyph glyph-name="Scircumflex" unicode="&#x15c;" horiz-adv-x="446" 
d="M221 715q84 0 135 -52t51 -144h-83q0 57 -28 86.5t-75 29.5q-45 0 -71 -24.5t-26 -66.5t29.5 -75.5t72 -59.5l85 -54.5t72 -74t29.5 -104.5q0 -87 -50 -136t-138 -49t-140 52.5t-52 148.5h83q0 -61 29.5 -91t80.5 -30q47 0 75.5 26t28.5 75q0 45 -29.5 80.5t-72 62.5
l-85 55.5t-72 72.5t-29.5 101q0 76 47.5 123.5t132.5 47.5zM153 769h-66l97 127h77l97 -127h-67l-68 75z" />
    <glyph glyph-name="scircumflex" unicode="&#x15d;" horiz-adv-x="418" 
d="M207 569q82 0 125 -44t43 -125h-77q0 96 -89 96q-38 0 -60.5 -20.5t-22.5 -52.5q0 -33 26 -56.5t63.5 -39.5t74.5 -35.5t63 -56t26 -88.5q0 -64 -42.5 -109.5t-125.5 -45.5q-81 0 -128 45.5t-47 123.5h80q0 -47 25.5 -73.5t69.5 -26.5q36 0 62.5 22.5t26.5 59.5t-26 63
t-63 43l-74 35.5t-63 53.5t-26 84q0 64 42.5 105.5t116.5 41.5zM139 621h-66l97 127h77l97 -127h-67l-68 75z" />
    <glyph glyph-name="Scedilla" unicode="&#x15e;" horiz-adv-x="446" 
d="M221 715q84 0 135 -52t51 -144h-83q0 57 -28 86.5t-75 29.5q-45 0 -71 -24.5t-26 -66.5t29.5 -75.5t72 -59.5l85 -54.5t72 -74t29.5 -104.5q0 -80 -42.5 -127.5t-117.5 -55.5l-37 -131h-88l65 131q-74 9 -117 60.5t-43 138.5h83q0 -61 29.5 -91t80.5 -30q47 0 75.5 26
t28.5 75q0 45 -29.5 80.5t-72 62.5l-85 55.5t-72 72.5t-29.5 101q0 76 47.5 123.5t132.5 47.5z" />
    <glyph glyph-name="scedilla" unicode="&#x15f;" horiz-adv-x="418" 
d="M207 570q82 0 125 -44t43 -125h-77q0 96 -89 96q-38 0 -60.5 -20.5t-22.5 -52.5q0 -28 18.5 -49.5t47 -34.5t61 -30.5t61 -35.5t47 -51.5t18.5 -77.5q0 -58 -35 -101.5t-104 -51.5l-37 -122h-86l64 122q-68 8 -106.5 52.5t-38.5 114.5h80q0 -47 25.5 -73.5t69.5 -26.5
q36 0 62.5 22.5t26.5 59.5t-26 63t-63 43.5t-74 37t-63 54.5t-26 84q0 64 42.5 105.5t116.5 41.5z" />
    <glyph glyph-name="Scaron" unicode="&#x160;" horiz-adv-x="446" 
d="M221 715q84 0 135 -52t51 -144h-83q0 57 -28 86.5t-75 29.5q-45 0 -71 -24.5t-26 -66.5t29.5 -75.5t72 -59.5l85 -54.5t72 -74t29.5 -104.5q0 -87 -50 -136t-138 -49t-140 52.5t-52 148.5h83q0 -61 29.5 -91t80.5 -30q47 0 75.5 26t28.5 75q0 45 -29.5 80.5t-72 62.5
l-85 55.5t-72 72.5t-29.5 101q0 76 47.5 123.5t132.5 47.5zM86 895h67l70 -75l68 75h67l-97 -126h-77z" />
    <glyph glyph-name="scaron" unicode="&#x161;" horiz-adv-x="418" 
d="M207 569q82 0 125 -44t43 -125h-77q0 96 -89 96q-38 0 -60.5 -20.5t-22.5 -52.5q0 -33 26 -56.5t63.5 -39.5t74.5 -35.5t63 -56t26 -88.5q0 -64 -42.5 -109.5t-125.5 -45.5q-81 0 -128 45.5t-47 123.5h80q0 -47 25.5 -73.5t69.5 -26.5q36 0 62.5 22.5t26.5 59.5t-26 63
t-63 43l-74 35.5t-63 53.5t-26 84q0 64 42.5 105.5t116.5 41.5zM70 747h67l70 -75l68 75h67l-97 -126h-77z" />
    <glyph glyph-name="Tcommaaccent" unicode="&#x162;" horiz-adv-x="414" 
d="M384 705v-82h-136v-623h-85v623h-134v82h355zM170 -228h-51l44 169h87l-23 -48.5l-34 -71.5z" />
    <glyph glyph-name="tcommaaccent" unicode="&#x163;" horiz-adv-x="286" 
d="M24 490v65q40 0 56.5 22t16.5 83h53v-99h102v-71h-102v-270q0 -97 9 -120q13 -32 62 -33q6 0 17.5 0.5t15.5 0.5v-72q-16 -2 -40 -2q-90 0 -117 46.5t-27 152.5v297h-46zM135 -229h-51l44 169h87l-23 -48.5l-34 -71.5z" />
    <glyph glyph-name="Tcaron" unicode="&#x164;" horiz-adv-x="414" 
d="M384 705v-82h-136v-623h-85v623h-134v82h355zM70 895h67l70 -75l68 75h67l-97 -126h-77z" />
    <glyph glyph-name="tcaron" unicode="&#x165;" horiz-adv-x="291" 
d="M252 615h-57q3 9 26.5 68.5t26.5 70.5h79zM24 490v65q40 0 56.5 22t16.5 83h53v-99h102v-71h-102v-270q0 -97 9 -120q13 -32 62 -33q6 0 17.5 0.5t15.5 0.5v-72q-16 -2 -40 -2q-90 0 -117 46.5t-27 152.5v297h-46z" />
    <glyph glyph-name="Tbar" unicode="&#x166;" horiz-adv-x="414" 
d="M384 705v-82h-137v-251h63v-31h-63v-341h-84v341h-62v31h62v251h-134v82h355z" />
    <glyph glyph-name="tbar" unicode="&#x167;" horiz-adv-x="288" 
d="M150 275v-56v-18v-42t2 -32.5t6.5 -27t12.5 -17t20 -12.5t30 -3q17 0 33 2v-73q-24 -3 -39 -3q-48 0 -77.5 13t-44 42t-19 61.5t-4.5 85.5v80h-46v35h46v180h-46v65q39 0 56 23.5t17 81.5h53v-99h102v-71h-102v-180h100v-35h-100z" />
    <glyph glyph-name="Utilde" unicode="&#x168;" horiz-adv-x="496" 
d="M57 192v513h84v-516q0 -55 29.5 -85t76.5 -30q46 0 76.5 29t30.5 86v516h85v-513q0 -88 -54 -144t-138 -56t-137 56t-53 144zM382 858v-66q-35 -24 -69 -24q-24 0 -63 11.5t-61 11.5q-38 0 -77 -26v66q40 24 70 24q23 0 62.5 -12.5t60.5 -12.5q38 0 77 28z" />
    <glyph glyph-name="utilde" unicode="&#x169;" horiz-adv-x="443" 
d="M49 175v386h81v-397q0 -48 25 -73.5t67 -25.5q41 0 66 26t25 73v397h80v-386q0 -85 -45.5 -134t-125.5 -49q-81 0 -127 49t-46 134zM357 709v-66q-35 -24 -69 -24q-24 0 -63 11.5t-61 11.5q-38 0 -77 -26v66q40 24 70 24q23 0 62.5 -12.5t60.5 -12.5q38 0 77 28z" />
    <glyph glyph-name="Umacron" unicode="&#x16a;" horiz-adv-x="496" 
d="M57 192v513h84v-516q0 -55 29.5 -85t76.5 -30q46 0 76.5 29t30.5 86v516h85v-513q0 -88 -54 -144t-138 -56t-137 56t-53 144zM361 770h-228v60h228v-60z" />
    <glyph glyph-name="umacron" unicode="&#x16b;" horiz-adv-x="443" 
d="M49 175v386h81v-397q0 -48 25 -73.5t67 -25.5q41 0 66 26t25 73v397h80v-386q0 -85 -45.5 -134t-125.5 -49q-81 0 -127 49t-46 134zM336 622h-228v60h228v-60z" />
    <glyph glyph-name="Ubreve" unicode="&#x16c;" horiz-adv-x="496" 
d="M57 192v513h84v-516q0 -55 29.5 -85t76.5 -30q46 0 76.5 29t30.5 86v516h85v-513q0 -88 -54 -144t-138 -56t-137 56t-53 144zM126 883v12h63v-17q0 -27 15.5 -40.5t41.5 -13.5q23 0 40.5 13.5t17.5 39.5v18h64v-14q0 -55 -32 -85t-90 -30q-56 0 -88 32t-32 85z" />
    <glyph glyph-name="ubreve" unicode="&#x16d;" horiz-adv-x="443" 
d="M49 175v386h81v-397q0 -48 25 -73.5t67 -25.5q41 0 66 26t25 73v397h80v-386q0 -85 -45.5 -134t-125.5 -49q-81 0 -127 49t-46 134zM101 735v12h63v-17q0 -27 15.5 -40.5t41.5 -13.5q23 0 40.5 13.5t17.5 39.5v18h64v-14q0 -55 -32 -85t-90 -30q-56 0 -88 32t-32 85z" />
    <glyph glyph-name="Uring" unicode="&#x16e;" horiz-adv-x="496" 
d="M57 192v513h84v-516q0 -55 29.5 -85t76.5 -30q46 0 76.5 29t30.5 86v516h85v-513q0 -88 -54 -144t-138 -56t-137 56t-53 144zM314 833q0 -28 -19.5 -48t-46.5 -20q-28 0 -48 20t-20 48t20 47.5t48 19.5q27 0 46.5 -19.5t19.5 -47.5zM273 834q0 10 -7.5 17.5t-17.5 7.5
q-11 0 -18.5 -7.5t-7.5 -17.5q0 -11 7.5 -18.5t18.5 -7.5t18 7.5t7 18.5z" />
    <glyph glyph-name="uring" unicode="&#x16f;" horiz-adv-x="443" 
d="M49 175v386h81v-397q0 -48 25 -73.5t67 -25.5q41 0 66 26t25 73v397h80v-386q0 -85 -45.5 -134t-125.5 -49q-81 0 -127 49t-46 134zM288 684q0 -28 -19.5 -48t-46.5 -20q-28 0 -48 20t-20 48t20 47.5t48 19.5q27 0 46.5 -19.5t19.5 -47.5zM247 685q0 11 -7.5 18t-17.5 7
q-11 0 -18.5 -7.5t-7.5 -17.5q0 -11 7.5 -18.5t18.5 -7.5t18 7.5t7 18.5z" />
    <glyph glyph-name="Uhungarumlaut" unicode="&#x170;" horiz-adv-x="496" 
d="M57 192v513h84v-516q0 -55 29.5 -85t76.5 -30q46 0 76.5 29t30.5 86v516h85v-513q0 -88 -54 -144t-138 -56t-137 56t-53 144zM325 766h-50l51 125h67zM213 766h-50l51 125h68z" />
    <glyph glyph-name="uhungarumlaut" unicode="&#x171;" horiz-adv-x="443" 
d="M49 175v386h81v-397q0 -48 25 -73.5t67 -25.5q41 0 66 26t25 73v397h80v-386q0 -85 -45.5 -134t-125.5 -49q-81 0 -127 49t-46 134zM293 622h-50l51 125h67zM181 622h-50l51 125h68z" />
    <glyph glyph-name="Uogonek" unicode="&#x172;" horiz-adv-x="496" 
d="M347 -96v-67q-32 -7 -61 -7q-54 0 -80 32.5t-24 86.5q1 27 14 49q-63 16 -101 68t-38 126v513h84v-516q0 -55 29.5 -85t76.5 -30q46 0 76.5 29t30.5 86v516h85v-513q0 -72 -36 -122.5t-97 -68.5q-18 -6 -27 -10t-17.5 -15t-8.5 -27q0 -50 56 -50q19 0 38 5z" />
    <glyph glyph-name="uogonek" unicode="&#x173;" horiz-adv-x="444" 
d="M322 -96v-67q-32 -7 -61 -7q-54 0 -81 30.5t-24 80.5q1 33 21 56q-61 12 -94.5 58.5t-33.5 119.5v386h81v-397q0 -48 25 -73.5t67 -25.5q41 0 66 26t25 73v397h80v-386q0 -139 -127 -178q-38 -12 -38 -48q0 -50 56 -50q19 0 38 5z" />
    <glyph glyph-name="Wcircumflex" unicode="&#x174;" horiz-adv-x="678" 
d="M159 0l-142 705h84l104 -519l97 519h74l97 -519l103 519h84l-143 -705h-82l-95 511l-96 -511h-85zM269 769h-66l97 127h77l97 -127h-67l-68 75z" />
    <glyph glyph-name="wcircumflex" unicode="&#x175;" horiz-adv-x="609" 
d="M145 0l-128 561h83l86 -402l83 402h71l83 -403l86 403h82l-127 -561h-78l-82 393l-82 -393h-77zM234 621h-66l97 127h77l97 -127h-67l-68 75z" />
    <glyph glyph-name="Ycircumflex" unicode="&#x176;" horiz-adv-x="469" 
d="M192 0v261l-176 444h89l129 -337l130 337h89l-178 -444v-261h-83zM165 769h-66l97 127h77l97 -127h-67l-68 75z" />
    <glyph glyph-name="ycircumflex" unicode="&#x177;" horiz-adv-x="427" 
d="M118 -188l53 193l-153 556h87l108 -422l109 422h86l-208 -749h-82zM144 621h-66l97 127h77l97 -127h-67l-68 75z" />
    <glyph glyph-name="Ydieresis" unicode="&#x178;" horiz-adv-x="469" 
d="M192 0v261l-176 444h89l129 -337l130 337h89l-178 -444v-261h-83zM342 807q0 -17 -12 -29t-29 -12q-16 0 -27.5 12t-11.5 29q0 16 11.5 28t27.5 12q17 0 29 -11.5t12 -28.5zM205 807q0 -17 -11.5 -29t-27.5 -12q-17 0 -28.5 12t-11.5 29t12 28.5t28 11.5t27.5 -12
t11.5 -28z" />
    <glyph glyph-name="Zacute" unicode="&#x179;" horiz-adv-x="418" 
d="M373 82v-82h-348l238 623h-219v82h337l-239 -623h231zM227 769h-64l58 129h87z" />
    <glyph glyph-name="zacute" unicode="&#x17a;" horiz-adv-x="381" 
d="M338 73v-73h-313l209 488h-196v73h309l-208 -488h199zM203 620h-64l58 129h87z" />
    <glyph glyph-name="Zdotaccent" unicode="&#x17b;" horiz-adv-x="418" 
d="M373 82v-82h-348l238 623h-219v82h337l-239 -623h231zM261 817q0 -21 -15 -35.5t-36 -14.5t-35.5 14.5t-14.5 35.5t14.5 35.5t35.5 14.5t36 -14.5t15 -35.5z" />
    <glyph glyph-name="zdotaccent" unicode="&#x17c;" horiz-adv-x="381" 
d="M338 73v-73h-313l209 488h-196v73h309l-208 -488h199zM242 668q0 -21 -15 -35.5t-36 -14.5t-35.5 14.5t-14.5 35.5t14.5 35.5t35.5 14.5t36 -14.5t15 -35.5z" />
    <glyph glyph-name="Zcaron" unicode="&#x17d;" horiz-adv-x="418" 
d="M373 82v-82h-348l238 623h-219v82h337l-239 -623h231zM75 895h67l70 -75l68 75h67l-97 -126h-77z" />
    <glyph glyph-name="zcaron" unicode="&#x17e;" horiz-adv-x="381" 
d="M338 73v-73h-313l209 488h-196v73h309l-208 -488h199zM53 746h67l70 -75l68 75h67l-97 -126h-77z" />
    <glyph glyph-name="florin" unicode="&#x192;" horiz-adv-x="295" 
d="M169 561h92v-73h-92v-450q0 -53 -5 -87t-18 -64t-39 -44t-66 -14h-8v75q43 0 52 50q4 22 4 112v422h-49v73h49q0 112 25.5 155.5t104.5 43.5l42 -3v-70q-11 1 -17 1q-51 0 -63 -21.5t-12 -105.5z" />
    <glyph glyph-name="Scommaaccent" unicode="&#x218;" horiz-adv-x="446" 
d="M221 715q84 0 135 -52t51 -144h-83q0 57 -28 86.5t-75 29.5q-45 0 -71 -24.5t-26 -66.5t29.5 -75.5t72 -59.5l85 -54.5t72 -74t29.5 -104.5q0 -87 -50 -136t-138 -49t-140 52.5t-52 148.5h83q0 -61 29.5 -91t80.5 -30q47 0 75.5 26t28.5 75q0 45 -29.5 80.5t-72 62.5
l-85 55.5t-72 72.5t-29.5 101q0 76 47.5 123.5t132.5 47.5zM186 -228h-51l44 169h87z" />
    <glyph glyph-name="scommaaccent" unicode="&#x219;" horiz-adv-x="418" 
d="M207 569q82 0 125 -44t43 -125h-77q0 96 -89 96q-38 0 -60.5 -20.5t-22.5 -52.5q0 -33 26 -56.5t63.5 -39.5t74.5 -35.5t63 -56t26 -88.5q0 -64 -42.5 -109.5t-125.5 -45.5q-81 0 -128 45.5t-47 123.5h80q0 -47 25.5 -73.5t69.5 -26.5q36 0 62.5 22.5t26.5 59.5t-26 63
t-63 43l-74 35.5t-63 53.5t-26 84q0 64 42.5 105.5t116.5 41.5zM174 -228h-51l44 169h87l-23 -48.5l-34 -71.5z" />
    <glyph glyph-name="circumflex" unicode="&#x2c6;" horiz-adv-x="469" 
d="M165 584h-66l97 127h77l97 -127h-67l-68 75z" />
    <glyph glyph-name="caron" unicode="&#x2c7;" horiz-adv-x="469" 
d="M98 710h67l70 -75l68 75h67l-97 -126h-77z" />
    <glyph glyph-name="breve" unicode="&#x2d8;" horiz-adv-x="445" 
d="M102 698v12h63v-17q0 -27 15.5 -40.5t41.5 -13.5q23 0 40.5 13.5t17.5 39.5v18h64v-14q0 -55 -32 -85t-90 -30q-56 0 -88 32t-32 85z" />
    <glyph glyph-name="dotaccent" unicode="&#x2d9;" horiz-adv-x="428" 
d="M265 632q0 -21 -15 -35.5t-36 -14.5t-35.5 14.5t-14.5 35.5t14.5 35.5t35.5 14.5t36 -14.5t15 -35.5z" />
    <glyph glyph-name="ring" unicode="&#x2da;" horiz-adv-x="440" 
d="M287 648q0 -28 -19.5 -48t-46.5 -20q-28 0 -48 20t-20 48t20 47.5t48 19.5q27 0 46.5 -19.5t19.5 -47.5zM246 649q0 11 -7 18t-18 7t-18.5 -7.5t-7.5 -17.5q0 -11 7.5 -18.5t18.5 -7.5t18 7.5t7 18.5z" />
    <glyph glyph-name="ogonek" unicode="&#x2db;" horiz-adv-x="448" 
d="M246 -96v-67q-32 -7 -61 -7q-54 0 -80 32.5t-24 86.5q3 55 47 82.5t117 25.5v-57q-20 0 -30.5 -1t-28 -5t-26 -15.5t-8.5 -29.5q0 -50 56 -50q19 0 38 5z" />
    <glyph glyph-name="tilde" unicode="&#x2dc;" horiz-adv-x="468" 
d="M368 673v-66q-35 -24 -69 -24q-24 0 -63 11.5t-61 11.5q-38 0 -77 -26v66q41 24 70 24q23 0 62.5 -12.5t60.5 -12.5q38 0 77 28z" />
    <glyph glyph-name="hungarumlaut" unicode="&#x2dd;" horiz-adv-x="425" 
d="M290 581h-50l51 125h67zM178 581h-50l51 125h68z" />
    <glyph glyph-name="pi" unicode="&#x3c0;" horiz-adv-x="540" 
d="M447 234v237q0 106 -42.5 157t-132.5 51q-92 0 -135 -51t-43 -157v-237q0 -106 43 -157t135 -51q90 0 132.5 51t42.5 157zM482 461v-217q0 -129 -50.5 -191t-159.5 -62q-110 0 -161.5 62.5t-51.5 190.5v217q0 128 51.5 190.5t161.5 62.5q109 0 159.5 -62t50.5 -191z
M214 108h-60v499h110q66 0 100.5 -42t34.5 -121v-36q0 -70 -34.5 -112t-107.5 -42h-43v-146zM257 549h-43v-238h43q83 0 83 91v45q0 56 -20.5 79t-62.5 23z" />
    <glyph glyph-name="Bdotaccent" unicode="&#x1e02;" horiz-adv-x="469" 
d="M65 0v705h171q88 0 137.5 -39.5t49.5 -120.5v-57q0 -101 -77 -131q82 -30 82 -131v-65q0 -82 -49.5 -121.5t-136.5 -39.5h-177zM148 81h91q53 0 79.5 21t26.5 76v53q0 92 -98 92h-99v-242zM148 391h101q46 0 68.5 21.5t22.5 72.5v43q0 53 -26.5 74t-80.5 21h-85v-232z
M276 819q0 -21 -15 -35.5t-36 -14.5t-35.5 14.5t-14.5 35.5t14.5 35.5t35.5 14.5t36 -14.5t15 -35.5z" />
    <glyph glyph-name="bdotaccent" unicode="&#x1e03;" 
d="M253 -8q-87 0 -120 66v-58h-76v755h80v-248q11 24 40.5 42.5t75.5 18.5q70 0 108.5 -45t38.5 -130v-225q0 -86 -38.5 -131t-108.5 -45zM228 60q44 0 68 29.5t24 83.5v215q0 53 -24 82.5t-68 29.5q-42 0 -66.5 -28t-24.5 -80v-219q0 -55 24 -84t67 -29zM307 668
q0 -21 -15 -35.5t-36 -14.5t-35.5 14.5t-14.5 35.5t14.5 35.5t35.5 14.5t36 -14.5t15 -35.5z" />
    <glyph glyph-name="Ddotaccent" unicode="&#x1e0a;" horiz-adv-x="489" 
d="M248 705q99 -2 145.5 -61.5t46.5 -186.5v-216q0 -126 -46.5 -183.5t-145.5 -57.5h-183v705h183zM356 493q0 74 -30.5 102t-85.5 28h-91v-542h91q66 0 91 37.5t25 149.5v225zM278 815q0 -21 -15 -35.5t-36 -14.5t-35.5 14.5t-14.5 35.5t14.5 35.5t35.5 14.5t36 -14.5
t15 -35.5z" />
    <glyph glyph-name="ddotaccent" unicode="&#x1e0b;" 
d="M193 -8q-69 0 -108 45t-39 131v225q0 85 39 130t108 45q45 0 73.5 -18t40.5 -42v247h82v-755h-75v58q-36 -66 -121 -66zM218 60q43 0 67 29t24 84v218q0 52 -24 80t-67 28q-44 0 -67.5 -29t-23.5 -83v-214q0 -55 23.5 -84t67.5 -29zM240 668q0 -21 -15 -35.5t-36 -14.5
t-35.5 14.5t-14.5 35.5t14.5 35.5t35.5 14.5t36 -14.5t15 -35.5z" />
    <glyph glyph-name="Fdotaccent" unicode="&#x1e1e;" horiz-adv-x="404" 
d="M371 705v-82h-223v-229h159v-75h-159v-319h-83v705h306zM266 817q0 -21 -15 -35.5t-36 -14.5t-35.5 14.5t-14.5 35.5t14.5 35.5t35.5 14.5t36 -14.5t15 -35.5z" />
    <glyph glyph-name="fdotaccent" unicode="&#x1e1f;" horiz-adv-x="288" 
d="M254 755v-70q-10 2 -21 2q-47 0 -59 -22.5t-12 -103.5h91v-71h-91v-490h-80v490h-49v71h49q0 111 25.5 154t104.5 43zM233 864q0 -21 -15 -35.5t-36 -14.5t-35.5 14.5t-14.5 35.5t14.5 35.5t35.5 14.5t36 -14.5t15 -35.5z" />
    <glyph glyph-name="Mdotaccent" unicode="&#x1e40;" horiz-adv-x="604" 
d="M271 92l-123 375v-467h-83v705h83l153 -486l155 486h82v-705h-84v469l-123 -377h-60zM349 823q0 -21 -15 -35.5t-36 -14.5t-35.5 14.5t-14.5 35.5t14.5 35.5t35.5 14.5t36 -14.5t15 -35.5z" />
    <glyph glyph-name="mdotaccent" unicode="&#x1e41;" horiz-adv-x="639" 
d="M137 407v-407h-80v561h76v-49q34 56 101 56q80 0 112 -71q13 29 44 50t74 21q124 0 124 -183v-385h-80v394q0 52 -15 77t-52 25q-42 0 -60 -24.5t-18 -74.5v-397h-80v394q0 54 -16.5 81t-56.5 27q-34 0 -53.5 -24.5t-19.5 -70.5zM375 668q0 -21 -15 -35.5t-36 -14.5
t-35.5 14.5t-14.5 35.5t14.5 35.5t35.5 14.5t36 -14.5t15 -35.5z" />
    <glyph glyph-name="Pdotaccent" unicode="&#x1e56;" horiz-adv-x="470" 
d="M149 0h-84v705h171q93 0 143 -61t50 -175v-45q0 -114 -49.5 -173.5t-143.5 -59.5h-87v-191zM229 623h-80v-351h80q117 0 117 144v62q0 79 -29.5 112t-87.5 33zM269 816q0 -21 -15 -35.5t-36 -14.5t-35.5 14.5t-14.5 35.5t14.5 35.5t35.5 14.5t36 -14.5t15 -35.5z" />
    <glyph glyph-name="pdotaccent" unicode="&#x1e57;" horiz-adv-x="451" 
d="M253 567q147 0 147 -192v-206q0 -85 -38.5 -130t-108.5 -45q-46 0 -75.5 19.5t-40.5 43.5v-246h-80v750h76v-60q12 25 43.5 45.5t76.5 20.5zM228 499q-42 0 -66.5 -28.5t-24.5 -81.5v-215q0 -54 24 -82.5t67 -28.5q44 0 68 28.5t24 82.5v212q0 54 -24 83.5t-68 29.5z
M282 668q0 -21 -15 -35.5t-36 -14.5t-35.5 14.5t-14.5 35.5t14.5 35.5t35.5 14.5t36 -14.5t15 -35.5z" />
    <glyph glyph-name="Sdotaccent" unicode="&#x1e60;" horiz-adv-x="446" 
d="M221 715q84 0 135 -52t51 -144h-83q0 57 -28 86.5t-75 29.5q-45 0 -71 -24.5t-26 -66.5t29.5 -75.5t72 -59.5l85 -54.5t72 -74t29.5 -104.5q0 -87 -50 -136t-138 -49t-140 52.5t-52 148.5h83q0 -61 29.5 -91t80.5 -30q47 0 75.5 26t28.5 75q0 45 -29.5 80.5t-72 62.5
l-85 55.5t-72 72.5t-29.5 101q0 76 47.5 123.5t132.5 47.5zM270 814q0 -21 -15 -35.5t-36 -14.5t-35.5 14.5t-14.5 35.5t14.5 35.5t35.5 14.5t36 -14.5t15 -35.5z" />
    <glyph glyph-name="sdotaccent" unicode="&#x1e61;" horiz-adv-x="418" 
d="M207 569q82 0 125 -44t43 -125h-77q0 96 -89 96q-38 0 -60.5 -20.5t-22.5 -52.5q0 -33 26 -56.5t63.5 -39.5t74.5 -35.5t63 -56t26 -88.5q0 -64 -42.5 -109.5t-125.5 -45.5q-81 0 -128 45.5t-47 123.5h80q0 -47 25.5 -73.5t69.5 -26.5q36 0 62.5 22.5t26.5 59.5t-26 63
t-63 43l-74 35.5t-63 53.5t-26 84q0 64 42.5 105.5t116.5 41.5zM258 670q0 -21 -15 -35.5t-36 -14.5t-35.5 14.5t-14.5 35.5t14.5 35.5t35.5 14.5t36 -14.5t15 -35.5z" />
    <glyph glyph-name="Tdotaccent" unicode="&#x1e6a;" horiz-adv-x="414" 
d="M384 705v-82h-136v-623h-85v623h-134v82h355zM258 817q0 -21 -15 -35.5t-36 -14.5t-35.5 14.5t-14.5 35.5t14.5 35.5t35.5 14.5t36 -14.5t15 -35.5z" />
    <glyph glyph-name="tdotaccent" unicode="&#x1e6b;" horiz-adv-x="287" 
d="M24 490v65q40 0 56.5 22t16.5 83h53v-99h102v-71h-102v-270q0 -97 9 -120q13 -32 62 -33q6 0 17.5 0.5t15.5 0.5v-72q-16 -2 -40 -2q-90 0 -117 46.5t-27 152.5v297h-46zM176 755q0 -21 -15 -35.5t-36 -14.5t-35.5 14.5t-14.5 35.5t14.5 35.5t35.5 14.5t36 -14.5
t15 -35.5z" />
    <glyph glyph-name="Wgrave" unicode="&#x1e80;" horiz-adv-x="678" 
d="M159 0l-142 705h84l104 -519l97 519h74l97 -519l103 519h84l-143 -705h-82l-95 511l-96 -511h-85zM377 768h-65l-80 130h86z" />
    <glyph glyph-name="wgrave" unicode="&#x1e81;" horiz-adv-x="609" 
d="M145 0l-128 561h83l86 -402l83 402h71l83 -403l86 403h82l-127 -561h-78l-82 393l-82 -393h-77zM342 621h-65l-80 130h86z" />
    <glyph glyph-name="Wacute" unicode="&#x1e82;" horiz-adv-x="678" 
d="M159 0l-142 705h84l104 -519l97 519h74l97 -519l103 519h84l-143 -705h-82l-95 511l-96 -511h-85zM372 769h-64l58 129h87z" />
    <glyph glyph-name="wacute" unicode="&#x1e83;" horiz-adv-x="609" 
d="M145 0l-128 561h83l86 -402l83 402h71l83 -403l86 403h82l-127 -561h-78l-82 393l-82 -393h-77zM329 622h-64l58 129h87z" />
    <glyph glyph-name="Wdieresis" unicode="&#x1e84;" horiz-adv-x="678" 
d="M159 0l-142 705h84l104 -519l97 519h74l97 -519l103 519h84l-143 -705h-82l-95 511l-96 -511h-85zM447 807q0 -17 -12 -29t-29 -12q-16 0 -27.5 12t-11.5 29q0 16 11.5 28t27.5 12q17 0 29 -11.5t12 -28.5zM310 807q0 -17 -11.5 -29t-27.5 -12q-17 0 -28.5 12t-11.5 29
t11.5 28.5t28.5 11.5q16 0 27.5 -12t11.5 -28z" />
    <glyph glyph-name="wdieresis" unicode="&#x1e85;" horiz-adv-x="609" 
d="M145 0l-128 561h83l86 -402l83 402h71l83 -403l86 403h82l-127 -561h-78l-82 393l-82 -393h-77zM412 660q0 -17 -12 -29t-29 -12q-16 0 -27.5 12t-11.5 29q0 16 11.5 28t27.5 12q17 0 29 -11.5t12 -28.5zM275 660q0 -17 -11.5 -29t-27.5 -12q-17 0 -28.5 12t-11.5 29
q0 16 12 28t28 12t27.5 -12t11.5 -28z" />
    <glyph glyph-name="Ygrave" unicode="&#x1ef2;" horiz-adv-x="469" 
d="M192 0v261l-176 444h89l129 -337l130 337h89l-178 -444v-261h-83zM273 768h-65l-80 130h86z" />
    <glyph glyph-name="ygrave" unicode="&#x1ef3;" horiz-adv-x="427" 
d="M118 -188l53 193l-153 556h87l108 -422l109 422h86l-208 -749h-82zM265 619h-65l-80 130h86z" />
    <glyph glyph-name="endash" unicode="&#x2013;" horiz-adv-x="353" 
d="M311 272h-269v65h269v-65z" />
    <glyph glyph-name="emdash" unicode="&#x2014;" horiz-adv-x="452" 
d="M410 272h-368v65h368v-65z" />
    <glyph glyph-name="quoteleft" unicode="&#x2018;" horiz-adv-x="216" 
d="M127 705h64l-84 -268h-87z" />
    <glyph glyph-name="quoteright" unicode="&#x2019;" horiz-adv-x="212" 
d="M88 437h-63l83 268h87z" />
    <glyph glyph-name="quotesinglbase" unicode="&#x201a;" horiz-adv-x="212" 
d="M72 -103h-64l84 265h87z" />
    <glyph glyph-name="quotedblleft" unicode="&#x201c;" horiz-adv-x="359" 
d="M127 705h64l-84 -268h-87zM270 705h65l-85 -268h-86z" />
    <glyph glyph-name="quotedblright" unicode="&#x201d;" horiz-adv-x="355" 
d="M233 437h-65l83 268h88zM88 437h-63l83 268h87z" />
    <glyph glyph-name="quotedblbase" unicode="&#x201e;" horiz-adv-x="355" 
d="M216 -107h-64l84 265h87zM72 -107h-63l83 265h87z" />
    <glyph glyph-name="dagger" unicode="&#x2020;" horiz-adv-x="358" 
d="M317 515h-106v-556h-64v556h-105v56h105v161h64v-161h106v-56z" />
    <glyph glyph-name="daggerdbl" unicode="&#x2021;" horiz-adv-x="358" 
d="M316 393h-105v-434h-64v434h-105v56h105v66h-105v56h105v161h64v-161h105v-56h-105v-66h105v-56z" />
    <glyph glyph-name="bullet" unicode="&#x2022;" horiz-adv-x="411" 
d="M206 159q-75 0 -116 44.5t-41 122.5v5q0 76 41.5 120.5t115.5 44.5q72 0 113 -44.5t41 -120.5v-5q0 -78 -40.5 -122.5t-113.5 -44.5z" />
    <glyph glyph-name="ellipsis" unicode="&#x2026;" horiz-adv-x="528" 
d="M487 45q0 -21 -15 -36t-35 -15q-21 0 -36 15t-15 36t15 36t36 15q20 0 35 -15t15 -36zM315 45q0 -21 -15 -36t-37 -15q-20 0 -35 15t-15 36t15 36t35 15q22 0 37 -15t15 -36zM142 45q0 -21 -15 -36t-36 -15t-35.5 15t-14.5 36t14.5 36t35.5 15t36 -15t15 -36z" />
    <glyph glyph-name="perthousand" unicode="&#x2030;" horiz-adv-x="1262" 
d="M1054 -6q-77 0 -119.5 48.5t-42.5 133.5v33q0 83 43 131.5t119 48.5q75 0 119 -49t44 -131v-33q0 -85 -43.5 -133.5t-119.5 -48.5zM1054 316q-86 0 -86 -106v-33q0 -111 86 -111q85 0 85 111v29q0 110 -85 110zM672 -6q-77 0 -119.5 48.5t-42.5 133.5v33q0 83 43 131.5
t119 48.5q75 0 119 -49t44 -131v-33q0 -85 -43.5 -133.5t-119.5 -48.5zM672 316q-41 0 -63.5 -27t-22.5 -79v-33q0 -111 86 -111t86 111v33q0 52 -22.5 79t-63.5 27zM603 758l-249 -799h-77l248 799h78zM207 318q-77 0 -119 48.5t-42 133.5v33q0 84 42.5 132.5t118.5 48.5
q75 0 118.5 -49t43.5 -132v-33q0 -84 -43 -133t-119 -49zM207 640q-85 0 -85 -106v-33q0 -110 85 -110q86 0 86 110v33q0 106 -86 106z" />
    <glyph glyph-name="guilsinglleft" unicode="&#x2039;" horiz-adv-x="250" 
d="M147 471h63l-83 -165l83 -166h-63l-106 166z" />
    <glyph glyph-name="guilsinglright" unicode="&#x203a;" horiz-adv-x="250" 
d="M41 471h63l105 -165l-105 -166h-63l82 166z" />
    <glyph glyph-name="Euro" unicode="&#x20ac;" horiz-adv-x="505" 
d="M464 227v-35q0 -88 -53.5 -144t-137.5 -56q-85 0 -137.5 55.5t-52.5 144.5v101h-50v36h50v52h-50v36h50v96q0 89 53 145t137 56t137.5 -56.5t53.5 -144.5v-28h-84v32q0 56 -30 85.5t-77 29.5q-46 0 -76.5 -29t-30.5 -86v-100h110v-36h-110v-52h110v-36h-110v-104
q0 -55 30 -85t77 -30q46 0 76.5 29t30.5 86v38h84z" />
    <glyph glyph-name="trademark" unicode="&#x2122;" horiz-adv-x="613" 
d="M235 705v-51h-71v-267h-52v267h-70v51h193zM390 423l-68 152v-188h-54v318h52l89 -206l86 206h51v-318h-52v188l-67 -152h-37z" />
    <glyph glyph-name="minus" unicode="&#x2212;" horiz-adv-x="405" 
d="M355 319h-306v74h306v-74z" />
    <glyph glyph-name="notequal" unicode="&#x2260;" horiz-adv-x="756" 
d="M108 589q40 -33 80 -44t76.5 -4.5t74 20t78.5 26t84.5 18t99 -8t113.5 -48.5q-31 -112 -54.5 -225.5t-31.5 -170.5l-8 -58q-48 44 -98.5 56t-93 3.5t-84 -18.5t-86 -3.5t-83.5 42.5l31 -169l-28 -5l-112 616l28 1l59 -328zM414 322l-36 31q35 49 12 99q-17 36 -53.5 49.5
t-72.5 -3.5q-12 -6 -17 -10l6 3q29 14 60 2.5t44 -40.5q19 -41 -6 -77l-43 38l34 40l-54 9l-59 -71l34 -30l29 34l45 -37q-6 -6 -18 -11q-35 -17 -69 1q-12 8 -18 14l-12 -14l-29 -34l18 -15l28 32q47 -37 104 -11q14 8 21 15l37 -32zM102 636q2 -9 -7 -10l-33 -6
q-9 -2 -10 7q-1 7 7 9l10 2q-2 6 -12 10.5t-12 17.5q-2 11 2 32.5t4 29.5q-8 3 -8 13q0 14 13 14q5 0 9.5 -4t4.5 -10q0 -4 -4 -10q3 -7 15.5 -25.5t14.5 -30.5q3 -13 -5.5 -20.5t-7.5 -13.5l9 2q8 2 10 -7z" />
    <glyph glyph-name="commaaccent" horiz-adv-x="429" 
d="M168 -228h-51l44 169h87l-23 -48.5l-34 -71.5z" />
    <glyph glyph-name="a.salt" horiz-adv-x="439" 
d="M303 177v134q-27 -24 -78 -44t-79 -42.5t-28 -68.5q0 -44 23.5 -69t63.5 -25q46 0 72 31.5t26 83.5zM37 146q0 58 27.5 95t66.5 53t77.5 28.5t66 36t27.5 61.5q0 39 -22.5 59t-62.5 20q-87 0 -87 -94h-77q0 165 165 165q85 0 125 -43t40 -130v-397h-75v61
q-13 -21 -24 -32.5t-38 -23.5t-65 -12q-60 0 -102 41.5t-42 111.5z" />
    </font>
</defs>
</svg>
