<?xml version="1.0" encoding="utf-8"?>
<!-- Generator: Adobe Illustrator 17.0.0, SVG Export Plug-In . SVG Version: 6.00 Build 0)  -->
<!DOCTYPE svg PUBLIC "-//W3C//DTD SVG 1.1//EN" "http://www.w3.org/Graphics/SVG/1.1/DTD/svg11.dtd">
<svg version="1.1" id="Layer_1" xmlns="http://www.w3.org/2000/svg" xmlns:xlink="http://www.w3.org/1999/xlink" x="0px" y="0px"
	 width="36px" height="36px" viewBox="0 0 36 36" enable-background="new 0 0 36 36" xml:space="preserve">
<g>
	<path fill="#FFFFFF" d="M17.32,4.27v8.08h-9.7v11.29h9.7v8.08L30.25,18L17.32,4.27z M29.42,18l-0.22,0.24L17.92,6.65V5.79L29.42,18
		z M17.92,11.39v-0.81l9.4,9.66l-0.39,0.41L17.92,11.39z M26.75,20.84l-0.39,0.41l-8.44-8.68v-0.81L26.75,20.84z M17.92,10.2V9.39
		l9.96,10.24l-0.39,0.41L17.92,10.2z M17.92,9.02V8.2l10.53,10.83l-0.39,0.41L17.92,9.02z M17.92,7.83V7.02l11.1,11.41l-0.39,0.41
		L17.92,7.83z M17.92,12.96v-0.01l8.26,8.49l-0.39,0.41l-8.65-8.89H17.92z M11.32,12.96h0.85l11.18,11.49l-0.48,0.51L11.32,12.96z
		 M12.53,12.96h0.79l10.59,10.89l-0.39,0.41L12.53,12.96z M13.68,12.96h0.79l10.01,10.29l-0.39,0.41L13.68,12.96z M14.83,12.96h0.79
		l9.42,9.69l-0.39,0.41L14.83,12.96z M15.99,12.96h0.79l8.83,9.08l-0.39,0.41L15.99,12.96z"/>
	<path fill="#FFFFFF" d="M18,0C8.07,0,0,8.07,0,18s8.07,18,18,18s18-8.07,18-18S27.93,0,18,0z M18,34.82
		C8.73,34.82,1.18,27.27,1.18,18S8.73,1.18,18,1.18S34.82,8.73,34.82,18S27.27,34.82,18,34.82z"/>
</g>
</svg>
