<svg id="Layer_1" xmlns="http://www.w3.org/2000/svg" viewBox="0 0 84.9 65.8"><style>.st2{fill:none}</style><path class="st2" d="M59.8 32.1L44.9 47c7.3-3 12.8-8.4 14.9-14.9zM40.1 48.5L60.6 28c.1-.6.1-1.2.1-1.8 0-1-.1-2-.2-3L34.4 49.4c1.9-.1 3.9-.4 5.7-.9zM54.9 17.2c-1.8 0-3.7.2-5.4.5l-21.1 21c0 1.5.2 3 .5 4.4l26-25.9zM58 17.3L29.8 45.5c.5 1.2 1.1 2.3 1.8 3.4l28.3-28.3c-.4-1.2-.8-2.3-1.4-3.4-.2.1-.3.1-.5.1z"/><path class="st2" d="M74.8 53.5c4.7-4 7.2-9.3 7.2-14.8 0-10-8.5-18.4-20-20.9 1.1 2.6 1.7 5.5 1.7 8.4 0 13.7-12.9 25-29.2 26.2 4.9 4.8 12.4 7.9 20.7 7.9 4.8 0 9.5-1 13.9-3.1.2-.1.3-.1.5-.1s.4 0 .6.1l.2.1 6.4 3.8-2.5-5.9c-.2-.7 0-1.3.5-1.7zM28.8 35.2l16.4-16.4c-8.5 2.7-14.9 8.9-16.4 16.4z"/><path class="st2" d="M25.5 38.7c0-13.5 13.3-24.5 29.6-24.5h1.4C51.5 7.5 42.3 3 31.9 3 16 3.1 3.1 13.5 3.1 26.3c0 5.9 2.8 11.5 7.8 15.9.5.4.7 1.1.4 1.8l-2.6 6.4 6.9-4.1.2-.1c.2-.1.5-.1.7-.1.2 0 .4.1.5.1 3.6 1.7 7.5 2.8 11.5 3.2-1.9-3.3-3-6.9-3-10.7z"/><path d="M77.4 54.9c4.7-4.1 7.4-10 7.5-16.2 0-12-10.6-22-24.4-24.1C55.2 6 44.4 0 31.9 0 14.3 0 0 11.8 0 26.3c.1 6.7 3 13 8 17.4l-4 9.6c-.3.8 0 1.7.8 2 .2.1.4.1.6.1.1 0 .3 0 .4-.1h.1l.3-.1 10.1-6c4.5 2.1 9.4 3.2 14.4 3.3C36 58.9 45 63.2 55.2 63.2c5 0 9.9-1 14.4-3.1l9.4 5.5c.1 0 .2.1.2.1h.1c.1 0 .2.1.4.1s.4 0 .5-.1c.7-.3 1.1-1.1.8-1.9l-3.6-8.9zM60.7 26.3c0 .6 0 1.2-.1 1.8L40.1 48.5c-1.9.4-3.8.7-5.8.9l26.1-26.1c.2 1 .3 2 .3 3zm-.9 5.8C57.7 38.6 52.2 44 44.9 47l14.9-14.9zM31.6 48.9c-.7-1.1-1.3-2.2-1.8-3.4L58 17.3h.5c.6 1.1 1 2.2 1.4 3.4L31.6 48.9zm17.9-31.3c1.7-.3 3.5-.5 5.4-.5l-26 26c-.4-1.4-.5-2.9-.5-4.4l21.1-21.1zM28.8 35.2c1.6-7.5 7.9-13.7 16.4-16.4L28.8 35.2zM17 46.1c-.2-.1-.4-.1-.5-.1-.2 0-.5 0-.7.1l-.2.1-6.9 4.1 2.6-6.4c.3-.6.1-1.3-.4-1.8-5-4.3-7.8-10-7.8-15.9C3.1 13.5 16 3.1 31.9 3.1c10.4 0 19.6 4.5 24.6 11.2h-1.4c-16.4 0-29.6 11-29.6 24.5 0 3.8 1.1 7.4 2.9 10.6-3.9-.5-7.8-1.5-11.4-3.3zm53.4 11.2l-.2-.1c-.2-.1-.4-.1-.6-.1-.2 0-.4.1-.5.1-4.3 2.1-9.1 3.1-13.9 3.1-8.3 0-15.8-3.1-20.7-7.9C50.8 51.3 63.7 40 63.7 26.3c0-2.9-.6-5.8-1.7-8.4 11.5 2.4 20 10.8 20 20.9 0 5.5-2.6 10.7-7.2 14.8-.5.4-.6 1.1-.4 1.6l2.5 5.9-6.5-3.8z" fill="#f48020"/></svg>