<svg xmlns="http://www.w3.org/2000/svg" xmlns:xlink="http://www.w3.org/1999/xlink" viewBox="0 0 178.89 622.2"><defs><style>.cls-1,.cls-2,.cls-3,.cls-4,.cls-9{fill:none;}.cls-2,.cls-3,.cls-4{stroke:#fff;}.cls-2,.cls-4,.cls-5,.cls-9{stroke-miterlimit:10;}.cls-2{stroke-width:1.89px;}.cls-3{stroke-linecap:round;stroke-linejoin:round;}.cls-3,.cls-4{stroke-width:1.69px;}.cls-5,.cls-7{fill:#f48020;}.cls-5{stroke:#f48020;stroke-width:1.79px;}.cls-6{clip-path:url(#clip-path);}.cls-8{fill:#fff;}.cls-9{stroke:#231f20;stroke-width:0.56px;}.cls-10{clip-path:url(#clip-path-2);}.cls-11{clip-path:url(#clip-path-3);}.cls-12{clip-path:url(#clip-path-4);}</style><clipPath id="clip-path"><polygon class="cls-1" points="133.11 44.13 134.85 48.35 135.84 55.79 134.35 61.99 129.39 70.18 122.94 74.64 114.51 78.36 105.58 79.6 104.09 79.35 102.35 74.64 100.62 66.7 101.86 58.27 105.58 53.06 111.53 48.1 120.71 44.38 128.15 43.63 133.11 44.13"/></clipPath><clipPath id="clip-path-2"><path class="cls-1" d="M124.65,277a30.94,30.94,0,0,1-16.28,0c-2.41,5.64-1.5,10.81.37,13.34,1.16,1.56,3.06,2.86,7.77,2.86s6.61-1.3,7.77-2.86C126.15,287.83,127.06,282.66,124.65,277Z"/></clipPath><clipPath id="clip-path-3"><path class="cls-1" d="M124.65,329.24a30.94,30.94,0,0,1-16.28,0c-2.41,5.65-1.5,10.82.37,13.34,1.16,1.56,3.06,2.86,7.77,2.86s6.61-1.3,7.77-2.86C126.15,340.06,127.06,334.89,124.65,329.24Z"/></clipPath><clipPath id="clip-path-4"><path class="cls-1" d="M113.57,552.44a10,10,0,0,0,8-3.29,11.49,11.49,0,0,0,3-8.23,12.3,12.3,0,0,0-3-8.49,10.2,10.2,0,0,0-8-3.33H97.33v23.34Z"/></clipPath></defs><title>Asset 2</title><g id="Layer_2" data-name="Layer 2"><g id="Layer_1-2" data-name="Layer 1"><line class="cls-2" x1="53.99" y1="62.84" x2="16.37" y2="62.84"/><line class="cls-3" x1="15.45" y1="568.45" x2="15.45" y2="59.54"/><circle class="cls-4" cx="116.02" cy="62.87" r="62.02"/><path class="cls-5" d="M105.48,28C87.9,28,73.59,39.73,73.59,54.22a23.74,23.74,0,0,0,8,17.44l-4,9.59a1.54,1.54,0,0,0,1.41,2.12,1.34,1.34,0,0,0,.4-.07h0l.14,0a2.06,2.06,0,0,0,.26-.12l10.1-6a37.36,37.36,0,0,0,15.52,3.31c17.58,0,31.89-11.78,31.89-26.27S123.06,28,105.48,28Zm0,49.48a34.13,34.13,0,0,1-14.91-3.35l0,0a1.84,1.84,0,0,0-.56-.14,1.52,1.52,0,0,0-.69.13l-.17.08-6.88,4.06,2.64-6.36a1.55,1.55,0,0,0-.42-1.75c-5-4.32-7.79-9.95-7.79-15.86C76.66,41.42,89.59,31,105.48,31s28.83,10.41,28.83,23.21S121.38,77.43,105.48,77.43Z"/><path class="cls-5" d="M99.14,66.68c0,13.47,13.31,24.43,29.66,24.43A34.7,34.7,0,0,0,143.23,88l9.39,5.54a1.12,1.12,0,0,0,.25.11.31.31,0,0,0,.13,0h0v0a1.51,1.51,0,0,0,.37.06,1.49,1.49,0,0,0,.54-.11,1.42,1.42,0,0,0,.77-1.86L151,82.9a22.07,22.07,0,0,0,7.46-16.22c0-13.47-13.3-24.44-29.65-24.44S99.14,53.2,99.14,66.68Zm2.85,0c0-11.9,12-21.59,26.81-21.59s26.81,9.69,26.81,21.59c0,5.5-2.58,10.73-7.25,14.75a1.42,1.42,0,0,0-.39,1.63L150.42,89,144,85.2l-.16-.08a1.47,1.47,0,0,0-.65-.12,1.53,1.53,0,0,0-.51.13l0,0a31.73,31.73,0,0,1-13.87,3.12C114,88.27,102,78.58,102,66.68Z"/><g class="cls-6"><polygon class="cls-7" points="92.77 64.39 92.59 67.78 120.61 39.77 117.7 39.45 92.77 64.39"/><polygon class="cls-7" points="94.47 70.99 94.3 74.38 130.27 38.41 127.36 38.1 94.47 70.99"/><polygon class="cls-7" points="94.39 79.2 94.21 82.59 132.68 44.13 132.83 40.75 94.39 79.2"/><polygon class="cls-7" points="98.22 83.84 99.25 86.04 135.13 50.15 135.71 46.35 98.22 83.84"/><polygon class="cls-7" points="109.4 80.79 112.62 80.79 138.6 54.81 137.63 52.56 109.4 80.79"/><polygon class="cls-7" points="117.18 80.79 120.4 80.79 140.56 60.63 139.6 58.37 117.18 80.79"/><polygon class="cls-7" points="126.01 80.79 129.23 80.79 143.57 66.45 142.61 64.19 126.01 80.79"/><polygon class="cls-7" points="134.31 80.79 137.53 80.79 146.06 72.26 145.09 70.01 134.31 80.79"/></g><circle class="cls-7" cx="15.6" cy="62.39" r="15.6"/><path class="cls-8" d="M12.09,55.44c1.9-.28,2.44-.73,2.56-2.19l4.21-.62L17.45,71.38l-4.58.68.92-12.41-2,.3Z"/><path class="cls-8" d="M20.3,67.42l-.37,3.88-9.55,1.41.37-3.89Z"/><line class="cls-2" x1="53.99" y1="310.84" x2="16.37" y2="310.84"/><line class="cls-9" x1="153.12" y1="274.76" x2="153.12" y2="275.06"/><circle class="cls-4" cx="116.02" cy="310.88" r="62.02"/><path class="cls-7" d="M106.76,309.73l16.11-10a23.12,23.12,0,0,1-6.36.85,21.85,21.85,0,0,1-8.39-1.56,2.35,2.35,0,0,0-2.17.19,2.59,2.59,0,0,0-1.06,1.35,1.71,1.71,0,0,0-.23.6,16.77,16.77,0,0,1-.64,2.41,4.44,4.44,0,0,1-.41.85,3.44,3.44,0,0,1-2.06,1.32,37.8,37.8,0,0,1-6.93.69,10.74,10.74,0,0,1-2.2-.21,3.71,3.71,0,0,0-.47,0,3.58,3.58,0,0,0-2.55,1.09,4.73,4.73,0,0,0-1.35,3.24v.11h0a4.63,4.63,0,0,0,1.35,3.34,3.79,3.79,0,0,0,2.65,1.1,3.23,3.23,0,0,0,.53,0,69.37,69.37,0,0,1,9.22-1,2.56,2.56,0,0,1,2.06,1.1,4.6,4.6,0,0,1,.25.61,7.36,7.36,0,0,0,.53,1.29c.06.12.11.25.18.37l11.42-6Z"/><path class="cls-7" d="M141.06,306.15l-.45,0a26.35,26.35,0,0,1-3.41.21,24.51,24.51,0,0,1-5.73-.69,3.5,3.5,0,0,1-2.42-1.9c0-.09-.09-.18-.12-.27a15.1,15.1,0,0,1-.56-2.07l-10.47,5.32,8.55,3.3-19.06,10.44c1.61,1.31,4.19,2.43,9.12,2.43,7.58,0,9.6-2.63,11.08-4.55a6.91,6.91,0,0,0,1.08-2.16,5,5,0,0,0,.17-.5l.06-.17a2.57,2.57,0,0,1,2.3-1.54,69.14,69.14,0,0,1,9.24,1,3.27,3.27,0,0,0,.54,0h0a3.79,3.79,0,0,0,2.64-1.1,4.64,4.64,0,0,0,1.36-3.34,4.72,4.72,0,0,0-1.36-3.35A3.57,3.57,0,0,0,141.06,306.15Z"/><path class="cls-7" d="M143.62,281.79a3.61,3.61,0,0,0-2.56-1.09,3.4,3.4,0,0,0-.45,0,26.18,26.18,0,0,1-3.41.22,23.72,23.72,0,0,1-5.72-.7,2.17,2.17,0,0,1-1.2-.88,11.54,11.54,0,0,1-1.35-2.63,17,17,0,0,1-.63-2.4c0-.09-.05-.18-.07-.26a2.64,2.64,0,0,0-1.16-1.69,2.33,2.33,0,0,0-1.25-.36,2.38,2.38,0,0,0-.91.18,23.51,23.51,0,0,1-16.79,0,2.43,2.43,0,0,0-.91-.19,2.37,2.37,0,0,0-1.26.37,2.61,2.61,0,0,0-1,1.33,1.58,1.58,0,0,0-.24.62,17,17,0,0,1-.64,2.4,10.8,10.8,0,0,1-1.68,3.08,1.72,1.72,0,0,1-.79.43,36.82,36.82,0,0,1-6.93.7,10.89,10.89,0,0,1-2.21-.22,3.4,3.4,0,0,0-.45,0,3.67,3.67,0,0,0-2.56,1.09,4.67,4.67,0,0,0-1.34,3.13,1.48,1.48,0,0,0,0,.21h0a4.58,4.58,0,0,0,1.36,3.33,3.77,3.77,0,0,0,2.64,1.1l.53,0a69.15,69.15,0,0,1,9.23-1,2.51,2.51,0,0,1,2,1.07,5,5,0,0,1,.26.64,6.37,6.37,0,0,0,.52,1.26,6,6,0,0,0,.8,1.4c1.48,1.92,3.5,4.55,11.08,4.55s9.6-2.63,11.08-4.55a6.83,6.83,0,0,0,1.09-2.18c.07-.17.12-.33.17-.48a1.27,1.27,0,0,1,.06-.18,2.43,2.43,0,0,1,2.22-1.53h.07a69.42,69.42,0,0,1,9.25,1,4.58,4.58,0,0,0,.53,0h0a3.79,3.79,0,0,0,2.64-1.1,4.62,4.62,0,0,0,1.36-3.33A4.75,4.75,0,0,0,143.62,281.79Zm-19.8,8.26c-1.09,1.46-2.87,2.69-7.31,2.69s-6.22-1.23-7.3-2.69c-1.76-2.38-2.62-7.24-.36-12.55a29.27,29.27,0,0,0,15.32,0C126.44,282.81,125.58,287.67,123.82,290.05Z"/><g class="cls-10"><polygon class="cls-7" points="86.23 297.25 86.02 301.41 130.13 257.3 126.56 256.92 86.23 297.25"/><polygon class="cls-7" points="86.13 307.31 85.92 311.48 133.09 264.31 133.27 260.17 86.13 307.31"/><polygon class="cls-7" points="90.83 313.01 92.09 315.71 136.09 271.7 136.8 267.04 90.83 313.01"/><polygon class="cls-7" points="104.54 309.27 108.49 309.27 140.34 277.41 139.16 274.64 104.54 309.27"/></g><path class="cls-7" d="M143.62,334a3.57,3.57,0,0,0-2.56-1.09l-.45,0a26.23,26.23,0,0,1-3.41.21,24.34,24.34,0,0,1-5.72-.69,2.27,2.27,0,0,1-1.2-.88,11.6,11.6,0,0,1-1.35-2.64,16.66,16.66,0,0,1-.63-2.4c0-.09-.05-.18-.07-.26a2.67,2.67,0,0,0-1.16-1.69,2.33,2.33,0,0,0-1.25-.36,2.38,2.38,0,0,0-.91.18,23.51,23.51,0,0,1-16.79,0,2.42,2.42,0,0,0-.91-.18,2.36,2.36,0,0,0-1.26.36,2.61,2.61,0,0,0-1,1.33,1.58,1.58,0,0,0-.24.62A16.62,16.62,0,0,1,104,329a10.67,10.67,0,0,1-1.68,3.08,1.85,1.85,0,0,1-.79.44,37.8,37.8,0,0,1-6.93.69,10.91,10.91,0,0,1-2.21-.21,2.27,2.27,0,0,0-.45,0A3.63,3.63,0,0,0,89.4,334a4.63,4.63,0,0,0-1.34,3.12,1.55,1.55,0,0,0,0,.22h0a4.56,4.56,0,0,0,1.36,3.33,3.74,3.74,0,0,0,2.64,1.11,4.91,4.91,0,0,0,.53,0,67.39,67.39,0,0,1,9.23-1,2.48,2.48,0,0,1,2,1.07,4.39,4.39,0,0,1,.26.63,12,12,0,0,0,1.32,2.67c1.48,1.92,3.5,4.55,11.08,4.55s9.6-2.63,11.08-4.55a7,7,0,0,0,1.09-2.19c.07-.17.12-.33.17-.48a1.15,1.15,0,0,1,.06-.17,2.42,2.42,0,0,1,2.22-1.53h.07a67.65,67.65,0,0,1,9.25,1,4.55,4.55,0,0,0,.53,0h0a3.75,3.75,0,0,0,2.64-1.11,4.6,4.6,0,0,0,1.36-3.33A4.72,4.72,0,0,0,143.62,334Zm-19.8,8.25c-1.09,1.46-2.87,2.69-7.31,2.69s-6.22-1.23-7.3-2.69c-1.76-2.37-2.62-7.24-.36-12.55a29,29,0,0,0,15.32,0C126.44,335,125.58,339.9,123.82,342.27Z"/><g class="cls-11"><polygon class="cls-7" points="86.23 349.47 86.02 353.63 130.13 309.53 126.56 309.15 86.23 349.47"/><polygon class="cls-7" points="86.13 359.54 85.92 363.7 133.09 316.53 133.27 312.39 86.13 359.54"/><polygon class="cls-7" points="90.83 365.23 92.09 367.93 136.09 323.92 136.8 319.26 90.83 365.23"/><polygon class="cls-7" points="104.54 361.49 108.49 361.49 140.34 329.63 139.16 326.87 104.54 361.49"/></g><circle class="cls-7" cx="15.6" cy="310.13" r="15.6"/><path class="cls-8" d="M20.8,318.54,9.05,320.26l.29-3.66c.57-6.94,7.83-7.11,8.12-10.6.08-1.11-.59-1.38-1.36-1.27s-1.5.56-1.61,2l-4.48.65c.15-3.9,2.44-6.5,6.12-7s6.05,1.48,5.82,5c-.36,6-7.81,7.48-8,9.78L21.15,314Z"/><line class="cls-2" x1="53.99" y1="559.84" x2="16.37" y2="559.84"/><line class="cls-9" x1="153.12" y1="523.23" x2="153.12" y2="523.53"/><circle class="cls-4" cx="116.02" cy="559.33" r="62.02"/><path class="cls-7" d="M130.8,592.77v-5.72h2L122.91,576l-9.85,11.06h1.58v5.72H100.23v-5.72h5.22l13.65-15.32L107,558.07H99.33v16.18h4.26V580H89.18v-5.72h4.38V525.89h20.38a14.73,14.73,0,0,1,11.5,4.83,16.6,16.6,0,0,1,4.26,11.4,16.16,16.16,0,0,1-4.28,11.27,14.68,14.68,0,0,1-10.84,4.67l8.33,9.36,8.16-9.16h-1.8v-5.73h14.41v5.73h-5l-12,13.47,13.65,15.32h4.84v5.72Zm-16.86-40.29a9,9,0,0,0,7.18-3,10.32,10.32,0,0,0,2.75-7.41,11.06,11.06,0,0,0-2.7-7.64,9.18,9.18,0,0,0-7.23-3H99.33v21Z"/><g class="cls-12"><polygon class="cls-7" points="73.95 544.28 73.76 548.03 104.71 517.08 101.5 516.74 73.95 544.28"/><polygon class="cls-7" points="75.83 551.57 75.64 555.32 115.37 515.59 112.16 515.25 75.83 551.57"/><polygon class="cls-7" points="75.74 560.63 75.55 564.38 118.04 521.89 118.2 518.17 75.74 560.63"/><polygon class="cls-7" points="79.98 565.76 81.11 568.19 120.75 528.55 121.39 524.36 79.98 565.76"/><polygon class="cls-7" points="92.32 562.39 95.88 562.39 124.58 533.7 123.51 531.21 92.32 562.39"/><polygon class="cls-7" points="100.92 562.39 104.47 562.39 126.75 540.12 125.68 537.63 100.92 562.39"/><polygon class="cls-7" points="110.67 562.39 114.22 562.39 130.07 546.55 129 544.06 110.67 562.39"/><polygon class="cls-7" points="119.84 562.39 123.4 562.39 132.82 552.98 131.75 550.48 119.84 562.39"/></g><circle class="cls-7" cx="15.6" cy="557.96" r="15.6"/><path class="cls-8" d="M21.52,561c-.07,3.72-2.43,6.38-6.42,7-3.6.53-6.23-1.61-6-5.5l4.55-.65c-.13,1.54.79,1.73,1.51,1.62a1.91,1.91,0,0,0,1.74-1.83c.09-1.09-.38-1.42-2-1.18l-1.7.25.29-4s.87-.16,1.59-.26a2.19,2.19,0,0,0,2.11-2.05A1.1,1.1,0,0,0,15.89,553a1.9,1.9,0,0,0-1.62,2l-4.47.66c.31-3.88,2.36-6.49,6.14-7,3.52-.51,5.84,1.46,5.84,4.48a5,5,0,0,1-2.57,4.42C20.36,557.72,21.55,558.7,21.52,561Z"/></g></g></svg>