<?xml version="1.0" encoding="utf-8"?>
<!-- Generator: Adobe Illustrator 21.0.0, SVG Export Plug-In . SVG Version: 6.00 Build 0)  -->
<svg version="1.1" id="Layer_1" xmlns="http://www.w3.org/2000/svg" xmlns:xlink="http://www.w3.org/1999/xlink" x="0px" y="0px"
	 viewBox="0 0 57 77.8" enable-background="new 0 0 57 77.8" xml:space="preserve">
<g>
	<path fill="none" d="M21.7,57.9l-1.5,1.5c-0.7,2.4-0.9,4.7-0.6,6.6l7.4-7.4C25.2,58.6,23.4,58.4,21.7,57.9z"/>
	<path fill="none" d="M28.5,20.8c3,0,4.8-0.6,6-1.4l1.4-1.4c1.2-1.6,2-4.4,1.6-7.6L27.1,20.7C27.5,20.7,28,20.8,28.5,20.8z"/>
	<path fill="none" d="M27,6.5c-1.8-0.1-3.5-0.3-5.3-0.8l-1.5,1.5c-0.7,2.4-0.9,4.7-0.6,6.6L27,6.5z"/>
	<path fill="none" d="M21.2,18.1c0.6,0.8,1.4,1.5,2.6,2L36.7,7.1c-0.2-0.5-0.4-1.1-0.6-1.6C34.4,6,32.7,6.3,31,6.4L20.5,16.9
		C20.7,17.3,20.9,17.7,21.2,18.1z"/>
	<path fill="none" d="M27.1,72.9c0.4,0,0.9,0,1.4,0c3,0,4.8-0.6,6-1.4l1.3-1.3c1.2-1.6,2-4.4,1.6-7.6L27.1,72.9z"/>
	<path fill="none" d="M36.1,57.7c-1.7,0.5-3.4,0.8-5.1,0.9L20.5,69.1c0.2,0.4,0.4,0.8,0.7,1.1c0.6,0.8,1.4,1.5,2.6,2l12.9-12.9
		C36.5,58.8,36.3,58.3,36.1,57.7z"/>
	<path fill="#F48020" d="M28.5,28.6c-2.9,0-5.7-0.5-8.4-1.6c-0.3-0.1-0.6-0.2-0.9-0.2c-0.4,0-0.9,0.1-1.2,0.4
		c-0.5,0.3-0.9,0.8-1.1,1.4c-0.1,0.2-0.2,0.4-0.2,0.6c-0.2,0.8-0.4,1.6-0.6,2.4c-0.1,0.3-0.3,0.6-0.4,0.8c-0.5,0.7-1.2,1.1-2.1,1.3
		c-2.3,0.4-4.6,0.7-6.9,0.7c-0.7,0-1.5-0.1-2.2-0.2c-1.1-0.1-2.2,0.3-3,1.1c-0.9,0.9-1.3,2-1.4,3.2c0,0,0,0.1,0,0.1
		c0,1.3,0.5,2.5,1.4,3.3c0.7,0.7,1.7,1.1,2.6,1.1c0.2,0,0.4,0,0.5,0c3.1-0.5,6.1-0.9,9.2-1c0.8,0,1.5,0.4,2,1.1
		c0.1,0.2,0.2,0.4,0.2,0.6c0.1,0.4,0.3,0.9,0.5,1.3c0,0.1,0.1,0.2,0.2,0.4l11.4-6l-9.4-1.7l16.1-10C32.8,28.3,30.7,28.6,28.5,28.6z"
		/>
	<path fill="#F48020" d="M39.6,46.4c0.5-0.7,0.8-1.4,1.1-2.2c0.1-0.2,0.1-0.3,0.2-0.5l0.1-0.2c0.4-0.9,1.3-1.5,2.3-1.5
		c3.1,0.1,6.2,0.5,9.2,1c0.2,0,0.4,0,0.5,0c1,0,1.9-0.4,2.6-1.1c0.9-0.9,1.4-2.1,1.4-3.3c0-1.3-0.5-2.5-1.4-3.3
		c-0.7-0.7-1.6-1.1-2.6-1.1h-0.5c-1.1,0.1-2.3,0.2-3.4,0.2c-1.9,0-3.8-0.2-5.7-0.7c-1.1-0.2-2-0.9-2.4-1.9c0-0.1-0.1-0.2-0.1-0.3
		c-0.2-0.7-0.4-1.4-0.6-2.1l-10.5,5.3l8.5,3.3l-19,10.4c1.6,1.3,4.2,2.4,9.1,2.4C36.1,50.9,38.2,48.3,39.6,46.4z"/>
	<path fill="#F48020" d="M4,17.6c0.2,0,0.4,0,0.5,0c3.1-0.5,6.1-0.9,9.2-1c0.8,0,1.5,0.4,2,1.1c0.1,0.2,0.2,0.4,0.3,0.6
		c0.1,0.4,0.3,0.9,0.5,1.3c0.2,0.5,0.5,1,0.8,1.4c1.5,1.9,3.5,4.5,11.1,4.5c7.6,0,9.6-2.6,11.1-4.5c0.5-0.7,0.9-1.4,1.1-2.2
		c0.1-0.2,0.1-0.3,0.2-0.5l0.1-0.2c0.4-0.9,1.2-1.5,2.2-1.5h0.1c3.1,0.1,6.2,0.5,9.2,1c0.2,0,0.4,0,0.5,0c1,0,1.9-0.4,2.6-1.1
		c0.9-0.9,1.4-2.1,1.4-3.3c0-1.2-0.5-2.5-1.3-3.4c-0.7-0.7-1.6-1.1-2.6-1.1h-0.5c-1.1,0.1-2.3,0.2-3.4,0.2c-1.9,0-3.8-0.2-5.7-0.7
		c-0.5-0.1-0.9-0.5-1.2-0.9c-0.6-0.8-1-1.7-1.3-2.6c-0.3-0.8-0.5-1.6-0.6-2.4c0-0.1,0-0.2-0.1-0.3c-0.1-0.7-0.6-1.3-1.2-1.7
		C38.7,0.1,38.2,0,37.8,0c-0.3,0-0.6,0.1-0.9,0.2c-5.4,2.1-11.4,2.1-16.8,0C19.8,0.1,19.5,0,19.2,0c-0.4,0-0.9,0.1-1.2,0.4
		c-0.5,0.3-0.9,0.8-1.1,1.3c-0.1,0.2-0.2,0.4-0.2,0.6c-0.2,0.8-0.4,1.6-0.6,2.4c-0.4,1.1-1,2.1-1.7,3.1c-0.2,0.2-0.5,0.4-0.8,0.4
		c-2.3,0.5-4.6,0.7-6.9,0.7c-0.7,0-1.5-0.1-2.2-0.2c-0.2,0-0.3,0-0.5,0c-1,0-1.9,0.4-2.5,1.1c-0.8,0.8-1.3,2-1.4,3.1
		c0,0.1,0,0.1,0,0.2c0,1.2,0.5,2.5,1.4,3.3C2.1,17.2,3,17.6,4,17.6z M37.4,10.4c0.3,3.2-0.4,6-1.6,7.6l-1.4,1.4
		c-1.2,0.8-3,1.4-6,1.4c-0.5,0-0.9,0-1.4,0L37.4,10.4z M31,6.4c1.7-0.1,3.4-0.4,5.1-0.9c0.2,0.5,0.4,1.1,0.6,1.6L23.8,20
		c-1.3-0.5-2.1-1.2-2.6-2c-0.2-0.3-0.5-0.7-0.7-1.1L31,6.4z M20.2,7.3l1.5-1.5c1.7,0.4,3.5,0.7,5.3,0.8l-7.4,7.4
		C19.3,11.9,19.4,9.7,20.2,7.3z"/>
	<path fill="#F48020" d="M53.1,60.9h-0.5c-1.1,0.1-2.3,0.2-3.4,0.2c-1.9,0-3.8-0.2-5.7-0.7c-0.5-0.2-0.9-0.5-1.2-0.9
		c-0.6-0.8-1-1.7-1.3-2.6c-0.3-0.8-0.5-1.6-0.6-2.4c0-0.1,0-0.2-0.1-0.3c-0.2-0.7-0.6-1.3-1.2-1.6c-0.4-0.3-0.8-0.4-1.3-0.4
		c-0.3,0-0.6,0.1-0.9,0.2c-5.4,2.1-11.4,2.1-16.8,0c-0.3-0.1-0.6-0.2-0.9-0.2c-0.4,0-0.9,0.1-1.2,0.4c-0.5,0.3-0.9,0.8-1.1,1.3
		c-0.1,0.2-0.2,0.4-0.2,0.6c-0.1,0.8-0.4,1.6-0.6,2.4c-0.4,1.1-1,2.2-1.7,3.1c-0.2,0.2-0.5,0.4-0.8,0.4c-2.3,0.4-4.6,0.7-6.9,0.7
		c-0.7,0-1.5-0.1-2.2-0.2c-0.2,0-0.3,0-0.5,0c-1,0-1.9,0.4-2.5,1.1C0.5,62.9,0,64,0,65.2c0,0.1,0,0.1,0,0.2c0,1.2,0.5,2.5,1.4,3.3
		C2.1,69.4,3,69.8,4,69.8c0.2,0,0.4,0,0.5,0c3.1-0.5,6.1-0.9,9.2-1c0.8,0,1.5,0.4,2,1.1c0.1,0.2,0.2,0.4,0.3,0.6
		c0.3,0.9,0.8,1.8,1.3,2.7c1.5,1.9,3.5,4.5,11.1,4.5c7.6,0,9.6-2.6,11.1-4.5c0.5-0.7,0.9-1.4,1.1-2.2c0.1-0.2,0.1-0.3,0.2-0.5
		l0.1-0.2c0.4-0.9,1.2-1.5,2.2-1.5h0.1c3.1,0.1,6.2,0.5,9.2,1c0.2,0,0.4,0,0.5,0c1,0,1.9-0.4,2.6-1.1c0.9-0.9,1.4-2.1,1.4-3.3
		c0-1.3-0.4-2.5-1.3-3.4C54.9,61.3,54,60.9,53.1,60.9z M20.2,59.5l1.5-1.5c1.7,0.4,3.5,0.7,5.3,0.8l-7.4,7.4
		C19.3,64.2,19.4,61.9,20.2,59.5z M21.2,70.3c-0.2-0.3-0.5-0.7-0.7-1.1L31,58.6c1.7-0.2,3.4-0.4,5.1-0.9c0.2,0.5,0.4,1.1,0.6,1.6
		L23.8,72.3C22.5,71.8,21.7,71.1,21.2,70.3z M35.8,70.2l-1.3,1.3c-1.2,0.8-3,1.4-6,1.4c-0.5,0-0.9,0-1.4,0l10.3-10.3
		C37.8,65.9,37,68.6,35.8,70.2z"/>
</g>
</svg>
