<svg xmlns="http://www.w3.org/2000/svg" viewBox="0 0 57 77.8"><path fill="none" d="M21.7 57.9l-1.5 1.5c-.7 2.4-.9 4.7-.6 6.6l7.4-7.4c-1.8 0-3.6-.2-5.3-.7zM28.5 20.8c3 0 4.8-.6 6-1.4l1.4-1.4c1.2-1.6 2-4.4 1.6-7.6L27.1 20.7c.4 0 .9.1 1.4.1zM27 6.5c-1.8-.1-3.5-.3-5.3-.8l-1.5 1.5c-.7 2.4-.9 4.7-.6 6.6L27 6.5zM21.2 18.1c.6.8 1.4 1.5 2.6 2l12.9-13c-.2-.5-.4-1.1-.6-1.6-1.7.5-3.4.8-5.1.9L20.5 16.9c.2.4.4.8.7 1.2zM27.1 72.9h1.4c3 0 4.8-.6 6-1.4l1.3-1.3c1.2-1.6 2-4.4 1.6-7.6L27.1 72.9zM36.1 57.7c-1.7.5-3.4.8-5.1.9L20.5 69.1c.2.4.4.8.7 1.1.6.8 1.4 1.5 2.6 2l12.9-12.9c-.2-.5-.4-1-.6-1.6z"/><path fill="#F48020" d="M28.5 28.6c-2.9 0-5.7-.5-8.4-1.6-.3-.1-.6-.2-.9-.2-.4 0-.9.1-1.2.4-.5.3-.9.8-1.1 1.4-.1.2-.2.4-.2.6l-.6 2.4c-.1.3-.3.6-.4.8-.5.7-1.2 1.1-2.1 1.3-2.3.4-4.6.7-6.9.7-.7 0-1.5-.1-2.2-.2-1.1-.1-2.2.3-3 1.1-.9.9-1.3 2-1.4 3.2v.1c0 1.3.5 2.5 1.4 3.3.7.7 1.7 1.1 2.6 1.1h.5c3.1-.5 6.1-.9 9.2-1 .8 0 1.5.4 2 1.1.1.2.2.4.2.6.1.4.3.9.5 1.3 0 .1.1.2.2.4l11.4-6-9.4-1.7 16.1-10c-2 .6-4.1.9-6.3.9z"/><path fill="#F48020" d="M39.6 46.4c.5-.7.8-1.4 1.1-2.2.1-.2.1-.3.2-.5l.1-.2c.4-.9 1.3-1.5 2.3-1.5 3.1.1 6.2.5 9.2 1h.5c1 0 1.9-.4 2.6-1.1.9-.9 1.4-2.1 1.4-3.3 0-1.3-.5-2.5-1.4-3.3-.7-.7-1.6-1.1-2.6-1.1h-.5c-1.1.1-2.3.2-3.4.2-1.9 0-3.8-.2-5.7-.7-1.1-.2-2-.9-2.4-1.9 0-.1-.1-.2-.1-.3l-.6-2.1-10.5 5.3 8.5 3.3-19 10.4c1.6 1.3 4.2 2.4 9.1 2.4 7.7.1 9.8-2.5 11.2-4.4zM4 17.6h.5c3.1-.5 6.1-.9 9.2-1 .8 0 1.5.4 2 1.1l.3.6c.1.4.3.9.5 1.3.2.5.5 1 .8 1.4 1.5 1.9 3.5 4.5 11.1 4.5S38 22.9 39.5 21c.5-.7.9-1.4 1.1-2.2.1-.2.1-.3.2-.5l.1-.2c.4-.9 1.2-1.5 2.2-1.5h.1c3.1.1 6.2.5 9.2 1h.5c1 0 1.9-.4 2.6-1.1.9-.9 1.4-2.1 1.4-3.3 0-1.2-.5-2.5-1.3-3.4-.7-.7-1.6-1.1-2.6-1.1h-.5c-1.1.1-2.3.2-3.4.2-1.9 0-3.8-.2-5.7-.7-.5-.1-.9-.5-1.2-.9-.6-.8-1-1.7-1.3-2.6-.3-.8-.5-1.6-.6-2.4 0-.1 0-.2-.1-.3-.1-.7-.6-1.3-1.2-1.7-.3-.2-.8-.3-1.2-.3-.3 0-.6.1-.9.2-5.4 2.1-11.4 2.1-16.8 0-.3-.1-.6-.2-.9-.2-.4 0-.9.1-1.2.4-.5.3-.9.8-1.1 1.3-.1.2-.2.4-.2.6l-.6 2.4c-.4 1.1-1 2.1-1.7 3.1-.2.2-.5.4-.8.4-2.3.5-4.6.7-6.9.7-.7 0-1.5-.1-2.2-.2H4c-1 0-1.9.4-2.5 1.1-.8.8-1.3 2-1.4 3.1v.2c0 1.2.5 2.5 1.4 3.3.6.8 1.5 1.2 2.5 1.2zm33.4-7.2c.3 3.2-.4 6-1.6 7.6l-1.4 1.4c-1.2.8-3 1.4-6 1.4H27l10.4-10.4zm-6.4-4c1.7-.1 3.4-.4 5.1-.9.2.5.4 1.1.6 1.6L23.8 20c-1.3-.5-2.1-1.2-2.6-2-.2-.3-.5-.7-.7-1.1L31 6.4zm-10.8.9l1.5-1.5c1.7.4 3.5.7 5.3.8L19.6 14c-.3-2.1-.2-4.3.6-6.7zM53.1 60.9h-.5c-1.1.1-2.3.2-3.4.2-1.9 0-3.8-.2-5.7-.7-.5-.2-.9-.5-1.2-.9-.6-.8-1-1.7-1.3-2.6-.3-.8-.5-1.6-.6-2.4 0-.1 0-.2-.1-.3-.2-.7-.6-1.3-1.2-1.6-.4-.3-.8-.4-1.3-.4-.3 0-.6.1-.9.2-5.4 2.1-11.4 2.1-16.8 0-.3-.1-.6-.2-.9-.2-.4 0-.9.1-1.2.4-.5.3-.9.8-1.1 1.3-.1.2-.2.4-.2.6-.1.8-.4 1.6-.6 2.4-.4 1.1-1 2.2-1.7 3.1-.2.2-.5.4-.8.4-2.3.4-4.6.7-6.9.7-.7 0-1.5-.1-2.2-.2H4c-1 0-1.9.4-2.5 1.1-1 .9-1.5 2-1.5 3.2v.2c0 1.2.5 2.5 1.4 3.3.7.7 1.6 1.1 2.6 1.1h.5c3.1-.5 6.1-.9 9.2-1 .8 0 1.5.4 2 1.1l.3.6c.3.9.8 1.8 1.3 2.7 1.5 1.9 3.5 4.5 11.1 4.5s9.6-2.6 11.1-4.5c.5-.7.9-1.4 1.1-2.2.1-.2.1-.3.2-.5l.1-.2c.4-.9 1.2-1.5 2.2-1.5h.1c3.1.1 6.2.5 9.2 1h.5c1 0 1.9-.4 2.6-1.1.9-.9 1.4-2.1 1.4-3.3 0-1.3-.4-2.5-1.3-3.4-.7-.7-1.6-1.1-2.5-1.1zm-32.9-1.4l1.5-1.5c1.7.4 3.5.7 5.3.8l-7.4 7.4c-.3-2-.2-4.3.6-6.7zm1 10.8c-.2-.3-.5-.7-.7-1.1L31 58.6c1.7-.2 3.4-.4 5.1-.9.2.5.4 1.1.6 1.6l-12.9 13c-1.3-.5-2.1-1.2-2.6-2zm14.6-.1l-1.3 1.3c-1.2.8-3 1.4-6 1.4h-1.4l10.3-10.3c.4 3.3-.4 6-1.6 7.6z"/></svg>