<?xml version="1.0" encoding="utf-8"?>
<!-- Generator: Adobe Illustrator 17.0.0, SVG Export Plug-In . SVG Version: 6.00 Build 0)  -->
<!DOCTYPE svg PUBLIC "-//W3C//DTD SVG 1.1//EN" "http://www.w3.org/Graphics/SVG/1.1/DTD/svg11.dtd">
<svg version="1.1" id="Layer_1" xmlns="http://www.w3.org/2000/svg" xmlns:xlink="http://www.w3.org/1999/xlink" x="0px" y="0px"
	 width="36px" height="36px" viewBox="0 0 36 36" enable-background="new 0 0 36 36" xml:space="preserve">
<g>
	<path fill="#FFFFFF" d="M18,0C8.07,0,0,8.07,0,18c0,9.93,8.07,18,18,18s18-8.07,18-18C36,8.07,27.93,0,18,0z M18,35.27
		C8.48,35.27,0.73,27.52,0.73,18S8.48,0.73,18,0.73S35.27,8.48,35.27,18S27.52,35.27,18,35.27z"/>
	<polygon fill="#FFFFFF" points="19.83,25.44 16.17,25.44 15.53,26.98 13.16,26.98 13.16,27.85 22.84,27.85 22.84,26.98 
		20.47,26.98 	"/>
	<path fill="#FFFFFF" d="M28.92,9.96h-7.75H20.8H7.08c-0.34,0-0.62,0.28-0.62,0.62v13.76c0,0.34,0.28,0.62,0.62,0.62h21.83
		c0.34,0,0.62-0.28,0.62-0.62V10.58C29.53,10.24,29.26,9.96,28.92,9.96z M28.29,23.51H7.71V11.32h20.58V23.51z"/>
	<polygon fill="#FFFFFF" points="16.73,13.83 16.73,21.26 21.46,17.54 	"/>
</g>
</svg>
