<svg id="Layer_1" xmlns="http://www.w3.org/2000/svg" viewBox="0 0 56 66.9"><style>.st1{fill:none}</style><path class="st1" d="M31.9 23.6c1.6-1.8 2.6-4.1 2.7-6.4l-9.4 9.4h-3.6l12.8-12.8c-.2-1.3-.7-2.5-1.4-3.7L16.7 26.6h-3.6L31.5 8.1c-1-.9-2.1-1.6-3.4-2.1l-18 18v2.5h14.6c2.8.2 5.4-.9 7.2-2.9zM25.1 5.6H19.3l-9.2 9.2v5.8l15-15zM15.8 5.6h-5.4l-.3.2v5.4z"/><path d="M51.2 61.2L37.5 45.9l12-13.5h5v-5.7H40.1v5.7h1.8l-8.2 9.2-8.3-9.4c4.1 0 8-1.7 10.8-4.7 2.8-3.1 4.4-7.1 4.3-11.3.1-4.2-1.4-8.2-4.2-11.4-2.9-3.2-7.1-5-11.5-4.8H4.4v48.4H0v5.7h14.4v-5.7h-4.3V32.2h7.6l12.2 13.7-13.6 15.3h-5.2v5.7h14.4v-5.7h-1.6l9.8-11.1 9.9 11.1h-2v5.7H56v-5.7h-4.8zM10.4 5.6h5.4l-5.6 5.6V5.8l.2-.2zm8.9 0H25.1l-15 15v-5.8l9.2-9.2zm5.5 21H10.2v-2.5l18-18c1.2.4 2.4 1.1 3.4 2.1L13.1 26.6h3.6l16.4-16.4c.7 1.1 1.1 2.4 1.4 3.7L21.7 26.6h3.6l9.4-9.4c-.1 2.4-1.1 4.7-2.7 6.4-1.9 2-4.5 3.1-7.2 3z" fill="#f48020"/></svg>