<?xml version="1.0" encoding="utf-8"?>
<!-- Generator: Adobe Illustrator 21.1.0, SVG Export Plug-In . SVG Version: 6.00 Build 0)  -->
<svg version="1.1" id="Layer_1" xmlns="http://www.w3.org/2000/svg" xmlns:xlink="http://www.w3.org/1999/xlink" x="0px" y="0px"
	 viewBox="0 0 729.2 71.4" enable-background="new 0 0 729.2 71.4" xml:space="preserve">
<g enable-background="new    ">
	<path fill="#CE009F" d="M15.8,22.4c0,0.8-0.2,1.5-0.4,2.1s-0.6,1.1-1,1.5s-0.9,0.7-1.4,0.9s-1.1,0.3-1.7,0.3s-1-0.1-1.5-0.2
		s-0.8-0.3-1.1-0.5s-0.6-0.4-0.8-0.7s-0.5-0.5-0.7-0.8s-0.4-0.5-0.6-0.8S6.2,23.9,6,23.7s-0.4-0.3-0.7-0.4s-0.5-0.2-0.8-0.2
		c-0.4,0-0.7,0.1-1,0.3S3,23.8,2.8,24.1s-0.3,0.6-0.4,1s-0.1,0.8-0.1,1.2c0,0.2-0.1,0.3-0.3,0.4s-0.5,0.1-0.9,0.1
		c-0.2,0-0.4,0-0.6,0s-0.3-0.1-0.4-0.1S0.1,26.5,0,26.4s0-0.1,0-0.2v-0.5c0-0.8,0.1-1.5,0.3-2.1s0.5-1.1,0.9-1.5s0.9-0.7,1.4-0.9
		s1.2-0.3,1.8-0.3c0.6,0,1,0.1,1.5,0.2s0.8,0.3,1.1,0.5s0.6,0.4,0.8,0.7s0.5,0.5,0.7,0.8s0.4,0.5,0.6,0.8s0.4,0.4,0.6,0.6
		s0.4,0.3,0.7,0.4s0.5,0.2,0.9,0.2c0.4,0,0.7-0.1,1-0.2s0.5-0.4,0.7-0.6s0.3-0.6,0.4-1s0.1-0.8,0.1-1.2c0-0.2,0.1-0.3,0.3-0.4
		s0.5-0.1,0.9-0.1c0.2,0,0.4,0,0.6,0s0.3,0,0.4,0.1s0.2,0.1,0.2,0.2s0,0.2,0,0.3V22.4z"/>
</g>
<g enable-background="new    ">
	<path fill="#CE009F" d="M17.4,33.1c1,0,2.6,0,4.6,0c2.1,0,3.6,0,4.6,0c0,2.6,0.7,4.5,2,5.7c1.3,1.2,3.1,1.8,5.2,1.8
		c2,0,3.6-0.5,4.8-1.5c1.3-1,1.9-2.5,1.9-4.6c0-1.9-0.6-3.3-1.8-4.2c-1.2-0.9-3-1.4-5.3-1.4h-5.5V21c0.9,0,1.5,0,2,0s1.1,0,1.9-0.1
		c0.8,0,1.4-0.1,1.9-0.2s1-0.2,1.6-0.3c0.7-0.1,1.2-0.3,1.5-0.5c0.4-0.2,0.8-0.4,1.2-0.7s0.8-0.6,1-1s0.4-0.8,0.6-1.3
		c0.2-0.5,0.2-1.1,0.2-1.7c0-2-0.6-3.4-1.8-4.4c-1.2-1-2.8-1.5-4.8-1.5c-2.1,0-3.7,0.6-4.8,1.8c-1.1,1.2-1.7,2.9-1.7,5.1h-9.1
		c0-4.8,1.4-8.6,4.3-11.4c2.8-2.9,6.6-4.3,11.3-4.3c4.5,0,8.3,1.3,11.2,3.9c2.9,2.6,4.4,5.8,4.4,9.8c0,2.5-0.6,4.7-1.7,6.4
		s-2.7,3-4.7,3.8c2,0.6,3.7,1.7,5.1,3.4c1.4,1.7,2.1,3.9,2.1,6.5c0,4.5-1.5,8.2-4.5,10.9c-3,2.7-6.9,4.1-11.7,4.1
		c-4.8,0-8.7-1.5-11.7-4.4C18.9,42.1,17.4,38.1,17.4,33.1z"/>
</g>
<g enable-background="new    ">
	<path fill="#CE009F" d="M51.8,48.7l12.9-24.2l-12.2-23h10l7.2,14.3l7.2-14.3h9.9l-12.2,23l12.9,24.2h-9.8l-8-15.7l-8,15.7H51.8z"/>
</g>
<g enable-background="new    ">
	<path fill="#FFFFFF" d="M91.6,13.9V1.6h1.7l3.4,8l3.4-8h1.7v12.3h-1.7V5.3l-2.8,6.4h-1.2l-2.8-6.4v8.5H91.6z"/>
	<path fill="#FFFFFF" d="M104.2,9.8V5.6c0-1.3,0.4-2.3,1.1-3.1c0.8-0.8,1.8-1.2,3-1.2c1.2,0,2.2,0.4,3,1.2c0.8,0.8,1.2,1.8,1.2,3.1
		v4.2c0,1.3-0.4,2.3-1.1,3.1c-0.8,0.8-1.7,1.2-3,1.2c-1.2,0-2.2-0.4-3-1.2C104.5,12.1,104.2,11.1,104.2,9.8z M105.9,9.8
		c0,0.8,0.2,1.5,0.7,1.9s1,0.7,1.7,0.7c0.7,0,1.2-0.2,1.7-0.7c0.5-0.4,0.7-1.1,0.7-1.9V5.6c0-0.8-0.2-1.5-0.7-1.9
		c-0.4-0.4-1-0.7-1.7-0.7c-0.7,0-1.2,0.2-1.7,0.7c-0.5,0.4-0.7,1.1-0.7,1.9V9.8z"/>
	<path fill="#FFFFFF" d="M114.7,13.9V1.6h3.7c1.3,0,2.3,0.4,3,1.1c0.7,0.8,1.1,1.8,1.1,3.2v0.4c0,1-0.2,1.8-0.7,2.5s-1.1,1.1-2,1.3
		l2.6,3.9h-2l-2.3-3.6h-1.8v3.6H114.7z M116.4,8.7h1.8c0.8,0,1.4-0.2,1.9-0.6s0.7-1,0.7-1.9V5.8c0-1.7-0.9-2.6-2.6-2.6h-1.8V8.7z"/>
	<path fill="#FFFFFF" d="M124.5,13.9V1.6h6.9v1.7h-5.1v3.7h3.8v1.5h-3.8v3.8h5.1v1.7H124.5z"/>
</g>
<g enable-background="new    ">
	<path fill="#FFFFFF" d="M91.6,30.9V18.6h6.6v1.7h-4.9V24h3.5v1.5h-3.5v5.4H91.6z"/>
	<path fill="#FFFFFF" d="M100.3,30.9V18.6h3.7c1.3,0,2.3,0.4,3,1.1c0.7,0.8,1.1,1.8,1.1,3.2v0.4c0,1-0.2,1.8-0.7,2.5s-1.1,1.1-2,1.3
		l2.6,3.9h-2l-2.3-3.6H102v3.6H100.3z M102,25.8h1.8c0.8,0,1.4-0.2,1.9-0.6s0.7-1,0.7-1.9v-0.4c0-1.7-0.9-2.6-2.6-2.6H102V25.8z"/>
</g>
<g enable-background="new    ">
	<path fill="#FFFFFF" d="M109.6,30.9V18.6h6.9v1.7h-5.1V24h3.8v1.5h-3.8v3.8h5.1v1.7H109.6z"/>
</g>
<g enable-background="new    ">
	<path fill="#FFFFFF" d="M117.7,26.9v-4.2c0-1.3,0.4-2.3,1.1-3.1s1.8-1.2,3-1.2c1.2,0,2.2,0.4,3,1.2c0.8,0.8,1.1,1.8,1.1,3.1v4.2
		c0,1.1-0.3,2-0.8,2.7c-0.5,0.7-1.3,1.2-2.2,1.4l1.3,2.3h-2l-1.1-2.3c-1-0.1-1.8-0.6-2.4-1.3C118,28.9,117.7,28,117.7,26.9z
		 M119.4,26.9c0,0.8,0.2,1.5,0.7,1.9s1,0.7,1.7,0.7c0.7,0,1.2-0.2,1.7-0.6c0.5-0.4,0.7-1.1,0.7-1.9v-4.3c0-0.8-0.2-1.5-0.7-1.9
		s-1-0.7-1.7-0.7c-0.7,0-1.2,0.2-1.7,0.6c-0.5,0.4-0.7,1.1-0.7,1.9V26.9z"/>
	<path fill="#FFFFFF" d="M128,26.8v-8.2h1.7v8.3c0,0.4,0.1,0.8,0.2,1.2c0.1,0.3,0.3,0.6,0.5,0.8c0.2,0.2,0.5,0.4,0.8,0.5
		s0.6,0.2,0.9,0.2c0.7,0,1.3-0.2,1.7-0.7s0.7-1.1,0.7-1.9v-8.3h1.7v8.2c0,1.3-0.4,2.3-1.2,3.1c-0.8,0.8-1.8,1.2-3,1.2
		c-1.2,0-2.2-0.4-3-1.2C128.4,29.1,128,28.1,128,26.8z"/>
	<path fill="#FFFFFF" d="M138.7,30.9V18.6h6.9v1.7h-5.1V24h3.8v1.5h-3.8v3.8h5.1v1.7H138.7z"/>
</g>
<g enable-background="new    ">
	<path fill="#FFFFFF" d="M147,30.9V18.6h1.6l5,8.9v-8.9h1.7v12.3h-1.6l-5-8.9v8.9H147z"/>
</g>
<g enable-background="new    ">
	<path fill="#FFFFFF" d="M157,20.3v-1.7h7.7v1.7h-3v10.7h-1.7V20.3H157z"/>
</g>
<g enable-background="new    ">
	<path fill="#FFFFFF" d="M90.9,37.3v-1.7h7.7v1.7h-3V48h-1.7V37.3H90.9z"/>
</g>
<g enable-background="new    ">
	<path fill="#FFFFFF" d="M100.1,48V35.7h1.7v5.4h4.5v-5.4h1.7V48h-1.7v-5.4h-4.5V48H100.1z"/>
</g>
<g enable-background="new    ">
	<path fill="#FFFFFF" d="M109.3,48l4-12.3h1.9l3.9,12.3h-1.8l-0.8-2.8H112l-0.8,2.8H109.3z M112.4,43.7h3.7l-1.8-6.2L112.4,43.7z"/>
	<path fill="#FFFFFF" d="M120.7,48V35.7h1.6l5,8.9v-8.9h1.7V48h-1.6l-5-8.9V48H120.7z"/>
</g>
<g enable-background="new    ">
	<path fill="#FFFFFF" d="M134.3,43.9h1.7c0,0.9,0.2,1.6,0.7,2s1,0.7,1.8,0.7c0.7,0,1.3-0.2,1.7-0.5c0.4-0.3,0.7-0.8,0.7-1.4
		c0-0.3-0.1-0.6-0.2-0.8s-0.3-0.4-0.6-0.6c-0.2-0.1-0.5-0.3-0.8-0.4c-0.3-0.1-0.6-0.2-1-0.3c-0.4-0.1-0.7-0.2-1.1-0.3
		c-0.4-0.1-0.7-0.3-1-0.4c-0.3-0.2-0.6-0.4-0.8-0.6c-0.2-0.2-0.4-0.5-0.6-0.9s-0.2-0.8-0.2-1.3c0-1.1,0.3-2,1-2.6s1.6-0.9,2.9-0.9
		c1.3,0,2.3,0.4,3.1,1.1c0.7,0.7,1.1,1.8,1.1,3.1h-1.8c0-0.8-0.2-1.5-0.6-1.9c-0.4-0.4-1-0.7-1.7-0.7c-0.7,0-1.2,0.2-1.6,0.5
		c-0.4,0.3-0.6,0.8-0.6,1.4c0,0.3,0.1,0.6,0.2,0.8s0.3,0.4,0.6,0.6c0.2,0.1,0.5,0.3,0.8,0.4s0.7,0.2,1,0.3s0.7,0.2,1.1,0.3
		c0.4,0.1,0.7,0.3,1,0.4s0.6,0.4,0.8,0.6s0.4,0.5,0.6,0.9c0.1,0.4,0.2,0.8,0.2,1.3c0,1.1-0.4,2-1.1,2.7c-0.7,0.6-1.7,0.9-3,0.9
		c-1.3,0-2.3-0.4-3-1.1S134.3,45.3,134.3,43.9z"/>
</g>
<g enable-background="new    ">
	<path fill="#FFFFFF" d="M143.3,37.3v-1.7h7.7v1.7h-3V48h-1.7V37.3H143.3z"/>
	<path fill="#FFFFFF" d="M152.8,48V35.7h3.7c1.3,0,2.3,0.4,3,1.1c0.7,0.8,1.1,1.8,1.1,3.2v0.4c0,1-0.2,1.8-0.7,2.5s-1.1,1.1-2,1.3
		l2.6,3.9h-2l-2.3-3.6h-1.8V48H152.8z M154.5,42.8h1.8c0.8,0,1.4-0.2,1.9-0.6s0.7-1,0.7-1.9v-0.4c0-1.7-0.9-2.6-2.6-2.6h-1.8V42.8z"
		/>
	<path fill="#FFFFFF" d="M162.3,43.9v-4.2c0-1.3,0.4-2.3,1.1-3.1c0.8-0.8,1.8-1.2,3-1.2c1.2,0,2.2,0.4,3,1.2
		c0.8,0.8,1.2,1.8,1.2,3.1v4.2c0,1.3-0.4,2.3-1.1,3.1c-0.8,0.8-1.7,1.2-3,1.2c-1.2,0-2.2-0.4-3-1.2
		C162.7,46.2,162.3,45.1,162.3,43.9z M164,43.9c0,0.8,0.2,1.5,0.7,1.9s1,0.7,1.7,0.7c0.7,0,1.2-0.2,1.7-0.7c0.5-0.4,0.7-1.1,0.7-1.9
		v-4.3c0-0.8-0.2-1.5-0.7-1.9c-0.4-0.4-1-0.7-1.7-0.7c-0.7,0-1.2,0.2-1.7,0.7c-0.5,0.4-0.7,1.1-0.7,1.9V43.9z"/>
	<path fill="#FFFFFF" d="M172.8,48V35.7h1.7v5.3h1.1l3.3-5.3h2l-3.9,6.1L181,48h-2l-3.3-5.5h-1.1V48H172.8z"/>
</g>
<g enable-background="new    ">
	<path fill="#FFFFFF" d="M181.7,48V35.7h6.9v1.7h-5.1V41h3.8v1.5h-3.8v3.8h5.1V48H181.7z"/>
</g>
<g enable-background="new    ">
	<path fill="#CE009F" d="M17.9,57.2c-0.2-0.2-0.2-0.4-0.2-0.6s0.1-0.4,0.2-0.6c0.2-0.2,0.4-0.2,0.6-0.2s0.4,0.1,0.6,0.2
		s0.2,0.4,0.2,0.6S19.2,57,19,57.2s-0.4,0.2-0.6,0.2S18,57.3,17.9,57.2z M17.8,66.4v-7.9h1.3v7.9H17.8z"/>
</g>
<g enable-background="new    ">
	<path fill="#CE009F" d="M20.9,66.4v-7.9h1.2v1.1c0.1-0.3,0.4-0.6,0.8-0.8c0.4-0.2,0.8-0.4,1.4-0.4c0.8,0,1.4,0.3,1.9,0.8
		c0.5,0.5,0.7,1.3,0.7,2.3v4.9h-1.3v-4.8c0-0.7-0.1-1.2-0.4-1.6s-0.7-0.5-1.3-0.5c-0.6,0-1,0.2-1.3,0.5s-0.4,0.9-0.4,1.7v4.7H20.9z"
		/>
</g>
<g enable-background="new    ">
	<path fill="#CE009F" d="M31.2,58.6h1.4l1.5,5.8l1.5-5.8h1.1l1.5,5.8l1.5-5.8h1.4l-2.2,7.9h-1.3l-1.5-5.7l-1.5,5.7h-1.2L31.2,58.6z"
		/>
</g>
<g enable-background="new    ">
	<path fill="#CE009F" d="M42.2,63.4v-1.9c0-0.9,0.3-1.7,0.8-2.3s1.3-0.8,2.2-0.8c0.9,0,1.6,0.3,2.2,0.8c0.5,0.6,0.8,1.3,0.8,2.3v1.9
		c0,1-0.3,1.7-0.8,2.3c-0.5,0.6-1.2,0.8-2.2,0.8c-0.9,0-1.7-0.3-2.2-0.8S42.2,64.4,42.2,63.4z M43.5,63.6c0,0.6,0.1,1,0.4,1.3
		c0.3,0.3,0.7,0.5,1.2,0.5c0.5,0,0.9-0.2,1.2-0.5s0.5-0.7,0.5-1.3v-2.2c0-0.6-0.1-1-0.4-1.3s-0.7-0.5-1.2-0.5
		c-0.5,0-0.9,0.2-1.2,0.5s-0.5,0.7-0.5,1.3V63.6z"/>
</g>
<g enable-background="new    ">
	<path fill="#CE009F" d="M49.8,66.4v-7.9h1.2v0.9c0.1-0.3,0.3-0.5,0.6-0.7s0.7-0.3,1.2-0.3c0.4,0,0.8,0.1,1.2,0.3
		c0.3,0.2,0.6,0.5,0.8,0.9c0.1-0.4,0.4-0.6,0.8-0.9c0.4-0.2,0.8-0.4,1.3-0.4c0.7,0,1.2,0.2,1.6,0.7s0.5,1.2,0.5,2.1v5.2h-1.3V61
		c0-0.5-0.1-0.9-0.3-1.1c-0.2-0.3-0.6-0.4-1-0.4c-0.4,0-0.8,0.1-1,0.4c-0.2,0.3-0.3,0.6-0.3,1.1v5.5h-1.3V61c0-0.5-0.1-0.9-0.3-1.1
		c-0.2-0.3-0.6-0.4-1-0.4c-0.4,0-0.8,0.1-1,0.4c-0.2,0.2-0.3,0.6-0.3,1.1v5.5H49.8z"/>
</g>
<g enable-background="new    ">
	<path fill="#CE009F" d="M60.6,63.5v-1.9c0-1,0.3-1.7,0.8-2.3s1.3-0.8,2.2-0.8s1.7,0.3,2.2,0.8s0.8,1.3,0.8,2.2v1.4h-4.6v0.9
		c0,0.5,0.2,1,0.5,1.3c0.3,0.3,0.7,0.5,1.2,0.5s0.9-0.1,1.2-0.4s0.5-0.6,0.5-1.1v-0.1h1.3v0.1c0,0.7-0.3,1.4-0.8,1.9
		c-0.5,0.5-1.3,0.8-2.2,0.8c-0.9,0-1.7-0.3-2.2-0.8C60.9,65.2,60.6,64.4,60.6,63.5z M61.9,61.9h3.3v-0.5c0-0.6-0.1-1.1-0.4-1.4
		c-0.3-0.3-0.7-0.5-1.2-0.5c-0.5,0-0.9,0.2-1.2,0.5c-0.3,0.3-0.4,0.7-0.4,1.3V61.9z"/>
</g>
<g enable-background="new    ">
	<path fill="#CE009F" d="M68.2,66.4v-7.9h1.2v1.1c0.1-0.3,0.4-0.6,0.8-0.8c0.4-0.2,0.8-0.4,1.4-0.4c0.8,0,1.4,0.3,1.9,0.8
		c0.5,0.5,0.7,1.3,0.7,2.3v4.9h-1.3v-4.8c0-0.7-0.1-1.2-0.4-1.6s-0.7-0.5-1.3-0.5c-0.6,0-1,0.2-1.3,0.5s-0.4,0.9-0.4,1.7v4.7H68.2z"
		/>
</g>
<g enable-background="new    ">
	<path fill="#CE009F" d="M79,63.4v-1.9c0-0.9,0.3-1.7,0.8-2.3s1.3-0.8,2.2-0.8c0.9,0,1.6,0.3,2.2,0.8c0.5,0.6,0.8,1.3,0.8,2.3v1.9
		c0,1-0.3,1.7-0.8,2.3c-0.5,0.6-1.2,0.8-2.2,0.8c-0.9,0-1.7-0.3-2.2-0.8S79,64.4,79,63.4z M80.3,63.6c0,0.6,0.1,1,0.4,1.3
		c0.3,0.3,0.7,0.5,1.2,0.5c0.5,0,0.9-0.2,1.2-0.5s0.5-0.7,0.5-1.3v-2.2c0-0.6-0.1-1-0.4-1.3s-0.7-0.5-1.2-0.5
		c-0.5,0-0.9,0.2-1.2,0.5s-0.5,0.7-0.5,1.3V63.6z"/>
</g>
<g enable-background="new    ">
	<path fill="#CE009F" d="M86.1,59.7v-1.1H87c0-1,0.2-1.7,0.5-2.1c0.3-0.4,0.9-0.6,1.7-0.6l0.7,0V57c-0.1,0-0.3,0-0.4,0
		c-0.3,0-0.6,0-0.7,0.1s-0.3,0.2-0.4,0.5s-0.1,0.6-0.1,1h1.6v1.1h-1.6v6.7H87v-6.7H86.1z"/>
</g>
<g enable-background="new    ">
	<path fill="#CE009F" d="M94.5,63.5v-2c0-1,0.2-1.7,0.7-2.3c0.5-0.5,1.1-0.8,1.8-0.8c0.5,0,1,0.1,1.4,0.4c0.4,0.2,0.6,0.5,0.8,0.8
		v-1.1h1.2v7.9h-1.2v-1.1c-0.1,0.3-0.4,0.6-0.8,0.8s-0.8,0.4-1.4,0.4c-0.8,0-1.4-0.3-1.9-0.8C94.7,65.2,94.5,64.5,94.5,63.5z
		 M95.8,63.3c0,0.7,0.1,1.3,0.4,1.6c0.3,0.4,0.7,0.5,1.2,0.5c0.5,0,0.9-0.2,1.2-0.6s0.4-0.9,0.4-1.6v-1.7c0-0.7-0.1-1.2-0.4-1.6
		c-0.3-0.4-0.7-0.5-1.2-0.5c-0.5,0-1,0.2-1.2,0.5c-0.3,0.4-0.4,0.9-0.4,1.6V63.3z"/>
</g>
<g enable-background="new    ">
	<path fill="#CE009F" d="M102.3,66.4V55.9h1.3v10.5H102.3z"/>
</g>
<g enable-background="new    ">
	<path fill="#CE009F" d="M105.5,66.4V55.9h1.3v10.5H105.5z"/>
</g>
<g enable-background="new    ">
	<path fill="#CE009F" d="M111.7,63.5v-2c0-1,0.2-1.7,0.7-2.3c0.5-0.5,1.1-0.8,1.8-0.8c0.5,0,1,0.1,1.4,0.4c0.4,0.2,0.6,0.5,0.8,0.8
		v-1.1h1.2v7.9h-1.2v-1.1c-0.1,0.3-0.4,0.6-0.8,0.8s-0.8,0.4-1.4,0.4c-0.8,0-1.4-0.3-1.9-0.8C111.9,65.2,111.7,64.5,111.7,63.5z
		 M113,63.3c0,0.7,0.1,1.3,0.4,1.6c0.3,0.4,0.7,0.5,1.2,0.5c0.5,0,0.9-0.2,1.2-0.6s0.4-0.9,0.4-1.6v-1.7c0-0.7-0.1-1.2-0.4-1.6
		c-0.3-0.4-0.7-0.5-1.2-0.5c-0.5,0-1,0.2-1.2,0.5c-0.3,0.4-0.4,0.9-0.4,1.6V63.3z"/>
</g>
<g enable-background="new    ">
	<path fill="#CE009F" d="M119.4,63.5v-2c0-0.9,0.2-1.7,0.7-2.2c0.4-0.5,1-0.8,1.8-0.8c0.6,0,1.1,0.1,1.5,0.3
		c0.4,0.2,0.7,0.5,0.8,0.8v-1.1h1.2v7.9c0,0.5,0,0.9-0.1,1.3c-0.1,0.3-0.3,0.6-0.5,0.9c-0.2,0.3-0.5,0.4-0.9,0.6s-0.9,0.2-1.4,0.2
		c-0.4,0-0.7,0-1-0.1s-0.6-0.1-0.8-0.3c-0.2-0.1-0.4-0.2-0.5-0.4s-0.3-0.3-0.4-0.5s-0.1-0.4-0.2-0.5c0-0.2-0.1-0.4-0.1-0.6h1.3
		c0,0.4,0.1,0.7,0.4,0.9c0.3,0.3,0.7,0.4,1.2,0.4c0.6,0,1-0.1,1.2-0.4c0.3-0.3,0.4-0.7,0.4-1.2v-1.4c-0.1,0.3-0.4,0.6-0.7,0.8
		c-0.3,0.2-0.8,0.4-1.3,0.4c-0.8,0-1.4-0.3-1.9-0.8S119.4,64.5,119.4,63.5z M120.7,63.3c0,0.7,0.1,1.3,0.4,1.6
		c0.3,0.4,0.7,0.6,1.2,0.6c0.5,0,0.9-0.2,1.2-0.5c0.3-0.4,0.4-0.9,0.4-1.6v-2c0-0.6-0.1-1.1-0.4-1.4c-0.3-0.3-0.7-0.5-1.2-0.5
		c-0.5,0-1,0.2-1.2,0.5c-0.3,0.4-0.4,0.9-0.4,1.6V63.3z"/>
</g>
<g enable-background="new    ">
	<path fill="#CE009F" d="M127,63.5v-1.9c0-1,0.3-1.7,0.8-2.3s1.3-0.8,2.2-0.8s1.7,0.3,2.2,0.8s0.8,1.3,0.8,2.2v1.4h-4.6v0.9
		c0,0.5,0.2,1,0.5,1.3c0.3,0.3,0.7,0.5,1.2,0.5s0.9-0.1,1.2-0.4s0.5-0.6,0.5-1.1v-0.1h1.3v0.1c0,0.7-0.3,1.4-0.8,1.9
		c-0.5,0.5-1.3,0.8-2.2,0.8c-0.9,0-1.7-0.3-2.2-0.8C127.3,65.2,127,64.4,127,63.5z M128.3,61.9h3.3v-0.5c0-0.6-0.1-1.1-0.4-1.4
		c-0.3-0.3-0.7-0.5-1.2-0.5c-0.5,0-0.9,0.2-1.2,0.5c-0.3,0.3-0.4,0.7-0.4,1.3V61.9z"/>
</g>
<g enable-background="new    ">
	<path fill="#CE009F" d="M134.3,63.7h1.3c0,0.6,0.2,1,0.5,1.3c0.3,0.3,0.7,0.4,1.3,0.4c0.5,0,0.8-0.1,1.2-0.3
		c0.3-0.2,0.5-0.5,0.5-0.9c0-0.2-0.1-0.4-0.2-0.5c-0.1-0.1-0.3-0.3-0.5-0.3c-0.2-0.1-0.4-0.2-0.7-0.2c-0.3-0.1-0.5-0.1-0.8-0.2
		c-0.3-0.1-0.5-0.2-0.8-0.3s-0.5-0.3-0.7-0.4s-0.4-0.4-0.5-0.6s-0.2-0.6-0.2-0.9c0-0.7,0.2-1.2,0.7-1.6c0.5-0.4,1.2-0.6,2-0.6
		c1,0,1.7,0.2,2.2,0.7c0.5,0.5,0.7,1.1,0.7,2H139c0-0.6-0.1-1-0.4-1.3c-0.3-0.3-0.7-0.4-1.2-0.4c-0.5,0-0.9,0.1-1.1,0.3
		c-0.2,0.2-0.4,0.5-0.4,0.8c0,0.3,0.1,0.5,0.2,0.7s0.4,0.3,0.6,0.4c0.3,0.1,0.5,0.2,0.9,0.3s0.6,0.2,0.9,0.3
		c0.3,0.1,0.6,0.2,0.9,0.4c0.3,0.1,0.5,0.4,0.6,0.6c0.2,0.3,0.2,0.6,0.2,1c0,0.7-0.2,1.3-0.7,1.7c-0.5,0.4-1.2,0.6-2.2,0.6
		s-1.7-0.3-2.2-0.8C134.6,65.3,134.3,64.6,134.3,63.7z"/>
</g>
<g enable-background="new    ">
	<path fill="#CE009F" d="M145,61.8v-1.4h-2.5v-0.7l2.6-3.6h0.6v3.7h0.8v0.6h-0.8v1.4H145z M145,59.7v-2.6l-1.8,2.6H145z"/>
</g>
<g enable-background="new    ">
	<path fill="#CE009F" d="M149.5,56.4v1.5l1.5-0.5l0.3,0.8l-1.5,0.5l0.9,1.3l-0.7,0.5l-0.9-1.3l-0.9,1.3l-0.7-0.5l0.9-1.3l-1.5-0.5
		l0.3-0.8l1.5,0.5v-1.5H149.5z"/>
</g>
<g enable-background="new    ">
	<path fill="#CE009F" d="M247.1,22.4c0,0.8-0.2,1.5-0.4,2.1s-0.6,1.1-1,1.5s-0.9,0.7-1.4,0.9s-1.1,0.3-1.7,0.3s-1-0.1-1.5-0.2
		s-0.8-0.3-1.1-0.5s-0.6-0.4-0.8-0.7s-0.5-0.5-0.7-0.8s-0.4-0.5-0.6-0.8s-0.4-0.4-0.6-0.6s-0.4-0.3-0.7-0.4s-0.5-0.2-0.8-0.2
		c-0.4,0-0.7,0.1-1,0.3s-0.5,0.4-0.7,0.7s-0.3,0.6-0.4,1s-0.1,0.8-0.1,1.2c0,0.2-0.1,0.3-0.3,0.4s-0.5,0.1-0.9,0.1
		c-0.2,0-0.4,0-0.6,0s-0.3-0.1-0.4-0.1s-0.1-0.1-0.2-0.2s0-0.1,0-0.2v-0.5c0-0.8,0.1-1.5,0.3-2.1s0.5-1.1,0.9-1.5s0.9-0.7,1.4-0.9
		s1.2-0.3,1.8-0.3c0.6,0,1,0.1,1.5,0.2s0.8,0.3,1.1,0.5s0.6,0.4,0.8,0.7s0.5,0.5,0.7,0.8s0.4,0.5,0.6,0.8s0.4,0.4,0.6,0.6
		s0.4,0.3,0.7,0.4s0.5,0.2,0.9,0.2c0.4,0,0.7-0.1,1-0.2s0.5-0.4,0.7-0.6s0.3-0.6,0.4-1s0.1-0.8,0.1-1.2c0-0.2,0.1-0.3,0.3-0.4
		s0.5-0.1,0.9-0.1c0.2,0,0.4,0,0.6,0s0.3,0,0.4,0.1s0.2,0.1,0.2,0.2s0,0.2,0,0.3V22.4z"/>
</g>
<g enable-background="new    ">
	<path fill="#CE009F" d="M248.9,38.8V30l20-28.6h8.9V30h5.1v8.8h-5.1v9.8h-9v-9.8H248.9z M257.4,30h11.4V13.6L257.4,30z"/>
</g>
<g enable-background="new    ">
	<path fill="#CE009F" d="M284.5,48.7l12.9-24.2l-12.2-23h10l7.2,14.3l7.2-14.3h9.9l-12.2,23l12.9,24.2h-9.8l-8-15.7l-8,15.7H284.5z"
		/>
</g>
<g enable-background="new    ">
	<path fill="#FFFFFF" d="M324.7,13.9V1.6h1.7l3.4,8l3.4-8h1.7v12.3h-1.7V5.3l-2.8,6.4h-1.2l-2.8-6.4v8.5H324.7z"/>
	<path fill="#FFFFFF" d="M337.2,9.8V5.6c0-1.3,0.4-2.3,1.1-3.1c0.8-0.8,1.8-1.2,3-1.2c1.2,0,2.2,0.4,3,1.2c0.8,0.8,1.2,1.8,1.2,3.1
		v4.2c0,1.3-0.4,2.3-1.1,3.1c-0.8,0.8-1.7,1.2-3,1.2c-1.2,0-2.2-0.4-3-1.2C337.6,12.1,337.2,11.1,337.2,9.8z M338.9,9.8
		c0,0.8,0.2,1.5,0.7,1.9s1,0.7,1.7,0.7c0.7,0,1.2-0.2,1.7-0.7c0.5-0.4,0.7-1.1,0.7-1.9V5.6c0-0.8-0.2-1.5-0.7-1.9
		c-0.4-0.4-1-0.7-1.7-0.7c-0.7,0-1.2,0.2-1.7,0.7c-0.5,0.4-0.7,1.1-0.7,1.9V9.8z"/>
	<path fill="#FFFFFF" d="M347.7,13.9V1.6h3.7c1.3,0,2.3,0.4,3,1.1c0.7,0.8,1.1,1.8,1.1,3.2v0.4c0,1-0.2,1.8-0.7,2.5s-1.1,1.1-2,1.3
		l2.6,3.9h-2l-2.3-3.6h-1.8v3.6H347.7z M349.4,8.7h1.8c0.8,0,1.4-0.2,1.9-0.6s0.7-1,0.7-1.9V5.8c0-1.7-0.9-2.6-2.6-2.6h-1.8V8.7z"/>
	<path fill="#FFFFFF" d="M357.6,13.9V1.6h6.9v1.7h-5.1v3.7h3.8v1.5h-3.8v3.8h5.1v1.7H357.6z"/>
</g>
<g enable-background="new    ">
	<path fill="#FFFFFF" d="M324.7,30.9V18.6h6.6v1.7h-4.9V24h3.5v1.5h-3.5v5.4H324.7z"/>
	<path fill="#FFFFFF" d="M333.3,30.9V18.6h3.7c1.3,0,2.3,0.4,3,1.1c0.7,0.8,1.1,1.8,1.1,3.2v0.4c0,1-0.2,1.8-0.7,2.5s-1.1,1.1-2,1.3
		l2.6,3.9h-2l-2.3-3.6H335v3.6H333.3z M335,25.8h1.8c0.8,0,1.4-0.2,1.9-0.6s0.7-1,0.7-1.9v-0.4c0-1.7-0.9-2.6-2.6-2.6H335V25.8z"/>
</g>
<g enable-background="new    ">
	<path fill="#FFFFFF" d="M342.7,30.9V18.6h6.9v1.7h-5.1V24h3.8v1.5h-3.8v3.8h5.1v1.7H342.7z"/>
</g>
<g enable-background="new    ">
	<path fill="#FFFFFF" d="M350.7,26.9v-4.2c0-1.3,0.4-2.3,1.1-3.1s1.8-1.2,3-1.2c1.2,0,2.2,0.4,3,1.2c0.8,0.8,1.1,1.8,1.1,3.1v4.2
		c0,1.1-0.3,2-0.8,2.7c-0.5,0.7-1.3,1.2-2.2,1.4l1.3,2.3h-2l-1.1-2.3c-1-0.1-1.8-0.6-2.4-1.3C351.1,28.9,350.7,28,350.7,26.9z
		 M352.5,26.9c0,0.8,0.2,1.5,0.7,1.9s1,0.7,1.7,0.7c0.7,0,1.2-0.2,1.7-0.6c0.5-0.4,0.7-1.1,0.7-1.9v-4.3c0-0.8-0.2-1.5-0.7-1.9
		s-1-0.7-1.7-0.7c-0.7,0-1.2,0.2-1.7,0.6c-0.5,0.4-0.7,1.1-0.7,1.9V26.9z"/>
</g>
<g enable-background="new    ">
	<path fill="#FFFFFF" d="M360.8,26.8v-8.2h1.7v8.3c0,0.4,0.1,0.8,0.2,1.2c0.1,0.3,0.3,0.6,0.5,0.8c0.2,0.2,0.5,0.4,0.8,0.5
		s0.6,0.2,0.9,0.2c0.7,0,1.3-0.2,1.7-0.7s0.7-1.1,0.7-1.9v-8.3h1.7v8.2c0,1.3-0.4,2.3-1.2,3.1c-0.8,0.8-1.8,1.2-3,1.2
		c-1.2,0-2.2-0.4-3-1.2C361.2,29.1,360.8,28.1,360.8,26.8z"/>
	<path fill="#FFFFFF" d="M371.5,30.9V18.6h6.9v1.7h-5.1V24h3.8v1.5h-3.8v3.8h5.1v1.7H371.5z"/>
</g>
<g enable-background="new    ">
	<path fill="#FFFFFF" d="M380.1,30.9V18.6h1.6l5,8.9v-8.9h1.7v12.3h-1.6l-5-8.9v8.9H380.1z"/>
	<path fill="#FFFFFF" d="M390.2,20.3v-1.7h7.7v1.7h-3v10.7h-1.7V20.3H390.2z"/>
</g>
<g enable-background="new    ">
	<path fill="#FFFFFF" d="M323.9,37.3v-1.7h7.7v1.7h-3V48h-1.7V37.3H323.9z"/>
</g>
<g enable-background="new    ">
	<path fill="#FFFFFF" d="M333.2,48V35.7h1.7v5.4h4.5v-5.4h1.7V48h-1.7v-5.4h-4.5V48H333.2z"/>
</g>
<g enable-background="new    ">
	<path fill="#FFFFFF" d="M342.4,48l4-12.3h1.9l3.9,12.3h-1.8l-0.8-2.8H345l-0.8,2.8H342.4z M345.5,43.7h3.7l-1.8-6.2L345.5,43.7z"/>
</g>
<g enable-background="new    ">
	<path fill="#FFFFFF" d="M353.5,48V35.7h1.6l5,8.9v-8.9h1.7V48h-1.6l-5-8.9V48H353.5z"/>
</g>
<g enable-background="new    ">
	<path fill="#FFFFFF" d="M368,48V35.7h1.7l3.4,8l3.4-8h1.7V48h-1.7v-8.6l-2.8,6.4h-1.2l-2.8-6.4V48H368z"/>
</g>
<g enable-background="new    ">
	<path fill="#FFFFFF" d="M380.4,48V35.7h1.7V48H380.4z"/>
</g>
<g enable-background="new    ">
	<path fill="#CE009F" d="M249.7,57.2c-0.2-0.2-0.2-0.4-0.2-0.6s0.1-0.4,0.2-0.6c0.2-0.2,0.4-0.2,0.6-0.2s0.4,0.1,0.6,0.2
		s0.2,0.4,0.2,0.6s-0.1,0.4-0.2,0.6s-0.4,0.2-0.6,0.2S249.9,57.3,249.7,57.2z M249.7,66.4v-7.9h1.3v7.9H249.7z"/>
</g>
<g enable-background="new    ">
	<path fill="#CE009F" d="M252.8,66.4v-7.9h1.2v1.1c0.1-0.3,0.4-0.6,0.8-0.8c0.4-0.2,0.8-0.4,1.4-0.4c0.8,0,1.4,0.3,1.9,0.8
		c0.5,0.5,0.7,1.3,0.7,2.3v4.9h-1.3v-4.8c0-0.7-0.1-1.2-0.4-1.6s-0.7-0.5-1.3-0.5c-0.6,0-1,0.2-1.3,0.5s-0.4,0.9-0.4,1.7v4.7H252.8z
		"/>
</g>
<g enable-background="new    ">
	<path fill="#CE009F" d="M263.1,58.6h1.4l1.5,5.8l1.5-5.8h1.1l1.5,5.8l1.5-5.8h1.4l-2.2,7.9h-1.3l-1.5-5.7l-1.5,5.7h-1.2L263.1,58.6
		z"/>
</g>
<g enable-background="new    ">
	<path fill="#CE009F" d="M274.1,63.4v-1.9c0-0.9,0.3-1.7,0.8-2.3s1.3-0.8,2.2-0.8c0.9,0,1.6,0.3,2.2,0.8c0.5,0.6,0.8,1.3,0.8,2.3
		v1.9c0,1-0.3,1.7-0.8,2.3c-0.5,0.6-1.2,0.8-2.2,0.8c-0.9,0-1.7-0.3-2.2-0.8S274.1,64.4,274.1,63.4z M275.4,63.6
		c0,0.6,0.1,1,0.4,1.3c0.3,0.3,0.7,0.5,1.2,0.5c0.5,0,0.9-0.2,1.2-0.5s0.5-0.7,0.5-1.3v-2.2c0-0.6-0.1-1-0.4-1.3s-0.7-0.5-1.2-0.5
		c-0.5,0-0.9,0.2-1.2,0.5s-0.5,0.7-0.5,1.3V63.6z"/>
</g>
<g enable-background="new    ">
	<path fill="#CE009F" d="M281.7,66.4v-7.9h1.2v0.9c0.1-0.3,0.3-0.5,0.6-0.7s0.7-0.3,1.2-0.3c0.4,0,0.8,0.1,1.2,0.3
		c0.3,0.2,0.6,0.5,0.8,0.9c0.1-0.4,0.4-0.6,0.8-0.9c0.4-0.2,0.8-0.4,1.3-0.4c0.7,0,1.2,0.2,1.6,0.7s0.5,1.2,0.5,2.1v5.2h-1.3V61
		c0-0.5-0.1-0.9-0.3-1.1c-0.2-0.3-0.6-0.4-1-0.4c-0.4,0-0.8,0.1-1,0.4c-0.2,0.3-0.3,0.6-0.3,1.1v5.5h-1.3V61c0-0.5-0.1-0.9-0.3-1.1
		c-0.2-0.3-0.6-0.4-1-0.4c-0.4,0-0.8,0.1-1,0.4c-0.2,0.2-0.3,0.6-0.3,1.1v5.5H281.7z"/>
</g>
<g enable-background="new    ">
	<path fill="#CE009F" d="M292.5,63.5v-1.9c0-1,0.3-1.7,0.8-2.3s1.3-0.8,2.2-0.8s1.7,0.3,2.2,0.8s0.8,1.3,0.8,2.2v1.4h-4.6v0.9
		c0,0.5,0.2,1,0.5,1.3c0.3,0.3,0.7,0.5,1.2,0.5s0.9-0.1,1.2-0.4s0.5-0.6,0.5-1.1v-0.1h1.3v0.1c0,0.7-0.3,1.4-0.8,1.9
		c-0.5,0.5-1.3,0.8-2.2,0.8c-0.9,0-1.7-0.3-2.2-0.8C292.8,65.2,292.5,64.4,292.5,63.5z M293.8,61.9h3.3v-0.5c0-0.6-0.1-1.1-0.4-1.4
		c-0.3-0.3-0.7-0.5-1.2-0.5c-0.5,0-0.9,0.2-1.2,0.5c-0.3,0.3-0.4,0.7-0.4,1.3V61.9z"/>
</g>
<g enable-background="new    ">
	<path fill="#CE009F" d="M300.1,66.4v-7.9h1.2v1.1c0.1-0.3,0.4-0.6,0.8-0.8c0.4-0.2,0.8-0.4,1.4-0.4c0.8,0,1.4,0.3,1.9,0.8
		c0.5,0.5,0.7,1.3,0.7,2.3v4.9h-1.3v-4.8c0-0.7-0.1-1.2-0.4-1.6s-0.7-0.5-1.3-0.5c-0.6,0-1,0.2-1.3,0.5s-0.4,0.9-0.4,1.7v4.7H300.1z
		"/>
</g>
<g enable-background="new    ">
	<path fill="#CE009F" d="M310.9,63.4v-1.9c0-0.9,0.3-1.7,0.8-2.3s1.3-0.8,2.2-0.8c0.9,0,1.6,0.3,2.2,0.8c0.5,0.6,0.8,1.3,0.8,2.3
		v1.9c0,1-0.3,1.7-0.8,2.3c-0.5,0.6-1.2,0.8-2.2,0.8c-0.9,0-1.7-0.3-2.2-0.8S310.9,64.4,310.9,63.4z M312.2,63.6
		c0,0.6,0.1,1,0.4,1.3c0.3,0.3,0.7,0.5,1.2,0.5c0.5,0,0.9-0.2,1.2-0.5s0.5-0.7,0.5-1.3v-2.2c0-0.6-0.1-1-0.4-1.3s-0.7-0.5-1.2-0.5
		c-0.5,0-0.9,0.2-1.2,0.5s-0.5,0.7-0.5,1.3V63.6z"/>
	<path fill="#CE009F" d="M318.4,66.4V55.9h1.3v10.5H318.4z"/>
</g>
<g enable-background="new    ">
	<path fill="#CE009F" d="M321.5,63.5v-2c0-1,0.2-1.7,0.7-2.3c0.5-0.5,1.1-0.8,1.9-0.8c0.5,0,1,0.1,1.3,0.3c0.3,0.2,0.6,0.5,0.7,0.8
		v-3.6h1.4v10.5h-1.2v-1.1c-0.1,0.2-0.2,0.3-0.3,0.4c-0.1,0.1-0.2,0.3-0.4,0.4s-0.4,0.2-0.6,0.3c-0.2,0.1-0.5,0.1-0.8,0.1
		c-0.8,0-1.4-0.3-1.9-0.8C321.7,65.2,321.5,64.5,321.5,63.5z M322.8,63.3c0,0.7,0.1,1.2,0.4,1.6c0.3,0.4,0.7,0.6,1.2,0.6
		c0.5,0,0.9-0.2,1.2-0.6c0.3-0.4,0.4-0.9,0.4-1.6v-1.7c0-0.7-0.1-1.2-0.4-1.5s-0.7-0.5-1.2-0.5c-0.5,0-1,0.2-1.2,0.6
		c-0.3,0.4-0.4,0.9-0.4,1.6V63.3z"/>
</g>
<g enable-background="new    ">
	<path fill="#CE009F" d="M329.2,63.5v-1.9c0-1,0.3-1.7,0.8-2.3s1.3-0.8,2.2-0.8s1.7,0.3,2.2,0.8s0.8,1.3,0.8,2.2v1.4h-4.6v0.9
		c0,0.5,0.2,1,0.5,1.3c0.3,0.3,0.7,0.5,1.2,0.5s0.9-0.1,1.2-0.4s0.5-0.6,0.5-1.1v-0.1h1.3v0.1c0,0.7-0.3,1.4-0.8,1.9
		c-0.5,0.5-1.3,0.8-2.2,0.8c-0.9,0-1.7-0.3-2.2-0.8C329.5,65.2,329.2,64.4,329.2,63.5z M330.5,61.9h3.3v-0.5c0-0.6-0.1-1.1-0.4-1.4
		c-0.3-0.3-0.7-0.5-1.2-0.5c-0.5,0-0.9,0.2-1.2,0.5c-0.3,0.3-0.4,0.7-0.4,1.3V61.9z"/>
</g>
<g enable-background="new    ">
	<path fill="#CE009F" d="M336.7,66.4v-7.9h1.2V60c0.1-0.4,0.3-0.7,0.7-1.1c0.4-0.3,0.8-0.5,1.3-0.5h0.2v1.3h-0.2
		c-0.7,0-1.2,0.2-1.5,0.5s-0.5,0.9-0.5,1.6v4.5H336.7z"/>
</g>
<g enable-background="new    ">
	<path fill="#CE009F" d="M344.4,58.7c0.5,0,0.8-0.1,1-0.4c0.2-0.3,0.3-0.7,0.3-1.3h0.8v1.6h1.7v1.1h-1.7v3.6c0,0.2,0,0.4,0,0.5
		c0,0.1,0,0.3,0,0.4s0,0.3,0,0.3s0,0.2,0.1,0.3s0.1,0.2,0.1,0.2c0,0,0.1,0.1,0.2,0.1s0.1,0.1,0.2,0.1c0.1,0,0.2,0,0.3,0s0.2,0,0.4,0
		s0.3,0,0.5,0v1.2c-0.3,0-0.5,0-0.7,0c-0.4,0-0.7,0-1-0.1c-0.3-0.1-0.5-0.2-0.7-0.4c-0.2-0.2-0.3-0.4-0.4-0.6
		c-0.1-0.3-0.2-0.5-0.2-0.8s-0.1-0.6-0.1-1v-3.8h-0.8L344.4,58.7z"/>
</g>
<g enable-background="new    ">
	<path fill="#CE009F" d="M349.9,66.4V55.9h1.3v3.8c0.1-0.4,0.4-0.7,0.8-0.9s0.8-0.3,1.3-0.3c0.7,0,1.3,0.2,1.8,0.7
		c0.5,0.5,0.7,1.2,0.7,2.2v5.1h-1.3v-4.8c0-0.7-0.1-1.2-0.4-1.6s-0.7-0.5-1.3-0.5c-0.6,0-1.1,0.2-1.3,0.5c-0.2,0.3-0.4,0.9-0.4,1.7
		v4.7H349.9z"/>
</g>
<g enable-background="new    ">
	<path fill="#CE009F" d="M357.5,63.5v-2c0-1,0.2-1.7,0.7-2.3c0.5-0.5,1.1-0.8,1.8-0.8c0.5,0,1,0.1,1.4,0.4c0.4,0.2,0.6,0.5,0.8,0.8
		v-1.1h1.2v7.9h-1.2v-1.1c-0.1,0.3-0.4,0.6-0.8,0.8s-0.8,0.4-1.4,0.4c-0.8,0-1.4-0.3-1.9-0.8C357.7,65.2,357.5,64.5,357.5,63.5z
		 M358.8,63.3c0,0.7,0.1,1.3,0.4,1.6c0.3,0.4,0.7,0.5,1.2,0.5c0.5,0,0.9-0.2,1.2-0.6s0.4-0.9,0.4-1.6v-1.7c0-0.7-0.1-1.2-0.4-1.6
		c-0.3-0.4-0.7-0.5-1.2-0.5c-0.5,0-1,0.2-1.2,0.5c-0.3,0.4-0.4,0.9-0.4,1.6V63.3z"/>
</g>
<g enable-background="new    ">
	<path fill="#CE009F" d="M365.3,66.4v-7.9h1.2v1.1c0.1-0.3,0.4-0.6,0.8-0.8c0.4-0.2,0.8-0.4,1.4-0.4c0.8,0,1.4,0.3,1.9,0.8
		c0.5,0.5,0.7,1.3,0.7,2.3v4.9h-1.3v-4.8c0-0.7-0.1-1.2-0.4-1.6s-0.7-0.5-1.3-0.5c-0.6,0-1,0.2-1.3,0.5s-0.4,0.9-0.4,1.7v4.7H365.3z
		"/>
</g>
<g enable-background="new    ">
	<path fill="#CE009F" d="M375.9,63.1h1.4c0,0.7,0.2,1.3,0.5,1.6s0.8,0.5,1.4,0.5c0.6,0,1-0.2,1.4-0.5s0.6-0.7,0.6-1.3
		c0-0.5-0.2-0.9-0.5-1.2s-0.8-0.4-1.3-0.4h-1.3v-1.2h1.3c0.5,0,0.9-0.1,1.2-0.4s0.5-0.7,0.5-1.1c0-0.6-0.2-1-0.5-1.3
		c-0.4-0.3-0.8-0.4-1.4-0.4c-0.6,0-1,0.2-1.4,0.5c-0.3,0.3-0.5,0.9-0.5,1.6H376c0-1,0.3-1.8,0.9-2.4s1.4-0.9,2.4-0.9
		c0.9,0,1.7,0.3,2.3,0.8s0.9,1.2,0.9,2c0,0.5-0.1,1-0.4,1.4c-0.3,0.4-0.6,0.7-1.1,0.8c0.5,0.1,0.8,0.4,1.1,0.7
		c0.3,0.4,0.5,0.8,0.5,1.4c0,0.9-0.3,1.7-0.9,2.2c-0.6,0.6-1.4,0.8-2.4,0.8s-1.8-0.3-2.4-0.9S375.9,64.2,375.9,63.1z"/>
</g>
<g enable-background="new    ">
	<path fill="#CE009F" d="M384.2,63.2h1.4c0,0.7,0.2,1.2,0.5,1.6c0.3,0.3,0.8,0.5,1.4,0.5c0.3,0,0.5,0,0.7-0.1
		c0.2-0.1,0.4-0.2,0.6-0.4c0.2-0.2,0.3-0.4,0.4-0.6c0.1-0.3,0.2-0.6,0.2-0.9v-0.4c0-0.6-0.2-1-0.6-1.3c-0.4-0.3-0.8-0.5-1.4-0.5
		c-0.8,0-1.4,0.3-1.8,1l-1.3-0.3l0.9-5.2h5v1.3h-3.8l-0.5,2.6c0.2-0.2,0.4-0.4,0.8-0.6c0.4-0.2,0.7-0.2,1.1-0.2
		c0.9,0,1.6,0.3,2.1,0.8c0.5,0.5,0.8,1.3,0.8,2.3v0.4c0,1-0.3,1.8-0.9,2.4s-1.4,0.9-2.4,0.9c-1,0-1.8-0.3-2.4-1
		C384.5,65,384.2,64.2,384.2,63.2z"/>
</g>
<g enable-background="new    ">
	<path fill="#CE009F" d="M395.2,58.6h1.5l1.9,6.1l1.9-6.1h1.4l-3.6,10.5H397l0.9-2.7L395.2,58.6z"/>
</g>
<g enable-background="new    ">
	<path fill="#CE009F" d="M402.9,63.5v-1.9c0-1,0.3-1.7,0.8-2.3s1.3-0.8,2.2-0.8s1.7,0.3,2.2,0.8s0.8,1.3,0.8,2.2v1.4h-4.6v0.9
		c0,0.5,0.2,1,0.5,1.3c0.3,0.3,0.7,0.5,1.2,0.5s0.9-0.1,1.2-0.4s0.5-0.6,0.5-1.1v-0.1h1.3v0.1c0,0.7-0.3,1.4-0.8,1.9
		c-0.5,0.5-1.3,0.8-2.2,0.8c-0.9,0-1.7-0.3-2.2-0.8C403.2,65.2,402.9,64.4,402.9,63.5z M404.2,61.9h3.3v-0.5c0-0.6-0.1-1.1-0.4-1.4
		c-0.3-0.3-0.7-0.5-1.2-0.5c-0.5,0-0.9,0.2-1.2,0.5c-0.3,0.3-0.4,0.7-0.4,1.3V61.9z"/>
</g>
<g enable-background="new    ">
	<path fill="#CE009F" d="M410.3,63.5v-2c0-1,0.2-1.7,0.7-2.3c0.5-0.5,1.1-0.8,1.8-0.8c0.5,0,1,0.1,1.4,0.4c0.4,0.2,0.6,0.5,0.8,0.8
		v-1.1h1.2v7.9H415v-1.1c-0.1,0.3-0.4,0.6-0.8,0.8s-0.8,0.4-1.4,0.4c-0.8,0-1.4-0.3-1.9-0.8C410.5,65.2,410.3,64.5,410.3,63.5z
		 M411.6,63.3c0,0.7,0.1,1.3,0.4,1.6c0.3,0.4,0.7,0.5,1.2,0.5c0.5,0,0.9-0.2,1.2-0.6s0.4-0.9,0.4-1.6v-1.7c0-0.7-0.1-1.2-0.4-1.6
		c-0.3-0.4-0.7-0.5-1.2-0.5c-0.5,0-1,0.2-1.2,0.5c-0.3,0.4-0.4,0.9-0.4,1.6V63.3z"/>
</g>
<g enable-background="new    ">
	<path fill="#CE009F" d="M418.1,66.4v-7.9h1.2V60c0.1-0.4,0.3-0.7,0.7-1.1c0.4-0.3,0.8-0.5,1.3-0.5h0.2v1.3h-0.2
		c-0.7,0-1.2,0.2-1.5,0.5s-0.5,0.9-0.5,1.6v4.5H418.1z"/>
</g>
<g enable-background="new    ">
	<path fill="#CE009F" d="M422.8,63.7h1.3c0,0.6,0.2,1,0.5,1.3c0.3,0.3,0.7,0.4,1.3,0.4c0.5,0,0.8-0.1,1.2-0.3
		c0.3-0.2,0.5-0.5,0.5-0.9c0-0.2-0.1-0.4-0.2-0.5c-0.1-0.1-0.3-0.3-0.5-0.3c-0.2-0.1-0.4-0.2-0.7-0.2c-0.3-0.1-0.5-0.1-0.8-0.2
		c-0.3-0.1-0.5-0.2-0.8-0.3s-0.5-0.3-0.7-0.4s-0.4-0.4-0.5-0.6s-0.2-0.6-0.2-0.9c0-0.7,0.2-1.2,0.7-1.6c0.5-0.4,1.2-0.6,2-0.6
		c1,0,1.7,0.2,2.2,0.7c0.5,0.5,0.7,1.1,0.7,2h-1.2c0-0.6-0.1-1-0.4-1.3c-0.3-0.3-0.7-0.4-1.2-0.4c-0.5,0-0.9,0.1-1.1,0.3
		c-0.2,0.2-0.4,0.5-0.4,0.8c0,0.3,0.1,0.5,0.2,0.7s0.4,0.3,0.6,0.4c0.3,0.1,0.5,0.2,0.9,0.3s0.6,0.2,0.9,0.3
		c0.3,0.1,0.6,0.2,0.9,0.4c0.3,0.1,0.5,0.4,0.6,0.6c0.2,0.3,0.2,0.6,0.2,1c0,0.7-0.2,1.3-0.7,1.7c-0.5,0.4-1.2,0.6-2.2,0.6
		s-1.7-0.3-2.2-0.8C423.1,65.3,422.8,64.6,422.8,63.7z"/>
</g>
<g enable-background="new    ">
	<path fill="#CE009F" d="M433.5,61.8v-1.4H431v-0.7l2.6-3.6h0.6v3.7h0.8v0.6h-0.8v1.4H433.5z M433.5,59.7v-2.6l-1.8,2.6H433.5z"/>
</g>
<g enable-background="new    ">
	<path fill="#CE009F" d="M438,56.4v1.5l1.5-0.5l0.3,0.8l-1.5,0.5l0.9,1.3l-0.7,0.5l-0.9-1.3l-0.9,1.3l-0.7-0.5l0.9-1.3l-1.5-0.5
		l0.3-0.8l1.5,0.5v-1.5H438z"/>
</g>
<g enable-background="new    ">
	<path fill="#FFFFFF" d="M564,13.9V1.6h1.7l3.4,8l3.4-8h1.7v12.3h-1.7V5.3l-2.8,6.4h-1.2l-2.8-6.4v8.5H564z"/>
</g>
<g enable-background="new    ">
	<path fill="#FFFFFF" d="M576.3,9.8V5.6c0-1.3,0.4-2.3,1.1-3.1c0.8-0.8,1.8-1.2,3-1.2c1.2,0,2.2,0.4,3,1.2c0.8,0.8,1.2,1.8,1.2,3.1
		v4.2c0,1.3-0.4,2.3-1.1,3.1c-0.8,0.8-1.8,1.2-3,1.2c-1.2,0-2.2-0.4-3-1.2C576.6,12.1,576.3,11.1,576.3,9.8z M578,9.8
		c0,0.8,0.2,1.5,0.7,1.9s1,0.7,1.7,0.7c0.7,0,1.2-0.2,1.7-0.7s0.7-1.1,0.7-1.9V5.6c0-0.8-0.2-1.5-0.7-1.9c-0.4-0.4-1-0.7-1.7-0.7
		c-0.7,0-1.2,0.2-1.7,0.7c-0.5,0.4-0.7,1.1-0.7,1.9V9.8z"/>
</g>
<g enable-background="new    ">
	<path fill="#FFFFFF" d="M586.5,13.9V1.6h3.7c1.3,0,2.3,0.4,3,1.1c0.7,0.8,1.1,1.8,1.1,3.2v0.4c0,1-0.2,1.8-0.7,2.5
		c-0.5,0.6-1.1,1.1-2,1.3l2.6,3.9h-2l-2.3-3.6h-1.8v3.6H586.5z M588.2,8.7h1.8c0.8,0,1.4-0.2,1.9-0.6s0.7-1,0.7-1.9V5.8
		c0-1.7-0.9-2.6-2.6-2.6h-1.8V8.7z"/>
	<path fill="#FFFFFF" d="M596.4,13.9V1.6h6.9v1.7h-5.1v3.7h3.8v1.5h-3.8v3.8h5.1v1.7H596.4z"/>
	<path fill="#FFFFFF" d="M609.3,13.9V1.6h6.6v1.7H611v3.7h3.5v1.5H611v5.4H609.3z"/>
	<path fill="#FFFFFF" d="M617.9,13.9V1.6h3.7c1.3,0,2.3,0.4,3,1.1c0.7,0.8,1.1,1.8,1.1,3.2v0.4c0,1-0.2,1.8-0.7,2.5
		c-0.5,0.6-1.1,1.1-2,1.3l2.6,3.9h-2l-2.3-3.6h-1.8v3.6H617.9z M619.6,8.7h1.8c0.8,0,1.4-0.2,1.9-0.6s0.7-1,0.7-1.9V5.8
		c0-1.7-0.9-2.6-2.6-2.6h-1.8V8.7z"/>
</g>
<g enable-background="new    ">
	<path fill="#FFFFFF" d="M626.5,13.9V1.6h6.9v1.7h-5.1v3.7h3.8v1.5h-3.8v3.8h5.1v1.7H626.5z"/>
</g>
<g enable-background="new    ">
	<path fill="#FFFFFF" d="M634.7,9.8V5.6c0-1.3,0.4-2.3,1.1-3.1c0.8-0.8,1.8-1.2,3-1.2c1.2,0,2.2,0.4,3,1.2c0.8,0.8,1.1,1.8,1.1,3.1
		v4.2c0,1.1-0.3,2-0.8,2.7c-0.5,0.7-1.3,1.2-2.2,1.4l1.3,2.3h-2L638,14c-1-0.1-1.8-0.6-2.4-1.3C635,11.9,634.7,11,634.7,9.8z
		 M636.4,9.8c0,0.8,0.2,1.5,0.7,1.9s1,0.7,1.7,0.7c0.7,0,1.2-0.2,1.7-0.6c0.5-0.4,0.7-1.1,0.7-1.9V5.6c0-0.8-0.2-1.5-0.7-1.9
		s-1-0.7-1.7-0.7c-0.7,0-1.2,0.2-1.7,0.6c-0.5,0.4-0.7,1.1-0.7,1.9V9.8z"/>
	<path fill="#FFFFFF" d="M645,9.8V1.6h1.7v8.3c0,0.4,0.1,0.8,0.2,1.2c0.1,0.3,0.3,0.6,0.5,0.8c0.2,0.2,0.5,0.4,0.8,0.5
		c0.3,0.1,0.6,0.2,0.9,0.2c0.7,0,1.3-0.2,1.7-0.7c0.5-0.4,0.7-1.1,0.7-1.9V1.6h1.7v8.2c0,1.3-0.4,2.3-1.2,3.1
		c-0.8,0.8-1.8,1.2-3,1.2c-1.2,0-2.2-0.4-3-1.2C645.4,12.1,645,11.1,645,9.8z"/>
	<path fill="#FFFFFF" d="M655.7,13.9V1.6h6.9v1.7h-5.1v3.7h3.8v1.5h-3.8v3.8h5.1v1.7H655.7z"/>
</g>
<g enable-background="new    ">
	<path fill="#FFFFFF" d="M663.9,13.9V1.6h1.6l5,8.9V1.6h1.7v12.3h-1.6l-5-8.9v8.9H663.9z"/>
</g>
<g enable-background="new    ">
	<path fill="#FFFFFF" d="M673.8,3.2V1.6h7.7v1.7h-3v10.7h-1.7V3.2H673.8z"/>
</g>
<g enable-background="new    ">
	<path fill="#FFFFFF" d="M686.2,3.2V1.6h7.7v1.7h-3v10.7h-1.7V3.2H686.2z"/>
</g>
<g enable-background="new    ">
	<path fill="#FFFFFF" d="M695.1,13.9V1.6h1.7V7h4.5V1.6h1.7v12.3h-1.7V8.5h-4.5v5.4H695.1z"/>
</g>
<g enable-background="new    ">
	<path fill="#FFFFFF" d="M704.4,13.9l4-12.3h1.9l3.9,12.3h-1.8l-0.8-2.8H707l-0.8,2.8H704.4z M707.5,9.6h3.7l-1.8-6.2L707.5,9.6z"/>
</g>
<g enable-background="new    ">
	<path fill="#FFFFFF" d="M715.5,13.9V1.6h1.6l5,8.9V1.6h1.7v12.3h-1.6l-5-8.9v8.9H715.5z"/>
</g>
<g enable-background="new    ">
	<path fill="#FFFFFF" d="M564,30.9V18.6h6.9v1.7h-5.1V24h3.8v1.5h-3.8v3.8h5.1v1.7H564z"/>
	<path fill="#FFFFFF" d="M572.2,26.9h1.7c0,0.9,0.2,1.6,0.7,2s1,0.7,1.8,0.7c0.7,0,1.3-0.2,1.7-0.5c0.4-0.3,0.7-0.8,0.7-1.4
		c0-0.3-0.1-0.6-0.2-0.8s-0.3-0.4-0.6-0.6c-0.2-0.1-0.5-0.3-0.8-0.4c-0.3-0.1-0.6-0.2-1-0.3c-0.4-0.1-0.7-0.2-1.1-0.3
		c-0.4-0.1-0.7-0.3-1-0.4c-0.3-0.2-0.6-0.4-0.8-0.6c-0.2-0.2-0.4-0.5-0.6-0.9s-0.2-0.8-0.2-1.3c0-1.1,0.3-2,1-2.6
		c0.7-0.6,1.6-0.9,2.9-0.9c1.3,0,2.3,0.4,3.1,1.1c0.7,0.7,1.1,1.8,1.1,3.1h-1.8c0-0.8-0.2-1.5-0.6-1.9c-0.4-0.4-1-0.7-1.7-0.7
		c-0.7,0-1.2,0.2-1.6,0.5c-0.4,0.3-0.6,0.8-0.6,1.4c0,0.3,0.1,0.6,0.2,0.8c0.1,0.2,0.3,0.4,0.6,0.6c0.2,0.1,0.5,0.3,0.8,0.4
		s0.7,0.2,1,0.3s0.7,0.2,1.1,0.3c0.4,0.1,0.7,0.3,1,0.4s0.6,0.4,0.8,0.6s0.4,0.5,0.6,0.9c0.1,0.4,0.2,0.8,0.2,1.3
		c0,1.1-0.4,2-1.1,2.7c-0.7,0.6-1.7,0.9-3,0.9c-1.3,0-2.3-0.4-3-1.1S572.2,28.2,572.2,26.9z"/>
</g>
<g enable-background="new    ">
	<path fill="#FFFFFF" d="M581,20.3v-1.7h7.7v1.7h-3v10.7H584V20.3H581z"/>
</g>
<g enable-background="new    ">
	<path fill="#FFFFFF" d="M590.2,30.9V18.6h1.7v12.3H590.2z"/>
	<path fill="#FFFFFF" d="M594.5,30.9V18.6h1.7l3.4,8l3.4-8h1.7v12.3h-1.7v-8.6l-2.8,6.4H599l-2.8-6.4v8.5H594.5z"/>
</g>
<g enable-background="new    ">
	<path fill="#FFFFFF" d="M605.8,30.9l4-12.3h1.9l3.9,12.3h-1.8l-0.8-2.8h-4.6l-0.8,2.8H605.8z M608.9,26.7h3.7l-1.8-6.2L608.9,26.7z
		"/>
</g>
<g enable-background="new    ">
	<path fill="#FFFFFF" d="M615.2,20.3v-1.7h7.7v1.7h-3v10.7h-1.7V20.3H615.2z"/>
</g>
<g enable-background="new    ">
	<path fill="#FFFFFF" d="M624.5,30.9V18.6h6.9v1.7h-5.1V24h3.8v1.5h-3.8v3.8h5.1v1.7H624.5z"/>
	<path fill="#FFFFFF" d="M633.6,30.9V18.6h3.9c1.3,0,2.3,0.4,3,1.2c0.8,0.8,1.1,1.9,1.1,3.4v3.2c0,1.5-0.4,2.6-1.1,3.4
		s-1.8,1.2-3,1.2H633.6z M635.3,29.3h2.1c0.4,0,0.7-0.1,1-0.2c0.3-0.1,0.6-0.3,0.8-0.5c0.2-0.2,0.4-0.6,0.6-1c0.1-0.4,0.2-1,0.2-1.6
		v-2.4c0-0.6-0.1-1.1-0.2-1.6c-0.1-0.4-0.3-0.8-0.6-1c-0.2-0.2-0.5-0.4-0.8-0.5c-0.3-0.1-0.7-0.2-1-0.2h-2.1V29.3z"/>
</g>
<g enable-background="new    ">
	<path fill="#FFFFFF" d="M647,30.9V18.6h1.6l5,8.9v-8.9h1.7v12.3h-1.6l-5-8.9v8.9H647z"/>
	<path fill="#FFFFFF" d="M657.9,30.9V18.6h6.9v1.7h-5.1V24h3.8v1.5h-3.8v3.8h5.1v1.7H657.9z"/>
</g>
<g enable-background="new    ">
	<path fill="#FFFFFF" d="M665.4,18.6h1.7l2.3,9.2l2.2-9.2h1.5l2.2,9.2l2.3-9.2h1.7l-3.1,12.3h-1.7l-2.1-9.1l-2.2,9.1h-1.7
		L665.4,18.6z"/>
</g>
<g enable-background="new    ">
	<path fill="#FFFFFF" d="M683.9,26.8v-4.2c0-1.3,0.4-2.3,1.1-3.1c0.8-0.8,1.8-1.2,3-1.2c1.3,0,2.3,0.4,3,1.3
		c0.7,0.8,1.1,1.9,1.1,3.3h-1.7c0-0.4-0.1-0.8-0.2-1.1s-0.2-0.6-0.4-0.9s-0.4-0.5-0.7-0.6c-0.3-0.2-0.7-0.2-1.1-0.2
		c-0.7,0-1.2,0.2-1.7,0.6c-0.5,0.4-0.7,1.1-0.7,1.9v4.3c0,0.8,0.2,1.5,0.7,1.9s1,0.7,1.7,0.7c0.4,0,0.7-0.1,1-0.2
		c0.3-0.1,0.5-0.3,0.7-0.5c0.2-0.2,0.3-0.4,0.4-0.7c0.1-0.3,0.2-0.5,0.2-0.8c0-0.3,0.1-0.5,0.1-0.8h1.7c0,1.4-0.4,2.5-1.1,3.4
		c-0.7,0.9-1.7,1.3-3,1.3c-1.2,0-2.2-0.4-3-1.2C684.2,29.1,683.9,28.1,683.9,26.8z"/>
</g>
<g enable-background="new    ">
	<path fill="#FFFFFF" d="M692.5,30.9l4-12.3h1.9l3.9,12.3h-1.8l-0.8-2.8h-4.6l-0.8,2.8H692.5z M695.6,26.7h3.7l-1.8-6.2L695.6,26.7z
		"/>
</g>
<g enable-background="new    ">
	<path fill="#FFFFFF" d="M702.8,26.9h1.7c0,0.9,0.2,1.6,0.7,2c0.4,0.4,1,0.7,1.8,0.7c0.7,0,1.3-0.2,1.7-0.5c0.4-0.3,0.7-0.8,0.7-1.4
		c0-0.3-0.1-0.6-0.2-0.8c-0.1-0.2-0.3-0.4-0.6-0.6c-0.2-0.1-0.5-0.3-0.8-0.4c-0.3-0.1-0.7-0.2-1-0.3c-0.4-0.1-0.7-0.2-1.1-0.3
		c-0.4-0.1-0.7-0.3-1-0.4c-0.3-0.2-0.6-0.4-0.8-0.6c-0.2-0.2-0.4-0.5-0.6-0.9c-0.1-0.4-0.2-0.8-0.2-1.3c0-1.1,0.3-2,1-2.6
		c0.7-0.6,1.6-0.9,2.9-0.9c1.3,0,2.3,0.4,3.1,1.1c0.7,0.7,1.1,1.8,1.1,3.1h-1.8c0-0.8-0.2-1.5-0.6-1.9c-0.4-0.4-1-0.7-1.7-0.7
		c-0.7,0-1.2,0.2-1.6,0.5c-0.4,0.3-0.6,0.8-0.6,1.4c0,0.3,0.1,0.6,0.2,0.8c0.1,0.2,0.3,0.4,0.6,0.6s0.5,0.3,0.8,0.4s0.7,0.2,1,0.3
		s0.7,0.2,1.1,0.3c0.4,0.1,0.7,0.3,1,0.4c0.3,0.2,0.6,0.4,0.8,0.6s0.4,0.5,0.6,0.9c0.1,0.4,0.2,0.8,0.2,1.3c0,1.1-0.4,2-1.1,2.7
		c-0.7,0.6-1.7,0.9-3,0.9c-1.3,0-2.3-0.4-3-1.1S702.8,28.2,702.8,26.9z"/>
</g>
<g enable-background="new    ">
	<path fill="#FFFFFF" d="M712.9,30.9V18.6h6.9v1.7h-5.1V24h3.8v1.5h-3.8v3.8h5.1v1.7H712.9z"/>
</g>
<g enable-background="new    ">
	<path fill="#FFFFFF" d="M720.9,26.9h1.7c0,0.9,0.2,1.6,0.7,2c0.4,0.4,1,0.7,1.8,0.7c0.7,0,1.3-0.2,1.7-0.5c0.4-0.3,0.7-0.8,0.7-1.4
		c0-0.3-0.1-0.6-0.2-0.8c-0.1-0.2-0.3-0.4-0.6-0.6c-0.2-0.1-0.5-0.3-0.8-0.4c-0.3-0.1-0.6-0.2-1-0.3c-0.4-0.1-0.7-0.2-1.1-0.3
		c-0.4-0.1-0.7-0.3-1-0.4c-0.3-0.2-0.6-0.4-0.8-0.6c-0.2-0.2-0.4-0.5-0.6-0.9c-0.1-0.4-0.2-0.8-0.2-1.3c0-1.1,0.3-2,1-2.6
		c0.7-0.6,1.6-0.9,2.9-0.9c1.3,0,2.3,0.4,3.1,1.1c0.7,0.7,1.1,1.8,1.1,3.1h-1.8c0-0.8-0.2-1.5-0.6-1.9c-0.4-0.4-1-0.7-1.7-0.7
		c-0.7,0-1.2,0.2-1.6,0.5c-0.4,0.3-0.6,0.8-0.6,1.4c0,0.3,0.1,0.6,0.2,0.8c0.1,0.2,0.3,0.4,0.6,0.6c0.2,0.1,0.5,0.3,0.8,0.4
		s0.7,0.2,1,0.3s0.7,0.2,1.1,0.3c0.4,0.1,0.7,0.3,1,0.4c0.3,0.2,0.6,0.4,0.8,0.6s0.4,0.5,0.6,0.9s0.2,0.8,0.2,1.3
		c0,1.1-0.4,2-1.1,2.7s-1.7,0.9-3,0.9c-1.3,0-2.3-0.4-3-1.1S720.9,28.2,720.9,26.9z"/>
</g>
<g enable-background="new    ">
	<path fill="#FFFFFF" d="M563.7,43.9v-4.2c0-1.3,0.4-2.3,1.1-3.1c0.8-0.8,1.8-1.2,3-1.2c1.2,0,2.2,0.4,3,1.2s1.2,1.8,1.2,3.1v4.2
		c0,1.3-0.4,2.3-1.1,3.1c-0.8,0.8-1.7,1.2-3,1.2c-1.2,0-2.2-0.4-3-1.2C564,46.2,563.7,45.1,563.7,43.9z M565.4,43.9
		c0,0.8,0.2,1.5,0.7,1.9s1,0.7,1.7,0.7c0.7,0,1.2-0.2,1.7-0.7c0.5-0.4,0.7-1.1,0.7-1.9v-4.3c0-0.8-0.2-1.5-0.7-1.9
		c-0.4-0.4-1-0.7-1.7-0.7c-0.7,0-1.2,0.2-1.7,0.7c-0.5,0.4-0.7,1.1-0.7,1.9V43.9z"/>
	<path fill="#FFFFFF" d="M574.2,48V35.7h6.6v1.7h-4.9V41h3.5v1.5h-3.5V48H574.2z"/>
	<path fill="#FFFFFF" d="M586.6,48V35.7h3.7c1.3,0,2.3,0.3,3,0.8s1.1,1.3,1.1,2.5v0.2c0,1.4-0.6,2.3-1.8,2.7
		c1.2,0.4,1.9,1.3,1.9,2.7v0.1c0,1.1-0.4,2-1.1,2.5c-0.7,0.5-1.7,0.8-3,0.8H586.6z M588.3,41.1h2.4c0.6,0,1.1-0.1,1.4-0.4
		c0.3-0.3,0.5-0.7,0.5-1.3v-0.2c0-0.7-0.2-1.1-0.6-1.4s-1-0.4-1.8-0.4h-1.9V41.1z M588.3,46.3h2c0.7,0,1.3-0.1,1.7-0.4
		c0.4-0.3,0.6-0.8,0.6-1.4v-0.2c0-0.6-0.2-1.1-0.6-1.3c-0.4-0.3-0.9-0.4-1.6-0.4h-2.2V46.3z"/>
	<path fill="#FFFFFF" d="M596.5,48V35.7h3.7c1.3,0,2.3,0.4,3,1.1c0.7,0.8,1.1,1.8,1.1,3.2v0.4c0,1-0.2,1.8-0.7,2.5
		c-0.5,0.6-1.1,1.1-2,1.3l2.6,3.9h-2l-2.3-3.6h-1.8V48H596.5z M598.3,42.8h1.8c0.8,0,1.4-0.2,1.9-0.6s0.7-1,0.7-1.9v-0.4
		c0-1.7-0.9-2.6-2.6-2.6h-1.8V42.8z"/>
</g>
<g enable-background="new    ">
	<path fill="#FFFFFF" d="M605.2,48V35.7h6.9v1.7h-5.1V41h3.8v1.5h-3.8v3.8h5.1V48H605.2z"/>
</g>
<g enable-background="new    ">
	<path fill="#FFFFFF" d="M612.9,48l4-12.3h1.9l3.9,12.3H621l-0.8-2.8h-4.6l-0.8,2.8H612.9z M616,43.7h3.7l-1.8-6.2L616,43.7z"/>
</g>
<g enable-background="new    ">
	<path fill="#FFFFFF" d="M623.1,43.9h1.7c0,0.9,0.2,1.6,0.7,2c0.4,0.4,1,0.7,1.8,0.7c0.7,0,1.3-0.2,1.7-0.5c0.4-0.3,0.7-0.8,0.7-1.4
		c0-0.3-0.1-0.6-0.2-0.8c-0.1-0.2-0.3-0.4-0.6-0.6c-0.2-0.1-0.5-0.3-0.8-0.4c-0.3-0.1-0.7-0.2-1-0.3c-0.4-0.1-0.7-0.2-1.1-0.3
		c-0.4-0.1-0.7-0.3-1-0.4c-0.3-0.2-0.6-0.4-0.8-0.6c-0.2-0.2-0.4-0.5-0.6-0.9c-0.1-0.4-0.2-0.8-0.2-1.3c0-1.1,0.3-2,1-2.6
		c0.7-0.6,1.6-0.9,2.9-0.9c1.3,0,2.3,0.4,3.1,1.1c0.7,0.7,1.1,1.8,1.1,3.1h-1.8c0-0.8-0.2-1.5-0.6-1.9c-0.4-0.4-1-0.7-1.7-0.7
		c-0.7,0-1.2,0.2-1.6,0.5c-0.4,0.3-0.6,0.8-0.6,1.4c0,0.3,0.1,0.6,0.2,0.8c0.1,0.2,0.3,0.4,0.6,0.6s0.5,0.3,0.8,0.4s0.7,0.2,1,0.3
		s0.7,0.2,1.1,0.3c0.4,0.1,0.7,0.3,1,0.4c0.3,0.2,0.6,0.4,0.8,0.6s0.4,0.5,0.6,0.9c0.1,0.4,0.2,0.8,0.2,1.3c0,1.1-0.4,2-1.1,2.7
		c-0.7,0.6-1.7,0.9-3,0.9c-1.3,0-2.3-0.4-3-1.1S623.1,45.3,623.1,43.9z"/>
</g>
<g enable-background="new    ">
	<path fill="#FFFFFF" d="M632.1,37.3v-1.7h7.7v1.7h-3V48h-1.7V37.3H632.1z"/>
</g>
<g enable-background="new    ">
	<path fill="#FFFFFF" d="M644.7,43.9v-4.2c0-1.3,0.4-2.3,1.1-3.1c0.8-0.8,1.8-1.2,3-1.2c1.3,0,2.3,0.4,3,1.3
		c0.7,0.8,1.1,1.9,1.1,3.3h-1.7c0-0.4-0.1-0.8-0.2-1.1c-0.1-0.3-0.2-0.6-0.4-0.9c-0.2-0.3-0.4-0.5-0.7-0.6c-0.3-0.2-0.7-0.2-1.1-0.2
		c-0.7,0-1.2,0.2-1.7,0.6c-0.5,0.4-0.7,1.1-0.7,1.9v4.3c0,0.8,0.2,1.5,0.7,1.9s1,0.7,1.7,0.7c0.4,0,0.7-0.1,1-0.2
		c0.3-0.1,0.5-0.3,0.7-0.5c0.2-0.2,0.3-0.4,0.4-0.7c0.1-0.3,0.2-0.5,0.2-0.8c0-0.3,0.1-0.5,0.1-0.8h1.7c0,1.4-0.4,2.5-1.1,3.4
		c-0.7,0.9-1.7,1.3-3,1.3c-1.2,0-2.2-0.4-3-1.2C645,46.2,644.7,45.1,644.7,43.9z"/>
</g>
<g enable-background="new    ">
	<path fill="#FFFFFF" d="M653.3,48l4-12.3h1.9l3.9,12.3h-1.8l-0.8-2.8h-4.6l-0.8,2.8H653.3z M656.4,43.7h3.7l-1.8-6.2L656.4,43.7z"
		/>
</g>
<g enable-background="new    ">
	<path fill="#FFFFFF" d="M664.4,48V35.7h1.6l5,8.9v-8.9h1.7V48h-1.6l-5-8.9V48H664.4z"/>
	<path fill="#FFFFFF" d="M675,43.9v-4.2c0-1.3,0.4-2.3,1.1-3.1c0.8-0.8,1.8-1.2,3-1.2c1.3,0,2.3,0.4,3,1.3c0.7,0.8,1.1,1.9,1.1,3.3
		h-1.7c0-0.4-0.1-0.8-0.2-1.1s-0.2-0.6-0.4-0.9s-0.4-0.5-0.7-0.6c-0.3-0.2-0.7-0.2-1.1-0.2c-0.7,0-1.2,0.2-1.7,0.6
		c-0.5,0.4-0.7,1.1-0.7,1.9v4.3c0,0.8,0.2,1.5,0.7,1.9s1,0.7,1.7,0.7c0.4,0,0.7-0.1,1-0.2c0.3-0.1,0.5-0.3,0.7-0.5
		c0.2-0.2,0.3-0.4,0.4-0.7c0.1-0.3,0.2-0.5,0.2-0.8c0-0.3,0.1-0.5,0.1-0.8h1.7c0,1.4-0.4,2.5-1.1,3.4c-0.7,0.9-1.7,1.3-3,1.3
		c-1.2,0-2.2-0.4-3-1.2C675.4,46.2,675,45.1,675,43.9z"/>
</g>
<g enable-background="new    ">
	<path fill="#FFFFFF" d="M684.8,48V35.7h6.9v1.7h-5.1V41h3.8v1.5h-3.8v3.8h5.1V48H684.8z"/>
</g>
<g enable-background="new    ">
	<path fill="#FFFFFF" d="M693.6,48V35.7h3.7c1.3,0,2.3,0.4,3,1.1c0.7,0.8,1.1,1.8,1.1,3.2v0.4c0,1-0.2,1.8-0.7,2.5
		c-0.5,0.6-1.1,1.1-2,1.3l2.6,3.9h-2l-2.3-3.6h-1.8V48H693.6z M695.3,42.8h1.8c0.8,0,1.4-0.2,1.9-0.6s0.7-1,0.7-1.9v-0.4
		c0-1.7-0.9-2.6-2.6-2.6h-1.8V42.8z"/>
</g>
<g enable-background="new    ">
	<path fill="#CE009F" d="M486.4,22.4c0,0.8-0.2,1.5-0.4,2.1s-0.6,1.1-1,1.5s-0.9,0.7-1.4,0.9s-1.1,0.3-1.7,0.3s-1-0.1-1.5-0.2
		s-0.8-0.3-1.1-0.5s-0.6-0.4-0.8-0.7s-0.5-0.5-0.7-0.8s-0.4-0.5-0.6-0.8s-0.4-0.4-0.6-0.6s-0.4-0.3-0.7-0.4s-0.5-0.2-0.8-0.2
		c-0.4,0-0.7,0.1-1,0.3s-0.5,0.4-0.7,0.7s-0.3,0.6-0.4,1s-0.1,0.8-0.1,1.2c0,0.2-0.1,0.3-0.3,0.4s-0.5,0.1-0.9,0.1
		c-0.2,0-0.4,0-0.6,0s-0.3-0.1-0.4-0.1s-0.1-0.1-0.2-0.2s0-0.1,0-0.2v-0.5c0-0.8,0.1-1.5,0.3-2.1s0.5-1.1,0.9-1.5s0.9-0.7,1.4-0.9
		s1.2-0.3,1.8-0.3c0.6,0,1,0.1,1.5,0.2s0.8,0.3,1.1,0.5s0.6,0.4,0.8,0.7s0.5,0.5,0.7,0.8s0.4,0.5,0.6,0.8s0.4,0.4,0.6,0.6
		s0.4,0.3,0.7,0.4s0.5,0.2,0.9,0.2c0.4,0,0.7-0.1,1-0.2s0.5-0.4,0.7-0.6s0.3-0.6,0.4-1s0.1-0.8,0.1-1.2c0-0.2,0.1-0.3,0.3-0.4
		s0.5-0.1,0.9-0.1c0.2,0,0.4,0,0.6,0s0.3,0,0.4,0.1s0.2,0.1,0.2,0.2s0,0.2,0,0.3V22.4z"/>
</g>
<g enable-background="new    ">
	<path fill="#CE009F" d="M489.2,33.1h9.3c0,5,2.3,7.5,6.8,7.5c1.9,0,3.4-0.7,4.6-2c1.2-1.4,1.8-3.1,1.8-5.1v-1.9
		c0-1.9-0.6-3.5-1.8-4.7s-2.8-1.9-4.9-1.9c-0.9,0-1.7,0.1-2.4,0.3c-0.7,0.2-1.3,0.6-1.8,1c-0.5,0.4-0.9,0.8-1.1,1.2
		c-0.3,0.4-0.6,0.8-0.9,1.3l-8.9-2l4.5-25.3h24.1v8.8H502c-0.8,4.1-1.4,7.2-1.7,9.3c0.5-0.6,1.4-1.1,2.7-1.7
		c1.3-0.6,2.8-0.8,4.5-0.8c4.1,0,7.4,1.2,9.9,3.6c2.4,2.4,3.7,6,3.7,10.7v2.1c0,4.8-1.5,8.7-4.4,11.6s-6.8,4.4-11.5,4.4
		c-4.7,0-8.5-1.5-11.4-4.5C490.6,41.8,489.2,37.9,489.2,33.1z"/>
</g>
<g enable-background="new    ">
	<path fill="#CE009F" d="M523.6,48.7l12.9-24.2l-12.2-23h10l7.2,14.3l7.2-14.3h9.9l-12.2,23l12.9,24.2h-9.8l-8-15.7l-8,15.7H523.6z"
		/>
</g>
<g enable-background="new    ">
	<path fill="#CE009F" d="M492.1,57.2c-0.2-0.2-0.2-0.4-0.2-0.6s0.1-0.4,0.2-0.6c0.2-0.2,0.4-0.2,0.6-0.2s0.4,0.1,0.6,0.2
		s0.2,0.4,0.2,0.6s-0.1,0.4-0.2,0.6s-0.4,0.2-0.6,0.2S492.2,57.3,492.1,57.2z M492,66.4v-7.9h1.3v7.9H492z"/>
</g>
<g enable-background="new    ">
	<path fill="#CE009F" d="M495.1,66.4v-7.9h1.2v1.1c0.1-0.3,0.4-0.6,0.8-0.8c0.4-0.2,0.8-0.4,1.4-0.4c0.8,0,1.4,0.3,1.9,0.8
		c0.5,0.5,0.7,1.3,0.7,2.3v4.9h-1.3v-4.8c0-0.7-0.1-1.2-0.4-1.6s-0.7-0.5-1.3-0.5c-0.6,0-1,0.2-1.3,0.5s-0.4,0.9-0.4,1.7v4.7H495.1z
		"/>
</g>
<g enable-background="new    ">
	<path fill="#CE009F" d="M505.4,58.6h1.4l1.5,5.8l1.5-5.8h1.1l1.5,5.8l1.5-5.8h1.4l-2.2,7.9h-1.3l-1.5-5.7l-1.5,5.7h-1.2L505.4,58.6
		z"/>
</g>
<g enable-background="new    ">
	<path fill="#CE009F" d="M516.4,63.4v-1.9c0-0.9,0.3-1.7,0.8-2.3c0.5-0.6,1.3-0.8,2.2-0.8c0.9,0,1.6,0.3,2.2,0.8
		c0.5,0.6,0.8,1.3,0.8,2.3v1.9c0,1-0.3,1.7-0.8,2.3c-0.5,0.6-1.2,0.8-2.2,0.8c-0.9,0-1.7-0.3-2.2-0.8
		C516.7,65.2,516.4,64.4,516.4,63.4z M517.7,63.6c0,0.6,0.1,1,0.4,1.3c0.3,0.3,0.7,0.5,1.2,0.5c0.5,0,0.9-0.2,1.2-0.5
		s0.5-0.7,0.5-1.3v-2.2c0-0.6-0.1-1-0.4-1.3c-0.3-0.3-0.7-0.5-1.2-0.5c-0.5,0-0.9,0.2-1.2,0.5s-0.5,0.7-0.5,1.3V63.6z"/>
</g>
<g enable-background="new    ">
	<path fill="#CE009F" d="M524,66.4v-7.9h1.2v0.9c0.1-0.3,0.3-0.5,0.6-0.7c0.3-0.2,0.7-0.3,1.2-0.3c0.4,0,0.8,0.1,1.2,0.3
		c0.3,0.2,0.6,0.5,0.8,0.9c0.1-0.4,0.4-0.6,0.8-0.9c0.4-0.2,0.8-0.4,1.3-0.4c0.7,0,1.2,0.2,1.6,0.7s0.5,1.2,0.5,2.1v5.2h-1.3V61
		c0-0.5-0.1-0.9-0.3-1.1s-0.5-0.4-1-0.4c-0.4,0-0.8,0.1-1,0.4s-0.3,0.6-0.3,1.1v5.5H528V61c0-0.5-0.1-0.9-0.3-1.1
		c-0.2-0.3-0.6-0.4-1-0.4c-0.4,0-0.8,0.1-1,0.4c-0.2,0.2-0.3,0.6-0.3,1.1v5.5H524z"/>
</g>
<g enable-background="new    ">
	<path fill="#CE009F" d="M534.8,63.5v-1.9c0-1,0.3-1.7,0.8-2.3c0.5-0.6,1.3-0.8,2.2-0.8s1.7,0.3,2.2,0.8s0.8,1.3,0.8,2.2v1.4h-4.6
		v0.9c0,0.5,0.2,1,0.5,1.3c0.3,0.3,0.7,0.5,1.2,0.5s0.9-0.1,1.2-0.4s0.5-0.6,0.5-1.1v-0.1h1.3v0.1c0,0.7-0.3,1.4-0.8,1.9
		c-0.5,0.5-1.3,0.8-2.2,0.8c-0.9,0-1.7-0.3-2.2-0.8C535.1,65.2,534.8,64.4,534.8,63.5z M536.1,61.9h3.3v-0.5c0-0.6-0.1-1.1-0.4-1.4
		c-0.3-0.3-0.7-0.5-1.2-0.5c-0.5,0-0.9,0.2-1.2,0.5c-0.3,0.3-0.4,0.7-0.4,1.3V61.9z"/>
</g>
<g enable-background="new    ">
	<path fill="#CE009F" d="M542.4,66.4v-7.9h1.2v1.1c0.1-0.3,0.4-0.6,0.8-0.8c0.4-0.2,0.8-0.4,1.4-0.4c0.8,0,1.4,0.3,1.9,0.8
		c0.5,0.5,0.7,1.3,0.7,2.3v4.9H547v-4.8c0-0.7-0.1-1.2-0.4-1.6c-0.3-0.4-0.7-0.5-1.3-0.5c-0.6,0-1,0.2-1.3,0.5
		c-0.2,0.3-0.4,0.9-0.4,1.7v4.7H542.4z"/>
</g>
<g enable-background="new    ">
	<path fill="#CE009F" d="M553.2,63.4v-1.9c0-0.9,0.3-1.7,0.8-2.3c0.5-0.6,1.3-0.8,2.2-0.8c0.9,0,1.6,0.3,2.2,0.8
		c0.5,0.6,0.8,1.3,0.8,2.3v1.9c0,1-0.3,1.7-0.8,2.3c-0.5,0.6-1.2,0.8-2.2,0.8c-0.9,0-1.7-0.3-2.2-0.8
		C553.5,65.2,553.2,64.4,553.2,63.4z M554.5,63.6c0,0.6,0.1,1,0.4,1.3c0.3,0.3,0.7,0.5,1.2,0.5c0.5,0,0.9-0.2,1.2-0.5
		s0.5-0.7,0.5-1.3v-2.2c0-0.6-0.1-1-0.4-1.3c-0.3-0.3-0.7-0.5-1.2-0.5c-0.5,0-0.9,0.2-1.2,0.5s-0.5,0.7-0.5,1.3V63.6z"/>
</g>
<g enable-background="new    ">
	<path fill="#CE009F" d="M560.3,59.7v-1.1h0.9c0-1,0.2-1.7,0.5-2.1c0.3-0.4,0.9-0.6,1.8-0.6l0.7,0V57c-0.1,0-0.3,0-0.4,0
		c-0.3,0-0.6,0-0.7,0.1s-0.3,0.2-0.4,0.5s-0.1,0.6-0.1,1h1.6v1.1h-1.6v6.7h-1.3v-6.7H560.3z"/>
</g>
<g enable-background="new    ">
	<path fill="#CE009F" d="M568.7,63.5v-2c0-1,0.2-1.7,0.7-2.3s1.1-0.8,1.8-0.8c0.5,0,1,0.1,1.4,0.4c0.4,0.2,0.6,0.5,0.8,0.8v-1.1h1.2
		v7.9h-1.2v-1.1c-0.1,0.3-0.4,0.6-0.8,0.8c-0.4,0.2-0.8,0.4-1.4,0.4c-0.8,0-1.4-0.3-1.9-0.8S568.7,64.5,568.7,63.5z M570,63.3
		c0,0.7,0.1,1.3,0.4,1.6c0.3,0.4,0.7,0.5,1.2,0.5c0.5,0,0.9-0.2,1.2-0.6c0.3-0.4,0.4-0.9,0.4-1.6v-1.7c0-0.7-0.1-1.2-0.4-1.6
		c-0.3-0.4-0.7-0.5-1.2-0.5c-0.5,0-1,0.2-1.2,0.5c-0.3,0.4-0.4,0.9-0.4,1.6V63.3z"/>
</g>
<g enable-background="new    ">
	<path fill="#CE009F" d="M576.5,66.4V55.9h1.3v10.5H576.5z"/>
</g>
<g enable-background="new    ">
	<path fill="#CE009F" d="M579.7,66.4V55.9h1.3v10.5H579.7z"/>
</g>
<g enable-background="new    ">
	<path fill="#CE009F" d="M585.9,63.5v-2c0-1,0.2-1.7,0.7-2.3c0.5-0.5,1.1-0.8,1.8-0.8c0.5,0,1,0.1,1.4,0.4c0.4,0.2,0.6,0.5,0.8,0.8
		v-1.1h1.2v7.9h-1.2v-1.1c-0.1,0.3-0.4,0.6-0.8,0.8c-0.4,0.2-0.8,0.4-1.4,0.4c-0.8,0-1.4-0.3-1.9-0.8
		C586.1,65.2,585.9,64.5,585.9,63.5z M587.2,63.3c0,0.7,0.1,1.3,0.4,1.6c0.3,0.4,0.7,0.5,1.2,0.5c0.5,0,0.9-0.2,1.2-0.6
		c0.3-0.4,0.4-0.9,0.4-1.6v-1.7c0-0.7-0.1-1.2-0.4-1.6c-0.3-0.4-0.7-0.5-1.2-0.5c-0.5,0-1,0.2-1.2,0.5s-0.4,0.9-0.4,1.6V63.3z"/>
</g>
<g enable-background="new    ">
	<path fill="#CE009F" d="M593.6,63.5v-2c0-0.9,0.2-1.7,0.7-2.2s1-0.8,1.8-0.8c0.6,0,1.1,0.1,1.5,0.3c0.4,0.2,0.7,0.5,0.8,0.8v-1.1
		h1.2v7.9c0,0.5,0,0.9-0.1,1.3c-0.1,0.3-0.3,0.6-0.5,0.9s-0.5,0.4-0.9,0.6c-0.4,0.1-0.9,0.2-1.4,0.2c-0.4,0-0.7,0-1-0.1
		s-0.6-0.1-0.8-0.3c-0.2-0.1-0.4-0.2-0.5-0.4c-0.2-0.1-0.3-0.3-0.4-0.5s-0.1-0.4-0.2-0.5c0-0.2-0.1-0.4-0.1-0.6h1.3
		c0,0.4,0.1,0.7,0.4,0.9c0.3,0.3,0.7,0.4,1.2,0.4c0.6,0,1-0.1,1.2-0.4c0.3-0.3,0.4-0.7,0.4-1.2v-1.4c-0.1,0.3-0.4,0.6-0.7,0.8
		c-0.3,0.2-0.8,0.4-1.3,0.4c-0.8,0-1.4-0.3-1.9-0.8C593.8,65.2,593.6,64.5,593.6,63.5z M594.9,63.3c0,0.7,0.1,1.3,0.4,1.6
		c0.3,0.4,0.7,0.6,1.2,0.6c0.5,0,0.9-0.2,1.2-0.5c0.3-0.4,0.4-0.9,0.4-1.6v-2c0-0.6-0.1-1.1-0.4-1.4c-0.3-0.3-0.7-0.5-1.2-0.5
		c-0.5,0-1,0.2-1.2,0.5s-0.4,0.9-0.4,1.6V63.3z"/>
</g>
<g enable-background="new    ">
	<path fill="#CE009F" d="M601.2,63.5v-1.9c0-1,0.3-1.7,0.8-2.3s1.3-0.8,2.2-0.8s1.7,0.3,2.2,0.8s0.8,1.3,0.8,2.2v1.4h-4.6v0.9
		c0,0.5,0.2,1,0.5,1.3c0.3,0.3,0.7,0.5,1.2,0.5c0.5,0,0.9-0.1,1.2-0.4c0.3-0.3,0.5-0.6,0.5-1.1v-0.1h1.3v0.1c0,0.7-0.3,1.4-0.8,1.9
		c-0.5,0.5-1.3,0.8-2.2,0.8c-0.9,0-1.7-0.3-2.2-0.8C601.5,65.2,601.2,64.4,601.2,63.5z M602.5,61.9h3.3v-0.5c0-0.6-0.1-1.1-0.4-1.4
		c-0.3-0.3-0.7-0.5-1.2-0.5c-0.5,0-0.9,0.2-1.2,0.5c-0.3,0.3-0.4,0.7-0.4,1.3V61.9z"/>
</g>
<g enable-background="new    ">
	<path fill="#CE009F" d="M608.5,63.7h1.3c0,0.6,0.2,1,0.5,1.3c0.3,0.3,0.7,0.4,1.3,0.4c0.5,0,0.8-0.1,1.2-0.3
		c0.3-0.2,0.5-0.5,0.5-0.9c0-0.2-0.1-0.4-0.2-0.5c-0.1-0.1-0.3-0.3-0.5-0.3s-0.4-0.2-0.7-0.2s-0.5-0.1-0.8-0.2
		c-0.3-0.1-0.5-0.2-0.8-0.3c-0.3-0.1-0.5-0.3-0.7-0.4c-0.2-0.2-0.4-0.4-0.5-0.6c-0.1-0.3-0.2-0.6-0.2-0.9c0-0.7,0.2-1.2,0.7-1.6
		c0.5-0.4,1.2-0.6,2-0.6c1,0,1.7,0.2,2.2,0.7c0.5,0.5,0.7,1.1,0.7,2h-1.2c0-0.6-0.1-1-0.4-1.3c-0.3-0.3-0.7-0.4-1.2-0.4
		c-0.5,0-0.9,0.1-1.1,0.3s-0.4,0.5-0.4,0.8c0,0.3,0.1,0.5,0.2,0.7s0.4,0.3,0.6,0.4c0.3,0.1,0.5,0.2,0.9,0.3c0.3,0.1,0.6,0.2,0.9,0.3
		c0.3,0.1,0.6,0.2,0.9,0.4c0.3,0.1,0.5,0.4,0.6,0.6c0.2,0.3,0.2,0.6,0.2,1c0,0.7-0.2,1.3-0.7,1.7c-0.5,0.4-1.2,0.6-2.2,0.6
		c-0.9,0-1.7-0.3-2.2-0.8S608.5,64.6,608.5,63.7z"/>
</g>
<g enable-background="new    ">
	<path fill="#CE009F" d="M617.4,60.3c0,0.4,0.2,0.7,0.6,0.8c0.2,0.1,0.4,0.1,0.6,0.1c0.4,0,0.7-0.1,0.9-0.4c0.2-0.3,0.3-0.6,0.3-0.9
		c0-0.4-0.1-0.7-0.4-0.9s-0.5-0.3-0.9-0.3c-0.2,0-0.5,0-0.6,0.1c-0.2,0.1-0.3,0.2-0.5,0.4l-0.6,0l0.4-3.1h3v0.7h-2.4l-0.2,1.6
		c0.1-0.1,0.3-0.2,0.4-0.2c0.2-0.1,0.5-0.1,0.7-0.1c0.5,0,1,0.2,1.3,0.5c0.4,0.3,0.5,0.8,0.5,1.3c0,0.5-0.2,1-0.5,1.4
		c-0.3,0.4-0.9,0.6-1.6,0.6c-0.5,0-0.9-0.1-1.2-0.4s-0.6-0.7-0.6-1.2H617.4z"/>
</g>
<g enable-background="new    ">
	<path fill="#CE009F" d="M624.3,56.4v1.5l1.5-0.5l0.3,0.8l-1.5,0.5l0.9,1.3l-0.7,0.5l-0.9-1.3l-0.9,1.3l-0.7-0.5l0.9-1.3l-1.5-0.5
		l0.3-0.8l1.5,0.5v-1.5H624.3z"/>
</g>
<path fill="#B5B6B7" d="M210.5,71.4c-0.3,0-0.5-0.2-0.5-0.5V0.5c0-0.3,0.2-0.5,0.5-0.5s0.5,0.2,0.5,0.5v70.4
	C211,71.2,210.8,71.4,210.5,71.4z"/>
<path fill="#B5B6B7" d="M451.2,71.4c-0.3,0-0.5-0.2-0.5-0.5V0.5c0-0.3,0.2-0.5,0.5-0.5s0.5,0.2,0.5,0.5v70.4
	C451.7,71.2,451.5,71.4,451.2,71.4z"/>
</svg>
