<?xml version="1.0" encoding="utf-8"?>
<!-- Generator: Adobe Illustrator 21.1.0, SVG Export Plug-In . SVG Version: 6.00 Build 0)  -->
<svg version="1.1" id="Layer_1" xmlns="http://www.w3.org/2000/svg" xmlns:xlink="http://www.w3.org/1999/xlink" x="0px" y="0px"
	 viewBox="0 0 261.6 289.1" enable-background="new 0 0 261.6 289.1" xml:space="preserve">
<g enable-background="new    ">
	<path fill="#CE009F" d="M15.8,23.3c0,0.8-0.2,1.5-0.4,2.1s-0.6,1.1-1,1.5s-0.9,0.7-1.4,0.9s-1.1,0.3-1.7,0.3s-1-0.1-1.5-0.2
		s-0.8-0.3-1.1-0.5s-0.6-0.4-0.8-0.7S7.5,26.3,7.3,26s-0.4-0.5-0.6-0.8S6.2,24.8,6,24.6s-0.4-0.3-0.7-0.4S4.8,24,4.5,24
		c-0.4,0-0.7,0.1-1,0.3S3,24.7,2.8,25s-0.3,0.6-0.4,1s-0.1,0.8-0.1,1.2c0,0.2-0.1,0.3-0.3,0.4s-0.5,0.1-0.9,0.1c-0.2,0-0.4,0-0.6,0
		s-0.3-0.1-0.4-0.1S0.1,27.4,0,27.3s0-0.1,0-0.2v-0.5c0-0.8,0.1-1.5,0.3-2.1s0.5-1.1,0.9-1.5s0.9-0.7,1.4-0.9s1.2-0.3,1.8-0.3
		c0.6,0,1,0.1,1.5,0.2s0.8,0.3,1.1,0.5s0.6,0.4,0.8,0.7s0.5,0.5,0.7,0.8s0.4,0.5,0.6,0.8s0.4,0.4,0.6,0.6s0.4,0.3,0.7,0.4
		s0.5,0.2,0.9,0.2c0.4,0,0.7-0.1,1-0.2s0.5-0.4,0.7-0.6s0.3-0.6,0.4-1s0.1-0.8,0.1-1.2c0-0.2,0.1-0.3,0.3-0.4s0.5-0.1,0.9-0.1
		c0.2,0,0.4,0,0.6,0s0.3,0,0.4,0.1s0.2,0.1,0.2,0.2s0,0.2,0,0.3V23.3z"/>
</g>
<g enable-background="new    ">
	<path fill="#CE009F" d="M19.3,32.5c1,0,2.6,0,4.6,0c2.1,0,3.6,0,4.6,0c0,2.6,0.7,4.5,2,5.7c1.3,1.2,3.1,1.8,5.2,1.8
		c2,0,3.6-0.5,4.8-1.5c1.3-1,1.9-2.5,1.9-4.6c0-1.9-0.6-3.3-1.8-4.2c-1.2-0.9-3-1.4-5.3-1.4h-5.5v-7.8c0.9,0,1.5,0,2,0
		s1.1,0,1.9-0.1c0.8,0,1.4-0.1,1.9-0.2s1-0.2,1.6-0.3c0.7-0.1,1.2-0.3,1.5-0.5c0.4-0.2,0.8-0.4,1.2-0.7s0.8-0.6,1-1s0.4-0.8,0.6-1.3
		c0.2-0.5,0.2-1.1,0.2-1.7c0-2-0.6-3.4-1.8-4.4c-1.2-1-2.8-1.5-4.8-1.5c-2.1,0-3.7,0.6-4.8,1.8c-1.1,1.2-1.7,2.9-1.7,5.1h-9.1
		c0-4.8,1.4-8.6,4.3-11.4C26.8,1.4,30.6,0,35.3,0c4.5,0,8.3,1.3,11.2,3.9c2.9,2.6,4.4,5.8,4.4,9.8c0,2.5-0.6,4.7-1.7,6.4
		s-2.7,3-4.7,3.8c2,0.6,3.7,1.7,5.1,3.4c1.4,1.7,2.1,3.9,2.1,6.5c0,4.5-1.5,8.2-4.5,10.9c-3,2.7-6.9,4.1-11.7,4.1
		c-4.8,0-8.7-1.5-11.7-4.4C20.8,41.5,19.3,37.5,19.3,32.5z"/>
</g>
<g enable-background="new    ">
	<path fill="#CE009F" d="M53.7,48.1l12.9-24.2l-12.2-23h10l7.2,14.3l7.2-14.3h9.9l-12.2,23l12.9,24.2h-9.8l-8-15.7l-8,15.7H53.7z"/>
</g>
<g enable-background="new    ">
	<path fill="#FFFFFF" d="M96.5,13.3V1h1.7l3.4,8l3.4-8h1.7v12.3H105V4.7l-2.8,6.4H101l-2.8-6.4v8.5H96.5z"/>
	<path fill="#FFFFFF" d="M109,9.2V5c0-1.3,0.4-2.3,1.1-3.1c0.8-0.8,1.8-1.2,3-1.2c1.2,0,2.2,0.4,3,1.2c0.8,0.8,1.2,1.8,1.2,3.1v4.2
		c0,1.3-0.4,2.3-1.1,3.1c-0.8,0.8-1.7,1.2-3,1.2c-1.2,0-2.2-0.4-3-1.2C109.4,11.5,109,10.5,109,9.2z M110.7,9.3
		c0,0.8,0.2,1.5,0.7,1.9s1,0.7,1.7,0.7c0.7,0,1.2-0.2,1.7-0.7c0.5-0.4,0.7-1.1,0.7-1.9V5c0-0.8-0.2-1.5-0.7-1.9
		c-0.4-0.4-1-0.7-1.7-0.7c-0.7,0-1.2,0.2-1.7,0.7c-0.5,0.4-0.7,1.1-0.7,1.9V9.3z"/>
	<path fill="#FFFFFF" d="M119.5,13.3V1h3.7c1.3,0,2.3,0.4,3,1.1c0.7,0.8,1.1,1.8,1.1,3.2v0.4c0,1-0.2,1.8-0.7,2.5s-1.1,1.1-2,1.3
		l2.6,3.9h-2L123,9.7h-1.8v3.6H119.5z M121.2,8.1h1.8c0.8,0,1.4-0.2,1.9-0.6s0.7-1,0.7-1.9V5.2c0-1.7-0.9-2.6-2.6-2.6h-1.8V8.1z"/>
	<path fill="#FFFFFF" d="M129.4,13.3V1h6.9v1.7h-5.1v3.7h3.8v1.5h-3.8v3.8h5.1v1.7H129.4z"/>
</g>
<g enable-background="new    ">
	<path fill="#FFFFFF" d="M96.5,30.4V18h6.6v1.7h-4.9v3.7h3.5v1.5h-3.5v5.4H96.5z"/>
	<path fill="#FFFFFF" d="M105.1,30.4V18h3.7c1.3,0,2.3,0.4,3,1.1c0.7,0.8,1.1,1.8,1.1,3.2v0.4c0,1-0.2,1.8-0.7,2.5s-1.1,1.1-2,1.3
		l2.6,3.9h-2l-2.3-3.6h-1.8v3.6H105.1z M106.8,25.2h1.8c0.8,0,1.4-0.2,1.9-0.6s0.7-1,0.7-1.9v-0.4c0-1.7-0.9-2.6-2.6-2.6h-1.8V25.2z
		"/>
</g>
<g enable-background="new    ">
	<path fill="#FFFFFF" d="M114.5,30.4V18h6.9v1.7h-5.1v3.7h3.8v1.5h-3.8v3.8h5.1v1.7H114.5z"/>
</g>
<g enable-background="new    ">
	<path fill="#FFFFFF" d="M122.5,26.3v-4.2c0-1.3,0.4-2.3,1.1-3.1s1.8-1.2,3-1.2c1.2,0,2.2,0.4,3,1.2c0.8,0.8,1.1,1.8,1.1,3.1v4.2
		c0,1.1-0.3,2-0.8,2.7c-0.5,0.7-1.3,1.2-2.2,1.4l1.3,2.3h-2l-1.1-2.3c-1-0.1-1.8-0.6-2.4-1.3C122.8,28.4,122.5,27.4,122.5,26.3z
		 M124.2,26.3c0,0.8,0.2,1.5,0.7,1.9s1,0.7,1.7,0.7c0.7,0,1.2-0.2,1.7-0.6c0.5-0.4,0.7-1.1,0.7-1.9V22c0-0.8-0.2-1.5-0.7-1.9
		s-1-0.7-1.7-0.7c-0.7,0-1.2,0.2-1.7,0.6c-0.5,0.4-0.7,1.1-0.7,1.9V26.3z"/>
</g>
<g enable-background="new    ">
	<path fill="#FFFFFF" d="M132.6,26.2V18h1.7v8.3c0,0.4,0.1,0.8,0.2,1.2c0.1,0.3,0.3,0.6,0.5,0.8c0.2,0.2,0.5,0.4,0.8,0.5
		s0.6,0.2,0.9,0.2c0.7,0,1.3-0.2,1.7-0.7c0.5-0.4,0.7-1.1,0.7-1.9V18h1.7v8.2c0,1.3-0.4,2.3-1.2,3.1c-0.8,0.8-1.8,1.2-3,1.2
		c-1.2,0-2.2-0.4-3-1.2C133,28.5,132.6,27.5,132.6,26.2z"/>
	<path fill="#FFFFFF" d="M143.3,30.4V18h6.9v1.7H145v3.7h3.8v1.5H145v3.8h5.1v1.7H143.3z"/>
</g>
<g enable-background="new    ">
	<path fill="#FFFFFF" d="M151.9,30.4V18h1.6l5,8.9V18h1.7v12.3h-1.6l-5-8.9v8.9H151.9z"/>
	<path fill="#FFFFFF" d="M162,19.7V18h7.7v1.7h-3v10.7H165V19.7H162z"/>
</g>
<g enable-background="new    ">
	<path fill="#FFFFFF" d="M95.7,36.7v-1.7h7.7v1.7h-3v10.7h-1.7V36.7H95.7z"/>
</g>
<g enable-background="new    ">
	<path fill="#FFFFFF" d="M105,47.4V35.1h1.7v5.4h4.5v-5.4h1.7v12.3h-1.7V42h-4.5v5.4H105z"/>
</g>
<g enable-background="new    ">
	<path fill="#FFFFFF" d="M114.2,47.4l4-12.3h1.9l3.9,12.3h-1.8l-0.8-2.8h-4.6l-0.8,2.8H114.2z M117.3,43.1h3.7l-1.8-6.2L117.3,43.1z
		"/>
</g>
<g enable-background="new    ">
	<path fill="#FFFFFF" d="M125.3,47.4V35.1h1.6l5,8.9v-8.9h1.7v12.3H132l-5-8.9v8.9H125.3z"/>
</g>
<g enable-background="new    ">
	<path fill="#FFFFFF" d="M139.1,43.3h1.7c0,0.9,0.2,1.6,0.7,2c0.4,0.4,1,0.7,1.8,0.7c0.7,0,1.3-0.2,1.7-0.5c0.4-0.3,0.7-0.8,0.7-1.4
		c0-0.3-0.1-0.6-0.2-0.8c-0.1-0.2-0.3-0.4-0.6-0.6c-0.2-0.1-0.5-0.3-0.8-0.4c-0.3-0.1-0.7-0.2-1-0.3c-0.4-0.1-0.7-0.2-1.1-0.3
		c-0.4-0.1-0.7-0.3-1-0.4c-0.3-0.2-0.6-0.4-0.8-0.6c-0.2-0.2-0.4-0.5-0.6-0.9c-0.1-0.4-0.2-0.8-0.2-1.3c0-1.1,0.3-2,1-2.6
		c0.7-0.6,1.6-0.9,2.9-0.9c1.3,0,2.3,0.4,3.1,1.1c0.7,0.7,1.1,1.8,1.1,3.1h-1.8c0-0.8-0.2-1.5-0.6-1.9c-0.4-0.4-1-0.7-1.7-0.7
		c-0.7,0-1.2,0.2-1.6,0.5c-0.4,0.3-0.6,0.8-0.6,1.4c0,0.3,0.1,0.6,0.2,0.8c0.1,0.2,0.3,0.4,0.6,0.6s0.5,0.3,0.8,0.4s0.7,0.2,1,0.3
		s0.7,0.2,1.1,0.3c0.4,0.1,0.7,0.3,1,0.4c0.3,0.2,0.6,0.4,0.8,0.6s0.4,0.5,0.6,0.9c0.1,0.4,0.2,0.8,0.2,1.3c0,1.1-0.4,2-1.1,2.7
		c-0.7,0.6-1.7,0.9-3,0.9c-1.3,0-2.3-0.4-3-1.1S139.1,44.7,139.1,43.3z"/>
</g>
<g enable-background="new    ">
	<path fill="#FFFFFF" d="M148.1,36.7v-1.7h7.7v1.7h-3v10.7h-1.7V36.7H148.1z"/>
</g>
<g enable-background="new    ">
	<path fill="#FFFFFF" d="M157.4,47.4V35.1h3.7c1.3,0,2.3,0.4,3,1.1c0.7,0.8,1.1,1.8,1.1,3.2v0.4c0,1-0.2,1.8-0.7,2.5
		c-0.5,0.6-1.1,1.1-2,1.3l2.6,3.9h-2l-2.3-3.6h-1.8v3.6H157.4z M159.1,42.2h1.8c0.8,0,1.4-0.2,1.9-0.6s0.7-1,0.7-1.9v-0.4
		c0-1.7-0.9-2.6-2.6-2.6h-1.8V42.2z"/>
</g>
<g enable-background="new    ">
	<path fill="#FFFFFF" d="M166.6,43.3v-4.2c0-1.3,0.4-2.3,1.1-3.1c0.8-0.8,1.8-1.2,3-1.2c1.2,0,2.2,0.4,3,1.2
		c0.8,0.8,1.2,1.8,1.2,3.1v4.2c0,1.3-0.4,2.3-1.1,3.1c-0.8,0.8-1.8,1.2-3,1.2c-1.2,0-2.2-0.4-3-1.2C167,45.6,166.6,44.6,166.6,43.3z
		 M168.3,43.3c0,0.8,0.2,1.5,0.7,1.9s1,0.7,1.7,0.7c0.7,0,1.2-0.2,1.7-0.7s0.7-1.1,0.7-1.9v-4.3c0-0.8-0.2-1.5-0.7-1.9
		c-0.4-0.4-1-0.7-1.7-0.7c-0.7,0-1.2,0.2-1.7,0.7c-0.5,0.4-0.7,1.1-0.7,1.9V43.3z"/>
</g>
<g enable-background="new    ">
	<path fill="#FFFFFF" d="M176.9,47.4V35.1h1.7v5.3h1.1l3.3-5.3h2l-3.9,6.1l3.9,6.3h-2l-3.3-5.5h-1.1v5.5H176.9z"/>
</g>
<g enable-background="new    ">
	<path fill="#FFFFFF" d="M186.6,47.4V35.1h6.9v1.7h-5.1v3.7h3.8V42h-3.8v3.8h5.1v1.7H186.6z"/>
</g>
<g enable-background="new    ">
	<path fill="#CE009F" d="M20.7,57.6c-0.2-0.2-0.2-0.4-0.2-0.6s0.1-0.4,0.2-0.6c0.2-0.2,0.4-0.2,0.6-0.2s0.4,0.1,0.6,0.2
		s0.2,0.4,0.2,0.6s-0.1,0.4-0.2,0.6s-0.4,0.2-0.6,0.2S20.9,57.7,20.7,57.6z M20.6,66.8V59h1.3v7.9H20.6z"/>
	<path fill="#CE009F" d="M23.7,66.8V59h1.2v1.1c0.1-0.3,0.4-0.6,0.8-0.8c0.4-0.2,0.8-0.4,1.4-0.4c0.8,0,1.4,0.3,1.9,0.8
		c0.5,0.5,0.7,1.3,0.7,2.3v4.9h-1.3v-4.8c0-0.7-0.1-1.2-0.4-1.6S27.3,60,26.7,60c-0.6,0-1,0.2-1.3,0.5S25,61.4,25,62.1v4.7H23.7z"/>
</g>
<g enable-background="new    ">
	<path fill="#CE009F" d="M33.7,59h1.4l1.5,5.8l1.5-5.8h1.1l1.5,5.8l1.5-5.8h1.4l-2.2,7.9h-1.3l-1.5-5.7l-1.5,5.7h-1.2L33.7,59z"/>
</g>
<g enable-background="new    ">
	<path fill="#CE009F" d="M44.3,63.8V62c0-0.9,0.3-1.7,0.8-2.3s1.3-0.8,2.2-0.8c0.9,0,1.6,0.3,2.2,0.8c0.5,0.6,0.8,1.3,0.8,2.3v1.9
		c0,1-0.3,1.7-0.8,2.3c-0.5,0.6-1.2,0.8-2.2,0.8c-0.9,0-1.7-0.3-2.2-0.8S44.3,64.8,44.3,63.8z M45.6,64c0,0.6,0.1,1,0.4,1.3
		c0.3,0.3,0.7,0.5,1.2,0.5c0.5,0,0.9-0.2,1.2-0.5s0.5-0.7,0.5-1.3v-2.2c0-0.6-0.1-1-0.4-1.3s-0.7-0.5-1.2-0.5
		c-0.5,0-0.9,0.2-1.2,0.5s-0.5,0.7-0.5,1.3V64z"/>
	<path fill="#CE009F" d="M51.9,66.8V59h1.2v0.9c0.1-0.3,0.3-0.5,0.6-0.7s0.7-0.3,1.2-0.3c0.4,0,0.8,0.1,1.2,0.3
		c0.3,0.2,0.6,0.5,0.8,0.9c0.1-0.4,0.4-0.6,0.8-0.9c0.4-0.2,0.8-0.4,1.3-0.4c0.7,0,1.2,0.2,1.6,0.7s0.5,1.2,0.5,2.1v5.2h-1.3v-5.4
		c0-0.5-0.1-0.9-0.3-1.1c-0.2-0.3-0.6-0.4-1-0.4c-0.4,0-0.8,0.1-1,0.4c-0.2,0.3-0.3,0.6-0.3,1.1v5.5h-1.3v-5.4
		c0-0.5-0.1-0.9-0.3-1.1c-0.2-0.3-0.6-0.4-1-0.4c-0.4,0-0.8,0.1-1,0.4c-0.2,0.2-0.3,0.6-0.3,1.1v5.5H51.9z"/>
	<path fill="#CE009F" d="M62.5,63.9V62c0-1,0.3-1.7,0.8-2.3s1.3-0.8,2.2-0.8s1.7,0.3,2.2,0.8s0.8,1.3,0.8,2.2v1.4h-4.6v0.9
		c0,0.5,0.2,1,0.5,1.3c0.3,0.3,0.7,0.5,1.2,0.5s0.9-0.1,1.2-0.4s0.5-0.6,0.5-1.1v-0.1h1.3v0.1c0,0.7-0.3,1.4-0.8,1.9
		c-0.5,0.5-1.3,0.8-2.2,0.8c-0.9,0-1.7-0.3-2.2-0.8C62.8,65.6,62.5,64.8,62.5,63.9z M63.8,62.3h3.3v-0.5c0-0.6-0.1-1.1-0.4-1.4
		c-0.3-0.3-0.7-0.5-1.2-0.5c-0.5,0-0.9,0.2-1.2,0.5c-0.3,0.3-0.4,0.7-0.4,1.3V62.3z"/>
	<path fill="#CE009F" d="M70,66.8V59h1.2v1.1c0.1-0.3,0.4-0.6,0.8-0.8c0.4-0.2,0.8-0.4,1.4-0.4c0.8,0,1.4,0.3,1.9,0.8
		c0.5,0.5,0.7,1.3,0.7,2.3v4.9h-1.3v-4.8c0-0.7-0.1-1.2-0.4-1.6S73.5,60,72.9,60c-0.6,0-1,0.2-1.3,0.5s-0.4,0.9-0.4,1.7v4.7H70z"/>
</g>
<g enable-background="new    ">
	<path fill="#CE009F" d="M80.5,63.8V62c0-0.9,0.3-1.7,0.8-2.3s1.3-0.8,2.2-0.8c0.9,0,1.6,0.3,2.2,0.8c0.5,0.6,0.8,1.3,0.8,2.3v1.9
		c0,1-0.3,1.7-0.8,2.3c-0.5,0.6-1.2,0.8-2.2,0.8c-0.9,0-1.7-0.3-2.2-0.8S80.5,64.8,80.5,63.8z M81.8,64c0,0.6,0.1,1,0.4,1.3
		c0.3,0.3,0.7,0.5,1.2,0.5c0.5,0,0.9-0.2,1.2-0.5s0.5-0.7,0.5-1.3v-2.2c0-0.6-0.1-1-0.4-1.3s-0.7-0.5-1.2-0.5
		c-0.5,0-0.9,0.2-1.2,0.5s-0.5,0.7-0.5,1.3V64z"/>
</g>
<g enable-background="new    ">
	<path fill="#CE009F" d="M87.3,60.1V59h0.9c0-1,0.2-1.7,0.5-2.1c0.3-0.4,0.9-0.6,1.7-0.6l0.7,0v1.1c-0.1,0-0.3,0-0.4,0
		c-0.3,0-0.6,0-0.7,0.1s-0.3,0.2-0.4,0.5s-0.1,0.6-0.1,1h1.6v1.1h-1.6v6.7h-1.3v-6.7H87.3z"/>
	<path fill="#CE009F" d="M95.4,63.9v-2c0-1,0.2-1.7,0.7-2.3c0.5-0.5,1.1-0.8,1.8-0.8c0.5,0,1,0.1,1.4,0.4c0.4,0.2,0.6,0.5,0.8,0.8
		V59h1.2v7.9h-1.2v-1.1c-0.1,0.3-0.4,0.6-0.8,0.8S98.5,67,97.9,67c-0.8,0-1.4-0.3-1.9-0.8C95.6,65.6,95.4,64.9,95.4,63.9z
		 M96.7,63.7c0,0.7,0.1,1.3,0.4,1.6c0.3,0.4,0.7,0.5,1.2,0.5c0.5,0,0.9-0.2,1.2-0.6s0.4-0.9,0.4-1.6V62c0-0.7-0.1-1.2-0.4-1.6
		c-0.3-0.4-0.7-0.5-1.2-0.5c-0.5,0-1,0.2-1.2,0.5c-0.3,0.4-0.4,0.9-0.4,1.6V63.7z"/>
	<path fill="#CE009F" d="M103.1,66.8V56.3h1.3v10.5H103.1z"/>
	<path fill="#CE009F" d="M106.3,66.8V56.3h1.3v10.5H106.3z"/>
	<path fill="#CE009F" d="M112.2,63.9v-2c0-1,0.2-1.7,0.7-2.3c0.5-0.5,1.1-0.8,1.8-0.8c0.5,0,1,0.1,1.4,0.4c0.4,0.2,0.6,0.5,0.8,0.8
		V59h1.2v7.9h-1.2v-1.1c-0.1,0.3-0.4,0.6-0.8,0.8s-0.8,0.4-1.4,0.4c-0.8,0-1.4-0.3-1.9-0.8C112.5,65.6,112.2,64.9,112.2,63.9z
		 M113.6,63.7c0,0.7,0.1,1.3,0.4,1.6c0.3,0.4,0.7,0.5,1.2,0.5c0.5,0,0.9-0.2,1.2-0.6s0.4-0.9,0.4-1.6V62c0-0.7-0.1-1.2-0.4-1.6
		c-0.3-0.4-0.7-0.5-1.2-0.5c-0.5,0-1,0.2-1.2,0.5c-0.3,0.4-0.4,0.9-0.4,1.6V63.7z"/>
	<path fill="#CE009F" d="M119.8,63.9v-2c0-0.9,0.2-1.7,0.7-2.2c0.4-0.5,1-0.8,1.8-0.8c0.6,0,1.1,0.1,1.5,0.3
		c0.4,0.2,0.7,0.5,0.8,0.8V59h1.2v7.9c0,0.5,0,0.9-0.1,1.3c-0.1,0.3-0.3,0.6-0.5,0.9c-0.2,0.3-0.5,0.4-0.9,0.6s-0.9,0.2-1.4,0.2
		c-0.4,0-0.7,0-1-0.1s-0.6-0.1-0.8-0.3c-0.2-0.1-0.4-0.2-0.5-0.4s-0.3-0.3-0.4-0.5s-0.1-0.4-0.2-0.5c0-0.2-0.1-0.4-0.1-0.6h1.3
		c0,0.4,0.1,0.7,0.4,0.9c0.3,0.3,0.7,0.4,1.2,0.4c0.6,0,1-0.1,1.2-0.4c0.3-0.3,0.4-0.7,0.4-1.2v-1.4c-0.1,0.3-0.4,0.6-0.7,0.8
		c-0.3,0.2-0.8,0.4-1.3,0.4c-0.8,0-1.4-0.3-1.9-0.8S119.8,64.9,119.8,63.9z M121.1,63.7c0,0.7,0.1,1.3,0.4,1.6
		c0.3,0.4,0.7,0.6,1.2,0.6c0.5,0,0.9-0.2,1.2-0.5c0.3-0.4,0.4-0.9,0.4-1.6v-2c0-0.6-0.1-1.1-0.4-1.4c-0.3-0.3-0.7-0.5-1.2-0.5
		c-0.5,0-1,0.2-1.2,0.5c-0.3,0.4-0.4,0.9-0.4,1.6V63.7z"/>
	<path fill="#CE009F" d="M127.3,63.9V62c0-1,0.3-1.7,0.8-2.3s1.3-0.8,2.2-0.8s1.7,0.3,2.2,0.8s0.8,1.3,0.8,2.2v1.4h-4.6v0.9
		c0,0.5,0.2,1,0.5,1.3c0.3,0.3,0.7,0.5,1.2,0.5s0.9-0.1,1.2-0.4s0.5-0.6,0.5-1.1v-0.1h1.3v0.1c0,0.7-0.3,1.4-0.8,1.9
		c-0.5,0.5-1.3,0.8-2.2,0.8c-0.9,0-1.7-0.3-2.2-0.8C127.6,65.6,127.3,64.8,127.3,63.9z M128.6,62.3h3.3v-0.5c0-0.6-0.1-1.1-0.4-1.4
		c-0.3-0.3-0.7-0.5-1.2-0.5c-0.5,0-0.9,0.2-1.2,0.5c-0.3,0.3-0.4,0.7-0.4,1.3V62.3z"/>
	<path fill="#CE009F" d="M134.4,64.1h1.3c0,0.6,0.2,1,0.5,1.3c0.3,0.3,0.7,0.4,1.3,0.4c0.5,0,0.8-0.1,1.2-0.3
		c0.3-0.2,0.5-0.5,0.5-0.9c0-0.2-0.1-0.4-0.2-0.5c-0.1-0.1-0.3-0.3-0.5-0.3s-0.4-0.2-0.7-0.2s-0.5-0.1-0.8-0.2
		c-0.3-0.1-0.5-0.2-0.8-0.3s-0.5-0.3-0.7-0.4s-0.4-0.4-0.5-0.6s-0.2-0.6-0.2-0.9c0-0.7,0.2-1.2,0.7-1.6c0.5-0.4,1.2-0.6,2-0.6
		c1,0,1.7,0.2,2.2,0.7c0.5,0.5,0.7,1.1,0.7,2H139c0-0.6-0.1-1-0.4-1.3c-0.3-0.3-0.7-0.4-1.2-0.4c-0.5,0-0.9,0.1-1.1,0.3
		s-0.4,0.5-0.4,0.8c0,0.3,0.1,0.5,0.2,0.7c0.2,0.2,0.4,0.3,0.6,0.4c0.3,0.1,0.5,0.2,0.9,0.3c0.3,0.1,0.6,0.2,0.9,0.3
		c0.3,0.1,0.6,0.2,0.9,0.4c0.3,0.1,0.5,0.4,0.6,0.6c0.2,0.3,0.2,0.6,0.2,1c0,0.7-0.2,1.3-0.7,1.7c-0.5,0.4-1.2,0.6-2.2,0.6
		c-0.9,0-1.7-0.3-2.2-0.8C134.6,65.7,134.4,65,134.4,64.1z"/>
</g>
<g enable-background="new    ">
	<path fill="#CE009F" d="M143.6,62.2v-1.4h-2.5v-0.7l2.6-3.6h0.6v3.7h0.8v0.6h-0.8v1.4H143.6z M143.6,60.1v-2.6l-1.8,2.6H143.6z"/>
</g>
<g enable-background="new    ">
	<path fill="#CE009F" d="M147.9,56.8v1.5l1.5-0.5l0.3,0.8l-1.5,0.5l0.9,1.3l-0.7,0.5l-0.9-1.3l-0.9,1.3l-0.7-0.5l0.9-1.3l-1.5-0.5
		l0.3-0.8l1.5,0.5v-1.5H147.9z"/>
</g>
<g enable-background="new    ">
	<path fill="#CE009F" d="M15.8,133.5c0,0.8-0.2,1.5-0.4,2.1s-0.6,1.1-1,1.5s-0.9,0.7-1.4,0.9s-1.1,0.3-1.7,0.3s-1-0.1-1.5-0.2
		s-0.8-0.3-1.1-0.5s-0.6-0.4-0.8-0.7s-0.5-0.5-0.7-0.8s-0.4-0.5-0.6-0.8s-0.4-0.4-0.6-0.6s-0.4-0.3-0.7-0.4s-0.5-0.2-0.8-0.2
		c-0.4,0-0.7,0.1-1,0.3s-0.5,0.4-0.7,0.7s-0.3,0.6-0.4,1s-0.1,0.8-0.1,1.2c0,0.2-0.1,0.3-0.3,0.4s-0.5,0.1-0.9,0.1
		c-0.2,0-0.4,0-0.6,0s-0.3-0.1-0.4-0.1s-0.1-0.1-0.2-0.2s0-0.1,0-0.2v-0.5c0-0.8,0.1-1.5,0.3-2.1s0.5-1.1,0.9-1.5s0.9-0.7,1.4-0.9
		s1.2-0.3,1.8-0.3c0.6,0,1,0.1,1.5,0.2s0.8,0.3,1.1,0.5s0.6,0.4,0.8,0.7s0.5,0.5,0.7,0.8s0.4,0.5,0.6,0.8s0.4,0.4,0.6,0.6
		s0.4,0.3,0.7,0.4s0.5,0.2,0.9,0.2c0.4,0,0.7-0.1,1-0.2s0.5-0.4,0.7-0.6s0.3-0.6,0.4-1s0.1-0.8,0.1-1.2c0-0.2,0.1-0.3,0.3-0.4
		s0.5-0.1,0.9-0.1c0.2,0,0.4,0,0.6,0s0.3,0,0.4,0.1s0.2,0.1,0.2,0.2s0,0.2,0,0.3V133.5z"/>
</g>
<g enable-background="new    ">
	<path fill="#CE009F" d="M18.7,148.4v-8.8l20-28.6h8.9v28.6h5.1v8.8h-5.1v9.8h-9v-9.8H18.7z M27.2,139.5h11.4v-16.4L27.2,139.5z"/>
</g>
<g enable-background="new    ">
	<path fill="#CE009F" d="M54.3,158.2L67.1,134l-12.2-23h10l7.2,14.3l7.2-14.3h9.9l-12.2,23L90,158.2h-9.8l-8-15.7l-8,15.7H54.3z"/>
</g>
<g enable-background="new    ">
	<path fill="#FFFFFF" d="M96.5,123.5v-12.3h1.7l3.4,8l3.4-8h1.7v12.3H105v-8.6l-2.8,6.4H101l-2.8-6.4v8.5H96.5z"/>
	<path fill="#FFFFFF" d="M109,119.3v-4.2c0-1.3,0.4-2.3,1.1-3.1c0.8-0.8,1.8-1.2,3-1.2c1.2,0,2.2,0.4,3,1.2c0.8,0.8,1.2,1.8,1.2,3.1
		v4.2c0,1.3-0.4,2.3-1.1,3.1c-0.8,0.8-1.7,1.2-3,1.2c-1.2,0-2.2-0.4-3-1.2C109.4,121.6,109,120.6,109,119.3z M110.7,119.4
		c0,0.8,0.2,1.5,0.7,1.9s1,0.7,1.7,0.7c0.7,0,1.2-0.2,1.7-0.7c0.5-0.4,0.7-1.1,0.7-1.9v-4.3c0-0.8-0.2-1.5-0.7-1.9
		c-0.4-0.4-1-0.7-1.7-0.7c-0.7,0-1.2,0.2-1.7,0.7c-0.5,0.4-0.7,1.1-0.7,1.9V119.4z"/>
	<path fill="#FFFFFF" d="M119.5,123.5v-12.3h3.7c1.3,0,2.3,0.4,3,1.1c0.7,0.8,1.1,1.8,1.1,3.2v0.4c0,1-0.2,1.8-0.7,2.5
		s-1.1,1.1-2,1.3l2.6,3.9h-2l-2.3-3.6h-1.8v3.6H119.5z M121.2,118.3h1.8c0.8,0,1.4-0.2,1.9-0.6s0.7-1,0.7-1.9v-0.4
		c0-1.7-0.9-2.6-2.6-2.6h-1.8V118.3z"/>
	<path fill="#FFFFFF" d="M129.4,123.5v-12.3h6.9v1.7h-5.1v3.7h3.8v1.5h-3.8v3.8h5.1v1.7H129.4z"/>
</g>
<g enable-background="new    ">
	<path fill="#FFFFFF" d="M96.5,140.5v-12.3h6.6v1.7h-4.9v3.7h3.5v1.5h-3.5v5.4H96.5z"/>
	<path fill="#FFFFFF" d="M105.1,140.5v-12.3h3.7c1.3,0,2.3,0.4,3,1.1c0.7,0.8,1.1,1.8,1.1,3.2v0.4c0,1-0.2,1.8-0.7,2.5
		s-1.1,1.1-2,1.3l2.6,3.9h-2l-2.3-3.6h-1.8v3.6H105.1z M106.8,135.3h1.8c0.8,0,1.4-0.2,1.9-0.6s0.7-1,0.7-1.9v-0.4
		c0-1.7-0.9-2.6-2.6-2.6h-1.8V135.3z"/>
</g>
<g enable-background="new    ">
	<path fill="#FFFFFF" d="M114.5,140.5v-12.3h6.9v1.7h-5.1v3.7h3.8v1.5h-3.8v3.8h5.1v1.7H114.5z"/>
</g>
<g enable-background="new    ">
	<path fill="#FFFFFF" d="M122.5,136.4v-4.2c0-1.3,0.4-2.3,1.1-3.1s1.8-1.2,3-1.2c1.2,0,2.2,0.4,3,1.2c0.8,0.8,1.1,1.8,1.1,3.1v4.2
		c0,1.1-0.3,2-0.8,2.7c-0.5,0.7-1.3,1.2-2.2,1.4l1.3,2.3h-2l-1.1-2.3c-1-0.1-1.8-0.6-2.4-1.3C122.8,138.5,122.5,137.6,122.5,136.4z
		 M124.2,136.4c0,0.8,0.2,1.5,0.7,1.9s1,0.7,1.7,0.7c0.7,0,1.2-0.2,1.7-0.6c0.5-0.4,0.7-1.1,0.7-1.9v-4.3c0-0.8-0.2-1.5-0.7-1.9
		s-1-0.7-1.7-0.7c-0.7,0-1.2,0.2-1.7,0.6c-0.5,0.4-0.7,1.1-0.7,1.9V136.4z"/>
</g>
<g enable-background="new    ">
	<path fill="#FFFFFF" d="M132.6,136.4v-8.2h1.7v8.3c0,0.4,0.1,0.8,0.2,1.2c0.1,0.3,0.3,0.6,0.5,0.8c0.2,0.2,0.5,0.4,0.8,0.5
		s0.6,0.2,0.9,0.2c0.7,0,1.3-0.2,1.7-0.7c0.5-0.4,0.7-1.1,0.7-1.9v-8.3h1.7v8.2c0,1.3-0.4,2.3-1.2,3.1c-0.8,0.8-1.8,1.2-3,1.2
		c-1.2,0-2.2-0.4-3-1.2C133,138.7,132.6,137.6,132.6,136.4z"/>
	<path fill="#FFFFFF" d="M143.3,140.5v-12.3h6.9v1.7H145v3.7h3.8v1.5H145v3.8h5.1v1.7H143.3z"/>
</g>
<g enable-background="new    ">
	<path fill="#FFFFFF" d="M151.9,140.5v-12.3h1.6l5,8.9v-8.9h1.7v12.3h-1.6l-5-8.9v8.9H151.9z"/>
	<path fill="#FFFFFF" d="M162,129.8v-1.7h7.7v1.7h-3v10.7H165v-10.7H162z"/>
</g>
<g enable-background="new    ">
	<path fill="#FFFFFF" d="M95.7,146.9v-1.7h7.7v1.7h-3v10.7h-1.7v-10.7H95.7z"/>
</g>
<g enable-background="new    ">
	<path fill="#FFFFFF" d="M105,157.5v-12.3h1.7v5.4h4.5v-5.4h1.7v12.3h-1.7v-5.4h-4.5v5.4H105z"/>
</g>
<g enable-background="new    ">
	<path fill="#FFFFFF" d="M114.2,157.5l4-12.3h1.9l3.9,12.3h-1.8l-0.8-2.8h-4.6l-0.8,2.8H114.2z M117.3,153.3h3.7l-1.8-6.2
		L117.3,153.3z"/>
</g>
<g enable-background="new    ">
	<path fill="#FFFFFF" d="M125.3,157.5v-12.3h1.6l5,8.9v-8.9h1.7v12.3H132l-5-8.9v8.9H125.3z"/>
</g>
<g enable-background="new    ">
	<path fill="#FFFFFF" d="M139.8,157.5v-12.3h1.7l3.4,8l3.4-8h1.7v12.3h-1.7V149l-2.8,6.4h-1.2l-2.8-6.4v8.5H139.8z"/>
</g>
<g enable-background="new    ">
	<path fill="#FFFFFF" d="M152.2,157.5v-12.3h1.7v12.3H152.2z"/>
</g>
<g enable-background="new    ">
	<path fill="#CE009F" d="M19.5,167.7c-0.2-0.2-0.2-0.4-0.2-0.6s0.1-0.4,0.2-0.6c0.2-0.2,0.4-0.2,0.6-0.2s0.4,0.1,0.6,0.2
		s0.2,0.4,0.2,0.6s-0.1,0.4-0.2,0.6s-0.4,0.2-0.6,0.2S19.7,167.9,19.5,167.7z M19.5,177v-7.9h1.3v7.9H19.5z"/>
	<path fill="#CE009F" d="M22.5,177v-7.9h1.2v1.1c0.1-0.3,0.4-0.6,0.8-0.8c0.4-0.2,0.8-0.4,1.4-0.4c0.8,0,1.4,0.3,1.9,0.8
		c0.5,0.5,0.7,1.3,0.7,2.3v4.9h-1.3v-4.8c0-0.7-0.1-1.2-0.4-1.6s-0.7-0.5-1.3-0.5c-0.6,0-1,0.2-1.3,0.5s-0.4,0.9-0.4,1.7v4.7H22.5z"
		/>
</g>
<g enable-background="new    ">
	<path fill="#CE009F" d="M32.2,169.1h1.4l1.5,5.8l1.5-5.8h1.1l1.5,5.8l1.5-5.8h1.4l-2.2,7.9h-1.3l-1.5-5.7l-1.5,5.7h-1.2L32.2,169.1
		z"/>
</g>
<g enable-background="new    ">
	<path fill="#CE009F" d="M42.6,174v-1.9c0-0.9,0.3-1.7,0.8-2.3s1.3-0.8,2.2-0.8c0.9,0,1.6,0.3,2.2,0.8c0.5,0.6,0.8,1.3,0.8,2.3v1.9
		c0,1-0.3,1.7-0.8,2.3c-0.5,0.6-1.2,0.8-2.2,0.8c-0.9,0-1.7-0.3-2.2-0.8S42.6,175,42.6,174z M43.9,174.1c0,0.6,0.1,1,0.4,1.3
		c0.3,0.3,0.7,0.5,1.2,0.5c0.5,0,0.9-0.2,1.2-0.5s0.5-0.7,0.5-1.3V172c0-0.6-0.1-1-0.4-1.3s-0.7-0.5-1.2-0.5c-0.5,0-0.9,0.2-1.2,0.5
		s-0.5,0.7-0.5,1.3V174.1z"/>
</g>
<g enable-background="new    ">
	<path fill="#CE009F" d="M50,177v-7.9h1.2v0.9c0.1-0.3,0.3-0.5,0.6-0.7s0.7-0.3,1.2-0.3c0.4,0,0.8,0.1,1.2,0.3
		c0.3,0.2,0.6,0.5,0.8,0.9c0.1-0.4,0.4-0.6,0.8-0.9c0.4-0.2,0.8-0.4,1.3-0.4c0.7,0,1.2,0.2,1.6,0.7s0.5,1.2,0.5,2.1v5.2h-1.3v-5.4
		c0-0.5-0.1-0.9-0.3-1.1c-0.2-0.3-0.6-0.4-1-0.4c-0.4,0-0.8,0.1-1,0.4c-0.2,0.3-0.3,0.6-0.3,1.1v5.5H54v-5.4c0-0.5-0.1-0.9-0.3-1.1
		c-0.2-0.3-0.6-0.4-1-0.4c-0.4,0-0.8,0.1-1,0.4c-0.2,0.2-0.3,0.6-0.3,1.1v5.5H50z"/>
	<path fill="#CE009F" d="M60.7,174v-1.9c0-1,0.3-1.7,0.8-2.3s1.3-0.8,2.2-0.8s1.7,0.3,2.2,0.8s0.8,1.3,0.8,2.2v1.4H62v0.9
		c0,0.5,0.2,1,0.5,1.3c0.3,0.3,0.7,0.5,1.2,0.5s0.9-0.1,1.2-0.4s0.5-0.6,0.5-1.1v-0.1h1.3v0.1c0,0.7-0.3,1.4-0.8,1.9
		c-0.5,0.5-1.3,0.8-2.2,0.8c-0.9,0-1.7-0.3-2.2-0.8C61,175.7,60.7,175,60.7,174z M62,172.4h3.3V172c0-0.6-0.1-1.1-0.4-1.4
		c-0.3-0.3-0.7-0.5-1.2-0.5c-0.5,0-0.9,0.2-1.2,0.5c-0.3,0.3-0.4,0.7-0.4,1.3V172.4z"/>
	<path fill="#CE009F" d="M68.2,177v-7.9h1.2v1.1c0.1-0.3,0.4-0.6,0.8-0.8c0.4-0.2,0.8-0.4,1.4-0.4c0.8,0,1.4,0.3,1.9,0.8
		c0.5,0.5,0.7,1.3,0.7,2.3v4.9h-1.3v-4.8c0-0.7-0.1-1.2-0.4-1.6s-0.7-0.5-1.3-0.5c-0.6,0-1,0.2-1.3,0.5s-0.4,0.9-0.4,1.7v4.7H68.2z"
		/>
	<path fill="#CE009F" d="M78.6,174v-1.9c0-0.9,0.3-1.7,0.8-2.3s1.3-0.8,2.2-0.8c0.9,0,1.6,0.3,2.2,0.8c0.5,0.6,0.8,1.3,0.8,2.3v1.9
		c0,1-0.3,1.7-0.8,2.3c-0.5,0.6-1.2,0.8-2.2,0.8c-0.9,0-1.7-0.3-2.2-0.8S78.6,175,78.6,174z M79.9,174.1c0,0.6,0.1,1,0.4,1.3
		c0.3,0.3,0.7,0.5,1.2,0.5c0.5,0,0.9-0.2,1.2-0.5s0.5-0.7,0.5-1.3V172c0-0.6-0.1-1-0.4-1.3s-0.7-0.5-1.2-0.5c-0.5,0-0.9,0.2-1.2,0.5
		s-0.5,0.7-0.5,1.3V174.1z"/>
</g>
<g enable-background="new    ">
	<path fill="#CE009F" d="M85.6,177v-10.5h1.3V177H85.6z"/>
	<path fill="#CE009F" d="M88.5,174v-2c0-1,0.2-1.7,0.7-2.3c0.5-0.5,1.1-0.8,1.9-0.8c0.5,0,1,0.1,1.3,0.3c0.3,0.2,0.6,0.5,0.7,0.8
		v-3.6h1.4V177h-1.2v-1.1c-0.1,0.2-0.2,0.3-0.3,0.4c-0.1,0.1-0.2,0.3-0.4,0.4s-0.4,0.2-0.6,0.3c-0.2,0.1-0.5,0.1-0.8,0.1
		c-0.8,0-1.4-0.3-1.9-0.8C88.7,175.8,88.5,175,88.5,174z M89.8,173.8c0,0.7,0.1,1.2,0.4,1.6c0.3,0.4,0.7,0.6,1.2,0.6
		c0.5,0,0.9-0.2,1.2-0.6c0.3-0.4,0.4-0.9,0.4-1.6v-1.7c0-0.7-0.1-1.2-0.4-1.5s-0.7-0.5-1.2-0.5c-0.5,0-1,0.2-1.2,0.6
		c-0.3,0.4-0.4,0.9-0.4,1.6V173.8z"/>
</g>
<g enable-background="new    ">
	<path fill="#CE009F" d="M95.7,174v-1.9c0-1,0.3-1.7,0.8-2.3s1.3-0.8,2.2-0.8s1.7,0.3,2.2,0.8s0.8,1.3,0.8,2.2v1.4H97v0.9
		c0,0.5,0.2,1,0.5,1.3c0.3,0.3,0.7,0.5,1.2,0.5s0.9-0.1,1.2-0.4s0.5-0.6,0.5-1.1v-0.1h1.3v0.1c0,0.7-0.3,1.4-0.8,1.9
		c-0.5,0.5-1.3,0.8-2.2,0.8c-0.9,0-1.7-0.3-2.2-0.8C96,175.7,95.7,175,95.7,174z M97,172.4h3.3V172c0-0.6-0.1-1.1-0.4-1.4
		c-0.3-0.3-0.7-0.5-1.2-0.5c-0.5,0-0.9,0.2-1.2,0.5c-0.3,0.3-0.4,0.7-0.4,1.3V172.4z"/>
	<path fill="#CE009F" d="M103.2,177v-7.9h1.2v1.4c0.1-0.4,0.3-0.7,0.7-1.1c0.4-0.3,0.8-0.5,1.3-0.5h0.2v1.3h-0.2
		c-0.7,0-1.2,0.2-1.5,0.5s-0.5,0.9-0.5,1.6v4.5H103.2z"/>
	<path fill="#CE009F" d="M110.6,169.2c0.5,0,0.8-0.1,1-0.4c0.2-0.3,0.3-0.7,0.3-1.3h0.8v1.6h1.7v1.1h-1.7v3.6c0,0.2,0,0.4,0,0.5
		c0,0.1,0,0.3,0,0.4s0,0.3,0,0.3s0,0.2,0.1,0.3s0.1,0.2,0.1,0.2c0,0,0.1,0.1,0.2,0.1s0.1,0.1,0.2,0.1c0.1,0,0.2,0,0.3,0s0.2,0,0.4,0
		s0.3,0,0.5,0v1.2c-0.3,0-0.5,0-0.7,0c-0.4,0-0.7,0-1-0.1c-0.3-0.1-0.5-0.2-0.7-0.4c-0.2-0.2-0.3-0.4-0.4-0.6
		c-0.1-0.3-0.2-0.5-0.2-0.8s-0.1-0.6-0.1-1v-3.8h-0.8L110.6,169.2z"/>
	<path fill="#CE009F" d="M115.9,177v-10.5h1.3v3.8c0.1-0.4,0.4-0.7,0.8-0.9s0.8-0.3,1.3-0.3c0.7,0,1.3,0.2,1.8,0.7
		c0.5,0.5,0.7,1.2,0.7,2.2v5.1h-1.3v-4.8c0-0.7-0.1-1.2-0.4-1.6s-0.7-0.5-1.3-0.5c-0.6,0-1.1,0.2-1.3,0.5c-0.2,0.3-0.4,0.9-0.4,1.7
		v4.7H115.9z"/>
	<path fill="#CE009F" d="M123.3,174v-2c0-1,0.2-1.7,0.7-2.3c0.5-0.5,1.1-0.8,1.8-0.8c0.5,0,1,0.1,1.4,0.4c0.4,0.2,0.6,0.5,0.8,0.8
		v-1.1h1.2v7.9H128v-1.1c-0.1,0.3-0.4,0.6-0.8,0.8s-0.8,0.4-1.4,0.4c-0.8,0-1.4-0.3-1.9-0.8C123.6,175.8,123.3,175,123.3,174z
		 M124.6,173.8c0,0.7,0.1,1.3,0.4,1.6c0.3,0.4,0.7,0.5,1.2,0.5c0.5,0,0.9-0.2,1.2-0.6s0.4-0.9,0.4-1.6v-1.7c0-0.7-0.1-1.2-0.4-1.6
		c-0.3-0.4-0.7-0.5-1.2-0.5c-0.5,0-1,0.2-1.2,0.5c-0.3,0.4-0.4,0.9-0.4,1.6V173.8z"/>
	<path fill="#CE009F" d="M131.1,177v-7.9h1.2v1.1c0.1-0.3,0.4-0.6,0.8-0.8c0.4-0.2,0.8-0.4,1.4-0.4c0.8,0,1.4,0.3,1.9,0.8
		c0.5,0.5,0.7,1.3,0.7,2.3v4.9h-1.3v-4.8c0-0.7-0.1-1.2-0.4-1.6s-0.7-0.5-1.3-0.5c-0.6,0-1,0.2-1.3,0.5s-0.4,0.9-0.4,1.7v4.7H131.1z
		"/>
</g>
<g enable-background="new    ">
	<path fill="#CE009F" d="M140.5,173.7h1.4c0,0.7,0.2,1.3,0.5,1.6c0.3,0.4,0.8,0.5,1.4,0.5c0.6,0,1-0.2,1.4-0.5s0.6-0.7,0.6-1.3
		c0-0.5-0.2-0.9-0.5-1.2c-0.3-0.3-0.8-0.4-1.3-0.4h-1.3v-1.2h1.3c0.5,0,0.9-0.1,1.2-0.4s0.5-0.7,0.5-1.1c0-0.6-0.2-1-0.5-1.3
		c-0.4-0.3-0.8-0.4-1.4-0.4c-0.6,0-1,0.2-1.4,0.5c-0.3,0.3-0.5,0.9-0.5,1.6h-1.4c0-1,0.3-1.8,0.9-2.4s1.4-0.9,2.4-0.9
		c0.9,0,1.7,0.3,2.3,0.8c0.6,0.5,0.9,1.2,0.9,2c0,0.5-0.1,1-0.4,1.4c-0.3,0.4-0.6,0.7-1.1,0.8c0.5,0.1,0.8,0.4,1.1,0.7
		c0.3,0.4,0.5,0.8,0.5,1.4c0,0.9-0.3,1.7-0.9,2.2c-0.6,0.6-1.4,0.8-2.4,0.8c-1,0-1.8-0.3-2.4-0.9
		C140.8,175.6,140.5,174.8,140.5,173.7z"/>
</g>
<g enable-background="new    ">
	<path fill="#CE009F" d="M148.4,173.7h1.4c0,0.7,0.2,1.2,0.5,1.6c0.3,0.3,0.8,0.5,1.4,0.5c0.3,0,0.5,0,0.7-0.1
		c0.2-0.1,0.4-0.2,0.6-0.4c0.2-0.2,0.3-0.4,0.4-0.6c0.1-0.3,0.2-0.6,0.2-0.9v-0.4c0-0.6-0.2-1-0.6-1.3c-0.4-0.3-0.8-0.5-1.4-0.5
		c-0.8,0-1.4,0.3-1.8,1l-1.3-0.3l0.9-5.2h5v1.3h-3.8l-0.5,2.6c0.2-0.2,0.4-0.4,0.8-0.6s0.7-0.2,1.1-0.2c0.9,0,1.6,0.3,2.1,0.8
		s0.8,1.3,0.8,2.3v0.4c0,1-0.3,1.8-0.9,2.4c-0.6,0.6-1.4,0.9-2.4,0.9c-1,0-1.8-0.3-2.4-1C148.7,175.5,148.4,174.7,148.4,173.7z"/>
</g>
<g enable-background="new    ">
	<path fill="#CE009F" d="M158.8,169.1h1.5l1.9,6.1l1.9-6.1h1.4l-3.6,10.5h-1.4l0.9-2.7L158.8,169.1z"/>
</g>
<g enable-background="new    ">
	<path fill="#CE009F" d="M166.1,174v-1.9c0-1,0.3-1.7,0.8-2.3s1.3-0.8,2.2-0.8s1.7,0.3,2.2,0.8s0.8,1.3,0.8,2.2v1.4h-4.6v0.9
		c0,0.5,0.2,1,0.5,1.3c0.3,0.3,0.7,0.5,1.2,0.5c0.5,0,0.9-0.1,1.2-0.4c0.3-0.3,0.5-0.6,0.5-1.1v-0.1h1.3v0.1c0,0.7-0.3,1.4-0.8,1.9
		c-0.5,0.5-1.3,0.8-2.2,0.8c-0.9,0-1.7-0.3-2.2-0.8C166.4,175.7,166.1,175,166.1,174z M167.4,172.4h3.3V172c0-0.6-0.1-1.1-0.4-1.4
		c-0.3-0.3-0.7-0.5-1.2-0.5c-0.5,0-0.9,0.2-1.2,0.5c-0.3,0.3-0.4,0.7-0.4,1.3V172.4z"/>
</g>
<g enable-background="new    ">
	<path fill="#CE009F" d="M173.2,174v-2c0-1,0.2-1.7,0.7-2.3s1.1-0.8,1.8-0.8c0.5,0,1,0.1,1.4,0.4c0.4,0.2,0.6,0.5,0.8,0.8v-1.1h1.2
		v7.9h-1.2v-1.1c-0.1,0.3-0.4,0.6-0.8,0.8c-0.4,0.2-0.8,0.4-1.4,0.4c-0.8,0-1.4-0.3-1.9-0.8S173.2,175,173.2,174z M174.5,173.8
		c0,0.7,0.1,1.3,0.4,1.6c0.3,0.4,0.7,0.5,1.2,0.5c0.5,0,0.9-0.2,1.2-0.6c0.3-0.4,0.4-0.9,0.4-1.6v-1.7c0-0.7-0.1-1.2-0.4-1.6
		c-0.3-0.4-0.7-0.5-1.2-0.5c-0.5,0-1,0.2-1.2,0.5c-0.3,0.4-0.4,0.9-0.4,1.6V173.8z"/>
</g>
<g enable-background="new    ">
	<path fill="#CE009F" d="M180.8,177v-7.9h1.2v1.4c0.1-0.4,0.3-0.7,0.7-1.1c0.4-0.3,0.8-0.5,1.3-0.5h0.2v1.3h-0.2
		c-0.7,0-1.2,0.2-1.5,0.5s-0.5,0.9-0.5,1.6v4.5H180.8z"/>
</g>
<g enable-background="new    ">
	<path fill="#CE009F" d="M184.7,174.3h1.3c0,0.6,0.2,1,0.5,1.3c0.3,0.3,0.7,0.4,1.3,0.4c0.5,0,0.8-0.1,1.2-0.3s0.5-0.5,0.5-0.9
		c0-0.2-0.1-0.4-0.2-0.5s-0.3-0.3-0.5-0.3c-0.2-0.1-0.4-0.2-0.7-0.2c-0.3-0.1-0.5-0.1-0.8-0.2c-0.3-0.1-0.5-0.2-0.8-0.3
		s-0.5-0.3-0.7-0.4c-0.2-0.2-0.4-0.4-0.5-0.6c-0.1-0.3-0.2-0.6-0.2-0.9c0-0.7,0.2-1.2,0.7-1.6c0.5-0.4,1.2-0.6,2-0.6
		c1,0,1.7,0.2,2.2,0.7c0.5,0.5,0.7,1.1,0.7,2h-1.2c0-0.6-0.1-1-0.4-1.3c-0.3-0.3-0.7-0.4-1.2-0.4c-0.5,0-0.9,0.1-1.1,0.3
		c-0.2,0.2-0.4,0.5-0.4,0.8c0,0.3,0.1,0.5,0.2,0.7s0.4,0.3,0.6,0.4c0.3,0.1,0.5,0.2,0.9,0.3s0.6,0.2,0.9,0.3
		c0.3,0.1,0.6,0.2,0.9,0.4c0.3,0.1,0.5,0.4,0.6,0.6c0.2,0.3,0.2,0.6,0.2,1c0,0.7-0.2,1.3-0.7,1.7c-0.5,0.4-1.2,0.6-2.2,0.6
		c-0.9,0-1.7-0.3-2.2-0.8C185,175.8,184.7,175.2,184.7,174.3z"/>
</g>
<g enable-background="new    ">
	<path fill="#CE009F" d="M194,172.3v-1.4h-2.5v-0.7l2.6-3.6h0.6v3.7h0.8v0.6h-0.8v1.4H194z M194,170.3v-2.6l-1.8,2.6H194z"/>
</g>
<g enable-background="new    ">
	<path fill="#CE009F" d="M198.3,166.9v1.5l1.5-0.5l0.3,0.8l-1.5,0.5l0.9,1.3l-0.7,0.5l-0.9-1.3L197,171l-0.7-0.5l0.9-1.3l-1.5-0.5
		l0.3-0.8l1.5,0.5v-1.5H198.3z"/>
</g>
<g enable-background="new    ">
	<path fill="#FFFFFF" d="M96.5,232.6v-12.3h1.7l3.4,8l3.4-8h1.7v12.3H105V224l-2.8,6.4H101l-2.8-6.4v8.5H96.5z"/>
	<path fill="#FFFFFF" d="M109,228.4v-4.2c0-1.3,0.4-2.3,1.1-3.1c0.8-0.8,1.8-1.2,3-1.2c1.2,0,2.2,0.4,3,1.2c0.8,0.8,1.2,1.8,1.2,3.1
		v4.2c0,1.3-0.4,2.3-1.1,3.1c-0.8,0.8-1.7,1.2-3,1.2c-1.2,0-2.2-0.4-3-1.2C109.4,230.7,109,229.7,109,228.4z M110.7,228.5
		c0,0.8,0.2,1.5,0.7,1.9s1,0.7,1.7,0.7c0.7,0,1.2-0.2,1.7-0.7c0.5-0.4,0.7-1.1,0.7-1.9v-4.3c0-0.8-0.2-1.5-0.7-1.9
		c-0.4-0.4-1-0.7-1.7-0.7c-0.7,0-1.2,0.2-1.7,0.7c-0.5,0.4-0.7,1.1-0.7,1.9V228.5z"/>
	<path fill="#FFFFFF" d="M119.5,232.6v-12.3h3.7c1.3,0,2.3,0.4,3,1.1c0.7,0.8,1.1,1.8,1.1,3.2v0.4c0,1-0.2,1.8-0.7,2.5
		s-1.1,1.1-2,1.3l2.6,3.9h-2L123,229h-1.8v3.6H119.5z M121.2,227.4h1.8c0.8,0,1.4-0.2,1.9-0.6s0.7-1,0.7-1.9v-0.4
		c0-1.7-0.9-2.6-2.6-2.6h-1.8V227.4z"/>
	<path fill="#FFFFFF" d="M129.4,232.6v-12.3h6.9v1.7h-5.1v3.7h3.8v1.5h-3.8v3.8h5.1v1.7H129.4z"/>
	<path fill="#FFFFFF" d="M142.2,232.6v-12.3h6.6v1.7H144v3.7h3.5v1.5H144v5.4H142.2z"/>
	<path fill="#FFFFFF" d="M150.8,232.6v-12.3h3.7c1.3,0,2.3,0.4,3,1.1c0.7,0.8,1.1,1.8,1.1,3.2v0.4c0,1-0.2,1.8-0.7,2.5
		s-1.1,1.1-2,1.3l2.6,3.9h-2l-2.3-3.6h-1.8v3.6H150.8z M152.6,227.4h1.8c0.8,0,1.4-0.2,1.9-0.6s0.7-1,0.7-1.9v-0.4
		c0-1.7-0.9-2.6-2.6-2.6h-1.8V227.4z"/>
</g>
<g enable-background="new    ">
	<path fill="#FFFFFF" d="M159,232.6v-12.3h6.9v1.7h-5.1v3.7h3.8v1.5h-3.8v3.8h5.1v1.7H159z"/>
</g>
<g enable-background="new    ">
	<path fill="#FFFFFF" d="M167.1,228.5v-4.2c0-1.3,0.4-2.3,1.1-3.1c0.8-0.8,1.8-1.2,3-1.2c1.2,0,2.2,0.4,3,1.2s1.1,1.8,1.1,3.1v4.2
		c0,1.1-0.3,2-0.8,2.7c-0.5,0.7-1.3,1.2-2.2,1.4l1.3,2.3h-2l-1.1-2.3c-1-0.1-1.8-0.6-2.4-1.3C167.4,230.6,167.1,229.6,167.1,228.5z
		 M168.8,228.5c0,0.8,0.2,1.5,0.7,1.9s1,0.7,1.7,0.7c0.7,0,1.2-0.2,1.7-0.6s0.7-1.1,0.7-1.9v-4.3c0-0.8-0.2-1.5-0.7-1.9
		s-1-0.7-1.7-0.7c-0.7,0-1.2,0.2-1.7,0.6c-0.5,0.4-0.7,1.1-0.7,1.9V228.5z"/>
</g>
<g enable-background="new    ">
	<path fill="#FFFFFF" d="M177.2,228.4v-8.2h1.7v8.3c0,0.4,0.1,0.8,0.2,1.2c0.1,0.3,0.3,0.6,0.5,0.8c0.2,0.2,0.5,0.4,0.8,0.5
		c0.3,0.1,0.6,0.2,0.9,0.2c0.7,0,1.3-0.2,1.7-0.7c0.5-0.4,0.7-1.1,0.7-1.9v-8.3h1.7v8.2c0,1.3-0.4,2.3-1.2,3.1
		c-0.8,0.8-1.8,1.2-3,1.2c-1.2,0-2.2-0.4-3-1.2C177.6,230.7,177.2,229.7,177.2,228.4z"/>
	<path fill="#FFFFFF" d="M187.9,232.6v-12.3h6.9v1.7h-5.1v3.7h3.8v1.5h-3.8v3.8h5.1v1.7H187.9z"/>
</g>
<g enable-background="new    ">
	<path fill="#FFFFFF" d="M196.4,232.6v-12.3h1.6l5,8.9v-8.9h1.7v12.3h-1.6l-5-8.9v8.9H196.4z"/>
</g>
<g enable-background="new    ">
	<path fill="#FFFFFF" d="M206.3,221.9v-1.7h7.7v1.7h-3v10.7h-1.7v-10.7H206.3z"/>
</g>
<g enable-background="new    ">
	<path fill="#FFFFFF" d="M218.6,221.9v-1.7h7.7v1.7h-3v10.7h-1.7v-10.7H218.6z"/>
</g>
<g enable-background="new    ">
	<path fill="#FFFFFF" d="M227.7,232.6v-12.3h1.7v5.4h4.5v-5.4h1.7v12.3h-1.7v-5.4h-4.5v5.4H227.7z"/>
</g>
<g enable-background="new    ">
	<path fill="#FFFFFF" d="M236.9,232.6l4-12.3h1.9l3.9,12.3h-1.8l-0.8-2.8h-4.6l-0.8,2.8H236.9z M240,228.3h3.7l-1.8-6.2L240,228.3z"
		/>
</g>
<g enable-background="new    ">
	<path fill="#FFFFFF" d="M248,232.6v-12.3h1.6l5,8.9v-8.9h1.7v12.3h-1.6l-5-8.9v8.9H248z"/>
</g>
<g enable-background="new    ">
	<path fill="#FFFFFF" d="M96.5,249.6v-12.3h6.9v1.7h-5.1v3.7h3.8v1.5h-3.8v3.8h5.1v1.7H96.5z"/>
</g>
<g enable-background="new    ">
	<path fill="#FFFFFF" d="M104.4,245.5h1.7c0,0.9,0.2,1.6,0.7,2s1,0.7,1.8,0.7c0.7,0,1.3-0.2,1.7-0.5c0.4-0.3,0.7-0.8,0.7-1.4
		c0-0.3-0.1-0.6-0.2-0.8s-0.3-0.4-0.6-0.6c-0.2-0.1-0.5-0.3-0.8-0.4c-0.3-0.1-0.6-0.2-1-0.3c-0.4-0.1-0.7-0.2-1.1-0.3
		c-0.4-0.1-0.7-0.3-1-0.4c-0.3-0.2-0.6-0.4-0.8-0.6c-0.2-0.2-0.4-0.5-0.6-0.9s-0.2-0.8-0.2-1.3c0-1.1,0.3-2,1-2.6s1.6-0.9,2.9-0.9
		c1.3,0,2.3,0.4,3.1,1.1c0.7,0.7,1.1,1.8,1.1,3.1h-1.8c0-0.8-0.2-1.5-0.6-1.9c-0.4-0.4-1-0.7-1.7-0.7c-0.7,0-1.2,0.2-1.6,0.5
		c-0.4,0.3-0.6,0.8-0.6,1.4c0,0.3,0.1,0.6,0.2,0.8s0.3,0.4,0.6,0.6c0.2,0.1,0.5,0.3,0.8,0.4s0.7,0.2,1,0.3s0.7,0.2,1.1,0.3
		c0.4,0.1,0.7,0.3,1,0.4s0.6,0.4,0.8,0.6s0.4,0.5,0.6,0.9c0.1,0.4,0.2,0.8,0.2,1.3c0,1.1-0.4,2-1.1,2.7c-0.7,0.6-1.7,0.9-3,0.9
		c-1.3,0-2.3-0.4-3-1.1S104.4,246.9,104.4,245.5z"/>
</g>
<g enable-background="new    ">
	<path fill="#FFFFFF" d="M113.4,238.9v-1.7h7.7v1.7h-3v10.7h-1.7v-10.7H113.4z"/>
</g>
<g enable-background="new    ">
	<path fill="#FFFFFF" d="M122.7,249.6v-12.3h1.7v12.3H122.7z"/>
	<path fill="#FFFFFF" d="M127,249.6v-12.3h1.7l3.4,8l3.4-8h1.7v12.3h-1.7V241l-2.8,6.4h-1.2l-2.8-6.4v8.5H127z"/>
</g>
<g enable-background="new    ">
	<path fill="#FFFFFF" d="M138.3,249.6l4-12.3h1.9l3.9,12.3h-1.8l-0.8-2.8h-4.6l-0.8,2.8H138.3z M141.4,245.3h3.7l-1.8-6.2
		L141.4,245.3z"/>
</g>
<g enable-background="new    ">
	<path fill="#FFFFFF" d="M147.7,238.9v-1.7h7.7v1.7h-3v10.7h-1.7v-10.7H147.7z"/>
</g>
<g enable-background="new    ">
	<path fill="#FFFFFF" d="M156.9,249.6v-12.3h6.9v1.7h-5.1v3.7h3.8v1.5h-3.8v3.8h5.1v1.7H156.9z"/>
	<path fill="#FFFFFF" d="M165.9,249.6v-12.3h3.9c1.3,0,2.3,0.4,3,1.2c0.8,0.8,1.1,1.9,1.1,3.4v3.2c0,1.5-0.4,2.6-1.1,3.4
		s-1.8,1.2-3,1.2H165.9z M167.6,247.9h2.1c0.4,0,0.7-0.1,1-0.2c0.3-0.1,0.6-0.3,0.8-0.5c0.2-0.2,0.4-0.6,0.6-1
		c0.1-0.4,0.2-1,0.2-1.6v-2.4c0-0.6-0.1-1.1-0.2-1.6c-0.1-0.4-0.3-0.8-0.6-1c-0.2-0.2-0.5-0.4-0.8-0.5c-0.3-0.1-0.7-0.2-1-0.2h-2.1
		V247.9z"/>
</g>
<g enable-background="new    ">
	<path fill="#FFFFFF" d="M179.4,249.6v-12.3h1.6l5,8.9v-8.9h1.7v12.3h-1.6l-5-8.9v8.9H179.4z"/>
</g>
<g enable-background="new    ">
	<path fill="#FFFFFF" d="M190.1,249.6v-12.3h6.9v1.7h-5.1v3.7h3.8v1.5h-3.8v3.8h5.1v1.7H190.1z"/>
	<path fill="#FFFFFF" d="M198.1,237.3h1.7l2.3,9.2l2.2-9.2h1.5l2.2,9.2l2.3-9.2h1.7l-3.1,12.3h-1.7l-2.1-9.1l-2.2,9.1h-1.7
		L198.1,237.3z"/>
</g>
<g enable-background="new    ">
	<path fill="#FFFFFF" d="M216.3,245.5v-4.2c0-1.3,0.4-2.3,1.1-3.1c0.8-0.8,1.8-1.2,3-1.2c1.3,0,2.3,0.4,3,1.3
		c0.7,0.8,1.1,1.9,1.1,3.3h-1.7c0-0.4-0.1-0.8-0.2-1.1s-0.2-0.6-0.4-0.9s-0.4-0.5-0.7-0.6c-0.3-0.2-0.7-0.2-1.1-0.2
		c-0.7,0-1.2,0.2-1.7,0.6c-0.5,0.4-0.7,1.1-0.7,1.9v4.3c0,0.8,0.2,1.5,0.7,1.9s1,0.7,1.7,0.7c0.4,0,0.7-0.1,1-0.2
		c0.3-0.1,0.5-0.3,0.7-0.5c0.2-0.2,0.3-0.4,0.4-0.7c0.1-0.3,0.2-0.5,0.2-0.8c0-0.3,0.1-0.5,0.1-0.8h1.7c0,1.4-0.4,2.5-1.1,3.4
		c-0.7,0.9-1.7,1.3-3,1.3c-1.2,0-2.2-0.4-3-1.2C216.7,247.8,216.3,246.8,216.3,245.5z"/>
</g>
<g enable-background="new    ">
	<path fill="#FFFFFF" d="M225,249.6l4-12.3h1.9l3.9,12.3H233l-0.8-2.8h-4.6l-0.8,2.8H225z M228.1,245.3h3.7l-1.8-6.2L228.1,245.3z"
		/>
</g>
<g enable-background="new    ">
	<path fill="#FFFFFF" d="M235.3,245.5h1.7c0,0.9,0.2,1.6,0.7,2c0.4,0.4,1,0.7,1.8,0.7c0.7,0,1.3-0.2,1.7-0.5
		c0.4-0.3,0.7-0.8,0.7-1.4c0-0.3-0.1-0.6-0.2-0.8c-0.1-0.2-0.3-0.4-0.6-0.6c-0.2-0.1-0.5-0.3-0.8-0.4c-0.3-0.1-0.7-0.2-1-0.3
		c-0.4-0.1-0.7-0.2-1.1-0.3c-0.4-0.1-0.7-0.3-1-0.4c-0.3-0.2-0.6-0.4-0.8-0.6c-0.2-0.2-0.4-0.5-0.6-0.9c-0.1-0.4-0.2-0.8-0.2-1.3
		c0-1.1,0.3-2,1-2.6c0.7-0.6,1.6-0.9,2.9-0.9c1.3,0,2.3,0.4,3.1,1.1c0.7,0.7,1.1,1.8,1.1,3.1h-1.8c0-0.8-0.2-1.5-0.6-1.9
		c-0.4-0.4-1-0.7-1.7-0.7c-0.7,0-1.2,0.2-1.6,0.5c-0.4,0.3-0.6,0.8-0.6,1.4c0,0.3,0.1,0.6,0.2,0.8c0.1,0.2,0.3,0.4,0.6,0.6
		s0.5,0.3,0.8,0.4s0.7,0.2,1,0.3s0.7,0.2,1.1,0.3c0.4,0.1,0.7,0.3,1,0.4c0.3,0.2,0.6,0.4,0.8,0.6s0.4,0.5,0.6,0.9
		c0.1,0.4,0.2,0.8,0.2,1.3c0,1.1-0.4,2-1.1,2.7c-0.7,0.6-1.7,0.9-3,0.9c-1.3,0-2.3-0.4-3-1.1S235.3,246.9,235.3,245.5z"/>
</g>
<g enable-background="new    ">
	<path fill="#FFFFFF" d="M245.4,249.6v-12.3h6.9v1.7h-5.1v3.7h3.8v1.5h-3.8v3.8h5.1v1.7H245.4z"/>
</g>
<g enable-background="new    ">
	<path fill="#FFFFFF" d="M253.4,245.5h1.7c0,0.9,0.2,1.6,0.7,2c0.4,0.4,1,0.7,1.8,0.7c0.7,0,1.3-0.2,1.7-0.5
		c0.4-0.3,0.7-0.8,0.7-1.4c0-0.3-0.1-0.6-0.2-0.8c-0.1-0.2-0.3-0.4-0.6-0.6c-0.2-0.1-0.5-0.3-0.8-0.4c-0.3-0.1-0.6-0.2-1-0.3
		c-0.4-0.1-0.7-0.2-1.1-0.3c-0.4-0.1-0.7-0.3-1-0.4c-0.3-0.2-0.6-0.4-0.8-0.6c-0.2-0.2-0.4-0.5-0.6-0.9c-0.1-0.4-0.2-0.8-0.2-1.3
		c0-1.1,0.3-2,1-2.6c0.7-0.6,1.6-0.9,2.9-0.9c1.3,0,2.3,0.4,3.1,1.1c0.7,0.7,1.1,1.8,1.1,3.1h-1.8c0-0.8-0.2-1.5-0.6-1.9
		c-0.4-0.4-1-0.7-1.7-0.7c-0.7,0-1.2,0.2-1.6,0.5c-0.4,0.3-0.6,0.8-0.6,1.4c0,0.3,0.1,0.6,0.2,0.8c0.1,0.2,0.3,0.4,0.6,0.6
		c0.2,0.1,0.5,0.3,0.8,0.4s0.7,0.2,1,0.3s0.7,0.2,1.1,0.3c0.4,0.1,0.7,0.3,1,0.4c0.3,0.2,0.6,0.4,0.8,0.6s0.4,0.5,0.6,0.9
		s0.2,0.8,0.2,1.3c0,1.1-0.4,2-1.1,2.7s-1.7,0.9-3,0.9c-1.3,0-2.3-0.4-3-1.1S253.4,246.9,253.4,245.5z"/>
</g>
<g enable-background="new    ">
	<path fill="#FFFFFF" d="M96.1,262.5v-4.2c0-1.3,0.4-2.3,1.1-3.1c0.8-0.8,1.8-1.2,3-1.2c1.2,0,2.2,0.4,3,1.2
		c0.8,0.8,1.2,1.8,1.2,3.1v4.2c0,1.3-0.4,2.3-1.1,3.1c-0.8,0.8-1.7,1.2-3,1.2c-1.2,0-2.2-0.4-3-1.2
		C96.5,264.8,96.1,263.8,96.1,262.5z M97.8,262.6c0,0.8,0.2,1.5,0.7,1.9s1,0.7,1.7,0.7c0.7,0,1.2-0.2,1.7-0.7
		c0.5-0.4,0.7-1.1,0.7-1.9v-4.3c0-0.8-0.2-1.5-0.7-1.9c-0.4-0.4-1-0.7-1.7-0.7c-0.7,0-1.2,0.2-1.7,0.7c-0.5,0.4-0.7,1.1-0.7,1.9
		V262.6z"/>
</g>
<g enable-background="new    ">
	<path fill="#FFFFFF" d="M106.4,266.6v-12.3h6.6v1.7h-4.9v3.7h3.5v1.5h-3.5v5.4H106.4z"/>
	<path fill="#FFFFFF" d="M118.8,266.6v-12.3h3.7c1.3,0,2.3,0.3,3,0.8s1.1,1.3,1.1,2.5v0.2c0,1.4-0.6,2.3-1.8,2.7
		c1.2,0.4,1.9,1.3,1.9,2.7v0.1c0,1.1-0.4,2-1.1,2.5c-0.7,0.5-1.7,0.8-3,0.8H118.8z M120.5,259.8h2.4c0.6,0,1.1-0.1,1.4-0.4
		c0.3-0.3,0.5-0.7,0.5-1.3v-0.2c0-0.7-0.2-1.1-0.6-1.4s-1-0.4-1.8-0.4h-1.9V259.8z M120.5,265h2c0.7,0,1.3-0.1,1.7-0.4
		c0.4-0.3,0.6-0.8,0.6-1.4v-0.2c0-0.6-0.2-1.1-0.6-1.3c-0.4-0.3-0.9-0.4-1.6-0.4h-2.2V265z"/>
	<path fill="#FFFFFF" d="M128.8,266.6v-12.3h3.7c1.3,0,2.3,0.4,3,1.1c0.7,0.8,1.1,1.8,1.1,3.2v0.4c0,1-0.2,1.8-0.7,2.5
		s-1.1,1.1-2,1.3l2.6,3.9h-2l-2.3-3.6h-1.8v3.6H128.8z M130.5,261.5h1.8c0.8,0,1.4-0.2,1.9-0.6s0.7-1,0.7-1.9v-0.4
		c0-1.7-0.9-2.6-2.6-2.6h-1.8V261.5z"/>
</g>
<g enable-background="new    ">
	<path fill="#FFFFFF" d="M137.7,266.6v-12.3h6.9v1.7h-5.1v3.7h3.8v1.5h-3.8v3.8h5.1v1.7H137.7z"/>
</g>
<g enable-background="new    ">
	<path fill="#FFFFFF" d="M145.3,266.6l4-12.3h1.9l3.9,12.3h-1.8l-0.8-2.8h-4.6l-0.8,2.8H145.3z M148.4,262.4h3.7l-1.8-6.2
		L148.4,262.4z"/>
</g>
<g enable-background="new    ">
	<path fill="#FFFFFF" d="M155.6,262.6h1.7c0,0.9,0.2,1.6,0.7,2c0.4,0.4,1,0.7,1.8,0.7c0.7,0,1.3-0.2,1.7-0.5
		c0.4-0.3,0.7-0.8,0.7-1.4c0-0.3-0.1-0.6-0.2-0.8c-0.1-0.2-0.3-0.4-0.6-0.6c-0.2-0.1-0.5-0.3-0.8-0.4c-0.3-0.1-0.7-0.2-1-0.3
		c-0.4-0.1-0.7-0.2-1.1-0.3c-0.4-0.1-0.7-0.3-1-0.4c-0.3-0.2-0.6-0.4-0.8-0.6c-0.2-0.2-0.4-0.5-0.6-0.9c-0.1-0.4-0.2-0.8-0.2-1.3
		c0-1.1,0.3-2,1-2.6c0.7-0.6,1.6-0.9,2.9-0.9c1.3,0,2.3,0.4,3.1,1.1c0.7,0.7,1.1,1.8,1.1,3.1H162c0-0.8-0.2-1.5-0.6-1.9
		c-0.4-0.4-1-0.7-1.7-0.7c-0.7,0-1.2,0.2-1.6,0.5c-0.4,0.3-0.6,0.8-0.6,1.4c0,0.3,0.1,0.6,0.2,0.8c0.1,0.2,0.3,0.4,0.6,0.6
		s0.5,0.3,0.8,0.4s0.7,0.2,1,0.3s0.7,0.2,1.1,0.3c0.4,0.1,0.7,0.3,1,0.4c0.3,0.2,0.6,0.4,0.8,0.6s0.4,0.5,0.6,0.9
		c0.1,0.4,0.2,0.8,0.2,1.3c0,1.1-0.4,2-1.1,2.7c-0.7,0.6-1.7,0.9-3,0.9c-1.3,0-2.3-0.4-3-1.1S155.6,263.9,155.6,262.6z"/>
</g>
<g enable-background="new    ">
	<path fill="#FFFFFF" d="M164.6,256v-1.7h7.7v1.7h-3v10.7h-1.7V256H164.6z"/>
</g>
<g enable-background="new    ">
	<path fill="#FFFFFF" d="M177.1,262.5v-4.2c0-1.3,0.4-2.3,1.1-3.1s1.8-1.2,3-1.2c1.3,0,2.3,0.4,3,1.3c0.7,0.8,1.1,1.9,1.1,3.3h-1.7
		c0-0.4-0.1-0.8-0.2-1.1c-0.1-0.3-0.2-0.6-0.4-0.9s-0.4-0.5-0.7-0.6s-0.7-0.2-1.1-0.2c-0.7,0-1.2,0.2-1.7,0.6
		c-0.5,0.4-0.7,1.1-0.7,1.9v4.3c0,0.8,0.2,1.5,0.7,1.9s1,0.7,1.7,0.7c0.4,0,0.7-0.1,1-0.2c0.3-0.1,0.5-0.3,0.7-0.5
		c0.2-0.2,0.3-0.4,0.4-0.7c0.1-0.3,0.2-0.5,0.2-0.8c0-0.3,0.1-0.5,0.1-0.8h1.7c0,1.4-0.4,2.5-1.1,3.4c-0.7,0.9-1.7,1.3-3,1.3
		c-1.2,0-2.2-0.4-3-1.2C177.5,264.8,177.1,263.8,177.1,262.5z"/>
</g>
<g enable-background="new    ">
	<path fill="#FFFFFF" d="M185.8,266.6l4-12.3h1.9l3.9,12.3h-1.8l-0.8-2.8h-4.6l-0.8,2.8H185.8z M188.9,262.4h3.7l-1.8-6.2
		L188.9,262.4z"/>
</g>
<g enable-background="new    ">
	<path fill="#FFFFFF" d="M196.9,266.6v-12.3h1.6l5,8.9v-8.9h1.7v12.3h-1.6l-5-8.9v8.9H196.9z"/>
</g>
<g enable-background="new    ">
	<path fill="#FFFFFF" d="M207.1,262.5v-4.2c0-1.3,0.4-2.3,1.1-3.1s1.8-1.2,3-1.2c1.3,0,2.3,0.4,3,1.3c0.7,0.8,1.1,1.9,1.1,3.3h-1.7
		c0-0.4-0.1-0.8-0.2-1.1c-0.1-0.3-0.2-0.6-0.4-0.9s-0.4-0.5-0.7-0.6s-0.7-0.2-1.1-0.2c-0.7,0-1.2,0.2-1.7,0.6
		c-0.5,0.4-0.7,1.1-0.7,1.9v4.3c0,0.8,0.2,1.5,0.7,1.9s1,0.7,1.7,0.7c0.4,0,0.7-0.1,1-0.2c0.3-0.1,0.5-0.3,0.7-0.5
		c0.2-0.2,0.3-0.4,0.4-0.7c0.1-0.3,0.2-0.5,0.2-0.8c0-0.3,0.1-0.5,0.1-0.8h1.7c0,1.4-0.4,2.5-1.1,3.4c-0.7,0.9-1.7,1.3-3,1.3
		c-1.2,0-2.2-0.4-3-1.2C207.5,264.8,207.1,263.8,207.1,262.5z"/>
</g>
<g enable-background="new    ">
	<path fill="#FFFFFF" d="M217.3,266.6v-12.3h6.9v1.7H219v3.7h3.8v1.5H219v3.8h5.1v1.7H217.3z"/>
</g>
<g enable-background="new    ">
	<path fill="#FFFFFF" d="M226.1,266.6v-12.3h3.7c1.3,0,2.3,0.4,3,1.1c0.7,0.8,1.1,1.8,1.1,3.2v0.4c0,1-0.2,1.8-0.7,2.5
		c-0.5,0.6-1.1,1.1-2,1.3l2.6,3.9h-2l-2.3-3.6h-1.8v3.6H226.1z M227.8,261.5h1.8c0.8,0,1.4-0.2,1.9-0.6s0.7-1,0.7-1.9v-0.4
		c0-1.7-0.9-2.6-2.6-2.6h-1.8V261.5z"/>
</g>
<g enable-background="new    ">
	<path fill="#CE009F" d="M15.8,242.6c0,0.8-0.2,1.5-0.4,2.1s-0.6,1.1-1,1.5s-0.9,0.7-1.4,0.9s-1.1,0.3-1.7,0.3s-1-0.1-1.5-0.2
		s-0.8-0.3-1.1-0.5s-0.6-0.4-0.8-0.7s-0.5-0.5-0.7-0.8s-0.4-0.5-0.6-0.8S6.2,244,6,243.9s-0.4-0.3-0.7-0.4s-0.5-0.2-0.8-0.2
		c-0.4,0-0.7,0.1-1,0.3s-0.5,0.4-0.7,0.7s-0.3,0.6-0.4,1s-0.1,0.8-0.1,1.2c0,0.2-0.1,0.3-0.3,0.4s-0.5,0.1-0.9,0.1
		c-0.2,0-0.4,0-0.6,0s-0.3-0.1-0.4-0.1s-0.1-0.1-0.2-0.2s0-0.1,0-0.2v-0.5c0-0.8,0.1-1.5,0.3-2.1s0.5-1.1,0.9-1.5s0.9-0.7,1.4-0.9
		s1.2-0.3,1.8-0.3c0.6,0,1,0.1,1.5,0.2s0.8,0.3,1.1,0.5s0.6,0.4,0.8,0.7s0.5,0.5,0.7,0.8s0.4,0.5,0.6,0.8s0.4,0.4,0.6,0.6
		s0.4,0.3,0.7,0.4s0.5,0.2,0.9,0.2c0.4,0,0.7-0.1,1-0.2s0.5-0.4,0.7-0.6s0.3-0.6,0.4-1s0.1-0.8,0.1-1.2c0-0.2,0.1-0.3,0.3-0.4
		s0.5-0.1,0.9-0.1c0.2,0,0.4,0,0.6,0s0.3,0,0.4,0.1s0.2,0.1,0.2,0.2s0,0.2,0,0.3V242.6z"/>
</g>
<g enable-background="new    ">
	<path fill="#CE009F" d="M19.6,251.8h9.3c0,5,2.3,7.5,6.8,7.5c1.9,0,3.4-0.7,4.6-2c1.2-1.4,1.8-3.1,1.8-5.1v-1.9
		c0-1.9-0.6-3.5-1.8-4.7c-1.2-1.3-2.8-1.9-4.9-1.9c-0.9,0-1.7,0.1-2.4,0.3c-0.7,0.2-1.3,0.6-1.8,1c-0.5,0.4-0.9,0.8-1.1,1.2
		c-0.3,0.4-0.6,0.8-0.9,1.3l-8.9-2l4.5-25.3H49v8.8H32.4c-0.8,4.1-1.4,7.2-1.7,9.3c0.5-0.6,1.4-1.1,2.7-1.7c1.3-0.6,2.8-0.8,4.5-0.8
		c4.1,0,7.4,1.2,9.9,3.6s3.7,6,3.7,10.7v2.1c0,4.8-1.5,8.7-4.4,11.6s-6.8,4.4-11.5,4.4c-4.7,0-8.5-1.5-11.4-4.5
		C21.1,260.5,19.6,256.6,19.6,251.8z"/>
</g>
<g enable-background="new    ">
	<path fill="#CE009F" d="M54.1,267.3l12.9-24.2l-12.2-23h10l7.2,14.3l7.2-14.3h9.9l-12.2,23l12.9,24.2H80l-8-15.7l-8,15.7H54.1z"/>
</g>
<g enable-background="new    ">
	<path fill="#CE009F" d="M22.5,276.8c-0.2-0.2-0.2-0.4-0.2-0.6s0.1-0.4,0.2-0.6c0.2-0.2,0.4-0.2,0.6-0.2s0.4,0.1,0.6,0.2
		s0.2,0.4,0.2,0.6s-0.1,0.4-0.2,0.6s-0.4,0.2-0.6,0.2S22.7,277,22.5,276.8z M22.5,286.1v-7.9h1.3v7.9H22.5z"/>
	<path fill="#CE009F" d="M25.5,286.1v-7.9h1.2v1.1c0.1-0.3,0.4-0.6,0.8-0.8c0.4-0.2,0.8-0.4,1.4-0.4c0.8,0,1.4,0.3,1.9,0.8
		c0.5,0.5,0.7,1.3,0.7,2.3v4.9h-1.3v-4.8c0-0.7-0.1-1.2-0.4-1.6s-0.7-0.5-1.3-0.5c-0.6,0-1,0.2-1.3,0.5s-0.4,0.9-0.4,1.7v4.7H25.5z"
		/>
</g>
<g enable-background="new    ">
	<path fill="#CE009F" d="M35.5,278.2h1.4l1.5,5.8l1.5-5.8h1.1l1.5,5.8l1.5-5.8h1.4l-2.2,7.9H42l-1.5-5.7l-1.5,5.7h-1.2L35.5,278.2z"
		/>
</g>
<g enable-background="new    ">
	<path fill="#CE009F" d="M46.2,283.1v-1.9c0-0.9,0.3-1.7,0.8-2.3s1.3-0.8,2.2-0.8c0.9,0,1.6,0.3,2.2,0.8c0.5,0.6,0.8,1.3,0.8,2.3
		v1.9c0,1-0.3,1.7-0.8,2.3c-0.5,0.6-1.2,0.8-2.2,0.8c-0.9,0-1.7-0.3-2.2-0.8S46.2,284.1,46.2,283.1z M47.5,283.2
		c0,0.6,0.1,1,0.4,1.3c0.3,0.3,0.7,0.5,1.2,0.5c0.5,0,0.9-0.2,1.2-0.5s0.5-0.7,0.5-1.3v-2.2c0-0.6-0.1-1-0.4-1.3s-0.7-0.5-1.2-0.5
		c-0.5,0-0.9,0.2-1.2,0.5s-0.5,0.7-0.5,1.3V283.2z"/>
	<path fill="#CE009F" d="M53.7,286.1v-7.9h1.2v0.9c0.1-0.3,0.3-0.5,0.6-0.7s0.7-0.3,1.2-0.3c0.4,0,0.8,0.1,1.2,0.3
		c0.3,0.2,0.6,0.5,0.8,0.9c0.1-0.4,0.4-0.6,0.8-0.9c0.4-0.2,0.8-0.4,1.3-0.4c0.7,0,1.2,0.2,1.6,0.7s0.5,1.2,0.5,2.1v5.2h-1.3v-5.4
		c0-0.5-0.1-0.9-0.3-1.1c-0.2-0.3-0.6-0.4-1-0.4c-0.4,0-0.8,0.1-1,0.4c-0.2,0.3-0.3,0.6-0.3,1.1v5.5h-1.3v-5.4
		c0-0.5-0.1-0.9-0.3-1.1c-0.2-0.3-0.6-0.4-1-0.4c-0.4,0-0.8,0.1-1,0.4c-0.2,0.2-0.3,0.6-0.3,1.1v5.5H53.7z"/>
	<path fill="#CE009F" d="M64.4,283.1v-1.9c0-1,0.3-1.7,0.8-2.3s1.3-0.8,2.2-0.8s1.7,0.3,2.2,0.8s0.8,1.3,0.8,2.2v1.4h-4.6v0.9
		c0,0.5,0.2,1,0.5,1.3c0.3,0.3,0.7,0.5,1.2,0.5s0.9-0.1,1.2-0.4s0.5-0.6,0.5-1.1v-0.1h1.3v0.1c0,0.7-0.3,1.4-0.8,1.9
		c-0.5,0.5-1.3,0.8-2.2,0.8c-0.9,0-1.7-0.3-2.2-0.8C64.6,284.8,64.4,284.1,64.4,283.1z M65.7,281.6H69v-0.5c0-0.6-0.1-1.1-0.4-1.4
		c-0.3-0.3-0.7-0.5-1.2-0.5c-0.5,0-0.9,0.2-1.2,0.5c-0.3,0.3-0.4,0.7-0.4,1.3V281.6z"/>
	<path fill="#CE009F" d="M71.8,286.1v-7.9h1.2v1.1c0.1-0.3,0.4-0.6,0.8-0.8c0.4-0.2,0.8-0.4,1.4-0.4c0.8,0,1.4,0.3,1.9,0.8
		c0.5,0.5,0.7,1.3,0.7,2.3v4.9h-1.3v-4.8c0-0.7-0.1-1.2-0.4-1.6s-0.7-0.5-1.3-0.5c-0.6,0-1,0.2-1.3,0.5s-0.4,0.9-0.4,1.7v4.7H71.8z"
		/>
</g>
<g enable-background="new    ">
	<path fill="#CE009F" d="M82.3,283.1v-1.9c0-0.9,0.3-1.7,0.8-2.3s1.3-0.8,2.2-0.8c0.9,0,1.6,0.3,2.2,0.8c0.5,0.6,0.8,1.3,0.8,2.3
		v1.9c0,1-0.3,1.7-0.8,2.3c-0.5,0.6-1.2,0.8-2.2,0.8c-0.9,0-1.7-0.3-2.2-0.8S82.3,284.1,82.3,283.1z M83.6,283.2
		c0,0.6,0.1,1,0.4,1.3c0.3,0.3,0.7,0.5,1.2,0.5c0.5,0,0.9-0.2,1.2-0.5s0.5-0.7,0.5-1.3v-2.2c0-0.6-0.1-1-0.4-1.3s-0.7-0.5-1.2-0.5
		c-0.5,0-0.9,0.2-1.2,0.5s-0.5,0.7-0.5,1.3V283.2z"/>
</g>
<g enable-background="new    ">
	<path fill="#CE009F" d="M89.2,279.4v-1.1H90c0-1,0.2-1.7,0.5-2.1c0.3-0.4,0.9-0.6,1.7-0.6l0.7,0v1.1c-0.1,0-0.3,0-0.4,0
		c-0.3,0-0.6,0-0.7,0.1s-0.3,0.2-0.4,0.5s-0.1,0.6-0.1,1h1.6v1.1h-1.6v6.7H90v-6.7H89.2z"/>
	<path fill="#CE009F" d="M97.2,283.1v-2c0-1,0.2-1.7,0.7-2.3c0.5-0.5,1.1-0.8,1.8-0.8c0.5,0,1,0.1,1.4,0.4c0.4,0.2,0.6,0.5,0.8,0.8
		v-1.1h1.2v7.9h-1.2V285c-0.1,0.3-0.4,0.6-0.8,0.8s-0.8,0.4-1.4,0.4c-0.8,0-1.4-0.3-1.9-0.8C97.4,284.9,97.2,284.1,97.2,283.1z
		 M98.5,282.9c0,0.7,0.1,1.3,0.4,1.6c0.3,0.4,0.7,0.5,1.2,0.5c0.5,0,0.9-0.2,1.2-0.6s0.4-0.9,0.4-1.6v-1.7c0-0.7-0.1-1.2-0.4-1.6
		c-0.3-0.4-0.7-0.5-1.2-0.5c-0.5,0-1,0.2-1.2,0.5c-0.3,0.4-0.4,0.9-0.4,1.6V282.9z"/>
	<path fill="#CE009F" d="M105,286.1v-10.5h1.3v10.5H105z"/>
	<path fill="#CE009F" d="M108.1,286.1v-10.5h1.3v10.5H108.1z"/>
	<path fill="#CE009F" d="M114.1,283.1v-2c0-1,0.2-1.7,0.7-2.3c0.5-0.5,1.1-0.8,1.8-0.8c0.5,0,1,0.1,1.4,0.4c0.4,0.2,0.6,0.5,0.8,0.8
		v-1.1h1.2v7.9h-1.2V285c-0.1,0.3-0.4,0.6-0.8,0.8s-0.8,0.4-1.4,0.4c-0.8,0-1.4-0.3-1.9-0.8C114.3,284.9,114.1,284.1,114.1,283.1z
		 M115.4,282.9c0,0.7,0.1,1.3,0.4,1.6c0.3,0.4,0.7,0.5,1.2,0.5c0.5,0,0.9-0.2,1.2-0.6s0.4-0.9,0.4-1.6v-1.7c0-0.7-0.1-1.2-0.4-1.6
		c-0.3-0.4-0.7-0.5-1.2-0.5c-0.5,0-1,0.2-1.2,0.5c-0.3,0.4-0.4,0.9-0.4,1.6V282.9z"/>
	<path fill="#CE009F" d="M121.6,283.1v-2c0-0.9,0.2-1.7,0.7-2.2c0.4-0.5,1-0.8,1.8-0.8c0.6,0,1.1,0.1,1.5,0.3
		c0.4,0.2,0.7,0.5,0.8,0.8v-1.1h1.2v7.9c0,0.5,0,0.9-0.1,1.3c-0.1,0.3-0.3,0.6-0.5,0.9c-0.2,0.3-0.5,0.4-0.9,0.6s-0.9,0.2-1.4,0.2
		c-0.4,0-0.7,0-1-0.1s-0.6-0.1-0.8-0.3c-0.2-0.1-0.4-0.2-0.5-0.4s-0.3-0.3-0.4-0.5s-0.1-0.4-0.2-0.5c0-0.2-0.1-0.4-0.1-0.6h1.3
		c0,0.4,0.1,0.7,0.4,0.9c0.3,0.3,0.7,0.4,1.2,0.4c0.6,0,1-0.1,1.2-0.4c0.3-0.3,0.4-0.7,0.4-1.2V285c-0.1,0.3-0.4,0.6-0.7,0.8
		c-0.3,0.2-0.8,0.4-1.3,0.4c-0.8,0-1.4-0.3-1.9-0.8S121.6,284.1,121.6,283.1z M122.9,283c0,0.7,0.1,1.3,0.4,1.6
		c0.3,0.4,0.7,0.6,1.2,0.6c0.5,0,0.9-0.2,1.2-0.5c0.3-0.4,0.4-0.9,0.4-1.6v-2c0-0.6-0.1-1.1-0.4-1.4c-0.3-0.3-0.7-0.5-1.2-0.5
		c-0.5,0-1,0.2-1.2,0.5c-0.3,0.4-0.4,0.9-0.4,1.6V283z"/>
	<path fill="#CE009F" d="M129.1,283.1v-1.9c0-1,0.3-1.7,0.8-2.3s1.3-0.8,2.2-0.8s1.7,0.3,2.2,0.8s0.8,1.3,0.8,2.2v1.4h-4.6v0.9
		c0,0.5,0.2,1,0.5,1.3c0.3,0.3,0.7,0.5,1.2,0.5s0.9-0.1,1.2-0.4s0.5-0.6,0.5-1.1v-0.1h1.3v0.1c0,0.7-0.3,1.4-0.8,1.9
		c-0.5,0.5-1.3,0.8-2.2,0.8c-0.9,0-1.7-0.3-2.2-0.8C129.4,284.8,129.1,284.1,129.1,283.1z M130.4,281.6h3.3v-0.5
		c0-0.6-0.1-1.1-0.4-1.4c-0.3-0.3-0.7-0.5-1.2-0.5c-0.5,0-0.9,0.2-1.2,0.5c-0.3,0.3-0.4,0.7-0.4,1.3V281.6z"/>
	<path fill="#CE009F" d="M136.2,283.4h1.3c0,0.6,0.2,1,0.5,1.3c0.3,0.3,0.7,0.4,1.3,0.4c0.5,0,0.8-0.1,1.2-0.3
		c0.3-0.2,0.5-0.5,0.5-0.9c0-0.2-0.1-0.4-0.2-0.5c-0.1-0.1-0.3-0.3-0.5-0.3s-0.4-0.2-0.7-0.2s-0.5-0.1-0.8-0.2
		c-0.3-0.1-0.5-0.2-0.8-0.3c-0.3-0.1-0.5-0.3-0.7-0.4c-0.2-0.2-0.4-0.4-0.5-0.6c-0.1-0.3-0.2-0.6-0.2-0.9c0-0.7,0.2-1.2,0.7-1.6
		c0.5-0.4,1.2-0.6,2-0.6c1,0,1.7,0.2,2.2,0.7c0.5,0.5,0.7,1.1,0.7,2h-1.2c0-0.6-0.1-1-0.4-1.3c-0.3-0.3-0.7-0.4-1.2-0.4
		c-0.5,0-0.9,0.1-1.1,0.3s-0.4,0.5-0.4,0.8c0,0.3,0.1,0.5,0.2,0.7s0.4,0.3,0.6,0.4c0.3,0.1,0.5,0.2,0.9,0.3c0.3,0.1,0.6,0.2,0.9,0.3
		c0.3,0.1,0.6,0.2,0.9,0.4c0.3,0.1,0.5,0.4,0.6,0.6c0.2,0.3,0.2,0.6,0.2,1c0,0.7-0.2,1.3-0.7,1.7c-0.5,0.4-1.2,0.6-2.2,0.6
		c-0.9,0-1.7-0.3-2.2-0.8S136.2,284.3,136.2,283.4z"/>
</g>
<g enable-background="new    ">
	<path fill="#CE009F" d="M143.8,280c0,0.4,0.2,0.7,0.6,0.8c0.2,0.1,0.4,0.1,0.6,0.1c0.4,0,0.7-0.1,0.9-0.4c0.2-0.3,0.3-0.6,0.3-0.9
		c0-0.4-0.1-0.7-0.4-0.9s-0.5-0.3-0.9-0.3c-0.2,0-0.5,0-0.6,0.1s-0.3,0.2-0.5,0.4l-0.6,0l0.4-3.1h3v0.7h-2.4l-0.2,1.6
		c0.1-0.1,0.3-0.2,0.4-0.2c0.2-0.1,0.5-0.1,0.7-0.1c0.5,0,1,0.2,1.3,0.5c0.4,0.3,0.5,0.8,0.5,1.3c0,0.5-0.2,1-0.5,1.4
		c-0.3,0.4-0.9,0.6-1.6,0.6c-0.5,0-0.9-0.1-1.2-0.4c-0.4-0.3-0.6-0.7-0.6-1.2H143.8z"/>
</g>
<g enable-background="new    ">
	<path fill="#CE009F" d="M149.8,276v1.5l1.5-0.5l0.3,0.8l-1.5,0.5l0.9,1.3l-0.7,0.5l-0.9-1.3l-0.9,1.3l-0.7-0.5l0.9-1.3l-1.5-0.5
		l0.3-0.8l1.5,0.5V276H149.8z"/>
</g>
<path fill="#B5B6B7" d="M226.5,88.3H16.8c-0.3,0-0.5-0.2-0.5-0.5s0.2-0.5,0.5-0.5h209.7c0.3,0,0.5,0.2,0.5,0.5
	S226.7,88.3,226.5,88.3z"/>
<path fill="#B5B6B7" d="M226.5,198.5H16.8c-0.3,0-0.5-0.2-0.5-0.5s0.2-0.5,0.5-0.5h209.7c0.3,0,0.5,0.2,0.5,0.5
	S226.7,198.5,226.5,198.5z"/>
</svg>
