<?xml version="1.0" encoding="utf-8"?>
<!-- Generator: Adobe Illustrator 22.1.0, SVG Export Plug-In . SVG Version: 6.00 Build 0)  -->
<svg version="1.1" id="Layer_1" xmlns="http://www.w3.org/2000/svg" xmlns:xlink="http://www.w3.org/1999/xlink" x="0px" y="0px"
	 viewBox="0 0 395.2 433" style="enable-background:new 0 0 395.2 433;" xml:space="preserve">
<style type="text/css">
	.st0{fill:#FFFFFF;}
	.st1{fill:#E6E6E6;}
	.st2{fill:#FF8300;}
	.st3{fill:#CE009F;}
</style>
<g>
	<g>
		<path class="st0" d="M3.3,19.7H1.4V4.2h1.8V19.7z"/>
		<path class="st0" d="M8,19.7H6.2V7.4h1.7v1.3C8.2,8.1,9,7.2,10.5,7.2c2.3,0,3.2,1.5,3.2,4.3v8.2H12v-8.1c0-1.8-0.3-2.9-2-2.9
			c-1.4,0-2,0.8-2,2.5V19.7z"/>
		<path class="st0" d="M21.9,15.8h1.8c0,2.5-1.4,4.1-3.8,4.1c-2.4,0-3.8-1.5-3.8-4v-4.7c0-2.4,1.4-4,3.8-4c2.4,0,3.8,1.6,3.8,4.1
			h-1.8c0-1.6-0.6-2.5-2-2.5c-1.2,0-2,0.7-2,2.2v5.1c0,1.4,0.8,2.2,2,2.2C21.2,18.3,21.9,17.4,21.9,15.8z"/>
		<path class="st0" d="M26.8,5.9c-0.6,0-1.1-0.5-1.1-1.1s0.5-1.1,1.1-1.1S28,4.2,28,4.8S27.5,5.9,26.8,5.9z M27.7,19.7h-1.8V7.4h1.8
			V19.7z"/>
		<path class="st0" d="M30.2,16v-5c0-2.5,1.2-3.9,3.2-3.9c1.5,0,2.2,0.7,2.5,1.3V3.1h1.8v16.6h-1.6v-1.3c-0.4,0.6-1.1,1.5-2.7,1.5
			C31.4,19.9,30.2,18.6,30.2,16z M35.9,15.9v-4.8c0-1.6-0.8-2.4-2-2.4c-1.3,0-2,0.9-2,2.5v4.7c0,1.6,0.7,2.5,2,2.5
			C35.2,18.4,35.9,17.5,35.9,15.9z"/>
		<path class="st0" d="M47.8,14.1H42v1.7c0,1.6,0.7,2.6,2,2.6c1.2,0,2-0.7,2-1.8v-0.4h1.8c0,0,0,0,0,0.2c0,2-1.3,3.6-3.8,3.6
			c-2.4,0-3.8-1.6-3.8-4.1v-4.7c0-2.4,1.4-4,3.8-4c2.4,0,3.8,1.6,3.8,4V14.1z M44,8.7c-1.2,0-2,0.7-2,2.2v1.9h4v-1.9
			C46,9.5,45.2,8.7,44,8.7z"/>
		<path class="st0" d="M52,19.7h-1.8V7.4h1.7v1.3c0.3-0.6,1.2-1.5,2.6-1.5c2.3,0,3.2,1.5,3.2,4.3v8.2H56v-8.1c0-1.8-0.3-2.9-2-2.9
			c-1.4,0-2,0.8-2,2.5V19.7z"/>
		<path class="st0" d="M65.9,15.8h1.8c0,2.5-1.4,4.1-3.8,4.1c-2.4,0-3.8-1.5-3.8-4v-4.7c0-2.4,1.4-4,3.8-4c2.4,0,3.8,1.6,3.8,4.1
			h-1.8c0-1.6-0.6-2.5-2-2.5c-1.2,0-2,0.7-2,2.2v5.1c0,1.4,0.8,2.2,2,2.2C65.2,18.3,65.9,17.4,65.9,15.8z"/>
		<path class="st0" d="M77.3,14.1h-5.8v1.7c0,1.6,0.7,2.6,2,2.6c1.2,0,2-0.7,2-1.8v-0.4h1.8c0,0,0,0,0,0.2c0,2-1.3,3.6-3.8,3.6
			c-2.4,0-3.8-1.6-3.8-4.1v-4.7c0-2.4,1.4-4,3.8-4c2.4,0,3.8,1.6,3.8,4V14.1z M73.6,8.7c-1.2,0-2,0.7-2,2.2v1.9h4v-1.9
			C75.6,9.5,74.8,8.7,73.6,8.7z"/>
		<path class="st0" d="M83.7,15.8v-4.7c0-2.4,1.4-4,3.8-4c2.4,0,3.8,1.6,3.8,4v4.7c0,2.5-1.4,4-3.8,4C85.1,19.9,83.7,18.3,83.7,15.8
			z M85.4,11v5.1c0,1.4,0.8,2.2,2,2.2c1.2,0,2-0.7,2-2.2V11c0-1.4-0.8-2.2-2-2.2C86.2,8.8,85.4,9.6,85.4,11z"/>
		<path class="st0" d="M98.1,4.6c0,0-0.2,0-0.5,0c-1.4,0-1.6,0.5-1.6,2.8h2v1.6h-2v10.8h-1.8V8.9h-1.1V7.4h1.1
			c0-3.1,0.5-4.3,2.9-4.3c0.6,0,0.9,0.1,0.9,0.1V4.6z"/>
		<path class="st0" d="M106,19.7h-1.8V7.4h1.7v1.3c0.3-0.6,1.2-1.5,2.6-1.5c2.3,0,3.2,1.5,3.2,4.3v8.2h-1.8v-8.1
			c0-1.8-0.3-2.9-2-2.9c-1.4,0-2,0.8-2,2.5V19.7z"/>
		<path class="st0" d="M121.7,14.1h-5.8v1.7c0,1.6,0.7,2.6,2,2.6c1.2,0,2-0.7,2-1.8v-0.4h1.8c0,0,0,0,0,0.2c0,2-1.3,3.6-3.8,3.6
			c-2.4,0-3.8-1.6-3.8-4.1v-4.7c0-2.4,1.4-4,3.8-4c2.4,0,3.8,1.6,3.8,4V14.1z M118,8.7c-1.2,0-2,0.7-2,2.2v1.9h4v-1.9
			C120,9.5,119.1,8.7,118,8.7z"/>
		<path class="st0" d="M123.3,7.4h1.8l1.9,8.8l1.8-8.8h1.6l1.8,8.9l1.9-8.9h1.8l-2.8,12.3h-1.7l-1.8-8.6l-1.8,8.6h-1.7L123.3,7.4z"
			/>
		<path class="st0" d="M141.1,7.4h1.9l2.4,9.6l2.3-9.6h1.9l-3.3,12.3h-1.8L141.1,7.4z"/>
		<path class="st0" d="M158.7,14.1H153v1.7c0,1.6,0.7,2.6,2,2.6c1.2,0,2-0.7,2-1.8v-0.4h1.8c0,0,0,0,0,0.2c0,2-1.3,3.6-3.8,3.6
			c-2.4,0-3.8-1.6-3.8-4.1v-4.7c0-2.4,1.4-4,3.8-4c2.4,0,3.8,1.6,3.8,4V14.1z M155,8.7c-1.2,0-2,0.7-2,2.2v1.9h4v-1.9
			C157,9.5,156.2,8.7,155,8.7z"/>
		<path class="st0" d="M165.7,9h-0.2c-2,0-2.5,1.4-2.5,3.6v7.1h-1.8V7.4h1.7v1.6c0.2-0.7,1.1-1.7,2.6-1.7c0.2,0,0.3,0,0.3,0V9z"/>
		<path class="st0" d="M167.2,7.5c1.1,0,1.6-0.5,1.6-2.3h1.2v2.2h2.2v1.6H170v5.9c0,2.4,0,3.3,1.6,3.4c0.2,0,0.5,0,0.7,0v1.6
			c-0.2,0-0.6,0-0.9,0c-2.9,0-3.2-1.6-3.2-4.4V8.9h-1V7.5z"/>
		<path class="st0" d="M181.8,14.1H176v1.7c0,1.6,0.7,2.6,2,2.6c1.2,0,2-0.7,2-1.8v-0.4h1.8c0,0,0,0,0,0.2c0,2-1.3,3.6-3.8,3.6
			c-2.4,0-3.8-1.6-3.8-4.1v-4.7c0-2.4,1.4-4,3.8-4c2.4,0,3.8,1.6,3.8,4V14.1z M178.1,8.7c-1.2,0-2,0.7-2,2.2v1.9h4v-1.9
			C180.1,9.5,179.3,8.7,178.1,8.7z"/>
		<path class="st0" d="M186,18.4v1.3h-1.7V3.1h1.8v5.5c0.3-0.6,1.1-1.3,2.6-1.3c2,0,3.2,1.3,3.2,3.9v5c0,2.6-1.2,3.9-3.2,3.9
			C187.1,19.9,186.3,19.1,186,18.4z M190.1,15.9v-4.7c0-1.6-0.7-2.5-2-2.5c-1.2,0-2,0.8-2,2.4v4.8c0,1.6,0.7,2.5,2,2.5
			C189.3,18.4,190.1,17.5,190.1,15.9z"/>
		<path class="st0" d="M198.9,9h-0.2c-2,0-2.5,1.4-2.5,3.6v7.1h-1.8V7.4h1.7v1.6c0.2-0.7,1.1-1.7,2.6-1.7c0.2,0,0.3,0,0.3,0V9z"/>
		<path class="st0" d="M200.9,16v-4.9c0-2.6,1.3-3.9,3.2-3.9c1.5,0,2.4,0.9,2.7,1.4V7.4h1.7v12.3h-1.7v-1.3
			c-0.3,0.6-1.2,1.5-2.7,1.5C202.1,19.9,200.9,18.6,200.9,16z M206.6,15.9v-4.8c0-1.6-0.8-2.4-2-2.4c-1.3,0-2,0.9-2,2.5v4.7
			c0,1.7,0.7,2.5,2,2.5C205.9,18.4,206.6,17.5,206.6,15.9z"/>
		<path class="st0" d="M212.9,19.7h-1.8V3.1h1.8V19.7z"/>
		<path class="st0" d="M224.1,4.6c0,0-0.2,0-0.5,0c-1.4,0-1.6,0.5-1.6,2.8h2v1.6h-2v10.8h-1.8V8.9h-1.1V7.4h1.1
			c0-3.1,0.5-4.3,2.9-4.3c0.5,0,0.9,0.1,0.9,0.1V4.6z"/>
		<path class="st0" d="M230.8,9h-0.2c-2,0-2.5,1.4-2.5,3.6v7.1h-1.8V7.4h1.7v1.6c0.2-0.7,1.1-1.7,2.6-1.7c0.2,0,0.3,0,0.3,0V9z"/>
		<path class="st0" d="M232.8,16v-4.9c0-2.6,1.3-3.9,3.2-3.9c1.5,0,2.4,0.9,2.7,1.4V7.4h1.7v12.3h-1.7v-1.3
			c-0.3,0.6-1.2,1.5-2.7,1.5C234,19.9,232.8,18.6,232.8,16z M238.5,15.9v-4.8c0-1.6-0.8-2.4-2-2.4c-1.3,0-2,0.9-2,2.5v4.7
			c0,1.7,0.7,2.5,2,2.5C237.8,18.4,238.5,17.5,238.5,15.9z"/>
		<path class="st0" d="M248.6,15.8h1.8c0,2.5-1.4,4.1-3.8,4.1s-3.8-1.5-3.8-4v-4.7c0-2.4,1.4-4,3.8-4c2.4,0,3.8,1.6,3.8,4.1h-1.8
			c0-1.6-0.6-2.5-2-2.5c-1.2,0-2,0.7-2,2.2v5.1c0,1.4,0.8,2.2,2,2.2C247.9,18.3,248.6,17.4,248.6,15.8z"/>
		<path class="st0" d="M252,7.5c1.1,0,1.6-0.5,1.6-2.3h1.2v2.2h2.2v1.6h-2.2v5.9c0,2.4,0,3.3,1.6,3.4c0.2,0,0.5,0,0.7,0v1.6
			c-0.2,0-0.5,0-0.9,0c-2.9,0-3.2-1.6-3.2-4.4V8.9h-1V7.5z"/>
		<path class="st0" d="M259,7.4h1.8v8.7c0,1.4,0.8,2.2,2,2.2c1.2,0,2-0.7,2-2.2V7.4h1.8v8.5c0,2.5-1.4,4-3.8,4c-2.4,0-3.8-1.5-3.8-4
			V7.4z"/>
		<path class="st0" d="M273.7,9h-0.2c-2,0-2.5,1.4-2.5,3.6v7.1h-1.8V7.4h1.7v1.6c0.2-0.7,1.1-1.7,2.6-1.7c0.2,0,0.3,0,0.3,0V9z"/>
		<path class="st0" d="M283.3,14.1h-5.8v1.7c0,1.6,0.7,2.6,2,2.6c1.2,0,2-0.7,2-1.8v-0.4h1.8c0,0,0,0,0,0.2c0,2-1.3,3.6-3.8,3.6
			c-2.4,0-3.8-1.6-3.8-4.1v-4.7c0-2.4,1.4-4,3.8-4c2.4,0,3.8,1.6,3.8,4V14.1z M279.5,8.7c-1.2,0-2,0.7-2,2.2v1.9h4v-1.9
			C281.5,9.5,280.7,8.7,279.5,8.7z"/>
	</g>
	<g>
		<path class="st0" d="M2.1,27.9c-0.6,0-1.1-0.5-1.1-1.1s0.5-1.1,1.1-1.1s1.1,0.5,1.1,1.1S2.7,27.9,2.1,27.9z M3,41.7H1.2V29.4H3
			V41.7z"/>
		<path class="st0" d="M7.4,41.7H5.7V29.4h1.7v1.3c0.3-0.6,1.2-1.5,2.6-1.5c2.3,0,3.2,1.5,3.2,4.3v8.2h-1.8v-8.1
			c0-1.8-0.3-2.9-2-2.9c-1.4,0-2,0.8-2,2.5V41.7z"/>
		<path class="st0" d="M26.8,27.7h-1.7c0-0.6-0.3-1.2-1.4-1.2c-1.2,0-1.5,0.6-1.5,1.8v1h1.6v1.6h-1.6v10.8h-1.8V30.9h-1.1v-1.6h1.1
			v-0.6c0-2.6,0.8-3.9,3.3-3.9C25.8,24.9,26.8,26,26.8,27.7z M26.8,41.7h-1.7V29.4h1.7V41.7z"/>
		<path class="st0" d="M34.1,31h-0.2c-2,0-2.5,1.4-2.5,3.6v7.1h-1.8V29.4h1.7v1.6c0.2-0.7,1.1-1.7,2.6-1.7c0.2,0,0.3,0,0.3,0V31z"/>
		<path class="st0" d="M43.3,32.9h-1.7c0-1.5-0.8-2.1-2-2.1c-1.1,0-1.8,0.7-1.8,1.6c0,2.7,5.6,1.9,5.6,6.1c0,1.7-1.1,3.4-3.7,3.4
			c-2.4,0-3.9-1.5-3.9-3.7h1.8c0,1.4,0.8,2.2,2.1,2.2c1,0,2-0.7,2-1.8c0-3-5.5-2.2-5.5-6.1c0-1.8,1.3-3.2,3.5-3.2
			C42,29.2,43.3,30.5,43.3,32.9z"/>
		<path class="st0" d="M45,29.5c1.1,0,1.6-0.5,1.6-2.3h1.2v2.2H50v1.6h-2.2v5.9c0,2.4,0,3.3,1.6,3.4c0.2,0,0.5,0,0.7,0v1.6
			c-0.2,0-0.6,0-0.9,0c-2.9,0-3.2-1.6-3.2-4.4v-6.5h-1V29.5z"/>
		<path class="st0" d="M58.9,41.6l-3.4-12.2h1.9l2.4,9.3l2.4-9.3h1.9l-4.6,16.5h-1.8L58.9,41.6z"/>
		<path class="st0" d="M73.3,36.1h-5.8v1.7c0,1.6,0.7,2.6,2,2.6c1.2,0,2-0.7,2-1.8v-0.4h1.8c0,0,0,0,0,0.2c0,2-1.3,3.6-3.8,3.6
			c-2.4,0-3.8-1.6-3.8-4.1v-4.7c0-2.4,1.4-4,3.8-4c2.4,0,3.8,1.6,3.8,4V36.1z M69.5,30.7c-1.2,0-2,0.7-2,2.2v1.9h4v-1.9
			C71.5,31.5,70.7,30.7,69.5,30.7z"/>
		<path class="st0" d="M75.5,38v-4.9c0-2.6,1.3-3.9,3.2-3.9c1.5,0,2.4,0.9,2.7,1.4v-1.3H83v12.3h-1.6v-1.3c-0.3,0.6-1.2,1.5-2.7,1.5
			C76.8,41.9,75.5,40.6,75.5,38z M81.3,37.9v-4.8c0-1.6-0.8-2.4-2-2.4c-1.3,0-2,0.9-2,2.5v4.7c0,1.7,0.7,2.5,2,2.5
			C80.5,40.4,81.3,39.5,81.3,37.9z"/>
		<path class="st0" d="M90.3,31h-0.2c-2,0-2.5,1.4-2.5,3.6v7.1h-1.8V29.4h1.7v1.6c0.2-0.7,1.1-1.7,2.6-1.7c0.2,0,0.3,0,0.3,0V31z"/>
		<path class="st0" d="M96.4,37.8v-4.7c0-2.4,1.4-4,3.8-4c2.4,0,3.8,1.6,3.8,4v4.7c0,2.5-1.4,4-3.8,4C97.8,41.9,96.4,40.3,96.4,37.8
			z M98.2,33v5.1c0,1.4,0.8,2.2,2,2.2c1.2,0,2-0.7,2-2.2V33c0-1.4-0.8-2.2-2-2.2C99,30.8,98.2,31.6,98.2,33z"/>
		<path class="st0" d="M110.8,26.6c0,0-0.2,0-0.5,0c-1.4,0-1.6,0.5-1.6,2.8h2v1.6h-2v10.8H107V30.9H106v-1.6h1.1
			c0-3.1,0.5-4.3,2.9-4.3c0.6,0,0.9,0.1,0.9,0.1V26.6z"/>
		<path class="st0" d="M124.1,32.9h-1.7c0-1.5-0.8-2.1-2-2.1c-1.1,0-1.8,0.7-1.8,1.6c0,2.7,5.6,1.9,5.6,6.1c0,1.7-1.1,3.4-3.7,3.4
			c-2.4,0-3.9-1.5-3.9-3.7h1.8c0,1.4,0.8,2.2,2.1,2.2c1,0,2-0.7,2-1.8c0-3-5.5-2.2-5.5-6.1c0-1.8,1.3-3.2,3.5-3.2
			C122.8,29.2,124.1,30.5,124.1,32.9z"/>
		<path class="st0" d="M125.7,29.5c1.1,0,1.6-0.5,1.6-2.3h1.2v2.2h2.2v1.6h-2.2v5.9c0,2.4,0,3.3,1.6,3.4c0.2,0,0.5,0,0.7,0v1.6
			c-0.2,0-0.6,0-0.9,0c-2.9,0-3.2-1.6-3.2-4.4v-6.5h-1V29.5z"/>
		<path class="st0" d="M132.9,29.4h1.8v8.7c0,1.4,0.8,2.2,2,2.2c1.2,0,2-0.7,2-2.2v-8.7h1.8v8.5c0,2.5-1.4,4-3.8,4
			c-2.4,0-3.8-1.5-3.8-4V29.4z"/>
		<path class="st0" d="M142.8,38v-5c0-2.5,1.2-3.9,3.2-3.9c1.5,0,2.2,0.7,2.5,1.3v-5.4h1.8v16.6h-1.6v-1.3c-0.4,0.6-1.1,1.5-2.7,1.5
			C144,41.9,142.8,40.6,142.8,38z M148.6,37.9v-4.8c0-1.6-0.8-2.4-2-2.4c-1.3,0-2,0.9-2,2.5v4.7c0,1.6,0.7,2.5,2,2.5
			C147.8,40.4,148.6,39.5,148.6,37.9z"/>
		<path class="st0" d="M155.6,41.6l-3.4-12.2h1.9l2.4,9.3l2.4-9.3h1.9l-4.6,16.5h-1.8L155.6,41.6z"/>
	</g>
</g>
<g>
	<path class="st0" d="M163.9,34.4l2.2-8h-3v-1.1h4.4l-2.5,9H163.9z"/>
</g>
<g>
	<path class="st0" d="M170.8,26h1.3v2.6l2.4-0.9L175,29l-2.5,0.7l1.7,2.1l-1.1,0.8l-1.6-2.2l-1.6,2.2l-1.1-0.8l1.7-2.1L168,29
		l0.5-1.3l2.4,0.9V26z"/>
</g>
<g>
	<path class="st0" d="M112.3,390.6h-1.6l-2.5-6.2v6.2h-1.8v-10.6h1.6l2.5,6.3v-6.2h1.8V390.6z"/>
	<path class="st0" d="M117.6,382.2h1.7v5.8c0,1.7-1,2.7-2.6,2.7c-1.7,0-2.6-1-2.6-2.7v-5.8h1.7v6.1c0,0.7,0.5,1,1,1c0.4,0,1-0.3,1-1
		V382.2z"/>
	<path class="st0" d="M122.4,390.6h-1.7v-8.4h1.6v0.7c0.1-0.2,0.5-0.8,1.4-0.8c0.7,0,1.3,0.3,1.6,0.9c0.2-0.4,0.8-0.9,1.7-0.9
		c1.2,0,1.9,0.7,1.9,2.5v6h-1.7v-6.1c0-0.7-0.4-0.9-0.8-0.9c-0.4,0-0.8,0.3-0.8,0.9v6.1H124v-6.1c0-0.7-0.4-0.9-0.8-0.9
		c-0.4,0-0.8,0.2-0.8,0.9V390.6z"/>
	<path class="st0" d="M132,389.9v0.7h-1.6v-11.3h1.7v3.6c0-0.1,0.5-0.8,1.5-0.8c1.3,0,2.1,0.8,2.1,2.5v3.5c0,1.8-0.8,2.6-2.1,2.6
		C132.7,390.8,132.1,390.1,132,389.9z M134.1,388v-3.1c0-0.9-0.4-1.3-1-1.3c-0.6,0-1,0.4-1,1.2v3.1c0,0.9,0.4,1.3,1,1.3
		C133.7,389.3,134.1,388.9,134.1,388z"/>
	<path class="st0" d="M137,388v-3.1c0-1.7,1-2.8,2.6-2.8c1.7,0,2.6,1,2.6,2.8v2.1h-3.6v1.4c0,0.7,0.5,1,1,1c0.5,0,1-0.3,1-0.9v-0.2
		h1.7v0c0,1.4-1,2.4-2.6,2.4C138,390.8,137,389.7,137,388z M138.7,385.8h1.9v-1c0-1-0.4-1.3-1-1.3c-0.5,0-1,0.3-1,1V385.8z"/>
	<path class="st0" d="M147.1,383.8h-0.2c-1.2,0-1.5,0.6-1.5,2v4.8h-1.7v-8.4h1.6v0.8c0.1-0.5,0.7-0.9,1.7-0.9h0.1V383.8z"/>
	<path class="st0" d="M151,388v-3.1c0-1.7,1-2.7,2.6-2.7c1.6,0,2.6,1.1,2.6,2.7v3.1c0,1.7-1,2.8-2.6,2.8
		C152,390.8,151,389.7,151,388z M152.7,384.7v3.6c0,0.7,0.4,1,1,1c0.5,0,1-0.3,1-1v-3.6c0-0.7-0.4-1-1-1
		C153.1,383.6,152.7,384,152.7,384.7z"/>
	<path class="st0" d="M160.9,380.7c-1.1-0.1-1.2,0.3-1.2,1.5h1.2v1.5h-1.2v6.9h-1.7v-6.9h-0.7v-1.5h0.7c0-2.1,0.4-3,2.2-3
		c0.4,0,0.7,0,0.7,0V380.7z"/>
	<path class="st0" d="M164.5,382.2h1.8l1.2,5.8l1.2-5.8h1.8l-2.1,8.4h-1.8L164.5,382.2z"/>
	<path class="st0" d="M171.3,388v-3.1c0-1.7,1-2.8,2.6-2.8c1.7,0,2.6,1,2.6,2.8v2.1H173v1.4c0,0.7,0.5,1,1,1c0.5,0,1-0.3,1-0.9v-0.2
		h1.7v0c0,1.4-1,2.4-2.6,2.4C172.3,390.8,171.3,389.7,171.3,388z M173,385.8h1.9v-1c0-1-0.4-1.3-1-1.3c-0.5,0-1,0.3-1,1V385.8z"/>
	<path class="st0" d="M181.4,383.8h-0.2c-1.2,0-1.5,0.6-1.5,2v4.8H178v-8.4h1.6v0.8c0.1-0.5,0.7-0.9,1.7-0.9h0.1V383.8z"/>
	<path class="st0" d="M182.2,383.7v-1.4c0.9,0,1.2-0.4,1.2-1.6h1.1v1.5h1.3v1.5h-1.3v4.3c0,0.8,0.1,1.2,1,1.2c0.2,0,0.3,0,0.3,0v1.5
		c0,0-0.3,0-0.7,0c-2.1,0-2.3-1.2-2.3-3.2v-3.8h-0.3H182.2z"/>
	<path class="st0" d="M187,388v-3.1c0-1.7,1-2.8,2.6-2.8c1.7,0,2.6,1,2.6,2.8v2.1h-3.6v1.4c0,0.7,0.5,1,1,1c0.5,0,1-0.3,1-0.9v-0.2
		h1.7v0c0,1.4-1,2.4-2.6,2.4C188,390.8,187,389.7,187,388z M188.7,385.8h1.9v-1c0-1-0.4-1.3-1-1.3c-0.5,0-1,0.3-1,1V385.8z"/>
	<path class="st0" d="M195.3,389.9v0.7h-1.6v-11.3h1.7v3.6c0-0.1,0.5-0.8,1.5-0.8c1.3,0,2.1,0.8,2.1,2.5v3.5c0,1.8-0.8,2.6-2.1,2.6
		C195.9,390.8,195.3,390.1,195.3,389.9z M197.3,388v-3.1c0-0.9-0.4-1.3-1-1.3c-0.6,0-1,0.4-1,1.2v3.1c0,0.9,0.4,1.3,1,1.3
		C196.9,389.3,197.3,388.9,197.3,388z"/>
	<path class="st0" d="M203.8,383.8h-0.2c-1.2,0-1.5,0.6-1.5,2v4.8h-1.7v-8.4h1.6v0.8c0.1-0.5,0.7-0.9,1.7-0.9h0.1V383.8z"/>
	<path class="st0" d="M204.9,388.2v-3.5c0-1.8,0.8-2.5,2.1-2.5c1,0,1.5,0.6,1.6,0.8v-0.7h1.6v8.4h-1.6v-0.7
		c-0.1,0.2-0.6,0.9-1.6,0.9C205.7,390.8,204.9,390,204.9,388.2z M208.5,388v-3.2c0-0.8-0.4-1.1-1-1.1c-0.6,0-1,0.4-1,1.3v3.1
		c0,0.9,0.4,1.3,1,1.3C208.1,389.2,208.5,388.9,208.5,388z"/>
	<path class="st0" d="M213.4,390.6h-1.7v-11.3h1.7V390.6z"/>
	<path class="st0" d="M221.2,380.7c-1.1-0.1-1.2,0.3-1.2,1.5h1.2v1.5h-1.2v6.9h-1.7v-6.9h-0.7v-1.5h0.7c0-2.1,0.4-3,2.2-3
		c0.4,0,0.7,0,0.7,0V380.7z"/>
	<path class="st0" d="M225.9,383.8h-0.2c-1.2,0-1.5,0.6-1.5,2v4.8h-1.7v-8.4h1.6v0.8c0.1-0.5,0.7-0.9,1.7-0.9h0.1V383.8z"/>
	<path class="st0" d="M226.9,388.2v-3.5c0-1.8,0.8-2.5,2.1-2.5c1,0,1.5,0.6,1.6,0.8v-0.7h1.6v8.4h-1.6v-0.7
		c-0.1,0.2-0.6,0.9-1.6,0.9C227.8,390.8,226.9,390,226.9,388.2z M230.5,388v-3.2c0-0.8-0.4-1.1-1-1.1c-0.6,0-1,0.4-1,1.3v3.1
		c0,0.9,0.4,1.3,1,1.3C230.2,389.2,230.5,388.9,230.5,388z"/>
	<path class="st0" d="M238.9,388c0,1.7-1,2.8-2.6,2.8c-1.7,0-2.6-1.1-2.6-2.8v-3.1c0-1.7,1-2.7,2.6-2.7c1.7,0,2.6,1.1,2.6,2.7v0.1
		h-1.7v-0.3c0-0.7-0.4-1-1-1c-0.5,0-1,0.3-1,1v3.6c0,0.7,0.4,1,1,1c0.5,0,1-0.3,1-1v-0.3L238.9,388L238.9,388z"/>
	<path class="st0" d="M239.9,383.7v-1.4c0.9,0,1.2-0.4,1.2-1.6h1.1v1.5h1.3v1.5h-1.3v4.3c0,0.8,0.1,1.2,1,1.2c0.2,0,0.3,0,0.3,0v1.5
		c0,0-0.3,0-0.7,0c-2.1,0-2.3-1.2-2.3-3.2v-3.8h-0.3H239.9z"/>
	<path class="st0" d="M248.4,382.2h1.7v5.8c0,1.7-1,2.7-2.6,2.7c-1.7,0-2.6-1-2.6-2.7v-5.8h1.7v6.1c0,0.7,0.5,1,1,1c0.4,0,1-0.3,1-1
		V382.2z"/>
	<path class="st0" d="M254.9,383.8h-0.2c-1.2,0-1.5,0.6-1.5,2v4.8h-1.7v-8.4h1.6v0.8c0.1-0.5,0.7-0.9,1.7-0.9h0.1V383.8z"/>
	<path class="st0" d="M256,388v-3.1c0-1.7,1-2.8,2.6-2.8c1.7,0,2.6,1,2.6,2.8v2.1h-3.6v1.4c0,0.7,0.5,1,1,1c0.5,0,1-0.3,1-0.9v-0.2
		h1.7v0c0,1.4-1,2.4-2.6,2.4C257,390.8,256,389.7,256,388z M257.7,385.8h1.9v-1c0-1-0.4-1.3-1-1.3c-0.5,0-1,0.3-1,1V385.8z"/>
	<path class="st0" d="M267.5,384.5h-1.6c0-0.8-0.4-1-1-1c-0.5,0-0.8,0.3-0.8,0.7c0,1.5,3.5,1.9,3.5,4.2c0,1.4-0.9,2.3-2.6,2.3
		c-1.7,0-2.7-0.9-2.7-2.5h1.7c0,0.8,0.5,1.1,1,1.1s1-0.3,1-0.9c0-1.2-3.5-1.9-3.5-4.2c0-1.3,0.9-2.2,2.5-2.2
		C266.6,382.1,267.5,382.9,267.5,384.5z"/>
	<path class="st0" d="M271.6,388.2v-3.5c0-1.8,0.8-2.5,2.1-2.5c1,0,1.5,0.6,1.6,0.8v-0.7h1.6v8.4h-1.6v-0.7
		c-0.1,0.2-0.6,0.9-1.6,0.9C272.4,390.8,271.6,390,271.6,388.2z M275.2,388v-3.2c0-0.8-0.4-1.1-1-1.1c-0.6,0-1,0.4-1,1.3v3.1
		c0,0.9,0.4,1.3,1,1.3C274.8,389.2,275.2,388.9,275.2,388z"/>
	<path class="st0" d="M278.1,383.7v-1.4c0.9,0,1.2-0.4,1.2-1.6h1.1v1.5h1.3v1.5h-1.3v4.3c0,0.8,0.1,1.2,1,1.2c0.2,0,0.3,0,0.3,0v1.5
		c0,0-0.3,0-0.7,0c-2.1,0-2.3-1.2-2.3-3.2v-3.8h-0.3H278.1z"/>
	<path class="st0" d="M287.5,389.9v0.7h-1.6v-11.3h1.7v3.6c0-0.1,0.5-0.8,1.5-0.8c1.3,0,2.1,0.8,2.1,2.5v3.5c0,1.8-0.8,2.6-2.1,2.6
		C288.1,390.8,287.6,390.1,287.5,389.9z M289.5,388v-3.1c0-0.9-0.4-1.3-1-1.3c-0.6,0-1,0.4-1,1.2v3.1c0,0.9,0.4,1.3,1,1.3
		C289.1,389.3,289.5,388.9,289.5,388z"/>
	<path class="st0" d="M292.5,388.2v-3.5c0-1.8,0.8-2.5,2.1-2.5c1,0,1.5,0.6,1.6,0.8v-0.7h1.6v8.4h-1.6v-0.7
		c-0.1,0.2-0.6,0.9-1.6,0.9C293.3,390.8,292.5,390,292.5,388.2z M296.1,388v-3.2c0-0.8-0.4-1.1-1-1.1c-0.6,0-1,0.4-1,1.3v3.1
		c0,0.9,0.4,1.3,1,1.3C295.7,389.2,296.1,388.9,296.1,388z"/>
	<path class="st0" d="M304.2,384.5h-1.6c0-0.8-0.4-1-1-1c-0.5,0-0.8,0.3-0.8,0.7c0,1.5,3.5,1.9,3.5,4.2c0,1.4-0.9,2.3-2.6,2.3
		c-1.7,0-2.7-0.9-2.7-2.5h1.7c0,0.8,0.5,1.1,1,1.1s1-0.3,1-0.9c0-1.2-3.5-1.9-3.5-4.2c0-1.3,0.9-2.2,2.5-2.2
		C303.3,382.1,304.2,382.9,304.2,384.5z"/>
	<path class="st0" d="M305.4,388v-3.1c0-1.7,1-2.8,2.6-2.8c1.7,0,2.6,1,2.6,2.8v2.1h-3.6v1.4c0,0.7,0.5,1,1,1c0.5,0,1-0.3,1-0.9
		v-0.2h1.7v0c0,1.4-1,2.4-2.6,2.4C306.4,390.8,305.4,389.7,305.4,388z M307.1,385.8h1.9v-1c0-1-0.4-1.3-1-1.3c-0.5,0-1,0.3-1,1
		V385.8z"/>
	<path class="st0" d="M313.8,390.6h-1.7v-11.3h1.7V390.6z"/>
	<path class="st0" d="M316.3,381.4c-0.6,0-1-0.5-1-1s0.5-1,1-1c0.6,0,1,0.5,1,1S316.9,381.4,316.3,381.4z M317.1,390.6h-1.7v-8.4
		h1.7V390.6z"/>
	<path class="st0" d="M320.5,390.6h-1.7v-8.4h1.6v0.8c0.1-0.2,0.6-0.8,1.6-0.8c1.3,0,2.1,0.8,2.1,2.5v6h-1.7v-5.9
		c0-0.8-0.4-1.1-1-1.1c-0.6,0-1,0.3-1,1.1V390.6z"/>
	<path class="st0" d="M325.4,388v-3.1c0-1.7,1-2.8,2.6-2.8c1.7,0,2.6,1,2.6,2.8v2.1h-3.6v1.4c0,0.7,0.5,1,1,1c0.5,0,1-0.3,1-0.9
		v-0.2h1.7v0c0,1.4-1,2.4-2.6,2.4C326.4,390.8,325.4,389.7,325.4,388z M327.1,385.8h1.9v-1c0-1-0.4-1.3-1-1.3c-0.5,0-1,0.3-1,1
		V385.8z"/>
</g>
<g>
	<path class="st0" d="M25.2,69.4h-5.1v-0.7c0-3.8,4.1-4.1,4.1-6.6c0-1-0.6-1.5-1.5-1.5c-0.9,0-1.5,0.6-1.5,1.6h-1.1
		c0-1.6,1-2.7,2.6-2.7c1.6,0,2.6,1.1,2.6,2.7c0,3-4,3.7-4,6.2h3.9V69.4z"/>
	<path class="st0" d="M27.8,66.7c0,1.2,0.6,1.7,1.5,1.7c0.9,0,1.5-0.5,1.5-2v-0.9c0-1.1-0.5-1.8-1.5-1.8c-0.8,0-1.2,0.4-1.4,0.9
		l-1.1-0.2l0.7-4.9h4v1.1h-3.1l-0.4,2.6c0.2-0.3,0.8-0.7,1.6-0.7c1.5,0,2.4,1,2.4,2.8v0.8c0,1.9-0.9,3.2-2.7,3.2
		c-1.6,0-2.7-1.1-2.7-2.8H27.8z"/>
</g>
<g>
	<path class="st0" d="M25.2,118.9h-5.1v-0.7c0-3.8,4.1-4.1,4.1-6.6c0-1-0.6-1.5-1.5-1.5c-0.9,0-1.5,0.6-1.5,1.6h-1.1
		c0-1.6,1-2.7,2.6-2.7c1.6,0,2.6,1.1,2.6,2.7c0,3-4,3.7-4,6.2h3.9V118.9z"/>
	<path class="st0" d="M26.7,116.2v-4.5c0-1.7,1.1-2.8,2.7-2.8c1.6,0,2.7,1.1,2.7,2.8v4.5c0,1.7-1.1,2.8-2.7,2.8
		C27.8,119,26.7,117.8,26.7,116.2z M30.8,116.1v-4.3c0-1.2-0.6-1.8-1.5-1.8c-0.9,0-1.5,0.5-1.5,1.8v4.3c0,1.2,0.6,1.8,1.5,1.8
		C30.2,117.8,30.8,117.3,30.8,116.1z"/>
</g>
<g>
	<path class="st0" d="M21.5,163.6c0.8,0,1-0.2,1-0.8h1.1v9.9h-1.2v-8.1c-0.2,0.1-0.5,0.2-0.8,0.2h-0.1V163.6z"/>
	<path class="st0" d="M26.3,170c0,1.2,0.6,1.7,1.5,1.7c0.9,0,1.5-0.5,1.5-2v-0.9c0-1.1-0.5-1.8-1.5-1.8c-0.8,0-1.2,0.4-1.4,0.9
		l-1.1-0.2l0.7-4.9h4v1.1h-3.1l-0.4,2.6c0.2-0.3,0.8-0.7,1.6-0.7c1.5,0,2.4,1,2.4,2.8v0.8c0,1.9-0.9,3.2-2.7,3.2
		c-1.6,0-2.7-1.1-2.7-2.8H26.3z"/>
</g>
<g>
	<path class="st0" d="M21.4,217.4c0.8,0,1-0.2,1-0.8h1.1v9.9h-1.2v-8.1c-0.2,0.1-0.5,0.2-0.8,0.2h-0.1V217.4z"/>
	<path class="st0" d="M25.2,223.8v-4.5c0-1.7,1.1-2.8,2.7-2.8c1.6,0,2.7,1.1,2.7,2.8v4.5c0,1.7-1.1,2.8-2.7,2.8
		C26.3,226.6,25.2,225.4,25.2,223.8z M29.3,223.7v-4.3c0-1.2-0.6-1.8-1.5-1.8c-0.9,0-1.5,0.5-1.5,1.8v4.3c0,1.2,0.6,1.8,1.5,1.8
		C28.7,225.4,29.3,224.9,29.3,223.7z"/>
</g>
<g>
	<path class="st0" d="M24.5,277.6c0,1.2,0.6,1.7,1.5,1.7c0.9,0,1.5-0.5,1.5-2v-0.9c0-1.1-0.5-1.8-1.5-1.8c-0.8,0-1.2,0.4-1.4,0.9
		l-1.1-0.2l0.7-4.9h4v1.1h-3.1l-0.4,2.6c0.2-0.3,0.8-0.7,1.6-0.7c1.5,0,2.4,1,2.4,2.8v0.8c0,1.9-0.9,3.2-2.7,3.2
		c-1.6,0-2.7-1.1-2.7-2.8H24.5z"/>
</g>
<g>
	<path class="st0" d="M23.4,331.4v-4.5c0-1.7,1.1-2.8,2.7-2.8c1.6,0,2.7,1.1,2.7,2.8v4.5c0,1.7-1.1,2.8-2.7,2.8
		C24.5,334.2,23.4,333,23.4,331.4z M27.6,331.3V327c0-1.2-0.6-1.8-1.5-1.8c-0.9,0-1.5,0.5-1.5,1.8v4.3c0,1.2,0.6,1.8,1.5,1.8
		C26.9,333,27.6,332.5,27.6,331.3z"/>
</g>
<polygon class="st1" points="391.6,331.9 38.4,331.9 38.4,65.5 38.9,65.5 38.9,331.4 391.6,331.4 "/>
<g>
	<g>
		<path class="st0" d="M12.8,305.1v1.8H2.3v-1.8H12.8z"/>
		<path class="st0" d="M12.8,301.6v1.7H4.4v-1.6h0.8c-0.2-0.1-0.8-0.6-0.8-1.6c0-1.3,0.8-2.1,2.5-2.1h6v1.7H7c-0.8,0-1.1,0.4-1.1,1
			c0,0.6,0.3,1,1.1,1H12.8z"/>
		<path class="st0" d="M10.2,291.4c1.7,0,2.8,1,2.8,2.6c0,1.7-1.1,2.6-2.8,2.6H7.1c-1.7,0-2.7-1-2.7-2.6c0-1.7,1.1-2.6,2.7-2.6h0.1
			v1.7H6.9c-0.7,0-1,0.4-1,1c0,0.5,0.3,1,1,1h3.6c0.7,0,1-0.4,1-1c0-0.5-0.3-1-1-1h-0.3L10.2,291.4L10.2,291.4z"/>
		<path class="st0" d="M3.6,289.2c0,0.6-0.5,1-1,1s-1-0.5-1-1c0-0.6,0.5-1,1-1S3.6,288.6,3.6,289.2z M12.8,288.4v1.7H4.4v-1.7H12.8z
			"/>
		<path class="st0" d="M10.4,286.9H6.9c-1.8,0-2.5-0.8-2.5-2.1c0-1.1,0.7-1.5,0.7-1.5H1.5v-1.7h11.3v1.6h-0.7
			c0.2,0.1,0.8,0.6,0.8,1.6C13,286.1,12.2,286.9,10.4,286.9z M10.2,283.3H7.1c-0.9,0-1.2,0.4-1.2,1c0,0.6,0.4,1,1.3,1h3.1
			c0.9,0,1.3-0.4,1.3-1C11.5,283.7,11.1,283.3,10.2,283.3z"/>
		<path class="st0" d="M10.2,280.2H7.1c-1.7,0-2.8-1-2.8-2.6c0-1.7,1-2.6,2.8-2.6h2.1v3.6h1.4c0.7,0,1-0.5,1-1c0-0.5-0.3-1-0.9-1
			h-0.2v-1.7h0c1.4,0,2.4,1,2.4,2.6C13,279.2,11.9,280.2,10.2,280.2z M8,278.5v-1.9H7c-1,0-1.3,0.4-1.3,1c0,0.5,0.3,1,1,1H8z"/>
		<path class="st0" d="M12.8,271.9v1.7H4.4v-1.6h0.8c-0.2-0.1-0.8-0.6-0.8-1.6c0-1.3,0.8-2.1,2.5-2.1h6v1.7H7c-0.8,0-1.1,0.4-1.1,1
			c0,0.6,0.3,1,1.1,1H12.8z"/>
		<path class="st0" d="M10.2,261.6c1.7,0,2.8,1,2.8,2.6c0,1.7-1.1,2.6-2.8,2.6H7.1c-1.7,0-2.7-1-2.7-2.6c0-1.6,1.1-2.6,2.7-2.6h0.1
			v1.7H6.9c-0.7,0-1,0.4-1,1c0,0.5,0.3,1,1,1h3.6c0.7,0,1-0.4,1-1c0-0.5-0.3-1-1-1h-0.3L10.2,261.6L10.2,261.6z"/>
		<path class="st0" d="M10.2,260.4H7.1c-1.7,0-2.8-1-2.8-2.6c0-1.7,1-2.6,2.8-2.6h2.1v3.6h1.4c0.7,0,1-0.5,1-1c0-0.5-0.3-1-0.9-1
			h-0.2v-1.7h0c1.4,0,2.4,1,2.4,2.6C13,259.5,11.9,260.4,10.2,260.4z M8,258.8v-1.9H7c-1,0-1.3,0.4-1.3,1c0,0.5,0.3,1,1,1H8z"/>
		<path class="st0" d="M10.2,251.1H7.1c-1.7,0-2.7-1-2.7-2.6c0-1.7,1.1-2.6,2.7-2.6h3.1c1.7,0,2.8,1,2.8,2.6
			C13,250.1,11.9,251.1,10.2,251.1z M6.9,249.4h3.6c0.7,0,1-0.4,1-1c0-0.5-0.3-1-1-1H6.9c-0.7,0-1,0.4-1,1
			C5.8,249,6.1,249.4,6.9,249.4z"/>
		<path class="st0" d="M2.9,241.1c-0.1,1.1,0.3,1.2,1.5,1.2v-1.2h1.5v1.2h6.9v1.7H5.9v0.7H4.4V244c-2.1,0-3-0.4-3-2.2
			c0-0.4,0-0.7,0-0.7H2.9z"/>
		<path class="st0" d="M12.8,235.3v1.7H4.4v-1.6h0.8c-0.2-0.1-0.8-0.6-0.8-1.6c0-1.3,0.8-2.1,2.5-2.1h6v1.7H7c-0.8,0-1.1,0.4-1.1,1
			c0,0.6,0.3,1,1.1,1H12.8z"/>
		<path class="st0" d="M10.2,230.3H7.1c-1.7,0-2.8-1-2.8-2.6c0-1.7,1-2.6,2.8-2.6h2.1v3.6h1.4c0.7,0,1-0.5,1-1c0-0.5-0.3-1-0.9-1
			h-0.2v-1.7h0c1.4,0,2.4,1,2.4,2.6C13,229.4,11.9,230.3,10.2,230.3z M8,228.7v-1.9H7c-1,0-1.3,0.4-1.3,1c0,0.5,0.3,1,1,1H8z"/>
		<path class="st0" d="M4.4,224.3v-1.7l5.2-1l-5.2-1v-1.5l5.2-1l-5.2-1v-1.7l8.4,1.8v1.7l-5,1l5,1v1.7L4.4,224.3z"/>
		<path class="st0" d="M4.4,212.2v-1.8l5.8-1.2L4.4,208v-1.8l8.4,2.1v1.8L4.4,212.2z"/>
		<path class="st0" d="M10.2,205.4H7.1c-1.7,0-2.8-1-2.8-2.6c0-1.7,1-2.6,2.8-2.6h2.1v3.6h1.4c0.7,0,1-0.5,1-1c0-0.5-0.3-1-0.9-1
			h-0.2v-1.7h0c1.4,0,2.4,1,2.4,2.6C13,204.4,11.9,205.4,10.2,205.4z M8,203.7v-1.9H7c-1,0-1.3,0.4-1.3,1c0,0.5,0.3,1,1,1H8z"/>
		<path class="st0" d="M6,195.3v0.2c0,1.2,0.6,1.5,2,1.5h4.8v1.7H4.4v-1.6h0.8c-0.5-0.1-0.9-0.7-0.9-1.7v-0.1H6z"/>
		<path class="st0" d="M5.9,194.5H4.5c0-0.9-0.4-1.2-1.6-1.2v-1.1h1.5v-1.3h1.5v1.3h4.3c0.8,0,1.2-0.1,1.2-1c0-0.2,0-0.3,0-0.3h1.5
			c0,0,0,0.3,0,0.7c0,2.1-1.2,2.3-3.2,2.3H5.9v0.3V194.5z"/>
		<path class="st0" d="M10.2,189.7H7.1c-1.7,0-2.8-1-2.8-2.6c0-1.7,1-2.6,2.8-2.6h2.1v3.6h1.4c0.7,0,1-0.5,1-1c0-0.5-0.3-1-0.9-1
			h-0.2v-1.7h0c1.4,0,2.4,1,2.4,2.6C13,188.7,11.9,189.7,10.2,189.7z M8,188v-1.9H7c-1,0-1.3,0.4-1.3,1c0,0.5,0.3,1,1,1H8z"/>
		<path class="st0" d="M12.1,181.4h0.7v1.6H1.5v-1.7h3.6c-0.1,0-0.8-0.5-0.8-1.5c0-1.3,0.8-2.1,2.5-2.1h3.5c1.8,0,2.6,0.8,2.6,2.1
			C13,180.8,12.3,181.3,12.1,181.4z M10.2,179.4H7.1c-0.9,0-1.3,0.4-1.3,1c0,0.6,0.4,1,1.2,1h3.1c0.9,0,1.3-0.4,1.3-1
			C11.5,179.8,11.1,179.4,10.2,179.4z"/>
		<path class="st0" d="M6,172.9v0.2c0,1.2,0.6,1.5,2,1.5h4.8v1.7H4.4v-1.6h0.8c-0.5-0.1-0.9-0.7-0.9-1.7v-0.1H6z"/>
		<path class="st0" d="M10.4,171.8H6.9c-1.8,0-2.5-0.8-2.5-2.1c0-1,0.6-1.5,0.8-1.6H4.4v-1.6h8.4v1.6h-0.7c0.2,0.1,0.9,0.6,0.9,1.6
			C13,171,12.2,171.8,10.4,171.8z M10.2,168.2H6.9c-0.8,0-1.1,0.4-1.1,1c0,0.6,0.4,1,1.3,1h3.1c0.9,0,1.3-0.4,1.3-1
			C11.4,168.6,11.1,168.2,10.2,168.2z"/>
		<path class="st0" d="M12.8,163.2v1.7H1.5v-1.7H12.8z"/>
		<path class="st0" d="M2.9,155.5c-0.1,1.1,0.3,1.2,1.5,1.2v-1.2h1.5v1.2h6.9v1.7H5.9v0.7H4.4v-0.7c-2.1,0-3-0.4-3-2.2
			c0-0.4,0-0.7,0-0.7H2.9z"/>
		<path class="st0" d="M6,150.8v0.2c0,1.2,0.6,1.5,2,1.5h4.8v1.7H4.4v-1.6h0.8c-0.5-0.1-0.9-0.7-0.9-1.7v-0.1H6z"/>
		<path class="st0" d="M10.4,149.7H6.9c-1.8,0-2.5-0.8-2.5-2.1c0-1,0.6-1.5,0.8-1.6H4.4v-1.6h8.4v1.6h-0.7c0.2,0.1,0.9,0.6,0.9,1.6
			C13,148.9,12.2,149.7,10.4,149.7z M10.2,146.1H6.9c-0.8,0-1.1,0.4-1.1,1c0,0.6,0.4,1,1.3,1h3.1c0.9,0,1.3-0.4,1.3-1
			C11.4,146.5,11.1,146.1,10.2,146.1z"/>
		<path class="st0" d="M10.2,137.7c1.7,0,2.8,1,2.8,2.6c0,1.7-1.1,2.6-2.8,2.6H7.1c-1.7,0-2.7-1-2.7-2.6c0-1.6,1.1-2.6,2.7-2.6h0.1
			v1.7H6.9c-0.7,0-1,0.4-1,1c0,0.5,0.3,1,1,1h3.6c0.7,0,1-0.4,1-1c0-0.5-0.3-1-1-1h-0.3L10.2,137.7L10.2,137.7z"/>
		<path class="st0" d="M5.9,136.8H4.5c0-0.9-0.4-1.2-1.6-1.2v-1.1h1.5v-1.3h1.5v1.3h4.3c0.8,0,1.2-0.1,1.2-1c0-0.2,0-0.3,0-0.3h1.5
			c0,0,0,0.3,0,0.7c0,2.1-1.2,2.3-3.2,2.3H5.9v0.3V136.8z"/>
		<path class="st0" d="M4.4,128.3v-1.7h5.8c1.7,0,2.7,1,2.7,2.6c0,1.7-1,2.6-2.7,2.6H4.4v-1.7h6.1c0.7,0,1-0.5,1-1c0-0.4-0.3-1-1-1
			H4.4z"/>
		<path class="st0" d="M6,121.7v0.2c0,1.2,0.6,1.5,2,1.5h4.8v1.7H4.4v-1.6h0.8c-0.5-0.1-0.9-0.7-0.9-1.7v-0.1H6z"/>
		<path class="st0" d="M10.2,120.7H7.1c-1.7,0-2.8-1-2.8-2.6c0-1.7,1-2.6,2.8-2.6h2.1v3.6h1.4c0.7,0,1-0.5,1-1c0-0.5-0.3-1-0.9-1
			h-0.2v-1.7h0c1.4,0,2.4,1,2.4,2.6C13,119.7,11.9,120.7,10.2,120.7z M8,119v-1.9H7c-1,0-1.3,0.4-1.3,1c0,0.5,0.3,1,1,1H8z"/>
		<path class="st0" d="M13.5,108.5c0,2.1-0.9,2.8-2.9,2.8H4.3c-2,0-2.9-0.6-2.9-2.8H3c0,0.9,0.3,1.1,1,1.1h7c0.7,0,1-0.2,1-1.1H13.5
			z"/>
		<path class="st0" d="M13.5,102.2v1.6c-3-0.9-9-3-12-3.9v-1.6L13.5,102.2z M5.4,107.2H4.9c-1.7,0-2.7-0.9-2.7-2.5
			c0-1.5,1.1-2.5,2.7-2.5h0.5c1.7,0,2.8,0.9,2.8,2.5C8.2,106.3,7.1,107.2,5.4,107.2z M4.8,105.7h0.6c0.9,0,1.2-0.3,1.2-0.9
			c0-0.5-0.3-0.9-1.2-0.9H4.8c-0.9,0-1.2,0.4-1.2,0.9C3.6,105.3,4,105.7,4.8,105.7z M10.2,99.8H9.7c-1.7,0-2.8-0.9-2.8-2.5
			c0-1.5,1.1-2.5,2.8-2.5h0.5c1.7,0,2.8,0.9,2.8,2.5C12.9,98.9,11.9,99.8,10.2,99.8z M9.6,98.3h0.6c0.9,0,1.2-0.3,1.2-0.9
			c0-0.5-0.3-0.9-1.2-0.9H9.6c-0.8,0-1.2,0.4-1.2,0.9C8.4,97.9,8.7,98.3,9.6,98.3z"/>
		<path class="st0" d="M12,93.3c0-0.9-0.3-1.1-1-1.1H4c-0.7,0-1,0.2-1,1.1H1.5c0-2.1,0.9-2.8,2.9-2.8h6.3c2,0,2.9,0.6,2.9,2.8H12z"
			/>
	</g>
</g>
<g>
	<path class="st0" d="M84.2,347v-4.5c0-1.7,1.1-2.8,2.7-2.8c1.6,0,2.7,1.1,2.7,2.8v4.5c0,1.7-1.1,2.8-2.7,2.8
		C85.3,349.8,84.2,348.6,84.2,347z M88.4,346.9v-4.3c0-1.2-0.6-1.8-1.5-1.8c-0.9,0-1.5,0.5-1.5,1.8v4.3c0,1.2,0.6,1.8,1.5,1.8
		C87.7,348.6,88.4,348.1,88.4,346.9z"/>
</g>
<g>
	<path class="st0" d="M69.1,365.2c-1.9,0-2.4-0.8-2.4-2.6v-6c0-1.8,0.5-2.6,2.4-2.6v1c-1.1,0-1.3,0.4-1.3,1.4v6.4
		c0,1,0.2,1.4,1.3,1.4V365.2z"/>
	<path class="st0" d="M71.6,364.5h-1.1v-7.9h1.1v0.8c0.2-0.4,0.7-0.9,1.7-0.9c1.5,0,2.1,1,2.1,2.7v5.2h-1.1v-5.2
		c0-1.2-0.2-1.8-1.3-1.8c-0.9,0-1.3,0.5-1.3,1.6V364.5z"/>
	<path class="st0" d="M76.7,359.1v-1.1h4.2v1.1H76.7z M76.7,361.1v-1h4.2v1H76.7z"/>
	<path class="st0" d="M82.1,355.4c0.8,0,1-0.2,1-0.8h1.1v9.9H83v-8.1c-0.2,0.1-0.5,0.2-0.8,0.2h-0.1V355.4z"/>
	<path class="st0" d="M85.8,361.9v-4.5c0-1.7,1.1-2.8,2.7-2.8c1.6,0,2.7,1.1,2.7,2.8v4.5c0,1.7-1.1,2.8-2.7,2.8
		C86.9,364.7,85.8,363.5,85.8,361.9z M89.9,361.7v-4.3c0-1.2-0.6-1.8-1.5-1.8c-0.9,0-1.5,0.5-1.5,1.8v4.3c0,1.2,0.6,1.8,1.5,1.8
		C89.3,363.5,89.9,363,89.9,361.7z"/>
	<path class="st0" d="M93.3,364.5l2.4-8.7h-3.3v-1.1h4.8l-2.7,9.9H93.3z"/>
	<path class="st0" d="M100.3,354.7h1.3l-1.5,3.2c0.3-0.1,0.7-0.2,1-0.2c1.8,0,2.4,1.3,2.4,3v1c0,1.9-0.9,3.1-2.7,3.1
		c-1.9,0-2.6-1.3-2.6-3.2V361c0-1.3,0.2-2.1,0.6-2.9C99.3,357,100.3,354.7,100.3,354.7z M99.3,360.8v0.5c0,1.7,0.4,2.3,1.5,2.3
		c1.1,0,1.5-0.6,1.5-2.3v-0.5c0-1.5-0.4-2.1-1.5-2.1C99.7,358.6,99.3,359.3,99.3,360.8z"/>
	<path class="st0" d="M104.7,364.2c1.1,0,1.3-0.4,1.3-1.4v-6.4c0-1-0.2-1.4-1.3-1.4v-1c1.9,0,2.4,0.8,2.4,2.6v6
		c0,1.8-0.5,2.6-2.4,2.6V364.2z"/>
</g>
<g>
	<path class="st0" d="M171.7,340.6c0.8,0,1-0.2,1-0.8h1.1v9.9h-1.2v-8.1c-0.2,0.1-0.5,0.2-0.8,0.2h-0.1V340.6z"/>
</g>
<g>
	<path class="st0" d="M157.3,365.2c-1.9,0-2.4-0.8-2.4-2.6v-6c0-1.8,0.5-2.6,2.4-2.6v1c-1.1,0-1.3,0.4-1.3,1.4v6.4
		c0,1,0.2,1.4,1.3,1.4V365.2z"/>
	<path class="st0" d="M159.8,364.5h-1.1v-7.9h1.1v0.8c0.2-0.4,0.7-0.9,1.7-0.9c1.5,0,2.1,1,2.1,2.7v5.2h-1.1v-5.2
		c0-1.2-0.2-1.8-1.3-1.8c-0.9,0-1.3,0.5-1.3,1.6V364.5z"/>
	<path class="st0" d="M164.8,359.1v-1.1h4.2v1.1H164.8z M164.8,361.1v-1h4.2v1H164.8z"/>
	<path class="st0" d="M175,361h1v1.1h-1v2.5h-1.1v-2.5h-3.6V361l3.7-6.3h1.1V361z M173.8,361v-4.3l-2.5,4.3L173.8,361z"/>
	<path class="st0" d="M180.3,364.5H179c0,0,1-2.1,1.5-3.1c-0.3,0.1-0.7,0.2-1,0.2c-1.7,0-2.4-1.3-2.4-3v-1c0-1.8,0.8-3.1,2.6-3.1
		c1.8,0,2.7,1.3,2.7,3.2v0.6c0,1.1-0.2,2-0.6,2.9C181.4,362.2,180.3,364.5,180.3,364.5z M181.3,358.5v-0.8c0-1.5-0.5-2-1.5-2
		c-1,0-1.5,0.5-1.5,2v0.8c0,1.4,0.5,2.1,1.5,2.1C180.9,360.6,181.3,359.8,181.3,358.5z"/>
	<path class="st0" d="M184.8,361.9c0,1.2,0.6,1.7,1.5,1.7c0.9,0,1.5-0.5,1.5-2v-0.9c0-1.1-0.5-1.8-1.5-1.8c-0.8,0-1.2,0.4-1.4,0.9
		l-1.1-0.2l0.7-4.9h4v1.1h-3.1l-0.4,2.6c0.2-0.3,0.8-0.7,1.6-0.7c1.5,0,2.4,1,2.4,2.8v0.8c0,1.9-0.9,3.2-2.7,3.2
		c-1.6,0-2.7-1.1-2.7-2.8H184.8z"/>
	<path class="st0" d="M190.3,364.2c1.1,0,1.3-0.4,1.3-1.4v-6.4c0-1-0.2-1.4-1.3-1.4v-1c1.9,0,2.4,0.8,2.4,2.6v6
		c0,1.8-0.5,2.6-2.4,2.6V364.2z"/>
</g>
<g>
	<path class="st0" d="M252,348.3v-0.9l5.4-2.2v0L252,343v-0.9l6.5,2.7v0.8L252,348.3z M252,349.7v-0.8h6.5v0.8H252z"/>
</g>
<g>
	<path class="st0" d="M260.8,340.6c0.8,0,1-0.2,1-0.8h1.1v9.9h-1.2v-8.1c-0.2,0.1-0.5,0.2-0.8,0.2h-0.1V340.6z"/>
</g>
<g>
	<path class="st0" d="M241.1,365.2c-1.9,0-2.4-0.8-2.4-2.6v-6c0-1.8,0.5-2.6,2.4-2.6v1c-1.1,0-1.3,0.4-1.3,1.4v6.4
		c0,1,0.2,1.4,1.3,1.4V365.2z"/>
	<path class="st0" d="M243.6,364.5h-1.1v-7.9h1.1v0.8c0.2-0.4,0.7-0.9,1.7-0.9c1.5,0,2.1,1,2.1,2.7v5.2h-1.1v-5.2
		c0-1.2-0.2-1.8-1.3-1.8c-0.9,0-1.3,0.5-1.3,1.6V364.5z"/>
	<path class="st0" d="M248.7,359.1v-1.1h4.2v1.1H248.7z M248.7,361.1v-1h4.2v1H248.7z"/>
	<path class="st0" d="M254.1,355.4c0.8,0,1-0.2,1-0.8h1.1v9.9H255v-8.1c-0.2,0.1-0.5,0.2-0.8,0.2h-0.1V355.4z"/>
	<path class="st0" d="M262.3,361h1v1.1h-1v2.5h-1.1v-2.5h-3.6V361l3.7-6.3h1.1V361z M261.2,361v-4.3l-2.5,4.3L261.2,361z"/>
	<path class="st0" d="M267.6,364.5h-1.3c0,0,1-2.1,1.5-3.1c-0.3,0.1-0.7,0.2-1,0.2c-1.7,0-2.4-1.3-2.4-3v-1c0-1.8,0.8-3.1,2.6-3.1
		c1.8,0,2.7,1.3,2.7,3.2v0.6c0,1.1-0.2,2-0.6,2.9C268.7,362.2,267.6,364.5,267.6,364.5z M268.7,358.5v-0.8c0-1.5-0.5-2-1.5-2
		c-1,0-1.5,0.5-1.5,2v0.8c0,1.4,0.5,2.1,1.5,2.1C268.2,360.6,268.7,359.8,268.7,358.5z"/>
	<path class="st0" d="M275.7,361h1v1.1h-1v2.5h-1.1v-2.5h-3.6V361l3.7-6.3h1.1V361z M274.5,361v-4.3L272,361L274.5,361z"/>
	<path class="st0" d="M277.8,364.2c1.1,0,1.3-0.4,1.3-1.4v-6.4c0-1-0.2-1.4-1.3-1.4v-1c1.9,0,2.4,0.8,2.4,2.6v6
		c0,1.8-0.5,2.6-2.4,2.6V364.2z"/>
</g>
<g>
	<path class="st0" d="M336.5,348.3v-0.9l5.4-2.2v0l-5.4-2.2v-0.9l6.5,2.7v0.8L336.5,348.3z M336.5,349.7v-0.8h6.5v0.8H336.5z"/>
</g>
<g>
	<path class="st0" d="M349.2,349.7h-5.1v-0.7c0-3.8,4.1-4.1,4.1-6.6c0-1-0.6-1.5-1.5-1.5c-0.9,0-1.5,0.6-1.5,1.6h-1.1
		c0-1.6,1-2.7,2.6-2.7c1.6,0,2.6,1.1,2.6,2.7c0,3-4,3.7-4,6.2h3.9V349.7z"/>
</g>
<g>
	<path class="st0" d="M329.5,365.2c-1.9,0-2.4-0.8-2.4-2.6v-6c0-1.8,0.5-2.6,2.4-2.6v1c-1.1,0-1.3,0.4-1.3,1.4v6.4
		c0,1,0.2,1.4,1.3,1.4V365.2z"/>
	<path class="st0" d="M332,364.5h-1.1v-7.9h1.1v0.8c0.2-0.4,0.7-0.9,1.7-0.9c1.5,0,2.1,1,2.1,2.7v5.2h-1.1v-5.2
		c0-1.2-0.2-1.8-1.3-1.8c-0.9,0-1.3,0.5-1.3,1.6V364.5z"/>
	<path class="st0" d="M337.1,359.1v-1.1h4.2v1.1H337.1z M337.1,361.1v-1h4.2v1H337.1z"/>
	<path class="st0" d="M345.7,364.5h-1.3c0,0,1-2.1,1.5-3.1c-0.3,0.1-0.7,0.2-1,0.2c-1.7,0-2.4-1.3-2.4-3v-1c0-1.8,0.8-3.1,2.6-3.1
		c1.8,0,2.7,1.3,2.7,3.2v0.6c0,1.1-0.2,2-0.6,2.9C346.8,362.2,345.7,364.5,345.7,364.5z M346.7,358.5v-0.8c0-1.5-0.5-2-1.5-2
		c-1,0-1.5,0.5-1.5,2v0.8c0,1.4,0.5,2.1,1.5,2.1C346.3,360.6,346.7,359.8,346.7,358.5z"/>
	<path class="st0" d="M352.2,364.5h-1.3c0,0,1-2.1,1.5-3.1c-0.3,0.1-0.7,0.2-1,0.2c-1.7,0-2.4-1.3-2.4-3v-1c0-1.8,0.8-3.1,2.6-3.1
		c1.8,0,2.7,1.3,2.7,3.2v0.6c0,1.1-0.2,2-0.6,2.9C353.3,362.2,352.2,364.5,352.2,364.5z M353.2,358.5v-0.8c0-1.5-0.5-2-1.5-2
		c-1,0-1.5,0.5-1.5,2v0.8c0,1.4,0.5,2.1,1.5,2.1C352.8,360.6,353.2,359.8,353.2,358.5z"/>
	<path class="st0" d="M358.7,364.5h-1.3c0,0,1-2.1,1.5-3.1c-0.3,0.1-0.7,0.2-1,0.2c-1.7,0-2.4-1.3-2.4-3v-1c0-1.8,0.8-3.1,2.6-3.1
		c1.8,0,2.7,1.3,2.7,3.2v0.6c0,1.1-0.2,2-0.6,2.9C359.8,362.2,358.7,364.5,358.7,364.5z M359.7,358.5v-0.8c0-1.5-0.5-2-1.5-2
		c-1,0-1.5,0.5-1.5,2v0.8c0,1.4,0.5,2.1,1.5,2.1C359.3,360.6,359.7,359.8,359.7,358.5z"/>
	<path class="st0" d="M362.1,364.2c1.1,0,1.3-0.4,1.3-1.4v-6.4c0-1-0.2-1.4-1.3-1.4v-1c1.9,0,2.4,0.8,2.4,2.6v6
		c0,1.8-0.5,2.6-2.4,2.6V364.2z"/>
</g>
<rect x="52.4" y="311.8" class="st2" width="73.5" height="19.6"/>
<rect x="137.3" y="283.5" class="st2" width="74.1" height="47.9"/>
<rect x="222.7" y="228.1" class="st2" width="73.5" height="103.3"/>
<rect x="307.6" y="200" class="st2" width="74.1" height="131.3"/>
<g class="cls-5 arrow3-mobile">
	<g>
		<path class="st3" d="M381.7,85c0,36.1,0.1,93.5,0.1,93.5l-37.6,13.9l-36.6-13.9l0-93.5H381.7z"/>
	</g>
	<g>
		<path class="st0" d="M329.3,131.5l8.7-26.8h-11.8v-6.2h20.1l-10.5,33.1H329.3z"/>
	</g>
	<g>
		<path class="st0" d="M356,122.2l5.7,9.3h-4.8l-3.3-5.9l-3.3,5.9h-4.8l5.7-9.3l-5.4-8.8h4.8l2.9,5.3l2.8-5.3h4.9L356,122.2z"/>
	</g>
	<g>
		<path class="st0" d="M331.4,138.6h2.5l1.2,6h0l1.2-6h2.5v8.5h-1.6v-6.8h0l-1.5,6.8h-1.3l-1.5-6.8h0v6.8h-1.6V138.6z"/>
		<path class="st0" d="M342.9,138.5c2.6,0,2.9,1.8,2.9,4.4s-0.3,4.4-2.9,4.4s-2.9-1.8-2.9-4.4S340.3,138.5,342.9,138.5z M342.9,146
			c1,0,1.2-0.9,1.2-3.1c0-2.3-0.2-3.1-1.2-3.1s-1.2,0.9-1.2,3.1C341.7,145.2,341.9,146,342.9,146z"/>
		<path class="st0" d="M346.8,138.6h3.2c1.4,0,2.3,0.7,2.3,2.2c0,1.1-0.5,1.9-1.4,2.1v0c1.2,0.2,1.3,0.8,1.4,2.6
			c0,0.9,0.1,1.4,0.4,1.5v0.1h-1.8c-0.2-0.2-0.2-0.6-0.2-0.9l0-1.6c0-0.7-0.3-1.1-1-1.1h-0.9v3.6h-1.7V138.6z M348.5,142.3h0.7
			c0.8,0,1.3-0.4,1.3-1.3c0-0.8-0.4-1.2-1.2-1.2h-0.8V142.3z"/>
		<path class="st0" d="M358.1,138.6v1.4h-3v2h2.8v1.4h-2.8v2.3h3.1v1.4h-4.8v-8.5H358.1z"/>
	</g>
	<g>
		<path class="st0" d="M321.5,160.1v-8.5h1.7v7.1h3v1.4H321.5z"/>
		<path class="st0" d="M327.1,160.1v-8.5h1.7v8.5H327.1z"/>
		<path class="st0" d="M331.8,151.6v3.4h0l2.2-3.4h1.8l-2.3,3.6l2.6,4.8h-1.9l-1.7-3.5l-0.6,1v2.5h-1.7v-8.5H331.8z"/>
		<path class="st0" d="M341.2,151.6v1.4h-3v2h2.8v1.4h-2.8v2.3h3.1v1.4h-4.8v-8.5H341.2z"/>
		<path class="st0" d="M342.1,160.1v-8.5h1.7v7.1h3v1.4H342.1z"/>
		<path class="st0" d="M349,151.6l1.1,3.3h0l1.2-3.3h1.8l-2.2,5.1v3.3h-1.7v-3.3l-2.2-5.1H349z"/>
		<path class="st0" d="M361.6,151.6v1.4h-1.8v7.1h-1.7V153h-1.8v-1.4H361.6z"/>
		<path class="st0" d="M365,151.4c2.6,0,2.9,1.8,2.9,4.4s-0.3,4.4-2.9,4.4s-2.9-1.8-2.9-4.4S362.5,151.4,365,151.4z M365,159
			c1,0,1.2-0.9,1.2-3.1c0-2.3-0.2-3.1-1.2-3.1s-1.2,0.9-1.2,3.1C363.9,158.1,364,159,365,159z"/>
	</g>
	<g>
		<path class="st0" d="M317.2,164.5h4.7v1.4h-3v2h2.8v1.4h-2.8v3.7h-1.7V164.5z"/>
		<path class="st0" d="M322.7,164.5h3.2c1.4,0,2.3,0.7,2.3,2.2c0,1.1-0.5,1.9-1.4,2.1v0c1.2,0.2,1.3,0.8,1.4,2.6
			c0,0.9,0.1,1.4,0.4,1.5v0.1h-1.8c-0.2-0.2-0.2-0.6-0.2-0.9l0-1.6c0-0.7-0.3-1.1-1-1.1h-0.9v3.6h-1.7V164.5z M324.4,168.2h0.7
			c0.8,0,1.3-0.4,1.3-1.3c0-0.8-0.4-1.2-1.2-1.2h-0.8V168.2z"/>
		<path class="st0" d="M330.9,164.5h2.1l2.2,8.5h-1.8l-0.4-1.8h-2.3l-0.4,1.8h-1.8L330.9,164.5z M331.1,169.8h1.7L332,166h0
			L331.1,169.8z"/>
		<path class="st0" d="M339.5,167.4c0-1.2-0.2-1.8-1-1.8c-0.9,0-1.1,0.9-1.1,3.3c0,2.6,0.4,3,1.1,3c0.6,0,1.1-0.3,1.1-2.1h1.7
			c0,1.8-0.5,3.4-2.7,3.4c-2.6,0-2.9-1.8-2.9-4.4s0.3-4.4,2.9-4.4c2.4,0,2.6,1.8,2.6,3H339.5z"/>
		<path class="st0" d="M347.2,164.5v1.4h-1.8v7.1h-1.7v-7.1h-1.8v-1.4H347.2z"/>
		<path class="st0" d="M349.5,164.5v5.9c0,0.8,0.2,1.5,1,1.5c0.8,0,1-0.6,1-1.5v-5.9h1.7v5.9c0,2.2-1.3,2.7-2.7,2.7
			c-1.4,0-2.7-0.5-2.7-2.7v-5.9H349.5z"/>
		<path class="st0" d="M354.3,164.5h3.2c1.4,0,2.3,0.7,2.3,2.2c0,1.1-0.5,1.9-1.4,2.1v0c1.2,0.2,1.3,0.8,1.4,2.6
			c0,0.9,0.1,1.4,0.4,1.5v0.1h-1.8c-0.2-0.2-0.2-0.6-0.2-0.9l0-1.6c0-0.7-0.3-1.1-1-1.1H356v3.6h-1.7V164.5z M356,168.2h0.7
			c0.8,0,1.3-0.4,1.3-1.3c0-0.8-0.4-1.2-1.2-1.2H356V168.2z"/>
		<path class="st0" d="M365.6,164.5v1.4h-3v2h2.8v1.4h-2.8v2.3h3.1v1.4h-4.8v-8.5H365.6z"/>
	</g>
	<g>
		<path class="st0" d="M367.2,164.1h1v1.4h1.2v0.8h-1.2v3.7h-1v-3.7H366v-0.8h1.2V164.1z"/>
		<path class="st0" d="M370.5,168.8v0.1c0,0.3,0.2,0.6,0.5,0.6c0.3,0,0.5-0.2,0.5-0.5c0-0.3-0.1-0.4-0.4-0.6l-0.9-0.4
			c-0.5-0.2-0.7-0.6-0.7-1.1c0-0.4,0.2-0.8,0.6-1c-0.3-0.2-0.4-0.5-0.4-0.8c0-0.8,0.6-1.1,1.4-1.1c0.9,0,1.3,0.5,1.3,1.1h-0.9
			c0-0.1,0-0.2-0.1-0.3s-0.2-0.1-0.4-0.1c-0.3,0-0.4,0.2-0.4,0.4c0,0.2,0.1,0.3,0.4,0.5l0.8,0.4c0.4,0.2,0.8,0.5,0.8,1.1
			c0,0.4-0.2,0.8-0.5,1c0.2,0.2,0.4,0.5,0.4,0.9c0,0.8-0.5,1.2-1.4,1.2c-0.9,0-1.4-0.5-1.4-1.2v-0.1H370.5z M371.2,167.5
			c0.1,0.1,0.2,0.1,0.3,0.2c0.2-0.2,0.3-0.4,0.3-0.5c0-0.2-0.1-0.4-0.5-0.6l-0.7-0.4c-0.3,0.2-0.4,0.3-0.4,0.5c0,0.1,0.1,0.3,0.2,0.4
			L371.2,167.5z"/>
	</g>
</g>
<g class="cls-5 arrow2-mobile">
	<g>
		<path class="st3" d="M296.5,113.6c0,36.1,0.1,93.5,0.1,93.5L259,221l-36.6-13.9l0-93.5H296.5z"/>
	</g>
	<g>
		<path class="st0" d="M250.2,154.4c2.6,0,4.5-2.2,4.5-5v-1.4c0-2.5-1.7-4.6-4.7-4.6c-2.6,0-3.7,1.5-4.3,2.7
			c-2.1-0.5-6.2-1.4-6.2-1.4l3.1-17.7h16.9v6.2h-11.6c0,0-0.8,4.4-1.2,6.5c0.5-0.6,2.4-1.7,5-1.7c5.6,0,9.5,3.2,9.5,10v1.5
			c0,6.7-4.6,11.2-11.1,11.2c-6.6,0-11.1-4.7-11.1-11.4h6.5C245.5,153.1,247.5,154.4,250.2,154.4z"/>
	</g>
	<g>
		<path class="st0" d="M273.6,150.8l5.7,9.3h-4.8l-3.3-5.9l-3.3,5.9h-4.8l5.7-9.3l-5.4-8.8h4.8l2.9,5.3l2.8-5.3h4.9L273.6,150.8z"/>
	</g>
	<g>
		<path class="st0" d="M246.2,167.3h2.5l1.2,6h0l1.2-6h2.5v8.5h-1.6V169h0l-1.5,6.8h-1.3l-1.5-6.8h0v6.8h-1.6V167.3z"/>
		<path class="st0" d="M257.7,167.1c2.6,0,2.9,1.8,2.9,4.4s-0.3,4.4-2.9,4.4s-2.9-1.8-2.9-4.4S255.1,167.1,257.7,167.1z M257.7,174.6
			c1,0,1.2-0.9,1.2-3.1c0-2.3-0.2-3.1-1.2-3.1s-1.2,0.9-1.2,3.1C256.5,173.8,256.7,174.6,257.7,174.6z"/>
		<path class="st0" d="M261.6,167.3h3.2c1.4,0,2.3,0.7,2.3,2.2c0,1.1-0.5,1.9-1.4,2.1v0c1.2,0.2,1.3,0.8,1.4,2.6
			c0,0.9,0.1,1.4,0.4,1.5v0.1h-1.8c-0.2-0.2-0.2-0.6-0.2-0.9l0-1.6c0-0.7-0.3-1.1-1-1.1h-0.9v3.6h-1.7V167.3z M263.3,171h0.7
			c0.8,0,1.3-0.4,1.3-1.3c0-0.8-0.4-1.2-1.2-1.2h-0.8V171z"/>
		<path class="st0" d="M272.9,167.3v1.4h-3v2h2.8v1.4h-2.8v2.3h3.1v1.4h-4.8v-8.5H272.9z"/>
	</g>
	<g>
		<path class="st0" d="M236.3,188.7v-8.5h1.7v7.1h3v1.4H236.3z"/>
		<path class="st0" d="M241.9,188.7v-8.5h1.7v8.5H241.9z"/>
		<path class="st0" d="M246.6,180.2v3.4h0l2.2-3.4h1.8l-2.3,3.6l2.6,4.8H249l-1.7-3.5l-0.6,1v2.5h-1.7v-8.5H246.6z"/>
		<path class="st0" d="M256,180.2v1.4h-3v2h2.8v1.4H253v2.3h3.1v1.4h-4.8v-8.5H256z"/>
		<path class="st0" d="M257,188.7v-8.5h1.7v7.1h3v1.4H257z"/>
		<path class="st0" d="M263.8,180.2l1.1,3.3h0l1.2-3.3h1.8l-2.2,5.1v3.3h-1.7v-3.3l-2.2-5.1H263.8z"/>
		<path class="st0" d="M276.4,180.2v1.4h-1.8v7.1h-1.7v-7.1H271v-1.4H276.4z"/>
		<path class="st0" d="M279.9,180c2.6,0,2.9,1.8,2.9,4.4s-0.3,4.4-2.9,4.4s-2.9-1.8-2.9-4.4S277.3,180,279.9,180z M279.9,187.6
			c1,0,1.2-0.9,1.2-3.1c0-2.3-0.2-3.1-1.2-3.1s-1.2,0.9-1.2,3.1C278.7,186.7,278.9,187.6,279.9,187.6z"/>
	</g>
	<g>
		<path class="st0" d="M232,193.1h4.7v1.4h-3v2h2.8v1.4h-2.8v3.7H232V193.1z"/>
		<path class="st0" d="M237.5,193.1h3.2c1.4,0,2.3,0.7,2.3,2.2c0,1.1-0.5,1.9-1.4,2.1v0c1.2,0.2,1.3,0.8,1.4,2.6
			c0,0.9,0.1,1.4,0.4,1.5v0.1h-1.8c-0.2-0.2-0.2-0.6-0.2-0.9l0-1.6c0-0.7-0.3-1.1-1-1.1h-0.9v3.6h-1.7V193.1z M239.2,196.8h0.7
			c0.8,0,1.3-0.4,1.3-1.3c0-0.8-0.4-1.2-1.2-1.2h-0.8V196.8z"/>
		<path class="st0" d="M245.7,193.1h2.1l2.2,8.5h-1.8l-0.4-1.8h-2.3l-0.4,1.8h-1.8L245.7,193.1z M246,198.4h1.7l-0.8-3.8h0L246,198.4
			z"/>
		<path class="st0" d="M254.3,196c0-1.2-0.2-1.8-1-1.8c-0.9,0-1.1,0.9-1.1,3.3c0,2.6,0.4,3,1.1,3c0.6,0,1.1-0.3,1.1-2.1h1.7
			c0,1.8-0.5,3.4-2.7,3.4c-2.6,0-2.9-1.8-2.9-4.4s0.3-4.4,2.9-4.4c2.4,0,2.6,1.8,2.6,3H254.3z"/>
		<path class="st0" d="M262,193.1v1.4h-1.8v7.1h-1.7v-7.1h-1.8v-1.4H262z"/>
		<path class="st0" d="M264.4,193.1v5.9c0,0.8,0.2,1.5,1,1.5c0.8,0,1-0.6,1-1.5v-5.9h1.7v5.9c0,2.2-1.3,2.7-2.7,2.7
			c-1.4,0-2.7-0.5-2.7-2.7v-5.9H264.4z"/>
		<path class="st0" d="M269.1,193.1h3.2c1.4,0,2.3,0.7,2.3,2.2c0,1.1-0.5,1.9-1.4,2.1v0c1.2,0.2,1.3,0.8,1.4,2.6
			c0,0.9,0.1,1.4,0.4,1.5v0.1H273c-0.2-0.2-0.2-0.6-0.2-0.9l0-1.6c0-0.7-0.3-1.1-1-1.1h-0.9v3.6h-1.7V193.1z M270.8,196.8h0.7
			c0.8,0,1.3-0.4,1.3-1.3c0-0.8-0.4-1.2-1.2-1.2h-0.8V196.8z"/>
		<path class="st0" d="M280.5,193.1v1.4h-3v2h2.8v1.4h-2.8v2.3h3.1v1.4h-4.8v-8.5H280.5z"/>
	</g>
	<g>
		<path class="st0" d="M282,192.7h1v1.4h1.2v0.8H283v3.7h-1v-3.7h-1.2v-0.8h1.2V192.7z"/>
		<path class="st0" d="M285.3,197.4v0.1c0,0.3,0.2,0.6,0.5,0.6c0.3,0,0.5-0.2,0.5-0.5c0-0.3-0.1-0.4-0.4-0.6l-0.9-0.4
			c-0.5-0.2-0.7-0.6-0.7-1.1c0-0.4,0.2-0.8,0.6-1c-0.3-0.2-0.4-0.5-0.4-0.8c0-0.8,0.6-1.1,1.4-1.1c0.9,0,1.3,0.5,1.3,1.1h-0.9
			c0-0.1,0-0.2-0.1-0.3s-0.2-0.1-0.4-0.1c-0.3,0-0.4,0.2-0.4,0.4c0,0.2,0.1,0.3,0.4,0.5l0.8,0.4c0.4,0.2,0.8,0.5,0.8,1.1
			c0,0.4-0.2,0.8-0.5,1c0.2,0.2,0.4,0.5,0.4,0.9c0,0.8-0.5,1.2-1.4,1.2c-0.9,0-1.4-0.5-1.4-1.2v-0.1H285.3z M286,196.2
			c0.1,0.1,0.2,0.1,0.3,0.2c0.2-0.2,0.3-0.4,0.3-0.5c0-0.2-0.1-0.4-0.5-0.6l-0.7-0.4c-0.3,0.2-0.4,0.3-0.4,0.5c0,0.1,0.1,0.3,0.2,0.4
			L286,196.2z"/>
	</g>
</g>
<g class="cls-5 arrow1-mobile">
	<g>
		<path class="st3" d="M210.8,169c0,36.1,0.1,93.5,0.1,93.5l-37.6,13.9l-36.6-13.9l0-93.5H210.8z"/>
	</g>
	<g>
		<path class="st0" d="M157,198.6c0,0.6-0.1,1.1-0.3,1.5s-0.4,0.8-0.7,1.1s-0.6,0.5-1,0.7s-0.8,0.2-1.2,0.2s-0.8,0-1.1-0.1
			s-0.6-0.2-0.8-0.4s-0.4-0.3-0.6-0.5s-0.3-0.4-0.5-0.6s-0.3-0.4-0.5-0.5s-0.3-0.3-0.4-0.5s-0.3-0.2-0.5-0.3s-0.4-0.1-0.6-0.1
			c-0.3,0-0.5,0.1-0.7,0.2s-0.4,0.3-0.5,0.5s-0.2,0.4-0.3,0.7s-0.1,0.5-0.1,0.8c0,0.2-0.1,0.3-0.2,0.3s-0.4,0.1-0.6,0.1
			c-0.2,0-0.3,0-0.4,0s-0.2,0-0.3-0.1s-0.1-0.1-0.1-0.1s0-0.1,0-0.2V201c0-0.6,0.1-1.1,0.2-1.5s0.4-0.8,0.7-1.1s0.6-0.5,1-0.7
			s0.8-0.2,1.3-0.2c0.4,0,0.7,0,1,0.1s0.6,0.2,0.8,0.3s0.4,0.3,0.6,0.5s0.3,0.4,0.5,0.6s0.3,0.4,0.4,0.5s0.3,0.3,0.4,0.5
			s0.3,0.2,0.5,0.3s0.4,0.1,0.6,0.1c0.3,0,0.5-0.1,0.7-0.2s0.4-0.3,0.5-0.5s0.2-0.4,0.3-0.7s0.1-0.6,0.1-0.9c0-0.1,0.1-0.2,0.2-0.3
			s0.3-0.1,0.6-0.1c0.2,0,0.3,0,0.4,0s0.2,0,0.3,0.1s0.1,0.1,0.1,0.1s0,0.1,0,0.2V198.6z"/>
	</g>
	<g>
		<path class="st0" d="M181.2,205.6c0,6.4-4.6,10.5-11.4,10.5c-6.6,0-11.4-4.3-11.4-11.5c2.2,0,4.4,0,6.5,0c0,3.9,2.4,5.3,5,5.3
			c2.5,0,4.7-1.2,4.7-4.3c0-2.7-1.8-3.9-5-3.9h-3.8v-5.5c4,0,8.3,0,8.3-4.1c0-3-2.1-4.2-4.6-4.2c-3,0-4.5,2-4.5,5.1h-6.4
			c0-6.7,4.4-11,10.9-11c6.4,0,10.9,4,10.9,9.4c0,3.7-1.7,6.2-4.5,7.3C178.6,199.3,181.2,201.5,181.2,205.6z"/>
	</g>
	<g>
		<path class="st0" d="M192.4,206.2l5.7,9.3h-4.8l-3.3-5.9l-3.3,5.9H182l5.7-9.3l-5.4-8.8h4.8l2.9,5.3l2.8-5.3h4.9L192.4,206.2z"/>
	</g>
	<g>
		<path class="st0" d="M160.5,222.7h2.5l1.2,6h0l1.2-6h2.5v8.5h-1.6v-6.8h0l-1.5,6.8h-1.3l-1.5-6.8h0v6.8h-1.6V222.7z"/>
		<path class="st0" d="M172,222.5c2.6,0,2.9,1.8,2.9,4.4c0,2.6-0.3,4.4-2.9,4.4s-2.9-1.8-2.9-4.4C169.1,224.3,169.4,222.5,172,222.5z
			M172,230c1,0,1.2-0.9,1.2-3.1c0-2.3-0.2-3.1-1.2-3.1s-1.2,0.9-1.2,3.1C170.8,229.2,171,230,172,230z"/>
		<path class="st0" d="M175.9,222.7h3.2c1.4,0,2.3,0.7,2.3,2.2c0,1.1-0.5,1.9-1.4,2.1v0c1.2,0.2,1.3,0.8,1.4,2.6
			c0,0.9,0.1,1.4,0.4,1.5v0.1h-1.8c-0.2-0.2-0.2-0.6-0.2-0.9l0-1.6c0-0.7-0.3-1.1-1-1.1h-0.9v3.6h-1.7V222.7z M177.6,226.4h0.7
			c0.8,0,1.3-0.4,1.3-1.3c0-0.8-0.4-1.2-1.2-1.2h-0.8V226.4z"/>
		<path class="st0" d="M187.2,222.7v1.4h-3v2h2.8v1.4h-2.8v2.3h3.1v1.4h-4.8v-8.5H187.2z"/>
	</g>
	<g>
		<path class="st0" d="M150.6,244.1v-8.5h1.7v7.1h3v1.4H150.6z"/>
		<path class="st0" d="M156.2,244.1v-8.5h1.7v8.5H156.2z"/>
		<path class="st0" d="M160.9,235.6v3.4h0l2.2-3.4h1.8l-2.3,3.6l2.6,4.8h-1.9l-1.7-3.5l-0.6,1v2.5h-1.7v-8.5H160.9z"/>
		<path class="st0" d="M170.3,235.6v1.4h-3v2h2.8v1.4h-2.8v2.3h3.1v1.4h-4.8v-8.5H170.3z"/>
		<path class="st0" d="M171.3,244.1v-8.5h1.7v7.1h3v1.4H171.3z"/>
		<path class="st0" d="M178.1,235.6l1.1,3.3h0l1.2-3.3h1.8l-2.2,5.1v3.3h-1.7v-3.3l-2.2-5.1H178.1z"/>
		<path class="st0" d="M190.7,235.6v1.4h-1.8v7.1h-1.7V237h-1.8v-1.4H190.7z"/>
		<path class="st0" d="M194.2,235.4c2.6,0,2.9,1.8,2.9,4.4c0,2.6-0.3,4.4-2.9,4.4s-2.9-1.8-2.9-4.4
			C191.3,237.3,191.6,235.4,194.2,235.4z M194.2,243c1,0,1.2-0.9,1.2-3.1c0-2.3-0.2-3.1-1.2-3.1s-1.2,0.9-1.2,3.1
			C193,242.1,193.2,243,194.2,243z"/>
	</g>
	<g>
		<path class="st0" d="M146.3,248.5h4.7v1.4h-3v2h2.8v1.4H148v3.7h-1.7V248.5z"/>
		<path class="st0" d="M151.8,248.5h3.2c1.4,0,2.3,0.7,2.3,2.2c0,1.1-0.5,1.9-1.4,2.1v0c1.2,0.2,1.3,0.8,1.4,2.6
			c0,0.9,0.1,1.4,0.4,1.5v0.1h-1.8c-0.2-0.2-0.2-0.6-0.2-0.9l0-1.6c0-0.7-0.3-1.1-1-1.1h-0.9v3.6h-1.7V248.5z M153.5,252.2h0.7
			c0.8,0,1.3-0.4,1.3-1.3c0-0.8-0.4-1.2-1.2-1.2h-0.8V252.2z"/>
		<path class="st0" d="M160,248.5h2.1l2.2,8.5h-1.8l-0.4-1.8H160l-0.4,1.8h-1.8L160,248.5z M160.3,253.8h1.7l-0.8-3.8h0L160.3,253.8z
			"/>
		<path class="st0" d="M168.6,251.4c0-1.2-0.2-1.8-1-1.8c-0.9,0-1.1,0.9-1.1,3.3c0,2.6,0.4,3,1.1,3c0.6,0,1.1-0.3,1.1-2.1h1.7
			c0,1.8-0.5,3.4-2.7,3.4c-2.6,0-2.9-1.8-2.9-4.4c0-2.6,0.3-4.4,2.9-4.4c2.4,0,2.6,1.8,2.6,3H168.6z"/>
		<path class="st0" d="M176.3,248.5v1.4h-1.8v7.1h-1.7v-7.1h-1.8v-1.4H176.3z"/>
		<path class="st0" d="M178.7,248.5v5.9c0,0.8,0.2,1.5,1,1.5c0.8,0,1-0.6,1-1.5v-5.9h1.7v5.9c0,2.2-1.3,2.7-2.7,2.7s-2.7-0.5-2.7-2.7
			v-5.9H178.7z"/>
		<path class="st0" d="M183.4,248.5h3.2c1.4,0,2.3,0.7,2.3,2.2c0,1.1-0.5,1.9-1.4,2.1v0c1.2,0.2,1.3,0.8,1.4,2.6
			c0,0.9,0.1,1.4,0.4,1.5v0.1h-1.8c-0.2-0.2-0.2-0.6-0.2-0.9l0-1.6c0-0.7-0.3-1.1-1-1.1h-0.9v3.6h-1.7V248.5z M185.1,252.2h0.7
			c0.8,0,1.3-0.4,1.3-1.3c0-0.8-0.4-1.2-1.2-1.2h-0.8V252.2z"/>
		<path class="st0" d="M194.8,248.5v1.4h-3v2h2.8v1.4h-2.8v2.3h3.1v1.4H190v-8.5H194.8z"/>
	</g>
	<g>
		<path class="st0" d="M196.3,248.1h1v1.4h1.2v0.8h-1.2v3.7h-1v-3.7h-1.2v-0.8h1.2V248.1z"/>
		<path class="st0" d="M199.6,252.7h-1.2v-0.8h1.2v-1.7h-1.2v-0.8h1.2v-1.3h1v1.3h1.2v0.8h-1.2v1.7h1.2v0.8h-1.2v1.3h-1V252.7z"/>
	</g>
</g>
</svg>
