<?xml version="1.0" encoding="utf-8"?>
<!-- Generator: Adobe Illustrator 22.1.0, SVG Export Plug-In . SVG Version: 6.00 Build 0)  -->
<svg version="1.1" id="Layer_1" xmlns="http://www.w3.org/2000/svg" xmlns:xlink="http://www.w3.org/1999/xlink" x="0px" y="0px"
	 viewBox="0 0 588.2 336.5" style="enable-background:new 0 0 588.2 336.5;" xml:space="preserve">
<title>Incidence of new vertebral fracture in first year study</title>
<style type="text/css">
	.st0{fill:#FFFFFF;}
	.st1{fill:none !important;stroke:#FFFFFF;stroke-width:0.5;stroke-miterlimit:10;}
	.st2{fill:#FF8300;}
	.st3{fill:#CE009F;}
</style>
<g>
	<path class="st0" d="M21,19.6h-1.2V9.7H21V19.6z"/>
	<path class="st0" d="M24,19.6h-1.1v-7.9h1.1v0.8c0.2-0.4,0.7-0.9,1.7-0.9c1.5,0,2.1,1,2.1,2.7v5.2h-1.1v-5.2c0-1.2-0.2-1.8-1.3-1.8
		c-0.9,0-1.3,0.5-1.3,1.6V19.6z"/>
	<path class="st0" d="M32.8,17.1h1.1c0,1.6-0.9,2.6-2.4,2.6s-2.4-1-2.4-2.6v-3c0-1.5,0.9-2.5,2.4-2.5c1.5,0,2.4,1,2.4,2.6h-1.1
		c0-1-0.4-1.6-1.3-1.6c-0.8,0-1.3,0.5-1.3,1.4v3.2c0,0.9,0.5,1.4,1.3,1.4C32.4,18.7,32.8,18.1,32.8,17.1z"/>
	<path class="st0" d="M36,10.8c-0.4,0-0.7-0.3-0.7-0.7c0-0.4,0.3-0.7,0.7-0.7c0.4,0,0.7,0.3,0.7,0.7C36.7,10.5,36.4,10.8,36,10.8z
		 M36.5,19.6h-1.1v-7.9h1.1V19.6z"/>
	<path class="st0" d="M38.1,17.2v-3.2c0-1.6,0.8-2.5,2.1-2.5c0.9,0,1.4,0.5,1.6,0.8V9h1.1v10.6h-1.1v-0.8c-0.2,0.4-0.7,0.9-1.7,0.9
		C38.9,19.7,38.1,18.8,38.1,17.2z M41.8,17.1v-3.1c0-1-0.5-1.5-1.3-1.5c-0.8,0-1.3,0.6-1.3,1.6v3c0,1,0.5,1.6,1.3,1.6
		C41.3,18.7,41.8,18.2,41.8,17.1z"/>
	<path class="st0" d="M49.3,16h-3.7v1.1c0,1,0.4,1.7,1.3,1.7c0.8,0,1.3-0.5,1.3-1.2v-0.3h1.1c0,0,0,0,0,0.1c0,1.2-0.8,2.3-2.4,2.3
		c-1.5,0-2.4-1-2.4-2.6v-3c0-1.5,0.9-2.5,2.4-2.5c1.5,0,2.4,1,2.4,2.5V16z M46.9,12.6c-0.8,0-1.3,0.5-1.3,1.4v1.2h2.6V14
		C48.2,13.1,47.6,12.6,46.9,12.6z"/>
	<path class="st0" d="M52,19.6h-1.1v-7.9h1.1v0.8c0.2-0.4,0.7-0.9,1.7-0.9c1.5,0,2.1,1,2.1,2.7v5.2h-1.1v-5.2c0-1.2-0.2-1.8-1.3-1.8
		c-0.9,0-1.3,0.5-1.3,1.6V19.6z"/>
	<path class="st0" d="M60.8,17.1H62c0,1.6-0.9,2.6-2.4,2.6s-2.4-1-2.4-2.6v-3c0-1.5,0.9-2.5,2.4-2.5c1.5,0,2.4,1,2.4,2.6h-1.1
		c0-1-0.4-1.6-1.3-1.6c-0.8,0-1.3,0.5-1.3,1.4v3.2c0,0.9,0.5,1.4,1.3,1.4C60.4,18.7,60.8,18.1,60.8,17.1z"/>
	<path class="st0" d="M68.1,16h-3.7v1.1c0,1,0.4,1.7,1.3,1.7c0.8,0,1.3-0.5,1.3-1.2v-0.3h1.1c0,0,0,0,0,0.1c0,1.2-0.8,2.3-2.4,2.3
		c-1.5,0-2.4-1-2.4-2.6v-3c0-1.5,0.9-2.5,2.4-2.5c1.5,0,2.4,1,2.4,2.5V16z M65.7,12.6c-0.8,0-1.3,0.5-1.3,1.4v1.2H67V14
		C67,13.1,66.5,12.6,65.7,12.6z"/>
	<path class="st0" d="M72.1,17.1v-3c0-1.5,0.9-2.5,2.4-2.5c1.5,0,2.4,1,2.4,2.5v3c0,1.6-0.9,2.6-2.4,2.6
		C73,19.7,72.1,18.7,72.1,17.1z M73.2,14v3.2c0,0.9,0.5,1.4,1.3,1.4c0.7,0,1.3-0.5,1.3-1.4V14c0-0.9-0.5-1.4-1.3-1.4
		C73.8,12.6,73.2,13.1,73.2,14z"/>
	<path class="st0" d="M81.3,10c0,0-0.1,0-0.3,0c-0.9,0-1,0.3-1,1.8h1.3v1H80v6.9h-1.1v-6.9h-0.7v-1h0.7c0-2,0.3-2.8,1.8-2.8
		c0.4,0,0.6,0,0.6,0V10z"/>
	<path class="st0" d="M86.4,19.6h-1.1v-7.9h1.1v0.8c0.2-0.4,0.7-0.9,1.7-0.9c1.5,0,2.1,1,2.1,2.7v5.2h-1.1v-5.2
		c0-1.2-0.2-1.8-1.3-1.8c-0.9,0-1.3,0.5-1.3,1.6V19.6z"/>
	<path class="st0" d="M96.4,16h-3.7v1.1c0,1,0.4,1.7,1.3,1.7c0.8,0,1.3-0.5,1.3-1.2v-0.3h1.1c0,0,0,0,0,0.1c0,1.2-0.8,2.3-2.4,2.3
		c-1.5,0-2.4-1-2.4-2.6v-3c0-1.5,0.9-2.5,2.4-2.5c1.5,0,2.4,1,2.4,2.5V16z M94,12.6c-0.8,0-1.3,0.5-1.3,1.4v1.2h2.6V14
		C95.2,13.1,94.7,12.6,94,12.6z"/>
	<path class="st0" d="M97.4,11.7h1.2l1.2,5.6l1.2-5.6h1l1.2,5.6l1.2-5.6h1.1l-1.8,7.9h-1.1l-1.1-5.5l-1.1,5.5h-1.1L97.4,11.7z"/>
	<path class="st0" d="M108.7,11.7h1.2l1.5,6.1l1.5-6.1h1.2l-2.1,7.9h-1.2L108.7,11.7z"/>
	<path class="st0" d="M119.9,16h-3.7v1.1c0,1,0.4,1.7,1.3,1.7c0.8,0,1.3-0.5,1.3-1.2v-0.3h1.1c0,0,0,0,0,0.1c0,1.2-0.8,2.3-2.4,2.3
		c-1.5,0-2.4-1-2.4-2.6v-3c0-1.5,0.9-2.5,2.4-2.5c1.5,0,2.4,1,2.4,2.5V16z M117.5,12.6c-0.8,0-1.3,0.5-1.3,1.4v1.2h2.6V14
		C118.8,13.1,118.3,12.6,117.5,12.6z"/>
	<path class="st0" d="M124.4,12.7h-0.2c-1.2,0-1.6,0.9-1.6,2.3v4.5h-1.1v-7.9h1.1v1c0.2-0.4,0.7-1.1,1.6-1.1c0.1,0,0.2,0,0.2,0V12.7
		z"/>
	<path class="st0" d="M125.3,11.8c0.7,0,1-0.3,1-1.5h0.7v1.4h1.4v1h-1.4v3.8c0,1.6,0,2.1,1,2.1c0.2,0,0.3,0,0.5,0v1
		c-0.1,0-0.4,0-0.6,0c-1.8,0-2-1.1-2-2.8v-4.2h-0.6V11.8z"/>
	<path class="st0" d="M134.6,16h-3.7v1.1c0,1,0.4,1.7,1.3,1.7c0.8,0,1.3-0.5,1.3-1.2v-0.3h1.1c0,0,0,0,0,0.1c0,1.2-0.8,2.3-2.4,2.3
		c-1.5,0-2.4-1-2.4-2.6v-3c0-1.5,0.9-2.5,2.4-2.5c1.5,0,2.4,1,2.4,2.5V16z M132.2,12.6c-0.8,0-1.3,0.5-1.3,1.4v1.2h2.6V14
		C133.5,13.1,133,12.6,132.2,12.6z"/>
	<path class="st0" d="M137.2,18.7v0.8h-1.1V9h1.1v3.5c0.2-0.4,0.7-0.9,1.6-0.9c1.3,0,2.1,0.8,2.1,2.5v3.2c0,1.6-0.8,2.5-2.1,2.5
		C137.9,19.7,137.5,19.2,137.2,18.7z M139.8,17.1v-3c0-1-0.5-1.6-1.3-1.6c-0.8,0-1.3,0.5-1.3,1.5v3.1c0,1,0.5,1.6,1.3,1.6
		C139.4,18.7,139.8,18.2,139.8,17.1z"/>
	<path class="st0" d="M145.4,12.7h-0.2c-1.2,0-1.6,0.9-1.6,2.3v4.5h-1.1v-7.9h1.1v1c0.2-0.4,0.7-1.1,1.6-1.1c0.1,0,0.2,0,0.2,0V12.7
		z"/>
	<path class="st0" d="M146.7,17.2v-3.1c0-1.6,0.8-2.5,2-2.5c0.9,0,1.5,0.5,1.7,0.9v-0.8h1.1v7.9h-1.1v-0.8c-0.2,0.4-0.8,0.9-1.7,0.9
		C147.5,19.7,146.7,18.8,146.7,17.2z M150.4,17.1v-3c0-1-0.5-1.5-1.3-1.5c-0.8,0-1.3,0.5-1.3,1.6v3c0,1.1,0.5,1.6,1.3,1.6
		C149.9,18.7,150.4,18.2,150.4,17.1z"/>
	<path class="st0" d="M154.4,19.6h-1.1V9h1.1V19.6z"/>
	<path class="st0" d="M161.5,10c0,0-0.1,0-0.3,0c-0.9,0-1,0.3-1,1.8h1.3v1h-1.3v6.9h-1.1v-6.9h-0.7v-1h0.7c0-2,0.3-2.8,1.8-2.8
		c0.4,0,0.6,0,0.6,0V10z"/>
	<path class="st0" d="M165.7,12.7h-0.2c-1.2,0-1.6,0.9-1.6,2.3v4.5h-1.1v-7.9h1.1v1c0.2-0.4,0.7-1.1,1.6-1.1c0.1,0,0.2,0,0.2,0V12.7
		z"/>
	<path class="st0" d="M167,17.2v-3.1c0-1.6,0.8-2.5,2-2.5c0.9,0,1.5,0.5,1.7,0.9v-0.8h1.1v7.9h-1.1v-0.8c-0.2,0.4-0.8,0.9-1.7,0.9
		C167.8,19.7,167,18.8,167,17.2z M170.7,17.1v-3c0-1-0.5-1.5-1.3-1.5c-0.8,0-1.3,0.5-1.3,1.6v3c0,1.1,0.5,1.6,1.3,1.6
		C170.2,18.7,170.7,18.2,170.7,17.1z"/>
	<path class="st0" d="M177.1,17.1h1.1c0,1.6-0.9,2.6-2.4,2.6s-2.4-1-2.4-2.6v-3c0-1.5,0.9-2.5,2.4-2.5c1.5,0,2.4,1,2.4,2.6h-1.1
		c0-1-0.4-1.6-1.3-1.6c-0.8,0-1.3,0.5-1.3,1.4v3.2c0,0.9,0.5,1.4,1.3,1.4C176.6,18.7,177.1,18.1,177.1,17.1z"/>
	<path class="st0" d="M179.2,11.8c0.7,0,1-0.3,1-1.5h0.7v1.4h1.4v1H181v3.8c0,1.6,0,2.1,1,2.1c0.2,0,0.3,0,0.5,0v1
		c-0.1,0-0.4,0-0.6,0c-1.8,0-2-1.1-2-2.8v-4.2h-0.6V11.8z"/>
	<path class="st0" d="M183.7,11.7h1.1v5.6c0,0.9,0.5,1.4,1.3,1.4c0.7,0,1.3-0.5,1.3-1.4v-5.6h1.1v5.4c0,1.6-0.9,2.6-2.4,2.6
		c-1.5,0-2.4-1-2.4-2.6V11.7z"/>
	<path class="st0" d="M193.1,12.7h-0.2c-1.2,0-1.6,0.9-1.6,2.3v4.5h-1.1v-7.9h1.1v1c0.2-0.4,0.7-1.1,1.6-1.1c0.1,0,0.2,0,0.2,0V12.7
		z"/>
	<path class="st0" d="M199.1,16h-3.7v1.1c0,1,0.4,1.7,1.3,1.7c0.8,0,1.3-0.5,1.3-1.2v-0.3h1.1c0,0,0,0,0,0.1c0,1.2-0.8,2.3-2.4,2.3
		c-1.5,0-2.4-1-2.4-2.6v-3c0-1.5,0.9-2.5,2.4-2.5c1.5,0,2.4,1,2.4,2.5V16z M196.7,12.6c-0.8,0-1.3,0.5-1.3,1.4v1.2h2.6V14
		C198,13.1,197.5,12.6,196.7,12.6z"/>
	<path class="st0" d="M203.9,10.8c-0.4,0-0.7-0.3-0.7-0.7c0-0.4,0.3-0.7,0.7-0.7c0.4,0,0.7,0.3,0.7,0.7
		C204.6,10.5,204.2,10.8,203.9,10.8z M204.4,19.6h-1.1v-7.9h1.1V19.6z"/>
	<path class="st0" d="M207.2,19.6h-1.1v-7.9h1.1v0.8c0.2-0.4,0.7-0.9,1.7-0.9c1.5,0,2.1,1,2.1,2.7v5.2h-1.1v-5.2
		c0-1.2-0.2-1.8-1.3-1.8c-0.9,0-1.3,0.5-1.3,1.6V19.6z"/>
	<path class="st0" d="M219.6,10.7h-1.1c0-0.4-0.2-0.8-0.9-0.8c-0.8,0-1,0.4-1,1.1v0.6h1v1h-1v6.9h-1.1v-6.9h-0.7v-1h0.7v-0.4
		c0-1.6,0.5-2.5,2.1-2.5C218.9,8.9,219.6,9.6,219.6,10.7z M219.6,19.6h-1.1v-7.9h1.1V19.6z"/>
	<path class="st0" d="M224.2,12.7h-0.2c-1.2,0-1.6,0.9-1.6,2.3v4.5h-1.1v-7.9h1.1v1c0.2-0.4,0.7-1.1,1.6-1.1c0.1,0,0.2,0,0.2,0V12.7
		z"/>
	<path class="st0" d="M230.1,14H229c0-0.9-0.5-1.3-1.2-1.3c-0.7,0-1.2,0.4-1.2,1c0,1.7,3.5,1.2,3.5,3.9c0,1.1-0.7,2.2-2.4,2.2
		c-1.5,0-2.5-0.9-2.5-2.4h1.1c0,0.9,0.5,1.4,1.3,1.4c0.6,0,1.2-0.4,1.2-1.1c0-1.9-3.5-1.4-3.5-3.9c0-1.1,0.8-2.1,2.2-2.1
		C229.3,11.6,230.1,12.5,230.1,14z"/>
	<path class="st0" d="M231.2,11.8c0.7,0,1-0.3,1-1.5h0.7v1.4h1.4v1h-1.4v3.8c0,1.6,0,2.1,1,2.1c0.2,0,0.3,0,0.5,0v1
		c-0.1,0-0.4,0-0.6,0c-1.8,0-2-1.1-2-2.8v-4.2h-0.6V11.8z"/>
	<path class="st0" d="M240,19.5l-2.1-7.8h1.2l1.5,5.9l1.5-5.9h1.2l-2.9,10.5h-1.1L240,19.5z"/>
	<path class="st0" d="M249.2,16h-3.7v1.1c0,1,0.4,1.7,1.3,1.7c0.8,0,1.3-0.5,1.3-1.2v-0.3h1.1c0,0,0,0,0,0.1c0,1.2-0.8,2.3-2.4,2.3
		c-1.5,0-2.4-1-2.4-2.6v-3c0-1.5,0.9-2.5,2.4-2.5c1.5,0,2.4,1,2.4,2.5V16z M246.8,12.6c-0.8,0-1.3,0.5-1.3,1.4v1.2h2.6V14
		C248,13.1,247.5,12.6,246.8,12.6z"/>
	<path class="st0" d="M250.6,17.2v-3.1c0-1.6,0.8-2.5,2-2.5c0.9,0,1.5,0.5,1.7,0.9v-0.8h1.1v7.9h-1.1v-0.8c-0.2,0.4-0.8,0.9-1.7,0.9
		C251.4,19.7,250.6,18.8,250.6,17.2z M254.3,17.1v-3c0-1-0.5-1.5-1.3-1.5c-0.8,0-1.3,0.5-1.3,1.6v3c0,1.1,0.5,1.6,1.3,1.6
		C253.8,18.7,254.3,18.2,254.3,17.1z"/>
	<path class="st0" d="M260,12.7h-0.2c-1.2,0-1.6,0.9-1.6,2.3v4.5h-1.1v-7.9h1.1v1c0.2-0.4,0.7-1.1,1.6-1.1c0.1,0,0.2,0,0.2,0V12.7z"
		/>
	<path class="st0" d="M263.9,17.1v-3c0-1.5,0.9-2.5,2.4-2.5c1.5,0,2.4,1,2.4,2.5v3c0,1.6-0.9,2.6-2.4,2.6
		C264.8,19.7,263.9,18.7,263.9,17.1z M265,14v3.2c0,0.9,0.5,1.4,1.3,1.4c0.7,0,1.3-0.5,1.3-1.4V14c0-0.9-0.5-1.4-1.3-1.4
		C265.5,12.6,265,13.1,265,14z"/>
	<path class="st0" d="M273,10c0,0-0.1,0-0.3,0c-0.9,0-1,0.3-1,1.8h1.3v1h-1.3v6.9h-1.1v-6.9h-0.7v-1h0.7c0-2,0.3-2.8,1.8-2.8
		c0.4,0,0.6,0,0.6,0V10z"/>
	<path class="st0" d="M281.5,14h-1.1c0-0.9-0.5-1.3-1.2-1.3c-0.7,0-1.2,0.4-1.2,1c0,1.7,3.5,1.2,3.5,3.9c0,1.1-0.7,2.2-2.4,2.2
		c-1.5,0-2.5-0.9-2.5-2.4h1.1c0,0.9,0.5,1.4,1.3,1.4c0.6,0,1.2-0.4,1.2-1.1c0-1.9-3.5-1.4-3.5-3.9c0-1.1,0.8-2.1,2.2-2.1
		C280.6,11.6,281.5,12.5,281.5,14z"/>
	<path class="st0" d="M282.5,11.8c0.7,0,1-0.3,1-1.5h0.7v1.4h1.4v1h-1.4v3.8c0,1.6,0,2.1,1,2.1c0.2,0,0.3,0,0.5,0v1
		c-0.1,0-0.4,0-0.6,0c-1.8,0-2-1.1-2-2.8v-4.2h-0.6V11.8z"/>
	<path class="st0" d="M287,11.7h1.1v5.6c0,0.9,0.5,1.4,1.3,1.4c0.7,0,1.3-0.5,1.3-1.4v-5.6h1.1v5.4c0,1.6-0.9,2.6-2.4,2.6
		c-1.5,0-2.4-1-2.4-2.6V11.7z"/>
	<path class="st0" d="M293.4,17.2v-3.2c0-1.6,0.8-2.5,2.1-2.5c0.9,0,1.4,0.5,1.6,0.8V9h1.1v10.6h-1.1v-0.8c-0.2,0.4-0.7,0.9-1.7,0.9
		C294.1,19.7,293.4,18.8,293.4,17.2z M297,17.1v-3.1c0-1-0.5-1.5-1.3-1.5c-0.8,0-1.3,0.6-1.3,1.6v3c0,1,0.5,1.6,1.3,1.6
		C296.6,18.7,297,18.2,297,17.1z"/>
	<path class="st0" d="M301.5,19.5l-2.1-7.8h1.2l1.5,5.9l1.5-5.9h1.2l-2.9,10.5h-1.1L301.5,19.5z"/>
</g>
<g>
	<path class="st0" d="M305.7,9.2h3.3v0.6c-0.3,0.4-0.8,1.1-1.1,2c-0.4,0.9-0.7,1.9-0.8,3.1h-0.8c0.1-0.9,0.3-1.8,0.7-2.6
		c0.3-0.8,0.8-1.7,1.4-2.4h-2.6V9.2z"/>
</g>
<g>
	<path class="st0" d="M311.4,9.6h0.8v1.7l1.5-0.6l0.3,0.8l-1.6,0.5l1.1,1.3l-0.7,0.5l-1-1.4l-1,1.4l-0.7-0.5l1.1-1.3l-1.6-0.5
		l0.3-0.8l1.5,0.6V9.6z"/>
</g>
<g>
	<g>
		<path class="st0" d="M187.1,334.6H186l-1.7-4.1v4.1h-1.2v-7h1.1l1.6,4.2v-4.2h1.2V334.6z"/>
		<path class="st0" d="M190.6,329h1.1v3.9c0,1.1-0.7,1.8-1.7,1.8c-1.1,0-1.8-0.7-1.8-1.8V329h1.1v4c0,0.5,0.3,0.6,0.6,0.6
			c0.3,0,0.6-0.2,0.6-0.6V329z"/>
		<path class="st0" d="M193.9,334.6h-1.1V329h1v0.5c0.1-0.1,0.3-0.5,0.9-0.5c0.5,0,0.9,0.2,1.1,0.6c0.1-0.3,0.5-0.6,1.1-0.6
			c0.8,0,1.3,0.5,1.3,1.6v4h-1.1v-4c0-0.5-0.2-0.6-0.5-0.6c-0.3,0-0.5,0.2-0.5,0.6v4.1h-1.1v-4c0-0.4-0.2-0.6-0.5-0.6
			c-0.3,0-0.5,0.2-0.5,0.6V334.6z"/>
		<path class="st0" d="M200.3,334.2v0.5h-1v-7.6h1.1v2.4c0,0,0.3-0.5,1-0.5c0.8,0,1.4,0.5,1.4,1.7v2.3c0,1.2-0.5,1.7-1.4,1.7
			C200.7,334.7,200.3,334.3,200.3,334.2z M201.6,332.9v-2c0-0.6-0.2-0.8-0.6-0.8c-0.4,0-0.6,0.2-0.6,0.8v2.1c0,0.6,0.2,0.9,0.6,0.9
			C201.4,333.7,201.6,333.5,201.6,332.9z"/>
		<path class="st0" d="M203.6,332.9v-2.1c0-1.1,0.6-1.8,1.8-1.8c1.1,0,1.7,0.7,1.7,1.9v1.4h-2.4v0.9c0,0.4,0.3,0.7,0.6,0.7
			c0.3,0,0.6-0.2,0.6-0.6v-0.1h1.1v0c0,0.9-0.6,1.6-1.7,1.6C204.3,334.7,203.6,334,203.6,332.9z M204.7,331.4h1.3v-0.7
			c0-0.6-0.2-0.8-0.6-0.8c-0.4,0-0.6,0.2-0.6,0.7V331.4z"/>
		<path class="st0" d="M210.3,330.1h-0.1c-0.8,0-1,0.4-1,1.3v3.2h-1.1V329h1v0.6c0.1-0.3,0.5-0.6,1.1-0.6h0.1V330.1z"/>
		<path class="st0" d="M213,332.9v-2.1c0-1.1,0.6-1.8,1.8-1.8c1.1,0,1.7,0.7,1.7,1.8v2.1c0,1.1-0.6,1.9-1.7,1.9
			C213.6,334.7,213,334,213,332.9z M214.1,330.7v2.4c0,0.5,0.3,0.7,0.6,0.7c0.3,0,0.6-0.2,0.6-0.7v-2.4c0-0.5-0.3-0.7-0.6-0.7
			C214.4,330,214.1,330.2,214.1,330.7z"/>
		<path class="st0" d="M219.6,328c-0.7-0.1-0.8,0.2-0.8,1h0.8v1h-0.8v4.6h-1.1V330h-0.5v-1h0.5c0-1.4,0.3-2,1.5-2c0.3,0,0.5,0,0.5,0
			V328z"/>
		<path class="st0" d="M222,329h1.2l0.8,3.9l0.8-3.9h1.2l-1.4,5.6h-1.2L222,329z"/>
		<path class="st0" d="M226.6,332.9v-2.1c0-1.1,0.6-1.8,1.8-1.8c1.1,0,1.7,0.7,1.7,1.9v1.4h-2.4v0.9c0,0.4,0.3,0.7,0.6,0.7
			c0.3,0,0.6-0.2,0.6-0.6v-0.1h1.1v0c0,0.9-0.6,1.6-1.7,1.6C227.2,334.7,226.6,334,226.6,332.9z M227.7,331.4h1.3v-0.7
			c0-0.6-0.2-0.8-0.6-0.8c-0.4,0-0.6,0.2-0.6,0.7V331.4z"/>
		<path class="st0" d="M233.3,330.1h-0.1c-0.8,0-1,0.4-1,1.3v3.2H231V329h1v0.6c0.1-0.3,0.5-0.6,1.1-0.6h0.1V330.1z"/>
		<path class="st0" d="M233.8,330v-0.9c0.6,0,0.8-0.2,0.8-1.1h0.8v1h0.9v1h-0.9v2.9c0,0.5,0.1,0.8,0.7,0.8c0.1,0,0.2,0,0.2,0v1
			c0,0-0.2,0-0.4,0c-1.4,0-1.5-0.8-1.5-2.1V330h-0.2H233.8z"/>
		<path class="st0" d="M237.1,332.9v-2.1c0-1.1,0.6-1.8,1.8-1.8c1.1,0,1.7,0.7,1.7,1.9v1.4h-2.4v0.9c0,0.4,0.3,0.7,0.6,0.7
			c0.3,0,0.6-0.2,0.6-0.6v-0.1h1.1v0c0,0.9-0.6,1.6-1.7,1.6C237.7,334.7,237.1,334,237.1,332.9z M238.2,331.4h1.3v-0.7
			c0-0.6-0.2-0.8-0.6-0.8c-0.4,0-0.6,0.2-0.6,0.7V331.4z"/>
		<path class="st0" d="M242.6,334.2v0.5h-1v-7.6h1.1v2.4c0,0,0.3-0.5,1-0.5c0.8,0,1.4,0.5,1.4,1.7v2.3c0,1.2-0.5,1.7-1.4,1.7
			C243,334.7,242.6,334.3,242.6,334.2z M243.9,332.9v-2c0-0.6-0.2-0.8-0.6-0.8c-0.4,0-0.6,0.2-0.6,0.8v2.1c0,0.6,0.2,0.9,0.6,0.9
			C243.7,333.7,243.9,333.5,243.9,332.9z"/>
		<path class="st0" d="M248.3,330.1h-0.1c-0.8,0-1,0.4-1,1.3v3.2H246V329h1v0.6c0.1-0.3,0.5-0.6,1.1-0.6h0.1V330.1z"/>
		<path class="st0" d="M249,333v-2.3c0-1.2,0.6-1.7,1.4-1.7c0.7,0,1,0.4,1.1,0.5V329h1v5.6h-1v-0.5c-0.1,0.1-0.4,0.6-1.1,0.6
			C249.5,334.7,249,334.2,249,333z M251.4,332.9v-2.1c0-0.5-0.3-0.7-0.6-0.7c-0.4,0-0.6,0.2-0.6,0.8v2c0,0.6,0.2,0.8,0.6,0.8
			S251.4,333.5,251.4,332.9z"/>
		<path class="st0" d="M254.7,334.6h-1.1v-7.6h1.1V334.6z"/>
		<path class="st0" d="M259.9,328c-0.7-0.1-0.8,0.2-0.8,1h0.8v1h-0.8v4.6H258V330h-0.5v-1h0.5c0-1.4,0.3-2,1.5-2c0.3,0,0.5,0,0.5,0
			V328z"/>
		<path class="st0" d="M263.1,330.1h-0.1c-0.8,0-1,0.4-1,1.3v3.2h-1.1V329h1v0.6c0.1-0.3,0.5-0.6,1.1-0.6h0.1V330.1z"/>
		<path class="st0" d="M263.8,333v-2.3c0-1.2,0.6-1.7,1.4-1.7c0.7,0,1,0.4,1.1,0.5V329h1v5.6h-1v-0.5c-0.1,0.1-0.4,0.6-1.1,0.6
			C264.4,334.7,263.8,334.2,263.8,333z M266.2,332.9v-2.1c0-0.5-0.3-0.7-0.6-0.7c-0.4,0-0.6,0.2-0.6,0.8v2c0,0.6,0.2,0.8,0.6,0.8
			S266.2,333.5,266.2,332.9z"/>
		<path class="st0" d="M271.8,332.9c0,1.1-0.6,1.9-1.7,1.9c-1.1,0-1.8-0.7-1.8-1.9v-2.1c0-1.1,0.6-1.8,1.8-1.8
			c1.1,0,1.7,0.7,1.7,1.8v0.1h-1.1v-0.2c0-0.5-0.3-0.7-0.6-0.7c-0.4,0-0.6,0.2-0.6,0.7v2.4c0,0.5,0.3,0.7,0.6,0.7
			c0.3,0,0.6-0.2,0.6-0.7v-0.2L271.8,332.9L271.8,332.9z"/>
		<path class="st0" d="M272.4,330v-0.9c0.6,0,0.8-0.2,0.8-1.1h0.8v1h0.9v1H274v2.9c0,0.5,0.1,0.8,0.7,0.8c0.1,0,0.2,0,0.2,0v1
			c0,0-0.2,0-0.4,0c-1.4,0-1.5-0.8-1.5-2.1V330h-0.2H272.4z"/>
		<path class="st0" d="M278.1,329h1.1v3.9c0,1.1-0.7,1.8-1.7,1.8c-1.1,0-1.8-0.7-1.8-1.8V329h1.1v4c0,0.5,0.3,0.6,0.6,0.6
			c0.3,0,0.6-0.2,0.6-0.6V329z"/>
		<path class="st0" d="M282.5,330.1h-0.1c-0.8,0-1,0.4-1,1.3v3.2h-1.1V329h1v0.6c0.1-0.3,0.5-0.6,1.1-0.6h0.1V330.1z"/>
		<path class="st0" d="M283.2,332.9v-2.1c0-1.1,0.6-1.8,1.8-1.8c1.1,0,1.7,0.7,1.7,1.9v1.4h-2.4v0.9c0,0.4,0.3,0.7,0.6,0.7
			c0.3,0,0.6-0.2,0.6-0.6v-0.1h1.1v0c0,0.9-0.6,1.6-1.7,1.6C283.9,334.7,283.2,334,283.2,332.9z M284.3,331.4h1.3v-0.7
			c0-0.6-0.2-0.8-0.6-0.8c-0.4,0-0.6,0.2-0.6,0.7V331.4z"/>
		<path class="st0" d="M290.9,330.6h-1.1c0-0.5-0.3-0.6-0.6-0.6c-0.4,0-0.5,0.2-0.5,0.5c0,1,2.3,1.2,2.3,2.8c0,0.9-0.6,1.5-1.7,1.5
			c-1.1,0-1.8-0.6-1.8-1.7h1.1c0,0.5,0.3,0.7,0.7,0.7s0.6-0.2,0.6-0.6c0-0.8-2.3-1.3-2.3-2.8c0-0.9,0.6-1.5,1.6-1.5
			C290.3,329,290.9,329.5,290.9,330.6z"/>
		<path class="st0" d="M293.7,333v-2.3c0-1.2,0.6-1.7,1.4-1.7c0.7,0,1,0.4,1.1,0.5V329h1v5.6h-1v-0.5c-0.1,0.1-0.4,0.6-1.1,0.6
			C294.2,334.7,293.7,334.2,293.7,333z M296.1,332.9v-2.1c0-0.5-0.3-0.7-0.6-0.7c-0.4,0-0.6,0.2-0.6,0.8v2c0,0.6,0.2,0.8,0.6,0.8
			C295.8,333.7,296.1,333.5,296.1,332.9z"/>
		<path class="st0" d="M298,330v-0.9c0.6,0,0.8-0.2,0.8-1.1h0.8v1h0.9v1h-0.9v2.9c0,0.5,0.1,0.8,0.7,0.8c0.1,0,0.2,0,0.2,0v1
			c0,0-0.2,0-0.4,0c-1.4,0-1.5-0.8-1.5-2.1V330h-0.2H298z"/>
		<path class="st0" d="M304.3,334.2v0.5h-1v-7.6h1.1v2.4c0,0,0.3-0.5,1-0.5c0.8,0,1.4,0.5,1.4,1.7v2.3c0,1.2-0.5,1.7-1.4,1.7
			C304.7,334.7,304.4,334.3,304.3,334.2z M305.6,332.9v-2c0-0.6-0.2-0.8-0.6-0.8c-0.4,0-0.6,0.2-0.6,0.8v2.1c0,0.6,0.2,0.9,0.6,0.9
			C305.4,333.7,305.6,333.5,305.6,332.9z"/>
		<path class="st0" d="M307.6,333v-2.3c0-1.2,0.6-1.7,1.4-1.7c0.7,0,1,0.4,1.1,0.5V329h1v5.6h-1v-0.5c-0.1,0.1-0.4,0.6-1.1,0.6
			C308.2,334.7,307.6,334.2,307.6,333z M310,332.9v-2.1c0-0.5-0.3-0.7-0.6-0.7c-0.4,0-0.6,0.2-0.6,0.8v2c0,0.6,0.2,0.8,0.6,0.8
			C309.8,333.7,310,333.5,310,332.9z"/>
		<path class="st0" d="M315.5,330.6h-1.1c0-0.5-0.3-0.6-0.6-0.6c-0.3,0-0.5,0.2-0.5,0.5c0,1,2.3,1.2,2.3,2.8c0,0.9-0.6,1.5-1.7,1.5
			c-1.1,0-1.8-0.6-1.8-1.7h1.1c0,0.5,0.3,0.7,0.7,0.7s0.6-0.2,0.6-0.6c0-0.8-2.3-1.3-2.3-2.8c0-0.9,0.6-1.5,1.6-1.5
			C314.8,329,315.5,329.5,315.5,330.6z"/>
		<path class="st0" d="M316.3,332.9v-2.1c0-1.1,0.6-1.8,1.8-1.8c1.1,0,1.7,0.7,1.7,1.9v1.4h-2.4v0.9c0,0.4,0.3,0.7,0.6,0.7
			c0.4,0,0.6-0.2,0.6-0.6v-0.1h1.1v0c0,0.9-0.6,1.6-1.7,1.6C316.9,334.7,316.3,334,316.3,332.9z M317.4,331.4h1.3v-0.7
			c0-0.6-0.2-0.8-0.6-0.8c-0.4,0-0.6,0.2-0.6,0.7V331.4z"/>
		<path class="st0" d="M321.9,334.6h-1.1v-7.6h1.1V334.6z"/>
		<path class="st0" d="M323.6,328.5c-0.4,0-0.7-0.3-0.7-0.7c0-0.4,0.3-0.7,0.7-0.7c0.4,0,0.7,0.3,0.7,0.7
			C324.2,328.2,323.9,328.5,323.6,328.5z M324.1,334.6H323V329h1.1V334.6z"/>
		<path class="st0" d="M326.3,334.6h-1.1V329h1v0.5c0.1-0.1,0.4-0.6,1.1-0.6c0.8,0,1.4,0.5,1.4,1.7v4h-1.1v-3.9
			c0-0.5-0.3-0.7-0.7-0.7c-0.4,0-0.6,0.2-0.6,0.7V334.6z"/>
		<path class="st0" d="M329.6,332.9v-2.1c0-1.1,0.6-1.8,1.8-1.8c1.1,0,1.7,0.7,1.7,1.9v1.4h-2.4v0.9c0,0.4,0.3,0.7,0.6,0.7
			c0.4,0,0.6-0.2,0.6-0.6v-0.1h1.1v0c0,0.9-0.6,1.6-1.7,1.6C330.3,334.7,329.6,334,329.6,332.9z M330.7,331.4h1.3v-0.7
			c0-0.6-0.2-0.8-0.6-0.8c-0.4,0-0.6,0.2-0.6,0.7V331.4z"/>
	</g>
</g>
<g>
	<path class="st0" d="M41.4,48.4h-3.3v-0.5c0-2.4,2.6-2.6,2.6-4.3c0-0.6-0.4-1-0.9-1c-0.6,0-0.9,0.4-0.9,1h-0.7
		c0-1.1,0.6-1.7,1.7-1.7c1,0,1.7,0.7,1.7,1.7c0,1.9-2.6,2.4-2.6,4h2.5V48.4z"/>
	<path class="st0" d="M43,46.6c0,0.8,0.4,1.1,1,1.1c0.6,0,1-0.4,1-1.3v-0.6c0-0.7-0.3-1.2-1-1.2c-0.5,0-0.8,0.3-0.9,0.6l-0.7-0.1
		l0.5-3.1h2.6v0.7h-2l-0.3,1.7c0.1-0.2,0.5-0.4,1-0.4c1,0,1.5,0.6,1.5,1.8v0.5c0,1.2-0.6,2.1-1.7,2.1c-1,0-1.7-0.7-1.7-1.8H43z"/>
</g>
<g>
	<path class="st0" d="M41.3,94.2H38v-0.5c0-2.4,2.6-2.6,2.6-4.3c0-0.6-0.4-1-0.9-1c-0.6,0-0.9,0.4-0.9,1H38c0-1.1,0.6-1.7,1.7-1.7
		c1,0,1.7,0.7,1.7,1.7c0,1.9-2.6,2.4-2.6,4h2.5V94.2z"/>
	<path class="st0" d="M42.4,92.5v-2.9c0-1.1,0.7-1.8,1.7-1.8c1,0,1.7,0.7,1.7,1.8v2.9c0,1.1-0.7,1.8-1.7,1.8
		C43.1,94.3,42.4,93.6,42.4,92.5z M45,92.4v-2.8c0-0.8-0.4-1.1-1-1.1c-0.6,0-1,0.3-1,1.1v2.8c0,0.8,0.4,1.1,1,1.1
		C44.6,93.6,45,93.2,45,92.4z"/>
</g>
<g>
	<path class="st0" d="M38.9,138.3c0.5,0,0.7-0.1,0.7-0.5h0.7v6.3h-0.7v-5.2c-0.1,0.1-0.3,0.1-0.5,0.1h-0.1V138.3z"/>
	<path class="st0" d="M42.1,142.4c0,0.8,0.4,1.1,1,1.1c0.6,0,1-0.4,1-1.3v-0.6c0-0.7-0.3-1.2-1-1.2c-0.5,0-0.8,0.3-0.9,0.6l-0.7-0.1
		l0.5-3.1h2.6v0.7h-2l-0.3,1.7c0.1-0.2,0.5-0.4,1-0.4c1,0,1.5,0.6,1.5,1.8v0.5c0,1.2-0.6,2.1-1.7,2.1c-1,0-1.7-0.7-1.7-1.8H42.1z"/>
</g>
<g>
	<path class="st0" d="M38.9,188.1c0.5,0,0.7-0.1,0.7-0.5h0.7v6.3h-0.7v-5.2c-0.1,0.1-0.3,0.1-0.5,0.1h-0.1V188.1z"/>
	<path class="st0" d="M41.4,192.3v-2.9c0-1.1,0.7-1.8,1.7-1.8c1,0,1.7,0.7,1.7,1.8v2.9c0,1.1-0.7,1.8-1.7,1.8
		C42.1,194.1,41.4,193.3,41.4,192.3z M44,192.2v-2.8c0-0.8-0.4-1.1-1-1.1c-0.6,0-1,0.3-1,1.1v2.8c0,0.8,0.4,1.1,1,1.1
		C43.6,193.3,44,193,44,192.2z"/>
</g>
<g>
	<path class="st0" d="M40.9,242.2c0,0.8,0.4,1.1,1,1.1c0.6,0,1-0.4,1-1.3v-0.6c0-0.7-0.3-1.2-1-1.2c-0.5,0-0.8,0.3-0.9,0.6l-0.7-0.1
		l0.5-3.1h2.6v0.7h-2l-0.3,1.7c0.1-0.2,0.5-0.4,1-0.4c1,0,1.5,0.6,1.5,1.8v0.5c0,1.2-0.6,2.1-1.7,2.1c-1,0-1.7-0.7-1.7-1.8H40.9z"/>
</g>
<g>
	<path class="st0" d="M40.2,292v-2.9c0-1.1,0.7-1.8,1.7-1.8c1,0,1.7,0.7,1.7,1.8v2.9c0,1.1-0.7,1.8-1.7,1.8
		C40.9,293.8,40.2,293.1,40.2,292z M42.9,292v-2.8c0-0.8-0.4-1.1-1-1.1c-0.6,0-1,0.3-1,1.1v2.8c0,0.8,0.4,1.1,1,1.1
		C42.5,293.1,42.9,292.8,42.9,292z"/>
</g>
<polyline class="st1" points="464.9,291.5 51.3,291.5 51.3,44.8 "/>
<g>
	<g>
		<path class="st0" d="M27.4,238.9v1.2h-7v-1.2H27.4z"/>
		<path class="st0" d="M27.4,236.6v1.1h-5.6v-1h0.5c-0.1-0.1-0.6-0.4-0.6-1.1c0-0.8,0.5-1.4,1.7-1.4h4v1.1h-3.9
			c-0.5,0-0.7,0.3-0.7,0.6c0,0.4,0.2,0.6,0.7,0.6H27.4z"/>
		<path class="st0" d="M25.6,229.8c1.1,0,1.9,0.6,1.9,1.7c0,1.1-0.7,1.8-1.9,1.8h-2.1c-1.1,0-1.8-0.6-1.8-1.8c0-1.1,0.7-1.7,1.8-1.7
			h0.1v1.1h-0.2c-0.5,0-0.7,0.3-0.7,0.6c0,0.4,0.2,0.7,0.7,0.7h2.4c0.5,0,0.7-0.3,0.7-0.7c0-0.3-0.2-0.6-0.7-0.6h-0.2L25.6,229.8
			L25.6,229.8z"/>
		<path class="st0" d="M21.2,228.3c0,0.4-0.3,0.7-0.7,0.7c-0.4,0-0.7-0.3-0.7-0.7c0-0.4,0.3-0.7,0.7-0.7
			C20.9,227.6,21.2,227.9,21.2,228.3z M27.4,227.7v1.1h-5.6v-1.1H27.4z"/>
		<path class="st0" d="M25.8,226.7h-2.3c-1.2,0-1.7-0.5-1.7-1.4c0-0.7,0.5-1,0.5-1h-2.4v-1.1h7.6v1h-0.5c0.1,0.1,0.6,0.4,0.6,1.1
			C27.5,226.2,27,226.7,25.8,226.7z M25.6,224.3h-2.1c-0.6,0-0.8,0.2-0.8,0.6c0,0.4,0.3,0.6,0.8,0.6h2c0.6,0,0.9-0.2,0.9-0.6
			C26.5,224.6,26.2,224.3,25.6,224.3z"/>
		<path class="st0" d="M25.7,222.3h-2.1c-1.1,0-1.8-0.6-1.8-1.8c0-1.1,0.7-1.8,1.9-1.8H25v2.4h0.9c0.4,0,0.7-0.3,0.7-0.6
			c0-0.3-0.2-0.6-0.6-0.6h-0.1v-1.1h0c0.9,0,1.6,0.7,1.6,1.8C27.5,221.6,26.8,222.3,25.7,222.3z M24.2,221.1v-1.3h-0.7
			c-0.6,0-0.8,0.2-0.8,0.6c0,0.4,0.2,0.6,0.7,0.6H24.2z"/>
		<path class="st0" d="M27.4,216.7v1.1h-5.6v-1h0.5c-0.1-0.1-0.6-0.4-0.6-1.1c0-0.8,0.5-1.4,1.7-1.4h4v1.1h-3.9
			c-0.5,0-0.7,0.3-0.7,0.7c0,0.4,0.2,0.6,0.7,0.6H27.4z"/>
		<path class="st0" d="M25.6,209.9c1.1,0,1.9,0.7,1.9,1.7c0,1.1-0.7,1.8-1.9,1.8h-2.1c-1.1,0-1.8-0.6-1.8-1.8c0-1.1,0.7-1.7,1.8-1.7
			h0.1v1.1h-0.2c-0.5,0-0.7,0.3-0.7,0.6c0,0.4,0.2,0.6,0.7,0.6h2.4c0.5,0,0.7-0.3,0.7-0.6c0-0.3-0.2-0.6-0.7-0.6h-0.2L25.6,209.9
			L25.6,209.9z"/>
		<path class="st0" d="M25.7,209.1h-2.1c-1.1,0-1.8-0.6-1.8-1.8c0-1.1,0.7-1.8,1.9-1.8H25v2.4h0.9c0.4,0,0.7-0.3,0.7-0.6
			c0-0.3-0.2-0.6-0.6-0.6h-0.1v-1.1h0c0.9,0,1.6,0.7,1.6,1.8C27.5,208.4,26.8,209.1,25.7,209.1z M24.2,208v-1.3h-0.7
			c-0.6,0-0.8,0.2-0.8,0.6c0,0.4,0.2,0.6,0.7,0.6H24.2z"/>
		<path class="st0" d="M25.6,202.8h-2.1c-1.1,0-1.8-0.6-1.8-1.8c0-1.1,0.7-1.8,1.8-1.8h2.1c1.1,0,1.9,0.7,1.9,1.8
			C27.5,202.2,26.8,202.8,25.6,202.8z M23.4,201.7h2.4c0.5,0,0.7-0.3,0.7-0.6c0-0.3-0.2-0.6-0.7-0.6h-2.4c-0.5,0-0.7,0.3-0.7,0.6
			C22.7,201.4,22.9,201.7,23.4,201.7z"/>
		<path class="st0" d="M20.8,196.2c-0.1,0.7,0.2,0.8,1,0.8v-0.8h1v0.8h4.6v1.1h-4.6v0.5h-1v-0.5c-1.4,0-2-0.3-2-1.5
			c0-0.3,0-0.5,0-0.5H20.8z"/>
		<path class="st0" d="M27.4,192.2v1.1h-5.6v-1h0.5c-0.1-0.1-0.6-0.4-0.6-1.1c0-0.8,0.5-1.4,1.7-1.4h4v1.1h-3.9
			c-0.5,0-0.7,0.3-0.7,0.6c0,0.4,0.2,0.6,0.7,0.6H27.4z"/>
		<path class="st0" d="M25.7,188.9h-2.1c-1.1,0-1.8-0.6-1.8-1.8c0-1.1,0.7-1.7,1.9-1.7H25v2.4h0.9c0.4,0,0.7-0.3,0.7-0.7
			c0-0.3-0.2-0.6-0.6-0.6h-0.1v-1.1h0c0.9,0,1.6,0.6,1.6,1.7C27.5,188.3,26.8,188.9,25.7,188.9z M24.2,187.8v-1.3h-0.7
			c-0.6,0-0.8,0.2-0.8,0.6c0,0.4,0.2,0.7,0.7,0.7H24.2z"/>
		<path class="st0" d="M21.8,184.9v-1.1l3.5-0.7l-3.5-0.7v-1l3.5-0.7l-3.5-0.7V179l5.6,1.2v1.1l-3.4,0.6l3.4,0.6v1.1L21.8,184.9z"/>
		<path class="st0" d="M21.8,176.8v-1.2l3.9-0.8l-3.9-0.8v-1.2l5.6,1.4v1.2L21.8,176.8z"/>
		<path class="st0" d="M25.7,172.2h-2.1c-1.1,0-1.8-0.6-1.8-1.8c0-1.1,0.7-1.8,1.9-1.8H25v2.4h0.9c0.4,0,0.7-0.3,0.7-0.6
			c0-0.3-0.2-0.6-0.6-0.6h-0.1v-1.1h0c0.9,0,1.6,0.7,1.6,1.8C27.5,171.6,26.8,172.2,25.7,172.2z M24.2,171.1v-1.3h-0.7
			c-0.6,0-0.8,0.2-0.8,0.6c0,0.4,0.2,0.6,0.7,0.6H24.2z"/>
		<path class="st0" d="M22.8,165.5v0.1c0,0.8,0.4,1,1.3,1h3.2v1.1h-5.6v-1h0.6c-0.3-0.1-0.6-0.5-0.6-1.1v-0.1H22.8z"/>
		<path class="st0" d="M22.8,165h-0.9c0-0.6-0.2-0.8-1.1-0.8v-0.8h1v-0.9h1v0.9h2.9c0.5,0,0.8-0.1,0.8-0.7c0-0.1,0-0.2,0-0.2h1
			c0,0,0,0.2,0,0.4c0,1.4-0.8,1.5-2.1,1.5h-2.5v0.2V165z"/>
		<path class="st0" d="M25.7,161.7h-2.1c-1.1,0-1.8-0.6-1.8-1.8c0-1.1,0.7-1.7,1.9-1.7H25v2.4h0.9c0.4,0,0.7-0.3,0.7-0.6
			c0-0.3-0.2-0.6-0.6-0.6h-0.1v-1.1h0c0.9,0,1.6,0.6,1.6,1.7C27.5,161.1,26.8,161.7,25.7,161.7z M24.2,160.6v-1.3h-0.7
			c-0.6,0-0.8,0.2-0.8,0.6c0,0.4,0.2,0.6,0.7,0.6H24.2z"/>
		<path class="st0" d="M26.9,156.2h0.5v1h-7.6v-1.1h2.4c0,0-0.5-0.3-0.5-1c0-0.8,0.5-1.4,1.7-1.4h2.3c1.2,0,1.7,0.5,1.7,1.4
			C27.5,155.8,27.1,156.2,26.9,156.2z M25.6,154.9h-2c-0.6,0-0.8,0.2-0.8,0.6c0,0.4,0.2,0.6,0.8,0.6h2.1c0.6,0,0.9-0.2,0.9-0.6
			C26.5,155.1,26.2,154.9,25.6,154.9z"/>
		<path class="st0" d="M22.8,150.5v0.1c0,0.8,0.4,1,1.3,1h3.2v1.1h-5.6v-1h0.6c-0.3-0.1-0.6-0.5-0.6-1.1v-0.1H22.8z"/>
		<path class="st0" d="M25.8,149.8h-2.3c-1.2,0-1.7-0.6-1.7-1.4c0-0.7,0.4-1,0.5-1.1h-0.5v-1h5.6v1h-0.5c0.1,0.1,0.6,0.4,0.6,1.1
			C27.5,149.2,27,149.8,25.8,149.8z M25.6,147.4h-2.1c-0.5,0-0.7,0.3-0.7,0.6c0,0.4,0.2,0.6,0.8,0.6h2c0.6,0,0.8-0.2,0.8-0.6
			S26.2,147.4,25.6,147.4z"/>
		<path class="st0" d="M27.4,144.1v1.1h-7.6v-1.1H27.4z"/>
		<path class="st0" d="M20.8,138.9c-0.1,0.7,0.2,0.8,1,0.8v-0.8h1v0.8h4.6v1.1h-4.6v0.5h-1v-0.5c-1.4,0-2-0.3-2-1.5
			c0-0.3,0-0.5,0-0.5H20.8z"/>
		<path class="st0" d="M22.8,135.7v0.1c0,0.8,0.4,1,1.3,1h3.2v1.1h-5.6v-1h0.6c-0.3-0.1-0.6-0.5-0.6-1.1v-0.1H22.8z"/>
		<path class="st0" d="M25.8,135h-2.3c-1.2,0-1.7-0.6-1.7-1.4c0-0.7,0.4-1,0.5-1.1h-0.5v-1h5.6v1h-0.5c0.1,0.1,0.6,0.4,0.6,1.1
			C27.5,134.4,27,135,25.8,135z M25.6,132.6h-2.1c-0.5,0-0.7,0.3-0.7,0.6c0,0.4,0.2,0.6,0.8,0.6h2c0.6,0,0.8-0.2,0.8-0.6
			S26.2,132.6,25.6,132.6z"/>
		<path class="st0" d="M25.6,127c1.1,0,1.9,0.6,1.9,1.7c0,1.1-0.7,1.8-1.9,1.8h-2.1c-1.1,0-1.8-0.6-1.8-1.8c0-1.1,0.7-1.7,1.8-1.7
			h0.1v1.1h-0.2c-0.5,0-0.7,0.3-0.7,0.6c0,0.4,0.2,0.6,0.7,0.6h2.4c0.5,0,0.7-0.3,0.7-0.6c0-0.3-0.2-0.6-0.7-0.6h-0.2L25.6,127
			L25.6,127z"/>
		<path class="st0" d="M22.8,126.4h-0.9c0-0.6-0.2-0.8-1.1-0.8v-0.8h1v-0.9h1v0.9h2.9c0.5,0,0.8-0.1,0.8-0.7c0-0.1,0-0.2,0-0.2h1
			c0,0,0,0.2,0,0.4c0,1.4-0.8,1.5-2.1,1.5h-2.5v0.2V126.4z"/>
		<path class="st0" d="M21.8,120.7v-1.1h3.9c1.1,0,1.8,0.7,1.8,1.7c0,1.1-0.7,1.8-1.8,1.8h-3.9V122h4c0.5,0,0.6-0.3,0.6-0.6
			c0-0.3-0.2-0.6-0.6-0.6H21.8z"/>
		<path class="st0" d="M22.8,116.3v0.1c0,0.8,0.4,1,1.3,1h3.2v1.1h-5.6v-1h0.6c-0.3-0.1-0.6-0.5-0.6-1.1v-0.1H22.8z"/>
		<path class="st0" d="M25.7,115.6h-2.1c-1.1,0-1.8-0.6-1.8-1.8c0-1.1,0.7-1.7,1.9-1.7H25v2.4h0.9c0.4,0,0.7-0.3,0.7-0.6
			c0-0.3-0.2-0.6-0.6-0.6h-0.1v-1.1h0c0.9,0,1.6,0.6,1.6,1.7C27.5,114.9,26.8,115.6,25.7,115.6z M24.2,114.5v-1.3h-0.7
			c-0.6,0-0.8,0.2-0.8,0.6c0,0.4,0.2,0.6,0.7,0.6H24.2z"/>
		<path class="st0" d="M27.9,107.4c0,1.4-0.6,1.8-1.9,1.8h-4.2c-1.3,0-1.9-0.4-1.9-1.8h1c0,0.6,0.2,0.7,0.7,0.7h4.7
			c0.5,0,0.7-0.1,0.7-0.7H27.9z"/>
		<path class="st0" d="M27.8,103.2v1.1c-2-0.6-6-2-8-2.6v-1.1L27.8,103.2z M22.4,106.6h-0.3c-1.1,0-1.8-0.6-1.8-1.7
			c0-1,0.7-1.7,1.8-1.7h0.3c1.1,0,1.9,0.6,1.9,1.7C24.3,106,23.6,106.6,22.4,106.6z M22.1,105.5h0.4c0.6,0,0.8-0.2,0.8-0.6
			c0-0.4-0.2-0.6-0.8-0.6h-0.4c-0.6,0-0.8,0.2-0.8,0.6C21.3,105.3,21.5,105.5,22.1,105.5z M25.6,101.7h-0.3c-1.1,0-1.8-0.6-1.8-1.7
			c0-1,0.7-1.7,1.8-1.7h0.3c1.1,0,1.8,0.6,1.8,1.7C27.5,101.1,26.8,101.7,25.6,101.7z M25.2,100.6h0.4c0.6,0,0.8-0.2,0.8-0.6
			c0-0.4-0.2-0.6-0.8-0.6h-0.4c-0.6,0-0.8,0.2-0.8,0.6C24.5,100.4,24.7,100.6,25.2,100.6z"/>
		<path class="st0" d="M26.9,97.3c0-0.6-0.2-0.7-0.7-0.7h-4.7c-0.5,0-0.7,0.1-0.7,0.7h-1c0-1.4,0.6-1.8,1.9-1.8h4.2
			c1.3,0,1.9,0.4,1.9,1.8H26.9z"/>
	</g>
</g>
<g>
	<path class="st0" d="M106.4,305.6v-2.9c0-1.1,0.7-1.8,1.8-1.8c1,0,1.8,0.8,1.8,1.8v2.9c0,1.1-0.7,1.8-1.8,1.8
		C107.2,307.4,106.4,306.6,106.4,305.6z M107.5,302.7v2.8c0,0.6,0.3,0.8,0.7,0.8s0.7-0.2,0.7-0.8v-2.8c0-0.6-0.3-0.8-0.7-0.8
		C107.8,301.9,107.5,302.1,107.5,302.7z"/>
</g>
<g>
	<path class="st0" d="M96.4,318.7c-1.3,0-1.7-0.5-1.7-1.7v-3.8c0-1.2,0.4-1.7,1.7-1.7v0.9c-0.5,0-0.7,0.2-0.7,0.6v4.2
		c0,0.4,0.1,0.6,0.7,0.6V318.7z"/>
	<path class="st0" d="M98.3,318.3h-1v-5.1h0.9v0.5c0.1-0.1,0.4-0.5,1-0.5c0.8,0,1.3,0.5,1.3,1.5v3.6h-1v-3.5c0-0.5-0.2-0.7-0.6-0.7
		c-0.4,0-0.6,0.2-0.6,0.7V318.3z"/>
	<path class="st0" d="M101.3,314.8v-0.9h3v0.9H101.3z M101.3,316.3v-0.9h3v0.9H101.3z"/>
	<path class="st0" d="M105.1,312.5c0.5,0,0.7-0.1,0.7-0.5h1v6.3h-1.1v-4.9c-0.2,0.1-0.4,0.1-0.6,0.1V312.5z"/>
	<path class="st0" d="M107.7,316.6v-2.9c0-1.1,0.7-1.8,1.8-1.8c1,0,1.8,0.8,1.8,1.8v2.9c0,1.1-0.7,1.8-1.8,1.8
		C108.5,318.4,107.7,317.6,107.7,316.6z M108.8,313.7v2.8c0,0.6,0.3,0.8,0.7,0.8s0.7-0.2,0.7-0.8v-2.8c0-0.6-0.3-0.8-0.7-0.8
		C109.1,312.9,108.8,313.1,108.8,313.7z"/>
	<path class="st0" d="M112.5,318.3l1.4-5.3H112v-1h3.2l-1.6,6.3H112.5z"/>
	<path class="st0" d="M117.1,312h1.1l-0.9,2c0.2,0,0.3-0.1,0.5-0.1c1,0,1.5,0.7,1.5,1.7v1c0,1.1-0.7,1.8-1.8,1.8
		c-1.1,0-1.8-0.7-1.8-1.8v-0.8c0-0.6,0.1-1.1,0.4-1.6C116.2,313.8,117.1,312,117.1,312z M116.8,315.6v0.9c0,0.7,0.3,0.9,0.7,0.9
		c0.4,0,0.7-0.2,0.7-0.9v-0.9c0-0.6-0.3-0.8-0.7-0.8C117.1,314.8,116.8,315,116.8,315.6z"/>
	<path class="st0" d="M119.9,317.8c0.6,0,0.7-0.2,0.7-0.6V313c0-0.4-0.1-0.6-0.7-0.6v-0.9c1.3,0,1.7,0.5,1.7,1.7v3.8
		c0,1.2-0.4,1.7-1.7,1.7V317.8z"/>
</g>
<g>
	<path class="st0" d="M206.2,301.5c0.5,0,0.7-0.1,0.7-0.5h1v6.3h-1.1v-4.9c-0.2,0.1-0.4,0.1-0.6,0.1V301.5z"/>
</g>
<g>
	<path class="st0" d="M196.4,318.7c-1.3,0-1.7-0.5-1.7-1.7v-3.8c0-1.2,0.4-1.7,1.7-1.7v0.9c-0.5,0-0.7,0.2-0.7,0.6v4.2
		c0,0.4,0.1,0.6,0.7,0.6V318.7z"/>
	<path class="st0" d="M198.2,318.3h-1v-5.1h0.9v0.5c0.1-0.1,0.4-0.5,1-0.5c0.8,0,1.3,0.5,1.3,1.5v3.6h-1v-3.5c0-0.5-0.2-0.7-0.6-0.7
		c-0.4,0-0.6,0.2-0.6,0.7V318.3z"/>
	<path class="st0" d="M201.2,314.8v-0.9h3v0.9H201.2z M201.2,316.3v-0.9h3v0.9H201.2z"/>
	<path class="st0" d="M208.2,315.9h0.6v1h-0.6v1.5h-1v-1.5H205v-1l2.2-3.9h1V315.9z M207.2,315.9v-2.2l-1.2,2.2H207.2z"/>
	<path class="st0" d="M211.6,318.3h-1.1l0.9-2c-0.2,0-0.3,0.1-0.5,0.1c-1,0-1.5-0.7-1.5-1.7v-0.9c0-1.1,0.7-1.8,1.8-1.8
		s1.8,0.7,1.8,1.8v0.8c0,0.6-0.1,1.1-0.4,1.6C212.4,316.5,211.6,318.3,211.6,318.3z M211.9,314.7v-0.9c0-0.7-0.3-0.9-0.7-0.9
		c-0.4,0-0.7,0.2-0.7,0.9v0.9c0,0.6,0.3,0.8,0.7,0.8C211.6,315.5,211.9,315.3,211.9,314.7z"/>
	<path class="st0" d="M215.4,317.4c0.4,0,0.7-0.3,0.7-0.8v-0.7c0-0.6-0.2-0.9-0.7-0.9c-0.5,0-0.6,0.3-0.7,0.5c-0.3-0.1-1-0.2-1-0.2
		l0.5-3.3h2.7v1H215l-0.2,1.4c0.1-0.1,0.4-0.3,0.8-0.3c1,0,1.5,0.6,1.5,1.8v0.5c0,1.2-0.6,2-1.8,2c-1,0-1.8-0.7-1.8-1.8h1.1
		C214.7,317.2,215,317.4,215.4,317.4z"/>
	<path class="st0" d="M217.9,317.8c0.6,0,0.7-0.2,0.7-0.6V313c0-0.4-0.1-0.6-0.7-0.6v-0.9c1.3,0,1.7,0.5,1.7,1.7v3.8
		c0,1.2-0.4,1.7-1.7,1.7V317.8z"/>
</g>
<g>
	<path class="st0" d="M302.7,306.4v-0.6l3.4-1.4v0l-3.4-1.4v-0.6l4.2,1.7v0.5L302.7,306.4z M302.7,307.3v-0.5h4.2v0.5H302.7z"/>
</g>
<g>
	<path class="st0" d="M307.9,301.5c0.5,0,0.7-0.1,0.7-0.5h1v6.3h-1.1v-4.9c-0.2,0.1-0.4,0.1-0.6,0.1V301.5z"/>
</g>
<g>
	<path class="st0" d="M294,318.7c-1.3,0-1.7-0.5-1.7-1.7v-3.8c0-1.2,0.4-1.7,1.7-1.7v0.9c-0.5,0-0.7,0.2-0.7,0.6v4.2
		c0,0.4,0.1,0.6,0.7,0.6V318.7z"/>
	<path class="st0" d="M295.9,318.3h-1v-5.1h0.9v0.5c0.1-0.1,0.4-0.5,1-0.5c0.8,0,1.3,0.5,1.3,1.5v3.6h-1v-3.5c0-0.5-0.2-0.7-0.6-0.7
		c-0.4,0-0.6,0.2-0.6,0.7V318.3z"/>
	<path class="st0" d="M298.9,314.8v-0.9h3v0.9H298.9z M298.9,316.3v-0.9h3v0.9H298.9z"/>
	<path class="st0" d="M302.7,312.5c0.5,0,0.7-0.1,0.7-0.5h1v6.3h-1.1v-4.9c-0.2,0.1-0.4,0.1-0.6,0.1V312.5z"/>
	<path class="st0" d="M308.4,315.9h0.6v1h-0.6v1.5h-1v-1.5h-2.2v-1l2.2-3.9h1V315.9z M307.4,315.9v-2.2l-1.2,2.2H307.4z"/>
	<path class="st0" d="M311.8,318.3h-1.1l0.9-2c-0.2,0-0.3,0.1-0.5,0.1c-1,0-1.5-0.7-1.5-1.7v-0.9c0-1.1,0.7-1.8,1.8-1.8
		s1.8,0.7,1.8,1.8v0.8c0,0.6-0.1,1.1-0.4,1.6C312.6,316.5,311.8,318.3,311.8,318.3z M312.1,314.7v-0.9c0-0.7-0.3-0.9-0.7-0.9
		c-0.4,0-0.7,0.2-0.7,0.9v0.9c0,0.6,0.3,0.8,0.7,0.8C311.8,315.5,312.1,315.3,312.1,314.7z"/>
	<path class="st0" d="M316.9,315.9h0.6v1h-0.6v1.5h-1v-1.5h-2.2v-1l2.2-3.9h1V315.9z M315.9,315.9v-2.2l-1.2,2.2H315.9z"/>
	<path class="st0" d="M318.1,317.8c0.6,0,0.7-0.2,0.7-0.6V313c0-0.4-0.1-0.6-0.7-0.6v-0.9c1.3,0,1.7,0.5,1.7,1.7v3.8
		c0,1.2-0.4,1.7-1.7,1.7V317.8z"/>
</g>
<g>
	<path class="st0" d="M401.1,306.4v-0.6l3.4-1.4v0l-3.4-1.4v-0.6l4.2,1.7v0.5L401.1,306.4z M401.1,307.3v-0.5h4.2v0.5H401.1z"/>
</g>
<g>
	<path class="st0" d="M409.7,307.3h-3.4v-0.8c0-2.2,2.4-2.6,2.4-4c0-0.5-0.3-0.7-0.7-0.7c-0.4,0-0.7,0.3-0.7,0.8h-1
		c0-1.1,0.7-1.8,1.7-1.8c1,0,1.7,0.7,1.7,1.7c0,1.9-2.4,2.5-2.4,3.7h2.3V307.3z"/>
</g>
<g>
	<path class="st0" d="M394.6,318.7c-1.3,0-1.7-0.5-1.7-1.7v-3.8c0-1.2,0.4-1.7,1.7-1.7v0.9c-0.5,0-0.7,0.2-0.7,0.6v4.2
		c0,0.4,0.1,0.6,0.7,0.6V318.7z"/>
	<path class="st0" d="M396.5,318.3h-1v-5.1h0.9v0.5c0.1-0.1,0.4-0.5,1-0.5c0.8,0,1.3,0.5,1.3,1.5v3.6h-1v-3.5c0-0.5-0.2-0.7-0.6-0.7
		c-0.4,0-0.6,0.2-0.6,0.7V318.3z"/>
	<path class="st0" d="M399.5,314.8v-0.9h3v0.9H399.5z M399.5,316.3v-0.9h3v0.9H399.5z"/>
	<path class="st0" d="M405.5,318.3h-1.1l0.9-2c-0.2,0-0.3,0.1-0.5,0.1c-1,0-1.5-0.7-1.5-1.7v-0.9c0-1.1,0.7-1.8,1.8-1.8
		c1.1,0,1.8,0.7,1.8,1.8v0.8c0,0.6-0.1,1.1-0.4,1.6C406.3,316.5,405.5,318.3,405.5,318.3z M405.8,314.7v-0.9c0-0.7-0.3-0.9-0.7-0.9
		c-0.4,0-0.7,0.2-0.7,0.9v0.9c0,0.6,0.3,0.8,0.7,0.8C405.5,315.5,405.8,315.3,405.8,314.7z"/>
	<path class="st0" d="M409.7,318.3h-1.1l0.9-2c-0.2,0-0.3,0.1-0.5,0.1c-1,0-1.5-0.7-1.5-1.7v-0.9c0-1.1,0.7-1.8,1.8-1.8
		s1.8,0.7,1.8,1.8v0.8c0,0.6-0.1,1.1-0.4,1.6C410.6,316.5,409.7,318.3,409.7,318.3z M410,314.7v-0.9c0-0.7-0.3-0.9-0.7-0.9
		c-0.4,0-0.7,0.2-0.7,0.9v0.9c0,0.6,0.3,0.8,0.7,0.8C409.7,315.5,410,315.3,410,314.7z"/>
	<path class="st0" d="M413.9,318.3h-1.1l0.9-2c-0.2,0-0.3,0.1-0.5,0.1c-1,0-1.5-0.7-1.5-1.7v-0.9c0-1.1,0.7-1.8,1.8-1.8
		s1.8,0.7,1.8,1.8v0.8c0,0.6-0.1,1.1-0.4,1.6C414.8,316.5,413.9,318.3,413.9,318.3z M414.2,314.7v-0.9c0-0.7-0.3-0.9-0.7-0.9
		c-0.4,0-0.7,0.2-0.7,0.9v0.9c0,0.6,0.3,0.8,0.7,0.8C413.9,315.5,414.2,315.3,414.2,314.7z"/>
	<path class="st0" d="M415.9,317.8c0.6,0,0.7-0.2,0.7-0.6V313c0-0.4-0.1-0.6-0.7-0.6v-0.9c1.3,0,1.7,0.5,1.7,1.7v3.8
		c0,1.2-0.4,1.7-1.7,1.7V317.8z"/>
</g>
<rect x="74.1" y="273.1" class="st2" width="68.2" height="18.2"/>
<rect x="172.8" y="246.9" class="st2" width="68.7" height="44.4"/>
<rect x="272" y="195.5" class="st2" width="68.2" height="95.8"/>
<rect x="370.7" y="169.5" class="st2" width="68.7" height="121.8"/>
<g class="cls-5 arrow3">
	<g>
		<path class="st3" d="M439.4,62.8c0,33.4,0.1,86.7,0.1,86.7l-34.8,12.9l-33.9-12.9l0-86.7H439.4z"/>
	</g>
	<g class="number">
		<g>
			<path class="st0" d="M391.2,106l8.1-24.9h-11v-5.8H407l-9.8,30.7H391.2z"/>
		</g>
		<g>
			<path class="st0" d="M416.7,96.2l5.9,9.8h-5l-3.4-6.1l-3.4,6.1h-5l5.9-9.8l-5.6-9.2h5l3,5.5l3-5.5h5.1L416.7,96.2z"/>
		</g>
		<g>
			<path class="st0" d="M392.8,112.6h2.4l1.1,5.5h0l1.1-5.5h2.3v7.9h-1.5v-6.3h0l-1.4,6.3h-1.2l-1.4-6.3h0v6.3h-1.5V112.6z"/>
			<path class="st0" d="M403.4,112.4c2.4,0,2.7,1.7,2.7,4.1c0,2.4-0.3,4.1-2.7,4.1c-2.4,0-2.7-1.7-2.7-4.1
				C400.7,114.1,401,112.4,403.4,112.4z M403.4,119.4c0.9,0,1.1-0.8,1.1-2.9c0-2.1-0.2-2.9-1.1-2.9c-0.9,0-1.1,0.8-1.1,2.9
				C402.3,118.6,402.5,119.4,403.4,119.4z"/>
			<path class="st0" d="M407,112.6h2.9c1.3,0,2.1,0.7,2.1,2c0,1-0.4,1.7-1.3,1.9v0c1.1,0.1,1.2,0.7,1.3,2.4c0,0.8,0.1,1.3,0.4,1.4v0.1
				h-1.7c-0.2-0.2-0.2-0.5-0.2-0.8l0-1.5c0-0.6-0.3-1-0.9-1h-0.8v3.3H407V112.6z M408.6,116h0.7c0.8,0,1.2-0.3,1.2-1.2
				c0-0.7-0.4-1.1-1.1-1.1h-0.7V116z"/>
			<path class="st0" d="M417.5,112.6v1.3h-2.8v1.8h2.6v1.3h-2.6v2.1h2.9v1.3h-4.5v-7.9H417.5z"/>
		</g>
		<g>
			<path class="st0" d="M383.6,132.4v-7.9h1.6v6.6h2.8v1.3H383.6z"/>
			<path class="st0" d="M388.8,132.4v-7.9h1.6v7.9H388.8z"/>
			<path class="st0" d="M393.1,124.6v3.1h0l2-3.1h1.7l-2.1,3.4l2.4,4.5h-1.8l-1.6-3.2l-0.6,0.9v2.3h-1.6v-7.9H393.1z"/>
			<path class="st0" d="M401.8,124.6v1.3H399v1.8h2.6v1.3H399v2.1h2.9v1.3h-4.5v-7.9H401.8z"/>
			<path class="st0" d="M402.7,132.4v-7.9h1.6v6.6h2.8v1.3H402.7z"/>
			<path class="st0" d="M409.1,124.6l1,3h0l1.1-3h1.7l-2,4.8v3.1h-1.6v-3.1l-2-4.8H409.1z"/>
			<path class="st0" d="M420.8,124.6v1.3h-1.7v6.6h-1.6v-6.6h-1.7v-1.3H420.8z"/>
			<path class="st0" d="M424,124.4c2.4,0,2.7,1.7,2.7,4.1c0,2.4-0.3,4.1-2.7,4.1c-2.4,0-2.7-1.7-2.7-4.1
				C421.3,126.1,421.6,124.4,424,124.4z M424,131.4c0.9,0,1.1-0.8,1.1-2.9c0-2.1-0.2-2.9-1.1-2.9c-0.9,0-1.1,0.8-1.1,2.9
				C422.9,130.6,423,131.4,424,131.4z"/>
		</g>
		<g>
			<path class="st0" d="M379.6,136.6h4.4v1.3h-2.8v1.8h2.6v1.3h-2.6v3.4h-1.6V136.6z"/>
			<path class="st0" d="M384.7,136.6h2.9c1.3,0,2.1,0.7,2.1,2c0,1-0.4,1.7-1.3,1.9v0c1.1,0.1,1.2,0.7,1.3,2.4c0,0.8,0.1,1.3,0.4,1.4
				v0.1h-1.7c-0.2-0.2-0.2-0.5-0.2-0.8l0-1.5c0-0.6-0.3-1-0.9-1h-0.8v3.3h-1.6V136.6z M386.3,140h0.7c0.8,0,1.2-0.3,1.2-1.2
				c0-0.7-0.4-1.1-1.1-1.1h-0.7V140z"/>
			<path class="st0" d="M392.3,136.6h2l2.1,7.9h-1.7l-0.4-1.7h-2.1l-0.4,1.7h-1.7L392.3,136.6z M392.5,141.5h1.5l-0.8-3.5h0
				L392.5,141.5z"/>
			<path class="st0" d="M400.3,139.2c0-1.1-0.2-1.6-0.9-1.6c-0.8,0-1,0.8-1,3c0,2.4,0.3,2.8,1,2.8c0.6,0,1-0.3,1-2h1.6
				c0,1.7-0.4,3.2-2.5,3.2c-2.4,0-2.7-1.7-2.7-4.1c0-2.4,0.3-4.1,2.7-4.1c2.3,0,2.4,1.7,2.4,2.8H400.3z"/>
			<path class="st0" d="M407.4,136.6v1.3h-1.7v6.6h-1.6v-6.6h-1.7v-1.3H407.4z"/>
			<path class="st0" d="M409.6,136.6v5.5c0,0.8,0.2,1.4,0.9,1.4c0.7,0,0.9-0.6,0.9-1.4v-5.5h1.6v5.5c0,2-1.2,2.5-2.5,2.5
				c-1.3,0-2.5-0.4-2.5-2.5v-5.5H409.6z"/>
			<path class="st0" d="M414,136.6h2.9c1.3,0,2.1,0.7,2.1,2c0,1-0.4,1.7-1.3,1.9v0c1.1,0.1,1.2,0.7,1.3,2.4c0,0.8,0.1,1.3,0.4,1.4v0.1
				h-1.7c-0.2-0.2-0.2-0.5-0.2-0.8l0-1.5c0-0.6-0.3-1-0.9-1h-0.8v3.3H414V136.6z M415.6,140h0.7c0.8,0,1.2-0.3,1.2-1.2
				c0-0.7-0.4-1.1-1.1-1.1h-0.7V140z"/>
			<path class="st0" d="M424.5,136.6v1.3h-2.8v1.8h2.6v1.3h-2.6v2.1h2.9v1.3h-4.5v-7.9H424.5z"/>
		</g>
		<g>
			<path class="st0" d="M426,136.2h0.9v1.3h1.1v0.7h-1.1v3.5H426v-3.5h-1.1v-0.7h1.1V136.2z"/>
			<path class="st0" d="M429.1,140.5L429.1,140.5c0,0.4,0.2,0.6,0.4,0.6c0.3,0,0.4-0.2,0.4-0.4c0-0.2-0.1-0.4-0.4-0.5l-0.8-0.4
				c-0.5-0.2-0.7-0.6-0.7-1c0-0.4,0.2-0.7,0.6-0.9c-0.2-0.2-0.4-0.4-0.4-0.7c0-0.8,0.6-1.1,1.3-1.1c0.9,0,1.2,0.4,1.2,1h-0.8
				c0-0.1,0-0.2-0.1-0.3c-0.1-0.1-0.2-0.1-0.4-0.1c-0.2,0-0.4,0.2-0.4,0.4c0,0.1,0.1,0.3,0.4,0.4l0.8,0.4c0.4,0.2,0.7,0.5,0.7,1
				c0,0.3-0.2,0.7-0.5,0.9c0.2,0.2,0.3,0.4,0.3,0.8c0,0.8-0.5,1.1-1.3,1.1c-0.9,0-1.3-0.4-1.3-1.1v-0.1H429.1z M429.7,139.4
				c0.1,0.1,0.2,0.1,0.2,0.2c0.2-0.2,0.3-0.3,0.3-0.5c0-0.2-0.1-0.4-0.4-0.5l-0.6-0.3c-0.2,0.1-0.4,0.3-0.4,0.5c0,0.1,0.1,0.3,0.2,0.3
				L429.7,139.4z"/>
		</g>
	</g>
</g>
<g class="cls-5 arrow2">
	<g>
		<path class="st3" d="M340.4,89.3c0,33.4,0.1,86.7,0.1,86.7l-34.8,12.9L271.7,176l0-86.7H340.4z"/>
	</g>
	<g class="number">
		<g>
			<path class="st0" d="M297.9,127.2c2.4,0,4.2-2,4.2-4.6v-1.3c0-2.4-1.6-4.3-4.4-4.3c-2.4,0-3.4,1.4-4,2.5c-2-0.4-5.7-1.3-5.7-1.3
				l2.9-16.4h15.7v5.7h-10.8c0,0-0.8,4-1.1,6.1c0.5-0.6,2.2-1.6,4.7-1.6c5.2,0,8.8,3,8.8,9.3v1.3c0,6.2-4.2,10.4-10.3,10.4
				s-10.3-4.4-10.3-10.6h6C293.5,126,295.4,127.2,297.9,127.2z"/>
		</g>
		<g>
			<path class="st0" d="M319.8,122.8l5.9,9.8h-5l-3.4-6.1l-3.4,6.1h-5l5.9-9.8l-5.6-9.2h5l3,5.5l3-5.5h5.1L319.8,122.8z"/>
		</g>
		<g>
			<path class="st0" d="M293.8,139.1h2.4l1.1,5.5h0l1.1-5.5h2.3v7.9h-1.5v-6.3h0l-1.4,6.3h-1.2l-1.4-6.3h0v6.3h-1.5V139.1z"/>
			<path class="st0" d="M304.4,138.9c2.4,0,2.7,1.7,2.7,4.1c0,2.4-0.3,4.1-2.7,4.1c-2.4,0-2.7-1.7-2.7-4.1
				C301.8,140.6,302.1,138.9,304.4,138.9z M304.4,145.9c0.9,0,1.1-0.8,1.1-2.9c0-2.1-0.2-2.9-1.1-2.9c-0.9,0-1.1,0.8-1.1,2.9
				C303.4,145.1,303.5,145.9,304.4,145.9z"/>
			<path class="st0" d="M308,139.1h2.9c1.3,0,2.1,0.7,2.1,2c0,1-0.4,1.7-1.3,1.9v0c1.1,0.1,1.2,0.7,1.3,2.4c0,0.8,0.1,1.3,0.4,1.4v0.1
				h-1.7c-0.2-0.2-0.2-0.5-0.2-0.8l0-1.5c0-0.6-0.3-1-0.9-1h-0.8v3.3H308V139.1z M309.6,142.5h0.7c0.8,0,1.2-0.3,1.2-1.2
				c0-0.7-0.4-1.1-1.1-1.1h-0.7V142.5z"/>
			<path class="st0" d="M318.6,139.1v1.3h-2.8v1.8h2.6v1.3h-2.6v2.1h2.9v1.3h-4.5v-7.9H318.6z"/>
		</g>
		<g>
			<path class="st0" d="M284.6,159v-7.9h1.6v6.6h2.8v1.3H284.6z"/>
			<path class="st0" d="M289.8,159v-7.9h1.6v7.9H289.8z"/>
			<path class="st0" d="M294.2,151.1v3.1h0l2-3.1h1.7l-2.1,3.4l2.4,4.5h-1.8l-1.6-3.2l-0.6,0.9v2.3h-1.6v-7.9H294.2z"/>
			<path class="st0" d="M302.9,151.1v1.3h-2.8v1.8h2.6v1.3h-2.6v2.1h2.9v1.3h-4.5v-7.9H302.9z"/>
			<path class="st0" d="M303.8,159v-7.9h1.6v6.6h2.8v1.3H303.8z"/>
			<path class="st0" d="M310.1,151.1l1,3h0l1.1-3h1.7l-2,4.8v3.1h-1.6v-3.1l-2-4.8H310.1z"/>
			<path class="st0" d="M321.8,151.1v1.3h-1.7v6.6h-1.6v-6.6h-1.7v-1.3H321.8z"/>
			<path class="st0" d="M325,150.9c2.4,0,2.7,1.7,2.7,4.1c0,2.4-0.3,4.1-2.7,4.1c-2.4,0-2.7-1.7-2.7-4.1
				C322.3,152.6,322.6,150.9,325,150.9z M325,157.9c0.9,0,1.1-0.8,1.1-2.9c0-2.1-0.2-2.9-1.1-2.9c-0.9,0-1.1,0.8-1.1,2.9
				C323.9,157.1,324.1,157.9,325,157.9z"/>
		</g>
		<g>
			<path class="st0" d="M280.6,163.1h4.4v1.3h-2.8v1.8h2.6v1.3h-2.6v3.4h-1.6V163.1z"/>
			<path class="st0" d="M285.7,163.1h2.9c1.3,0,2.1,0.7,2.1,2c0,1-0.4,1.7-1.3,1.9v0c1.1,0.1,1.2,0.7,1.3,2.4c0,0.8,0.1,1.3,0.4,1.4
				v0.1h-1.7c-0.2-0.2-0.2-0.5-0.2-0.8l0-1.5c0-0.6-0.3-1-0.9-1h-0.8v3.3h-1.6V163.1z M287.3,166.5h0.7c0.8,0,1.2-0.3,1.2-1.2
				c0-0.7-0.4-1.1-1.1-1.1h-0.7V166.5z"/>
			<path class="st0" d="M293.4,163.1h2l2.1,7.9h-1.7l-0.4-1.7h-2.1l-0.4,1.7h-1.7L293.4,163.1z M293.6,168h1.5l-0.8-3.5h0L293.6,168z"
				/>
			<path class="st0" d="M301.3,165.7c0-1.1-0.2-1.6-0.9-1.6c-0.8,0-1,0.8-1,3c0,2.4,0.3,2.8,1,2.8c0.6,0,1-0.3,1-2h1.6
				c0,1.7-0.4,3.2-2.5,3.2c-2.4,0-2.7-1.7-2.7-4.1c0-2.4,0.3-4.1,2.7-4.1c2.3,0,2.4,1.7,2.4,2.8H301.3z"/>
			<path class="st0" d="M308.5,163.1v1.3h-1.7v6.6h-1.6v-6.6h-1.7v-1.3H308.5z"/>
			<path class="st0" d="M310.6,163.1v5.5c0,0.8,0.2,1.4,0.9,1.4c0.7,0,0.9-0.6,0.9-1.4v-5.5h1.6v5.5c0,2-1.2,2.5-2.5,2.5
				c-1.3,0-2.5-0.4-2.5-2.5v-5.5H310.6z"/>
			<path class="st0" d="M315.1,163.1h2.9c1.3,0,2.1,0.7,2.1,2c0,1-0.4,1.7-1.3,1.9v0c1.1,0.1,1.2,0.7,1.3,2.4c0,0.8,0.1,1.3,0.4,1.4
				v0.1h-1.7c-0.2-0.2-0.2-0.5-0.2-0.8l0-1.5c0-0.6-0.3-1-0.9-1h-0.8v3.3h-1.6V163.1z M316.6,166.5h0.7c0.8,0,1.2-0.3,1.2-1.2
				c0-0.7-0.4-1.1-1.1-1.1h-0.7V166.5z"/>
			<path class="st0" d="M325.6,163.1v1.3h-2.8v1.8h2.6v1.3h-2.6v2.1h2.9v1.3h-4.5v-7.9H325.6z"/>
		</g>
		<g>
			<path class="st0" d="M327,162.7h0.9v1.3h1.1v0.7h-1.1v3.5H327v-3.5h-1.1V164h1.1V162.7z"/>
			<path class="st0" d="M330.1,167.1L330.1,167.1c0,0.4,0.2,0.6,0.4,0.6c0.3,0,0.4-0.2,0.4-0.4c0-0.2-0.1-0.4-0.4-0.5l-0.8-0.4
				c-0.5-0.2-0.7-0.6-0.7-1c0-0.4,0.2-0.7,0.6-0.9c-0.2-0.2-0.4-0.4-0.4-0.7c0-0.8,0.6-1.1,1.3-1.1c0.9,0,1.2,0.4,1.2,1H331
				c0-0.1,0-0.2-0.1-0.3c-0.1-0.1-0.2-0.1-0.4-0.1c-0.2,0-0.4,0.2-0.4,0.4c0,0.1,0.1,0.3,0.4,0.4l0.8,0.4c0.4,0.2,0.7,0.5,0.7,1
				c0,0.3-0.2,0.7-0.5,0.9c0.2,0.2,0.3,0.4,0.3,0.8c0,0.8-0.5,1.1-1.3,1.1c-0.9,0-1.3-0.4-1.3-1.1v-0.1H330.1z M330.7,165.9
				c0.1,0.1,0.2,0.1,0.2,0.2c0.2-0.2,0.3-0.3,0.3-0.5c0-0.2-0.1-0.4-0.4-0.5l-0.6-0.3c-0.2,0.1-0.4,0.3-0.4,0.5c0,0.1,0.1,0.3,0.2,0.3
				L330.7,165.9z"/>
		</g>
	</g>
</g>
<g class="cls-5 arrow1">
	<g>
		<path class="st3" d="M240.9,140.7c0,33.4,0.1,86.7,0.1,86.7l-34.8,12.9l-33.9-12.9l0-86.7H240.9z"/>
	</g>
	<g class="number">
		<g>
			<path class="st0" d="M189.6,167.7c0,0.5-0.1,1-0.3,1.4s-0.4,0.7-0.7,1s-0.6,0.5-0.9,0.6s-0.7,0.2-1.1,0.2s-0.7,0-1-0.1
				s-0.5-0.2-0.7-0.3s-0.4-0.3-0.6-0.5s-0.3-0.3-0.5-0.5s-0.3-0.3-0.4-0.5s-0.3-0.3-0.4-0.4s-0.3-0.2-0.5-0.3s-0.4-0.1-0.6-0.1
				c-0.3,0-0.5,0.1-0.7,0.2s-0.3,0.3-0.5,0.5s-0.2,0.4-0.3,0.6s-0.1,0.5-0.1,0.8c0,0.1-0.1,0.2-0.2,0.3s-0.3,0.1-0.6,0.1
				c-0.2,0-0.3,0-0.4,0s-0.2,0-0.2-0.1s-0.1-0.1-0.1-0.1s0-0.1,0-0.2v-0.3c0-0.5,0.1-1,0.2-1.4s0.4-0.8,0.6-1s0.6-0.5,1-0.6
				s0.8-0.2,1.2-0.2c0.4,0,0.7,0,1,0.1s0.5,0.2,0.7,0.3s0.4,0.3,0.6,0.5s0.3,0.3,0.5,0.5s0.3,0.3,0.4,0.5s0.3,0.3,0.4,0.4
				s0.3,0.2,0.5,0.3s0.4,0.1,0.6,0.1c0.3,0,0.5-0.1,0.7-0.2s0.3-0.2,0.5-0.4s0.2-0.4,0.3-0.7s0.1-0.5,0.1-0.8c0-0.1,0.1-0.2,0.2-0.3
				s0.3-0.1,0.6-0.1c0.1,0,0.3,0,0.4,0s0.2,0,0.2,0.1s0.1,0.1,0.1,0.1s0,0.1,0,0.2V167.7z"/>
		</g>
		<g>
			<path class="st0" d="M212.7,174.6c0,5.9-4.3,9.8-10.5,9.8c-6.1,0-10.5-4-10.5-10.6c2,0,4,0,6.1,0c0,3.6,2.2,4.9,4.7,4.9
				c2.4,0,4.4-1.1,4.4-4c0-2.5-1.7-3.7-4.6-3.7h-3.5v-5.1c3.7,0,7.7,0,7.7-3.8c0-2.7-1.9-3.9-4.3-3.9c-2.7,0-4.2,1.8-4.2,4.7h-5.9
				c0-6.2,4-10.2,10.1-10.2c6,0,10.1,3.7,10.1,8.7c0,3.4-1.6,5.8-4.2,6.8C210.3,168.8,212.7,170.8,212.7,174.6z"/>
		</g>
		<g>
			<path class="st0" d="M224.3,174.1l5.9,9.8h-5l-3.4-6.1l-3.4,6.1h-5l5.9-9.8l-5.6-9.2h5l3,5.5l3-5.5h5.1L224.3,174.1z"/>
		</g>
		<g>
			<path class="st0" d="M194.3,190.5h2.4l1.1,5.5h0l1.1-5.5h2.3v7.9h-1.5V192h0l-1.4,6.3h-1.2l-1.4-6.3h0v6.3h-1.5V190.5z"/>
			<path class="st0" d="M205,190.3c2.4,0,2.7,1.7,2.7,4.1c0,2.4-0.3,4.1-2.7,4.1c-2.4,0-2.7-1.7-2.7-4.1
				C202.3,192,202.6,190.3,205,190.3z M205,197.3c0.9,0,1.1-0.8,1.1-2.9c0-2.1-0.2-2.9-1.1-2.9s-1.1,0.8-1.1,2.9
				C203.9,196.5,204,197.3,205,197.3z"/>
			<path class="st0" d="M208.6,190.5h2.9c1.3,0,2.1,0.7,2.1,2c0,1-0.4,1.7-1.3,1.9v0c1.1,0.1,1.2,0.7,1.3,2.4c0,0.8,0.1,1.3,0.4,1.4
				v0.1h-1.7c-0.2-0.2-0.2-0.5-0.2-0.8l0-1.5c0-0.6-0.3-1-0.9-1h-0.8v3.3h-1.6V190.5z M210.2,193.9h0.7c0.8,0,1.2-0.3,1.2-1.2
				c0-0.7-0.4-1.1-1.1-1.1h-0.7V193.9z"/>
			<path class="st0" d="M219.1,190.5v1.3h-2.8v1.8h2.6v1.3h-2.6v2.1h2.9v1.3h-4.5v-7.9H219.1z"/>
		</g>
		<g>
			<path class="st0" d="M185.2,210.3v-7.9h1.6v6.6h2.8v1.3H185.2z"/>
			<path class="st0" d="M190.3,210.3v-7.9h1.6v7.9H190.3z"/>
			<path class="st0" d="M194.7,202.5v3.1h0l2-3.1h1.7l-2.1,3.4l2.4,4.5h-1.8l-1.6-3.2l-0.6,0.9v2.3h-1.6v-7.9H194.7z"/>
			<path class="st0" d="M203.4,202.5v1.3h-2.8v1.8h2.6v1.3h-2.6v2.1h2.9v1.3H199v-7.9H203.4z"/>
			<path class="st0" d="M204.3,210.3v-7.9h1.6v6.6h2.8v1.3H204.3z"/>
			<path class="st0" d="M210.7,202.5l1,3h0l1.1-3h1.7l-2,4.8v3.1h-1.6v-3.1l-2-4.8H210.7z"/>
			<path class="st0" d="M222.3,202.5v1.3h-1.7v6.6H219v-6.6h-1.7v-1.3H222.3z"/>
			<path class="st0" d="M225.5,202.3c2.4,0,2.7,1.7,2.7,4.1c0,2.4-0.3,4.1-2.7,4.1c-2.4,0-2.7-1.7-2.7-4.1
				C222.9,204,223.2,202.3,225.5,202.3z M225.5,209.3c0.9,0,1.1-0.8,1.1-2.9c0-2.1-0.2-2.9-1.1-2.9s-1.1,0.8-1.1,2.9
				C224.4,208.5,224.6,209.3,225.5,209.3z"/>
		</g>
		<g>
			<path class="st0" d="M181.2,214.5h4.4v1.3h-2.8v1.8h2.6v1.3h-2.6v3.4h-1.6V214.5z"/>
			<path class="st0" d="M186.3,214.5h2.9c1.3,0,2.1,0.7,2.1,2c0,1-0.4,1.7-1.3,1.9v0c1.1,0.1,1.2,0.7,1.3,2.4c0,0.8,0.1,1.3,0.4,1.4
				v0.1h-1.7c-0.2-0.2-0.2-0.5-0.2-0.8l0-1.5c0-0.6-0.3-1-0.9-1h-0.8v3.3h-1.6V214.5z M187.8,217.9h0.7c0.8,0,1.2-0.3,1.2-1.2
				c0-0.7-0.4-1.1-1.1-1.1h-0.7V217.9z"/>
			<path class="st0" d="M193.9,214.5h2l2.1,7.9h-1.6l-0.4-1.7h-2.1l-0.4,1.7h-1.7L193.9,214.5z M194.1,219.4h1.5l-0.8-3.5h0
				L194.1,219.4z"/>
			<path class="st0" d="M201.8,217.1c0-1.1-0.2-1.6-0.9-1.6c-0.8,0-1,0.8-1,3c0,2.4,0.3,2.8,1,2.8c0.6,0,1-0.3,1-2h1.6
				c0,1.7-0.4,3.2-2.5,3.2c-2.4,0-2.7-1.7-2.7-4.1c0-2.4,0.3-4.1,2.7-4.1c2.3,0,2.4,1.7,2.4,2.8H201.8z"/>
			<path class="st0" d="M209,214.5v1.3h-1.7v6.6h-1.6v-6.6H204v-1.3H209z"/>
			<path class="st0" d="M211.2,214.5v5.5c0,0.8,0.2,1.4,0.9,1.4c0.7,0,0.9-0.6,0.9-1.4v-5.5h1.6v5.5c0,2-1.2,2.5-2.5,2.5
				s-2.5-0.4-2.5-2.5v-5.5H211.2z"/>
			<path class="st0" d="M215.6,214.5h2.9c1.3,0,2.1,0.7,2.1,2c0,1-0.4,1.7-1.3,1.9v0c1.1,0.1,1.2,0.7,1.3,2.4c0,0.8,0.1,1.3,0.4,1.4
				v0.1h-1.7c-0.2-0.2-0.2-0.5-0.2-0.8l0-1.5c0-0.6-0.3-1-0.9-1h-0.8v3.3h-1.6V214.5z M217.2,217.9h0.7c0.8,0,1.2-0.3,1.2-1.2
				c0-0.7-0.4-1.1-1.1-1.1h-0.7V217.9z"/>
			<path class="st0" d="M226.1,214.5v1.3h-2.8v1.8h2.6v1.3h-2.6v2.1h2.9v1.3h-4.5v-7.9H226.1z"/>
		</g>
		<g>
			<path class="st0" d="M227.5,214.1h0.9v1.3h1.1v0.7h-1.1v3.5h-0.9v-3.5h-1.1v-0.7h1.1V214.1z"/>
		</g>
		<g>
			<path class="st0" d="M230.6,218.3h-1.1v-0.7h1.1V216h-1.1v-0.7h1.1v-1.2h0.9v1.2h1.1v0.7h-1.1v1.6h1.1v0.7h-1.1v1.2h-0.9V218.3z"/>
		</g>
	</g>
</g>
</svg>
