<svg version="1.1" id="Layer_1" xmlns="http://www.w3.org/2000/svg" xmlns:xlink="http://www.w3.org/1999/xlink" x="0px" y="0px"
	 viewBox="0 0 179 126" enable-background="new 0 0 179 126" xml:space="preserve">
<g>
	<path fill="#CE009F" d="M152,83.1c4.7-4.6,7.3-10.4,7.3-16.4c0-12.3-10.6-22.5-24.7-24.8c-1-1.7-2.3-3.3-3.8-4.8
		c-6.3-6.3-15.5-9.9-25.3-9.9c-18.1,0-32.8,12.2-32.8,27.2c0,6.5,2.8,12.8,7.8,17.6l-3.8,9.1c-0.5,1.3,0.1,2.7,1.2,3.1
		c0.4,0.2,0.8,0.2,1,0.2c0.1,0,0.4,0,0.7-0.1c0.1,0,0.2-0.1,0.3-0.1l10-5.9c4.2,1.9,9,3,13.9,3.1c5.6,6.4,14.6,10.6,24.9,10.6
		c5,0,9.8-1,14.3-3l9,5.3l0.3,0.2h0.3c0.1,0,0.3,0.1,0.5,0.1c0.2,0,0.6,0,1-0.2c1.1-0.5,1.6-1.8,1.2-3L152,83.1z M127.3,68.3
		c-2,2.1-4.5,3.8-7.2,5.1l11.7-11.6C130.8,64.1,129.3,66.3,127.3,68.3z M122.1,46.8c1.8-0.4,3.6-0.6,5.5-0.7l-24.3,24.3
		c-0.3-1.2-0.4-2.4-0.4-3.7c0-0.3,0-0.6,0-0.9L122.1,46.8z M103.6,62c1.8-6.1,7-11.2,13.9-13.9L103.6,62z M133.3,54.4
		c0,0.9-0.1,1.9-0.2,2.8l-18.2,18.2c-1.9,0.6-4,0.9-6,1.1l24.3-24.3C133.3,52.9,133.3,53.7,133.3,54.4z M132.6,49.6l-26.8,26.8
		c-0.7-1.1-1.3-2.3-1.8-3.5l26.8-26.7c0.2,0,0.3,0,0.5,0C131.9,47.3,132.3,48.4,132.6,49.6z M91,73.4c-0.4-0.2-0.8-0.2-1-0.2
		c-0.2,0-0.6,0-1,0.1c-0.1,0-0.1,0-0.2,0.1l-0.1,0c0,0,0,0,0,0L84,76.3l1.6-3.9c0.5-1,0.2-2.1-0.6-2.8c-4.8-4.2-7.5-9.6-7.5-15.2
		c0-12.3,12.5-22.3,27.9-22.3c9.3,0,17.6,3.7,22.7,9.3c-16.5,0.4-29.9,11.7-29.9,25.4c0,3.4,0.8,6.6,2.3,9.5
		C97.2,75.8,93.9,74.8,91,73.4z M147.2,83.5l1.4,3.4l-4.2-2.5c0,0,0,0-0.1,0l0,0c-0.1,0-0.1,0-0.2-0.1c-0.7-0.3-1.1-0.1-1.5,0
		l-0.3,0.1c-4.2,2-9,3-13.7,3c-7,0-13.6-2.2-18.4-6.2c15.8-1.9,28-13.3,28-26.9c0-2.4-0.4-4.8-1.1-7.1c10.2,2.8,17.6,10.5,17.6,19.6
		c0,5.1-2.5,10.2-6.9,14.1C147.1,81.5,146.8,82.6,147.2,83.5z"/>
	<g>
		<path fill="#CE009F" d="M116,0C81.6,0,53.6,27.7,53,62H31.2c-0.3-8.4-7.1-15.1-15.6-15.1C7,46.9,0,53.9,0,62.5s7,15.6,15.6,15.6
			c8.1,0,14.8-6.2,15.5-14.1H53c0.5,34.3,28.6,62,63,62c34.7,0,63-28.3,63-63S150.7,0,116,0z M116,124c-33.6,0-61-27.4-61-61
			S82.4,2,116,2s61,27.4,61,61S149.6,124,116,124z"/>
		<path fill="#FFFFFF" d="M17.7,68l1.1-15.2l-4.2,0.6c-0.1,0.7-0.3,1.2-0.6,1.5c-0.3,0.3-1,0.5-1.9,0.7l-0.3,4.5l2-0.3l-0.7,8.8
			L10.8,69l-0.4,3.9l9.5-1.4l0.4-3.9L17.7,68z"/>
	</g>
</g>
</svg>
