<svg xmlns="http://www.w3.org/2000/svg" class="svg-container" viewBox="0 0 539.6 362.6">
  <defs>
    <style>
      .\31 407505b-9fae-4610-a361-4c2b8411dd1e {
        fill: #e0e622;
      }
    </style>
  </defs>
  <title>A yellow osteoclast cell graphic</title>
  <g id="b9a7131d-1a68-4d5f-b555-27c7ead824a7" data-name="Layer 2">
    <g id="7865160c-2579-4e27-a4f1-8a80aad57d40" data-name="Layer 1">
      <g>
        <path class="svg-one 1407505b-9fae-4610-a361-4c2b8411dd1e" d="M505.4,206.6c-13.8-6.8-26.2-14.2-37-25.5-25.3-26.4-31.3-64.1-51.6-94C378.8,31.4,310.7-13.4,241.2,3.7s-117.7,73.5-147,135C72.6,184.2,41.3,230.8,32.3,281c-3.1,17.4-2.2,32.6,19.6,35.1,38.1,4.2,37.6-52.2,67.3-64.7s41,11.1,32.2,36.3c-5.1,14.5-13.3,29.6-.2,42.6,11.4,11.4,30.5,10.4,43,1.7,21-14.7,14.3-60.2,39.9-63.1,20.4-2.3,27,13.9,30.4,32.9s3.5,41.6,11.3,50.7c18.2,21.4,52.7,6.3,49.4-21.4-1.9-16.4-14.6-25.8-8.5-43.7s25.2-27.8,43.8-23.5c37.9,8.7,27.6,65.5,65.7,71.2s39.7-37.5,12.1-56.6c-8.9-6.2-21.5-23.2-22.5-37.6s29-15.7,43.4-9.6c12.7,5.3,50.3,42.1,73.2,15S517,212.2,505.4,206.6Z"/>
        <path class="svg-two 1407505b-9fae-4610-a361-4c2b8411dd1e" d="M507.2,281c-9-50.2-40.3-96.8-61.9-142.3C416,77.2,367.5,20.6,298.4,3.7S160.7,31.4,122.8,87.1c-20.4,29.9-26.3,67.6-51.6,94C60.4,192.4,48,199.8,34.1,206.6c-11.5,5.6-49.8,12.6-26.9,39.7s60.5-9.7,73.1-15c14.5-6.1,44.5-5.9,43.4,9.6s-13.5,31.4-22.4,37.6c-27.6,19.1-24.6,62.1,12,56.6,38.2-5.7,27.8-62.5,65.7-71.2,18.7-4.3,37.5,5.1,43.8,23.5s-6.5,27.3-8.5,43.7c-3.3,27.7,31.3,42.8,49.4,21.4,7.8-9.1,8-31.4,11.4-50.7s10-35.2,30.4-32.9c25.6,2.9,18.9,48.4,39.9,63.1,12.4,8.7,31.5,9.7,42.9-1.7,13.1-13,5-28.1-.1-42.6-8.9-25.2,3.1-48.5,32.2-36.3s29.2,68.9,67.3,64.7C509.5,313.6,510.4,298.4,507.2,281Z"/>
      </g>
    </g>
  </g>
</svg>
