<?xml version="1.0" encoding="utf-8"?>
<!-- Generator: Adobe Illustrator 21.1.0, SVG Export Plug-In . SVG Version: 6.00 Build 0)  -->
<svg version="1.1" id="Layer_1" xmlns="http://www.w3.org/2000/svg" xmlns:xlink="http://www.w3.org/1999/xlink" x="0px" y="0px"
	 viewBox="0 0 179 126" enable-background="new 0 0 179 126" xml:space="preserve">
<g>
	<line fill="none" stroke="#231F20" stroke-width="0.5628" stroke-miterlimit="10" x1="153.1" y1="26.9" x2="153.1" y2="27.2"/>
	<path fill="#FFFFFF" d="M116,0C81.6,0,53.6,27.7,53,62H16.4v2H53c0.5,34.3,28.6,62,63,62c34.7,0,63-28.3,63-63S150.7,0,116,0z
		 M116,124c-33.6,0-61-27.4-61-61S82.4,2,116,2s61,27.4,61,61S149.6,124,116,124z"/>
	<g>
		<g>
			<path fill="#F48020" d="M106.8,61.9l16.1-10c-2,0.6-4.1,0.8-6.4,0.8c-3.1,0-5.9-0.5-8.4-1.6c-0.3-0.1-0.6-0.2-0.9-0.2
				c-0.4,0-0.9,0.1-1.3,0.4c-0.3,0.2-0.8,0.6-1.1,1.4c-0.1,0.2-0.2,0.4-0.2,0.6c-0.2,0.9-0.4,1.7-0.6,2.4c-0.1,0.3-0.3,0.6-0.4,0.9
				c-0.5,0.7-1.2,1.2-2.1,1.3c-1.6,0.3-4.1,0.7-6.9,0.7c-1.2,0-1.1-0.1-2.2-0.2c-0.2,0-0.3,0-0.5,0c-0.9,0-1.8,0.4-2.5,1.1
				c-0.8,0.8-1.3,2-1.4,3.2v0.1l0,0l0,0c0,1.3,0.5,2.5,1.4,3.3c0.7,0.7,1.7,1.1,2.6,1.1c0.2,0,0.4,0,0.5,0c3.8-0.6,6.1-0.9,9.2-1
				c0.8,0,1.6,0.4,2.1,1.1c0.1,0.2,0.2,0.4,0.2,0.6c0.1,0.4,0.3,0.8,0.5,1.3c0.1,0.1,0.1,0.2,0.2,0.4l11.4-6L106.8,61.9z"/>
		</g>
		<g>
			<path fill="#F48020" d="M141.1,58.3c-0.2,0-0.3,0-0.5,0c-1.1,0.1-2.2,0.2-3.4,0.2c-2.8,0-4.1-0.4-5.7-0.7c-1-0.2-1.9-0.9-2.4-1.9
				c0-0.1-0.1-0.2-0.1-0.3c-0.2-0.6-0.4-1.3-0.6-2.1l-10.5,5.3l8.6,3.3l-19.1,10.4c1.6,1.3,4.2,2.4,9.1,2.4c7.6,0,9.6-2.6,11.1-4.5
				c0.6-0.7,0.9-1.5,1.1-2.2c0.1-0.2,0.1-0.4,0.2-0.5c0-0.1,0-0.1,0.1-0.2c0.4-0.9,1.3-1.5,2.3-1.5c3.1,0.1,5.4,0.4,9.2,1
				c0.2,0,0.4,0,0.5,0l0,0c1,0,1.9-0.4,2.6-1.1c0.9-0.9,1.4-2,1.4-3.3s-0.5-2.5-1.4-3.4C142.9,58.7,142,58.3,141.1,58.3z"/>
		</g>
		<path fill="#F48020" d="M143.6,33.9c-0.7-0.7-1.6-1.1-2.6-1.1c-0.2,0-0.3,0-0.5,0c-1.1,0.1-2.2,0.2-3.4,0.2
			c-2.8,0-4.1-0.4-5.7-0.7c-0.4-0.1-0.8-0.4-1.2-0.9c-0.6-0.8-1.1-1.9-1.3-2.6c-0.3-0.7-0.5-1.5-0.6-2.4c0-0.1,0-0.2-0.1-0.3
			c-0.2-1-0.8-1.5-1.2-1.7c-0.4-0.2-0.8-0.4-1.3-0.4c-0.3,0-0.6,0.1-0.9,0.2c-2.5,1-5.3,1.6-8.4,1.6c-3.1,0-5.9-0.5-8.4-1.6
			c-0.3-0.1-0.6-0.2-0.9-0.2c-0.4,0-0.9,0.1-1.3,0.4c-0.3,0.2-0.8,0.6-1.1,1.3c-0.1,0.2-0.2,0.4-0.2,0.6c-0.2,0.9-0.4,1.7-0.6,2.4
			c-0.3,0.9-0.9,2.2-1.7,3.1c-0.2,0.2-0.5,0.4-0.8,0.4c-1.6,0.3-4.2,0.7-6.9,0.7c-1.2,0-1.1-0.1-2.2-0.2c-0.2,0-0.3,0-0.5,0
			c-0.9,0-1.8,0.4-2.6,1.1c-0.8,0.8-1.3,1.9-1.3,3.1c0,0.1,0,0.1,0,0.2c0,1.3,0.5,2.5,1.4,3.3c0.7,0.7,1.7,1.1,2.6,1.1
			c0.2,0,0.4,0,0.5,0c3.8-0.6,6.1-0.9,9.2-1c0.8,0,1.6,0.4,2,1.1c0.1,0.2,0.2,0.4,0.3,0.6c0.1,0.4,0.3,0.8,0.5,1.3
			c0.2,0.5,0.5,1,0.8,1.4c1.5,1.9,3.5,4.5,11.1,4.5c7.6,0,9.6-2.6,11.1-4.5c0.6-0.7,0.9-1.6,1.1-2.2c0.1-0.2,0.1-0.3,0.2-0.5
			c0-0.1,0-0.1,0.1-0.2c0.4-0.9,1.3-1.5,2.2-1.5h0.1c3.1,0.1,5.4,0.4,9.2,1c0.2,0,0.4,0,0.5,0c1,0,1.9-0.4,2.6-1.1
			c0.9-0.9,1.4-2,1.4-3.3C145,36,144.5,34.8,143.6,33.9z M108.2,31.4l1.5-1.5c1.7,0.4,3.4,0.7,5.3,0.7l-7.3,7.3
			C107.3,36.1,107.5,33.8,108.2,31.4z M109.2,42.2c-0.3-0.3-0.5-0.7-0.7-1.2L119,30.6c1.8-0.1,3.6-0.4,5.2-0.9
			c0.2,0.5,0.4,1,0.6,1.5l-12.9,12.9C110.6,43.7,109.8,43,109.2,42.2z M123.9,42.1l-1.5,1.5c-1.2,0.8-3,1.3-5.9,1.3
			c-0.5,0-1,0-1.4,0l10.4-10.4C125.8,37.7,125.1,40.4,123.9,42.1z"/>
		<path fill="#F48020" d="M143.6,86.2c-0.7-0.7-1.6-1.1-2.6-1.1c-0.2,0-0.3,0-0.5,0c-1.1,0.1-2.2,0.2-3.4,0.2
			c-2.8,0-4.1-0.4-5.7-0.7c-0.4-0.1-0.8-0.4-1.2-0.9c-0.6-0.8-1.1-1.9-1.3-2.6c-0.3-0.7-0.5-1.5-0.6-2.4c0-0.1,0-0.2-0.1-0.3
			c-0.2-1-0.8-1.5-1.2-1.7c-0.4-0.2-0.8-0.4-1.3-0.4c-0.3,0-0.6,0.1-0.9,0.2c-2.5,1-5.3,1.6-8.4,1.6c-3.1,0-5.9-0.5-8.4-1.6
			c-0.3-0.1-0.6-0.2-0.9-0.2c-0.4,0-0.9,0.1-1.3,0.4c-0.3,0.2-0.8,0.6-1.1,1.3c-0.1,0.2-0.2,0.4-0.2,0.6c-0.2,0.9-0.4,1.7-0.6,2.4
			c-0.3,0.9-0.9,2.2-1.7,3.1c-0.2,0.2-0.5,0.4-0.8,0.4c-1.6,0.3-4.2,0.7-6.9,0.7c-1.2,0-1.1-0.1-2.2-0.2c-0.2,0-0.3,0-0.5,0
			c-0.9,0-1.8,0.4-2.6,1.1c-0.8,0.8-1.3,1.9-1.3,3.1c0,0.1,0,0.1,0,0.2c0,1.3,0.5,2.5,1.4,3.3c0.7,0.7,1.7,1.1,2.6,1.1
			c0.2,0,0.4,0,0.5,0c3.8-0.6,6.1-0.9,9.2-1c0.8,0,1.6,0.4,2,1.1c0.1,0.2,0.2,0.4,0.3,0.6c0.1,0.4,0.3,0.8,0.5,1.3
			c0.2,0.5,0.5,1,0.8,1.4c1.5,1.9,3.5,4.5,11.1,4.5c7.6,0,9.6-2.6,11.1-4.5c0.6-0.7,0.9-1.6,1.1-2.2c0.1-0.2,0.1-0.3,0.2-0.5
			c0-0.1,0-0.1,0.1-0.2c0.4-0.9,1.3-1.5,2.2-1.5h0.1c3.1,0.1,5.4,0.4,9.2,1c0.2,0,0.4,0,0.5,0c1,0,1.9-0.4,2.6-1.1
			c0.9-0.9,1.4-2,1.4-3.3C145,88.2,144.5,87,143.6,86.2z M108.2,83.6l1.5-1.5c1.7,0.4,3.4,0.7,5.3,0.7l-7.3,7.3
			C107.3,88.3,107.5,86,108.2,83.6z M109.2,94.4c-0.3-0.3-0.5-0.7-0.7-1.2L119,82.8c1.8-0.1,3.6-0.4,5.2-0.9c0.2,0.5,0.4,1,0.6,1.5
			l-12.9,12.9C110.6,95.9,109.8,95.2,109.2,94.4z M123.9,94.3l-1.5,1.5c-1.2,0.8-3,1.3-5.9,1.3c-0.5,0-0.9,0-1.4,0l10.3-10.3
			C125.8,89.9,125.1,92.6,123.9,94.3z"/>
	</g>
	<circle fill="#F48020" cx="15.6" cy="62.3" r="15.6"/>
	<g enable-background="new    ">
		<path fill="#FFFFFF" d="M9,72.4l0.3-3.7c0.1-0.9,0.3-1.8,0.6-2.6c0.3-0.8,0.7-1.4,1.2-1.9c0.5-0.5,1-1,1.5-1.4
			c0.6-0.4,1.1-0.8,1.6-1.2c0.5-0.3,1-0.7,1.5-1c0.5-0.3,0.8-0.7,1.1-1.1c0.3-0.4,0.5-0.8,0.5-1.3c0-0.5-0.1-0.9-0.3-1.1
			c-0.3-0.2-0.6-0.3-1-0.2c-1,0.1-1.5,0.8-1.6,1.9L10,59.5c0.1-2,0.7-3.5,1.7-4.8c1.1-1.2,2.5-2,4.4-2.3c1.8-0.3,3.2,0.1,4.3,1
			c1.1,0.9,1.6,2.2,1.5,4c-0.1,0.8-0.2,1.6-0.5,2.3c-0.3,0.7-0.7,1.3-1.2,1.9c-0.5,0.5-1,1-1.5,1.5c-0.6,0.5-1.1,0.9-1.6,1.2
			c-0.5,0.4-1,0.7-1.5,1c-0.5,0.3-0.8,0.6-1.1,1S14,66.9,14,67.2l7.2-1.1l-0.4,4.5L9,72.4z"/>
	</g>
</g>
</svg>
