<svg xmlns="http://www.w3.org/2000/svg" viewBox="0 -1 73.5 148.9">
  <defs>
    <style>
      .\34 98fe3b6-7944-4222-966f-411ae6c1fd86 {
        fill: #fff;
      }
    </style>
  </defs>
  <title>Stick figure woman representing women not evaluated for osteoporosis</title>
  <g id="8f1b1336-2625-4564-8e99-3a3e3bd979fb" data-name="Layer 2">
    <g id="e63af9d8-d56c-40be-8591-6535e9f47923" data-name="Layer 1">
      <g>
        <path class="498fe3b6-7944-4222-966f-411ae6c1fd86" d="M50.1,13.4a13.4,13.4,0,0,1-26.7,0,13.4,13.4,0,1,1,26.7,0"/>
        <path class="498fe3b6-7944-4222-966f-411ae6c1fd86" d="M73.2,80.3,55.9,35a6.9,6.9,0,0,0-6.4-4.3H47a5.8,5.8,0,0,0-2.6.6,18.1,18.1,0,0,1-15.3,0,5.7,5.7,0,0,0-2.5-.6H24A6.7,6.7,0,0,0,17.7,35L.3,80.3a4.6,4.6,0,0,0,4.2,6.2H6.6a4.5,4.5,0,0,0,4.2-2.9L23.1,51.7c.1-.2.2-.3.4-.2h0c.1,0,.2.2.2.3L12,101.3a1.1,1.1,0,0,0,1.1,1.4h8.1v39.7a4.5,4.5,0,0,0,4.5,4.5h5.2a4.6,4.6,0,0,0,4.6-4.5V102.7h2.6v39.7a4.5,4.5,0,0,0,4.5,4.5h5.2a4.5,4.5,0,0,0,4.5-4.5V102.7h8.2a1.2,1.2,0,0,0,1.1-1.4L49.9,51.8c-.1-.1,0-.3.2-.3h0c.1-.1.3,0,.3.2L62.7,83.6a4.6,4.6,0,0,0,4.2,2.9H69a4.5,4.5,0,0,0,4.2-6.2"/>
      </g>
    </g>
  </g>
</svg>
