<svg xmlns="http://www.w3.org/2000/svg" viewBox="0 -1 73.5 150.9">
  <defs>
    <style>
      .\39 e3d256e-5d86-4851-9402-c956c61e77e5 {
        fill: #cae741;
      }

      .ddab5da2-b51e-4a6c-823e-8f0b5095cc31 {
        fill: #fff;
      }
    </style>
  </defs>
  <title>Stick figure women representing the one out five diagnosed with osteoporosis after a fracture</title>
  <g id="fbc16742-8e99-4828-8f03-dc427d42bf50" data-name="Layer 2">
    <g id="b63f2909-ea04-4cb1-92bc-ed313e92bfea" data-name="Layer 1">
      <g>
        <g>
          <path class="9e3d256e-5d86-4851-9402-c956c61e77e5" d="M50.1,13.4a13.4,13.4,0,0,1-26.7,0,13.4,13.4,0,1,1,26.7,0"/>
          <path class="9e3d256e-5d86-4851-9402-c956c61e77e5" d="M73.2,80.3,55.9,35a6.9,6.9,0,0,0-6.4-4.3H47a5.8,5.8,0,0,0-2.6.6,18.1,18.1,0,0,1-15.3,0,5.7,5.7,0,0,0-2.5-.6H24A6.7,6.7,0,0,0,17.7,35L.3,80.3a4.6,4.6,0,0,0,4.2,6.2H6.6a4.5,4.5,0,0,0,4.2-2.9L23.1,51.7c.1-.2.2-.3.4-.2h0c.1,0,.2.2.2.3L12,101.3a1.1,1.1,0,0,0,1.1,1.4h8.1v39.7a4.5,4.5,0,0,0,4.5,4.5h5.2a4.6,4.6,0,0,0,4.6-4.5V102.7h2.6v39.7a4.5,4.5,0,0,0,4.5,4.5h5.2a4.5,4.5,0,0,0,4.5-4.5V102.7h8.2a1.2,1.2,0,0,0,1.1-1.4L49.9,51.8c-.1-.1,0-.3.2-.3h0c.1-.1.3,0,.3.2L62.7,83.6a4.6,4.6,0,0,0,4.2,2.9H69a4.5,4.5,0,0,0,4.2-6.2"/>
        </g>
        <path class="ddab5da2-b51e-4a6c-823e-8f0b5095cc31" d="M66.9,86.5H69a4.5,4.5,0,0,0,4.2-6.2L55.9,35a7.1,7.1,0,0,0-5.8-4.3V51.5c.2,0,.3,0,.3.2L62.7,83.6A4.6,4.6,0,0,0,66.9,86.5Z"/>
      </g>
    </g>
  </g>
</svg>
