<svg version="1.1" id="download-icon" xmlns="http://www.w3.org/2000/svg" xmlns:xlink="http://www.w3.org/1999/xlink" x="0px" y="0px"
	 viewBox="0 0 53 53" enable-background="new 0 0 53 53" xml:space="preserve">
<path fill="#B3B2B1" d="M26.5,53C11.9,53,0,41.1,0,26.5S11.9,0,26.5,0S53,11.9,53,26.5S41.1,53,26.5,53z M26.5,2.2
	C13.1,2.2,2.2,13.1,2.2,26.5s10.9,24.3,24.3,24.3s24.3-10.9,24.3-24.3S39.9,2.2,26.5,2.2z"/>
<path class="download-icon" fill="#FFFFFF" d="M38.8,15.3h-6.7c-0.6,0-1.1,0.5-1.1,1.1c0,0.6,0.5,1.1,1.1,1.1h6.7c0.7,0,1.3,0.6,1.3,1.3v14
	c0,0.7-0.6,1.3-1.3,1.3H14.2c-0.7,0-1.3-0.6-1.3-1.3v-14c0-0.7,0.6-1.3,1.3-1.3h6.7c0.6,0,1.1-0.5,1.1-1.1c0-0.6-0.5-1.1-1.1-1.1
	h-6.7c-1.9,0-3.5,1.6-3.5,3.5v14c0,1.9,1.6,3.5,3.5,3.5h10.7v3h-3.8c-0.6,0-1.1,0.5-1.1,1.1c0,0.6,0.5,1.1,1.1,1.1h10.8
	c0.6,0,1.1-0.5,1.1-1.1c0-0.6-0.5-1.1-1.1-1.1h-3.8v-3h10.7c1.9,0,3.5-1.6,3.5-3.5v-14C42.3,16.8,40.7,15.3,38.8,15.3z"/>
<path fill="#FF8300" d="M33.9,21.3c-0.7-0.7-1.8-0.7-2.6,0l-3,3V10.3c0-1-0.8-1.8-1.8-1.8s-1.8,0.8-1.8,1.8v13.9l-3-3
	c-0.7-0.7-1.9-0.7-2.6,0c-0.7,0.7-0.7,1.9,0,2.6l6.1,6c0.4,0.3,0.8,0.5,1.3,0.5s0.9-0.2,1.3-0.5l6.1-6C34.6,23.1,34.6,22,33.9,21.3z
	"/>
</svg>
