<svg id="1fb1b97a-fd57-4577-ba5d-f2a728969660" xmlns="http://www.w3.org/2000/svg" viewBox="0 0 451.58 277.68"><title>For your postmenopausal patients at high risk for osteoporotic fracture, be an osteoporosis First Responder.</title><g id="e24e92d5-d739-46a8-af22-dd36c37f1b22"><polygon points="226.21 179.83 128.82 200.53 128.39 193.36 225.78 172.66 226.21 179.83" fill="#7a7676"/><polygon points="107.59 205.05 78.12 211.31 77.68 204.14 107.16 197.87 107.59 205.05" fill="#7a7676"/></g><g id="20e96e1f-f1a1-478f-9774-2e6b16689ca4" class="line-section"><rect x="76.48" y="170.02" width="150.65" height="45.08"/></g><g id="21bf964c-4134-4445-af48-d8b1f6452df4" class="top-section"><path d="M0,66.51V55.28l5.74-1.22v1.52l-4.26.9v3.37l3-.64V60.6l-3,.64v5Z" fill="#fff"/><path d="M7.35,62.71A3.39,3.39,0,0,1,7.14,62,4.79,4.79,0,0,1,7,61V57.49a5.18,5.18,0,0,1,.86-3,3.76,3.76,0,0,1,2.41-1.58,3.9,3.9,0,0,1,1.49,0,2.82,2.82,0,0,1,1.24.54,2.76,2.76,0,0,1,.84,1.12,3.48,3.48,0,0,1,.21.67,4.71,4.71,0,0,1,.09,1v3.61a5.15,5.15,0,0,1-.85,3,3.75,3.75,0,0,1-2.4,1.57,3.9,3.9,0,0,1-1.5,0,2.7,2.7,0,0,1-2.08-1.66Zm1.2-1.94a4.06,4.06,0,0,0,.06.81,1.67,1.67,0,0,0,.53,1,1.75,1.75,0,0,0,1.56.3A2.48,2.48,0,0,0,12.13,62a2.85,2.85,0,0,0,.58-1.85V56.44a3.9,3.9,0,0,0-.08-.79,1.66,1.66,0,0,0-.53-1,1.73,1.73,0,0,0-1.55-.3,2.47,2.47,0,0,0-1.43.88,2.85,2.85,0,0,0-.58,1.84Z" fill="#fff"/><path d="M16.66,63V51.74l3-.64A4.22,4.22,0,0,1,21.18,51a2.62,2.62,0,0,1,1.21.5,2.48,2.48,0,0,1,.8,1.06,3.12,3.12,0,0,1,.19.6,8.46,8.46,0,0,1,.15,1v.32A4.75,4.75,0,0,1,23,56.94a4,4,0,0,1-1.82,1.57l2.28,3-1.73.37-2-2.79-1.59.34v3.21Zm1.49-5,1.59-.34a3,3,0,0,0,1.7-.91A2.75,2.75,0,0,0,22,54.83v-.38a3.62,3.62,0,0,0-.07-.72q-.32-1.52-2.21-1.12l-1.59.34Z" fill="#fff"/><path d="M28.58,49.21l1.52-.32,2.48,5,2.5-6,1.7-.36q-.57,1.28-1.69,3.92T33.4,55.32V59.4l-1.5.32V55.63Z" fill="#fff"/><path d="M38,56.2a3.43,3.43,0,0,1-.21-.67,4.78,4.78,0,0,1-.1-1V51a5.18,5.18,0,0,1,.86-3A3.76,3.76,0,0,1,41,46.39a3.88,3.88,0,0,1,1.49,0,2.8,2.8,0,0,1,1.24.54A2.77,2.77,0,0,1,44.53,48a3.51,3.51,0,0,1,.21.67,4.67,4.67,0,0,1,.09,1v3.61a5.15,5.15,0,0,1-.85,3,3.74,3.74,0,0,1-2.4,1.57,3.89,3.89,0,0,1-1.5,0A2.7,2.7,0,0,1,38,56.2Zm1.2-1.94a4,4,0,0,0,.06.81,1.67,1.67,0,0,0,.53,1,1.74,1.74,0,0,0,1.56.3,2.48,2.48,0,0,0,1.43-.89,2.84,2.84,0,0,0,.58-1.85V49.92a4,4,0,0,0-.08-.79,1.65,1.65,0,0,0-.53-1,1.73,1.73,0,0,0-1.54-.3,2.46,2.46,0,0,0-1.43.88,2.84,2.84,0,0,0-.58,1.84Z" fill="#fff"/><path d="M47.45,54.24a2.76,2.76,0,0,1-.23-.67,3.32,3.32,0,0,1-.07-.75V45.26l1.5-.32v7.5a3.69,3.69,0,0,0,.07.63,3.54,3.54,0,0,0,.12.4,1.46,1.46,0,0,0,.49.63,1.63,1.63,0,0,0,.69.28,2.18,2.18,0,0,0,.79,0,2.44,2.44,0,0,0,1.46-.91,2.9,2.9,0,0,0,.57-1.83V44.05l1.5-.32v7.49a5.08,5.08,0,0,1-.86,3,4,4,0,0,1-3.92,1.61,2.89,2.89,0,0,1-1.25-.54A3,3,0,0,1,47.45,54.24Z" fill="#fff"/><path d="M56.9,54.41V43.19l3-.64a4.21,4.21,0,0,1,1.52-.07,2.64,2.64,0,0,1,1.21.5,2.49,2.49,0,0,1,.8,1.06,3.15,3.15,0,0,1,.19.6,8.43,8.43,0,0,1,.15,1V46a4.76,4.76,0,0,1-.55,2.42A4,4,0,0,1,61.41,50l2.28,3L62,53.34l-2-2.79-1.59.34V54.1Zm1.49-5L60,49a3,3,0,0,0,1.7-.91,2.75,2.75,0,0,0,.57-1.85v-.38a3.62,3.62,0,0,0-.07-.72q-.32-1.52-2.21-1.12l-1.59.34Z" fill="#fff"/><path d="M69.74,51.68V40.46l2.93-.62a4.16,4.16,0,0,1,1.5-.06,2.86,2.86,0,0,1,1.25.5,2.59,2.59,0,0,1,.85,1.06,3.11,3.11,0,0,1,.22.68,4.78,4.78,0,0,1,.1,1v.43a5,5,0,0,1-.92,3.08A4.11,4.11,0,0,1,73.12,48l-1.89.4v2.94Zm1.49-4.77,1.58-.34a2.74,2.74,0,0,0,2.27-2.89v-.41A3.78,3.78,0,0,0,75,42.5q-.34-1.58-2.21-1.18l-1.59.34Z" fill="#fff"/><path d="M78.77,47.53a3.4,3.4,0,0,1-.21-.67,4.74,4.74,0,0,1-.1-1V42.31a5.17,5.17,0,0,1,.86-3,3.76,3.76,0,0,1,2.41-1.58,3.9,3.9,0,0,1,1.49,0,2.82,2.82,0,0,1,1.24.54,2.76,2.76,0,0,1,.84,1.12,3.48,3.48,0,0,1,.21.67,4.68,4.68,0,0,1,.09,1v3.61a5.15,5.15,0,0,1-.86,3,3.74,3.74,0,0,1-2.4,1.57,3.89,3.89,0,0,1-1.5,0,2.7,2.7,0,0,1-2.08-1.66ZM80,45.59a4,4,0,0,0,.06.81,1.67,1.67,0,0,0,.53,1,1.75,1.75,0,0,0,1.56.3,2.49,2.49,0,0,0,1.43-.89,2.85,2.85,0,0,0,.58-1.85V41.26a4,4,0,0,0-.08-.79,1.65,1.65,0,0,0-.53-1,1.73,1.73,0,0,0-1.54-.3,2.46,2.46,0,0,0-1.43.88A2.85,2.85,0,0,0,80,41.92Z" fill="#fff"/><path d="M87.64,44.16l1.48-.31a3.74,3.74,0,0,0,.07.78,1.57,1.57,0,0,0,.49.92,1.9,1.9,0,0,0,1.58.3l.1,0a2.68,2.68,0,0,0,1.39-.72,2.11,2.11,0,0,0,.58-1.48,1.83,1.83,0,0,0,0-.39,1.13,1.13,0,0,0-.12-.33,1,1,0,0,0-.47-.43,2.91,2.91,0,0,0-.7-.21c-.26,0-.54-.08-.84-.11L90.26,42a4.3,4.3,0,0,1-.87-.22,2.78,2.78,0,0,1-.75-.41,1.94,1.94,0,0,1-.56-.72,2.89,2.89,0,0,1-.2-.62,4.43,4.43,0,0,1-.08-.5,3.41,3.41,0,0,1,.73-2.48A3.81,3.81,0,0,1,90.8,35.8l.16,0a4.28,4.28,0,0,1,1.5,0,2.63,2.63,0,0,1,1.18.49,2.31,2.31,0,0,1,.78,1,2.86,2.86,0,0,1,.19.58,4.51,4.51,0,0,1,.09,1l-1.47.31a3.47,3.47,0,0,0-.07-.75,1.54,1.54,0,0,0-.47-.87,1.7,1.7,0,0,0-1.5-.3h-.06a2.54,2.54,0,0,0-1.38.73,1.77,1.77,0,0,0-.46,1.38,2.1,2.1,0,0,0,0,.24,1.26,1.26,0,0,0,.2.48,1.21,1.21,0,0,0,.53.41,4,4,0,0,0,.73.21,5.78,5.78,0,0,0,.86.11,6.7,6.7,0,0,1,.89.11,7.39,7.39,0,0,1,.85.21,2,2,0,0,1,1.23,1.12,2.5,2.5,0,0,1,.13.43,4.42,4.42,0,0,1,.08.68A3.81,3.81,0,0,1,94,45.8a4.15,4.15,0,0,1-2.51,1.46,3.23,3.23,0,0,1-2.76-.45,2.68,2.68,0,0,1-1-1.65A5.1,5.1,0,0,1,87.64,44.16Z" fill="#fff"/><path d="M96.16,36.36V34.84l6.69-1.42v1.52l-2.61.56V45.2l-1.5.32V35.81Z" fill="#fff"/><path d="M104.9,44.21V33l1.38-.29,3,6.61,3-7.88,1.54-.33V42.31l-1.5.32v-7.8l-2.45,6.38-1.05.22-2.43-5.34v7.8Z" fill="#fff"/><path d="M116.55,41.73V30.51l6-1.27v1.52l-4.48,1v3.37l3.26-.69v1.38l-3.27.7V39.9l4.48-1v1.51Z" fill="#fff"/><path d="M124.88,40V28.74l1.38-.29,4.35,7.4,0-8.32,1.5-.32V38.43l-1.4.3-4.37-7.46,0,8.38Z" fill="#fff"/><path d="M134.83,35.62a3.4,3.4,0,0,1-.21-.67,4.78,4.78,0,0,1-.1-1V30.4a5.17,5.17,0,0,1,.86-3,3.76,3.76,0,0,1,2.41-1.58,3.9,3.9,0,0,1,1.49,0,2.82,2.82,0,0,1,1.24.54,2.76,2.76,0,0,1,.84,1.11,3.51,3.51,0,0,1,.21.67,4.71,4.71,0,0,1,.09,1v3.61a5.15,5.15,0,0,1-.85,3,3.75,3.75,0,0,1-2.4,1.57,3.89,3.89,0,0,1-1.5,0,2.7,2.7,0,0,1-2.08-1.66Zm1.2-1.94a4,4,0,0,0,.06.81,1.67,1.67,0,0,0,.53,1,1.75,1.75,0,0,0,1.56.3,2.49,2.49,0,0,0,1.43-.89,2.84,2.84,0,0,0,.58-1.85V29.34a3.91,3.91,0,0,0-.08-.79,1.65,1.65,0,0,0-.53-1,1.73,1.73,0,0,0-1.55-.3,2.46,2.46,0,0,0-1.43.88A2.85,2.85,0,0,0,136,30Z" fill="#fff"/><path d="M144.14,35.87V24.65l2.93-.62a4.21,4.21,0,0,1,1.5-.06,2.87,2.87,0,0,1,1.25.5,2.6,2.6,0,0,1,.85,1.06,3.07,3.07,0,0,1,.22.68,4.82,4.82,0,0,1,.1,1v.43a5,5,0,0,1-.92,3.08,4.11,4.11,0,0,1-2.52,1.55l-1.89.4v2.94Zm1.49-4.77,1.58-.34a2.74,2.74,0,0,0,2.27-2.89v-.41a3.67,3.67,0,0,0-.07-.77q-.34-1.58-2.21-1.18l-1.59.34Z" fill="#fff"/><path d="M151.36,34.34l3.48-12,1.66-.35,3.43,10.5-1.52.32-.72-2.38-4,.85L153,34Zm2.69-4.46,3.25-.69-1.61-5.28Z" fill="#fff"/><path d="M161.85,29.93a2.77,2.77,0,0,1-.23-.67,3.32,3.32,0,0,1-.07-.75V20.94l1.5-.32v7.5a3.69,3.69,0,0,0,.07.63,3.54,3.54,0,0,0,.12.4,1.46,1.46,0,0,0,.49.63,1.64,1.64,0,0,0,.69.28,2.18,2.18,0,0,0,.79,0,2.45,2.45,0,0,0,1.46-.91,2.9,2.9,0,0,0,.57-1.83V19.73l1.49-.32v7.49a5.07,5.07,0,0,1-.86,3A4,4,0,0,1,164,31.51a2.91,2.91,0,0,1-1.25-.54A3,3,0,0,1,161.85,29.93Z" fill="#fff"/><path d="M170.87,26.47l1.48-.32a3.75,3.75,0,0,0,.07.78,1.57,1.57,0,0,0,.49.92,1.9,1.9,0,0,0,1.58.3l.1,0a2.69,2.69,0,0,0,1.39-.72,2.11,2.11,0,0,0,.58-1.48,1.82,1.82,0,0,0,0-.39,1.16,1.16,0,0,0-.12-.33,1,1,0,0,0-.47-.43,2.9,2.9,0,0,0-.7-.21q-.4-.07-.84-.11l-.89-.11a4.31,4.31,0,0,1-.87-.22,2.78,2.78,0,0,1-.75-.41,1.93,1.93,0,0,1-.56-.72,2.83,2.83,0,0,1-.2-.62,4.43,4.43,0,0,1-.07-.5,3.4,3.4,0,0,1,.73-2.48A3.81,3.81,0,0,1,174,18.1l.16,0a4.3,4.3,0,0,1,1.5,0,2.66,2.66,0,0,1,1.18.49,2.33,2.33,0,0,1,.78,1,2.89,2.89,0,0,1,.19.58,4.48,4.48,0,0,1,.09,1l-1.47.31a3.47,3.47,0,0,0-.07-.75,1.54,1.54,0,0,0-.47-.87,1.7,1.7,0,0,0-1.5-.3h-.06a2.54,2.54,0,0,0-1.38.73,1.76,1.76,0,0,0-.46,1.38,2.08,2.08,0,0,0,0,.24,1.27,1.27,0,0,0,.2.48,1.21,1.21,0,0,0,.53.41,3.9,3.9,0,0,0,.73.21,5.76,5.76,0,0,0,.86.11,6.69,6.69,0,0,1,.89.11,7.17,7.17,0,0,1,.85.21,2,2,0,0,1,1.23,1.12,2.5,2.5,0,0,1,.13.43,4.36,4.36,0,0,1,.08.68,3.81,3.81,0,0,1-.83,2.53,4.16,4.16,0,0,1-2.51,1.46,3.23,3.23,0,0,1-2.76-.45,2.68,2.68,0,0,1-1-1.65A5.1,5.1,0,0,1,170.87,26.47Z" fill="#fff"/><path d="M179.13,28.43l3.48-12,1.66-.35,3.43,10.5-1.52.32-.72-2.38-4,.85-.73,2.69ZM181.82,24l3.25-.69L183.46,18Z" fill="#fff"/><path d="M189.47,26.24V15l1.5-.32V24.4l4.13-.88V25Z" fill="#fff"/><path d="M200.86,23.81V12.59l2.93-.62a4.21,4.21,0,0,1,1.5-.06,2.87,2.87,0,0,1,1.25.5,2.6,2.6,0,0,1,.85,1.06,3.07,3.07,0,0,1,.22.68,4.82,4.82,0,0,1,.1,1v.43a5,5,0,0,1-.92,3.08,4.12,4.12,0,0,1-2.52,1.55l-1.89.4V23.5ZM202.35,19l1.58-.34a2.74,2.74,0,0,0,2.27-2.89V15.4a3.67,3.67,0,0,0-.07-.77q-.34-1.58-2.21-1.18l-1.59.34Z" fill="#fff"/><path d="M208.09,22.28l3.48-12,1.66-.35,3.43,10.5-1.53.32-.72-2.38-4,.85-.73,2.69Zm2.69-4.46,3.25-.69-1.61-5.28Z" fill="#fff"/><path d="M216.9,10.7V9.18l6.69-1.42V9.27L221,9.83v9.71l-1.49.32V10.15Z" fill="#fff"/><path d="M225.64,18.55V7.32l1.5-.32V18.23Z" fill="#fff"/><path d="M229.87,17.65V6.42l6-1.27V6.67l-4.48,1V11l3.26-.69v1.38l-3.27.7v3.44l4.48-1v1.51Z" fill="#fff"/><path d="M238.19,15.88V4.65l1.38-.29,4.35,7.4,0-8.32,1.5-.32V14.35l-1.4.3-4.37-7.46,0,8.38Z" fill="#fff"/><path d="M247.46,4.2V2.68l6.69-1.42V2.78l-2.61.56V13l-1.5.32V3.65Z" fill="#fff"/><path d="M255.46,8.49l1.48-.31A3.69,3.69,0,0,0,257,9a1.57,1.57,0,0,0,.49.92,1.9,1.9,0,0,0,1.58.3l.1,0a2.68,2.68,0,0,0,1.39-.71A2.11,2.11,0,0,0,261.14,8a1.83,1.83,0,0,0,0-.39,1.18,1.18,0,0,0-.12-.33,1,1,0,0,0-.47-.43,2.91,2.91,0,0,0-.7-.21c-.26,0-.54-.08-.84-.11l-.89-.11a4.3,4.3,0,0,1-.87-.22,2.77,2.77,0,0,1-.75-.41A1.94,1.94,0,0,1,255.9,5a2.84,2.84,0,0,1-.2-.62,4.45,4.45,0,0,1-.07-.5,3.4,3.4,0,0,1,.73-2.48A3.81,3.81,0,0,1,258.62.12l.16,0a4.33,4.33,0,0,1,1.5,0,2.63,2.63,0,0,1,1.18.49,2.32,2.32,0,0,1,.78,1,2.87,2.87,0,0,1,.19.58,4.47,4.47,0,0,1,.09,1L261,3.4a3.48,3.48,0,0,0-.07-.75,1.54,1.54,0,0,0-.47-.87,1.7,1.7,0,0,0-1.5-.3h-.06a2.54,2.54,0,0,0-1.38.73,1.77,1.77,0,0,0-.46,1.38,2.31,2.31,0,0,0,0,.24,1.25,1.25,0,0,0,.2.48,1.21,1.21,0,0,0,.53.41,3.92,3.92,0,0,0,.73.21,5.76,5.76,0,0,0,.86.11,6.69,6.69,0,0,1,.89.11,7.34,7.34,0,0,1,.85.21,2,2,0,0,1,1.23,1.12,2.58,2.58,0,0,1,.13.43,4.35,4.35,0,0,1,.08.68,3.81,3.81,0,0,1-.83,2.53,4.15,4.15,0,0,1-2.51,1.46,3.23,3.23,0,0,1-2.76-.45,2.68,2.68,0,0,1-1-1.65A5.14,5.14,0,0,1,255.46,8.49Z" fill="#fff"/><path d="M21.74,79.89l3.48-12,1.66-.35,3.43,10.5-1.53.32L28.06,76l-4,.85-.73,2.69Zm2.69-4.46,3.25-.69-1.61-5.28Z" fill="#fff"/><path d="M30.54,68.31V66.79l6.69-1.42v1.52l-2.61.56v9.71l-1.5.32V67.75Z" fill="#fff"/><path d="M43.09,75.35V64.12l1.5-.32v4.92l3.95-.84V63l1.5-.32V73.87l-1.5.32v-5l-3.95.84v5Z" fill="#fff"/><path d="M52.76,73.29V62.07l1.5-.32V73Z" fill="#fff"/><path d="M57,70.17a3.25,3.25,0,0,1-.21-.66,4.92,4.92,0,0,1-.1-1V64.93a5.3,5.3,0,0,1,.83-3,4,4,0,0,1,3.9-1.6,3,3,0,0,1,1.24.52,2.78,2.78,0,0,1,.85,1,3.38,3.38,0,0,1,.25.75,3.9,3.9,0,0,1,.08.71l-1.49.32a3.05,3.05,0,0,0-.06-.58,1.56,1.56,0,0,0-.57-1,1.82,1.82,0,0,0-1.55-.28,2.2,2.2,0,0,0-1.49,1,4.36,4.36,0,0,0-.49,2.27v3.15a4.22,4.22,0,0,0,.08.78,2.69,2.69,0,0,0,.1.34,1.5,1.5,0,0,0,.48.69,1.55,1.55,0,0,0,.69.31,2.13,2.13,0,0,0,.82,0,2.41,2.41,0,0,0,1.46-.91,3,3,0,0,0,.55-1.84v-.41l-2.09.44V66.22l3.58-.76v1.76a5.12,5.12,0,0,1-.85,3,3.78,3.78,0,0,1-2.42,1.58,3.89,3.89,0,0,1-1.5,0A2.71,2.71,0,0,1,57,70.17Z" fill="#fff"/><path d="M66.27,70.42V59.19l1.5-.32V63.8L71.71,63V58l1.5-.32V68.94l-1.5.32v-5l-3.95.84v5Z" fill="#fff"/><path d="M79.75,67.56V56.33l3-.64a4.22,4.22,0,0,1,1.52-.07,2.62,2.62,0,0,1,1.21.5,2.49,2.49,0,0,1,.8,1.06,3.15,3.15,0,0,1,.19.6,8.39,8.39,0,0,1,.15,1v.32a4.77,4.77,0,0,1-.55,2.42,4,4,0,0,1-1.82,1.57l2.28,3-1.73.37-2-2.79L81.24,64v3.21Zm1.49-5,1.59-.34a3,3,0,0,0,1.7-.91,2.75,2.75,0,0,0,.57-1.85V59a3.61,3.61,0,0,0-.07-.72q-.32-1.52-2.21-1.12l-1.59.34Z" fill="#fff"/><path d="M88.79,65.64V54.41l1.5-.32V65.32Z" fill="#fff"/><path d="M92.58,61.11l1.48-.31a3.75,3.75,0,0,0,.07.78,1.57,1.57,0,0,0,.49.92,1.89,1.89,0,0,0,1.58.3l.1,0a2.68,2.68,0,0,0,1.39-.72,2.11,2.11,0,0,0,.58-1.48,1.81,1.81,0,0,0,0-.39,1.13,1.13,0,0,0-.12-.33,1,1,0,0,0-.47-.43,3,3,0,0,0-.7-.21q-.4-.07-.84-.11L95.2,59a4.32,4.32,0,0,1-.87-.22,2.79,2.79,0,0,1-.75-.41,1.94,1.94,0,0,1-.56-.72,2.86,2.86,0,0,1-.2-.62,4.43,4.43,0,0,1-.07-.5,3.4,3.4,0,0,1,.73-2.48,3.8,3.8,0,0,1,2.26-1.31l.16,0a4.28,4.28,0,0,1,1.5,0,2.64,2.64,0,0,1,1.18.49,2.32,2.32,0,0,1,.78,1,2.89,2.89,0,0,1,.19.58,4.45,4.45,0,0,1,.09,1L98.16,56a3.44,3.44,0,0,0-.07-.75,1.55,1.55,0,0,0-.46-.87,1.7,1.7,0,0,0-1.5-.3h-.06a2.53,2.53,0,0,0-1.38.73,1.77,1.77,0,0,0-.46,1.38,1.93,1.93,0,0,0,0,.24,1.27,1.27,0,0,0,.2.48,1.22,1.22,0,0,0,.53.42,4.07,4.07,0,0,0,.73.21,5.76,5.76,0,0,0,.86.11,6.67,6.67,0,0,1,.89.11,7.15,7.15,0,0,1,.85.21,2,2,0,0,1,1.23,1.12,2.45,2.45,0,0,1,.13.43,4.36,4.36,0,0,1,.08.68,3.81,3.81,0,0,1-.83,2.53,4.16,4.16,0,0,1-2.51,1.46,3.23,3.23,0,0,1-2.76-.45,2.68,2.68,0,0,1-1-1.65A5.13,5.13,0,0,1,92.58,61.11Z" fill="#fff"/><path d="M102.09,62.81V51.58l1.5-.32v4.81l.9-.19,2.9-5.43,1.84-.39-3.4,6.27,3.41,5-1.63.35-2.92-4.36-1.12.24v5Z" fill="#fff"/><path d="M115,60.06V48.83l5.74-1.22v1.52l-4.25.9v3.37l3-.64v1.38l-3,.64v5Z" fill="#fff"/><path d="M122.36,56.26a3.44,3.44,0,0,1-.21-.67,4.75,4.75,0,0,1-.1-1V51a5.16,5.16,0,0,1,.86-3,3.76,3.76,0,0,1,2.41-1.58,3.88,3.88,0,0,1,1.49,0,2.8,2.8,0,0,1,1.24.54,2.75,2.75,0,0,1,.84,1.11,3.48,3.48,0,0,1,.21.67,4.68,4.68,0,0,1,.09,1V53.3a5.15,5.15,0,0,1-.86,3,3.74,3.74,0,0,1-2.4,1.57,3.9,3.9,0,0,1-1.5,0,2.7,2.7,0,0,1-2.08-1.66Zm1.2-1.94a4,4,0,0,0,.06.81,1.67,1.67,0,0,0,.53,1,1.75,1.75,0,0,0,1.56.3,2.48,2.48,0,0,0,1.43-.89,2.84,2.84,0,0,0,.58-1.85V50a3.9,3.9,0,0,0-.08-.79,1.65,1.65,0,0,0-.53-1,1.73,1.73,0,0,0-1.54-.3,2.46,2.46,0,0,0-1.43.88,2.84,2.84,0,0,0-.58,1.84Z" fill="#fff"/><path d="M131.67,56.52V45.29l3-.64a4.21,4.21,0,0,1,1.52-.07,2.62,2.62,0,0,1,1.21.5,2.49,2.49,0,0,1,.8,1.06,3.14,3.14,0,0,1,.19.6,8.49,8.49,0,0,1,.15,1v.32a4.76,4.76,0,0,1-.55,2.42,4,4,0,0,1-1.82,1.57l2.28,3-1.73.37-2-2.79-1.59.34V56.2Zm1.49-5,1.59-.34a3,3,0,0,0,1.7-.91,2.75,2.75,0,0,0,.57-1.85V48a3.58,3.58,0,0,0-.07-.72q-.32-1.52-2.21-1.12l-1.59.34Z" fill="#fff"/><path d="M144.5,51.56a3.44,3.44,0,0,1-.21-.67,4.82,4.82,0,0,1-.1-1V46.34a5.17,5.17,0,0,1,.86-3,3.76,3.76,0,0,1,2.41-1.58,3.88,3.88,0,0,1,1.49,0,2.8,2.8,0,0,1,1.24.54,2.76,2.76,0,0,1,.84,1.11,3.48,3.48,0,0,1,.21.67,4.67,4.67,0,0,1,.09,1v3.61a5.14,5.14,0,0,1-.86,3,3.74,3.74,0,0,1-2.4,1.57,3.89,3.89,0,0,1-1.5,0,2.7,2.7,0,0,1-2.08-1.66Zm1.2-1.94a4,4,0,0,0,.06.81,1.67,1.67,0,0,0,.53,1,1.74,1.74,0,0,0,1.56.3,2.48,2.48,0,0,0,1.43-.89,2.84,2.84,0,0,0,.58-1.85V45.28a3.92,3.92,0,0,0-.07-.79,1.66,1.66,0,0,0-.53-1,1.73,1.73,0,0,0-1.54-.3,2.46,2.46,0,0,0-1.43.88,2.85,2.85,0,0,0-.58,1.84Z" fill="#fff"/><path d="M153.38,48.19l1.48-.32a3.75,3.75,0,0,0,.07.78,1.57,1.57,0,0,0,.49.92,1.89,1.89,0,0,0,1.58.3l.1,0a2.69,2.69,0,0,0,1.39-.72,2.11,2.11,0,0,0,.58-1.48,1.78,1.78,0,0,0,0-.39,1.14,1.14,0,0,0-.12-.33,1,1,0,0,0-.47-.43,3,3,0,0,0-.7-.21q-.4-.07-.84-.11l-.89-.11a4.3,4.3,0,0,1-.87-.22,2.79,2.79,0,0,1-.75-.41,1.94,1.94,0,0,1-.56-.72,2.86,2.86,0,0,1-.2-.62,4.32,4.32,0,0,1-.07-.5,3.4,3.4,0,0,1,.73-2.48,3.82,3.82,0,0,1,2.27-1.31l.16,0a4.33,4.33,0,0,1,1.5,0,2.66,2.66,0,0,1,1.18.49,2.33,2.33,0,0,1,.78,1,2.89,2.89,0,0,1,.19.58,4.45,4.45,0,0,1,.09,1L159,43.1a3.44,3.44,0,0,0-.07-.75,1.55,1.55,0,0,0-.47-.87,1.7,1.7,0,0,0-1.5-.3h-.06a2.54,2.54,0,0,0-1.38.73,1.76,1.76,0,0,0-.46,1.38,2,2,0,0,0,0,.24,1.27,1.27,0,0,0,.2.48,1.22,1.22,0,0,0,.53.42,4,4,0,0,0,.73.21,5.78,5.78,0,0,0,.86.11,6.7,6.7,0,0,1,.89.11,7.2,7.2,0,0,1,.85.21,2,2,0,0,1,1.23,1.12,2.45,2.45,0,0,1,.13.43,4.3,4.3,0,0,1,.08.68,3.81,3.81,0,0,1-.83,2.53,4.16,4.16,0,0,1-2.51,1.46,3.23,3.23,0,0,1-2.76-.45,2.68,2.68,0,0,1-1-1.65A5.09,5.09,0,0,1,153.38,48.19Z" fill="#fff"/><path d="M161.9,40.39V38.87l6.69-1.42V39l-2.61.55v9.71l-1.5.32V39.83Z" fill="#fff"/><path d="M170.64,48.24V37l6-1.27v1.52l-4.48,1v3.37l3.26-.69v1.38l-3.27.7v3.44l4.48-1V47Z" fill="#fff"/><path d="M178.65,44.3a3.41,3.41,0,0,1-.21-.67,4.83,4.83,0,0,1-.1-1V39.08a5.16,5.16,0,0,1,.86-3,3.76,3.76,0,0,1,2.41-1.58,3.9,3.9,0,0,1,1.49,0,2.82,2.82,0,0,1,1.24.54,2.76,2.76,0,0,1,.84,1.12,3.45,3.45,0,0,1,.21.67,4.68,4.68,0,0,1,.09,1v3.61a5.15,5.15,0,0,1-.86,3,3.74,3.74,0,0,1-2.4,1.57,3.9,3.9,0,0,1-1.5,0,2.71,2.71,0,0,1-2.08-1.66Zm1.2-1.94a4,4,0,0,0,.06.81,1.67,1.67,0,0,0,.53,1,1.75,1.75,0,0,0,1.56.3,2.48,2.48,0,0,0,1.43-.89,2.84,2.84,0,0,0,.58-1.85V38a3.87,3.87,0,0,0-.08-.79,1.66,1.66,0,0,0-.53-1,1.73,1.73,0,0,0-1.55-.3,2.47,2.47,0,0,0-1.43.88,2.85,2.85,0,0,0-.58,1.84Z" fill="#fff"/><path d="M188,44.56V33.33l2.93-.62a4.18,4.18,0,0,1,1.5-.06,2.87,2.87,0,0,1,1.25.5,2.58,2.58,0,0,1,.85,1.06,3.1,3.1,0,0,1,.22.68,4.74,4.74,0,0,1,.1,1v.43a5,5,0,0,1-.92,3.08,4.11,4.11,0,0,1-2.52,1.55l-1.89.4v2.94Zm1.49-4.77,1.58-.34a2.88,2.88,0,0,0,1.65-1,2.85,2.85,0,0,0,.62-1.94v-.41a3.73,3.73,0,0,0-.07-.77q-.34-1.58-2.21-1.18l-1.59.34Z" fill="#fff"/><path d="M197,40.4a3.44,3.44,0,0,1-.21-.67,4.75,4.75,0,0,1-.1-1V35.18a5.17,5.17,0,0,1,.86-3A3.76,3.76,0,0,1,200,30.59a3.86,3.86,0,0,1,1.49,0,2.8,2.8,0,0,1,1.24.54,2.75,2.75,0,0,1,.84,1.11,3.49,3.49,0,0,1,.21.67,4.67,4.67,0,0,1,.09,1v3.61a5.15,5.15,0,0,1-.86,3,3.74,3.74,0,0,1-2.4,1.57,3.9,3.9,0,0,1-1.5,0A2.7,2.7,0,0,1,197,40.4Zm1.2-1.94a4,4,0,0,0,.06.81,1.67,1.67,0,0,0,.53,1,1.75,1.75,0,0,0,1.56.3,2.48,2.48,0,0,0,1.43-.89,2.84,2.84,0,0,0,.58-1.85V34.13a3.9,3.9,0,0,0-.08-.79,1.65,1.65,0,0,0-.53-1,1.73,1.73,0,0,0-1.54-.3,2.46,2.46,0,0,0-1.43.88,2.84,2.84,0,0,0-.58,1.84Z" fill="#fff"/><path d="M206.3,40.66V29.43l3-.64a4.24,4.24,0,0,1,1.52-.07,2.63,2.63,0,0,1,1.21.5,2.49,2.49,0,0,1,.8,1.06,3.14,3.14,0,0,1,.19.6,8.49,8.49,0,0,1,.15,1v.32a4.76,4.76,0,0,1-.55,2.42,4,4,0,0,1-1.82,1.56l2.28,3-1.73.37-2-2.79-1.59.34v3.21Zm1.49-5,1.59-.34a3,3,0,0,0,1.7-.91,2.75,2.75,0,0,0,.57-1.85v-.38a3.58,3.58,0,0,0-.07-.72q-.32-1.52-2.21-1.12l-1.59.34Z" fill="#fff"/><path d="M215.32,36.51a3.47,3.47,0,0,1-.21-.67,4.75,4.75,0,0,1-.1-1V31.29a5.17,5.17,0,0,1,.86-3,3.76,3.76,0,0,1,2.41-1.58,3.88,3.88,0,0,1,1.49,0,2.8,2.8,0,0,1,1.24.54,2.76,2.76,0,0,1,.84,1.11,3.51,3.51,0,0,1,.21.67,4.67,4.67,0,0,1,.09,1v3.61a5.16,5.16,0,0,1-.86,3,3.75,3.75,0,0,1-2.4,1.57,3.89,3.89,0,0,1-1.5,0,2.7,2.7,0,0,1-2.08-1.66Zm1.2-1.94a4,4,0,0,0,.06.81,1.67,1.67,0,0,0,.53,1,1.75,1.75,0,0,0,1.56.3,2.48,2.48,0,0,0,1.43-.89,2.84,2.84,0,0,0,.58-1.85V30.23a3.91,3.91,0,0,0-.08-.79,1.65,1.65,0,0,0-.53-1,1.73,1.73,0,0,0-1.54-.3,2.46,2.46,0,0,0-1.43.88,2.84,2.84,0,0,0-.58,1.84Z" fill="#fff"/><path d="M223.64,27.26V25.75l6.69-1.42v1.52l-2.61.55V36.1l-1.49.32V26.71Z" fill="#fff"/><path d="M232.38,35.11V23.89l1.5-.32V34.8Z" fill="#fff"/><path d="M236.6,32a3.45,3.45,0,0,1-.21-.66,4.79,4.79,0,0,1-.09-1V26.73a5,5,0,0,1,.84-3,3.81,3.81,0,0,1,2.44-1.54,3.13,3.13,0,0,1,2.78.56,3,3,0,0,1,1,1.71,4.58,4.58,0,0,1,.09,1l-1.49.32a3.06,3.06,0,0,0-.06-.66c0-.1,0-.19-.08-.29a2.22,2.22,0,0,0-.38-.73,1.27,1.27,0,0,0-.66-.42,2,2,0,0,0-1,0,2.52,2.52,0,0,0-1.44.86,2.74,2.74,0,0,0-.58,1.82V30a4,4,0,0,0,.06.82,1.69,1.69,0,0,0,.54,1,1.74,1.74,0,0,0,1.56.3,2.36,2.36,0,0,0,1-.45,2.17,2.17,0,0,0,.63-.79,4.2,4.2,0,0,0,.31-.92,4.75,4.75,0,0,0,.1-1l1.49-.32a6.1,6.1,0,0,1-.84,3.26,3.66,3.66,0,0,1-2.46,1.67,3.81,3.81,0,0,1-1.5,0,2.79,2.79,0,0,1-1.24-.55A2.84,2.84,0,0,1,236.6,32Z" fill="#fff"/><path d="M249.56,31.46V20.24L255.3,19v1.52l-4.25.9v3.37l3-.64v1.38l-3,.64v5Z" fill="#fff"/><path d="M257.51,29.77V18.55l3-.64a4.21,4.21,0,0,1,1.52-.07,2.62,2.62,0,0,1,1.21.5,2.5,2.5,0,0,1,.8,1.06,3.15,3.15,0,0,1,.19.6,8.59,8.59,0,0,1,.15,1v.32a4.78,4.78,0,0,1-.55,2.42A4,4,0,0,1,262,25.31l2.28,3-1.73.37-2-2.79-1.59.34v3.21Zm1.49-5,1.59-.34a3,3,0,0,0,1.7-.91,2.75,2.75,0,0,0,.57-1.85v-.38a3.57,3.57,0,0,0-.07-.72q-.32-1.52-2.21-1.12l-1.59.34Z" fill="#fff"/><path d="M265.59,28.05l3.48-12,1.66-.35,3.43,10.5-1.53.32-.72-2.38-4,.85-.73,2.69Zm2.69-4.46,3.25-.69-1.61-5.28Z" fill="#fff"/><path d="M275.61,23.68a3.38,3.38,0,0,1-.21-.66,4.69,4.69,0,0,1-.09-1V18.44a5,5,0,0,1,.84-3,3.81,3.81,0,0,1,2.44-1.54,3.13,3.13,0,0,1,2.78.56,3,3,0,0,1,1,1.71,4.58,4.58,0,0,1,.09,1l-1.49.32a3.1,3.1,0,0,0-.06-.66,2.65,2.65,0,0,0-.08-.29,2.23,2.23,0,0,0-.38-.73,1.28,1.28,0,0,0-.66-.42,2,2,0,0,0-1,0,2.52,2.52,0,0,0-1.44.86,2.75,2.75,0,0,0-.58,1.82v3.68a4.05,4.05,0,0,0,.06.82,1.69,1.69,0,0,0,.54,1,1.74,1.74,0,0,0,1.56.3,2.36,2.36,0,0,0,1-.45,2.17,2.17,0,0,0,.63-.79,4.15,4.15,0,0,0,.31-.92,4.72,4.72,0,0,0,.1-1l1.49-.32a6.1,6.1,0,0,1-.84,3.26,3.66,3.66,0,0,1-2.46,1.67,3.8,3.8,0,0,1-1.5,0,2.79,2.79,0,0,1-1.24-.55A2.85,2.85,0,0,1,275.61,23.68Z" fill="#fff"/><path d="M283.74,14.49V13l6.69-1.42v1.52l-2.61.56v9.71l-1.5.32V13.94Z" fill="#fff"/><path d="M292.63,20.13a2.74,2.74,0,0,1-.23-.67,3.26,3.26,0,0,1-.07-.75V11.14l1.5-.32v7.5a3.71,3.71,0,0,0,.07.63,3.25,3.25,0,0,0,.12.4,1.46,1.46,0,0,0,.49.63,1.63,1.63,0,0,0,.69.28,2.18,2.18,0,0,0,.79,0,2.43,2.43,0,0,0,1.46-.91,2.9,2.9,0,0,0,.57-1.83V9.94l1.5-.32v7.49a5.08,5.08,0,0,1-.86,3,4,4,0,0,1-3.92,1.61,2.91,2.91,0,0,1-1.25-.53A3,3,0,0,1,292.63,20.13Z" fill="#fff"/><path d="M302.08,20.3V9.07l3-.64a4.21,4.21,0,0,1,1.52-.07,2.62,2.62,0,0,1,1.21.5,2.49,2.49,0,0,1,.8,1.06,3.15,3.15,0,0,1,.19.6,8.56,8.56,0,0,1,.15,1v.32a4.78,4.78,0,0,1-.55,2.42,4,4,0,0,1-1.82,1.57l2.28,3-1.73.37-2-2.79-1.59.34V20Zm1.49-5,1.59-.34a3,3,0,0,0,1.7-.91,2.75,2.75,0,0,0,.57-1.85v-.38a3.58,3.58,0,0,0-.07-.72q-.32-1.52-2.21-1.12l-1.59.34Z" fill="#fff"/><path d="M311.12,18.38V7.15l6-1.27V7.4l-4.48,1v3.37l3.26-.69v1.38l-3.27.7v3.44l4.48-1v1.51Z" fill="#fff"/><path d="M319.06,11.62l0-5a1.56,1.56,0,0,1-.76.33V6.11a1.26,1.26,0,0,0,.62-.26.69.69,0,0,0,.14-.51l.77-.17v6.26Z" fill="#fff"/><rect x="-0.41" y="59.97" width="325.39" height="0.68" transform="translate(-8.99 35.03) rotate(-11.99)" fill="#fff"/></g><g id="ac87746c-ddfc-463a-9a5d-bad44dddc2cc" class="mid-section"><path d="M141,183.38l-3.62-58.45,15-3.18q7.14-1.52,11.69,2.24T169,136.18l.48,7.74q.7,11.31-7.06,16.9l9.1,16-10.32,2.19-7.33-14-4.53,1,1,15.34Zm7.85-26.68,4.37-.93a11.28,11.28,0,0,0,2.83-1,8.1,8.1,0,0,0,2.26-1.77,7,7,0,0,0,1.53-3,14.49,14.49,0,0,0,.32-4.44l-.47-7.5q-.51-8.27-8-6.68l-4.37.93Z" fill="#fff"/><path d="M172.33,160.51l9.38-2q.24,3.93,2.25,5.37a6.08,6.08,0,0,0,5,.8,7.55,7.55,0,0,0,4.43-2.6,6.71,6.71,0,0,0,1.47-4.84,6.87,6.87,0,0,0-1.45-3.77,13.28,13.28,0,0,0-3.35-3.08q-2-1.33-4.46-2.64t-4.88-2.8a37.7,37.7,0,0,1-4.51-3.18,14.29,14.29,0,0,1-3.42-4.17,12.74,12.74,0,0,1-1.55-5.43,16.85,16.85,0,0,1,3.48-11.83,18,18,0,0,1,10.85-6.47q6.75-1.43,11.28,2.09t5,11l-9.26,2q-.23-3.68-2-5.13a5.13,5.13,0,0,0-4.53-.86,7,7,0,0,0-4.13,2.37,6.08,6.08,0,0,0-1.34,4.41,6.8,6.8,0,0,0,1.45,3.81,12.51,12.51,0,0,0,3.32,3q2,1.26,4.41,2.47t4.83,2.64a34.2,34.2,0,0,1,4.47,3.11,14.07,14.07,0,0,1,3.4,4.22,13.62,13.62,0,0,1,1.57,5.7,18.51,18.51,0,0,1-3.38,12.53,17.81,17.81,0,0,1-11.13,6.75q-7.18,1.53-12-2.05T172.33,160.51Z" fill="#fff"/><path d="M203.3,120.38l-.58-9.35,28.61-6.08.58,9.35-9.65,2.05,3,49.1-9.38,2-3-49.1Z" fill="#fff"/><path d="M77.74,196.73l-3.62-58.37L99.43,133l.58,9.35-15.93,3.39,1,15.34,11.65-2.48.53,8.54L85.56,169.6l1.56,25.14Z" fill="#fff"/><path d="M146.15,267.24l-3.62-58.45,15-3.18q7.14-1.52,11.69,2.24T174.23,220l.48,7.74q.7,11.31-7.06,16.9l9.1,16.05-10.32,2.19-7.33-14-4.53,1,1,15.34ZM154,240.56l4.37-.93a11.29,11.29,0,0,0,2.83-1,8.11,8.11,0,0,0,2.26-1.78,7,7,0,0,0,1.53-3,14.5,14.5,0,0,0,.32-4.44l-.46-7.5q-.51-8.27-8-6.68l-4.37.93Z" fill="#ff8300"/><path d="M181.18,259.79l-3.62-58.45,26.33-5.6.58,9.35-17,3.6,1,15.34,12.64-2.69.53,8.54L189,232.58l1,15.87,17-3.6.58,9.35Z" fill="#ff8300"/><path d="M208.59,237.77l9.38-2q.24,3.93,2.25,5.37a6.08,6.08,0,0,0,5,.8,7.55,7.55,0,0,0,4.43-2.6,6.71,6.71,0,0,0,1.47-4.84,6.87,6.87,0,0,0-1.45-3.77,13.29,13.29,0,0,0-3.35-3.08q-2-1.33-4.46-2.64T217,222.2a37.58,37.58,0,0,1-4.51-3.18,14.31,14.31,0,0,1-3.42-4.17,12.74,12.74,0,0,1-1.55-5.43A16.85,16.85,0,0,1,211,197.58a18,18,0,0,1,10.85-6.47q6.75-1.44,11.28,2.09t5,11l-9.26,2q-.23-3.68-2-5.13a5.13,5.13,0,0,0-4.53-.86,7,7,0,0,0-4.13,2.37,6.07,6.07,0,0,0-1.34,4.41,6.8,6.8,0,0,0,1.45,3.81,12.5,12.5,0,0,0,3.32,3q2,1.26,4.41,2.47t4.83,2.64a34.33,34.33,0,0,1,4.47,3.11,14.07,14.07,0,0,1,3.4,4.22,13.62,13.62,0,0,1,1.57,5.7,18.51,18.51,0,0,1-3.38,12.53,17.81,17.81,0,0,1-11.13,6.75q-7.18,1.53-12-2.05T208.59,237.77Z" fill="#ff8300"/><path d="M245.51,246.12l-3.62-58.45,14.85-3.16q7.09-1.51,11.69,2.24t5.12,12.17l.54,8.63q.52,8.39-3.5,13.88a17.93,17.93,0,0,1-11.18,7L254,229.6l.9,14.53Zm7.9-25.88,4.37-.93a10.8,10.8,0,0,0,2.81-1,8.89,8.89,0,0,0,2.3-1.78,7.07,7.07,0,0,0,1.59-3,12.46,12.46,0,0,0,.38-4.19l-.53-8.47q-.52-8.43-8.12-6.82l-4.37.93Z" fill="#ff8300"/><path d="M279,222.73l-1.62-26.19a19.68,19.68,0,0,1,3.6-13.13,17.64,17.64,0,0,1,11-7.12q7-1.48,11.63,2.3t5.13,11.27l1.62,26.19a19.44,19.44,0,0,1-3.63,13,17.73,17.73,0,0,1-11,7.11q-7,1.48-11.61-2.29T279,222.73Zm9.4-1.67q.23,3.72,2.11,5a5.67,5.67,0,0,0,4.63.74,7.59,7.59,0,0,0,4.4-2.66,8.05,8.05,0,0,0,1.49-5.81l-1.67-27q-.23-3.72-2.11-5a5.72,5.72,0,0,0-4.67-.73,7.54,7.54,0,0,0-4.4,2.64,8.14,8.14,0,0,0-1.45,5.83Z" fill="#ff8300"/><path d="M316.06,231.12l-3.62-58.45,8.83-1.88,15.41,31.75-2.14-34.49,9.58-2,3.62,58.37-8.94,1.9L323.33,195l2.11,34.08Z" fill="#ff8300"/><path d="M353.33,223.2l-3.62-58.45,15.38-3.27q7.13-1.51,11.66,2.26t5.07,12.43l1.39,22.47q.53,8.62-3.42,14.2a17.51,17.51,0,0,1-11.08,7.09Zm8.8-11.34,4.91-1a10.08,10.08,0,0,0,2.9-1,7.59,7.59,0,0,0,3.72-5.46,20.77,20.77,0,0,0,.25-5.28l-1.26-20.38q-.57-9.18-8.06-7.58l-4.91,1Z" fill="#ff8300"/><path d="M389,215.62l-3.62-58.45,26.33-5.6.58,9.35-17,3.6,1,15.34,12.64-2.69.53,8.54-12.63,2.69,1,15.87,17-3.6.58,9.35Z" fill="#ff8300"/><path d="M421,208.83l-3.62-58.45,15-3.18q7.14-1.52,11.69,2.24t5.07,12.19l.48,7.74q.7,11.31-7.06,16.9l9.1,16.05-10.32,2.19-7.33-14-4.53,1,1,15.34Zm7.85-26.68,4.37-.93a11.29,11.29,0,0,0,2.83-1,8.12,8.12,0,0,0,2.26-1.78,7,7,0,0,0,1.53-3,14.49,14.49,0,0,0,.32-4.44l-.46-7.5q-.51-8.27-8-6.68l-4.37.93Z" fill="#ff8300"/><path d="M6.08,131.47l.06-27.11,7.16-1.52a13.52,13.52,0,0,1,3.62-.31,8,8,0,0,1,3,.71,4.57,4.57,0,0,1,2,1.87,5.21,5.21,0,0,1,.6,1.57,7.11,7.11,0,0,1,.15,1.48l0,.39a8.55,8.55,0,0,1-.74,3.7,6.89,6.89,0,0,1-2.57,2.63,3.55,3.55,0,0,1,2.59,1.56,4.75,4.75,0,0,1,.74,1.84,8.53,8.53,0,0,1,.17,1.77l0,.35q0,7.51-7.86,9.18Zm5.07-6.15,3.3-.7A5.05,5.05,0,0,0,17,123.43a3.71,3.71,0,0,0,.9-2.67l0-.43a3.4,3.4,0,0,0-.07-.75,2.07,2.07,0,0,0-.22-.59,1.55,1.55,0,0,0-.84-.73,3.59,3.59,0,0,0-1.13-.21,5.74,5.74,0,0,0-1.31.14l-3.12.66Zm0-10.95,3.44-.73a4.12,4.12,0,0,0,2.16-1.08,3.45,3.45,0,0,0,.78-2.43v-.4a3.2,3.2,0,0,0-.06-.73,1.87,1.87,0,0,0-.21-.56,1.43,1.43,0,0,0-.84-.67,3.87,3.87,0,0,0-1.18-.16,7.4,7.4,0,0,0-1.41.18l-2.63.56Z" fill="#ff8300"/><path d="M26.85,127.05V100l14.57-3.1v5.07l-9.44,2,0,6.19,7-1.49,0,4.61-7,1.49,0,6.15,9.44-2v5.07Z" fill="#ff8300"/><path d="M51.25,121.87,58.9,93.14,64.42,92l7.5,25.5-5.08,1.08-1.36-5-7.58,1.61-1.38,5.59ZM59,110.31l5.37-1.14L61.75,99.11Z" fill="#ff8300"/><path d="M74.42,116.94V89.84l4.81-1,7.6,14.56,0-16.11,5.08-1.08v27l-4.8,1L79.52,99.72l0,16.14Z" fill="#ff8300"/><path d="M105,104.93a8.52,8.52,0,0,1-.52-1.65,13.65,13.65,0,0,1-.27-2.7V92.43a12.33,12.33,0,0,1,2-7.43,10,10,0,0,1,9.55-3.74,6.68,6.68,0,0,1,3,1.42,7.06,7.06,0,0,1,2,2.89,10.75,10.75,0,0,1,.47,1.51,9.93,9.93,0,0,1,.14,2.86v8q0,9.34-7.62,11a9.78,9.78,0,0,1-3.67.13,7,7,0,0,1-3.08-1.32A6.7,6.7,0,0,1,105,104.93Zm4.47-3.15a3.38,3.38,0,0,0,.43,1.13,2.6,2.6,0,0,0,.66.74,2.13,2.13,0,0,0,.85.37,4.06,4.06,0,0,0,.94.08,5.71,5.71,0,0,0,1-.13q3.1-.66,3.15-4.74V90.36a7.24,7.24,0,0,0-.13-1.64,5,5,0,0,0-.17-.6,2.64,2.64,0,0,0-.9-1.32,2.85,2.85,0,0,0-1.29-.54,4.43,4.43,0,0,0-1.52.08q-3.23.69-3.22,4.8l0,8.88A12.06,12.06,0,0,0,109.44,101.79Z" fill="#ff8300"/><path d="M125.1,101.11a7.68,7.68,0,0,1-.57-1.72,10,10,0,0,1-.2-2l5-1.07a6.48,6.48,0,0,0,.12,1.37,2.77,2.77,0,0,0,1,1.69,3.29,3.29,0,0,0,2.83.46,5.12,5.12,0,0,0,2.7-1.37,3.35,3.35,0,0,0,.9-2.59,3,3,0,0,0-.06-.46,2.42,2.42,0,0,0-.39-.84,2.66,2.66,0,0,0-1.09-.8,8.46,8.46,0,0,0-1.57-.46q-.89-.18-1.86-.33t-1.95-.37a8.88,8.88,0,0,1-1.87-.63,7.06,7.06,0,0,1-1.61-1,4.66,4.66,0,0,1-1.19-1.7,6.34,6.34,0,0,1-.4-1.26,9.09,9.09,0,0,1-.17-1.26,8.67,8.67,0,0,1,1.8-6.32A10,10,0,0,1,132.45,77,9.56,9.56,0,0,1,136,76.9,6.77,6.77,0,0,1,139,78.11a6.64,6.64,0,0,1,2.49,4,10.21,10.21,0,0,1,.21,2.11l-5,1.06a6.08,6.08,0,0,0-.12-1.26,2.68,2.68,0,0,0-.9-1.61,3.17,3.17,0,0,0-2.76-.46,4.39,4.39,0,0,0-2.42,1.29,3,3,0,0,0-.74,2.41,3.51,3.51,0,0,0,.06.36,2.22,2.22,0,0,0,.48,1,2.83,2.83,0,0,0,1.14.8,8.58,8.58,0,0,0,1.55.43q.87.17,1.83.29t1.91.31a8.18,8.18,0,0,1,1.82.59,6.53,6.53,0,0,1,1.59,1,5.13,5.13,0,0,1,1.18,1.7,7.19,7.19,0,0,1,.45,1.43c.08.36.14.74.18,1.13a8.49,8.49,0,0,1-1.84,6.48,10.65,10.65,0,0,1-6.23,3.51,9.79,9.79,0,0,1-3.67.13,6.93,6.93,0,0,1-3-1.25A6.73,6.73,0,0,1,125.1,101.11Z" fill="#ff8300"/><path d="M144,80.13V75.07l15.92-3.38v5.07l-5.4,1.15-.06,22L149.31,101l0-22Z" fill="#ff8300"/><path d="M162.58,98.2V71.11L177.14,68v5.07l-9.44,2,0,6.19,7-1.49,0,4.61-7,1.49,0,6.15,9.44-2v5.07Z" fill="#ff8300"/><path d="M180.8,88.81a8.56,8.56,0,0,1-.52-1.65,13.65,13.65,0,0,1-.27-2.7V76.32a12.33,12.33,0,0,1,2-7.43,10,10,0,0,1,9.55-3.74,6.69,6.69,0,0,1,3,1.42,7,7,0,0,1,2,2.89,10.75,10.75,0,0,1,.47,1.51,9.93,9.93,0,0,1,.14,2.86v8q0,9.34-7.62,11a9.78,9.78,0,0,1-3.67.13,7,7,0,0,1-3.08-1.32A6.7,6.7,0,0,1,180.8,88.81Zm4.47-3.15a3.38,3.38,0,0,0,.43,1.13,2.6,2.6,0,0,0,.66.74,2.14,2.14,0,0,0,.85.37,4.06,4.06,0,0,0,.94.08,5.81,5.81,0,0,0,1-.13q3.1-.66,3.15-4.74V74.24a7.23,7.23,0,0,0-.13-1.64A5,5,0,0,0,192,72a2.65,2.65,0,0,0-.9-1.32,2.86,2.86,0,0,0-1.29-.54,4.43,4.43,0,0,0-1.52.08q-3.23.69-3.22,4.8l0,8.88A12.06,12.06,0,0,0,185.27,85.67Z" fill="#ff8300"/><path d="M201.45,89.94V62.84l7.39-1.57a9.91,9.91,0,0,1,3.67-.13,7,7,0,0,1,3.05,1.25A6.63,6.63,0,0,1,217.65,65a7.18,7.18,0,0,1,.52,1.66,12,12,0,0,1,.25,2.39l0,1.1a13,13,0,0,1-2.08,7.69,9.39,9.39,0,0,1-6,3.76l-3.78.8v6.42Zm5.11-12.57,2.53-.54a6.12,6.12,0,0,0,1.61-.58,5.37,5.37,0,0,0,1.35-1,4.47,4.47,0,0,0,1-1.68,7.27,7.27,0,0,0,.35-2.35v-1a8.39,8.39,0,0,0-.16-1.71,3.72,3.72,0,0,0-.44-1.19,2.7,2.7,0,0,0-.65-.73,1.94,1.94,0,0,0-.86-.36,4.72,4.72,0,0,0-1-.07,6.24,6.24,0,0,0-1.06.14l-2.67.57Z" fill="#ff8300"/><path d="M222.35,80a8.59,8.59,0,0,1-.52-1.65,13.64,13.64,0,0,1-.27-2.7V67.49a12.32,12.32,0,0,1,2-7.43,10,10,0,0,1,9.55-3.74,6.67,6.67,0,0,1,3,1.42,7,7,0,0,1,2,2.89,10.7,10.7,0,0,1,.47,1.51,10,10,0,0,1,.14,2.86v8q0,9.34-7.62,11a9.76,9.76,0,0,1-3.67.13,7,7,0,0,1-3.08-1.32A6.7,6.7,0,0,1,222.35,80Zm4.47-3.15a3.37,3.37,0,0,0,.43,1.13,2.59,2.59,0,0,0,.66.74,2.14,2.14,0,0,0,.85.37,4.17,4.17,0,0,0,.94.08,5.81,5.81,0,0,0,1-.13q3.1-.66,3.15-4.74V65.41a7.24,7.24,0,0,0-.13-1.64,5,5,0,0,0-.17-.6,2.64,2.64,0,0,0-.9-1.32,2.86,2.86,0,0,0-1.29-.54,4.4,4.4,0,0,0-1.52.08q-3.23.69-3.22,4.79l0,8.88A12.06,12.06,0,0,0,226.82,76.84Z" fill="#ff8300"/><path d="M243,81.11V54l7.52-1.6a9.72,9.72,0,0,1,3.65-.13,6.8,6.8,0,0,1,3,1.25,6.29,6.29,0,0,1,2,2.63,7.91,7.91,0,0,1,.51,1.6,12.18,12.18,0,0,1,.25,2.44l0,.78a13.65,13.65,0,0,1-1,5.67,7.21,7.21,0,0,1-3.27,3.57l4.22,7.33-5.08,1.08L251,72.41,248.1,73l0,7ZM248.12,68l2.53-.54a6.24,6.24,0,0,0,1.6-.57,5.46,5.46,0,0,0,1.35-1,4.17,4.17,0,0,0,1-1.63,6.89,6.89,0,0,0,.33-2.27l0-.77a6.26,6.26,0,0,0-.11-1.48,1.48,1.48,0,0,0-.1-.39,4,4,0,0,0-.58-1.21,1.93,1.93,0,0,0-.88-.66,3.12,3.12,0,0,0-1.12-.2,6.51,6.51,0,0,0-1.31.16l-2.67.57Z" fill="#ff8300"/><path d="M263.9,71.15a8.6,8.6,0,0,1-.52-1.65,13.6,13.6,0,0,1-.27-2.7V58.65a12.32,12.32,0,0,1,2-7.43,10,10,0,0,1,9.55-3.74,6.69,6.69,0,0,1,3,1.42,7,7,0,0,1,2,2.89,10.65,10.65,0,0,1,.47,1.51,9.94,9.94,0,0,1,.14,2.86v8q0,9.34-7.62,11a9.78,9.78,0,0,1-3.67.13A7,7,0,0,1,266,74,6.71,6.71,0,0,1,263.9,71.15ZM268.37,68a3.37,3.37,0,0,0,.43,1.13,2.6,2.6,0,0,0,.66.74,2.14,2.14,0,0,0,.85.37,4.07,4.07,0,0,0,.94.08,5.8,5.8,0,0,0,1-.13q3.1-.66,3.15-4.74V56.58a7.26,7.26,0,0,0-.13-1.64,4.85,4.85,0,0,0-.17-.6,2.65,2.65,0,0,0-.9-1.32,2.85,2.85,0,0,0-1.29-.54,4.4,4.4,0,0,0-1.52.08q-3.23.69-3.22,4.8l0,8.88A12,12,0,0,0,268.37,68Z" fill="#ff8300"/><path d="M284,67.33a7.68,7.68,0,0,1-.57-1.72,10,10,0,0,1-.2-2l5-1.07a6.52,6.52,0,0,0,.12,1.37,2.77,2.77,0,0,0,1,1.69,3.29,3.29,0,0,0,2.83.46,5.12,5.12,0,0,0,2.7-1.37,3.35,3.35,0,0,0,.9-2.59,3.06,3.06,0,0,0-.06-.46,2.41,2.41,0,0,0-.39-.84,2.65,2.65,0,0,0-1.09-.8,8.32,8.32,0,0,0-1.57-.46q-.89-.18-1.86-.33t-1.95-.37A8.84,8.84,0,0,1,287,58.2a7,7,0,0,1-1.61-1,4.66,4.66,0,0,1-1.19-1.7,6.4,6.4,0,0,1-.4-1.26,9.08,9.08,0,0,1-.17-1.26,8.67,8.67,0,0,1,1.8-6.32,10,10,0,0,1,5.94-3.39,9.52,9.52,0,0,1,3.56-.12,6.77,6.77,0,0,1,2.95,1.21,6.64,6.64,0,0,1,2.49,4,10.18,10.18,0,0,1,.21,2.11l-5,1.06a6.08,6.08,0,0,0-.12-1.26,2.69,2.69,0,0,0-.9-1.61,3.17,3.17,0,0,0-2.76-.46,4.38,4.38,0,0,0-2.42,1.3,3,3,0,0,0-.74,2.41c0,.12,0,.24.06.36a2.23,2.23,0,0,0,.48,1,2.84,2.84,0,0,0,1.14.8,8.58,8.58,0,0,0,1.55.43q.87.17,1.83.29t1.91.31a8.22,8.22,0,0,1,1.82.59,6.54,6.54,0,0,1,1.59,1,5.1,5.1,0,0,1,1.18,1.7,7.17,7.17,0,0,1,.45,1.43c.08.36.14.74.18,1.13A8.49,8.49,0,0,1,299,67.49,10.65,10.65,0,0,1,292.78,71a9.83,9.83,0,0,1-3.67.13,6.92,6.92,0,0,1-3-1.25A6.74,6.74,0,0,1,284,67.33Z" fill="#ff8300"/><path d="M304.7,68l0-27.11,5.08-1.08,0,27.11Z" fill="#ff8300"/><path d="M314.28,60.9a7.7,7.7,0,0,1-.57-1.72,9.93,9.93,0,0,1-.2-2l5-1.07a6.45,6.45,0,0,0,.12,1.37,2.77,2.77,0,0,0,1,1.69,3.29,3.29,0,0,0,2.83.46,5.11,5.11,0,0,0,2.7-1.37,3.35,3.35,0,0,0,.9-2.59,3,3,0,0,0-.06-.46,2.4,2.4,0,0,0-.39-.84,2.65,2.65,0,0,0-1.09-.8,8.35,8.35,0,0,0-1.57-.46q-.89-.18-1.86-.33c-.65-.1-1.3-.22-1.95-.37a8.87,8.87,0,0,1-1.87-.63,7,7,0,0,1-1.61-1,4.67,4.67,0,0,1-1.19-1.7,6.47,6.47,0,0,1-.4-1.26,9.08,9.08,0,0,1-.17-1.26,8.67,8.67,0,0,1,1.81-6.32,10,10,0,0,1,5.94-3.39,9.54,9.54,0,0,1,3.56-.12,6.77,6.77,0,0,1,2.95,1.21,6.63,6.63,0,0,1,2.49,4,10.25,10.25,0,0,1,.21,2.11l-5,1.06a6.09,6.09,0,0,0-.12-1.26,2.68,2.68,0,0,0-.9-1.61,3.17,3.17,0,0,0-2.76-.46,4.39,4.39,0,0,0-2.42,1.29,3,3,0,0,0-.74,2.41,3.34,3.34,0,0,0,.06.36,2.22,2.22,0,0,0,.48,1,2.84,2.84,0,0,0,1.14.8,8.64,8.64,0,0,0,1.55.43q.87.17,1.83.29t1.91.31a8.21,8.21,0,0,1,1.82.59,6.52,6.52,0,0,1,1.59,1,5.11,5.11,0,0,1,1.18,1.7,7.11,7.11,0,0,1,.45,1.43q.11.54.18,1.13a8.5,8.5,0,0,1-1.84,6.48A10.65,10.65,0,0,1,323,64.57a9.81,9.81,0,0,1-3.67.13,6.93,6.93,0,0,1-3-1.25A6.75,6.75,0,0,1,314.28,60.9Z" fill="#ff8300"/><path d="M87.94,118.18v-.09C88.1,119.19,88.29,120.4,87.94,118.18Z" fill="#fff"/><path d="M126.88,138.26c1.13-2.88,3.6-4.8,4.76-7.65,3-7.42-1.89-17.29-9.86-19.18l-.14,0c-4.76-1.15-6,10.36-11.3,6l-.52,4.24-6.23.57,1.48,5.34a7.6,7.6,0,0,1,1.48,1.27c2.21,2.83,1.13,7.59,1.31,10.76.28,5,2.19,6.7,3.43,11.11,2.45,8.76,1.59,36.16,1,49.21-.83,17.58-.05,47.62-8.47,61l-.24.38c-2.56,4.08,1.14,8.37,3,11.74,2.18,3.92,5.46,6.07,10.28,3.56,3.81-2,3.1-5.45,7.93-4.55,3,.56,5.87,4.17,8.6,4.19,5.89,0,5.24-11.29,3.28-14.89-4.25-7.81-8.58-14.29-10.42-23.21-7.31-35.49-2.74-50.77-1.11-83.88C125.39,149.14,125,143.1,126.88,138.26Z" fill="#fff"/><path d="M100.7,125.23l-.31-6.46,7.18.21.12-5.42c-.54-2,0-4.1,0-6.52,0-2.58-.2-4.63-3.64-4.22-2.26-3-12.57-1.07-14.88,1.14-3.3,3.15-1.84,10.17-1.21,14.12-.16-1-.31-2,0,.09.69,4.29,7.33,7.11,7.61,7.23l.25.11.15-.23C96.69,124.16,98.65,124.44,100.7,125.23Z" fill="#fff"/></g></svg>