<?xml version="1.0" standalone="no"?>
<!DOCTYPE svg PUBLIC "-//W3C//DTD SVG 1.1//EN" "http://www.w3.org/Graphics/SVG/1.1/DTD/svg11.dtd" >
<svg xmlns="http://www.w3.org/2000/svg" xmlns:xlink="http://www.w3.org/1999/xlink" version="1.1">
<metadata></metadata>
<defs>
<font id="korolev_condensedmedium" horiz-adv-x="915" >
<font-face units-per-em="2048" ascent="1653" descent="-395" />
<missing-glyph horiz-adv-x="362" />
<glyph unicode="&#xfb01;" horiz-adv-x="880" d="M68 1004v145h100v51q0 185 69.5 274t235.5 89q139 0 213 -70.5t74 -192.5h-162q0 111 -127 111q-82 0 -110.5 -40t-28.5 -128v-94h149v-145h-149v-1004h-164v1004h-100zM598 0v1149h162v-1149h-162z" />
<glyph unicode="&#xfb02;" horiz-adv-x="880" d="M68 1004v145h100v51q0 183 70.5 273t228.5 90q148 0 220.5 -85.5t72.5 -228.5v-1249h-164v1180q0 125 -24.5 176t-104.5 51q-76 0 -105.5 -39t-29.5 -125v-94h149v-145h-149v-1004h-164v1004h-100z" />
<glyph horiz-adv-x="0" />
<glyph horiz-adv-x="682" />
<glyph unicode=" "  horiz-adv-x="362" />
<glyph unicode="&#x09;" horiz-adv-x="362" />
<glyph unicode="&#xa0;" horiz-adv-x="362" />
<glyph unicode="!" horiz-adv-x="397" d="M96 92q0 43 30 74t71 31q44 0 75 -31t31 -74t-31 -73.5t-75 -30.5q-41 0 -71 30.5t-30 73.5zM98 1350q0 106 99 106q100 0 100 -106q0 -71 -19 -331.5t-38 -484.5l-19 -225h-47q-76 879 -76 1041z" />
<glyph unicode="&#x22;" horiz-adv-x="641" d="M84 1444h176q-2 -37 -12 -279.5t-12 -279.5h-130zM381 1444h174q-2 -37 -12.5 -279.5t-12.5 -279.5h-127z" />
<glyph unicode="#" horiz-adv-x="1085" d="M104 504v151h170l31 148h-201v153h236l125 596h158l-123 -596h151l123 596h160l-123 -596h133v-153h-168l-33 -148h201v-151h-235l-123 -598h-158l123 598h-154l-121 -598h-161l125 598h-136zM432 655h152l32 148h-151z" />
<glyph unicode="$" horiz-adv-x="913" d="M66 393h170q0 -125 61 -186.5t164 -61.5q96 0 154.5 53t58.5 154q0 67 -32.5 124.5t-84.5 99.5t-115 82.5t-126 84.5t-115 93.5t-84.5 120.5t-32.5 157q0 126 63.5 215t182.5 119v127h73v-113q8 0 24.5 1t25.5 1q23 0 55 -4v115h74v-129q117 -36 184.5 -135t67.5 -248 h-170q0 117 -57.5 177t-153.5 60q-92 0 -145.5 -49.5t-53.5 -136.5q0 -63 32.5 -116.5t84.5 -94t115 -79.5t126 -82.5t115 -94.5t84.5 -124.5t32.5 -162.5q0 -145 -69 -239t-193 -125v-131h-74v119q-7 0 -24 -1t-25 -1q-40 0 -56 2v-119h-73v133q-124 35 -194 136t-70 259z " />
<glyph unicode="%" horiz-adv-x="1826" d="M94 1024v68q0 171 87 270.5t243 99.5q154 0 243 -100t89 -270v-68q0 -172 -88.5 -272.5t-243.5 -100.5q-157 0 -243.5 100t-86.5 273zM250 1026q0 -225 174 -225q84 0 130 56t46 169v68q0 108 -46 162.5t-130 54.5q-174 0 -174 -217v-68zM567 -84l508 1636h160 l-510 -1636h-158zM1044 360v68q0 169 88 269t244 100q154 0 244 -100.5t90 -268.5v-68q0 -173 -89.5 -272.5t-244.5 -99.5q-157 0 -244.5 99t-87.5 273zM1200 362q0 -227 176 -227t176 227v68q0 107 -46.5 162t-129.5 55t-129.5 -55t-46.5 -162v-68z" />
<glyph unicode="&#x26;" horiz-adv-x="1093" d="M88 377v45q0 121 52.5 202.5t146.5 110.5q-90 32 -138.5 112.5t-48.5 190.5v54q0 101 43 183.5t132 134.5t210 52q170 0 277.5 -111.5t107.5 -293.5h-172q0 117 -58 179t-153 62q-106 0 -160.5 -56t-54.5 -165v-26q0 -117 53.5 -179.5t149.5 -62.5h119v-152h-123 q-102 0 -156.5 -59t-54.5 -174v-33q0 -117 52.5 -181.5t176.5 -64.5q99 0 165.5 62.5t66.5 185.5v254h291v-158h-121l-6 -149q-18 -173 -126 -266.5t-272 -93.5q-98 0 -176.5 34.5t-126 91.5t-72 126.5t-24.5 144.5z" />
<glyph unicode="'" horiz-adv-x="342" d="M84 1444h174q-5 -193 -25 -559h-129z" />
<glyph unicode="(" horiz-adv-x="536" d="M100 291v874q0 105 15.5 174t55 118.5t108 71t174.5 21.5v-149q-116 0 -152.5 -45t-36.5 -158v-938q0 -59 6 -94t26 -62t57.5 -38t99.5 -11v-149q-106 0 -174.5 21.5t-108 71t-55 118.5t-15.5 174z" />
<glyph unicode=")" horiz-adv-x="536" d="M84 55q62 0 99.5 11t57 38t25.5 61.5t6 94.5v938q0 58 -6.5 92t-26 61.5t-57 38.5t-98.5 11v149q106 0 174.5 -21.5t107.5 -71t54.5 -118.5t15.5 -174v-874q0 -105 -15.5 -174t-54.5 -118.5t-107.5 -71t-174.5 -21.5v149z" />
<glyph unicode="*" horiz-adv-x="894" d="M119 993l213 117q-28 15 -100.5 55t-112.5 60l61 104l211 -125l-4 244h121l-6 -242l209 121l63 -102q-19 -10 -95.5 -51.5t-119.5 -63.5l215 -117l-63 -102l-209 123l6 -238h-121l4 238l-211 -123z" />
<glyph unicode="+" horiz-adv-x="864" d="M100 653v152h256v264h150v-264h256v-152h-256v-266h-150v266h-256z" />
<glyph unicode="," horiz-adv-x="434" d="M16 -211l172 543h179l-220 -543h-131z" />
<glyph unicode="-" horiz-adv-x="608" d="M84 557v133h436v-133h-436z" />
<glyph unicode="." horiz-adv-x="372" d="M84 92q0 43 29 74t73 31q43 0 74 -31t31 -74t-31 -73.5t-74 -30.5q-44 0 -73 30.5t-29 73.5z" />
<glyph unicode="/" horiz-adv-x="581" d="M35 -94l344 1646h168l-346 -1646h-166z" />
<glyph unicode="0" horiz-adv-x="983" d="M100 393v660q0 181 109.5 295t282.5 114q171 0 281 -114t110 -295v-660q0 -181 -110 -295t-281 -114q-173 0 -282.5 114t-109.5 295zM272 410q0 -130 60 -194t160 -64q98 0 157.5 64.5t59.5 193.5v626q0 129 -59.5 193.5t-157.5 64.5q-100 0 -160 -64t-60 -194v-626z" />
<glyph unicode="1" horiz-adv-x="512" d="M70 1163v168q90 0 119.5 23.5t29.5 89.5h158v-1444h-170v1190q-45 -27 -119 -27h-18z" />
<glyph unicode="2" horiz-adv-x="952" d="M86 0v106q0 112 33 207.5t85.5 163t116 127t127 111.5t116 104t85.5 118t33 140q0 108 -57.5 164.5t-157.5 56.5q-97 0 -155 -63.5t-58 -167.5h-168q0 181 103.5 289t277.5 108q177 0 278 -107t101 -288q0 -89 -32.5 -168.5t-84.5 -139.5t-115 -116t-126 -108.5 t-115 -106.5t-84.5 -121t-32.5 -141h575v-168h-745z" />
<glyph unicode="3" horiz-adv-x="958" d="M78 397h174q0 -105 56.5 -176t170.5 -71q219 0 219 241v33q0 114 -55 173.5t-156 59.5h-151v152h147q95 0 149 62.5t54 179.5v26q0 108 -55 164.5t-160 56.5q-111 0 -165 -58t-54 -183h-166q0 191 102 298t287 107q177 0 280 -107.5t103 -262.5v-54q0 -110 -49 -190.5 t-137 -112.5q93 -30 145.5 -111.5t52.5 -201.5v-45q0 -75 -25 -144.5t-72 -126t-123 -90.5t-171 -34q-186 0 -293.5 111t-107.5 304z" />
<glyph unicode="4" horiz-adv-x="997" d="M68 362v160l536 922h162v-922h147v-160h-147v-362h-168v362h-530zM236 524l362 -2v627z" />
<glyph unicode="5" horiz-adv-x="970" d="M88 391h170q0 -125 58.5 -184.5t158.5 -59.5q223 0 223 295v131q0 123 -55.5 195t-165.5 72q-149 0 -205 -138l-161 29l106 713h590v-168h-453l-57 -383q28 37 88.5 67.5t138.5 30.5q165 0 254.5 -107t89.5 -309v-122q0 -218 -99 -344.5t-292 -126.5q-172 0 -280.5 113.5 t-108.5 295.5z" />
<glyph unicode="6" horiz-adv-x="954" d="M90 442v80q0 138 19 238t63 192l236 492h186l-225 -461q71 27 149 27q95 0 164 -33t108 -93t57.5 -135.5t18.5 -170.5v-140q0 -210 -99.5 -333t-289.5 -123q-197 0 -292 122t-95 338zM260 481q0 -185 48 -258t169 -73q118 0 167.5 74t49.5 257v74q0 165 -50 237t-167 72 q-121 0 -169 -73t-48 -236v-74z" />
<glyph unicode="7" horiz-adv-x="839" d="M86 1276v168h700l-397 -1444h-172l354 1276h-485z" />
<glyph unicode="8" horiz-adv-x="970" d="M86 377v45q0 121 52.5 202.5t146.5 110.5q-90 32 -138.5 112.5t-48.5 190.5v54q0 76 24 141.5t70.5 117t123 81.5t173.5 30q183 0 283 -106.5t100 -263.5v-54q0 -110 -49 -190.5t-137 -112.5q93 -30 146 -111.5t53 -201.5v-45q0 -76 -23 -144.5t-68.5 -125.5t-123 -91 t-176.5 -34h-1h-1h-1h-1h-2h-1h-1h-9q-101 0 -179 34t-122.5 91t-67 125.5t-22.5 144.5zM258 397q0 -114 53 -180.5t166 -66.5h17q113 0 165 66.5t52 180.5v27q0 114 -54 173.5t-155 59.5h-33q-102 0 -156.5 -59t-54.5 -174v-27zM270 1051q0 -117 53.5 -179.5t149.5 -62.5 h25q95 0 148.5 62.5t53.5 179.5v26q0 108 -55 164.5t-160 56.5q-106 0 -160.5 -56t-54.5 -165v-26z" />
<glyph unicode="9" horiz-adv-x="954" d="M90 866v140q0 210 97.5 333t289.5 123q194 0 291.5 -124.5t97.5 -336.5v-86q0 -129 -20 -228.5t-66 -194.5l-235 -492h-187q152 305 226 459q-79 -27 -148 -27q-92 0 -160 32t-108 91.5t-59 136.5t-19 174zM260 887q0 -156 54 -231.5t163 -75.5q113 0 165 77t52 230v114 q0 156 -53.5 223.5t-163.5 67.5q-109 0 -163 -68t-54 -223v-114z" />
<glyph unicode=":" horiz-adv-x="372" d="M84 92q0 43 29 74t73 31q43 0 74 -31t31 -74t-31 -73.5t-74 -30.5q-44 0 -73 30.5t-29 73.5zM84 1055q0 43 29 73.5t73 30.5q43 0 74 -30.5t31 -73.5t-31 -74t-74 -31q-44 0 -73 31t-29 74z" />
<glyph unicode=";" horiz-adv-x="450" d="M16 -211l172 543h179l-220 -543h-131zM145 1055q0 43 31 73.5t74 30.5q41 0 71.5 -30.5t30.5 -73.5t-30.5 -74t-71.5 -31q-43 0 -74 31t-31 74z" />
<glyph unicode="&#x3c;" horiz-adv-x="794" d="M100 590v145l594 291v-162l-438 -202l438 -201v-162z" />
<glyph unicode="=" horiz-adv-x="815" d="M100 506v151h611v-151h-611zM100 795v153h611v-153h-611z" />
<glyph unicode="&#x3e;" horiz-adv-x="794" d="M100 299v162l430 201l-430 202v162l594 -289v-145q-118 -57 -339.5 -167t-254.5 -126z" />
<glyph unicode="?" horiz-adv-x="884" d="M51 1067q0 188 102.5 292.5t282.5 104.5q160 0 264.5 -96t104.5 -246q0 -78 -21.5 -144t-55.5 -113t-75 -90t-82.5 -85.5t-75.5 -88.5t-55.5 -109t-21.5 -138q0 -29 2 -45h-51q-25 98 -25 168q0 63 16.5 119t42.5 97.5t57.5 80t63.5 74.5t58 73t42.5 83t16.5 96 q0 91 -57.5 144.5t-147.5 53.5q-104 0 -160.5 -57.5t-56.5 -173.5h-168zM293 92q0 43 30 74t72 31q44 0 74.5 -31t30.5 -74t-30.5 -72.5t-74.5 -29.5q-43 0 -72.5 29.5t-29.5 72.5z" />
<glyph unicode="@" horiz-adv-x="1105" d="M117 459v508q0 250 107.5 371.5t332.5 121.5q221 0 325.5 -121t104.5 -372v-463q0 -84 -18 -141.5t-40.5 -87t-70 -44t-79 -16.5t-95.5 -2h-3.5h-3h-3.5v78q-16 -34 -57 -60t-103 -26q-60 0 -101.5 20.5t-63 59t-30 83.5t-8.5 105v457q0 56 3.5 96t15.5 81.5t33.5 67 t59.5 42t91 16.5q62 0 102.5 -27t57.5 -61v80h114v-938q63 2 95 32t32 109v539q0 217 -85.5 319.5t-272.5 102.5q-190 0 -279.5 -103t-89.5 -319v-508q0 -219 93 -310.5t315 -91.5h303v-71h-303q-257 0 -368 110t-111 363zM434 473q0 -29 1.5 -49t8.5 -45t19 -40t34.5 -25.5 t53.5 -10.5q73 0 96 56.5t23 187.5v295q0 51 -1.5 84.5t-8 76t-18.5 67.5t-35 42.5t-56 17.5q-117 0 -117 -163v-494z" />
<glyph unicode="A" horiz-adv-x="972" d="M23 0l372 1444h189l366 -1444h-176l-78 324h-417l-80 -324h-176zM313 475h351l-172 725z" />
<glyph unicode="B" horiz-adv-x="960" d="M133 0v1444h350q179 0 281 -81t102 -247v-117q0 -207 -157 -268q83 -31 125.5 -94.5t42.5 -173.5v-133q0 -167 -101.5 -248.5t-279.5 -81.5h-363zM303 166h186q108 0 163 43.5t55 155.5v108q0 102 -52.5 145.5t-148.5 43.5h-203v-496zM303 801h207q94 0 140 43.5 t46 148.5v88q0 110 -54.5 152.5t-164.5 42.5h-174v-475z" />
<glyph unicode="C" horiz-adv-x="966" d="M100 393v658q0 182 109.5 296.5t282.5 114.5q171 0 281 -115t110 -296v-58h-174v66q0 114 -61 174.5t-156 60.5t-157.5 -59.5t-62.5 -175.5v-672q0 -114 61.5 -174.5t158.5 -60.5q92 0 154.5 59.5t62.5 175.5v78h174v-72q0 -181 -110 -295t-281 -114q-173 0 -282.5 114 t-109.5 295z" />
<glyph unicode="D" horiz-adv-x="1001" d="M133 0v1444h375q202 -3 297.5 -125.5t95.5 -382.5v-442q0 -259 -95 -376.5t-298 -117.5h-375zM305 166h187q91 0 140 30.5t73 113.5t24 239v461q0 79 -17.5 133.5t-51.5 82.5t-74 39t-94 11h-187v-1110z" />
<glyph unicode="E" horiz-adv-x="878" d="M133 0v1444h651v-168h-481v-469h352v-154h-352v-485h481v-168h-651z" />
<glyph unicode="F" horiz-adv-x="827" d="M133 0v1444h627v-168h-457v-469h326v-154h-326v-653h-170z" />
<glyph unicode="G" horiz-adv-x="980" d="M100 393v658q0 182 108 296.5t281 114.5q169 0 279 -112t113 -289h-172q-1 112 -63 172.5t-157 60.5t-157 -59.5t-62 -175.5v-672q0 -114 61 -174.5t158 -60.5q220 0 220 292v86h-220v154h392v-233q0 -213 -100.5 -340t-291.5 -127q-173 0 -281 113.5t-108 295.5z" />
<glyph unicode="H" horiz-adv-x="1021" d="M133 0v1444h172v-637h412v637h172v-1444h-172v653h-412v-653h-172z" />
<glyph unicode="I" horiz-adv-x="440" d="M133 0v1444h170v-1444h-170z" />
<glyph unicode="J" horiz-adv-x="935" d="M68 389v111h172v-115q0 -114 56.5 -174.5t145.5 -60.5q203 0 203 270v1024h172v-983q0 -106 -21.5 -191.5t-65.5 -151t-117.5 -101t-170.5 -35.5q-170 0 -272 112.5t-102 294.5z" />
<glyph unicode="K" horiz-adv-x="929" d="M133 0v1444h172v-631h103l309 631h196l-362 -709q20 -40 156 -315t206 -420h-196l-309 655h-103v-655h-172z" />
<glyph unicode="L" horiz-adv-x="798" d="M133 0v1444h172v-1276h440v-168h-612z" />
<glyph unicode="M" horiz-adv-x="1236" d="M133 0v1444h170l313 -995l318 995h168v-1444h-172v961l-252 -773h-123l-252 768v-956h-170z" />
<glyph unicode="N" horiz-adv-x="1052" d="M133 0v1444h160l452 -1030v1030h173v-1444h-160l-453 1020v-1020h-172z" />
<glyph unicode="O" horiz-adv-x="983" d="M100 393v658q0 182 109.5 296.5t282.5 114.5q171 0 281 -115t110 -296v-658q0 -181 -110 -295t-281 -114q-173 0 -282.5 114t-109.5 295zM272 387q0 -114 61.5 -174.5t158.5 -60.5q92 0 154.5 59.5t62.5 175.5v672q0 114 -61 174.5t-156 60.5t-157.5 -59.5t-62.5 -175.5 v-672z" />
<glyph unicode="P" horiz-adv-x="962" d="M133 0v1444h350q192 0 294 -125.5t102 -357.5v-93q0 -233 -102 -355t-294 -122h-178v-391h-172zM305 557h164q118 0 179 70t61 225v127q0 162 -61 229.5t-179 67.5h-164v-719z" />
<glyph unicode="Q" horiz-adv-x="983" d="M100 528v453q0 220 99 350.5t293 130.5q193 0 292 -131.5t99 -349.5v-522q0 -392 -287 -463l127 -219h-201q-6 12 -44 92t-60 123q-92 14 -155 57.5t-98 115t-50 159t-15 204.5zM272 449q0 -151 54 -224t166 -73q217 0 217 294v551q0 297 -217 297q-220 0 -220 -295v-550 z" />
<glyph unicode="R" horiz-adv-x="962" d="M133 0v1444h356q191 0 290.5 -121.5t99.5 -351.5v-80q0 -185 -61.5 -288t-186.5 -142l248 -461h-195l-215 422h-164v-422h-172zM305 588h164q240 0 240 262v131q0 161 -59 228t-181 67h-164v-688z" />
<glyph unicode="S" horiz-adv-x="913" d="M66 393h170q0 -125 61 -186.5t164 -61.5q96 0 154.5 53t58.5 154q0 67 -32.5 124.5t-84.5 99.5t-115 82.5t-126 84.5t-115 93.5t-84.5 120.5t-32.5 157q0 157 97 253.5t272 96.5q172 0 276.5 -106t104.5 -295h-170q0 117 -57.5 177t-153.5 60q-92 0 -145.5 -49.5 t-53.5 -136.5q0 -63 32.5 -116.5t84.5 -94t115 -79.5t126 -82.5t115 -94.5t84.5 -124.5t32.5 -162.5q0 -179 -102 -278.5t-283 -99.5q-180 0 -286.5 107.5t-106.5 303.5z" />
<glyph unicode="T" horiz-adv-x="829" d="M51 1276v168h727v-168h-278v-1276h-174v1276h-275z" />
<glyph unicode="U" horiz-adv-x="1015" d="M117 393v1051h172v-1057q0 -114 61 -174.5t156 -60.5q94 0 156.5 59.5t62.5 175.5v1057h174v-1051q0 -181 -110.5 -295t-282.5 -114t-280.5 114t-108.5 295z" />
<glyph unicode="V" horiz-adv-x="954" d="M35 1444h176l264 -1118l262 1118h176l-352 -1444h-176z" />
<glyph unicode="W" horiz-adv-x="1388" d="M35 1444h172l213 -1063l198 1063h152l199 -1063l211 1063h172l-293 -1444h-168l-195 1047l-196 -1047h-174z" />
<glyph unicode="X" horiz-adv-x="937" d="M33 0l342 739l-326 705h191l229 -529l231 529h189l-328 -705l344 -739h-190l-246 563l-246 -563h-190z" />
<glyph unicode="Y" horiz-adv-x="925" d="M16 1444h183l264 -690l266 690h182l-364 -909v-535h-170v535z" />
<glyph unicode="Z" horiz-adv-x="847" d="M51 0q425 1113 488 1276h-449v168h690l-489 -1276h473v-168h-713z" />
<glyph unicode="[" horiz-adv-x="571" d="M133 -92v1642h354v-149h-190v-1346h190v-147h-354z" />
<glyph unicode="\" horiz-adv-x="581" d="M35 1552h166l346 -1646h-168z" />
<glyph unicode="]" horiz-adv-x="571" d="M84 55h190v1346h-190v149h354v-1642h-354v147z" />
<glyph unicode="^" horiz-adv-x="886" d="M84 745q53 114 154 322.5t129 267.5h149q227 -466 285 -590h-160l-201 441l-196 -441h-160z" />
<glyph unicode="_" horiz-adv-x="925" d="M86 -119h754v-133h-754v133z" />
<glyph unicode="`" horiz-adv-x="862" d="M205 1460h176l121 -266h-133z" />
<glyph unicode="a" d="M96 346v459q0 176 80 267t219 91q93 0 158 -42t90 -91v119h154v-1149h-154v119q-25 -50 -90.5 -92.5t-157.5 -42.5q-141 0 -220 92.5t-79 269.5zM260 356q0 -114 48 -172.5t138 -58.5q89 0 138 59t49 172v445q0 108 -49.5 165.5t-137.5 57.5q-90 0 -138 -58.5t-48 -170.5 v-439z" />
<glyph unicode="b" d="M117 0v1546h164v-508q22 49 82.5 87t154.5 38q143 0 222 -91.5t79 -266.5v-461q0 -176 -79 -268t-222 -92q-178 0 -246 135v-119h-155zM281 354q0 -113 48.5 -172t137.5 -59q90 0 139 59.5t49 171.5v441q0 109 -49 169t-139 60q-86 0 -136 -57.5t-50 -163.5v-449z" />
<glyph unicode="c" horiz-adv-x="878" d="M96 358v435q0 170 92.5 270t257.5 100q167 0 259 -101t92 -280h-164q0 230 -187 230q-88 0 -138 -52t-50 -149v-475q0 -98 50.5 -150.5t137.5 -52.5q91 0 139 58t48 171h164q0 -178 -92 -278t-259 -100q-166 0 -258 99.5t-92 274.5z" />
<glyph unicode="d" d="M94 344v461q0 174 79.5 266t221.5 92q92 0 150.5 -37t83.5 -86v506h168v-1546h-154v119q-76 -135 -248 -135q-142 0 -221.5 92t-79.5 268zM260 354q0 -112 48 -171.5t138 -59.5q89 0 138 59t49 172v447q0 107 -49.5 164t-137.5 57q-90 0 -138 -59t-48 -170v-439z" />
<glyph unicode="e" horiz-adv-x="888" d="M96 362v435q0 169 92.5 268.5t257.5 99.5q163 0 257 -100t94 -268v-277h-539v-153q0 -115 48 -178.5t140 -63.5q83 0 135 47.5t52 124.5v37h164v-19q0 -143 -92.5 -237t-258.5 -94t-258 101.5t-92 276.5zM258 641h375v174q0 97 -51 152t-136 55q-86 0 -137 -53t-51 -150 v-178z" />
<glyph unicode="f" horiz-adv-x="579" d="M68 1004v145h100q0 92 6.5 153.5t23 112.5t46.5 79t76.5 43t113.5 15q23 0 44.5 -1.5t31.5 -2.5l10 -2v-143q-20 4 -43 4q-34 0 -57 -4t-40 -16.5t-25.5 -28t-14 -48t-7 -67.5t-1.5 -94h186v-145h-186v-1004h-164v1004h-100z" />
<glyph unicode="g" d="M96 346v459q0 169 76 261.5t207 92.5q96 0 167.5 -38t96.5 -91v119h154v-1210q0 -180 -77 -267.5t-271 -87.5q-98 0 -167.5 24t-106.5 67t-53 91t-16 107h160q0 -69 45 -113.5t138 -44.5q98 0 141 46.5t43 142.5v215q-26 -52 -86 -93.5t-152 -41.5q-141 0 -220 92.5 t-79 269.5zM260 373q0 -252 186 -252q187 0 187 244v432q0 113 -48.5 170t-138.5 57t-138 -58t-48 -171v-422z" />
<glyph unicode="h" horiz-adv-x="923" d="M117 0v1546h164v-518q26 65 91 100t150 35q150 0 223.5 -101t73.5 -321v-741h-164v723q0 61 -3.5 103t-15 82t-31.5 63t-54.5 37t-83.5 14q-97 0 -141.5 -55.5t-44.5 -173.5v-793h-164z" />
<glyph unicode="i" horiz-adv-x="389" d="M92 1384q0 43 30 73t73 30t73.5 -30t30.5 -73t-30.5 -72.5t-73.5 -29.5t-73 29.5t-30 72.5zM111 0v1149h165v-1149h-165z" />
<glyph unicode="j" horiz-adv-x="395" d="M-37 -260q89 0 121.5 44t32.5 159v1206h166v-1174q0 -203 -71.5 -294t-248.5 -91v150zM98 1384q0 43 29 73t72 30t73.5 -30t30.5 -73t-30.5 -72.5t-73.5 -29.5t-72 29.5t-29 72.5z" />
<glyph unicode="k" horiz-adv-x="868" d="M117 0v1546h166v-895h82l266 498h188l-319 -565l321 -584h-188l-268 512h-82v-512h-166z" />
<glyph unicode="l" horiz-adv-x="399" d="M117 0v1546h166v-1546h-166z" />
<glyph unicode="m" horiz-adv-x="1308" d="M117 0v1149h155v-100q70 114 207 114q77 0 137.5 -37t92.5 -108q28 60 91 102.5t150 42.5q133 0 193.5 -94.5t60.5 -280.5v-788h-164v807q0 107 -30.5 158t-106.5 51q-87 0 -123.5 -50t-36.5 -153v-813h-163v807q0 111 -34 166t-116 55q-70 0 -109.5 -49.5t-39.5 -144.5 v-834h-164z" />
<glyph unicode="n" horiz-adv-x="923" d="M117 0v1149h155v-121q25 51 89 93t157 42q156 0 228.5 -100t72.5 -297v-766h-164v758q0 140 -38 203t-150 63q-95 0 -140.5 -56.5t-45.5 -172.5v-795h-164z" />
<glyph unicode="o" horiz-adv-x="894" d="M96 358v435q0 169 92.5 268.5t257.5 99.5q163 0 257 -100t94 -268v-435q0 -174 -93.5 -274t-257.5 -100q-166 0 -258 99.5t-92 274.5zM258 336q0 -98 50.5 -150.5t137.5 -52.5q84 0 135.5 53t51.5 150v475q0 96 -51 148.5t-136 52.5q-88 0 -138 -52t-50 -149v-475z" />
<glyph unicode="p" horiz-adv-x="923" d="M117 -387v1536h155v-123q25 51 89 93t157 42q146 0 223.5 -98.5t77.5 -294.5v-422q0 -175 -79 -266.5t-222 -91.5q-93 0 -153.5 39.5t-83.5 89.5v-504h-164zM281 356q0 -111 48.5 -169t137.5 -58q90 0 139 58t49 169v435q0 112 -49 171.5t-139 59.5q-86 0 -136 -58.5 t-50 -166.5v-441z" />
<glyph unicode="q" horiz-adv-x="921" d="M100 346v453q0 177 80 269.5t221 92.5q94 0 158.5 -42t89.5 -93v123h154v-1536h-162v502q-28 -49 -88 -88t-152 -39q-141 0 -221 92t-80 266zM266 350q0 -112 49 -169.5t140 -57.5q88 0 137 58t49 169v447q0 109 -50 166t-136 57q-92 0 -140.5 -59t-48.5 -173v-438z" />
<glyph unicode="r" horiz-adv-x="608" d="M117 0v1149h155v-145q21 61 82.5 110t155.5 49l29 -2v-164h-23q-130 0 -182.5 -86t-52.5 -252v-659h-164z" />
<glyph unicode="s" horiz-adv-x="856" d="M74 330h164q0 -96 52 -150.5t142 -54.5q74 0 128 46.5t54 121.5q0 56 -28.5 99t-74 71.5t-100.5 54t-110 55t-100.5 65.5t-74 94t-28.5 132q0 130 87.5 215.5t238.5 85.5q167 0 255.5 -90t88.5 -256h-158q0 100 -48 148.5t-134 48.5q-78 0 -124 -42t-46 -108 q0 -50 28.5 -88.5t74.5 -65t101 -51t110 -55t101 -68t74.5 -98.5t28.5 -139q0 -61 -20 -116t-60 -101t-108 -73t-156 -27q-166 0 -262 93.5t-96 252.5z" />
<glyph unicode="t" horiz-adv-x="589" d="M49 1004v133q82 0 116 45.5t34 169.5h108v-203h209v-145h-209v-553v-17q0 -80 1 -114.5t8 -79.5t22.5 -60.5t43 -28.5t71.5 -14q12 0 35.5 1t31.5 1v-147q-32 -4 -82 -4q-56 0 -100 9.5t-75 26t-53 45t-35 59t-20 76t-9.5 88.5t-2.5 103v609h-94z" />
<glyph unicode="u" horiz-adv-x="909" d="M100 358v791h166v-813q0 -98 51 -150.5t138 -52.5q84 0 135 53t51 150v813h164v-791q0 -174 -93 -274t-257 -100q-167 0 -261 100t-94 274z" />
<glyph unicode="v" horiz-adv-x="866" d="M37 1149h178l219 -893l215 893h178l-309 -1149h-170z" />
<glyph unicode="w" horiz-adv-x="1247" d="M35 1149h170l176 -823l170 823h145l170 -825l176 825h168l-260 -1149h-159l-168 805l-168 -805h-158z" />
<glyph unicode="x" horiz-adv-x="892" d="M41 0l311 592l-291 557h187l196 -401l199 401h186l-294 -557l313 -592h-184l-220 438l-219 -438h-184z" />
<glyph unicode="y" horiz-adv-x="874" d="M37 1149h178l221 -864l223 864h177l-426 -1534h-168l108 395z" />
<glyph unicode="z" horiz-adv-x="788" d="M59 0l428 999h-401v150h633l-426 -999h407v-150h-641z" />
<glyph unicode="{" horiz-adv-x="581" d="M68 657v144q26 0 43.5 7.5t27 18.5t14.5 33t6 41.5t1 54.5v148q0 122 15 202t53 137t103.5 82t166.5 25v-149q-104 0 -139 -55t-35 -181v-16v-79t-2 -74.5t-5.5 -75t-10 -64t-16 -58.5t-25 -41.5t-34.5 -29.5q42 -21 63.5 -70t25.5 -109.5t4 -129t3 -133t17 -117t52 -84 t102 -31.5v-149q-101 0 -166.5 25t-103.5 81.5t-53 136.5t-15 203v152q0 34 -1 52t-5.5 41.5t-14 34.5t-27.5 19t-44 8z" />
<glyph unicode="|" horiz-adv-x="399" d="M117 -94v1646h166v-1646h-166z" />
<glyph unicode="}" horiz-adv-x="581" d="M84 53q63 0 101 31.5t51.5 84t16.5 117t2.5 133t3.5 129t25.5 109.5t63.5 70q-22 11 -38.5 32.5t-26.5 57.5t-16 66.5t-8 84.5t-2.5 84.5t-0.5 91.5v21q0 126 -34.5 181t-137.5 55v149q100 0 165.5 -25t103 -82t52.5 -137t15 -202v-148q0 -35 1 -54.5t6 -41.5t14.5 -33 t27 -18.5t43.5 -7.5v-144q-26 0 -44 -8t-27.5 -19t-14 -34.5t-5.5 -41.5t-1 -52v-152q0 -123 -15 -203t-52.5 -136.5t-103 -81.5t-165.5 -25v149z" />
<glyph unicode="&#xa1;" horiz-adv-x="372" d="M84 1352q0 43 29.5 73.5t70.5 30.5q44 0 75.5 -30.5t31.5 -73.5t-31.5 -74t-75.5 -31q-41 0 -70.5 31t-29.5 74zM86 94q0 72 19 332t38 484l19 225h47q76 -881 76 -1041q0 -106 -101 -106q-98 0 -98 106z" />
<glyph unicode="&#xa2;" horiz-adv-x="880" d="M96 358v435q0 133 57.5 225t165.5 127v137h74v-123q32 4 53 4q18 0 54 -4v123h71v-137q109 -35 167.5 -129.5t58.5 -233.5h-164q0 230 -187 230q-88 0 -138 -52t-50 -149v-475q0 -98 50.5 -150.5t137.5 -52.5q91 0 139 58t48 171h164q0 -139 -59 -233.5t-167 -128.5v-135 h-71v123q-36 -4 -54 -4q-21 0 -53 4v-123h-74v135q-107 34 -165 127t-58 231z" />
<glyph unicode="&#xa3;" horiz-adv-x="968" d="M100 0v168h336q-5 146 -94 328h-236v71h205l-51 109h-154v72h123q-33 76 -48.5 116t-29.5 110t-10 138q9 158 108.5 255t256.5 97q162 0 269.5 -110t107.5 -287h-168q0 111 -56.5 171t-150.5 60q-179 0 -197 -204q-6 -69 18 -164t66 -182h277v-72h-248l49 -109h199v-71 h-168q74 -172 74 -328h280v-168h-758z" />
<glyph unicode="&#xa5;" horiz-adv-x="960" d="M33 1444h182q44 -115 132 -346t132 -346l266 692h181l-363 -903v-121h142v-72h-142v-108h137v-72h-137v-168h-170v168h-139v72h139v108h-139v72h139v121z" />
<glyph unicode="&#xa6;" horiz-adv-x="399" d="M117 -94v733h166v-733h-166zM117 829v723h166v-723h-166z" />
<glyph unicode="&#xa8;" horiz-adv-x="823" d="M190 1274q0 34 24 58t58 24q32 0 56 -24t24 -58q0 -35 -23.5 -59.5t-56.5 -24.5q-34 0 -58 24.5t-24 59.5zM469 1274q0 34 24 58t56 24q35 0 59.5 -24t24.5 -58q0 -35 -24.5 -59.5t-59.5 -24.5q-33 0 -56.5 24.5t-23.5 59.5z" />
<glyph unicode="&#xa9;" horiz-adv-x="1105" d="M121 500v444q0 263 106 390.5t330 127.5q222 0 326 -127.5t104 -390.5v-444q0 -263 -104 -390.5t-326 -127.5q-224 0 -330 127.5t-106 390.5zM193 479q0 -217 87.5 -321.5t276.5 -104.5q185 0 271.5 104.5t86.5 321.5v486q0 217 -86.5 321.5t-271.5 104.5 q-189 0 -276.5 -104.5t-87.5 -321.5v-486zM307 498v440q0 158 60.5 238.5t189.5 80.5q121 0 185.5 -69.5t64.5 -196.5v-94h-125v84q0 162 -125 162q-35 0 -59 -11.5t-36.5 -28.5t-19.5 -48t-8.5 -57.5t-1.5 -69.5v-441q0 -90 28 -134t97 -44t97 37.5t28 116.5v94h125v-104 q0 -122 -66 -193.5t-184 -71.5q-123 0 -186.5 82.5t-63.5 227.5z" />
<glyph unicode="&#xaa;" horiz-adv-x="907" d="M100 750v350q0 171 74.5 262.5t208.5 91.5q96 0 162.5 -39t87.5 -90v119h153v-1041h-153v119q-27 -53 -87 -93t-153 -40q-140 0 -216.5 92.5t-76.5 268.5zM266 741q0 -211 178 -211q85 0 132 53.5t47 157.5v375q0 99 -47.5 151t-131.5 52q-178 0 -178 -211v-367zM340 92 q0 43 30.5 74t73.5 31q44 0 74.5 -31t30.5 -74t-30.5 -72.5t-74.5 -29.5q-43 0 -73.5 29.5t-30.5 72.5z" />
<glyph unicode="&#xab;" horiz-adv-x="825" d="M84 627l217 338h129l-170 -338l170 -340h-129zM393 627l217 338h131l-172 -338l172 -340h-131z" />
<glyph unicode="&#xad;" horiz-adv-x="608" d="M84 557v133h436v-133h-436z" />
<glyph unicode="&#xae;" horiz-adv-x="1105" d="M121 500v444q0 263 106 390.5t330 127.5q222 0 326 -127.5t104 -390.5v-444q0 -263 -104 -390.5t-326 -127.5q-224 0 -330 127.5t-106 390.5zM193 479q0 -217 87.5 -321.5t276.5 -104.5q185 0 271.5 104.5t86.5 321.5v486q0 217 -86.5 321.5t-271.5 104.5 q-189 0 -276.5 -104.5t-87.5 -321.5v-486zM315 221v1022h226q136 0 206 -86t70 -248v-57q0 -131 -44 -204t-132 -101l176 -326h-137l-154 299h-88v-299h-123zM438 637h88q170 0 170 186v92q0 115 -41.5 162t-128.5 47h-88v-487z" />
<glyph unicode="&#xaf;" horiz-adv-x="950" d="M242 1198v123h467v-123h-467z" />
<glyph unicode="&#xb0;" horiz-adv-x="714" d="M100 1182v6q0 126 67 199t189 73q120 0 189 -73.5t69 -198.5v-6q0 -128 -69 -201.5t-189 -73.5q-122 0 -189 72.5t-67 202.5zM225 1169q0 -73 34.5 -110t96.5 -37q63 0 99.5 38.5t36.5 115.5v22q0 72 -37 110t-99 38t-96.5 -39.5t-34.5 -114.5v-23z" />
<glyph unicode="&#xb4;" horiz-adv-x="862" d="M358 1196l119 264h178l-166 -264h-131z" />
<glyph unicode="&#xb6;" horiz-adv-x="591" d="M100 1130v136q0 49 10 82t25.5 52t45.5 29t59.5 12.5t78.5 2.5h156v-1522h-156v1030q-63 0 -100 5.5t-66.5 24t-41 54t-11.5 94.5z" />
<glyph unicode="&#xb7;" horiz-adv-x="372" d="M84 623q0 44 29 75t73 31q43 0 74 -31.5t31 -74.5t-31 -74t-74 -31q-44 0 -73 31t-29 74z" />
<glyph unicode="&#xb8;" horiz-adv-x="884" d="M240 -266q18 32 84.5 156.5t83.5 156.5h104q-21 -85 -94 -313h-178z" />
<glyph unicode="&#xba;" horiz-adv-x="872" d="M92 758v332q0 171 89.5 270.5t254.5 99.5q162 0 251 -99.5t89 -270.5v-332q0 -175 -88.5 -275t-251.5 -100q-165 0 -254.5 100t-89.5 275zM256 735q0 -99 46.5 -151t133.5 -52q83 0 130.5 52.5t47.5 150.5v373q0 97 -47.5 149t-130.5 52q-87 0 -133.5 -51.5t-46.5 -149.5 v-373zM332 92q0 43 30.5 74t73.5 31t73 -31t30 -74t-30 -73.5t-73 -30.5t-73.5 30.5t-30.5 73.5z" />
<glyph unicode="&#xbb;" horiz-adv-x="825" d="M84 287l170 340l-170 338h129l217 -338l-217 -340h-129zM393 287l170 340l-170 338h129l217 -338l-217 -340h-129z" />
<glyph unicode="&#xbf;" horiz-adv-x="884" d="M78 326q0 78 21.5 144t55.5 113t75.5 90t82.5 85.5t75 88.5t55.5 109t21.5 138q0 29 -2 45h49q25 -98 25 -168q0 -73 -22 -137t-54.5 -107.5t-71 -90t-71 -85t-54.5 -92t-22 -111.5q0 -91 56.5 -144.5t147.5 -53.5q104 0 161 57.5t57 173.5h167q0 -188 -102.5 -292.5 t-282.5 -104.5q-160 0 -264 96t-104 246zM383 1356q0 43 30 72.5t74 29.5q42 0 72.5 -30t30.5 -72q0 -43 -31 -74t-72 -31q-44 0 -74 31t-30 74z" />
<glyph unicode="&#xc0;" horiz-adv-x="991" d="M31 0l372 1444h189l366 -1444h-176l-77 324h-418l-80 -324h-176zM276 1835h177l120 -266h-133zM322 475h350l-172 725z" />
<glyph unicode="&#xc1;" horiz-adv-x="991" d="M31 0l372 1444h189l366 -1444h-176l-77 324h-418l-80 -324h-176zM322 475h350l-172 725zM420 1571l119 264h178l-166 -264h-131z" />
<glyph unicode="&#xc2;" horiz-adv-x="991" d="M31 0l372 1444h189l366 -1444h-176l-77 324h-418l-80 -324h-176zM219 1542l199 260h157l199 -260h-137l-139 154l-144 -154h-135zM322 475h350l-172 725z" />
<glyph unicode="&#xc3;" horiz-adv-x="991" d="M31 0l372 1444h189l366 -1444h-176l-77 324h-418l-80 -324h-176zM219 1567v135q82 49 143 49q47 0 128.5 -25.5t123.5 -25.5q80 0 158 57v-135q-70 -49 -141 -49q-49 0 -129 23.5t-125 23.5q-79 0 -158 -53zM322 475h350l-172 725z" />
<glyph unicode="&#xc4;" horiz-adv-x="991" d="M31 0l372 1444h189l366 -1444h-176l-77 324h-418l-80 -324h-176zM274 1653q0 34 24 58t58 24q32 0 56 -24t24 -58q0 -35 -23.5 -59.5t-56.5 -24.5q-34 0 -58 24.5t-24 59.5zM322 475h350l-172 725zM553 1653q0 34 24 58t56 24q35 0 59.5 -24t24.5 -58q0 -35 -24.5 -59.5 t-59.5 -24.5q-33 0 -56.5 24.5t-23.5 59.5z" />
<glyph unicode="&#xc5;" horiz-adv-x="991" d="M31 0l372 1444h189l366 -1444h-176l-77 324h-418l-80 -324h-176zM322 475h350l-172 725zM358 1706q0 57 41 97t99 40q56 0 95.5 -40t39.5 -97t-40 -98t-95 -41q-58 0 -99 41t-41 98zM444 1708q0 -23 16 -38t38 -15t36.5 15t14.5 38q0 22 -14.5 36.5t-36.5 14.5t-38 -15 t-16 -36z" />
<glyph unicode="&#xc6;" horiz-adv-x="1515" d="M31 0q116 240 348.5 721.5t347.5 722.5h692v-168h-477v-469h348v-154h-348v-485h477v-168h-649v324h-397q-39 -84 -156 -324h-186zM436 473h332v715z" />
<glyph unicode="&#xc7;" horiz-adv-x="972" d="M100 393v658q0 182 109.5 296.5t282.5 114.5q171 0 281 -115t110 -296v-58h-174v66q0 114 -61 174.5t-156 60.5t-157.5 -59.5t-62.5 -175.5v-672q0 -114 61.5 -174.5t158.5 -60.5q92 0 154.5 59.5t62.5 175.5v78h174v-72q0 -164 -91.5 -274.5t-240.5 -130.5 q-12 -36 -30 -99.5t-30 -108.5l-12 -46h-178l129 254q-149 20 -239.5 130t-90.5 275z" />
<glyph unicode="&#xc8;" horiz-adv-x="878" d="M133 0v1444h651v-168h-481v-469h352v-154h-352v-485h481v-168h-651zM268 1839h176l121 -266h-133z" />
<glyph unicode="&#xc9;" horiz-adv-x="878" d="M133 0v1444h651v-168h-481v-469h352v-154h-352v-485h481v-168h-651zM375 1575l119 264h178l-166 -264h-131z" />
<glyph unicode="&#xca;" horiz-adv-x="878" d="M133 0v1444h651v-168h-481v-469h352v-154h-352v-485h481v-168h-651zM176 1575l199 260h157l199 -260h-137l-139 154l-144 -154h-135z" />
<glyph unicode="&#xcb;" horiz-adv-x="878" d="M133 0v1444h651v-168h-481v-469h352v-154h-352v-485h481v-168h-651zM236 1653q0 34 23.5 58t57.5 24q32 0 56 -24t24 -58q0 -35 -23.5 -59.5t-56.5 -24.5q-34 0 -57.5 24.5t-23.5 59.5zM514 1653q0 34 24 58t56 24q35 0 59.5 -24t24.5 -58q0 -35 -24.5 -59.5t-59.5 -24.5 q-33 0 -56.5 24.5t-23.5 59.5z" />
<glyph unicode="&#xcc;" horiz-adv-x="438" d="M8 1839h176l121 -266h-133zM133 0v1444h170v-1444h-170z" />
<glyph unicode="&#xcd;" horiz-adv-x="438" d="M133 0v1444h170v-1444h-170zM137 1575l119 264h178l-166 -264h-131z" />
<glyph unicode="&#xce;" horiz-adv-x="436" d="M-59 1575l198 260h158l199 -260h-138l-139 154l-143 -154h-135zM133 0v1444h170v-1444h-170z" />
<glyph unicode="&#xcf;" horiz-adv-x="438" d="M0 1653q0 34 24 58t58 24q32 0 56 -24t24 -58q0 -35 -23.5 -59.5t-56.5 -24.5q-34 0 -58 24.5t-24 59.5zM133 0v1444h170v-1444h-170zM279 1653q0 34 23.5 58t55.5 24q35 0 59.5 -24t24.5 -58q0 -35 -24.5 -59.5t-59.5 -24.5q-32 0 -55.5 24.5t-23.5 59.5z" />
<glyph unicode="&#xd0;" horiz-adv-x="1021" d="M37 696v72h119v676h374q199 0 295.5 -128.5t96.5 -385.5v-416q0 -514 -392 -514h-374v696h-119zM328 166h184q87 0 137 34.5t76.5 126t26.5 253.5v335q0 203 -58.5 282t-181.5 79h-184v-508h194v-72h-194v-530z" />
<glyph unicode="&#xd1;" horiz-adv-x="1052" d="M133 0v1444h160l452 -1030v1030h173v-1444h-160l-453 1020v-1020h-172zM248 1567v135q82 49 143 49q47 0 128.5 -25.5t123.5 -25.5q80 0 158 57v-135q-70 -49 -142 -49q-49 0 -128 23.5t-125 23.5q-79 0 -158 -53z" />
<glyph unicode="&#xd2;" horiz-adv-x="983" d="M100 393v658q0 182 109.5 296.5t282.5 114.5q171 0 281 -115t110 -296v-658q0 -181 -110 -295t-281 -114q-173 0 -282.5 114t-109.5 295zM270 1839h176l121 -266h-133zM272 387q0 -114 61.5 -174.5t158.5 -60.5q92 0 154.5 59.5t62.5 175.5v672q0 114 -61 174.5 t-156 60.5t-157.5 -59.5t-62.5 -175.5v-672z" />
<glyph unicode="&#xd3;" horiz-adv-x="983" d="M100 393v658q0 182 109.5 296.5t282.5 114.5q171 0 281 -115t110 -296v-658q0 -181 -110 -295t-281 -114q-173 0 -282.5 114t-109.5 295zM272 387q0 -114 61.5 -174.5t158.5 -60.5q92 0 154.5 59.5t62.5 175.5v672q0 114 -61 174.5t-156 60.5t-157.5 -59.5t-62.5 -175.5 v-672zM414 1575l118 264h179l-166 -264h-131z" />
<glyph unicode="&#xd4;" horiz-adv-x="983" d="M100 393v658q0 182 109.5 296.5t282.5 114.5q171 0 281 -115t110 -296v-658q0 -181 -110 -295t-281 -114q-173 0 -282.5 114t-109.5 295zM213 1575l199 260h157l199 -260h-137l-139 154l-144 -154h-135zM272 387q0 -114 61.5 -174.5t158.5 -60.5q92 0 154.5 59.5 t62.5 175.5v672q0 114 -61 174.5t-156 60.5t-157.5 -59.5t-62.5 -175.5v-672z" />
<glyph unicode="&#xd5;" horiz-adv-x="983" d="M100 393v658q0 182 109.5 296.5t282.5 114.5q171 0 281 -115t110 -296v-658q0 -181 -110 -295t-281 -114q-173 0 -282.5 114t-109.5 295zM213 1567v135q82 49 143 49q47 0 128.5 -25.5t123.5 -25.5q80 0 158 57v-135q-70 -49 -141 -49q-49 0 -129 23.5t-125 23.5 q-79 0 -158 -53zM272 387q0 -114 61.5 -174.5t158.5 -60.5q92 0 154.5 59.5t62.5 175.5v672q0 114 -61 174.5t-156 60.5t-157.5 -59.5t-62.5 -175.5v-672z" />
<glyph unicode="&#xd6;" horiz-adv-x="983" d="M100 393v658q0 182 109.5 296.5t282.5 114.5q171 0 281 -115t110 -296v-658q0 -181 -110 -295t-281 -114q-173 0 -282.5 114t-109.5 295zM268 1653q0 34 24 58t58 24q32 0 56 -24t24 -58q0 -35 -23.5 -59.5t-56.5 -24.5q-34 0 -58 24.5t-24 59.5zM272 387 q0 -114 61.5 -174.5t158.5 -60.5q92 0 154.5 59.5t62.5 175.5v672q0 114 -61 174.5t-156 60.5t-157.5 -59.5t-62.5 -175.5v-672zM547 1653q0 34 24 58t56 24q35 0 59.5 -24t24.5 -58q0 -35 -24.5 -59.5t-59.5 -24.5q-33 0 -56.5 24.5t-23.5 59.5z" />
<glyph unicode="&#xd7;" horiz-adv-x="823" d="M100 526l203 205l-203 207q72 72 107 109l203 -207l202 207q19 -19 54.5 -55.5t52.5 -53.5l-203 -207l205 -205q-61 -64 -107 -108l-204 205q-135 -135 -203 -205z" />
<glyph unicode="&#xd8;" horiz-adv-x="995" d="M100 393v658q0 182 109.5 296.5t282.5 114.5q78 0 151 -28l41 149h74q-14 -42 -49 -182q81 -55 127.5 -146t46.5 -204v-658q0 -181 -110 -295t-281 -114q-87 0 -160 28l-39 -145h-76l49 182q-79 53 -122.5 142t-43.5 202zM272 387q0 -94 43 -156l283 1039q-49 24 -106 24 q-95 0 -157.5 -59.5t-62.5 -175.5v-672zM377 178q48 -26 115 -26q92 0 154.5 59.5t62.5 175.5v672q0 103 -50 162q-46 -164 -145 -535t-137 -508z" />
<glyph unicode="&#xd9;" horiz-adv-x="1015" d="M117 393v1051h172v-1057q0 -114 61 -174.5t156 -60.5q94 0 156.5 59.5t62.5 175.5v1057h174v-1051q0 -181 -110.5 -295t-282.5 -114t-280.5 114t-108.5 295zM295 1839h176l121 -266h-133z" />
<glyph unicode="&#xda;" horiz-adv-x="1015" d="M117 393v1051h172v-1057q0 -114 61 -174.5t156 -60.5q94 0 156.5 59.5t62.5 175.5v1057h174v-1051q0 -181 -110.5 -295t-282.5 -114t-280.5 114t-108.5 295zM432 1575l119 264h178l-166 -264h-131z" />
<glyph unicode="&#xdb;" horiz-adv-x="1015" d="M117 393v1051h172v-1057q0 -114 61 -174.5t156 -60.5q94 0 156.5 59.5t62.5 175.5v1057h174v-1051q0 -181 -110.5 -295t-282.5 -114t-280.5 114t-108.5 295zM227 1575l199 260h158l198 -260h-137l-139 154l-144 -154h-135z" />
<glyph unicode="&#xdc;" horiz-adv-x="1015" d="M117 393v1051h172v-1057q0 -114 61 -174.5t156 -60.5q94 0 156.5 59.5t62.5 175.5v1057h174v-1051q0 -181 -110.5 -295t-282.5 -114t-280.5 114t-108.5 295zM287 1653q0 34 24 58t58 24q32 0 56 -24t24 -58q0 -35 -23.5 -59.5t-56.5 -24.5q-34 0 -58 24.5t-24 59.5z M565 1653q0 34 24 58t56 24q35 0 59.5 -24t24.5 -58q0 -35 -24.5 -59.5t-59.5 -24.5q-33 0 -56.5 24.5t-23.5 59.5z" />
<glyph unicode="&#xdd;" horiz-adv-x="960" d="M33 1444h182l264 -690l266 690h183l-365 -909v-535h-170v535zM414 1575l118 264h179l-166 -264h-131z" />
<glyph unicode="&#xde;" horiz-adv-x="954" d="M133 0v1444h170v-174h186q390 0 390 -488v-100q0 -481 -390 -481h-184v-201h-172zM305 367h164q119 0 179.5 71t60.5 228v133q0 90 -19 150t-57.5 93t-88 46.5t-120.5 13.5h-119v-735z" />
<glyph unicode="&#xdf;" horiz-adv-x="995" d="M72 1001v148h104q0 107 14.5 179.5t51 125t100 76.5t158.5 24h24q142 0 222.5 -64t80.5 -173v-51q0 -68 -31 -117.5t-96 -65.5q114 -35 156.5 -125.5t42.5 -248.5v-281q0 -75 -9.5 -137t-33.5 -119t-62 -95.5t-99 -61.5t-140 -23l-53 2v151q18 -2 28 -2q41 0 72.5 9.5 t53 23.5t36.5 39t23 47.5t12 58t5 62t1 66.5v229q0 71 -4 117t-17.5 89.5t-38.5 67.5t-67.5 38t-103.5 14v145q90 0 125 28t35 80v41q0 48 -33 77.5t-99 29.5h-41q-95 0 -122 -51t-27 -201v-1153h-164v1001h-104z" />
<glyph unicode="&#xe0;" d="M96 346v459q0 176 80 267t219 91q93 0 158 -42t90 -91v119h154v-1149h-154v119q-25 -50 -90.5 -92.5t-157.5 -42.5q-141 0 -220 92.5t-79 269.5zM223 1536h176l121 -266h-133zM260 356q0 -114 48 -172.5t138 -58.5q89 0 138 59t49 172v445q0 108 -49.5 165.5t-137.5 57.5 q-90 0 -138 -58.5t-48 -170.5v-439z" />
<glyph unicode="&#xe1;" d="M96 346v459q0 176 80 267t219 91q93 0 158 -42t90 -91v119h154v-1149h-154v119q-25 -50 -90.5 -92.5t-157.5 -42.5q-141 0 -220 92.5t-79 269.5zM260 356q0 -114 48 -172.5t138 -58.5q89 0 138 59t49 172v445q0 108 -49.5 165.5t-137.5 57.5q-90 0 -138 -58.5t-48 -170.5 v-439zM346 1274l119 264h178l-166 -264h-131z" />
<glyph unicode="&#xe2;" d="M96 346v459q0 176 80 267t219 91q93 0 158 -42t90 -91v119h154v-1149h-154v119q-25 -50 -90.5 -92.5t-157.5 -42.5q-141 0 -220 92.5t-79 269.5zM180 1272l199 260h158l198 -260h-137l-139 153l-144 -153h-135zM260 356q0 -114 48 -172.5t138 -58.5q89 0 138 59t49 172 v445q0 108 -49.5 165.5t-137.5 57.5q-90 0 -138 -58.5t-48 -170.5v-439z" />
<glyph unicode="&#xe3;" d="M96 346v459q0 176 80 267t219 91q93 0 158 -42t90 -91v119h154v-1149h-154v119q-25 -50 -90.5 -92.5t-157.5 -42.5q-141 0 -220 92.5t-79 269.5zM178 1257v136q82 49 144 49q47 0 128 -25.5t123 -25.5q80 0 158 57v-135q-70 -49 -141 -49q-48 0 -128 23.5t-126 23.5 q-78 0 -158 -54zM260 356q0 -114 48 -172.5t138 -58.5q89 0 138 59t49 172v445q0 108 -49.5 165.5t-137.5 57.5q-90 0 -138 -58.5t-48 -170.5v-439z" />
<glyph unicode="&#xe4;" d="M96 346v459q0 176 80 267t219 91q93 0 158 -42t90 -91v119h154v-1149h-154v119q-25 -50 -90.5 -92.5t-157.5 -42.5q-141 0 -220 92.5t-79 269.5zM233 1350q0 34 24 58t58 24q32 0 56 -24t24 -58q0 -35 -23.5 -59.5t-56.5 -24.5q-34 0 -58 24.5t-24 59.5zM260 356 q0 -114 48 -172.5t138 -58.5q89 0 138 59t49 172v445q0 108 -49.5 165.5t-137.5 57.5q-90 0 -138 -58.5t-48 -170.5v-439zM512 1350q0 34 24 58t56 24q35 0 59.5 -24t24.5 -58q0 -35 -24.5 -59.5t-59.5 -24.5q-33 0 -56.5 24.5t-23.5 59.5z" />
<glyph unicode="&#xe5;" d="M96 346v459q0 176 80 267t219 91q93 0 158 -42t90 -91v119h154v-1149h-154v119q-25 -50 -90.5 -92.5t-157.5 -42.5q-141 0 -220 92.5t-79 269.5zM260 356q0 -114 48 -172.5t138 -58.5q89 0 138 59t49 172v445q0 108 -49.5 165.5t-137.5 57.5q-90 0 -138 -58.5t-48 -170.5 v-439zM326 1401q0 57 40.5 97t98.5 40q56 0 95.5 -40t39.5 -97t-40 -98t-95 -41q-58 0 -98.5 41t-40.5 98zM412 1403q0 -23 15.5 -38t37.5 -15t36.5 15t14.5 38q0 22 -14.5 36.5t-36.5 14.5t-37.5 -14.5t-15.5 -36.5z" />
<glyph unicode="&#xe6;" horiz-adv-x="1421" d="M96 346v459q0 176 80 267t219 91q93 0 158 -42t90 -91v119h154v-111q22 49 86 87t145 38q161 0 233 -105.5t72 -326.5v-211h-536v-114q0 -127 47 -206t141 -79q85 0 134.5 51.5t49.5 134.5h164v-4q0 -144 -79 -231.5t-226 -87.5q-89 0 -146 39.5t-85 95.5v-119h-154v119 q-25 -50 -90.5 -92.5t-157.5 -42.5q-141 0 -220 92.5t-79 269.5zM260 356q0 -114 48 -172.5t138 -58.5q89 0 138 59t49 172v445q0 108 -49.5 165.5t-137.5 57.5q-90 0 -138 -58.5t-48 -170.5v-439zM797 641h372v78q0 168 -39.5 236.5t-144.5 68.5q-84 0 -136 -56t-52 -159 v-168z" />
<glyph unicode="&#xe7;" horiz-adv-x="882" d="M96 358v435q0 170 92.5 270t257.5 100q167 0 259 -101t92 -280h-164q0 230 -187 230q-88 0 -138 -52t-50 -149v-475q0 -98 50.5 -150.5t137.5 -52.5q91 0 139 58t48 171h164q0 -161 -76 -259t-215 -115l-80 -254h-176q45 86 135 254q-139 19 -214 115t-75 255z" />
<glyph unicode="&#xe8;" horiz-adv-x="884" d="M94 362v435q0 169 92.5 268.5t257.5 99.5q163 0 257 -100t94 -268v-277h-539v-153q0 -115 48 -178.5t140 -63.5q83 0 135 47.5t52 124.5v37h164v-19q0 -143 -92.5 -237t-258.5 -94t-258 101.5t-92 276.5zM223 1538h176l121 -266h-133zM256 641h375v174q0 97 -51 152 t-136 55q-86 0 -137 -53t-51 -150v-178z" />
<glyph unicode="&#xe9;" horiz-adv-x="884" d="M94 362v435q0 169 92.5 268.5t257.5 99.5q163 0 257 -100t94 -268v-277h-539v-153q0 -115 48 -178.5t140 -63.5q83 0 135 47.5t52 124.5v37h164v-19q0 -143 -92.5 -237t-258.5 -94t-258 101.5t-92 276.5zM256 641h375v174q0 97 -51 152t-136 55q-86 0 -137 -53t-51 -150 v-178zM367 1274l118 264h179l-166 -264h-131z" />
<glyph unicode="&#xea;" horiz-adv-x="884" d="M94 362v435q0 169 92.5 268.5t257.5 99.5q163 0 257 -100t94 -268v-277h-539v-153q0 -115 48 -178.5t140 -63.5q83 0 135 47.5t52 124.5v37h164v-19q0 -143 -92.5 -237t-258.5 -94t-258 101.5t-92 276.5zM164 1270l198 260h158l199 -260h-137l-140 153l-143 -153h-135z M256 641h375v174q0 97 -51 152t-136 55q-86 0 -137 -53t-51 -150v-178z" />
<glyph unicode="&#xeb;" horiz-adv-x="884" d="M94 362v435q0 169 92.5 268.5t257.5 99.5q163 0 257 -100t94 -268v-277h-539v-153q0 -115 48 -178.5t140 -63.5q83 0 135 47.5t52 124.5v37h164v-19q0 -143 -92.5 -237t-258.5 -94t-258 101.5t-92 276.5zM217 1350q0 34 24 58t58 24q32 0 56 -24t24 -58 q0 -35 -23.5 -59.5t-56.5 -24.5q-34 0 -58 24.5t-24 59.5zM256 641h375v174q0 97 -51 152t-136 55q-86 0 -137 -53t-51 -150v-178zM496 1350q0 34 23.5 58t55.5 24q35 0 59.5 -24t24.5 -58q0 -35 -24.5 -59.5t-59.5 -24.5q-32 0 -55.5 24.5t-23.5 59.5z" />
<glyph unicode="&#xec;" horiz-adv-x="403" d="M-14 1538h176l121 -266h-133zM117 0v1149h166v-1149h-166z" />
<glyph unicode="&#xed;" horiz-adv-x="399" d="M117 0v1149h166v-1149h-166zM117 1274l119 264h178l-166 -264h-131z" />
<glyph unicode="&#xee;" horiz-adv-x="399" d="M-78 1272l199 260h158l198 -260h-137l-139 153l-144 -153h-135zM117 0v1149h166v-1149h-166z" />
<glyph unicode="&#xef;" horiz-adv-x="397" d="M-18 1352q0 34 23.5 58t57.5 24q32 0 56 -24t24 -58q0 -35 -23.5 -59.5t-56.5 -24.5q-34 0 -57.5 24.5t-23.5 59.5zM117 0v1149h166v-1149h-166zM260 1352q0 34 24 58t56 24q35 0 59.5 -24t24.5 -58q0 -35 -24.5 -59.5t-59.5 -24.5q-33 0 -56.5 24.5t-23.5 59.5z" />
<glyph unicode="&#xf0;" horiz-adv-x="897" d="M96 410v340q0 407 320 407q77 0 121 -24l-88 192h-146v72h111l-70 149h168l70 -149h145v-72h-113q68 -137 97 -207q49 -112 69.5 -193t20.5 -186v-331q0 -95 -17.5 -168t-57 -132t-110 -90.5t-170.5 -31.5q-350 0 -350 424zM260 383q0 -128 45 -188t141 -60 q111 0 150 60.5t39 222.5v354q0 238 -189 238q-186 0 -186 -238v-389z" />
<glyph unicode="&#xf1;" horiz-adv-x="923" d="M117 0v1149h155v-121q25 51 89 93t157 42q156 0 228.5 -100t72.5 -297v-766h-164v758q0 140 -38 203t-150 63q-95 0 -140.5 -56.5t-45.5 -172.5v-795h-164zM182 1266v135q82 49 144 49q47 0 128.5 -25.5t123.5 -25.5q79 0 157 57v-135q-70 -49 -141 -49 q-48 0 -128.5 23.5t-125.5 23.5q-79 0 -158 -53z" />
<glyph unicode="&#xf2;" horiz-adv-x="894" d="M96 358v435q0 169 92.5 268.5t257.5 99.5q163 0 257 -100t94 -268v-435q0 -174 -93.5 -274t-257.5 -100q-166 0 -258 99.5t-92 274.5zM236 1536h176l120 -266h-133zM258 336q0 -98 50.5 -150.5t137.5 -52.5q84 0 135.5 53t51.5 150v475q0 96 -51 148.5t-136 52.5 q-88 0 -138 -52t-50 -149v-475z" />
<glyph unicode="&#xf3;" horiz-adv-x="894" d="M96 358v435q0 169 92.5 268.5t257.5 99.5q163 0 257 -100t94 -268v-435q0 -174 -93.5 -274t-257.5 -100q-166 0 -258 99.5t-92 274.5zM258 336q0 -98 50.5 -150.5t137.5 -52.5q84 0 135.5 53t51.5 150v475q0 96 -51 148.5t-136 52.5q-88 0 -138 -52t-50 -149v-475z M373 1272l119 264h178l-166 -264h-131z" />
<glyph unicode="&#xf4;" horiz-adv-x="894" d="M96 358v435q0 169 92.5 268.5t257.5 99.5q163 0 257 -100t94 -268v-435q0 -174 -93.5 -274t-257.5 -100q-166 0 -258 99.5t-92 274.5zM170 1270l199 260h157l199 -260h-137l-139 153l-144 -153h-135zM258 336q0 -98 50.5 -150.5t137.5 -52.5q84 0 135.5 53t51.5 150v475 q0 96 -51 148.5t-136 52.5q-88 0 -138 -52t-50 -149v-475z" />
<glyph unicode="&#xf5;" horiz-adv-x="894" d="M96 358v435q0 169 92.5 268.5t257.5 99.5q163 0 257 -100t94 -268v-435q0 -174 -93.5 -274t-257.5 -100q-166 0 -258 99.5t-92 274.5zM170 1260v135q82 49 143 49q47 0 128.5 -25.5t123.5 -25.5q80 0 158 57v-135q-70 -49 -141 -49q-48 0 -128 23.5t-126 23.5 q-79 0 -158 -53zM258 336q0 -98 50.5 -150.5t137.5 -52.5q84 0 135.5 53t51.5 150v475q0 96 -51 148.5t-136 52.5q-88 0 -138 -52t-50 -149v-475z" />
<glyph unicode="&#xf6;" horiz-adv-x="894" d="M96 358v435q0 169 92.5 268.5t257.5 99.5q163 0 257 -100t94 -268v-435q0 -174 -93.5 -274t-257.5 -100q-166 0 -258 99.5t-92 274.5zM225 1348q0 34 24 58t58 24q32 0 56 -24t24 -58q0 -35 -23.5 -59.5t-56.5 -24.5q-34 0 -58 24.5t-24 59.5zM258 336q0 -98 50.5 -150.5 t137.5 -52.5q84 0 135.5 53t51.5 150v475q0 96 -51 148.5t-136 52.5q-88 0 -138 -52t-50 -149v-475zM504 1348q0 34 24 58t56 24q35 0 59.5 -24t24.5 -58q0 -35 -24.5 -59.5t-59.5 -24.5q-33 0 -56.5 24.5t-23.5 59.5z" />
<glyph unicode="&#xf7;" horiz-adv-x="811" d="M100 653v152h627v-152h-627zM309 465q0 40 27 68t67 28t67.5 -28t27.5 -68q0 -39 -28 -66.5t-67 -27.5t-66.5 27.5t-27.5 66.5zM309 999q0 40 27.5 68.5t66.5 28.5q40 0 67.5 -28.5t27.5 -68.5q0 -39 -28 -66.5t-67 -27.5t-66.5 27.5t-27.5 66.5z" />
<glyph unicode="&#xf8;" horiz-adv-x="894" d="M96 358v435q0 169 92.5 268.5t257.5 99.5q57 0 113 -16l41 147h78l-49 -176q80 -43 124 -126.5t44 -196.5v-435q0 -174 -93.5 -274t-257.5 -100q-63 0 -122 16l-35 -133h-76l45 162q-162 90 -162 329zM258 336q0 -89 45 -143l217 806q-32 13 -74 13q-88 0 -138 -52 t-50 -149v-475zM365 147q35 -14 81 -14q84 0 135.5 53t51.5 150v475q0 90 -47 143z" />
<glyph unicode="&#xf9;" horiz-adv-x="907" d="M100 358v791h166v-813q0 -98 51 -150.5t138 -52.5q84 0 135 53t51 150v813h164v-791q0 -174 -93 -274t-257 -100q-167 0 -261 100t-94 274zM262 1538h176l121 -266h-133z" />
<glyph unicode="&#xfa;" horiz-adv-x="907" d="M100 358v791h166v-813q0 -98 51 -150.5t138 -52.5q84 0 135 53t51 150v813h164v-791q0 -174 -93 -274t-257 -100q-167 0 -261 100t-94 274zM354 1274l119 264h178l-166 -264h-131z" />
<glyph unicode="&#xfb;" horiz-adv-x="907" d="M100 358v791h166v-813q0 -98 51 -150.5t138 -52.5q84 0 135 53t51 150v813h164v-791q0 -174 -93 -274t-257 -100q-167 0 -261 100t-94 274zM174 1268l199 260h157l199 -260h-137l-139 153l-144 -153h-135z" />
<glyph unicode="&#xfc;" horiz-adv-x="907" d="M100 358v791h166v-813q0 -98 51 -150.5t138 -52.5q84 0 135 53t51 150v813h164v-791q0 -174 -93 -274t-257 -100q-167 0 -261 100t-94 274zM231 1352q0 34 24 58t58 24q32 0 56 -24t24 -58q0 -35 -23.5 -59.5t-56.5 -24.5q-34 0 -58 24.5t-24 59.5zM510 1352q0 34 24 58 t56 24q35 0 59.5 -24t24.5 -58q0 -35 -24.5 -59.5t-59.5 -24.5q-33 0 -56.5 24.5t-23.5 59.5z" />
<glyph unicode="&#xfd;" horiz-adv-x="874" d="M37 1149h178l221 -864l223 864h177l-426 -1534h-168l108 395zM354 1274l119 264h178l-166 -264h-131z" />
<glyph unicode="&#xfe;" horiz-adv-x="923" d="M117 -387v1933h164v-518q23 51 83.5 92t153.5 41q143 0 222 -91t79 -267v-457q0 -176 -79 -268t-222 -92q-93 0 -153.5 39.5t-83.5 89.5v-502h-164zM281 354q0 -111 48.5 -170t137.5 -59q90 0 139 58.5t49 170.5v439q0 110 -48.5 169.5t-139.5 59.5q-86 0 -136 -57 t-50 -164v-447z" />
<glyph unicode="&#xff;" horiz-adv-x="874" d="M37 1149h178l221 -864l223 864h177l-426 -1534h-168l108 395zM215 1346q0 34 24 57.5t58 23.5q33 0 56.5 -23.5t23.5 -57.5q0 -35 -23.5 -59.5t-56.5 -24.5q-34 0 -58 24.5t-24 59.5zM494 1346q0 34 23.5 57.5t55.5 23.5q35 0 59.5 -23.5t24.5 -57.5q0 -35 -24.5 -59.5 t-59.5 -24.5q-32 0 -55.5 24.5t-23.5 59.5z" />
<glyph unicode="&#x152;" horiz-adv-x="1454" d="M100 379v649q0 190 90 305t254 115q83 0 155 -27t110 -78v101h649v-168h-475v-469h346v-154h-346v-485h475v-168h-649v100q-33 -51 -100 -78.5t-136 -27.5q-169 0 -271 111t-102 274zM272 373q0 -223 217 -223q101 0 160.5 74t59.5 222v555q0 151 -57.5 223t-162.5 72 q-217 0 -217 -266v-657z" />
<glyph unicode="&#x153;" horiz-adv-x="1425" d="M92 358v435q0 169 92.5 268.5t257.5 99.5q96 0 170 -42.5t101 -106.5q32 67 105 109t173 42q171 0 256.5 -99.5t85.5 -285.5v-258h-536v-184q0 -102 53 -156.5t135 -54.5q87 0 139 47.5t52 124.5v37h163v-19q0 -143 -92 -237t-256 -94q-99 0 -171 42t-105 107 q-33 -65 -104 -107t-169 -42q-166 0 -258 99.5t-92 274.5zM254 336q0 -98 51.5 -150.5t140.5 -52.5q96 0 142.5 62t46.5 204v351q0 264 -189 264q-90 0 -141 -53t-51 -150v-475zM797 641h372v96q0 147 -43.5 217t-140.5 70q-86 0 -137 -51.5t-51 -147.5v-47v-137z" />
<glyph unicode="&#x178;" horiz-adv-x="960" d="M33 1444h182l264 -690l266 690h183l-365 -909v-535h-170v535zM258 1653q0 34 24 58t58 24q32 0 56 -24t24 -58q0 -35 -23.5 -59.5t-56.5 -24.5q-34 0 -58 24.5t-24 59.5zM537 1653q0 34 23.5 58t55.5 24q35 0 59.5 -24t24.5 -58q0 -35 -24.5 -59.5t-59.5 -24.5 q-32 0 -55.5 24.5t-23.5 59.5z" />
<glyph unicode="&#x2c6;" horiz-adv-x="960" d="M203 1196l198 260h158l199 -260h-137l-140 154l-143 -154h-135z" />
<glyph unicode="&#x2dc;" horiz-adv-x="958" d="M201 1188v135q82 49 143 49q47 0 128.5 -25.5t123.5 -25.5q80 0 158 57v-135q-70 -49 -142 -49q-48 0 -128 23.5t-126 23.5q-78 0 -157 -53z" />
<glyph unicode="&#x2000;" horiz-adv-x="921" />
<glyph unicode="&#x2001;" horiz-adv-x="1843" />
<glyph unicode="&#x2002;" horiz-adv-x="921" />
<glyph unicode="&#x2003;" horiz-adv-x="1843" />
<glyph unicode="&#x2004;" horiz-adv-x="614" />
<glyph unicode="&#x2005;" horiz-adv-x="460" />
<glyph unicode="&#x2006;" horiz-adv-x="307" />
<glyph unicode="&#x2007;" horiz-adv-x="307" />
<glyph unicode="&#x2008;" horiz-adv-x="230" />
<glyph unicode="&#x2009;" horiz-adv-x="368" />
<glyph unicode="&#x200a;" horiz-adv-x="102" />
<glyph unicode="&#x2010;" horiz-adv-x="608" d="M84 557v133h436v-133h-436z" />
<glyph unicode="&#x2011;" horiz-adv-x="608" d="M84 557v133h436v-133h-436z" />
<glyph unicode="&#x2012;" horiz-adv-x="608" d="M84 557v133h436v-133h-436z" />
<glyph unicode="&#x2013;" horiz-adv-x="722" d="M86 557v133h551v-133h-551z" />
<glyph unicode="&#x2014;" horiz-adv-x="925" d="M86 557v133h754v-133h-754z" />
<glyph unicode="&#x2018;" horiz-adv-x="442" d="M41 895l219 549h131q-2 -6 -172 -549h-178z" />
<glyph unicode="&#x2019;" horiz-adv-x="434" d="M51 895l170 549h178l-219 -549h-129z" />
<glyph unicode="&#x201a;" horiz-adv-x="434" d="M16 -211l172 543h179l-220 -543h-131z" />
<glyph unicode="&#x201c;" horiz-adv-x="735" d="M41 895l219 549h131q-2 -6 -172 -549h-178zM336 895l217 549h133l-174 -549h-176z" />
<glyph unicode="&#x201d;" horiz-adv-x="727" d="M51 895l170 549h178l-219 -549h-129zM344 895l170 549h180l-217 -549h-133z" />
<glyph unicode="&#x201e;" horiz-adv-x="727" d="M18 -219l170 543h179l-220 -543h-129zM311 -219l172 543h179l-220 -543h-131z" />
<glyph unicode="&#x2022;" horiz-adv-x="841" d="M100 668v10q0 156 85 247t237 91q148 0 231.5 -91.5t83.5 -246.5v-10q0 -160 -83 -251t-232 -91q-153 0 -237.5 90.5t-84.5 251.5z" />
<glyph unicode="&#x2026;" horiz-adv-x="1081" d="M84 92q0 43 29 74t73 31q43 0 74 -31t31 -74t-31 -73.5t-74 -30.5q-44 0 -73 30.5t-29 73.5zM436 92q0 43 31 74t72 31q44 0 75 -31t31 -74t-31 -73.5t-75 -30.5q-41 0 -72 31t-31 73zM791 92q0 43 30.5 74t73.5 31q41 0 71.5 -31t30.5 -74t-30.5 -73.5t-71.5 -30.5 q-43 0 -73.5 30.5t-30.5 73.5z" />
<glyph unicode="&#x202f;" horiz-adv-x="368" />
<glyph unicode="&#x2039;" horiz-adv-x="512" d="M84 627l217 338h129l-170 -338l170 -340h-129z" />
<glyph unicode="&#x203a;" horiz-adv-x="512" d="M84 287l168 340l-168 338h129l215 -338l-215 -340h-129z" />
<glyph unicode="&#x205f;" horiz-adv-x="460" />
<glyph unicode="&#x20ac;" horiz-adv-x="1034" d="M68 600v74h102v106h-102v74h102v197q0 182 108 296.5t281 114.5q172 0 281.5 -115t109.5 -296v-58h-172v66q0 114 -61 174.5t-158 60.5q-94 0 -156.5 -59.5t-62.5 -175.5v-205h225v-74h-225v-106h225v-74h-225v-213q0 -114 61.5 -174.5t157.5 -60.5q94 0 156.5 59.5 t62.5 175.5v78h172v-72q0 -181 -109.5 -295t-281.5 -114q-173 0 -281 113.5t-108 295.5v207h-102z" />
<glyph unicode="&#x2122;" horiz-adv-x="1255" d="M86 1339v105h395v-105h-145v-546h-107v546h-143zM549 793v651h106l183 -422l176 422h104v-651h-106v385l-138 -312h-75l-140 312v-385h-110z" />
<glyph unicode="&#x25fc;" horiz-adv-x="1146" d="M0 0v1147h1147v-1147h-1147z" />
</font>
</defs>
</svg>
