<?xml version="1.0" standalone="no"?>
<!DOCTYPE svg PUBLIC "-//W3C//DTD SVG 1.1//EN" "http://www.w3.org/Graphics/SVG/1.1/DTD/svg11.dtd" >
<svg xmlns="http://www.w3.org/2000/svg" xmlns:xlink="http://www.w3.org/1999/xlink" version="1.1">
<metadata></metadata>
<defs>
<font id="korolev_condensedheavy" horiz-adv-x="978" >
<font-face units-per-em="2048" ascent="1638" descent="-410" />
<missing-glyph horiz-adv-x="382" />
<glyph unicode="&#xfb01;" horiz-adv-x="1038" d="M47 889v260h90q0 83 8.5 143.5t34 119.5t70 95.5t120.5 59t181 22.5q95 0 167 -23t113 -57.5t66 -82t33 -89.5t8 -88h-291q0 43 -20 67.5t-82 24.5q-73 0 -95 -34t-22 -121v-37h123v-260h-123v-889h-291v889h-90zM647 0v1149h291v-1149h-291z" />
<glyph unicode="&#xfb02;" horiz-adv-x="1038" d="M47 889v260h90q0 59 3.5 104t14 93t28.5 82.5t48.5 66.5t72.5 51.5t102 31t135 11.5q97 0 169 -21t115 -56t69 -87.5t35 -107t9 -123.5v-1194h-291v1184q0 92 -18.5 123.5t-87.5 31.5q-70 0 -91.5 -30.5t-21.5 -100.5v-59h123v-260h-123v-889h-291v889h-90z" />
<glyph horiz-adv-x="0" />
<glyph horiz-adv-x="682" />
<glyph unicode=" "  horiz-adv-x="382" />
<glyph unicode="&#x09;" horiz-adv-x="382" />
<glyph unicode="&#xa0;" horiz-adv-x="382" />
<glyph unicode="!" horiz-adv-x="475" d="M63 156q0 72 51 123t122 51q72 0 123 -51t51 -123t-51 -121t-123 -49q-71 0 -122 49.5t-51 120.5zM63 1251q0 89 43.5 148t129.5 59t129 -59t43 -148q0 -57 -19 -167.5t-56 -302t-61 -335.5h-71q-24 137 -62.5 334t-57 305t-18.5 166z" />
<glyph unicode="&#x22;" horiz-adv-x="821" d="M47 1446h313l-49 -580h-219zM461 1446h313l-49 -580h-219z" />
<glyph unicode="#" horiz-adv-x="1359" d="M92 385v266h189l36 160h-225v264h287l106 477h277l-107 -477h168l107 477h278l-106 -477h127v-264h-189l-36 -160h225v-266h-287l-104 -475h-279l105 475h-168l-105 -475h-276l104 475h-127zM557 651h168l37 160h-168z" />
<glyph unicode="$" horiz-adv-x="876" d="M41 360h299q0 -110 102 -110q97 0 97 80q0 30 -15.5 56t-54.5 60q-31 27 -84 67.5t-93 70.5t-86.5 75t-77 88t-51 102t-20.5 124q0 117 62.5 201t171.5 118v144h106v-123q6 0 19 1t20 1q8 0 23.5 -1t23.5 -1v123h105v-146q110 -37 172 -128t65 -222h-297q0 57 -26.5 80.5 t-63.5 23.5q-35 0 -59.5 -19.5t-24.5 -55.5q0 -48 41 -92q29 -31 78.5 -70t95.5 -70.5t96 -75t86.5 -87.5t60.5 -105.5t24 -130.5q0 -136 -63 -225t-185 -121v-133h-105v116q-14 -2 -41 -2q-8 0 -23 1t-22 1v-116h-106v137q-115 37 -182 133t-68 231z" />
<glyph unicode="%" horiz-adv-x="1939" d="M72 1012v71q0 175 91.5 278t254.5 103q160 0 252 -103t92 -278v-71q0 -180 -91.5 -283.5t-252.5 -103.5q-163 0 -254.5 103t-91.5 284zM348 969q0 -82 70 -82q28 0 49.5 18t21.5 64v151q0 82 -71 82q-70 0 -70 -82v-151zM543 -90l534 1642h279l-537 -1642h-276zM1128 373 v69q0 177 91 280t254 103q162 0 254 -103.5t92 -279.5v-69q0 -180 -92 -283.5t-254 -103.5q-163 0 -254 103t-91 284zM1403 328q0 -45 20.5 -63.5t49.5 -18.5t50 18.5t21 63.5v153q0 45 -21 63.5t-50 18.5t-49.5 -18.5t-20.5 -63.5v-153z" />
<glyph unicode="&#x26;" horiz-adv-x="1062" d="M63 360v95q0 120 44.5 183t128.5 93q-80 34 -120 113.5t-40 189.5v49q0 167 111 275t292 108q177 0 290.5 -114.5t113.5 -294.5h-301q0 64 -29.5 90.5t-71.5 26.5q-41 0 -69.5 -25.5t-28.5 -81.5v-88q0 -119 121 -119h31v-264h-41q-123 0 -123 -111v-94q0 -65 36 -91 t82 -26q21 0 41 6t41 20.5t34 44.5t13 71v276h392v-272h-95q-3 -116 -36.5 -203.5t-92.5 -139.5t-133.5 -77t-165.5 -25q-197 0 -310.5 108.5t-113.5 276.5z" />
<glyph unicode="'" horiz-adv-x="407" d="M47 1446h313l-49 -580h-219z" />
<glyph unicode="(" horiz-adv-x="544" d="M82 309v846q0 210 91 303.5t306 93.5v-260q-61 0 -83.5 -16.5t-22.5 -58.5v-971q0 -42 21.5 -58t84.5 -16v-262q-215 0 -306 94.5t-91 304.5z" />
<glyph unicode=")" horiz-adv-x="544" d="M63 -90v262q65 0 87 16t22 58v971q0 42 -24 58.5t-85 16.5v260q217 0 308.5 -93.5t91.5 -303.5v-846q0 -210 -91.5 -304.5t-308.5 -94.5z" />
<glyph unicode="*" horiz-adv-x="960" d="M102 989l189 98l-189 95l105 174l180 -115l-6 215h205l-15 -211l183 109l108 -172l-192 -95l192 -96l-108 -170l-183 111l15 -199h-205l6 199l-180 -111z" />
<glyph unicode="+" horiz-adv-x="960" d="M82 598v264h266v266h264v-266h267v-264h-267v-268h-264v268h-266z" />
<glyph unicode="," horiz-adv-x="489" d="M-6 -229l135 565h313l-229 -565h-219z" />
<glyph unicode="-" horiz-adv-x="593" d="M63 477v228h465v-228h-465z" />
<glyph unicode="." horiz-adv-x="475" d="M63 156q0 72 51 123t122 51q72 0 123 -51t51 -123t-51 -122t-123 -50q-71 0 -122 50t-51 122z" />
<glyph unicode="/" horiz-adv-x="688" d="M12 -90l369 1646h295l-371 -1646h-293z" />
<glyph unicode="0" d="M82 403v637q0 189 113 307.5t294 118.5q179 0 293.5 -119t114.5 -307v-637q0 -187 -114.5 -305t-293.5 -118q-181 0 -294 117.5t-113 305.5zM387 393q0 -37 9 -62t25.5 -36t32 -15t35.5 -4q101 0 101 117v660q0 70 -28 93t-73 23t-73.5 -23t-28.5 -93v-660z" />
<glyph unicode="1" horiz-adv-x="624" d="M63 1030v295q96 0 129 24.5t33 96.5h283v-1446h-307v1030h-138z" />
<glyph unicode="2" horiz-adv-x="946" d="M63 0v240q0 92 27.5 175t71.5 146t97 120t106 106t97 94.5t71.5 96t27.5 99.5q0 52 -27 75.5t-69 23.5q-47 0 -73.5 -26t-26.5 -91h-302q0 183 112.5 295t287.5 112q177 0 289 -107.5t112 -277.5q0 -77 -27 -151.5t-70.5 -134t-95.5 -116t-104.5 -106t-96 -95.5 t-70.5 -93t-27 -90h479v-295h-789z" />
<glyph unicode="3" horiz-adv-x="960" d="M63 403q51 0 153 -1t153 -1q0 -120 110 -120q17 0 33.5 4.5t34 15t28.5 33.5t11 55v100q0 66 -30.5 86.5t-102.5 20.5h-117v264h117q65 0 92.5 26t27.5 95v86q0 107 -98 107q-41 0 -70.5 -26.5t-29.5 -90.5h-301q0 180 113 294.5t290 114.5q183 0 293.5 -105t110.5 -278 v-71q0 -231 -160 -281q172 -55 172 -293v-47q0 -183 -113 -296t-301 -113q-183 0 -299.5 115.5t-116.5 305.5z" />
<glyph unicode="4" horiz-adv-x="974" d="M47 305v281l461 860h295v-860h106v-281h-106v-305h-295v305h-461zM315 586h193v377z" />
<glyph unicode="5" horiz-adv-x="960" d="M63 403h308q0 -127 100 -127q41 0 70.5 26t29.5 93v203q0 64 -27.5 88.5t-74.5 24.5q-39 0 -63 -21.5t-28 -43.5l-5 -21l-289 47l117 774h622v-297h-379l-41 -246q5 5 16 13.5t51 22t87 13.5q153 0 237.5 -86.5t84.5 -267.5v-203q0 -186 -113.5 -300.5t-294.5 -114.5 q-180 0 -294 118t-114 305z" />
<glyph unicode="6" horiz-adv-x="944" d="M63 401v191q0 183 78 364l203 490h328l-199 -461q203 15 304.5 -89t101.5 -300v-195q0 -186 -114 -303.5t-294 -117.5t-294 117.5t-114 303.5zM371 391q0 -69 28.5 -93t71.5 -24q19 0 34 4t31.5 15t25.5 36t9 62v217q0 70 -27.5 93.5t-72.5 23.5t-72.5 -23.5t-27.5 -93.5 v-217z" />
<glyph unicode="7" horiz-adv-x="829" d="M63 1147v299h738l-346 -1446h-308l281 1147h-365z" />
<glyph unicode="8" horiz-adv-x="968" d="M72 412q0 230 157 301q-77 40 -111 122.5t-34 211.5q0 183 107 294t292 111q193 0 297.5 -117t104.5 -313q0 -230 -150 -309q162 -73 162 -301q0 -204 -111 -318t-303 -114q-200 0 -305.5 117.5t-105.5 314.5zM381 420q0 -50 7.5 -82.5t22.5 -48t31.5 -20.5t40.5 -5 q48 0 75.5 26.5t27.5 108.5v50q0 50 -7.5 82.5t-23 48t-32 21t-40.5 5.5q-54 0 -78 -29.5t-24 -127.5v-29zM385 993q0 -64 14 -98t33 -42.5t51 -8.5q24 0 39.5 4.5t30.5 19t22 45.5t7 80v23q0 65 -13.5 99t-32.5 43t-53 9q-50 0 -74 -29t-24 -122v-23z" />
<glyph unicode="9" horiz-adv-x="944" d="M63 848v192q0 187 114.5 305.5t293.5 118.5q181 0 294.5 -118t113.5 -306v-188q0 -187 -76 -363l-205 -491h-326l197 461q-203 -15 -304.5 89t-101.5 300zM371 836q0 -70 27.5 -93.5t72.5 -23.5t73.5 23.5t28.5 93.5v217q0 37 -9 61.5t-25.5 35t-32 14t-35.5 3.5 t-34.5 -3.5t-31 -14t-25.5 -35t-9 -61.5v-217z" />
<glyph unicode=":" horiz-adv-x="473" d="M63 156q0 72 51 123t122 51q72 0 123 -51t51 -123t-51 -122t-123 -50q-71 0 -122 50t-51 122zM63 987q0 72 51 123t122 51q72 0 123 -51t51 -123t-51 -122t-123 -50q-71 0 -122 50t-51 122z" />
<glyph unicode=";" horiz-adv-x="505" d="M-6 -229l135 565h313l-229 -565h-219zM82 987q0 72 50 123t122 51t123 -51t51 -123t-51 -122t-123 -50t-122 50t-50 122z" />
<glyph unicode="&#x3c;" horiz-adv-x="780" d="M82 520v283l616 233v-276l-352 -101l352 -96v-276z" />
<glyph unicode="=" horiz-adv-x="890" d="M82 385v266h727v-266h-727zM82 811v264h727v-264h-727z" />
<glyph unicode="&#x3e;" horiz-adv-x="780" d="M82 287v274l352 98l-352 99v276l616 -231v-283z" />
<glyph unicode="?" horiz-adv-x="876" d="M29 1059q0 193 106.5 300t294.5 107q175 0 287 -96.5t112 -247.5q0 -77 -24 -141t-61.5 -108t-83 -83t-90 -74.5t-80.5 -73t-55.5 -87.5t-14.5 -109h-82q-28 75 -32 141t11 116t39.5 94t54.5 80.5t56 69t43.5 67.5t17.5 67q0 95 -98 95q-42 0 -71 -26.5t-29 -90.5h-301z M207 156q0 72 51 123t123 51t122 -51t50 -123t-50 -122t-122 -50t-123 50t-51 122z" />
<glyph unicode="@" horiz-adv-x="1107" d="M98 449v544q0 218 127 344.5t334 126.5q204 0 327.5 -126t123.5 -345v-551q0 -66 -15.5 -111t-46 -67.5t-64 -31.5t-79.5 -9h-182v56q-3 -6 -15.5 -19t-46.5 -30t-74 -17q-89 0 -136.5 55.5t-47.5 182.5v536q0 129 47.5 184.5t136.5 55.5q30 0 57 -9t43.5 -23t24 -22 t11.5 -14v58h192v-885q57 0 73.5 20.5t16.5 89.5v551q0 170 -94.5 268.5t-251.5 98.5q-159 0 -257.5 -99t-98.5 -268v-544q0 -170 107.5 -265.5t289.5 -95.5h322v-104h-322q-231 0 -366.5 123t-135.5 342zM508 461q0 -58 51 -58t51 58v518q0 31 -15 44t-36 13t-36 -13 t-15 -44v-518z" />
<glyph unicode="A" d="M12 0l316 1446h327l312 -1446h-305l-46 244h-251l-48 -244h-305zM416 508h149l-71 477z" />
<glyph unicode="B" horiz-adv-x="989" d="M117 0v1446h379q190 0 298.5 -91.5t108.5 -285.5v-78q0 -94 -34 -161t-97 -99q143 -73 143 -260v-98q0 -187 -107 -280t-300 -93h-391zM422 293h74q65 0 89.5 21.5t24.5 84.5v93q0 68 -23 93t-91 25h-74v-317zM422 846h61q66 0 90.5 21t24.5 87v86q0 63 -25.5 86 t-89.5 23h-61v-303z" />
<glyph unicode="C" horiz-adv-x="944" d="M82 403v639q0 188 113 306t294 118q180 0 294 -118.5t114 -305.5v-77h-307v88q0 37 -9 61.5t-25.5 35.5t-32 15t-34.5 4q-20 0 -35.5 -4t-32 -15t-25.5 -35.5t-9 -61.5v-660q0 -71 28.5 -95t73.5 -24t73 24t28 95v111h307v-101q0 -187 -114 -305t-294 -118 q-181 0 -294 117.5t-113 305.5z" />
<glyph unicode="D" horiz-adv-x="1013" d="M117 0v1446h407q185 0 296.5 -121t111.5 -340v-530q0 -218 -111 -336.5t-297 -118.5h-407zM424 293h63q32 0 54 5.5t44 21t33 50t11 87.5v526q0 53 -10.5 87.5t-31.5 51t-43.5 22t-56.5 5.5h-63v-856z" />
<glyph unicode="E" horiz-adv-x="874" d="M117 0v1446h684v-299h-379v-287h289v-268h-289v-297h379v-295h-684z" />
<glyph unicode="F" horiz-adv-x="829" d="M117 0v1446h657v-299h-352v-287h266v-268h-266v-592h-305z" />
<glyph unicode="G" horiz-adv-x="976" d="M82 403v637q0 189 112.5 307.5t292.5 118.5q177 0 290 -115t118 -298h-307q0 70 -28 93t-73 23t-72.5 -23t-27.5 -93v-660q0 -69 28.5 -93t71.5 -24q101 0 101 117v84h-99v266h406v-340q0 -187 -114 -305t-294 -118t-292.5 117.5t-112.5 305.5z" />
<glyph unicode="H" horiz-adv-x="1036" d="M117 0v1446h307v-586h190v586h306v-1446h-306v592h-190v-592h-307z" />
<glyph unicode="I" horiz-adv-x="538" d="M117 0v1446h305v-1446h-305z" />
<glyph unicode="J" horiz-adv-x="960" d="M47 401v93h305v-103q0 -37 9.5 -62t26 -36t32 -15t35.5 -4q19 0 34 4t31.5 15t25.5 36t9 62v1055h307v-1045q0 -186 -113.5 -303.5t-293.5 -117.5q-181 0 -294.5 117.5t-113.5 303.5z" />
<glyph unicode="K" horiz-adv-x="1003" d="M117 0v1446h307v-586h65l152 586h334l-219 -713l219 -733h-334l-152 592h-65v-592h-307z" />
<glyph unicode="L" horiz-adv-x="790" d="M117 0v1446h307v-1151h336v-295h-643z" />
<glyph unicode="M" horiz-adv-x="1249" d="M117 0v1446h305l203 -784l202 784h306v-1446h-306v651l-102 -405h-203l-100 399v-645h-305z" />
<glyph unicode="N" horiz-adv-x="1052" d="M117 0v1446h291l221 -680v680h307v-1446h-291l-221 666v-666h-307z" />
<glyph unicode="O" d="M82 403v637q0 188 113 306t294 118q179 0 293.5 -118.5t114.5 -305.5v-637q0 -187 -114.5 -304t-293.5 -117q-181 0 -294 116.5t-113 304.5zM387 393q0 -37 9 -62t25.5 -36t32 -15t35.5 -4q101 0 101 117v658q0 71 -28 94.5t-73 23.5q-21 0 -36.5 -4t-31.5 -15t-25 -36 t-9 -63v-658z" />
<glyph unicode="P" horiz-adv-x="989" d="M117 0v1446h403q183 0 294.5 -121.5t111.5 -339.5v-201q0 -217 -111 -335.5t-295 -118.5h-96v-330h-307zM424 623h55q25 0 43 2.5t38.5 12.5t33 27t21 48.5t8.5 74.5v195q0 100 -37 133t-107 33h-55v-526z" />
<glyph unicode="Q" d="M82 395v645q0 189 113.5 307.5t293.5 118.5t294 -118.5t114 -307.5v-645q0 -141 -67.5 -245.5t-182.5 -147.5l141 -244h-315l-121 236q-125 42 -197.5 148t-72.5 253zM387 385q0 -37 9 -62t25.5 -36t32 -15t35.5 -4q101 0 101 117v668q0 70 -28 93t-73 23t-73.5 -23 t-28.5 -93v-668z" />
<glyph unicode="R" horiz-adv-x="997" d="M117 0v1446h401q184 0 296 -121.5t112 -339.5v-190q0 -260 -158 -379l154 -416h-332l-101 340h-65v-340h-307zM424 633h55q31 0 52.5 5.5t44 21t34 50.5t11.5 89v184q0 101 -36.5 133.5t-105.5 32.5h-55v-516z" />
<glyph unicode="S" horiz-adv-x="911" d="M41 399h305q0 -67 33.5 -93.5t79.5 -26.5q41 0 70.5 23t29.5 73q0 45 -28 88.5t-72 81.5t-98 77.5t-108 86.5t-98 99t-72 123t-28 152q0 173 110 278t292 105q174 0 286.5 -114t112.5 -293h-301q0 64 -30.5 90.5t-71.5 26.5q-38 0 -66.5 -24t-28.5 -67t28 -84t73.5 -77.5 t100 -76t109 -86t100 -99.5t73.5 -126.5t28 -156.5q0 -183 -112 -291t-301 -108q-183 0 -299.5 116.5t-116.5 302.5z" />
<glyph unicode="T" horiz-adv-x="802" d="M37 1147v299h727v-299h-209v-1147h-309v1147h-209z" />
<glyph unicode="U" horiz-adv-x="1013" d="M98 401v1045h308v-1055q0 -69 28.5 -93t71.5 -24q19 0 34 4t31.5 15t25.5 36t9 62v1055h307v-1045q0 -186 -113.5 -303.5t-293.5 -117.5t-294 117.5t-114 303.5z" />
<glyph unicode="V" horiz-adv-x="909" d="M12 1446h305l136 -842l133 842h307l-277 -1446h-327z" />
<glyph unicode="W" horiz-adv-x="1409" d="M12 1446h305l127 -809l125 809h271l127 -809l125 809h305l-258 -1446h-316l-118 774l-119 -774h-316z" />
<glyph unicode="X" horiz-adv-x="952" d="M12 0l301 745l-284 701h327l121 -338l117 338h328l-283 -701l301 -745h-326l-137 385l-139 -385h-326z" />
<glyph unicode="Y" horiz-adv-x="944" d="M12 1446h316l143 -526l147 526h314l-307 -942v-504h-308v504z" />
<glyph unicode="Z" horiz-adv-x="813" d="M29 0l344 1147h-301v299h686l-346 -1151h346v-295h-729z" />
<glyph unicode="[" horiz-adv-x="614" d="M117 -90v1642h432v-260h-141v-1120h141v-262h-432z" />
<glyph unicode="\" horiz-adv-x="688" d="M12 1556h293l371 -1646h-295z" />
<glyph unicode="]" horiz-adv-x="614" d="M63 -90v262h144v1120h-144v260h435v-1642h-435z" />
<glyph unicode="^" horiz-adv-x="876" d="M63 610l234 619h283l233 -619h-276l-101 355l-96 -355h-277z" />
<glyph unicode="_" horiz-adv-x="921" d="M63 -98h795v-228h-795v228z" />
<glyph unicode="`" d="M203 1485h313l96 -273h-219z" />
<glyph unicode="a" horiz-adv-x="909" d="M78 326v497q0 181 69.5 259.5t194.5 78.5q37 0 71 -9.5t55.5 -23.5t38 -28t23.5 -24l7 -9v82h272v-1149h-272v82q-3 -4 -7.5 -10.5t-22.5 -23t-39 -29t-55 -23t-71 -10.5q-264 0 -264 340zM371 338q0 -45 22 -62.5t53 -17.5q30 0 52 18t22 62v471q0 44 -22.5 63t-51.5 19 q-30 0 -52.5 -18.5t-22.5 -63.5v-471z" />
<glyph unicode="b" horiz-adv-x="909" d="M98 0v1552h291v-485q2 4 5.5 10.5t18.5 23t33 29t50.5 23t70.5 10.5q125 0 193.5 -79.5t68.5 -260.5v-499q0 -181 -68.5 -260.5t-193.5 -79.5q-38 0 -72 10t-55 24t-37 28t-23 24l-7 10v-80h-275zM389 338q0 -46 22 -64t52 -18q74 0 74 82v471q0 82 -74 82q-30 0 -52 -18 t-22 -64v-471z" />
<glyph unicode="c" horiz-adv-x="874" d="M78 408v325q0 203 90.5 316.5t275.5 113.5q172 0 268.5 -98.5t96.5 -276.5v-32h-289v67q0 45 -22.5 62.5t-53.5 17.5q-75 0 -75 -80v-497q0 -82 75 -82q30 0 53 18t23 64v59h289v-33q0 -174 -97 -271t-268 -97q-186 0 -276 111t-90 313z" />
<glyph unicode="d" horiz-adv-x="909" d="M78 324v499q0 340 264 340q37 0 69 -10t51.5 -24t33 -28t18.5 -24l6 -10v485h289v-1552h-272v80q-3 -4 -7.5 -10.5t-22.5 -23t-39 -29t-55 -23t-71 -10.5q-264 0 -264 340zM371 338q0 -82 75 -82q30 0 52 18t22 64v471q0 44 -22.5 63t-51.5 19q-30 0 -52.5 -18.5 t-22.5 -63.5v-471z" />
<glyph unicode="e" horiz-adv-x="882" d="M78 371v411q0 176 96.5 279.5t269.5 103.5q169 0 267 -104t98 -279v-309h-440v-176q0 -43 22 -60.5t53 -17.5q29 0 52.5 16t23.5 50v32h289q0 -151 -92 -242t-273 -91q-174 0 -270 103t-96 284zM369 672h151v170q0 45 -22.5 63.5t-53.5 18.5q-32 0 -53.5 -18.5 t-21.5 -63.5v-170z" />
<glyph unicode="f" horiz-adv-x="618" d="M47 889v260h90v84q0 164 80 246t258 82q9 0 96 -5v-253q-32 4 -47 4q-43 0 -69.5 -23t-26.5 -72v-63h143v-260h-143v-889h-291v889h-90z" />
<glyph unicode="g" horiz-adv-x="909" d="M78 326v497q0 181 69.5 259.5t194.5 78.5q37 0 71 -9.5t55.5 -23.5t38 -28t23.5 -24l7 -9v82h272v-1161q0 -92 -17.5 -161.5t-57.5 -125t-112.5 -84.5t-175.5 -29q-101 0 -173.5 24t-110.5 67t-55 92.5t-17 109.5v4h283v-4q0 -33 20 -50t53 -17t53.5 19t20.5 56v193 q-2 -4 -5.5 -10.5t-18.5 -23t-33.5 -29t-51 -23t-69.5 -10.5q-264 0 -264 340zM371 338q0 -45 22 -62.5t53 -17.5q30 0 52 18t22 62v471q0 44 -22.5 63t-51.5 19q-30 0 -52.5 -18.5t-22.5 -63.5v-471z" />
<glyph unicode="h" horiz-adv-x="913" d="M98 0v1552h291v-485q25 40 75.5 68t113.5 28q59 0 102 -15.5t78 -52t53 -105t18 -167.5v-823h-292v809q0 45 -22 63.5t-52 18.5q-29 0 -51.5 -19t-22.5 -63v-809h-291z" />
<glyph unicode="i" horiz-adv-x="491" d="M72 1417q0 72 51 123t123 51q71 0 122.5 -51t51.5 -123q0 -70 -51.5 -121t-122.5 -51q-72 0 -123 50.5t-51 121.5zM98 0v1149h291v-1149h-291z" />
<glyph unicode="j" horiz-adv-x="495" d="M29 -147q15 0 26 2.5t22.5 9.5t18 23t6.5 40v1221h291v-1159q0 -398 -364 -398v261zM76 1417q0 72 50.5 123t121.5 51q72 0 123 -51t51 -123q0 -71 -51 -121.5t-123 -50.5q-70 0 -121 50.5t-51 121.5z" />
<glyph unicode="k" horiz-adv-x="907" d="M98 0v1552h293v-852h60l110 449h322l-187 -563l187 -586h-322l-110 461h-60v-461h-293z" />
<glyph unicode="l" horiz-adv-x="491" d="M98 0v1552h295v-1552h-295z" />
<glyph unicode="m" horiz-adv-x="1327" d="M98 0v1149h275v-84q2 4 6 10.5t19 23t34 29t51.5 23t69.5 10.5q151 0 215 -114q83 114 219 114q123 0 189.5 -79t66.5 -261v-821h-293v807q0 82 -67 82q-28 0 -48 -19.5t-20 -62.5v-807h-291v807q0 82 -69 82q-66 0 -66 -82v-807h-291z" />
<glyph unicode="n" horiz-adv-x="913" d="M98 0v1149h275v-84q2 4 7 10.5t22.5 23t38 29t54.5 23t72 10.5q125 0 193.5 -79.5t68.5 -260.5v-821h-292v807q0 45 -22 63.5t-52 18.5q-29 0 -51.5 -19t-22.5 -63v-807h-291z" />
<glyph unicode="o" horiz-adv-x="888" d="M78 369v411q0 176 96.5 279.5t269.5 103.5q169 0 267 -104t98 -279v-411q0 -180 -97.5 -283.5t-267.5 -103.5q-174 0 -270 103t-96 284zM369 326q0 -82 75 -82q30 0 53 18t23 64v493q0 45 -22.5 63.5t-53.5 18.5q-32 0 -53.5 -18.5t-21.5 -63.5v-493z" />
<glyph unicode="p" horiz-adv-x="913" d="M98 -403v1552h275v-82q2 4 7 10t22.5 22.5t38 29t54.5 22.5t72 10q125 0 193.5 -78.5t68.5 -259.5v-497q0 -181 -68.5 -260.5t-193.5 -79.5q-38 0 -70 10t-51 24t-33 28t-19 24l-5 10v-485h-291zM389 338q0 -44 22 -62t52 -18q74 0 74 80v471q0 45 -22 63.5t-52 18.5 q-29 0 -51.5 -19t-22.5 -63v-471z" />
<glyph unicode="q" horiz-adv-x="913" d="M84 326v497q0 181 68.5 259.5t193.5 78.5q38 0 72 -9.5t55.5 -23.5t37.5 -28t23 -24l7 -9v82h274v-1552h-291v485q-2 -4 -5.5 -10.5t-18.5 -23t-33 -29t-50.5 -23t-70.5 -10.5q-125 0 -193.5 79.5t-68.5 260.5zM377 338q0 -80 74 -80q29 0 51 18t22 62v471q0 45 -22 63.5 t-51 18.5q-30 0 -52 -18.5t-22 -63.5v-471z" />
<glyph unicode="r" horiz-adv-x="651" d="M98 0v1149h275v-84q2 5 6 13t21.5 27t40.5 32.5t66 21.5q25 5 52 4q21 0 43 -2v-291q-22 2 -42 2q-78 0 -119 -34q-52 -43 -52 -156v-682h-291z" />
<glyph unicode="s" horiz-adv-x="860" d="M55 319h291q0 -94 88 -94q30 0 51 16t21 46q0 45 -57 102q-32 31 -90 76t-102.5 82t-89.5 84.5t-70 105t-25 121.5q0 141 92.5 224t255.5 83q179 0 276 -81.5t97 -245.5h-289q0 90 -70 90q-31 0 -50 -16.5t-19 -45.5q0 -47 55 -96q30 -27 91 -73t104 -82.5t89.5 -86.5 t71.5 -110t25 -127q0 -152 -93.5 -231.5t-273.5 -79.5q-177 0 -278 89t-101 250z" />
<glyph unicode="t" horiz-adv-x="618" d="M47 889v244q104 0 141 47.5t37 173.5h203v-205h143v-260h-143v-561q0 -52 33 -70q19 -11 54 -12q24 0 56 6v-262q-46 -5 -88 -5q-65 0 -117 12q-85 19 -134.5 69t-72 122t-22.5 172v529h-90z" />
<glyph unicode="u" horiz-adv-x="899" d="M84 369v780h291v-823q0 -82 74 -82q75 0 75 82v823h291v-780q0 -180 -97.5 -283.5t-268.5 -103.5q-174 0 -269.5 103t-95.5 284z" />
<glyph unicode="v" horiz-adv-x="849" d="M12 1149h305l109 -647l104 647h308l-256 -1149h-314z" />
<glyph unicode="w" horiz-adv-x="1259" d="M12 1149h293l98 -594l99 594h256l98 -594l98 594h293l-233 -1149h-291l-94 571l-92 -571h-291z" />
<glyph unicode="x" horiz-adv-x="913" d="M20 0l275 590l-258 559h321l97 -260l98 260h324l-259 -559l275 -590h-322l-116 301l-115 -301h-320z" />
<glyph unicode="y" horiz-adv-x="849" d="M12 1149h305l109 -621l104 621h308l-363 -1552h-293l97 403z" />
<glyph unicode="z" horiz-adv-x="763" d="M47 0l287 889h-242v260h625l-287 -889h281v-260h-664z" />
<glyph unicode="{" horiz-adv-x="618" d="M47 608v244q63 0 85 16.5t22 59.5v227q0 210 91 303.5t308 93.5v-260q-61 0 -85 -16.5t-24 -58.5v-228q0 -97 -35.5 -169t-101.5 -93q66 -21 101.5 -91t35.5 -165v-227q0 -42 24 -59t85 -17v-260q-217 0 -308 93.5t-91 303.5v230q0 42 -22 57.5t-85 15.5z" />
<glyph unicode="|" horiz-adv-x="491" d="M98 -90v1642h295v-1642h-295z" />
<glyph unicode="}" horiz-adv-x="618" d="M63 -92v260q61 0 85 17t24 59v227q0 95 36 165t101 91q-64 20 -100.5 92.5t-36.5 169.5v228q0 42 -24 58.5t-85 16.5v260q217 0 308.5 -93.5t91.5 -303.5v-229q0 -42 22 -58t86 -16v-244q-64 0 -86 -16.5t-22 -59.5v-227q0 -210 -91.5 -303.5t-308.5 -93.5z" />
<glyph unicode="&#xa1;" horiz-adv-x="475" d="M63 1288q0 72 51.5 121t123.5 49q71 0 121.5 -49.5t50.5 -120.5q0 -72 -50.5 -123t-121.5 -51q-72 0 -123.5 51t-51.5 123zM66 193q0 57 18.5 167t55.5 302t61 335h71q24 -137 62.5 -333.5t57 -305t18.5 -165.5q0 -89 -43 -148t-129 -59t-129 59t-43 148z" />
<glyph unicode="&#xa2;" horiz-adv-x="868" d="M72 362v416q0 136 56 229.5t161 131.5v147h106v-123q7 0 21 1t22 1q7 0 21 -1t20 -1v123h107v-145q104 -37 160.5 -127.5t56.5 -225.5v-32h-289v67q0 80 -76 80t-76 -80v-497q0 -46 22.5 -64t53.5 -18q30 0 53 18t23 64v59h289v-33q0 -132 -56.5 -222.5t-160.5 -125.5 v-145h-107v125q-6 0 -20 -1t-21 -1q-8 0 -22 1t-21 1v-125h-106v147q-104 40 -160.5 132t-56.5 224z" />
<glyph unicode="&#xa3;" horiz-adv-x="952" d="M84 0v295h242q-3 91 -29 188h-213v107h176l-37 84h-139v106h102q-22 62 -34.5 101.5t-23.5 97t-11 108.5q0 170 106.5 274.5t278.5 104.5q168 0 276.5 -112.5t108.5 -294.5h-297q0 67 -22.5 92t-63.5 25q-86 0 -86 -99q0 -20 1.5 -39t6.5 -43.5t7.5 -38t12 -45t12 -40 t15 -47.5t14.5 -44h236v-106h-197q15 -40 27 -84h170v-107h-143q13 -94 16 -188h266v-295h-778z" />
<glyph unicode="&#xa5;" horiz-adv-x="944" d="M12 1446h316l143 -526l147 526h314l-307 -942v-60h127v-104h-127v-86h127v-107h-127v-147h-308v147h-129v107h129v86h-129v104h129v60z" />
<glyph unicode="&#xa6;" horiz-adv-x="491" d="M98 -90v715h295v-715h-295zM98 848v704h295v-704h-295z" />
<glyph unicode="&#xa8;" d="M190 1331q0 54 37.5 92.5t91.5 38.5t93 -38.5t39 -92.5t-39 -91.5t-93 -37.5t-91.5 37.5t-37.5 91.5zM528 1331q0 54 37.5 92.5t91.5 38.5t92.5 -38.5t38.5 -92.5t-38.5 -91.5t-92.5 -37.5t-91.5 37.5t-37.5 91.5z" />
<glyph unicode="&#xa9;" horiz-adv-x="1107" d="M98 449v542q0 220 127 346.5t334 126.5q204 0 327.5 -126.5t123.5 -346.5v-542q0 -218 -123.5 -341.5t-327.5 -123.5q-208 0 -334.5 123.5t-126.5 341.5zM203 449q0 -169 98 -265t258 -96q158 0 252 96t94 265v542q0 171 -94.5 270t-251.5 99q-159 0 -257.5 -99 t-98.5 -270v-542zM293 446v545q0 130 70.5 203.5t195.5 73.5t194.5 -70t69.5 -197v-186h-211v209q0 59 -53 59q-55 0 -55 -59v-604q0 -58 55 -58q21 0 37 13t16 45v211h211v-189q0 -126 -69.5 -196t-194.5 -70t-195.5 72.5t-70.5 197.5z" />
<glyph unicode="&#xaa;" horiz-adv-x="911" d="M82 748v370q0 181 68.5 260.5t193.5 79.5q38 0 72 -10t55.5 -24t37.5 -28t23 -24l7 -10v84h274v-1024h-274v82q-2 -4 -7 -10.5t-22.5 -23t-38.5 -29t-55 -23t-72 -10.5q-125 0 -193.5 79.5t-68.5 260.5zM276 156q0 72 50.5 123t122.5 51t123 -51t51 -123t-51 -122 t-123 -50t-122.5 50t-50.5 122zM375 762q0 -45 22 -63.5t52 -18.5q29 0 51 18.5t22 63.5v342q0 46 -21.5 64t-51.5 18q-74 0 -74 -82v-342z" />
<glyph unicode="&#xab;" horiz-adv-x="1019" d="M63 590l230 354h219l-135 -354l135 -352h-219zM508 590l227 354h219l-133 -354l133 -352h-219z" />
<glyph unicode="&#xad;" horiz-adv-x="593" d="M63 477v228h465v-228h-465z" />
<glyph unicode="&#xae;" horiz-adv-x="1107" d="M98 537v366q0 268 114.5 414.5t346.5 146.5q229 0 340 -146t111 -415v-366q0 -551 -451 -551q-461 0 -461 551zM203 518q0 -209 88 -319.5t268 -110.5q346 0 346 430v404q0 209 -85 323.5t-261 114.5q-180 0 -268 -114t-88 -324v-404zM305 233v984h250q142 0 204 -86.5 t62 -262.5v-47q0 -110 -24 -179.5t-80 -111.5l98 -297h-219l-59 248h-31v-248h-201zM506 670h24q46 0 68.5 26.5t22.5 108.5v57q0 100 -21.5 131t-69.5 31h-24v-354z" />
<glyph unicode="&#xaf;" d="M240 1217v204h497v-204h-497z" />
<glyph unicode="&#xb0;" horiz-adv-x="692" d="M82 1178v10q0 128 69 202t195 74q124 0 194 -74.5t70 -201.5v-10q0 -131 -70 -205t-194 -74q-127 0 -195.5 73.5t-68.5 205.5zM293 1147q0 -60 53 -60t53 60v67q0 60 -53 60t-53 -60v-67z" />
<glyph unicode="&#xb4;" d="M365 1212l96 273h313l-190 -273h-219z" />
<glyph unicode="&#xb6;" horiz-adv-x="741" d="M82 1034v207q0 113 42.5 159t121.5 46h395v-1538h-272v915h-123q-164 0 -164 211z" />
<glyph unicode="&#xb7;" horiz-adv-x="475" d="M63 592q0 71 51.5 122.5t121.5 51.5q72 0 123 -51.5t51 -122.5q0 -72 -51 -123t-123 -51q-71 0 -122 51t-51 123z" />
<glyph unicode="&#xb8;" d="M240 -317l194 358h168l-49 -358h-313z" />
<glyph unicode="&#xba;" horiz-adv-x="876" d="M72 793v288q0 175 96.5 278t269.5 103q169 0 267 -103.5t98 -277.5v-288q0 -179 -97.5 -282t-267.5 -103q-174 0 -270 102.5t-96 282.5zM266 156q0 72 50 123t122 51t123 -51t51 -123t-51 -122t-123 -50t-122 50t-50 122zM362 750q0 -45 22.5 -63.5t53.5 -18.5 q30 0 53 19t23 63v368q0 46 -22.5 64t-53.5 18q-76 0 -76 -82v-368z" />
<glyph unicode="&#xbb;" horiz-adv-x="1019" d="M63 238l136 352l-136 354h220l229 -354l-229 -352h-220zM508 238l133 352l-133 354h219l227 -354l-227 -352h-219z" />
<glyph unicode="&#xbf;" horiz-adv-x="876" d="M47 328q0 77 24 141t62 108t83.5 83t90 74.5t80 73t55.5 87.5t15 109h82q28 -75 32 -141t-11 -116t-39.5 -94t-54.5 -80.5t-56.5 -69t-44 -67.5t-17.5 -67q0 -95 98 -95q42 0 71.5 26.5t29.5 90.5h301q0 -193 -107 -300t-295 -107q-175 0 -287 96.5t-112 247.5zM324 1294 q0 72 50 122t122 50t123 -50t51 -122t-51 -123t-123 -51t-122 51t-50 123z" />
<glyph unicode="&#xc0;" d="M12 0l316 1446h327l312 -1446h-305l-46 244h-251l-48 -244h-305zM219 1833h313l97 -272h-219zM416 508h149l-71 477z" />
<glyph unicode="&#xc1;" d="M12 0l316 1446h327l312 -1446h-305l-46 244h-251l-48 -244h-305zM365 1561l96 272h313l-190 -272h-219zM416 508h149l-71 477z" />
<glyph unicode="&#xc2;" d="M12 0l316 1446h327l312 -1446h-305l-46 244h-251l-48 -244h-305zM205 1536l147 274h281l147 -274h-219l-67 100l-70 -100h-219zM416 508h149l-71 477z" />
<glyph unicode="&#xc3;" d="M12 0l316 1446h327l312 -1446h-305l-46 244h-251l-48 -244h-305zM205 1561v227q66 34 128.5 39.5t112.5 -7.5t99.5 -25.5t111.5 -7t127 41.5v-230q-49 -29 -93.5 -40t-80.5 -6t-71.5 15.5t-71.5 21.5t-74 16t-86.5 -5.5t-101.5 -39.5zM416 508h149l-71 477z" />
<glyph unicode="&#xc4;" d="M12 0l316 1446h327l312 -1446h-305l-46 244h-251l-48 -244h-305zM193 1679q0 54 37.5 92.5t91.5 38.5t92.5 -38.5t38.5 -92.5t-38.5 -91.5t-92.5 -37.5t-91.5 37.5t-37.5 91.5zM416 508h149l-71 477zM530 1679q0 54 37.5 92.5t91.5 38.5t93 -38.5t39 -92.5t-39 -91.5 t-93 -37.5t-91.5 37.5t-37.5 91.5z" />
<glyph unicode="&#xc5;" d="M12 0l316 1446h327l312 -1446h-305l-46 244h-251l-48 -244h-305zM317 1729q0 71 51.5 122.5t123.5 51.5q70 0 122 -51.5t52 -122.5q0 -72 -51.5 -123.5t-122.5 -51.5q-72 0 -123.5 51.5t-51.5 123.5zM416 508h149l-71 477zM451 1731q0 -17 12 -29t29 -12q18 0 29 11.5 t11 29.5t-11 29.5t-29 11.5q-17 0 -29 -12t-12 -29z" />
<glyph unicode="&#xc6;" horiz-adv-x="1435" d="M12 0l559 1446h791v-299h-377v-287h287v-268h-287v-297h377v-295h-684v244h-254l-88 -244h-324zM520 510h156q0 75 1 225t1 223z" />
<glyph unicode="&#xc7;" horiz-adv-x="960" d="M82 403v639q0 188 113 306t294 118q180 0 294 -118.5t114 -305.5v-77h-307v88q0 37 -9 61.5t-25.5 35.5t-32 15t-34.5 4q-20 0 -35.5 -4t-32 -15t-25.5 -35.5t-9 -61.5v-660q0 -71 28.5 -95t73.5 -24t73 24t28 95v111h307v-101q0 -158 -84 -269t-223 -142l-41 -307h-313 l161 305q-143 28 -229 139.5t-86 273.5z" />
<glyph unicode="&#xc8;" horiz-adv-x="874" d="M117 0v1446h684v-299h-379v-287h289v-268h-289v-297h379v-295h-684zM205 1833h313l96 -272h-219z" />
<glyph unicode="&#xc9;" horiz-adv-x="874" d="M117 0v1446h684v-299h-379v-287h289v-268h-289v-297h379v-295h-684zM324 1561l96 272h313l-190 -272h-219z" />
<glyph unicode="&#xca;" horiz-adv-x="874" d="M117 0v1446h684v-299h-379v-287h289v-268h-289v-297h379v-295h-684zM166 1561l147 274h281l147 -274h-219l-67 100l-70 -100h-219z" />
<glyph unicode="&#xcb;" horiz-adv-x="874" d="M117 0v1446h684v-299h-379v-287h289v-268h-289v-297h379v-295h-684zM160 1679q0 54 37.5 92.5t91.5 38.5t92.5 -38.5t38.5 -92.5t-38.5 -91.5t-92.5 -37.5t-91.5 37.5t-37.5 91.5zM498 1679q0 54 37.5 92.5t91.5 38.5t92.5 -38.5t38.5 -92.5t-38.5 -91.5t-92.5 -37.5 t-91.5 37.5t-37.5 91.5z" />
<glyph unicode="&#xcc;" horiz-adv-x="526" d="M-10 1833h313l96 -272h-219zM117 0v1446h305v-1446h-305z" />
<glyph unicode="&#xcd;" horiz-adv-x="532" d="M117 0v1446h305v-1446h-305zM121 1561l96 272h313l-190 -272h-219z" />
<glyph unicode="&#xce;" horiz-adv-x="528" d="M-20 1561l147 274h281l147 -274h-219l-68 100l-69 -100h-219zM117 0v1446h305v-1446h-305z" />
<glyph unicode="&#xcf;" horiz-adv-x="528" d="M-29 1679q0 54 37.5 92.5t91.5 38.5t92.5 -38.5t38.5 -92.5t-38.5 -91.5t-92.5 -37.5t-91.5 37.5t-37.5 91.5zM117 0v1446h305v-1446h-305zM309 1679q0 54 37.5 92.5t91.5 38.5t92.5 -38.5t38.5 -92.5t-38.5 -91.5t-92.5 -37.5t-91.5 37.5t-37.5 91.5z" />
<glyph unicode="&#xd0;" horiz-adv-x="1013" d="M12 682v104h105v660h407q185 0 296.5 -121t111.5 -340v-530q0 -218 -111 -336.5t-297 -118.5h-407v682h-105zM424 293h63q27 0 48.5 5.5t44.5 21t36 50.5t13 87v526q0 42 -8.5 73.5t-22 48.5t-33.5 27.5t-37.5 13.5t-40.5 3h-63v-363h100v-104h-100v-389z" />
<glyph unicode="&#xd1;" horiz-adv-x="1052" d="M117 0v1446h291l221 -680v680h307v-1446h-291l-221 666v-666h-307zM238 1561v227q66 34 128.5 39.5t112.5 -7.5t99.5 -25.5t111.5 -7t127 41.5v-230q-49 -29 -93.5 -40t-80.5 -6t-71.5 15.5t-71.5 21.5t-74 16t-86.5 -5.5t-101.5 -39.5z" />
<glyph unicode="&#xd2;" d="M82 403v637q0 188 113 306t294 118q179 0 293.5 -118.5t114.5 -305.5v-637q0 -187 -114.5 -304t-293.5 -117q-181 0 -294 116.5t-113 304.5zM207 1833h313l96 -272h-219zM387 393q0 -37 9 -62t25.5 -36t32 -15t35.5 -4q101 0 101 117v658q0 71 -28 94.5t-73 23.5 q-21 0 -36.5 -4t-31.5 -15t-25 -36t-9 -63v-658z" />
<glyph unicode="&#xd3;" d="M82 403v637q0 188 113 306t294 118q179 0 293.5 -118.5t114.5 -305.5v-637q0 -187 -114.5 -304t-293.5 -117q-181 0 -294 116.5t-113 304.5zM379 1561l96 272h313l-190 -272h-219zM387 393q0 -37 9 -62t25.5 -36t32 -15t35.5 -4q101 0 101 117v658q0 71 -28 94.5 t-73 23.5q-21 0 -36.5 -4t-31.5 -15t-25 -36t-9 -63v-658z" />
<glyph unicode="&#xd4;" d="M82 403v637q0 188 113 306t294 118q179 0 293.5 -118.5t114.5 -305.5v-637q0 -187 -114.5 -304t-293.5 -117q-181 0 -294 116.5t-113 304.5zM201 1561l147 274h281l147 -274h-219l-68 100l-69 -100h-219zM387 393q0 -37 9 -62t25.5 -36t32 -15t35.5 -4q101 0 101 117v658 q0 71 -28 94.5t-73 23.5q-21 0 -36.5 -4t-31.5 -15t-25 -36t-9 -63v-658z" />
<glyph unicode="&#xd5;" d="M82 403v637q0 188 113 306t294 118q179 0 293.5 -118.5t114.5 -305.5v-637q0 -187 -114.5 -304t-293.5 -117q-181 0 -294 116.5t-113 304.5zM201 1561v227q66 34 128.5 39.5t112.5 -7.5t99.5 -25.5t111.5 -7t127 41.5v-230q-49 -29 -93.5 -40t-80.5 -6t-71.5 15.5 t-71.5 21.5t-74 16t-86.5 -5.5t-101.5 -39.5zM387 393q0 -37 9 -62t25.5 -36t32 -15t35.5 -4q101 0 101 117v658q0 71 -28 94.5t-73 23.5q-21 0 -36.5 -4t-31.5 -15t-25 -36t-9 -63v-658z" />
<glyph unicode="&#xd6;" d="M82 403v637q0 188 113 306t294 118q179 0 293.5 -118.5t114.5 -305.5v-637q0 -187 -114.5 -304t-293.5 -117q-181 0 -294 116.5t-113 304.5zM188 1679q0 54 37.5 92.5t91.5 38.5t93 -38.5t39 -92.5t-39 -91.5t-93 -37.5t-91.5 37.5t-37.5 91.5zM387 393q0 -37 9 -62 t25.5 -36t32 -15t35.5 -4q101 0 101 117v658q0 71 -28 94.5t-73 23.5q-21 0 -36.5 -4t-31.5 -15t-25 -36t-9 -63v-658zM526 1679q0 54 37.5 92.5t91.5 38.5t92.5 -38.5t38.5 -92.5t-38.5 -91.5t-92.5 -37.5t-91.5 37.5t-37.5 91.5z" />
<glyph unicode="&#xd7;" horiz-adv-x="915" d="M82 543l188 188l-188 189l188 188l187 -190l188 190l189 -188l-191 -189l191 -188l-189 -189l-188 189l-187 -189z" />
<glyph unicode="&#xd8;" horiz-adv-x="1036" d="M96 492v458q0 233 102 372.5t308 139.5q80 0 147 -24l43 145h107l-58 -194q170 -118 170 -439v-458q0 -233 -103 -370.5t-306 -137.5q-81 0 -152 22l-41 -143h-106l55 192q-93 68 -129.5 170t-36.5 267zM403 553l166 594q-20 22 -63 22q-21 0 -36.5 -4t-32 -15t-25.5 -36 t-9 -63v-498zM438 297q21 -21 68 -21q19 0 34 4t31.5 15t25.5 36t9 62v498q-109 -381 -168 -594z" />
<glyph unicode="&#xd9;" horiz-adv-x="1013" d="M98 401v1045h308v-1055q0 -69 28.5 -93t71.5 -24q19 0 34 4t31.5 15t25.5 36t9 62v1055h307v-1045q0 -186 -113.5 -303.5t-293.5 -117.5t-294 117.5t-114 303.5zM225 1833h314l96 -272h-219z" />
<glyph unicode="&#xda;" horiz-adv-x="1013" d="M98 401v1045h308v-1055q0 -69 28.5 -93t71.5 -24q19 0 34 4t31.5 15t25.5 36t9 62v1055h307v-1045q0 -186 -113.5 -303.5t-293.5 -117.5t-294 117.5t-114 303.5zM401 1561l97 272h313l-190 -272h-220z" />
<glyph unicode="&#xdb;" horiz-adv-x="1013" d="M98 401v1045h308v-1055q0 -69 28.5 -93t71.5 -24q19 0 34 4t31.5 15t25.5 36t9 62v1055h307v-1045q0 -186 -113.5 -303.5t-293.5 -117.5t-294 117.5t-114 303.5zM217 1561l148 274h280l148 -274h-220l-67 100l-70 -100h-219z" />
<glyph unicode="&#xdc;" horiz-adv-x="1013" d="M98 401v1045h308v-1055q0 -69 28.5 -93t71.5 -24q19 0 34 4t31.5 15t25.5 36t9 62v1055h307v-1045q0 -186 -113.5 -303.5t-293.5 -117.5t-294 117.5t-114 303.5zM209 1679q0 54 37.5 92.5t91.5 38.5t92.5 -38.5t38.5 -92.5t-38.5 -91.5t-92.5 -37.5t-91.5 37.5 t-37.5 91.5zM547 1679q0 54 37.5 92.5t91.5 38.5t92.5 -38.5t38.5 -92.5t-38.5 -91.5t-92.5 -37.5t-91.5 37.5t-37.5 91.5z" />
<glyph unicode="&#xdd;" horiz-adv-x="944" d="M12 1446h316l143 -526l147 526h314l-307 -942v-504h-308v504zM367 1561l96 272h313l-190 -272h-219z" />
<glyph unicode="&#xde;" horiz-adv-x="980" d="M117 0v1446h305v-158h98q183 0 294.5 -122t111.5 -341v-202q0 -219 -111 -337t-295 -118h-96v-168h-307zM424 461h55q27 0 49 5.5t45.5 21t36.5 50.5t13 87v200q0 42 -9 73.5t-22 48.5t-33 27.5t-38.5 13.5t-41.5 3h-55v-530z" />
<glyph unicode="&#xdf;" horiz-adv-x="1101" d="M47 889v260h90q0 82 10 145t36.5 120.5t71 94.5t116 58.5t168.5 21.5h20q406 0 406 -305v-37q0 -85 -38 -136.5t-120 -76.5q70 -17 115.5 -49t70 -83.5t34 -112t9.5 -148.5v-223q0 -434 -366 -434q-46 0 -111 10v258q12 -2 35 -2q42 0 71.5 14t45.5 34.5t24.5 58.5 t10.5 71.5t2 87.5v51q0 170 -10 217q-15 70 -71 91q-39 14 -108 14v260q107 0 107 76v28q0 39 -22 61.5t-85 22.5h-27q-17 0 -31 -3t-24 -6.5t-18 -13t-13.5 -15.5t-9 -20.5t-5 -21.5t-2.5 -26t-1 -26.5v-30v-29.5v-1145h-291v889h-90z" />
<glyph unicode="&#xe0;" horiz-adv-x="909" d="M78 326v497q0 181 69.5 259.5t194.5 78.5q37 0 71 -9.5t55.5 -23.5t38 -28t23.5 -24l7 -9v82h272v-1149h-272v82q-3 -4 -7.5 -10.5t-22.5 -23t-39 -29t-55 -23t-71 -10.5q-264 0 -264 340zM195 1534h313l96 -272h-219zM371 338q0 -45 22 -62.5t53 -17.5q30 0 52 18t22 62 v471q0 44 -22.5 63t-51.5 19q-30 0 -52.5 -18.5t-22.5 -63.5v-471z" />
<glyph unicode="&#xe1;" horiz-adv-x="909" d="M78 326v497q0 181 69.5 259.5t194.5 78.5q37 0 71 -9.5t55.5 -23.5t38 -28t23.5 -24l7 -9v82h272v-1149h-272v82q-3 -4 -7.5 -10.5t-22.5 -23t-39 -29t-55 -23t-71 -10.5q-264 0 -264 340zM324 1264l96 272h313l-190 -272h-219zM371 338q0 -45 22 -62.5t53 -17.5 q30 0 52 18t22 62v471q0 44 -22.5 63t-51.5 19q-30 0 -52.5 -18.5t-22.5 -63.5v-471z" />
<glyph unicode="&#xe2;" horiz-adv-x="909" d="M78 326v497q0 181 69.5 259.5t194.5 78.5q37 0 71 -9.5t55.5 -23.5t38 -28t23.5 -24l7 -9v82h272v-1149h-272v82q-3 -4 -7.5 -10.5t-22.5 -23t-39 -29t-55 -23t-71 -10.5q-264 0 -264 340zM170 1262l147 274h281l147 -274h-219l-67 100l-70 -100h-219zM371 338 q0 -45 22 -62.5t53 -17.5q30 0 52 18t22 62v471q0 44 -22.5 63t-51.5 19q-30 0 -52.5 -18.5t-22.5 -63.5v-471z" />
<glyph unicode="&#xe3;" horiz-adv-x="909" d="M78 326v497q0 181 69.5 259.5t194.5 78.5q37 0 71 -9.5t55.5 -23.5t38 -28t23.5 -24l7 -9v82h272v-1149h-272v82q-3 -4 -7.5 -10.5t-22.5 -23t-39 -29t-55 -23t-71 -10.5q-264 0 -264 340zM172 1255v228q66 34 129 39.5t112.5 -7.5t99.5 -25.5t112 -7t127 41.5v-230 q-56 -34 -108 -43.5t-90.5 0.5t-83 22.5t-85 23t-96.5 1t-117 -42.5zM371 338q0 -45 22 -62.5t53 -17.5q30 0 52 18t22 62v471q0 44 -22.5 63t-51.5 19q-30 0 -52.5 -18.5t-22.5 -63.5v-471z" />
<glyph unicode="&#xe4;" horiz-adv-x="911" d="M78 326v497q0 181 69.5 259.5t194.5 78.5q37 0 71 -9.5t55.5 -23.5t38 -28t23.5 -24l7 -9v82h272v-1149h-272v82q-3 -4 -7.5 -10.5t-22.5 -23t-39 -29t-55 -23t-71 -10.5q-264 0 -264 340zM168 1382q0 54 37.5 92.5t91.5 38.5t92.5 -38.5t38.5 -92.5t-38.5 -91.5 t-92.5 -37.5t-91.5 37.5t-37.5 91.5zM371 338q0 -45 22 -62.5t53 -17.5q30 0 52 18t22 62v471q0 44 -22.5 63t-51.5 19q-30 0 -52.5 -18.5t-22.5 -63.5v-471zM506 1382q0 54 37.5 92.5t91.5 38.5t92.5 -38.5t38.5 -92.5t-38.5 -91.5t-92.5 -37.5t-91.5 37.5t-37.5 91.5z" />
<glyph unicode="&#xe5;" horiz-adv-x="909" d="M78 326v497q0 181 69.5 259.5t194.5 78.5q37 0 71 -9.5t55.5 -23.5t38 -28t23.5 -24l7 -9v82h272v-1149h-272v82q-3 -4 -7.5 -10.5t-22.5 -23t-39 -29t-55 -23t-71 -10.5q-264 0 -264 340zM317 1425q0 71 51.5 122.5t123.5 51.5q70 0 122 -51.5t52 -122.5 q0 -72 -51.5 -123t-122.5 -51q-72 0 -123.5 51t-51.5 123zM371 338q0 -45 22 -62.5t53 -17.5q30 0 52 18t22 62v471q0 44 -22.5 63t-51.5 19q-30 0 -52.5 -18.5t-22.5 -63.5v-471zM451 1427q0 -17 12 -29t29 -12q18 0 29 11.5t11 29.5t-11 29.5t-29 11.5q-17 0 -29 -12 t-12 -29z" />
<glyph unicode="&#xe6;" horiz-adv-x="1316" d="M78 326v497q0 181 69.5 259.5t194.5 78.5q37 0 71 -9.5t55.5 -23.5t38 -28t23.5 -24l7 -9v82h272v-82q2 4 7 10t22 22.5t37 29t53 22.5t69 10q121 0 187.5 -78.5t66.5 -259.5v-350h-442v-176q0 -43 22.5 -60.5t53.5 -17.5q29 0 52.5 16t23.5 50v24h290v-6 q0 -174 -66 -245.5t-188 -71.5q-36 0 -68.5 10t-53.5 24t-36.5 28t-22.5 24l-7 10v-82h-272v82q-3 -4 -7.5 -10.5t-22.5 -23t-39 -29t-55 -23t-71 -10.5q-264 0 -264 340zM371 338q0 -45 22 -62.5t53 -17.5q30 0 52 18t22 62v471q0 44 -22.5 63t-51.5 19q-30 0 -52.5 -18.5 t-22.5 -63.5v-471zM809 672h152v170q0 45 -22.5 62.5t-53.5 17.5q-71 0 -76 -72v-178z" />
<glyph unicode="&#xe7;" horiz-adv-x="874" d="M78 362v416q0 179 97 282t269 103t268.5 -98.5t96.5 -276.5v-32h-289v67q0 45 -22.5 62.5t-53.5 17.5q-75 0 -75 -80v-497q0 -82 75 -82q30 0 53 18t23 64v59h289v-33q0 -148 -70 -242t-198 -120l-43 -307h-314l168 307q-130 26 -202 124t-72 248z" />
<glyph unicode="&#xe8;" horiz-adv-x="876" d="M72 371v411q0 176 96.5 279.5t269.5 103.5q169 0 267 -104t98 -279v-309h-441v-176q0 -43 22.5 -60.5t53.5 -17.5q29 0 52.5 16t23.5 50v32h289q0 -151 -92 -242t-273 -91q-174 0 -270 103t-96 284zM145 1536h314l96 -272h-219zM362 672h152v170q0 45 -22.5 63.5 t-53.5 18.5q-32 0 -54 -18.5t-22 -63.5v-170z" />
<glyph unicode="&#xe9;" horiz-adv-x="876" d="M72 371v411q0 176 96.5 279.5t269.5 103.5q169 0 267 -104t98 -279v-309h-441v-176q0 -43 22.5 -60.5t53.5 -17.5q29 0 52.5 16t23.5 50v32h289q0 -151 -92 -242t-273 -91q-174 0 -270 103t-96 284zM326 1264l96 272h313l-190 -272h-219zM362 672h152v170 q0 45 -22.5 63.5t-53.5 18.5q-32 0 -54 -18.5t-22 -63.5v-170z" />
<glyph unicode="&#xea;" horiz-adv-x="876" d="M72 371v411q0 176 96.5 279.5t269.5 103.5q169 0 267 -104t98 -279v-309h-441v-176q0 -43 22.5 -60.5t53.5 -17.5q29 0 52.5 16t23.5 50v32h289q0 -151 -92 -242t-273 -91q-174 0 -270 103t-96 284zM147 1260l148 274h280l148 -274h-219l-68 100l-69 -100h-220zM362 672 h152v170q0 45 -22.5 63.5t-53.5 18.5q-32 0 -54 -18.5t-22 -63.5v-170z" />
<glyph unicode="&#xeb;" horiz-adv-x="876" d="M72 371v411q0 176 96.5 279.5t269.5 103.5q169 0 267 -104t98 -279v-309h-441v-176q0 -43 22.5 -60.5t53.5 -17.5q29 0 52.5 16t23.5 50v32h289q0 -151 -92 -242t-273 -91q-174 0 -270 103t-96 284zM137 1380q0 54 37.5 92.5t91.5 38.5t92.5 -38.5t38.5 -92.5 t-38.5 -91.5t-92.5 -37.5t-91.5 37.5t-37.5 91.5zM362 672h152v170q0 45 -22.5 63.5t-53.5 18.5q-32 0 -54 -18.5t-22 -63.5v-170zM475 1380q0 54 37.5 92.5t91.5 38.5t92.5 -38.5t38.5 -92.5t-38.5 -91.5t-92.5 -37.5t-91.5 37.5t-37.5 91.5z" />
<glyph unicode="&#xec;" horiz-adv-x="499" d="M-33 1536h314l96 -272h-219zM98 0v1149h291v-1149h-291z" />
<glyph unicode="&#xed;" horiz-adv-x="491" d="M98 0v1149h291v-1149h-291zM106 1264l97 272h313l-190 -272h-220z" />
<glyph unicode="&#xee;" horiz-adv-x="479" d="M-45 1262l147 274h281l147 -274h-219l-67 100l-70 -100h-219zM98 0v1149h291v-1149h-291z" />
<glyph unicode="&#xef;" horiz-adv-x="479" d="M-47 1382q0 54 37.5 92.5t91.5 38.5t92.5 -38.5t38.5 -92.5t-38.5 -91.5t-92.5 -37.5t-91.5 37.5t-37.5 91.5zM98 0v1149h291v-1149h-291zM291 1382q0 54 37.5 92.5t91.5 38.5t92.5 -38.5t38.5 -92.5t-38.5 -91.5t-92.5 -37.5t-91.5 37.5t-37.5 91.5z" />
<glyph unicode="&#xf0;" horiz-adv-x="892" d="M78 377v397q0 182 91.5 279.5t260.5 97.5l-55 127h-156v108h107l-74 166h297l69 -166h156v-108h-108l63 -152q40 -94 62 -180t22 -190v-379q0 -179 -101 -283t-266 -104t-266.5 104t-101.5 283zM371 365q0 -109 75 -109q74 0 74 109v413q0 66 -20 88.5t-54 22.5 q-33 0 -54 -22.5t-21 -88.5v-413z" />
<glyph unicode="&#xf1;" horiz-adv-x="913" d="M98 0v1149h275v-84q2 4 7 10.5t22.5 23t38 29t54.5 23t72 10.5q125 0 193.5 -79.5t68.5 -260.5v-821h-292v807q0 45 -22 63.5t-52 18.5q-29 0 -51.5 -19t-22.5 -63v-807h-291zM172 1264v227q66 34 129 39.5t112.5 -7.5t99.5 -25.5t112 -7t127 41.5v-229 q-56 -34 -108 -43.5t-90.5 0.5t-83 22.5t-85 23t-96.5 1t-117 -42.5z" />
<glyph unicode="&#xf2;" horiz-adv-x="888" d="M78 369v411q0 176 96.5 279.5t269.5 103.5q169 0 267 -104t98 -279v-411q0 -180 -97.5 -283.5t-267.5 -103.5q-174 0 -270 103t-96 284zM168 1526h313l97 -273h-220zM369 326q0 -82 75 -82q30 0 53 18t23 64v493q0 45 -22.5 63.5t-53.5 18.5q-32 0 -53.5 -18.5 t-21.5 -63.5v-493z" />
<glyph unicode="&#xf3;" horiz-adv-x="888" d="M78 369v411q0 176 96.5 279.5t269.5 103.5q169 0 267 -104t98 -279v-411q0 -180 -97.5 -283.5t-267.5 -103.5q-174 0 -270 103t-96 284zM334 1264l96 272h313l-190 -272h-219zM369 326q0 -82 75 -82q30 0 53 18t23 64v493q0 45 -22.5 63.5t-53.5 18.5q-32 0 -53.5 -18.5 t-21.5 -63.5v-493z" />
<glyph unicode="&#xf4;" horiz-adv-x="888" d="M78 369v411q0 176 96.5 279.5t269.5 103.5q169 0 267 -104t98 -279v-411q0 -180 -97.5 -283.5t-267.5 -103.5q-174 0 -270 103t-96 284zM158 1260l147 274h281l147 -274h-219l-68 100l-69 -100h-219zM369 326q0 -82 75 -82q30 0 53 18t23 64v493q0 45 -22.5 63.5 t-53.5 18.5q-32 0 -53.5 -18.5t-21.5 -63.5v-493z" />
<glyph unicode="&#xf5;" horiz-adv-x="888" d="M78 369v411q0 176 96.5 279.5t269.5 103.5q169 0 267 -104t98 -279v-411q0 -180 -97.5 -283.5t-267.5 -103.5q-174 0 -270 103t-96 284zM158 1260v227q66 34 128.5 39.5t112.5 -7.5t99.5 -25.5t111.5 -7t127 41.5v-230q-49 -29 -93.5 -40t-80.5 -6t-71.5 15.5t-71.5 21.5 t-74 16t-86.5 -5.5t-101.5 -39.5zM369 326q0 -82 75 -82q30 0 53 18t23 64v493q0 45 -22.5 63.5t-53.5 18.5q-32 0 -53.5 -18.5t-21.5 -63.5v-493z" />
<glyph unicode="&#xf6;" horiz-adv-x="888" d="M78 369v411q0 176 96.5 279.5t269.5 103.5q169 0 267 -104t98 -279v-411q0 -180 -97.5 -283.5t-267.5 -103.5q-174 0 -270 103t-96 284zM147 1380q0 54 37.5 92.5t91.5 38.5t93 -38.5t39 -92.5t-39 -91.5t-93 -37.5t-91.5 37.5t-37.5 91.5zM369 326q0 -82 75 -82 q30 0 53 18t23 64v493q0 45 -22.5 63.5t-53.5 18.5q-32 0 -53.5 -18.5t-21.5 -63.5v-493zM485 1380q0 54 37.5 92.5t91.5 38.5t92.5 -38.5t38.5 -92.5t-38.5 -91.5t-92.5 -37.5t-91.5 37.5t-37.5 91.5z" />
<glyph unicode="&#xf7;" horiz-adv-x="890" d="M82 598v264h727v-264h-727zM291 379q0 66 44.5 112t108.5 46q65 0 111.5 -46t46.5 -112q0 -63 -46.5 -108.5t-111.5 -45.5q-64 0 -108.5 45.5t-44.5 108.5zM291 1081q0 66 44.5 112t108.5 46q65 0 111.5 -46t46.5 -112q0 -63 -46.5 -108t-111.5 -45q-64 0 -108.5 45 t-44.5 108z" />
<glyph unicode="&#xf8;" horiz-adv-x="890" d="M78 449v251q0 107 19 189t61 145t114.5 96t173.5 33q52 0 99 -12q17 68 39 143h106l-49 -180q94 -55 133 -156.5t39 -257.5v-251q0 -224 -87 -344.5t-280 -120.5q-49 0 -104 10l-35 -131h-106q18 73 45 166q-92 53 -130 156t-38 264zM371 500l104 395q-10 6 -29 6 q-36 0 -55.5 -25.5t-19.5 -87.5v-288zM412 250q10 -6 34 -6q76 0 76 114v308z" />
<glyph unicode="&#xf9;" horiz-adv-x="894" d="M82 369v780h291v-823q0 -82 73 -82q31 0 53.5 18t22.5 64v823h291v-780q0 -180 -98 -283.5t-269 -103.5q-173 0 -268.5 103t-95.5 284zM166 1526h313l96 -273h-219z" />
<glyph unicode="&#xfa;" horiz-adv-x="894" d="M82 369v780h291v-823q0 -82 73 -82q31 0 53.5 18t22.5 64v823h291v-780q0 -180 -98 -283.5t-269 -103.5q-173 0 -268.5 103t-95.5 284zM322 1264l96 272h313l-190 -272h-219z" />
<glyph unicode="&#xfb;" horiz-adv-x="894" d="M82 369v780h291v-823q0 -82 73 -82q31 0 53.5 18t22.5 64v823h291v-780q0 -180 -98 -283.5t-269 -103.5q-173 0 -268.5 103t-95.5 284zM160 1260l147 274h281l147 -274h-219l-67 100l-70 -100h-219z" />
<glyph unicode="&#xfc;" horiz-adv-x="901" d="M82 369v780h291v-823q0 -82 73 -82q31 0 53.5 18t22.5 64v823h291v-780q0 -180 -98 -283.5t-269 -103.5q-173 0 -268.5 103t-95.5 284zM150 1382q0 54 37.5 92.5t91.5 38.5t92.5 -38.5t38.5 -92.5t-38.5 -91.5t-92.5 -37.5t-91.5 37.5t-37.5 91.5zM487 1382 q0 54 37.5 92.5t91.5 38.5t93 -38.5t39 -92.5t-39 -91.5t-93 -37.5t-91.5 37.5t-37.5 91.5z" />
<glyph unicode="&#xfd;" horiz-adv-x="849" d="M12 1149h305l109 -621l104 621h308l-363 -1552h-293l97 403zM332 1264l96 272h313l-190 -272h-219z" />
<glyph unicode="&#xfe;" horiz-adv-x="913" d="M98 -403v1955h291v-485q2 4 5.5 10.5t18.5 23t33 29t50.5 23t70.5 10.5q125 0 193.5 -79.5t68.5 -260.5v-497q0 -181 -68.5 -260.5t-193.5 -79.5q-38 0 -70 10t-51 24t-33 28t-19 24l-5 10v-485h-291zM389 338q0 -44 22 -62t52 -18q74 0 74 80v471q0 82 -74 82 q-30 0 -52 -18t-22 -64v-471z" />
<glyph unicode="&#xff;" horiz-adv-x="849" d="M12 1149h305l109 -621l104 621h308l-363 -1552h-293l97 403zM129 1378q0 54 37.5 92.5t91.5 38.5t92.5 -38.5t38.5 -92.5t-38.5 -91.5t-92.5 -37.5t-91.5 37.5t-37.5 91.5zM467 1378q0 54 37.5 92.5t91.5 38.5t92.5 -38.5t38.5 -92.5t-38.5 -91.5t-92.5 -37.5t-91.5 37.5 t-37.5 91.5z" />
<glyph unicode="&#x152;" horiz-adv-x="1347" d="M82 422v620q0 187 111.5 295.5t295.5 108.5h785v-299h-377v-287h287v-268h-287v-297h377v-295h-785q-181 0 -294 117.5t-113 304.5zM387 412q0 -37 9 -62t25.5 -36t32 -15t35.5 -4h101v852h-101q-21 0 -36.5 -3.5t-31.5 -14.5t-25 -36t-9 -63v-618z" />
<glyph unicode="&#x153;" horiz-adv-x="1325" d="M76 371v411q0 179 86 281t256 102q88 0 152.5 -38.5t91.5 -102.5q29 63 98.5 101t154.5 38q184 0 260 -100.5t76 -310.5v-279h-442v-176q0 -43 22.5 -60.5t53.5 -17.5q29 0 52.5 16t23.5 50v24h290v-6q0 -140 -88.5 -229.5t-249.5 -89.5q-88 0 -155.5 35t-93.5 96 q-24 -62 -91.5 -96.5t-154.5 -34.5q-171 0 -256.5 101.5t-85.5 285.5zM369 326q0 -82 75 -82q30 0 53 18t23 64v493q0 45 -22.5 63.5t-53.5 18.5q-32 0 -53.5 -18.5t-21.5 -63.5v-493zM809 672h152v170q0 45 -22.5 63.5t-53.5 18.5q-32 0 -54 -18.5t-22 -63.5v-170z" />
<glyph unicode="&#x178;" horiz-adv-x="944" d="M12 1446h316l143 -526l147 526h314l-307 -942v-504h-308v504zM174 1679q0 54 37.5 92.5t91.5 38.5t92.5 -38.5t38.5 -92.5t-38.5 -91.5t-92.5 -37.5t-91.5 37.5t-37.5 91.5zM512 1679q0 54 37.5 92.5t91.5 38.5t92.5 -38.5t38.5 -92.5t-38.5 -91.5t-92.5 -37.5 t-91.5 37.5t-37.5 91.5z" />
<glyph unicode="&#x2c6;" d="M201 1212l147 275h281l147 -275h-219l-68 101l-69 -101h-219z" />
<glyph unicode="&#x2dc;" d="M199 1212v228q66 34 128.5 39.5t112.5 -7.5t99.5 -25.5t111.5 -7t127 41.5v-230q-49 -29 -93.5 -40t-80.5 -6.5t-71.5 15.5t-71.5 21.5t-74 15.5t-86.5 -5.5t-101.5 -39.5z" />
<glyph unicode="&#x2000;" horiz-adv-x="951" />
<glyph unicode="&#x2001;" horiz-adv-x="1903" />
<glyph unicode="&#x2002;" horiz-adv-x="951" />
<glyph unicode="&#x2003;" horiz-adv-x="1903" />
<glyph unicode="&#x2004;" horiz-adv-x="634" />
<glyph unicode="&#x2005;" horiz-adv-x="475" />
<glyph unicode="&#x2006;" horiz-adv-x="317" />
<glyph unicode="&#x2007;" horiz-adv-x="317" />
<glyph unicode="&#x2008;" horiz-adv-x="237" />
<glyph unicode="&#x2009;" horiz-adv-x="380" />
<glyph unicode="&#x200a;" horiz-adv-x="105" />
<glyph unicode="&#x2010;" horiz-adv-x="593" d="M63 477v228h465v-228h-465z" />
<glyph unicode="&#x2011;" horiz-adv-x="593" d="M63 477v228h465v-228h-465z" />
<glyph unicode="&#x2012;" horiz-adv-x="593" d="M63 477v228h465v-228h-465z" />
<glyph unicode="&#x2013;" horiz-adv-x="708" d="M63 477v228h580v-228h-580z" />
<glyph unicode="&#x2014;" horiz-adv-x="921" d="M63 477v228h795v-228h-795z" />
<glyph unicode="&#x2018;" horiz-adv-x="489" d="M12 866l228 580h219l-133 -580h-314z" />
<glyph unicode="&#x2019;" horiz-adv-x="489" d="M29 866l135 580h313l-229 -580h-219z" />
<glyph unicode="&#x201a;" horiz-adv-x="489" d="M-6 -229l135 565h313l-229 -565h-219z" />
<glyph unicode="&#x201c;" horiz-adv-x="903" d="M12 866l228 580h219l-133 -580h-314zM426 866l227 580h219l-133 -580h-313z" />
<glyph unicode="&#x201d;" horiz-adv-x="903" d="M29 866l135 580h313l-229 -580h-219zM444 866l134 580h313l-227 -580h-220z" />
<glyph unicode="&#x201e;" horiz-adv-x="903" d="M-6 -229l135 565h313l-229 -565h-219zM410 -229l133 565h313l-227 -565h-219z" />
<glyph unicode="&#x2022;" horiz-adv-x="833" d="M82 668v12q0 162 88.5 256t247.5 94q156 0 245 -94.5t89 -255.5v-12q0 -166 -88.5 -260.5t-245.5 -94.5q-160 0 -248 94t-88 261z" />
<glyph unicode="&#x2026;" horiz-adv-x="1380" d="M63 156q0 72 51 123t122 51q72 0 123 -51t51 -123t-51 -122t-123 -50q-71 0 -122 50t-51 122zM516 156q0 72 50.5 123t121.5 51q72 0 123 -51t51 -123t-51 -122t-123 -50q-71 0 -121.5 50t-50.5 122zM969 156q0 72 50.5 123t121.5 51q72 0 123 -51t51 -123t-51 -122 t-123 -50q-71 0 -121.5 50t-50.5 122z" />
<glyph unicode="&#x202f;" horiz-adv-x="380" />
<glyph unicode="&#x2039;" horiz-adv-x="575" d="M63 590l230 354h219l-135 -354l135 -352h-219z" />
<glyph unicode="&#x203a;" horiz-adv-x="575" d="M63 238l136 352l-136 354h220l229 -354l-229 -352h-220z" />
<glyph unicode="&#x205f;" horiz-adv-x="475" />
<glyph unicode="&#x20ac;" horiz-adv-x="1024" d="M47 575v107h96v84h-96v106h96v170q0 187 114 305.5t294 118.5q181 0 294 -118t113 -306v-71h-305v82q0 71 -28.5 94.5t-73.5 23.5q-21 0 -36 -4t-31 -15t-24.5 -36t-8.5 -63v-181h100v-106h-100v-84h100v-107h-100v-190q0 -69 28.5 -93t71.5 -24q102 0 102 117v72h305 v-62q0 -188 -113 -306t-294 -118q-180 0 -294 118.5t-114 305.5v180h-96z" />
<glyph unicode="&#x2122;" horiz-adv-x="1280" d="M63 1276v170h422v-170h-123v-549h-176v549h-123zM571 727v719h181l116 -369l117 369h178v-719h-178v279l-59 -197h-117l-57 195v-277h-181z" />
<glyph unicode="&#x25fc;" horiz-adv-x="1146" d="M0 0v1147h1147v-1147h-1147z" />
</font>
</defs>
</svg>
