<svg id="_8a9a7776-2965-4e5f-811c-bf365387c77e" data-name=" 8a9a7776-2965-4e5f-811c-bf365387c77e" xmlns="http://www.w3.org/2000/svg" viewBox="0 0 395.25 432">
  <title>Chart showing nonvertebral fracture risk reduction achieved</title>
  <g>
    <path d="M13.67,382.84H3.09v-2.77c0-1.73,1.14-2.94,3.21-2.94H7.86A2.82,2.82,0,0,1,11,380.06v1h2.64Zm-8.88-1.77H9.35v-.81c0-.72-.31-1.41-1.5-1.41H6.32c-1.26,0-1.53.71-1.53,1.41Z" fill="#fff"/>
    <path d="M11.21,375.71H7.71c-1.8,0-2.55-.84-2.55-2.07A1.89,1.89,0,0,1,6,372H5.25v-1.56h8.42V372h-.74a1.86,1.86,0,0,1,.86,1.64C13.79,374.88,13,375.71,11.21,375.71Zm-.21-3.6H7.77c-.78,0-1.11.44-1.11,1s.38,1,1.28,1H11c.92,0,1.28-.36,1.28-1S11.9,372.11,11,372.11Z" fill="#fff"/>
    <path d="M6.74,369.26H5.36c0-.93-.36-1.21-1.59-1.21v-1.14H5.25v-1.3H6.74v1.3h4.33c.81,0,1.18-.12,1.18-1a1.54,1.54,0,0,0,0-.33h1.5v.66c0,2.08-1.25,2.33-3.19,2.33H6.74Z" fill="#fff"/>
    <g>
      <path d="M4.41,363.39a1,1,0,1,1-1-1A1,1,0,0,1,4.41,363.39Zm9.25-.81v1.67H5.25v-1.67Z" fill="#fff"/>
      <path d="M11,361.21H7.92a2.49,2.49,0,0,1-2.77-2.64c0-1.69,1-2.62,2.79-2.62H10v3.6h1.4a1,1,0,0,0,1-1,.88.88,0,0,0-.74-1h-.33v-1.66h0a2.37,2.37,0,0,1,2.4,2.62,2.47,2.47,0,0,1-2.73,2.7Zm-2.19-1.66v-1.94h-1c-1,0-1.28.38-1.28,1a.92.92,0,0,0,.83,1h.17Z" fill="#fff"/>
    </g>
    <path d="M13.67,352.79v1.67H5.25v-1.58H6a1.86,1.86,0,0,1-.84-1.62c0-1.26.77-2.08,2.55-2.08h6v1.68H7.8c-.79,0-1.12.41-1.12,1s.33,1,1.12,1Z" fill="#fff"/>
    <path d="M6.74,348.06H5.36c0-.93-.36-1.21-1.59-1.21v-1.14H5.25v-1.3H6.74v1.3h4.33c.81,0,1.18-.12,1.18-1a1.54,1.54,0,0,0,0-.33h1.5V345c0,2.08-1.25,2.32-3.19,2.32H6.74Z" fill="#fff"/>
    <g>
      <path d="M13.67,338.65v1.66H5.25v-1.57H6a1.86,1.86,0,0,1-.84-1.62c0-1.26.77-2.08,2.55-2.08h6v1.68H7.8c-.79,0-1.12.41-1.12,1s.33,1,1.12,1Z" fill="#fff"/>
      <path d="M11,333.85H7.91a2.63,2.63,0,0,1,0-5.26H11a2.64,2.64,0,1,1,0,5.26Zm-3.3-1.67h3.55a1,1,0,1,0,0-1.94H7.7a1,1,0,1,0,0,1.94Z" fill="#fff"/>
      <path d="M13.67,325.6v1.67H5.25v-1.58H6a1.86,1.86,0,0,1-.84-1.62c0-1.26.77-2.08,2.55-2.08h6v1.68H7.8c-.79,0-1.12.41-1.12,1s.33,1,1.12,1Z" fill="#fff"/>
      <path d="M5.25,321.25v-1.77l5.82-1.21L5.25,317.1v-1.79l8.42,2.09v1.77Z" fill="#fff"/>
      <path d="M11,314.6H7.92A2.49,2.49,0,0,1,5.15,312c0-1.69,1-2.62,2.79-2.62H10V313h1.4a1,1,0,0,0,1-1,.88.88,0,0,0-.74-1h-.33v-1.67h0a2.37,2.37,0,0,1,2.4,2.62A2.47,2.47,0,0,1,11,314.6Zm-2.19-1.67V311h-1c-1,0-1.28.38-1.28,1a.92.92,0,0,0,.83,1h.17Z" fill="#fff"/>
    </g>
    <path d="M6.83,303.75V304c0,1.2.63,1.52,2,1.52h4.83v1.66H5.25v-1.57h.84a1.63,1.63,0,0,1-.93-1.7v-.13Z" fill="#fff"/>
    <g>
      <path d="M6.74,303H5.36c0-.93-.36-1.21-1.59-1.21v-1.14H5.25v-1.3H6.74v1.3h4.33c.81,0,1.18-.12,1.18-1a1.54,1.54,0,0,0,0-.33h1.5V300c0,2.08-1.25,2.33-3.19,2.33H6.74Z" fill="#fff"/>
      <path d="M11,298.4H7.92a2.49,2.49,0,0,1-2.77-2.64c0-1.69,1-2.62,2.79-2.62H10v3.6h1.4a1,1,0,0,0,1-1,.88.88,0,0,0-.74-1h-.33v-1.66h0a2.37,2.37,0,0,1,2.4,2.62A2.47,2.47,0,0,1,11,298.4Zm-2.19-1.66V294.8h-1c-1,0-1.28.38-1.28,1a.92.92,0,0,0,.83,1h.17Z" fill="#fff"/>
      <path d="M12.95,290.29h.72v1.58H2.33V290.2H5.9a1.81,1.81,0,0,1-.75-1.53c0-1.26.76-2.08,2.55-2.08h3.52c1.8,0,2.57.82,2.57,2.08A1.83,1.83,0,0,1,12.95,290.29Zm-2-2h-3c-.88,0-1.28.36-1.28,1s.38,1,1.25,1H11c.9,0,1.29-.37,1.29-1s-.38-1-1.29-1Z" fill="#fff"/>
      <path d="M6.83,281.87v.22c0,1.2.63,1.52,2,1.52h4.83v1.67H5.25V283.7h.84a1.63,1.63,0,0,1-.93-1.7v-.13Z" fill="#fff"/>
      <path d="M11.21,281.15H7.71c-1.8,0-2.55-.84-2.55-2.07A1.89,1.89,0,0,1,6,277.45H5.25v-1.56h8.42v1.56h-.74a1.86,1.86,0,0,1,.86,1.64C13.79,280.33,13,281.15,11.21,281.15Zm-.21-3.6H7.77c-.78,0-1.11.44-1.11,1s.38,1,1.28,1H11c.92,0,1.28-.36,1.28-1S11.9,277.55,11,277.55Z" fill="#fff"/>
      <path d="M13.67,272.69v1.68H2.33v-1.68Z" fill="#fff"/>
      <path d="M3.74,265.21c-.09,1.11.34,1.23,1.51,1.23v-1.21H6.74v1.21h6.93v1.67H6.74v.71H5.25v-.71c-2.07,0-3-.39-3-2.19a4.74,4.74,0,0,1,0-.71Z" fill="#fff"/>
      <path d="M6.83,260.62v.22c0,1.2.63,1.51,2,1.51h4.83V264H5.25v-1.58h.84a1.63,1.63,0,0,1-.93-1.69v-.13Z" fill="#fff"/>
      <path d="M11.21,259.9H7.71c-1.8,0-2.55-.84-2.55-2.07A1.89,1.89,0,0,1,6,256.19H5.25v-1.56h8.42v1.56h-.74a1.86,1.86,0,0,1,.86,1.63C13.79,259.07,13,259.9,11.21,259.9ZM11,256.3H7.77c-.78,0-1.11.43-1.11,1s.38,1,1.28,1H11c.92,0,1.28-.36,1.28-1S11.9,256.3,11,256.3Z" fill="#fff"/>
      <path d="M11,248a2.64,2.64,0,1,1,0,5.26H7.91a2.63,2.63,0,0,1,0-5.26H8v1.66H7.7a1,1,0,1,0,0,1.94h3.55a1,1,0,1,0,0-1.94h-.31V248Z" fill="#fff"/>
      <path d="M6.74,247.24H5.36c0-.93-.36-1.21-1.59-1.21v-1.14H5.25v-1.3H6.74v1.3h4.33c.81,0,1.18-.12,1.18-1a1.54,1.54,0,0,0,0-.33h1.5v.66c0,2.08-1.25,2.33-3.19,2.33H6.74Z" fill="#fff"/>
      <path d="M5.25,238.88v-1.66h5.83a2.63,2.63,0,1,1,0,5.26H5.25v-1.67h6.08a.91.91,0,0,0,1-1,.93.93,0,0,0-.85-1h-.15Z" fill="#fff"/>
    </g>
    <path d="M6.83,229.85v.22c0,1.2.63,1.52,2,1.52h4.83v1.66H5.25v-1.57h.84a1.63,1.63,0,0,1-.93-1.7v-.13Z" fill="#fff"/>
    <path d="M11,228.81H7.92a2.49,2.49,0,0,1-2.77-2.64c0-1.69,1-2.62,2.79-2.62H10v3.6h1.4a1,1,0,0,0,1-1,.88.88,0,0,0-.74-1h-.33v-1.67h0a2.37,2.37,0,0,1,2.4,2.62A2.47,2.47,0,0,1,11,228.81Zm-2.19-1.67v-1.93h-1c-1,0-1.28.38-1.28,1a.92.92,0,0,0,.83,1h.17Z" fill="#fff"/>
    <g>
      <path d="M4.41,218.39a1,1,0,1,1-1-1A1,1,0,0,1,4.41,218.39Zm9.25-.81v1.67H5.25v-1.67Z" fill="#fff"/>
      <path d="M13.67,214.4v1.67H5.25v-1.58H6a1.86,1.86,0,0,1-.84-1.62c0-1.26.77-2.08,2.55-2.08h6v1.68H7.8c-.79,0-1.12.41-1.12,1s.33,1,1.12,1Z" fill="#fff"/>
      <path d="M11,204.32a2.64,2.64,0,1,1,0,5.26H7.91a2.63,2.63,0,0,1,0-5.26H8V206H7.7a1,1,0,1,0,0,1.94h3.55a1,1,0,1,0,0-1.94h-.31v-1.66Z" fill="#fff"/>
      <path d="M4.41,202.23a1,1,0,1,1-1-1A1,1,0,0,1,4.41,202.23Zm9.25-.81v1.67H5.25v-1.67Z" fill="#fff"/>
      <path d="M11.22,200.06H7.71c-1.8,0-2.55-.83-2.55-2.07a1.72,1.72,0,0,1,.74-1.52H2.33v-1.68H13.67v1.56h-.72a1.84,1.84,0,0,1,.84,1.64C13.79,199.23,13,200.06,11.22,200.06Zm-.22-3.6H7.91c-.88,0-1.25.38-1.25,1s.39,1,1.28,1H11c.92,0,1.29-.37,1.29-1S11.91,196.46,11,196.46Z" fill="#fff"/>
    </g>
    <path d="M11,192.71H7.92a2.49,2.49,0,0,1-2.77-2.64c0-1.69,1-2.62,2.79-2.62H10V191h1.4a1,1,0,0,0,1-1,.88.88,0,0,0-.74-1h-.33v-1.66h0a2.37,2.37,0,0,1,2.4,2.62A2.47,2.47,0,0,1,11,192.71ZM8.85,191v-1.94h-1c-1,0-1.28.38-1.28,1a.92.92,0,0,0,.83,1h.17Z" fill="#fff"/>
    <g>
      <path d="M13.67,184.39v1.67H5.25v-1.58H6a1.86,1.86,0,0,1-.84-1.62c0-1.26.77-2.08,2.55-2.08h6v1.68H7.8c-.79,0-1.12.41-1.12,1s.33,1,1.12,1Z" fill="#fff"/>
      <path d="M11,174.31a2.64,2.64,0,1,1,0,5.26H7.91a2.63,2.63,0,0,1,0-5.26H8V176H7.7a1,1,0,1,0,0,1.94h3.55a1,1,0,1,0,0-1.94h-.31v-1.66Z" fill="#fff"/>
    </g>
    <path d="M11,172.91H7.92a2.49,2.49,0,0,1-2.77-2.64c0-1.69,1-2.62,2.79-2.62H10v3.6h1.4a1,1,0,0,0,1-1,.88.88,0,0,0-.74-1h-.33v-1.66h0a2.37,2.37,0,0,1,2.4,2.62,2.47,2.47,0,0,1-2.73,2.7Zm-2.19-1.67V169.3h-1c-1,0-1.28.38-1.28,1a.92.92,0,0,0,.83,1h.17Z" fill="#fff"/>
    <g>
      <path d="M14.34,160.87c0,2.12-.87,2.76-2.88,2.76H5.18c-2,0-2.88-.65-2.88-2.76H3.81c0,.92.3,1.1,1,1.1h7c.72,0,1-.17,1-1.1Z" fill="#fff"/>
      <path d="M14.31,154.68v1.6c-3-.88-9-3-12-3.85v-1.6Zm-8.1,5.07H5.7c-1.67,0-2.75-.9-2.75-2.49a2.45,2.45,0,0,1,2.39-2.51h.87c1.73,0,2.79.94,2.79,2.49S7.94,159.75,6.21,159.75Zm-.57-1.57h.64c.87,0,1.2-.35,1.2-.92s-.33-.92-1.2-.92H5.64c-.86,0-1.19.38-1.19.92s.34.91,1.19.91ZM11,152.35h-.51c-1.68,0-2.76-.9-2.76-2.49a2.45,2.45,0,0,1,2.39-2.51H11c1.71,0,2.78.95,2.78,2.49a2.47,2.47,0,0,1-2.41,2.53h0Zm-.58-1.57h.64c.89,0,1.22-.35,1.22-.92s-.33-.9-1.22-.9h-.64c-.84,0-1.17.38-1.17.9s.32.92,1.16.92Z" fill="#fff"/>
    </g>
    <path d="M12.84,145.51c0-.93-.3-1.09-1-1.09h-7c-.72,0-1,.18-1,1.09H2.3c0-2.11.88-2.76,2.88-2.76h6.28c2,0,2.88.65,2.88,2.76Z" fill="#fff"/>
  </g>
  <g>
    <path d="M164,421.07a2.62,2.62,0,0,1,2.49-2.74h.36a2.74,2.74,0,0,1,2.85,3H168c0-.93-.49-1.32-1.14-1.32a1,1,0,0,0-1.08.91h0V421c0,1.88,4,2.54,4,5.34a2.68,2.68,0,0,1-2.89,2.9,2.86,2.86,0,0,1-3-3h1.74a1.21,1.21,0,0,0,1,1.37h.24a1.07,1.07,0,0,0,1.13-1s0-.07,0-.1C168,424.61,164,423.71,164,421.07Z" fill="#fff"/>
    <path d="M170.6,422.14v-1.38c.93,0,1.21-.36,1.21-1.59H173v1.48h1.3v1.49H173v4.33c0,.81.12,1.18,1,1.18a1.54,1.54,0,0,0,.33,0v1.5h-.66c-2.08,0-2.32-1.25-2.32-3.19v-3.83h-.75Z" fill="#fff"/>
    <path d="M179.1,420.65h1.66v5.83a2.63,2.63,0,0,1-5.26,0h0v-5.83h1.67v6.08a.91.91,0,0,0,.81,1h.19a.92.92,0,0,0,1-1Z" fill="#fff"/>
    <path d="M182.16,426.62v-3.51c0-1.8.83-2.55,2.07-2.55a1.72,1.72,0,0,1,1.52.74v-3.57h1.68v11.34h-1.56v-.72a1.84,1.84,0,0,1-1.64.84C183,429.19,182.16,428.42,182.16,426.62Zm3.6-.22v-3.09c0-.88-.37-1.25-1-1.25s-1,.39-1,1.28v3.06c0,.92.37,1.29,1,1.29S185.76,427.31,185.76,426.4Z" fill="#fff"/>
    <path d="M190.55,429.08l-2.16-8.43h1.8l1.19,5.49,1.17-5.49h1.81L191.48,432h-1.71Z" fill="#fff"/>
    <path d="M199.87,429.07H198.2v-8.42h1.58v.69a1.56,1.56,0,0,1,1.42-.78,1.72,1.72,0,0,1,1.63,1,1.92,1.92,0,0,1,1.7-1c1.17,0,1.89.74,1.89,2.46v6h-1.68v-6c0-.69-.37-.93-.79-.93a.79.79,0,0,0-.79.9v6.1h-1.68V423c0-.67-.36-.93-.81-.93a.79.79,0,0,0-.79.9Z" fill="#fff"/>
    <path d="M207.84,426.41v-3.1a2.64,2.64,0,1,1,5.27,0v3.1a2.64,2.64,0,1,1-5.27,0Zm1.67-3.31v3.55a1,1,0,1,0,1.94,0V423.1a1,1,0,1,0-1.94,0Z" fill="#fff"/>
    <path d="M216.17,429.07H214.5v-8.42h1.58v.75a1.86,1.86,0,0,1,1.62-.84c1.26,0,2.08.77,2.08,2.55v6H218.1V423.2c0-.79-.41-1.12-1-1.12s-1,.33-1,1.12Z" fill="#fff"/>
    <path d="M220.9,422.14v-1.38c.93,0,1.21-.36,1.21-1.59h1.14v1.48h1.3v1.49h-1.3v4.33c0,.81.12,1.18,1,1.18a1.54,1.54,0,0,0,.33,0v1.5h-.66c-2.08,0-2.33-1.25-2.33-3.19v-3.83h-.69Z" fill="#fff"/>
    <path d="M227.57,429.07H225.9V417.73h1.67v3.6a1.89,1.89,0,0,1,1.59-.78c1.17,0,2,.63,2,2.52v6h-1.68v-5.61c0-1-.27-1.4-1-1.4s-1,.33-1,1.14Z" fill="#fff"/>
  </g>
  <g>
    <path d="M234.92,267.5c.9,0,1.57-.63,1.57-1.82V264c0-1.33-.49-2.1-1.61-2.1a1.56,1.56,0,0,0-1.51,1.1l-2.25-.37,1.12-7.41h6.06v2.31h-4.17l-.49,3.14a2.5,2.5,0,0,1,1.9-.74c2.18,0,3.33,1.29,3.33,4v1.2c0,2.76-1.35,4.61-4,4.61a3.88,3.88,0,0,1-4-3.75v-.37h2.39C233.28,267,234,267.5,234.92,267.5Z" fill="#b1b1b1"/>
    <path d="M241.8,269.77a1.38,1.38,0,1,1,1.39-1.38h0a1.37,1.37,0,0,1-1.37,1.37Z" fill="#b1b1b1"/>
    <path d="M247.59,255.23h2.55l-2.14,4.6a4.82,4.82,0,0,1,1.06-.12c2.27,0,3.47,1.55,3.47,3.84v2.16a4,4,0,0,1-8,0v-1.9a9,9,0,0,1,.8-3.7C245.72,259.34,247.59,255.23,247.59,255.23Zm-.61,8.21v2c0,1.69.63,2.08,1.59,2.08s1.59-.39,1.59-2.08v-2c0-1.33-.74-1.74-1.59-1.74s-1.57.43-1.57,1.74Z" fill="#b1b1b1"/>
  </g>
  <path d="M225.4,380.41a.5.5,0,0,1-.5-.5v-.12a.5.5,0,0,1,1,0v.13A.5.5,0,0,1,225.4,380.41Zm0-3.13a.5.5,0,0,1-.5-.5v-.12a.5.5,0,0,1,1,0v.13a.5.5,0,0,1-.5.48Zm0-3.13a.5.5,0,0,1-.5-.5v-.12a.5.5,0,0,1,1,0v.13a.5.5,0,0,1-.5.48Zm0-3.13a.5.5,0,0,1-.5-.5v-.12a.5.5,0,0,1,1,0v.13a.5.5,0,0,1-.5.47Zm0-3.13a.5.5,0,0,1-.5-.5v-.12a.5.5,0,0,1,1,0v.13a.5.5,0,0,1-.5.48Zm0-3.13a.5.5,0,0,1-.5-.5v-.12a.5.5,0,0,1,1,0v.13a.5.5,0,0,1-.5.48Zm0-3.13a.5.5,0,0,1-.5-.5V361a.5.5,0,0,1,1,0v.13a.5.5,0,0,1-.5.5Zm0-3.13a.5.5,0,0,1-.5-.5v-.12a.5.5,0,0,1,1,0V358a.5.5,0,0,1-.5.5Zm0-3.13a.5.5,0,0,1-.5-.5v-.12a.5.5,0,0,1,1,0v.13A.5.5,0,0,1,225.4,355.37Zm0-3.13a.5.5,0,0,1-.5-.5v-.12a.5.5,0,0,1,1,0v.13A.5.5,0,0,1,225.4,352.24Zm0-3.13a.5.5,0,0,1-.5-.5v-.12a.5.5,0,0,1,1,0v.13a.5.5,0,0,1-.5.48Zm0-3.13a.5.5,0,0,1-.5-.5v-.12a.5.5,0,0,1,1,0v.13a.5.5,0,0,1-.49.51h0Zm0-3.13a.5.5,0,0,1-.5-.5v-.12a.5.5,0,0,1,1,0v.13a.5.5,0,0,1-.5.48Zm0-3.13a.5.5,0,0,1-.5-.5v-.12a.5.5,0,0,1,1,0v.13a.5.5,0,0,1-.5.48Zm0-3.13a.5.5,0,0,1-.5-.5V336a.5.5,0,0,1,1,0v.13a.5.5,0,0,1-.5.45Zm0-3.13a.5.5,0,0,1-.5-.5v-.12a.5.5,0,0,1,1,0V333a.5.5,0,0,1-.5.46Zm0-3.13a.5.5,0,0,1-.5-.5v-.12a.5.5,0,0,1,1,0v.13A.5.5,0,0,1,225.4,330.33Zm0-3.13a.5.5,0,0,1-.5-.5v-.12a.5.5,0,0,1,1,0v.13A.5.5,0,0,1,225.4,327.2Zm0-3.13a.5.5,0,0,1-.5-.5v-.12a.5.5,0,0,1,1,0v.13a.5.5,0,0,1-.5.48Zm0-3.13a.5.5,0,0,1-.5-.5v-.12a.5.5,0,0,1,1,0v.13a.5.5,0,0,1-.5.48Zm0-3.13a.5.5,0,0,1-.5-.5v-.12a.5.5,0,0,1,1,0v.13a.5.5,0,0,1-.5.48Zm0-3.13a.5.5,0,0,1-.5-.5V314a.5.5,0,0,1,1,0v.13a.5.5,0,0,1-.46.54h0Zm0-3.13a.5.5,0,0,1-.5-.5v-.12a.5.5,0,0,1,1,0V311a.5.5,0,0,1-.46.54h0Zm0-3.13a.5.5,0,0,1-.5-.5v-.12a.5.5,0,0,1,1,0v.13A.5.5,0,0,1,225.4,308.42Zm0-3.13a.5.5,0,0,1-.5-.5v-.12a.5.5,0,0,1,1,0v.13A.5.5,0,0,1,225.4,305.29Zm0-3.13a.5.5,0,0,1-.5-.5v-.12a.5.5,0,0,1,1,0v.13A.5.5,0,0,1,225.4,302.16Zm0-3.13a.5.5,0,0,1-.5-.5v-.12a.5.5,0,0,1,1,0v.13a.5.5,0,0,1-.5.46Zm0-3.13a.5.5,0,0,1-.5-.5v-.12a.5.5,0,0,1,1,0v.13a.5.5,0,0,1-.5.48Zm0-3.13a.5.5,0,0,1-.5-.5v-.12a.5.5,0,0,1,1,0v.13a.5.5,0,0,1-.5.48Zm0-3.13a.5.5,0,0,1-.5-.5V289a.5.5,0,0,1,1,0v.13a.5.5,0,0,1-.5.5Zm0-3.13a.5.5,0,0,1-.5-.5v-.12a.5.5,0,0,1,1,0V286a.5.5,0,0,1-.5.5Zm0-3.13a.5.5,0,0,1-.5-.5v-.12a.5.5,0,0,1,1,0v.13A.5.5,0,0,1,225.4,283.38Zm0-3.13a.5.5,0,0,1-.5-.5v-.12a.5.5,0,0,1,1,0v.13A.5.5,0,0,1,225.4,280.25Zm0-3.13a.5.5,0,0,1-.5-.5v-.12a.5.5,0,0,1,1,0v.13A.5.5,0,0,1,225.4,277.12Zm0-3.13a.5.5,0,0,1-.5-.5v-.12a.5.5,0,0,1,1,0v.13a.5.5,0,0,1-.5.5h0Zm0-3.13a.5.5,0,0,1-.5-.5v-.12a.5.5,0,0,1,1,0v.13a.5.5,0,0,1-.5.48Zm0-3.13a.5.5,0,0,1-.5-.5v-.12a.5.5,0,0,1,1,0v.13a.5.5,0,0,1-.5.48Zm0-3.13a.5.5,0,0,1-.5-.5V264a.5.5,0,0,1,1,0v.13a.5.5,0,0,1-.5.46Zm0-3.13a.5.5,0,0,1-.5-.5v-.12a.5.5,0,0,1,1,0V261a.5.5,0,0,1-.5.46Zm0-3.13a.5.5,0,0,1-.5-.5v-.12a.5.5,0,0,1,1,0v.13a.5.5,0,0,1-.5.48Zm0-3.13a.5.5,0,0,1-.5-.5v-.12a.5.5,0,0,1,1,0v.13a.5.5,0,0,1-.5.49Zm0-3.13a.5.5,0,0,1-.5-.5v-.12a.5.5,0,0,1,1,0v.13a.5.5,0,0,1-.5.49Zm0-3.13a.5.5,0,0,1-.5-.5v-.12a.5.5,0,0,1,1,0v.13a.5.5,0,0,1-.5.49Zm0-3.13a.5.5,0,0,1-.5-.5v-.12a.5.5,0,0,1,1,0v.13a.5.5,0,0,1-.5.48Zm0-3.13a.5.5,0,0,1-.5-.5v-.12a.5.5,0,0,1,1,0v.13a.5.5,0,0,1-.5.48Zm0-3.13a.5.5,0,0,1-.5-.5v-.12a.5.5,0,0,1,1,0v.13a.5.5,0,0,1-.5.48Zm0-3.13a.5.5,0,0,1-.5-.5v-.12a.5.5,0,0,1,1,0v.13a.5.5,0,0,1-.5.48Zm0-3.13a.5.5,0,0,1-.5-.5v-.12a.5.5,0,0,1,1,0v.13a.5.5,0,0,1-.5.48Zm0-3.13a.5.5,0,0,1-.5-.5v-.12a.5.5,0,0,1,1,0v.13a.5.5,0,0,1-.5.49Zm0-3.13a.5.5,0,0,1-.5-.5v-.12a.5.5,0,0,1,1,0v.13a.5.5,0,0,1-.5.45Zm0-3.13a.5.5,0,0,1-.5-.5v-.12a.5.5,0,0,1,1,0v.13a.5.5,0,0,1-.5.49Zm0-3.13a.5.5,0,0,1-.5-.5v-.12a.5.5,0,0,1,1,0v.13a.5.5,0,0,1-.5.49Zm0-3.13a.5.5,0,0,1-.5-.5V217a.5.5,0,0,1,1,0v.13a.5.5,0,0,1-.49.51h0Zm0-3.13a.5.5,0,0,1-.5-.5v-.12a.5.5,0,0,1,1,0v.1a.5.5,0,0,1-.49.51h0Zm0-3.13a.5.5,0,0,1-.5-.5v-.12a.5.5,0,0,1,1,0v.13a.5.5,0,0,1-.5.48Zm0-3.13a.5.5,0,0,1-.5-.5v-.12a.5.5,0,0,1,1,0v.13a.5.5,0,0,1-.5.48Zm0-3.13a.5.5,0,0,1-.5-.5v-.12a.5.5,0,0,1,1,0v.13a.5.5,0,0,1-.5.49Zm0-3.13a.5.5,0,0,1-.5-.5v-.12a.5.5,0,0,1,1,0v.13a.5.5,0,0,1-.5.49Zm0-3.13a.5.5,0,0,1-.5-.5v-.12a.5.5,0,0,1,1,0v.13a.5.5,0,0,1-.5.48Zm0-3.13a.5.5,0,0,1-.5-.5v-.12a.5.5,0,0,1,1,0v.13a.5.5,0,0,1-.5.48Zm0-3.13a.5.5,0,0,1-.5-.5V192a.5.5,0,0,1,1,0v.13a.5.5,0,0,1-.5.47Zm0-3.13a.5.5,0,0,1-.5-.5v-.12a.5.5,0,0,1,1,0V189a.5.5,0,0,1-.5.48Zm0-3.13a.5.5,0,0,1-.5-.5v-.12a.5.5,0,0,1,1,0v.13a.5.5,0,0,1-.5.48Zm0-3.13a.5.5,0,0,1-.5-.5v-.12a.5.5,0,0,1,1,0v.13a.5.5,0,0,1-.5.48Zm0-3.13a.5.5,0,0,1-.5-.5v-.12a.5.5,0,0,1,1,0v.13a.5.5,0,0,1-.5.48Zm0-3.13a.5.5,0,0,1-.5-.5v-.12a.5.5,0,0,1,1,0v.13a.5.5,0,0,1-.47.53h0Zm0-3.13a.5.5,0,0,1-.5-.5v-.12a.5.5,0,0,1,1,0v.13a.5.5,0,0,1-.5.48Zm0-3.13a.5.5,0,0,1-.5-.5v-.12a.5.5,0,0,1,1,0v.13a.5.5,0,0,1-.5.48Zm0-3.13a.5.5,0,0,1-.5-.5v-.12a.5.5,0,0,1,1,0v.13a.5.5,0,0,1-.5.48Zm0-3.13a.5.5,0,0,1-.5-.5v-.12a.5.5,0,0,1,1,0v.13a.5.5,0,0,1-.5.49Zm0-3.13a.5.5,0,0,1-.5-.5v-.12a.5.5,0,0,1,1,0v.13a.5.5,0,0,1-.5.48Zm0-3.13a.5.5,0,0,1-.5-.5v-.12a.5.5,0,0,1,1,0v.13a.5.5,0,0,1-.5.48Zm0-3.13a.5.5,0,0,1-.5-.5v-.12a.5.5,0,0,1,1,0v.13a.5.5,0,0,1-.5.44Zm0-3.13a.5.5,0,0,1-.5-.5v-.12a.5.5,0,0,1,1,0v.13a.5.5,0,0,1-.5.49Zm0-3.13a.5.5,0,0,1-.5-.5v-.12a.5.5,0,0,1,1,0v.13a.5.5,0,0,1-.5.48Zm0-3.13a.5.5,0,0,1-.5-.5V145a.5.5,0,0,1,1,0v.13a.5.5,0,0,1-.48.52h0Zm0-3.13a.5.5,0,0,1-.5-.5v-.12a.5.5,0,0,1,1,0V142a.5.5,0,0,1-.48.52h0Z" fill="#bcbdbf"/>
  <g>
    <path d="M43.49,72.09V67.66a2.73,2.73,0,1,1,5.46,0h0v4.43a2.73,2.73,0,0,1-5.46,0Zm1.63-4.41v4.38c0,1,.52,1.28,1.09,1.28s1.1-.31,1.1-1.27v-4.4c0-1-.52-1.27-1.1-1.27s-1.08.31-1.08,1.28Z" fill="#e0592a"/>
    <path d="M50.11,71.28V70h3.1v1.23Z" fill="#e0592a"/>
    <g>
      <g>
        <path d="M53.77,65.75c.85,0,1.08-.18,1.08-.8h1.49V74.8H54.7V67.23a2.46,2.46,0,0,1-.94.1Z" fill="#e0592a"/>
        <path d="M57.69,72.3V72a2.08,2.08,0,0,1,1.19-2.14,2.09,2.09,0,0,1-1.1-2.14V67.5a2.68,2.68,0,1,1,5.36,0v.29A2.13,2.13,0,0,1,62,69.91,2.11,2.11,0,0,1,63.22,72v.33a2.47,2.47,0,0,1-2.78,2.55,2.44,2.44,0,0,1-2.75-2.58Zm1.68-4.47c0,1.1.42,1.38,1.07,1.38s1.08-.33,1.08-1.38-.42-1.4-1.08-1.4S59.37,66.7,59.37,67.83Zm0,4.15c0,1.16.42,1.45,1.07,1.45s1.08-.35,1.08-1.45c0-1.26-.42-1.48-1.08-1.48s-1.07.28-1.07,1.5Z" fill="#e0592a"/>
        <path d="M68.5,74.8H66.95V67h1.47v.64a1.45,1.45,0,0,1,1.33-.73,1.6,1.6,0,0,1,1.52.88,1.79,1.79,0,0,1,1.58-.88c1.09,0,1.76.68,1.76,2.29v5.6H73V69.14c0-.64-.35-.87-.74-.87a.74.74,0,0,0-.74.84V74.8H70V69.14c0-.63-.34-.87-.75-.87a.73.73,0,0,0-.74.84Z" fill="#e0592a"/>
      </g>
      <path d="M76.27,72.33V69.44a2.45,2.45,0,0,1,4.9,0v2.89a2.45,2.45,0,1,1-4.9,0Zm1.55-3.08v3.31a.9.9,0,0,0,1.8,0V69.24a.9.9,0,0,0-1.8,0Z" fill="#e0592a"/>
      <path d="M84.07,74.8H82.52V67H84v.7a1.73,1.73,0,0,1,1.51-.78c1.17,0,1.94.71,1.94,2.37V74.8H85.87V69.34c0-.74-.38-1-.91-1s-.89.31-.89,1Z" fill="#e0592a"/>
      <path d="M88.44,68.35V67.06c.87,0,1.13-.34,1.13-1.48h1.06V67h1.21v1.38h-1.2v4c0,.75.11,1.1.92,1.1a1.43,1.43,0,0,0,.31,0v1.4h-.61c-1.94,0-2.16-1.16-2.16-3V68.35h-.66Z" fill="#e0592a"/>
      <g>
        <path d="M94.67,74.8H93.12V64.24h1.55v3.35a1.76,1.76,0,0,1,1.48-.73c1.09,0,1.88.59,1.88,2.35V74.8H96.47V69.58c0-.91-.25-1.3-.91-1.3s-.89.31-.89,1.06Z" fill="#e0592a"/>
        <path d="M103.84,69.1h-1.52a.8.8,0,0,0-.67-.91h-.22a.67.67,0,0,0-.75.68c0,1.38,3.23,1.75,3.23,3.91,0,1.26-.81,2.14-2.43,2.14A2.24,2.24,0,0,1,99,72.6h1.55a.9.9,0,0,0,.79,1h.21a.78.78,0,0,0,.89-.79c0-1.12-3.27-1.76-3.27-3.87a2,2,0,0,1,2.29-2.08C103,66.85,103.84,67.59,103.84,69.1Z" fill="#e0592a"/>
      </g>
      <path d="M106,68.79a1,1,0,1,1,.95-1v0h0A1,1,0,0,1,106,68.79Zm0,6.1a.94.94,0,0,1-1-.88h0a.94.94,0,0,1,1.88,0h0A.94.94,0,0,1,106,74.89Z" fill="#e0592a"/>
    </g>
    <g>
      <path d="M114.14,66.55h-1.68V74.8h-1.63V66.55h-1.66V65h5Z" fill="#e0592a"/>
      <path d="M116.8,71.25,114.52,65h1.7l1.4,4.2L119,65h1.69l-2.3,6.3v3.5H116.8Z" fill="#e0592a"/>
      <path d="M123.45,69.41V74.8h-1.62V65h1.62l1.77,6L127,65h1.62v9.8H127V69.38l-1.21,3.94h-1.1Z" fill="#e0592a"/>
      <path d="M134.63,74.8h-4.31V65H132v8.26h2.67Z" fill="#e0592a"/>
      <g>
        <path d="M135.65,72.09V67.68a2.73,2.73,0,1,1,5.46,0v4.41a2.73,2.73,0,1,1-5.46,0Zm1.63-4.48v4.54c0,.89.52,1.2,1.09,1.2a1.05,1.05,0,0,0,1.1-1.2V67.61a1,1,0,0,0-1.1-1.2C137.82,66.41,137.28,66.7,137.28,67.61Z" fill="#e0592a"/>
        <path d="M142.19,67.36a2.44,2.44,0,0,1,2.33-2.55h.32a2.55,2.55,0,0,1,2.65,2.75h-1.61c0-.87-.46-1.23-1.06-1.23a.91.91,0,0,0-1,.94c0,1.75,3.76,2.36,3.76,5A2.49,2.49,0,0,1,144.89,75a2.66,2.66,0,0,1-2.81-2.83h1.62a1.12,1.12,0,0,0,.95,1.27h.24a1,1,0,0,0,1.09-.9h0v-.09C146,70.65,142.19,69.81,142.19,67.36Z" fill="#e0592a"/>
      </g>
    </g>
    <g>
      <g>
        <path d="M154,75.44c-1.93,0-2.4-.8-2.4-2.62v-6c0-1.83.47-2.62,2.4-2.62v1c-1.1,0-1.28.42-1.28,1.38V73c0,1,.15,1.4,1.28,1.4Z" fill="#e0592a"/>
        <path d="M156.51,74.8h-1.12V67h1.06v.82a1.83,1.83,0,0,1,1.68-.92c1.45,0,2.05,1,2.05,2.71V74.8h-1.12V69.63c0-1.17-.21-1.81-1.28-1.81-.87,0-1.27.52-1.27,1.56Z" fill="#e0592a"/>
      </g>
      <path d="M161.82,69.38v-1H166v1Zm0,2v-1H166v1Z" fill="#e0592a"/>
    </g>
    <path d="M167.45,72.23v-.31a2,2,0,0,1,1.35-2.14,2,2,0,0,1-1.27-2.07v-.36a2.64,2.64,0,0,1,5.28,0v.36a2.05,2.05,0,0,1-1.27,2.07,2.05,2.05,0,0,1,1.35,2.14v.31a2.53,2.53,0,0,1-2.35,2.7h-.43a2.51,2.51,0,0,1-2.66-2.7Zm2.78,1.55c1.08,0,1.48-.71,1.48-1.69v-.18c0-1-.52-1.59-1.42-1.59h-.22c-.92,0-1.44.54-1.44,1.59v.18c0,1,.42,1.69,1.49,1.69Zm0-4.5c.85,0,1.38-.57,1.38-1.65v-.18a1.47,1.47,0,1,0-2.93,0v.18c0,1.08.52,1.65,1.38,1.65h.17Z" fill="#e0592a"/>
    <path d="M179,74.8h-5v-.73c0-3.77,4-4.07,4-6.62a1.35,1.35,0,0,0-1.47-1.51,1.43,1.43,0,0,0-1.45,1.58H174a2.49,2.49,0,0,1,2.26-2.7h.34a2.45,2.45,0,0,1,2.58,2.69c0,3-4,3.66-4,6.14H179Z" fill="#e0592a"/>
    <g>
      <path d="M184.39,71.24h1v1.09h-1V74.8h-1.15V72.33h-3.62V71.24L183.29,65h1.1Zm-1.15,0V67l-2.47,4.26Z" fill="#e0592a"/>
      <path d="M186.64,74.42c1.13,0,1.28-.41,1.28-1.4V66.63c0-1-.17-1.38-1.28-1.38v-1c1.93,0,2.4.8,2.4,2.63v6c0,1.83-.47,2.63-2.4,2.63Z" fill="#e0592a"/>
    </g>
    <path d="M43.35,82.5c.85,0,1.08-.18,1.08-.8h1.49v9.84H44.29V84a2.46,2.46,0,0,1-.94.1Z" fill="#e0592a"/>
    <path d="M50.57,91.55H48.81l1.45-3.13a3.08,3.08,0,0,1-.7.08c-1.59,0-2.39-1-2.39-2.62V84.42a2.73,2.73,0,0,1,5.45,0v1.3a6.31,6.31,0,0,1-.54,2.5C51.86,88.76,50.57,91.55,50.57,91.55ZM51,86V84.51c0-1.07-.46-1.35-1.09-1.35s-1.09.28-1.09,1.35V86c0,.91.5,1.17,1.09,1.17A1,1,0,0,0,51,86Z" fill="#e0592a"/>
    <path d="M53.68,88V86.8h3.1V88Z" fill="#e0592a"/>
    <path d="M62.58,87.78h.87v1.49h-.87v2.28H61V89.28H57.59v-1.5L61,81.71h1.56Zm-1.58,0V84.32l-1.93,3.46Z" fill="#e0592a"/>
    <g>
      <path d="M66,84.35H64.41a2.54,2.54,0,0,1,2.69-2.78,2.47,2.47,0,0,1,2.71,2.68v.25a2,2,0,0,1-1.17,2.05c.74.24,1.26.91,1.26,2.19V89a2.5,2.5,0,0,1-2.76,2.71,2.61,2.61,0,0,1-2.78-2.85H66c0,.82.4,1.24,1.12,1.24a1,1,0,0,0,1.16-1.17v-.28c0-1-.5-1.34-1.15-1.34h-.95V85.87H67c.66,0,1.17-.32,1.17-1.31v-.21c0-.89-.47-1.16-1.08-1.16A1.07,1.07,0,0,0,66,84.35Z" fill="#e0592a"/>
      <path d="M75.45,91.55H73.9V83.72h1.47v.64a1.45,1.45,0,0,1,1.33-.73,1.6,1.6,0,0,1,1.52.88,1.79,1.79,0,0,1,1.58-.88c1.09,0,1.76.68,1.76,2.29v5.63H80V85.9c0-.64-.35-.87-.74-.87a.74.74,0,0,0-.74.84v5.68H76.95V85.9c0-.63-.34-.87-.75-.87a.73.73,0,0,0-.74.84Z" fill="#e0592a"/>
      <path d="M82.75,89.08V86.19a2.45,2.45,0,0,1,4.9,0v2.89a2.45,2.45,0,0,1-4.9,0ZM84.3,86v3.3a.9.9,0,1,0,1.8,0V86a.9.9,0,1,0-1.8,0Z" fill="#e0592a"/>
      <path d="M90.55,91.55H89V83.72h1.47v.7A1.73,1.73,0,0,1,92,83.63c1.17,0,1.94.71,1.94,2.37v5.54H92.35V86.09c0-.74-.38-1-.91-1s-.89.31-.89,1Z" fill="#e0592a"/>
      <path d="M95,85.1V83.82c.87,0,1.13-.34,1.13-1.48h1.06v1.38H98.4V85.1H97.22v4c0,.75.11,1.1.92,1.1a1.43,1.43,0,0,0,.31,0v1.4h-.61c-1.94,0-2.16-1.16-2.16-3V85.1Z" fill="#e0592a"/>
      <g>
        <path d="M101.15,91.55H99.6V81h1.55v3.35a1.76,1.76,0,0,1,1.48-.73c1.09,0,1.88.59,1.88,2.35v5.58H103V86.33c0-.91-.25-1.3-.91-1.3s-.89.31-.89,1.06Z" fill="#e0592a"/>
        <path d="M110.33,85.85H108.8a.8.8,0,0,0-.67-.91h-.22a.67.67,0,0,0-.75.68c0,1.38,3.23,1.75,3.23,3.91,0,1.26-.81,2.14-2.43,2.14a2.24,2.24,0,0,1-2.53-2.32H107a.9.9,0,0,0,.79,1H108a.78.78,0,0,0,.89-.79c0-1.12-3.27-1.76-3.27-3.87a2,2,0,0,1,2.29-2.08C109.45,83.61,110.33,84.35,110.33,85.85Z" fill="#e0592a"/>
      </g>
      <path d="M112.44,85.55a1,1,0,1,1,.95-1v0h0A1,1,0,0,1,112.44,85.55Zm0,6.1a.94.94,0,0,1-.94-.94h0a.94.94,0,0,1,1.88,0h0A.94.94,0,0,1,112.44,91.65Z" fill="#e0592a"/>
    </g>
    <g>
      <path d="M116,89.08V86.19a2.45,2.45,0,0,1,4.9,0v2.89a2.45,2.45,0,0,1-4.9,0ZM117.54,86v3.3a.9.9,0,0,0,1.8,0V86a.9.9,0,0,0-1.8,0Z" fill="#e0592a"/>
      <path d="M127,86v3.27c0,1.66-.77,2.37-1.94,2.37a1.65,1.65,0,0,1-1.41-.68v3.29h-1.56V83.72h1.47v.68a1.7,1.7,0,0,1,1.51-.78C126.26,83.62,127,84.32,127,86Zm-3.36.21v2.86c0,.82.36,1.16.89,1.16s.91-.35.91-1.17V86.2c0-.84-.35-1.19-.91-1.19s-.86.37-.86,1.19Z" fill="#e0592a"/>
      <path d="M128.15,89.11V86.2a2.32,2.32,0,0,1,2.46-2.58,2.29,2.29,0,0,1,2.44,2.6v2H129.7v1.27a.89.89,0,0,0,.84.94h.07a.82.82,0,0,0,.89-.85v-.14H133a2.21,2.21,0,0,1-2.18,2.24h-.26a2.3,2.3,0,0,1-2.41-2.56Zm1.55-2h1.8v-1c0-.89-.35-1.19-.89-1.19a.86.86,0,0,0-.91,1Z" fill="#e0592a"/>
      <path d="M135.79,91.55h-1.55V83.72h1.47v.7a1.73,1.73,0,0,1,1.51-.78c1.17,0,1.94.71,1.94,2.37v5.54H137.6V86.09c0-.74-.38-1-.91-1s-.89.31-.89,1Z" fill="#e0592a"/>
      <path d="M140.17,88V86.8h3.1V88Z" fill="#e0592a"/>
      <path d="M146,91.55h-1.56V81H146Z" fill="#e0592a"/>
      <path d="M147.31,89.26V86c0-1.67.78-2.37,1.93-2.37a1.76,1.76,0,0,1,1.52.77v-.68h1.45v7.83h-1.45v-.68a1.73,1.73,0,0,1-1.52.8C148.07,91.66,147.31,91,147.31,89.26Zm3.35-.2v-3c0-.73-.41-1-.89-1s-.89.35-.89,1.19V89.1c0,.85.33,1.19.89,1.19s.89-.39.89-1.22Z" fill="#e0592a"/>
      <path d="M155,90.88v.67h-1.47V81h1.55v3.32a1.69,1.69,0,0,1,1.42-.7c1.17,0,1.94.71,1.94,2.37v3.28c0,1.67-.77,2.39-1.94,2.39A1.7,1.7,0,0,1,155,90.88Zm1.89-1.82V86.22c0-.82-.34-1.19-.91-1.19s-.89.35-.89,1.16v2.88c0,.84.35,1.2.89,1.2s.95-.35.95-1.2Z" fill="#e0592a"/>
      <path d="M159.56,89.11V86.2A2.32,2.32,0,0,1,162,83.62a2.29,2.29,0,0,1,2.44,2.6v2h-3.35v1.27a.89.89,0,0,0,.84.94H162a.82.82,0,0,0,.89-.85v-.14h1.55a2.21,2.21,0,0,1-2.19,2.23H162a2.3,2.3,0,0,1-2.44-2.55Zm1.55-2h1.8v-1c0-.89-.35-1.19-.89-1.19a.86.86,0,0,0-.91,1Z" fill="#e0592a"/>
      <path d="M167.26,91.55H165.7V81h1.56Z" fill="#e0592a"/>
    </g>
    <g>
      <path d="M43.46,106v-3.25c0-1.67.78-2.37,1.93-2.37a1.76,1.76,0,0,1,1.52.77v-.68h1.45v7.83H46.91v-.68a1.73,1.73,0,0,1-1.52.8C44.23,108.42,43.46,107.71,43.46,106Zm3.35-.2v-3c0-.73-.41-1-.89-1s-.92.34-.92,1.2v2.85c0,.85.33,1.19.89,1.19s.93-.38.93-1.22Z" fill="#e0592a"/>
      <g>
        <path d="M51.51,108.31H50V97.75h1.56Z" fill="#e0592a"/>
        <path d="M52.78,105.86V103a2.32,2.32,0,0,1,2.46-2.58,2.29,2.29,0,0,1,2.44,2.6v2H54.33v1.27a.89.89,0,0,0,.84.94h.07a.82.82,0,0,0,.89-.85v-.14h1.55a2.21,2.21,0,0,1-2.18,2.24h-.26a2.3,2.3,0,0,1-2.46-2.61Zm1.55-2h1.8v-1c0-.89-.35-1.19-.89-1.19a.86.86,0,0,0-.91,1Z" fill="#e0592a"/>
        <path d="M60.42,108.31H58.87v-7.83h1.47v.7a1.73,1.73,0,0,1,1.51-.78c1.17,0,1.94.71,1.94,2.37v5.54H62.22v-5.46c0-.74-.38-1-.91-1s-.89.31-.89,1Z" fill="#e0592a"/>
        <path d="M64.9,106v-3.27c0-1.67.77-2.37,1.93-2.37a1.6,1.6,0,0,1,1.41.68V97.75H69.8V108.3H68.35v-.67a1.71,1.71,0,0,1-1.52.78C65.67,108.42,64.9,107.71,64.9,106Zm3.35-.21v-2.88c0-.82-.35-1.16-.89-1.16s-.89.36-.89,1.19v2.85c0,.85.35,1.2.89,1.2s.89-.32.89-1.17Z" fill="#e0592a"/>
      </g>
      <g>
        <path d="M74.87,101.94h-.21c-1.12,0-1.41.59-1.41,1.87v4.5H71.7v-7.83h1.47v.78a1.52,1.52,0,0,1,1.58-.87h.13Z" fill="#e0592a"/>
        <path d="M75.53,105.83v-2.89a2.45,2.45,0,0,1,4.9,0v2.89a2.45,2.45,0,0,1-4.9,0Zm1.55-3.08v3.31a.9.9,0,0,0,1.8,0h0v-3.31a.9.9,0,0,0-1.8,0Z" fill="#e0592a"/>
      </g>
      <g>
        <path d="M83.65,108.31H82.1v-7.83h1.47v.7a1.73,1.73,0,0,1,1.51-.78c1.17,0,1.94.71,1.94,2.37v5.54H85.46v-5.46c0-.74-.38-1-.91-1s-.89.31-.89,1Z" fill="#e0592a"/>
        <path d="M88.14,106v-3.25c0-1.67.78-2.37,1.93-2.37a1.76,1.76,0,0,1,1.52.77v-.68H93v7.83H91.58v-.68a1.73,1.73,0,0,1-1.52.8C88.9,108.42,88.14,107.71,88.14,106Zm3.35-.2v-3c0-.73-.41-1-.89-1s-.89.35-.89,1.19v2.85c0,.85.33,1.19.89,1.19s.89-.37.89-1.21Z" fill="#e0592a"/>
      </g>
      <g>
        <path d="M94.33,101.86v-1.28c.87,0,1.13-.34,1.13-1.48h1.06v1.38h1.21v1.38H96.52v4c0,.75.11,1.1.92,1.1a1.43,1.43,0,0,0,.31,0v1.4h-.61c-1.94,0-2.16-1.16-2.16-3V101.8h-.64Z" fill="#e0592a"/>
        <path d="M98.57,105.86V103a2.32,2.32,0,0,1,2.46-2.58,2.29,2.29,0,0,1,2.44,2.6v2h-3.35v1.27a.89.89,0,0,0,.84.94h0a.82.82,0,0,0,.89-.85v-.14h1.55a2.21,2.21,0,0,1-2.18,2.24H101a2.3,2.3,0,0,1-2.46-2.61Zm1.55-2h1.8v-1c0-.89-.35-1.19-.89-1.19a.86.86,0,0,0-.91,1Z" fill="#e0592a"/>
      </g>
      <path d="M110,108.95c-1.93,0-2.4-.8-2.4-2.62v-6c0-1.83.47-2.63,2.4-2.63v1c-1.1,0-1.28.42-1.28,1.38v6.39c0,1,.15,1.4,1.28,1.4Z" fill="#e0592a"/>
      <g>
        <path d="M112.53,108.31h-1.12v-7.83h1.06v.82a1.83,1.83,0,0,1,1.68-.92c1.45,0,2.05,1,2.05,2.71v5.22h-1.12v-5.17c0-1.17-.21-1.81-1.28-1.81-.87,0-1.27.52-1.27,1.56Z" fill="#e0592a"/>
        <path d="M117.6,102.89v-1h4.16v1Zm0,2v-1h4.16v1Z" fill="#e0592a"/>
        <path d="M124.23,105.64c0,1.19.63,1.66,1.48,1.66s1.52-.54,1.52-2v-.89c0-1.08-.47-1.82-1.51-1.82a1.38,1.38,0,0,0-1.4.94l-1.1-.2.73-4.86h4v1.14h-3.09l-.39,2.61a2,2,0,0,1,1.55-.67c1.49,0,2.35,1,2.35,2.83v.84c0,1.91-.87,3.21-2.67,3.21a2.6,2.6,0,0,1-2.66-2.54h0v-.25Z" fill="#e0592a"/>
      </g>
      <g>
        <path d="M131.28,105.64c0,1.19.63,1.66,1.48,1.66s1.52-.54,1.52-2v-.89c0-1.08-.47-1.82-1.51-1.82a1.38,1.38,0,0,0-1.4.94l-1.1-.2.73-4.86h4v1.14h-3.09l-.39,2.61a2,2,0,0,1,1.55-.67c1.49,0,2.35,1,2.35,2.83v.84c0,1.91-.87,3.21-2.67,3.21a2.6,2.6,0,0,1-2.66-2.54h0v-.25Z" fill="#e0592a"/>
        <path d="M136.73,105.74v-.31a2,2,0,0,1,1.35-2.14,2,2,0,0,1-1.27-2.07v-.36a2.64,2.64,0,0,1,5.28,0v.36a2.05,2.05,0,0,1-1.27,2.07,2.05,2.05,0,0,1,1.35,2.14v.31a2.53,2.53,0,0,1-2.35,2.7h-.43a2.51,2.51,0,0,1-2.66-2.7Zm2.78,1.55c1.08,0,1.48-.71,1.48-1.69v-.18c0-1-.52-1.59-1.42-1.59h-.22c-.92,0-1.44.54-1.44,1.59v.18c0,1,.42,1.69,1.49,1.69Zm0-4.5c.85,0,1.38-.57,1.38-1.65V101a1.47,1.47,0,1,0-2.93,0v.18c0,1.08.52,1.65,1.38,1.65h.19Z" fill="#e0592a"/>
      </g>
      <path d="M143.59,107.93c1.13,0,1.28-.41,1.28-1.4v-6.39c0-1-.17-1.38-1.28-1.38v-1c1.93,0,2.4.8,2.4,2.63v6c0,1.83-.47,2.63-2.4,2.63Z" fill="#e0592a"/>
    </g>
    <rect x="5.3" y="65.2" width="32.9" height="10.8" fill="#e0592a"/>
  </g>
  <g>
    <path d="M241.11,72.86V68.43a2.73,2.73,0,1,1,5.46,0v4.43a2.73,2.73,0,1,1-5.46,0Zm1.63-4.41v4.38c0,1,.52,1.28,1.09,1.28s1.1-.31,1.1-1.27v-4.4c0-1-.52-1.27-1.1-1.27S242.74,67.49,242.74,68.45Z" fill="#b1b1b1"/>
    <path d="M247.95,72.05V70.82H251v1.23Z" fill="#b1b1b1"/>
    <path d="M251.61,66.52c.85,0,1.08-.18,1.08-.8h1.49v9.84h-1.63V68a2.46,2.46,0,0,1-.94.1Z" fill="#b1b1b1"/>
    <g>
      <path d="M255.67,73.07v-.25a2.08,2.08,0,0,1,1.19-2.14,2.09,2.09,0,0,1-1.1-2.14v-.28a2.68,2.68,0,0,1,5.36,0v.29A2.13,2.13,0,0,1,260,70.68a2.11,2.11,0,0,1,1.2,2.14v.33a2.47,2.47,0,0,1-2.78,2.55,2.44,2.44,0,0,1-2.75-2.63Zm1.68-4.47c0,1.1.42,1.38,1.08,1.38s1.08-.33,1.08-1.38-.42-1.4-1.08-1.4-1.09.27-1.09,1.4Zm0,4.15c0,1.16.42,1.45,1.08,1.45s1.08-.35,1.08-1.45c0-1.26-.42-1.48-1.08-1.48s-1.09.28-1.09,1.48Z" fill="#b1b1b1"/>
      <path d="M266.7,75.57h-1.55V67.74h1.47v.64a1.45,1.45,0,0,1,1.33-.73,1.6,1.6,0,0,1,1.52.88,1.79,1.79,0,0,1,1.58-.88c1.09,0,1.76.68,1.76,2.29v5.63h-1.56V69.92c0-.64-.35-.87-.74-.87a.74.74,0,0,0-.74.84v5.68h-1.56V69.92c0-.63-.34-.87-.75-.87a.73.73,0,0,0-.74.84Z" fill="#b1b1b1"/>
      <path d="M274.2,73.1V70.21a2.45,2.45,0,0,1,4.9,0h0V73.1a2.45,2.45,0,0,1-4.9,0Zm1.55-3.1v3.31a.9.9,0,0,0,1.8,0h0V70a.9.9,0,0,0-1.8,0Z" fill="#b1b1b1"/>
      <path d="M282,75.57h-1.55V67.74h1.47v.7a1.73,1.73,0,0,1,1.51-.78c1.17,0,1.94.71,1.94,2.37v5.54H283.8V70.11c0-.74-.38-1-.91-1s-.89.31-.89,1Z" fill="#b1b1b1"/>
      <path d="M286.47,69.12V67.83c.87,0,1.13-.34,1.13-1.48h1.06v1.38h1.21v1.38h-1.21v4c0,.75.11,1.1.92,1.1a1.42,1.42,0,0,0,.31,0v1.4h-.61c-1.94,0-2.16-1.16-2.16-3V69.12h-.65Z" fill="#b1b1b1"/>
      <path d="M292.8,75.57h-1.55V65h1.55v3.35a1.76,1.76,0,0,1,1.48-.73c1.09,0,1.88.59,1.88,2.35v5.58H294.6v-5.2c0-.91-.25-1.3-.91-1.3s-.89.31-.89,1.06Z" fill="#b1b1b1"/>
      <path d="M302.2,69.87h-1.52A.8.8,0,0,0,300,69h-.21a.67.67,0,0,0-.75.68c0,1.38,3.23,1.75,3.23,3.91,0,1.26-.81,2.14-2.43,2.14a2.24,2.24,0,0,1-2.53-2.32h1.55a.9.9,0,0,0,.79,1h.21a.78.78,0,0,0,.89-.79c0-1.12-3.27-1.76-3.27-3.87a2,2,0,0,1,2.29-2.08C301.32,67.63,302.2,68.37,302.2,69.87Z" fill="#b1b1b1"/>
      <path d="M304.39,69.57a1,1,0,1,1,1-1h0A1,1,0,0,1,304.39,69.57Zm0,6.1a.94.94,0,0,1-.94-.94h0a.94.94,0,0,1,1.88,0h0a.94.94,0,0,1-.94.94Z" fill="#b1b1b1"/>
      <g>
        <path d="M314.26,70v3.27c0,1.66-.77,2.37-1.94,2.37a1.65,1.65,0,0,1-1.41-.68v3.29h-1.56V67.74h1.47v.68a1.7,1.7,0,0,1,1.51-.78C313.5,67.64,314.26,68.34,314.26,70Zm-3.37.21v2.86c0,.82.36,1.16.89,1.16s.91-.35.91-1.17V70.22c0-.84-.35-1.19-.91-1.19s-.88.37-.88,1.19Z" fill="#b1b1b1"/>
        <path d="M317.13,75.57h-1.56V65h1.56Z" fill="#b1b1b1"/>
      </g>
      <path d="M318.71,73.28V70c0-1.67.78-2.37,1.93-2.37a1.76,1.76,0,0,1,1.52.77v-.68h1.45v7.83h-1.45v-.68a1.73,1.73,0,0,1-1.52.8C319.48,75.68,318.71,75,318.71,73.28Zm3.35-.2v-3c0-.73-.41-1-.89-1s-.89.35-.89,1.19v2.85c0,.85.33,1.19.89,1.19S322.06,73.92,322.06,73.08Z" fill="#b1b1b1"/>
      <path d="M329.81,73.1a2.45,2.45,0,0,1-4.9,0h0V70.21a2.45,2.45,0,0,1,4.9,0h0v.13h-1.55V70a.9.9,0,0,0-1.8,0h0v3.31a.9.9,0,0,0,1.8,0h0V73h1.55Z" fill="#b1b1b1"/>
      <path d="M331,73.13v-2.9a2.32,2.32,0,0,1,2.46-2.58,2.29,2.29,0,0,1,2.44,2.6v2h-3.35v1.27a.89.89,0,0,0,.84.94h.07a.82.82,0,0,0,.89-.85v-.14h1.55a2.21,2.21,0,0,1-2.18,2.24h-.26A2.3,2.3,0,0,1,331,73.13Zm1.55-2h1.8v-1c0-.89-.35-1.19-.89-1.19a.86.86,0,0,0-.91,1Z" fill="#b1b1b1"/>
      <path d="M338.81,74.9v.67h-1.47V65h1.55v3.32a1.69,1.69,0,0,1,1.42-.7c1.17,0,1.94.71,1.94,2.37v3.28c0,1.67-.77,2.39-1.94,2.39A1.7,1.7,0,0,1,338.81,74.9Zm1.89-1.82V70.24c0-.82-.34-1.19-.91-1.19s-.89.35-.89,1.16v2.88c0,.84.35,1.2.89,1.2S340.7,73.94,340.7,73.08Z" fill="#b1b1b1"/>
      <path d="M343.5,73.1V70.21a2.45,2.45,0,0,1,4.9,0h0V73.1a2.45,2.45,0,0,1-4.9,0ZM345,70v3.31a.9.9,0,0,0,1.8,0h0V70a.9.9,0,0,0-1.8,0Z" fill="#b1b1b1"/>
    </g>
    <g>
      <path d="M354.88,76.21c-1.93,0-2.4-.8-2.4-2.62v-6c0-1.83.47-2.62,2.4-2.62v1c-1.1,0-1.28.42-1.28,1.38V73.8c0,1,.15,1.4,1.28,1.4Z" fill="#b1b1b1"/>
      <path d="M357.6,75.57h-1.12V67.74h1.06v.82a1.83,1.83,0,0,1,1.68-.92c1.45,0,2,1,2,2.71v5.22H360.1V70.4c0-1.17-.21-1.81-1.29-1.81-.87,0-1.27.52-1.27,1.56Z" fill="#b1b1b1"/>
      <path d="M362.87,70.15v-1H367v1Zm0,2v-1H367v1Z" fill="#b1b1b1"/>
    </g>
    <path d="M368.53,73v-.31a2,2,0,0,1,1.35-2.14,2,2,0,0,1-1.27-2.07v-.36a2.64,2.64,0,0,1,5.28,0v.36a2,2,0,0,1-1.27,2.07A2,2,0,0,1,374,72.69V73a2.53,2.53,0,0,1-2.35,2.7h-.43a2.51,2.51,0,0,1-2.69-2.7Zm2.78,1.55c1.08,0,1.48-.71,1.48-1.69v-.18c0-1-.52-1.59-1.42-1.59h-.22c-.92,0-1.44.54-1.44,1.59v.18c0,1,.42,1.69,1.49,1.69Zm0-4.5c.85,0,1.38-.57,1.38-1.65v-.18a1.47,1.47,0,1,0-2.93,0v.18c0,1.08.52,1.65,1.38,1.65h.17Z" fill="#b1b1b1"/>
    <path d="M380.09,75.57H375v-.73c0-3.77,4.06-4.11,4.06-6.62a1.35,1.35,0,0,0-1.47-1.51,1.43,1.43,0,0,0-1.45,1.58H375a2.49,2.49,0,0,1,2.26-2.7h.34a2.45,2.45,0,0,1,2.58,2.69c0,3-4,3.66-4,6.14h3.92Z" fill="#b1b1b1"/>
    <g>
      <path d="M381.38,66.49c.84,0,1-.18,1-.77h1.07v9.84h-1.16v-8.1a1.52,1.52,0,0,1-.81.18h-.12Z" fill="#b1b1b1"/>
      <path d="M385.07,75.19c1.13,0,1.28-.41,1.28-1.4V67.4c0-1-.17-1.38-1.28-1.38V65c1.93,0,2.4.8,2.4,2.63v6c0,1.83-.47,2.63-2.4,2.63Z" fill="#b1b1b1"/>
    </g>
    <path d="M241,83.28c.85,0,1.08-.18,1.08-.8h1.49v9.84h-1.63V84.76a2.46,2.46,0,0,1-.94.1Z" fill="#b1b1b1"/>
    <path d="M248.2,92.33h-1.76l1.45-3.13a3.08,3.08,0,0,1-.7.08c-1.59,0-2.39-1-2.39-2.62V85.19a2.72,2.72,0,1,1,5.45,0h0v1.3a6.3,6.3,0,0,1-.54,2.5C249.48,89.53,248.2,92.33,248.2,92.33Zm.42-5.6V85.29c0-1.07-.46-1.35-1.09-1.35s-1.09.28-1.09,1.35v1.44c0,.91.5,1.17,1.09,1.17S248.62,87.62,248.62,86.73Z" fill="#b1b1b1"/>
    <path d="M251.51,88.81V87.58h3.1v1.23Z" fill="#b1b1b1"/>
    <path d="M260.4,88.56h.87V90h-.87v2.28h-1.58V90h-3.41V88.56l3.42-6.07h1.56Zm-1.58,0V85.09l-1.93,3.46Z" fill="#b1b1b1"/>
    <g>
      <path d="M263.85,85.12h-1.62a2.54,2.54,0,0,1,2.69-2.78A2.47,2.47,0,0,1,267.63,85v.25a2,2,0,0,1-1.17,2.05c.74.24,1.26.91,1.26,2.19v.22A2.51,2.51,0,0,1,265,92.45a2.61,2.61,0,0,1-2.78-2.85h1.63c0,.82.4,1.24,1.12,1.24a1,1,0,0,0,1.16-1.17v-.28c0-1-.5-1.34-1.14-1.34h-1V86.64h.84c.66,0,1.17-.32,1.17-1.31v-.21c0-.89-.47-1.16-1.08-1.16a1,1,0,0,0-1.07,1.16Z" fill="#b1b1b1"/>
      <path d="M273.28,92.33h-1.55V84.49h1.47v.64a1.45,1.45,0,0,1,1.33-.73,1.6,1.6,0,0,1,1.52.88,1.79,1.79,0,0,1,1.58-.88c1.09,0,1.76.68,1.76,2.29v5.63h-1.56V86.67c0-.64-.35-.87-.74-.87a.74.74,0,0,0-.74.84v5.68h-1.56V86.67c0-.63-.34-.87-.75-.87a.73.73,0,0,0-.74.84Z" fill="#b1b1b1"/>
      <path d="M280.67,89.85V87a2.45,2.45,0,0,1,4.9,0h0v2.89a2.45,2.45,0,0,1-4.9,0h0Zm1.55-3.08v3.31a.9.9,0,0,0,1.8,0h0V86.77a.9.9,0,0,0-1.8,0Z" fill="#b1b1b1"/>
      <path d="M288.48,92.33h-1.55V84.49h1.47v.7a1.73,1.73,0,0,1,1.51-.78c1.17,0,1.94.71,1.94,2.37v5.54h-1.56V86.87c0-.74-.38-1-.91-1s-.89.31-.89,1Z" fill="#b1b1b1"/>
      <path d="M293,85.88V84.59c.87,0,1.13-.34,1.13-1.48h1.06v1.38h1.21v1.38h-1.21v4c0,.75.11,1.1.92,1.1a1.42,1.42,0,0,0,.31,0v1.4h-.61c-1.94,0-2.16-1.16-2.16-3V85.88Z" fill="#b1b1b1"/>
      <path d="M299.28,92.33h-1.55V81.77h1.55v3.35a1.76,1.76,0,0,1,1.48-.73c1.09,0,1.88.59,1.88,2.35v5.58h-1.56V87.1c0-.91-.25-1.3-.91-1.3s-.89.31-.89,1.06Z" fill="#b1b1b1"/>
      <path d="M308.68,86.63h-1.52a.8.8,0,0,0-.67-.91h-.22a.67.67,0,0,0-.75.68c0,1.38,3.22,1.75,3.22,3.91,0,1.26-.81,2.14-2.43,2.14a2.24,2.24,0,0,1-2.53-2.32h1.55a.9.9,0,0,0,.79,1h.21a.78.78,0,0,0,.89-.79c0-1.12-3.27-1.76-3.27-3.87a2,2,0,0,1,2.29-2.08C307.8,84.38,308.68,85.12,308.68,86.63Z" fill="#b1b1b1"/>
      <path d="M310.87,86.32a1,1,0,1,1,1-1h0A1,1,0,0,1,310.87,86.32Zm0,6.1a.94.94,0,0,1-.94-.94h0a.94.94,0,0,1,1.88,0h0a.94.94,0,0,1-.94.94Z" fill="#b1b1b1"/>
      <g>
        <path d="M315.53,89.85V87a2.45,2.45,0,0,1,4.9,0h0v2.89a2.45,2.45,0,0,1-4.9,0h0Zm1.55-3.08v3.31a.9.9,0,0,0,1.8,0h0V86.77a.9.9,0,0,0-1.8,0Z" fill="#b1b1b1"/>
        <path d="M326.57,86.77V90c0,1.66-.77,2.37-1.94,2.37a1.65,1.65,0,0,1-1.41-.68V95h-1.56V84.49h1.47v.68a1.7,1.7,0,0,1,1.51-.78C325.8,84.39,326.57,85.09,326.57,86.77ZM323.2,87v2.86c0,.82.36,1.16.89,1.16s.91-.35.91-1.17V87c0-.84-.35-1.19-.91-1.19s-.88.34-.88,1.19Z" fill="#b1b1b1"/>
        <path d="M327.69,89.88V87a2.32,2.32,0,0,1,2.46-2.58,2.29,2.29,0,0,1,2.44,2.6v2h-3.35v1.27a.89.89,0,0,0,.84.94h.07a.82.82,0,0,0,.89-.85v-.14h1.55a2.21,2.21,0,0,1-2.18,2.24h-.26a2.3,2.3,0,0,1-2.46-2.59Zm1.55-2H331v-1c0-.89-.35-1.19-.89-1.19a.86.86,0,0,0-.91,1Z" fill="#b1b1b1"/>
        <path d="M335.33,92.33h-1.55V84.49h1.47v.7a1.73,1.73,0,0,1,1.51-.78c1.17,0,1.94.71,1.94,2.37v5.54h-1.56V86.87c0-.74-.38-1-.91-1s-.89.31-.89,1Z" fill="#b1b1b1"/>
        <path d="M339.71,88.81V87.58h3.1v1.23Z" fill="#b1b1b1"/>
        <path d="M345.58,92.33H344V81.77h1.56Z" fill="#b1b1b1"/>
        <path d="M346.85,90V86.78c0-1.67.78-2.37,1.93-2.37a1.76,1.76,0,0,1,1.52.77V84.5h1.45v7.83H350.3v-.68a1.73,1.73,0,0,1-1.52.8C347.61,92.44,346.85,91.72,346.85,90Zm3.35-.2v-3c0-.73-.41-1-.89-1s-.89.35-.89,1.19v2.85c0,.85.33,1.19.89,1.19s.89-.35.89-1.19Z" fill="#b1b1b1"/>
        <path d="M354.58,91.66v.67h-1.47V81.77h1.55v3.32a1.69,1.69,0,0,1,1.42-.7c1.17,0,1.94.71,1.94,2.37V90c0,1.67-.77,2.39-1.94,2.39A1.7,1.7,0,0,1,354.58,91.66Zm1.89-1.82V87c0-.82-.34-1.19-.91-1.19s-.89.35-.89,1.16v2.88c0,.84.35,1.2.89,1.2S356.47,90.69,356.47,89.84Z" fill="#b1b1b1"/>
        <path d="M359.11,89.88V87a2.32,2.32,0,0,1,2.46-2.58A2.29,2.29,0,0,1,364,87v2h-3.35v1.27a.89.89,0,0,0,.84.94h.07a.82.82,0,0,0,.89-.85v-.14H364a2.21,2.21,0,0,1-2.18,2.24h-.26a2.3,2.3,0,0,1-2.45-2.57Zm1.55-2h1.8v-1c0-.89-.35-1.19-.89-1.19a.86.86,0,0,0-.91,1Z" fill="#b1b1b1"/>
        <path d="M366.8,92.33h-1.56V81.77h1.56Z" fill="#b1b1b1"/>
      </g>
    </g>
    <g>
      <path d="M241.09,106.79v-3.25c0-1.67.78-2.37,1.93-2.37a1.76,1.76,0,0,1,1.52.77v-.68H246v7.83h-1.45v-.68a1.73,1.73,0,0,1-1.52.8C241.86,109.19,241.09,108.48,241.09,106.79Zm3.35-.2v-3c0-.73-.41-1-.89-1s-.89.35-.89,1.19v2.85c0,.85.33,1.19.89,1.19S244.44,107.43,244.44,106.59Z" fill="#b1b1b1"/>
      <path d="M249,109.08h-1.56V98.53H249Z" fill="#b1b1b1"/>
      <path d="M250.49,106.64v-2.9a2.32,2.32,0,0,1,2.46-2.58,2.29,2.29,0,0,1,2.44,2.6v2H252V107a.89.89,0,0,0,.84.94h.07a.82.82,0,0,0,.89-.85V107h1.55a2.21,2.21,0,0,1-2.18,2.24h-.26a2.3,2.3,0,0,1-2.42-2.54Zm1.55-2h1.8v-1c0-.89-.35-1.19-.89-1.19a.86.86,0,0,0-.91,1Z" fill="#b1b1b1"/>
      <path d="M258.28,109.08h-1.55v-7.83h1.47v.7a1.73,1.73,0,0,1,1.51-.78c1.17,0,1.94.71,1.94,2.37v5.54h-1.56v-5.46c0-.74-.38-1-.91-1s-.89.31-.89,1Z" fill="#b1b1b1"/>
      <path d="M263,106.8v-3.27c0-1.67.77-2.37,1.93-2.37a1.6,1.6,0,0,1,1.41.68V98.53h1.56v10.55h-1.45v-.67a1.71,1.71,0,0,1-1.52.78C263.76,109.19,263,108.48,263,106.8Zm3.35-.21v-2.88c0-.82-.35-1.16-.89-1.16s-.89.36-.89,1.19v2.85c0,.85.35,1.2.89,1.2s.88-.34.88-1.2Z" fill="#b1b1b1"/>
      <path d="M272.5,102.71h-.21c-1.12,0-1.41.59-1.41,1.87v4.5h-1.55v-7.83h1.47V102a1.52,1.52,0,0,1,1.58-.87h.13Z" fill="#b1b1b1"/>
      <path d="M273.58,106.61v-2.89a2.45,2.45,0,1,1,4.9,0h0v2.89a2.45,2.45,0,0,1-4.9,0Zm1.55-3.08v3.31a.9.9,0,0,0,1.8,0h0v-3.31a.9.9,0,0,0-1.8,0Z" fill="#b1b1b1"/>
      <path d="M281.48,109.08h-1.55v-7.83h1.47v.7a1.73,1.73,0,0,1,1.51-.78c1.17,0,1.94.71,1.94,2.37v5.54h-1.56v-5.46c0-.74-.38-1-.91-1s-.89.31-.89,1Z" fill="#b1b1b1"/>
      <path d="M286.19,106.79v-3.25c0-1.67.78-2.37,1.93-2.37a1.76,1.76,0,0,1,1.52.77v-.68h1.45v7.83h-1.45v-.68a1.73,1.73,0,0,1-1.52.8C287,109.19,286.19,108.48,286.19,106.79Zm3.35-.2v-3c0-.73-.41-1-.89-1s-.89.35-.89,1.19v2.85c0,.85.33,1.19.89,1.19S289.54,107.43,289.54,106.59Z" fill="#b1b1b1"/>
      <path d="M292.25,102.63v-1.28c.87,0,1.13-.34,1.13-1.48h1.06v1.38h1.21v1.38h-1.21v4c0,.75.11,1.1.92,1.1a1.42,1.42,0,0,0,.31,0v1.4h-.61c-1.94,0-2.16-1.16-2.16-3v-3.56h-.64Z" fill="#b1b1b1"/>
      <path d="M296.79,106.64v-2.9a2.32,2.32,0,0,1,2.46-2.58,2.29,2.29,0,0,1,2.44,2.6v2h-3.35V107a.89.89,0,0,0,.84.94h.07a.82.82,0,0,0,.89-.85V107h1.55a2.21,2.21,0,0,1-2.18,2.24h-.26a2.3,2.3,0,0,1-2.46-2.54Zm1.55-2h1.8v-1c0-.89-.35-1.19-.89-1.19a.86.86,0,0,0-.91,1Z" fill="#b1b1b1"/>
      <path d="M308,109.72c-1.93,0-2.4-.8-2.4-2.62v-6c0-1.83.47-2.63,2.4-2.63v1c-1.1,0-1.28.42-1.28,1.38v6.39c0,1,.15,1.4,1.28,1.4Z" fill="#b1b1b1"/>
      <path d="M310.66,109.08h-1.12v-7.83h1.06v.82a1.83,1.83,0,0,1,1.68-.92c1.45,0,2,1,2,2.71v5.22h-1.12v-5.17c0-1.17-.21-1.81-1.29-1.81-.87,0-1.27.52-1.27,1.56Z" fill="#b1b1b1"/>
      <path d="M315.93,103.66v-1h4.16v1Zm0,2v-1h4.16v1Z" fill="#b1b1b1"/>
      <path d="M322.71,106.41c0,1.19.63,1.66,1.48,1.66s1.52-.54,1.52-2v-.89c0-1.08-.47-1.82-1.51-1.82a1.38,1.38,0,0,0-1.4.94l-1.1-.2.73-4.86h4v1.14h-3.09L323,103a2,2,0,0,1,1.55-.67c1.49,0,2.35,1,2.35,2.83V106c0,1.91-.87,3.21-2.67,3.21a2.6,2.6,0,0,1-2.66-2.54h0v-.25Z" fill="#b1b1b1"/>
      <path d="M328.33,106.51v-.31a2,2,0,0,1,1.35-2.14,2,2,0,0,1-1.27-2.07v-.36a2.64,2.64,0,0,1,5.28,0V102a2,2,0,0,1-1.27,2.07,2,2,0,0,1,1.35,2.14v.31a2.53,2.53,0,0,1-2.35,2.7H331a2.51,2.51,0,0,1-2.67-2.71Zm2.78,1.55c1.08,0,1.48-.71,1.48-1.69v-.18c0-1-.52-1.59-1.42-1.59h-.22c-.92,0-1.44.54-1.44,1.59v.18c0,1,.42,1.69,1.49,1.69Zm0-4.5c.85,0,1.38-.57,1.38-1.65v-.18a1.47,1.47,0,1,0-2.93,0v.18c0,1.08.52,1.65,1.38,1.65h.17Z" fill="#b1b1b1"/>
      <path d="M335.12,100c.84,0,1-.18,1-.77h1.08v9.84H336V101a1.52,1.52,0,0,1-.81.18h-.13Z" fill="#b1b1b1"/>
      <path d="M338.82,108.7c1.13,0,1.28-.41,1.28-1.4v-6.39c0-1-.17-1.38-1.28-1.38v-1c1.93,0,2.4.8,2.4,2.63v6c0,1.83-.47,2.63-2.4,2.63Z" fill="#b1b1b1"/>
    </g>
    <rect x="202.9" y="65.2" width="32.9" height="10.8" fill="#b1b1b1"/>
  </g>
  <path d="M77,402.56c0,1.19.63,1.67,1.48,1.67s1.53-.55,1.53-2v-.9c0-1.08-.48-1.82-1.51-1.82a1.38,1.38,0,0,0-1.4.94l-1.11-.2.73-4.87h4v1.15h-3.1l-.39,2.62a2,2,0,0,1,1.55-.67c1.5,0,2.35,1,2.35,2.84v.84c0,1.92-.87,3.22-2.68,3.22a2.61,2.61,0,0,1-2.67-2.55h0v-.25Z" fill="#fff"/>
  <g>
    <path d="M369.08,401.66h1v1.09h-1v2.48h-1.15v-2.48H364.3v-1.09l3.67-6.3h1.11Zm-1.15,0v-4.29l-2.48,4.27Z" fill="#fff"/>
    <path d="M372.29,402.56c0,1.19.63,1.67,1.48,1.67s1.53-.55,1.53-2v-.9c0-1.08-.48-1.82-1.51-1.82a1.38,1.38,0,0,0-1.4.94l-1.11-.2.73-4.87h4v1.15h-3.1l-.39,2.62a2,2,0,0,1,1.55-.67c1.5,0,2.35,1,2.35,2.84v.84c0,1.92-.87,3.22-2.67,3.22a2.61,2.61,0,0,1-2.67-2.55h0v-.25Z" fill="#fff"/>
  </g>
  <g>
    <path d="M332.54,401.66h1v1.09h-1v2.48h-1.15v-2.48h-3.63v-1.09l3.67-6.3h1.11Zm-1.15,0v-4.29l-2.48,4.27Z" fill="#fff"/>
    <path d="M334.8,402.54V398a2.68,2.68,0,1,1,5.35,0v4.51a2.68,2.68,0,1,1-5.35,0Zm4.16-.11v-4.29c0-1.23-.64-1.76-1.49-1.76s-1.5.53-1.5,1.76v4.29c0,1.23.63,1.77,1.5,1.77s1.53-.53,1.53-1.77Z" fill="#fff"/>
  </g>
  <g>
    <path d="M294.18,396.35c-1,0-1.5.5-1.5,1.65h-1.13a2.64,2.64,0,0,1,5.28-.24v.36a2.35,2.35,0,0,0,.08,4.22v.31a2.71,2.71,0,0,1-5.42-.14h1.19A1.52,1.52,0,0,0,294,404.2h.22c1.12,0,1.5-.67,1.5-1.65v-.22c0-1-.53-1.6-1.44-1.6h-1v-1h1c.86,0,1.39-.57,1.39-1.65v-.18a1.34,1.34,0,0,0-1.5-1.56Z" fill="#fff"/>
    <path d="M299.28,402.56c0,1.19.63,1.67,1.48,1.67s1.53-.55,1.53-2v-.9c0-1.08-.48-1.82-1.51-1.82a1.38,1.38,0,0,0-1.4.94l-1.11-.2.73-4.87h4v1.15h-3.1l-.39,2.62a2,2,0,0,1,1.55-.67c1.5,0,2.35,1,2.35,2.84v.84c0,1.92-.87,3.22-2.68,3.22a2.6,2.6,0,0,1-2.66-2.8Z" fill="#fff"/>
  </g>
  <g>
    <path d="M257.63,396.35c-1,0-1.5.5-1.5,1.65H255a2.64,2.64,0,0,1,5.28-.24v.36a2.35,2.35,0,0,0,.08,4.22v.31a2.71,2.71,0,0,1-5.42-.14h1.19a1.52,1.52,0,0,0,1.33,1.69h.22c1.12,0,1.5-.67,1.5-1.65v-.22c0-1-.53-1.6-1.44-1.6h-1v-1h1c.86,0,1.39-.57,1.39-1.65v-.18a1.34,1.34,0,0,0-1.5-1.56Z" fill="#fff"/>
    <path d="M261.65,402.54V398a2.68,2.68,0,1,1,5.35,0v4.51a2.68,2.68,0,1,1-5.35,0Zm4.16-.11v-4.29c0-1.23-.64-1.76-1.49-1.76s-1.5.53-1.5,1.76v4.29c0,1.23.63,1.77,1.5,1.77S265.81,403.67,265.81,402.43Z" fill="#fff"/>
  </g>
  <g>
    <path d="M223.65,405.23h-5.1v-.73c0-3.78,4.08-4.12,4.08-6.64a1.35,1.35,0,0,0-1.47-1.51,1.43,1.43,0,0,0-1.46,1.58h-1.15a2.49,2.49,0,0,1,2.25-2.71h.36a2.46,2.46,0,0,1,2.59,2.7c0,3-4,3.67-4,6.16h3.94Z" fill="#fff"/>
    <path d="M226,402.56c0,1.19.63,1.67,1.48,1.67s1.53-.55,1.53-2v-.9c0-1.08-.48-1.82-1.51-1.82a1.38,1.38,0,0,0-1.4.94l-1.11-.2.73-4.87h4v1.15h-3.1l-.39,2.62a2,2,0,0,1,1.55-.67c1.5,0,2.35,1,2.35,2.84v.84c0,1.92-.87,3.22-2.67,3.22a2.61,2.61,0,0,1-2.67-2.55h0q0-.12,0-.25Z" fill="#fff"/>
  </g>
  <g>
    <path d="M187.1,405.23H182v-.73c0-3.78,4.08-4.12,4.08-6.64a1.35,1.35,0,0,0-1.47-1.51,1.43,1.43,0,0,0-1.46,1.58H182a2.49,2.49,0,0,1,2.25-2.71h.36a2.46,2.46,0,0,1,2.59,2.7c0,3-4,3.67-4,6.16h3.94Z" fill="#fff"/>
    <path d="M188.61,402.54V398a2.68,2.68,0,1,1,5.35,0v4.51a2.68,2.68,0,1,1-5.35,0Zm4.16-.11v-4.29c0-1.23-.64-1.76-1.48-1.76s-1.5.53-1.5,1.76v4.29c0,1.23.63,1.77,1.5,1.77S192.77,403.67,192.77,402.43Z" fill="#fff"/>
  </g>
  <g>
    <path d="M146.93,396.13c.84,0,1-.18,1-.77H149v9.88h-1.16V397.1a1.51,1.51,0,0,1-.81.18h-.13Z" fill="#fff"/>
    <path d="M151.72,402.56c0,1.19.63,1.67,1.48,1.67s1.53-.55,1.53-2v-.9c0-1.08-.48-1.82-1.51-1.82a1.38,1.38,0,0,0-1.4.94l-1.11-.2.73-4.87h4v1.15h-3.1l-.39,2.62a2,2,0,0,1,1.55-.67c1.5,0,2.35,1,2.35,2.84v.84c0,1.92-.87,3.22-2.68,3.22a2.61,2.61,0,0,1-2.67-2.55h0v-.25Z" fill="#fff"/>
  </g>
  <g>
    <path d="M110.38,396.13c.84,0,1-.18,1-.77h1.08v9.88H111.3V397.1a1.51,1.51,0,0,1-.81.18h-.13Z" fill="#fff"/>
    <path d="M114.09,402.54V398a2.68,2.68,0,1,1,5.35,0v4.51a2.68,2.68,0,1,1-5.35,0Zm4.16-.11v-4.29c0-1.23-.64-1.76-1.48-1.76s-1.5.53-1.5,1.76v4.29c0,1.23.63,1.77,1.5,1.77S118.25,403.67,118.25,402.43Z" fill="#fff"/>
  </g>
  <path d="M25,381.62v-4.51a2.68,2.68,0,1,1,5.35,0v4.51a2.68,2.68,0,1,1-5.35,0Zm4.16-.11v-4.29c0-1.23-.64-1.76-1.48-1.76s-1.5.53-1.5,1.76v4.29c0,1.23.63,1.77,1.5,1.77s1.46-.54,1.46-1.77Z" fill="#fff"/>
  <path d="M38.48,402.54V398a2.68,2.68,0,1,1,5.35,0v4.51a2.68,2.68,0,1,1-5.35,0Zm4.16-.11v-4.29c0-1.23-.64-1.76-1.48-1.76s-1.5.53-1.5,1.76v4.29c0,1.23.63,1.77,1.5,1.77S42.64,403.67,42.64,402.43Z" fill="#fff"/>
  <path d="M30.13,335.86H25v-.73c0-3.78,4.08-4.12,4.08-6.64A1.35,1.35,0,0,0,27.89,327h-.25a1.43,1.43,0,0,0-1.46,1.58H25a2.49,2.49,0,0,1,2.25-2.71h.36a2.46,2.46,0,0,1,2.59,2.7c0,3-4,3.67-4,6.16h3.94Z" fill="#fff"/>
  <path d="M29.46,283.83h1v1.09h-1v2.48H28.32v-2.48H24.69v-1.09l3.67-6.3h1.11Zm-1.15,0v-4.29l-2.48,4.27Z" fill="#fff"/>
  <path d="M27.21,229.07h1.27l-1.54,3.15a2.87,2.87,0,0,1,1-.18c1.78,0,2.38,1.3,2.38,3v1c0,1.86-.88,3.12-2.66,3.12S25,237.81,25,235.92v-.55a6.3,6.3,0,0,1,.56-2.94C26.12,231.38,27.21,229.07,27.21,229.07Zm-1,6.08v.5c0,1.68.38,2.27,1.48,2.27s1.48-.59,1.48-2.27v-.5c0-1.5-.42-2.12-1.48-2.12s-1.49.67-1.49,2.12Z" fill="#fff"/>
  <path d="M24.93,187.91v-.31a2,2,0,0,1,1.36-2.14A2,2,0,0,1,25,183.39V183a2.43,2.43,0,0,1,2.3-2.55h.38A2.43,2.43,0,0,1,30.31,183v.36a2.06,2.06,0,0,1-1.31,2.1,2.06,2.06,0,0,1,1.36,2.14v.31a2.53,2.53,0,0,1-2.35,2.7h-.44a2.52,2.52,0,0,1-2.64-2.7Zm2.79,1.55c1.08,0,1.48-.71,1.48-1.7v-.18c0-1.05-.52-1.6-1.43-1.6h-.22c-.92,0-1.44.55-1.44,1.6v.18c0,1,.42,1.7,1.5,1.7Zm0-4.51c.85,0,1.39-.57,1.39-1.65v-.18a1.34,1.34,0,0,0-1.47-1.51,1.33,1.33,0,0,0-1.47,1.51v.18c0,1.08.52,1.65,1.39,1.65Z" fill="#fff"/>
  <g>
    <path d="M22.83,132.93c.84,0,1-.18,1-.77h1.08V142H23.77v-8.14A1.51,1.51,0,0,1,23,134h-.13Z" fill="#fff"/>
    <path d="M26.54,139.34v-4.51a2.68,2.68,0,1,1,5.35,0v4.51a2.68,2.68,0,1,1-5.35,0Zm4.16-.11v-4.29c0-1.23-.64-1.76-1.48-1.76s-1.5.53-1.5,1.76v4.29c0,1.23.63,1.77,1.5,1.77S30.7,140.46,30.7,139.23Z" fill="#fff"/>
  </g>
  <g>
    <path d="M177.15,370.62c.73,0,.92-.18.92-.8h1.28v9.88h-1.4v-7.6a1.8,1.8,0,0,1-.8.1Z" fill="#fff"/>
    <path d="M183.38,379.69h-1.5l1.24-3.14a2.23,2.23,0,0,1-.6.08c-1.36,0-2-1-2-2.63v-1.47c0-1.7.93-2.84,2.33-2.84s2.33,1.15,2.33,2.84v1.3a7.25,7.25,0,0,1-.47,2.51C184.47,376.89,183.38,379.69,183.38,379.69Zm.36-5.62v-1.44c0-1.08-.39-1.36-.93-1.36s-.93.28-.93,1.36v1.44c0,.91.43,1.18.93,1.18s.92-.25.92-1.17Z" fill="#fff"/>
  </g>
  <rect x="41.35" y="138.3" width="0.5" height="245" fill="#e6e6e6"/>
  <rect x="42" y="383.55" width="328.6" height="0.5" fill="#e6e6e6"/>
  <path d="M181.4,365.82a.5.5,0,0,1-.5-.5v-.13a.5.5,0,0,1,1,0v.13A.5.5,0,0,1,181.4,365.82Zm0-3.14a.5.5,0,0,1-.5-.5V362a.5.5,0,0,1,1,0v.13a.5.5,0,0,1-.45.55h-.05Zm0-3.15a.5.5,0,0,1-.5-.5v-.13a.5.5,0,0,1,1,0v.1a.5.5,0,0,1-.47.53h0Zm0-3.14a.5.5,0,0,1-.5-.5v-.13a.5.5,0,0,1,1,0v.13a.5.5,0,0,1-.5.5h0Zm0-3.15a.5.5,0,0,1-.5-.5v-.13a.5.5,0,0,1,1,0v.13A.5.5,0,0,1,181.4,353.24Zm0-3.14a.5.5,0,0,1-.5-.5v-.13a.5.5,0,0,1,1,0v.13a.5.5,0,0,1-.5.5h0Zm0-3.15a.5.5,0,0,1-.5-.5v-.13a.5.5,0,0,1,1,0v.13a.5.5,0,0,1-.45.55h-.05Zm0-3.14a.5.5,0,0,1-.5-.5v-.13a.5.5,0,0,1,1,0v.13a.5.5,0,0,1-.5.5h0Zm0-3.14a.5.5,0,0,1-.5-.5V340a.5.5,0,0,1,1,0v.13a.5.5,0,0,1-.47.53h0Zm0-3.15a.5.5,0,0,1-.5-.5v-.13a.5.5,0,0,1,1,0V337a.5.5,0,0,1-.48.52h0Zm0-3.14a.5.5,0,0,1-.5-.5v-.13a.5.5,0,0,1,1,0v.13a.5.5,0,0,1-.5.49Zm0-3.15a.5.5,0,0,1-.5-.5v-.13a.5.5,0,0,1,1,0v.13a.5.5,0,0,1-.5.5h0Zm0-3.14a.5.5,0,0,1-.5-.5v-.13a.5.5,0,0,1,1,0v.13a.5.5,0,0,1-.5.49Zm0-3.15a.5.5,0,0,1-.5-.5v-.13a.5.5,0,0,1,1,0v.13a.5.5,0,0,1-.5.5h0Zm0-3.14a.5.5,0,0,1-.5-.5v-.13a.5.5,0,0,1,1,0v.13a.5.5,0,0,1-.5.49Zm0-3.15a.5.5,0,0,1-.5-.5V318a.5.5,0,0,1,1,0v.13a.5.5,0,0,1-.48.52h0Zm0-3.14a.5.5,0,0,1-.5-.5v-.13a.5.5,0,0,1,1,0V315a.5.5,0,0,1-.5.5Zm0-3.15a.5.5,0,0,1-.5-.5v-.13a.5.5,0,0,1,1,0v.13a.5.5,0,0,1-.5.5h0Zm0-3.14a.5.5,0,0,1-.5-.5v-.13a.5.5,0,0,1,1,0v.13a.5.5,0,0,1-.5.49Zm0-3.15a.5.5,0,0,1-.5-.5v-.13a.5.5,0,0,1,1,0v.13a.5.5,0,0,1-.5.5h0Zm0-3.14a.5.5,0,0,1-.5-.5v-.13a.5.5,0,0,1,1,0v.13a.5.5,0,0,1-.5.49Zm0-3.15a.5.5,0,0,1-.5-.5v-.13a.5.5,0,0,1,1,0v.13a.5.5,0,0,1-.5.5h0Zm0-3.14a.5.5,0,0,1-.5-.5V296a.5.5,0,0,1,1,0v.13a.5.5,0,0,1-.5.5Zm0-3.15a.5.5,0,0,1-.5-.5v-.13a.5.5,0,0,1,1,0V293a.5.5,0,0,1-.5.49Zm0-3.14a.5.5,0,0,1-.5-.5v-.13a.5.5,0,0,1,1,0v.13a.5.5,0,0,1-.5.49Zm0-3.15a.5.5,0,0,1-.5-.5v-.13a.5.5,0,0,1,1,0v.13a.5.5,0,0,1-.5.5h0Zm0-3.14a.5.5,0,0,1-.5-.5v-.13a.5.5,0,0,1,1,0v.13a.5.5,0,0,1-.5.49Zm0-3.14a.5.5,0,0,1-.5-.5v-.13a.5.5,0,0,1,1,0v.13a.5.5,0,0,1-.5.49Zm0-3.15a.5.5,0,0,1-.5-.5v-.13a.5.5,0,0,1,1,0v.13a.5.5,0,0,1-.5.49Zm0-3.14a.5.5,0,0,1-.5-.5V274a.5.5,0,0,1,1,0v.13a.5.5,0,0,1-.5.49Zm0-3.15a.5.5,0,0,1-.5-.5v-.13a.5.5,0,0,1,1,0V271a.5.5,0,0,1-.5.47Zm0-3.14a.5.5,0,0,1-.5-.5v-.13a.5.5,0,0,1,1,0v.13a.5.5,0,0,1-.5.49Zm0-3.15a.5.5,0,0,1-.5-.5v-.13a.5.5,0,0,1,1,0v.13a.5.5,0,0,1-.5.49Zm0-3.14a.5.5,0,0,1-.5-.5v-.13a.5.5,0,0,1,1,0v.13a.5.5,0,0,1-.5.45Zm0-3.15a.5.5,0,0,1-.5-.5v-.13a.5.5,0,0,1,1,0v.13a.5.5,0,0,1-.5.49Zm0-3.14a.5.5,0,0,1-.5-.5v-.13a.5.5,0,0,1,1,0v.13a.5.5,0,0,1-.5.49Zm0-3.15a.5.5,0,0,1-.5-.5V252a.5.5,0,0,1,1,0v.13a.5.5,0,0,1-.5.47Zm0-3.14a.5.5,0,0,1-.5-.5v-.13a.5.5,0,0,1,1,0V249a.5.5,0,0,1-.5.46Zm0-3.15a.5.5,0,0,1-.5-.5v-.13a.5.5,0,0,1,1,0v.13a.5.5,0,0,1-.5.49Zm0-3.14a.5.5,0,0,1-.5-.5v-.13a.5.5,0,0,1,1,0v.13a.5.5,0,0,1-.5.49Zm0-3.15a.5.5,0,0,1-.5-.5v-.13a.5.5,0,0,1,1,0v.13a.5.5,0,0,1-.5.47Zm0-3.14a.5.5,0,0,1-.5-.5v-.13a.5.5,0,0,1,1,0v.13a.5.5,0,0,1-.5.49Zm0-3.15a.5.5,0,0,1-.5-.5v-.13a.5.5,0,0,1,1,0v.13a.5.5,0,0,1-.5.49Zm0-3.14a.5.5,0,0,1-.5-.5V230a.5.5,0,0,1,1,0v.13a.5.5,0,0,1-.5.46Zm0-3.15a.5.5,0,0,1-.5-.5v-.13a.5.5,0,0,1,1,0v.13a.5.5,0,0,1-.5.49Zm0-3.14a.5.5,0,0,1-.5-.5v-.13a.5.5,0,0,1,1,0v.13a.5.5,0,0,1-.5.49Zm0-3.14a.5.5,0,0,1-.5-.5v-.13a.5.5,0,0,1,1,0v.13a.5.5,0,0,1-.5.48Zm0-3.15a.5.5,0,0,1-.5-.5v-.13a.5.5,0,0,1,1,0v.13a.5.5,0,0,1-.5.48Zm0-3.15a.5.5,0,0,1-.5-.5v-.13a.5.5,0,0,1,1,0v.13a.5.5,0,0,1-.5.49Zm0-3.15a.5.5,0,0,1-.5-.5v-.13a.5.5,0,0,1,1,0v.13a.5.5,0,0,1-.5.5h0Zm0-3.15a.5.5,0,0,1-.5-.5v-.13a.5.5,0,0,1,1,0v.13a.5.5,0,0,1-.5.5h0Zm0-3.15a.5.5,0,0,1-.5-.5v-.13a.5.5,0,0,1,1,0v.13a.5.5,0,0,1-.49.51h0Zm0-3.15a.5.5,0,0,1-.5-.5v-.13a.5.5,0,0,1,1,0v.13a.5.5,0,0,1-.49.51h0Zm0-3.15a.5.5,0,0,1-.5-.5v-.13a.5.5,0,0,1,1,0v.13a.5.5,0,0,1-.48.52h0Zm0-3.15a.5.5,0,0,1-.5-.5v-.13a.5.5,0,0,1,1,0v.13a.5.5,0,0,1-.47.53h0Zm0-3.15a.5.5,0,0,1-.5-.5v-.13a.5.5,0,0,1,1,0v.13a.5.5,0,0,1-.47.53h0Zm0-3.15a.5.5,0,0,1-.5-.5V189a.5.5,0,0,1,1,0v.13a.5.5,0,0,1-.47.53h0Zm0-3.15a.5.5,0,0,1-.5-.5v-.13a.5.5,0,0,1,1,0V186a.5.5,0,0,1-.46.54h0Zm0-3.14a.5.5,0,0,1-.5-.5v-.13a.5.5,0,0,1,1,0v.13a.5.5,0,0,1-.47.53h0Zm0-3.15a.5.5,0,0,1-.5-.5v-.13a.5.5,0,0,1,1,0v.13a.5.5,0,0,1-.46.54h0Zm0-3.15a.5.5,0,0,1-.5-.5v-.13a.5.5,0,0,1,1,0v.13a.5.5,0,0,1-.46.54h0Zm0-3.15a.5.5,0,0,1-.5-.5v-.13a.5.5,0,0,1,1,0v.13a.5.5,0,0,1-.42.57h-.08Zm0-3.15a.5.5,0,0,1-.5-.5v-.13a.5.5,0,0,1,1,0v.13a.5.5,0,0,1-.45.55h-.05Zm0-3.15a.5.5,0,0,1-.5-.5V167a.5.5,0,0,1,1,0v.13a.5.5,0,0,1-.43.56h-.07Zm0-3.15a.5.5,0,0,1-.5-.5v-.13a.5.5,0,0,1,1,0V164a.5.5,0,0,1-.46.54h0Zm0-3.15a.5.5,0,0,1-.5-.5v-.13a.5.5,0,0,1,1,0v.13a.5.5,0,0,1-.42.57h-.08Zm0-3.15a.5.5,0,0,1-.5-.5v-.13a.5.5,0,0,1,1,0v.13a.5.5,0,0,1-.42.57h-.08Zm0-3.15a.5.5,0,0,1-.5-.5v-.13a.5.5,0,0,1,1,0v.13a.5.5,0,0,1-.41.57h-.09Zm0-3.15a.5.5,0,0,1-.5-.5v-.13a.5.5,0,0,1,1,0v.13a.5.5,0,0,1-.36.61h-.14Zm0-3.15a.5.5,0,0,1-.5-.5v-.13a.5.5,0,0,1,1,0v.13a.5.5,0,0,1-.4.58h-.1Zm0-3.15a.5.5,0,0,1-.5-.5V145a.5.5,0,0,1,1,0v.13a.5.5,0,0,1-.46.54h0Zm0-3.15a.5.5,0,0,1-.5-.5v-.13a.5.5,0,0,1,1,0v.2a.5.5,0,0,1-.47.53h0Z" fill="#bcbdbf"/>
  <path d="M357.4,365.82a.5.5,0,0,1-.5-.5v-.13a.5.5,0,0,1,1,0v.13A.5.5,0,0,1,357.4,365.82Zm0-3.14a.5.5,0,0,1-.5-.5V362a.5.5,0,0,1,1,0v.13a.5.5,0,0,1-.45.55h-.05Zm0-3.15a.5.5,0,0,1-.5-.5v-.13a.5.5,0,0,1,1,0v.1a.5.5,0,0,1-.47.53h0Zm0-3.14a.5.5,0,0,1-.5-.5v-.13a.5.5,0,0,1,1,0v.13a.5.5,0,0,1-.5.5h0Zm0-3.15a.5.5,0,0,1-.5-.5v-.13a.5.5,0,0,1,1,0v.13A.5.5,0,0,1,357.4,353.24Zm0-3.14a.5.5,0,0,1-.5-.5v-.13a.5.5,0,0,1,1,0v.13a.5.5,0,0,1-.5.5h0Zm0-3.15a.5.5,0,0,1-.5-.5v-.13a.5.5,0,1,1,1,0v.13a.5.5,0,0,1-.45.55h-.05Zm0-3.14a.5.5,0,0,1-.5-.5v-.13a.5.5,0,0,1,1,0v.13a.5.5,0,0,1-.5.5h0Zm0-3.14a.5.5,0,0,1-.5-.5V340a.5.5,0,0,1,1,0v.13a.5.5,0,0,1-.47.53h0Zm0-3.15a.5.5,0,0,1-.5-.5v-.13a.5.5,0,0,1,1,0V337a.5.5,0,0,1-.48.52h0Zm0-3.14a.5.5,0,0,1-.5-.5v-.13a.5.5,0,0,1,1,0v.13a.5.5,0,0,1-.5.49Zm0-3.15a.5.5,0,0,1-.5-.5v-.13a.5.5,0,0,1,1,0v.13a.5.5,0,0,1-.5.5h0Zm0-3.14a.5.5,0,0,1-.5-.5v-.13a.5.5,0,0,1,1,0v.13a.5.5,0,0,1-.5.49Zm0-3.15a.5.5,0,0,1-.5-.5v-.13a.5.5,0,0,1,1,0v.13a.5.5,0,0,1-.5.5h0Zm0-3.14a.5.5,0,0,1-.5-.5v-.13a.5.5,0,1,1,1,0v.13a.5.5,0,0,1-.5.49Zm0-3.15a.5.5,0,0,1-.5-.5V318a.5.5,0,0,1,1,0v.13a.5.5,0,0,1-.48.52h0Zm0-3.14a.5.5,0,0,1-.5-.5v-.13a.5.5,0,0,1,1,0V315a.5.5,0,0,1-.5.5Zm0-3.15a.5.5,0,0,1-.5-.5v-.13a.5.5,0,1,1,1,0v.13a.5.5,0,0,1-.5.5h0Zm0-3.14a.5.5,0,0,1-.5-.5v-.13a.5.5,0,0,1,1,0v.13a.5.5,0,0,1-.5.49Zm0-3.15a.5.5,0,0,1-.5-.5v-.13a.5.5,0,0,1,1,0v.13a.5.5,0,0,1-.5.5h0Zm0-3.14a.5.5,0,0,1-.5-.5v-.13a.5.5,0,1,1,1,0v.13a.5.5,0,0,1-.5.49Zm0-3.15a.5.5,0,0,1-.5-.5v-.13a.5.5,0,0,1,1,0v.13a.5.5,0,0,1-.5.5h0Zm0-3.14a.5.5,0,0,1-.5-.5V296a.5.5,0,0,1,1,0v.13a.5.5,0,0,1-.5.5Zm0-3.15a.5.5,0,0,1-.5-.5v-.13a.5.5,0,0,1,1,0V293a.5.5,0,0,1-.5.49Zm0-3.14a.5.5,0,0,1-.5-.5v-.13a.5.5,0,1,1,1,0v.13a.5.5,0,0,1-.5.49Zm0-3.15a.5.5,0,0,1-.5-.5v-.13a.5.5,0,0,1,1,0v.13a.5.5,0,0,1-.5.5h0Zm0-3.14a.5.5,0,0,1-.5-.5v-.13a.5.5,0,1,1,1,0v.13a.5.5,0,0,1-.5.49Zm0-3.14a.5.5,0,0,1-.5-.5v-.13a.5.5,0,0,1,1,0v.13a.5.5,0,0,1-.5.49Zm0-3.15a.5.5,0,0,1-.5-.5v-.13a.5.5,0,0,1,1,0v.13a.5.5,0,0,1-.5.49Zm0-3.14a.5.5,0,0,1-.5-.5V274a.5.5,0,0,1,1,0v.13a.5.5,0,0,1-.5.49Zm0-3.15a.5.5,0,0,1-.5-.5v-.13a.5.5,0,0,1,1,0V271a.5.5,0,0,1-.5.47Zm0-3.14a.5.5,0,0,1-.5-.5v-.13a.5.5,0,0,1,1,0v.13a.5.5,0,0,1-.5.49Zm0-3.15a.5.5,0,0,1-.5-.5v-.13a.5.5,0,0,1,1,0v.13a.5.5,0,0,1-.5.49Zm0-3.14a.5.5,0,0,1-.5-.5v-.13a.5.5,0,0,1,1,0v.13a.5.5,0,0,1-.5.45Zm0-3.15a.5.5,0,0,1-.5-.5v-.13a.5.5,0,0,1,1,0v.13a.5.5,0,0,1-.5.49Zm0-3.14a.5.5,0,0,1-.5-.5v-.13a.5.5,0,1,1,1,0v.13a.5.5,0,0,1-.5.49Zm0-3.15a.5.5,0,0,1-.5-.5V252a.5.5,0,0,1,1,0v.13a.5.5,0,0,1-.5.47Zm0-3.14a.5.5,0,0,1-.5-.5v-.13a.5.5,0,0,1,1,0V249a.5.5,0,0,1-.5.46Zm0-3.15a.5.5,0,0,1-.5-.5v-.13a.5.5,0,0,1,1,0v.13a.5.5,0,0,1-.5.49Zm0-3.14a.5.5,0,0,1-.5-.5v-.13a.5.5,0,0,1,1,0v.13a.5.5,0,0,1-.5.49Zm0-3.15a.5.5,0,0,1-.5-.5v-.13a.5.5,0,0,1,1,0v.13a.5.5,0,0,1-.5.47Zm0-3.14a.5.5,0,0,1-.5-.5v-.13a.5.5,0,1,1,1,0v.13a.5.5,0,0,1-.5.49Zm0-3.15a.5.5,0,0,1-.5-.5v-.13a.5.5,0,0,1,1,0v.13a.5.5,0,0,1-.5.49Zm0-3.14a.5.5,0,0,1-.5-.5V230a.5.5,0,0,1,1,0v.13a.5.5,0,0,1-.5.46Zm0-3.15a.5.5,0,0,1-.5-.5v-.13a.5.5,0,0,1,1,0v.13a.5.5,0,0,1-.5.49Zm0-3.14a.5.5,0,0,1-.5-.5v-.13a.5.5,0,1,1,1,0v.13a.5.5,0,0,1-.5.49Zm0-3.14a.5.5,0,0,1-.5-.5v-.13a.5.5,0,0,1,1,0v.13a.5.5,0,0,1-.5.48Zm0-3.15a.5.5,0,0,1-.5-.5v-.13a.5.5,0,1,1,1,0v.13a.5.5,0,0,1-.5.48Zm0-3.15a.5.5,0,0,1-.5-.5v-.13a.5.5,0,0,1,1,0v.13a.5.5,0,0,1-.5.49Zm0-3.15a.5.5,0,0,1-.5-.5v-.13a.5.5,0,0,1,1,0v.13a.5.5,0,0,1-.5.5h0Zm0-3.15a.5.5,0,0,1-.5-.5v-.13a.5.5,0,0,1,1,0v.13a.5.5,0,0,1-.5.5h0Zm0-3.15a.5.5,0,0,1-.5-.5v-.13a.5.5,0,1,1,1,0v.13a.5.5,0,0,1-.49.51h0Zm0-3.15a.5.5,0,0,1-.5-.5v-.13a.5.5,0,1,1,1,0v.13a.5.5,0,0,1-.49.51h0Zm0-3.15a.5.5,0,0,1-.5-.5v-.13a.5.5,0,0,1,1,0v.13a.5.5,0,0,1-.48.52h0Zm0-3.15a.5.5,0,0,1-.5-.5v-.13a.5.5,0,0,1,1,0v.13a.5.5,0,0,1-.47.53h0Zm0-3.15a.5.5,0,0,1-.5-.5v-.13a.5.5,0,1,1,1,0v.13a.5.5,0,0,1-.47.53h0Zm0-3.15a.5.5,0,0,1-.5-.5V189a.5.5,0,0,1,1,0v.13a.5.5,0,0,1-.47.53h0Zm0-3.15a.5.5,0,0,1-.5-.5v-.13a.5.5,0,0,1,1,0V186a.5.5,0,0,1-.46.54h0Zm0-3.14a.5.5,0,0,1-.5-.5v-.13a.5.5,0,0,1,1,0v.13a.5.5,0,0,1-.47.53h0Zm0-3.15a.5.5,0,0,1-.5-.5v-.13a.5.5,0,0,1,1,0v.13a.5.5,0,0,1-.46.54h0Zm0-3.15a.5.5,0,0,1-.5-.5v-.13a.5.5,0,0,1,1,0v.13a.5.5,0,0,1-.46.54h0Zm0-3.15a.5.5,0,0,1-.5-.5v-.13a.5.5,0,1,1,1,0v.13a.5.5,0,0,1-.42.57h-.08Zm0-3.15a.5.5,0,0,1-.5-.5v-.13a.5.5,0,1,1,1,0v.13a.5.5,0,0,1-.45.55h-.05Zm0-3.15a.5.5,0,0,1-.5-.5V167a.5.5,0,0,1,1,0v.13a.5.5,0,0,1-.43.56h-.07Zm0-3.15a.5.5,0,0,1-.5-.5v-.13a.5.5,0,0,1,1,0V164a.5.5,0,0,1-.46.54h0Zm0-3.15a.5.5,0,0,1-.5-.5v-.13a.5.5,0,1,1,1,0v.13a.5.5,0,0,1-.42.57h-.08Zm0-3.15a.5.5,0,0,1-.5-.5v-.13a.5.5,0,0,1,1,0v.13a.5.5,0,0,1-.42.57h-.08Zm0-3.15a.5.5,0,0,1-.5-.5v-.13a.5.5,0,0,1,1,0v.13a.5.5,0,0,1-.41.57h-.09Zm0-3.15a.5.5,0,0,1-.5-.5v-.13a.5.5,0,0,1,1,0v.13a.5.5,0,0,1-.36.61h-.14Zm0-3.15a.5.5,0,0,1-.5-.5v-.13a.5.5,0,1,1,1,0v.13a.5.5,0,0,1-.4.58h-.1Zm0-3.15a.5.5,0,0,1-.5-.5V145a.5.5,0,0,1,1,0v.13a.5.5,0,0,1-.46.54h0Zm0-3.15a.5.5,0,0,1-.5-.5v-.13a.5.5,0,0,1,1,0v.2a.5.5,0,0,1-.47.53h0Z" fill="#bcbdbf"/>
  <g>
    <path d="M356.36,375.91h.74v1.5h-.74v2.28H355v-2.28h-2.9v-1.5l2.92-6.09h1.34Zm-1.35,0v-3.47l-1.65,3.47Z" fill="#fff"/>
    <path d="M359.25,372.46h-1.38c0-1.65.83-2.79,2.3-2.79s2.31,1,2.31,2.69v.25c0,1.08-.33,1.75-1,2.06.63.24,1.07.91,1.07,2.2v.22c0,1.76-.92,2.72-2.36,2.72s-2.37-1.09-2.37-2.86h1.4c0,.83.35,1.25,1,1.25s1-.32,1-1.18v-.28c0-1-.43-1.34-1-1.34h-.81V374h.72c.56,0,1-.32,1-1.32v-.21c0-.9-.41-1.16-.92-1.16a1,1,0,0,0-1,1.15Z" fill="#fff"/>
  </g>
  <g>
    <path d="M361,202.65v-.37a3,3,0,0,1,1.75-3.11c-1.14-.5-1.6-1.64-1.6-3.13v-.41a3.92,3.92,0,0,1,7.84,0v.43a3.12,3.12,0,0,1-1.65,3.09,3.08,3.08,0,0,1,1.74,3.13v.49c0,2.47-1.71,3.73-4.08,3.71C362.35,206.51,361,205.08,361,202.65Zm2.45-.46c0,1.69.6,2.13,1.56,2.13s1.58-.5,1.58-2.12c0-1.84-.6-2.17-1.56-2.17s-1.58.41-1.59,2.16Zm0-6.06c0,1.61.6,2,1.56,2s1.57-.48,1.58-2c0-1.74-.6-2-1.56-2s-1.55.34-1.56,2Z" fill="#b1b1b1"/>
    <path d="M371.85,206.5a1.38,1.38,0,1,1,1.4-1.37h0a1.37,1.37,0,0,1-1.37,1.37Z" fill="#b1b1b1"/>
    <path d="M374.81,202.42v-6.47a4,4,0,1,1,8,0v6.47a4,4,0,0,1-8,0Zm2.42-6.44v6.41c0,1.43.75,1.88,1.58,1.89s1.62-.44,1.62-1.85V196c0-1.41-.75-1.86-1.6-1.87s-1.59.44-1.59,1.87Z" fill="#b1b1b1"/>
  </g>
  <g>
    <path d="M364.94,277.91c.9,0,1.58-.62,1.58-1.81v-1.67c0-1.33-.48-2.11-1.6-2.11a1.56,1.56,0,0,0-1.52,1.1l-2.24-.38,1.16-7.4h6.06V268h-4.17l-.51,3.14a2.5,2.5,0,0,1,1.9-.72c2.18,0,3.32,1.3,3.31,4.06v1.2c0,2.76-1.37,4.61-4,4.59a3.88,3.88,0,0,1-4-4.15h2.39C363.31,277.45,364,277.9,364.94,277.91Z" fill="#e0592a"/>
    <path d="M371.81,280.21a1.38,1.38,0,1,1,1.4-1.37,1.38,1.38,0,0,1-1.4,1.37Z" fill="#e0592a"/>
    <path d="M374.77,276.13v-6.47a4,4,0,1,1,8,0v6.47a4,4,0,0,1-8,0Zm2.42-6.44v6.41c0,1.43.75,1.88,1.58,1.89s1.62-.44,1.62-1.85v-6.43c0-1.41-.75-1.86-1.6-1.87S377.2,268.28,377.19,269.69Z" fill="#e0592a"/>
  </g>
  <polyline points="41.6 383.8 48.4 383.8 48.4 380.4 70.8 380.4 70.8 375.9 82.6 375.9 82.6 371.3 88.2 371.3 88.2 366.4 94.8 366.4 94.8 362.6 112.9 362.6 112.9 358.5 129.3 358.5 129.3 348.7 145.1 348.7 145.1 344.2 156.2 344.2 156.2 340.7 164.4 340.7 164.4 335.8 176.3 335.8 176.3 331.6 204.7 331.6 204.7 327.5 216.4 327.5 216.4 322.6 220.7 322.6 220.7 318.1 229 318.1 229 313.8 231.4 313.8 231.4 309.3 238.4 309.3 238.4 304.2 239.8 304.2 239.8 299.6 256.1 299.6 256.1 295 265.7 295 265.7 290 268.4 290 268.4 286.1 271.6 286.1 271.6 281.5 273.3 281.5 273.3 275 288.4 275 288.4 270.9 293.7 270.9 293.7 266.3 333.4 266.3 333.4 259.6 358.2 259.6" fill="none" stroke="#e0592a" stroke-miterlimit="10" stroke-width="2.64"/>
  <polyline points="41.6 383.8 43.3 383.8 43.3 380.4 44.4 380.4 44.4 375.7 48 375.7 48 371.5 61.4 371.5 61.4 367.4 62.7 367.4 62.7 363.1 63.5 363.1 63.5 358.9 66.3 358.9 66.3 354.4 83.4 354.4 83.4 350.5 98.4 350.5 98.4 346.7 99.4 346.7 99.4 342.4 109.9 342.4 109.9 338.3 113.6 338.3 113.6 333.5 127.8 333.5 127.8 329.8 139.2 329.8 139.2 325.5 141 325.5 141 321.7 149.3 321.7 149.3 316.6 150.7 316.6 150.7 311.8 155.4 311.8 155.4 307.7 165 307.7 165 303.9 167.8 303.9 167.8 295 169.7 295 169.7 291.6 170.6 291.6 170.6 279 194.2 279 194.2 274.8 195.2 274.8 195.2 270.3 199.6 270.3 199.6 265.8 209.3 265.8 209.3 261.3 211.2 261.3 211.2 256.9 213.9 256.9 213.9 252.5 222.3 252.5 222.3 248.6 237.6 248.6 237.6 243.8 252.2 243.8 252.2 238.7 253.9 238.7 253.9 234.8 263.1 234.8 263.1 230 271.5 230 271.5 226.1 272.6 226.1 272.6 221.1 274.4 221.1 274.4 215.8 277.2 215.8 277.2 211.8 283.1 211.8 283.1 206.7 309.3 206.7 309.3 202.5 316 202.5 316 197.8 318.2 197.8 318.2 192.2 343.5 192.2 343.5 187.7 358.2 187.7" fill="none" stroke="#b1b1b1" stroke-miterlimit="10" stroke-width="2.64"/>
  <polygon points="50.88 385.08 41.6 385.08 41.6 382.52 48.32 382.52 48.32 380.4 50.88 380.4 50.88 385.08" fill="#f38020"/>
  <g id="arrow">
    <polygon points="74.4 216.7 135.2 240.9 194.4 217.2 194.4 138.3 74.3 138.3 74.4 216.7" fill="#e0592a"/>
    <g style="isolation: isolate">
      <path d="M165.86,203.58h-3.35a3.19,3.19,0,0,1,1.29-2.45l.49-.41a1.77,1.77,0,0,0,.79-1.44c0-.52-.23-1.07-.87-1.07-.92,0-.95,1-.95,1.29h-.74c0-1.13.47-1.9,1.7-1.9a1.49,1.49,0,0,1,1.61,1.6,2.36,2.36,0,0,1-1,2l-.84.74a1.87,1.87,0,0,0-.65,1h2.57Z" fill="#fff"/>
      <path d="M166.84,202.69h.78v.74c0,.64-.05,1.22-.78,1.41v-.4a.6.6,0,0,0,.37-.65v-.2h-.37Z" fill="#fff"/>
      <path d="M170.66,197.6h.71v3.93H172v.61h-.68v1.45h-.71v-1.45H168.5v-.67Zm-1.52,3.93h1.52v-2.76h0Z" fill="#fff"/>
    </g>
    <g style="isolation: isolate">
      <path d="M142.7,207.51h-2.82l-.53,2.38h-2l2.93-12.13h2.17l2.87,12.13h-2Zm-2.46-1.76h2.12l-1-5Z" fill="#fff"/>
      <path d="M146.31,209.88V197.75h3.2c2,0,3.36,1.31,3.36,3.68V203a3.18,3.18,0,0,1-1.7,3.15l1.7,3.7h-2.2l-1.36-3.2h-1v3.2Zm2-10.19v5.06h.93c.84,0,1.6-.33,1.6-1.79v-1.55c0-1.38-.76-1.72-1.6-1.72Z" fill="#fff"/>
      <path d="M154.58,209.88V197.75h3.2c2,0,3.36,1.31,3.36,3.68V203a3.19,3.19,0,0,1-1.7,3.15l1.7,3.7h-2.2l-1.36-3.2h-1v3.2Zm2-10.19v5.06h.93c.84,0,1.6-.33,1.6-1.79v-1.55c0-1.38-.76-1.72-1.6-1.72Z" fill="#fff"/>
    </g>
    <g>
      <path d="M155.33,189.23V177.1h3.2c2,0,3.36,1.31,3.36,3.68v1.6a3.19,3.19,0,0,1-1.7,3.15l1.7,3.7h-2.2l-1.36-3.2h-1v3.2Zm2-10.19v5.06h.93c.84,0,1.6-.33,1.6-1.79v-1.55c0-1.38-.76-1.72-1.6-1.72Z" fill="#fff"/>
      <path d="M163.6,189.23V177.1h3.2c2,0,3.36,1.31,3.36,3.68v1.6a3.18,3.18,0,0,1-1.7,3.15l1.7,3.7H168L166.6,186h-1v3.2Zm2-10.19v5.06h.93c.84,0,1.6-.33,1.6-1.79v-1.55c0-1.38-.76-1.72-1.6-1.72Z" fill="#fff"/>
      <path d="M171.88,189.23V177.1h3.2c2,0,3.36,1.31,3.36,3.68v1.6a3.18,3.18,0,0,1-1.7,3.15l1.7,3.7h-2.2l-1.36-3.2h-1v3.2Zm2-10.19v5.06h.93c.84,0,1.6-.33,1.6-1.79v-1.55c0-1.38-.76-1.72-1.6-1.72Z" fill="#fff"/>
    </g>
    <g>
      <path d="M121.66,179.9c0,6.63-4.83,10.92-11.8,10.92s-11.8-4.49-11.8-11.9h6.78c0,4,2.49,5.46,5.22,5.46s4.88-1.27,4.88-4.48c0-2.78-1.9-4.1-5.17-4.1h-3.95v-5.7c4.19,0,8.63,0,8.63-4.29,0-3.07-2.15-4.39-4.78-4.39-3.07,0-4.68,2-4.68,5.31H98.36c0-6.92,4.53-11.46,11.36-11.46s11.36,4.19,11.36,9.75c0,3.8-1.8,6.48-4.68,7.61A7.18,7.18,0,0,1,121.66,179.9Z" fill="#fff"/>
      <path d="M139.31,190.28h-7.22c1.9-3.46,3.85-7,5.7-10.48a13.33,13.33,0,0,1-2.44.19c-6.58,0-10.33-4.19-10.33-10.87v-1.9c0-7.07,4.63-11.85,11.55-11.85s11.51,4.78,11.51,11.85v1.66A20.79,20.79,0,0,1,145.3,179Zm2-20.91v-2.19c0-4.09-2.19-5.36-4.78-5.36s-4.78,1.27-4.78,5.36v2.19c0,3.85,2.1,5.12,4.78,5.12s4.82-1.27,4.82-5.12Z" fill="#fff"/>
    </g>
    <path d="M149.6,161.65v-.71c0-2.37,1.25-3.89,3.46-3.89s3.48,1.53,3.48,3.89v.71c0,2.41-1.31,3.91-3.48,3.91S149.6,164.05,149.6,161.65Zm1.63-.73v.71c0,1.61.62,2.37,1.83,2.37s1.85-.75,1.85-2.37v-.71c0-1.55-.71-2.28-1.85-2.28S151.23,159.37,151.23,160.92Zm5,12.36h-1.66l5.33-17.18h1.68Zm3.35-4.67v-.71c0-2.34,1.27-3.87,3.48-3.87s3.5,1.53,3.5,3.87v.71c0,2.43-1.33,3.91-3.5,3.91S159.58,171,159.58,168.61Zm1.63-.73v.71c0,1.63.69,2.39,1.85,2.39s1.85-.75,1.85-2.39v-.71c0-1.53-.71-2.28-1.85-2.28S161.21,166.36,161.21,167.88Z" fill="#fff"/>
    <g>
      <path d="M102.7,200.83h-2a3.14,3.14,0,0,1,3.3-3.43,3,3,0,0,1,3.34,3.3v.3a2.4,2.4,0,0,1-1.45,2.53c.91.29,1.55,1.12,1.55,2.7v.28a3.09,3.09,0,0,1-3.41,3.34,3.22,3.22,0,0,1-3.43-3.51h2c0,1,.5,1.53,1.38,1.53a1.27,1.27,0,0,0,1.43-1.45v-.34c0-1.22-.62-1.65-1.41-1.65h-1.17v-1.74h1c.81,0,1.45-.4,1.45-1.62v-.26c0-1.1-.58-1.43-1.33-1.43S102.7,199.93,102.7,200.83Z" fill="#fff"/>
      <path d="M109.82,209.83a1.16,1.16,0,1,1,1.17-1.15h0a1.16,1.16,0,0,1-1.17,1.15Z" fill="#fff"/>
    </g>
    <path d="M111.61,206.37v-5.46a3.37,3.37,0,1,1,6.73,0v5.46a3.37,3.37,0,1,1-6.73,0Zm2-5.44v5.41c0,1.2.64,1.58,1.34,1.58s1.36-.38,1.36-1.57v-5.42c0-1.19-.64-1.57-1.36-1.57s-1.33.38-1.33,1.57Z" fill="#fff"/>
    <path d="M119.64,201.16v-.59c0-1.91,1-3.15,2.71-3.15s2.71,1.24,2.71,3.15v.59c0,2-1,3.2-2.71,3.2S119.64,203.13,119.64,201.16Zm1.72-.65v.74c0,1,.38,1.38,1,1.38s1-.38,1-1.38v-.74c0-1-.41-1.36-1-1.36s-1,.37-1,1.35Zm3.81,9.95h-1.75c1-3.46,3.24-10.33,4.2-13.79h1.75Zm2.53-3.8v-.59c0-1.93,1-3.17,2.71-3.17s2.71,1.24,2.71,3.17v.59c0,2-1,3.18-2.71,3.18s-2.71-1.23-2.71-3.19Zm1.72-.67v.74c0,1,.38,1.39,1,1.39s1-.38,1-1.39V206c0-1-.41-1.34-1-1.34s-1,.34-1,1.34Z" fill="#fff"/>
  </g>
  <polygon points="50.2 385.12 42.08 385.12 42.08 382.48 47.55 382.48 47.55 379.08 69.95 379.08 69.95 374.58 81.76 374.58 81.76 369.98 87.36 369.98 87.36 365.08 93.95 365.08 93.95 361.28 112.06 361.28 112.06 357.18 128.46 357.18 128.46 347.38 144.26 347.38 144.26 342.88 155.36 342.88 155.36 339.38 163.56 339.38 163.56 334.48 175.46 334.48 175.46 330.28 203.86 330.28 203.86 326.18 215.56 326.18 215.56 321.28 219.86 321.28 219.86 316.78 228.16 316.78 228.16 312.48 230.56 312.48 230.56 307.98 237.56 307.98 237.56 302.88 238.96 302.88 238.96 298.28 255.25 298.28 255.25 293.68 264.86 293.68 264.86 288.68 267.56 288.68 267.56 284.78 270.75 284.78 270.75 280.18 272.45 280.18 272.45 273.68 287.56 273.68 287.56 269.58 292.86 269.58 292.86 264.98 332.56 264.98 332.56 258.28 358.68 258.28 358.68 260.92 335.2 260.92 335.2 267.62 295.5 267.62 295.5 272.22 290.2 272.22 290.2 276.32 275.1 276.32 275.1 282.82 273.4 282.82 273.4 287.42 270.2 287.42 270.2 291.32 267.5 291.32 267.5 296.32 257.9 296.32 257.9 300.92 241.6 300.92 241.6 305.52 240.2 305.52 240.2 310.62 233.2 310.62 233.2 315.12 230.8 315.12 230.8 319.42 222.5 319.42 222.5 323.92 218.19 323.92 218.19 328.82 206.5 328.82 206.5 332.92 178.09 332.92 178.09 337.12 166.19 337.12 166.19 342.02 158 342.02 158 345.52 146.9 345.52 146.9 350.02 131.09 350.02 131.09 359.82 114.69 359.82 114.69 363.92 96.59 363.92 96.59 367.72 90 367.72 90 372.62 84.39 372.62 84.39 377.22 72.59 377.22 72.59 381.72 50.2 381.72 50.2 385.12" fill="#e0592a" opacity="0.4" style="isolation: isolate"/>
  <polygon points="45.09 385.12 42.08 385.12 42.08 382.48 42.45 382.48 42.45 379.08 43.55 379.08 43.55 374.38 47.16 374.38 47.16 370.18 60.55 370.18 60.55 366.08 61.86 366.08 61.86 361.78 62.66 361.78 62.66 357.58 65.45 357.58 65.45 353.08 82.56 353.08 82.56 349.18 97.56 349.18 97.56 345.38 98.56 345.38 98.56 341.08 109.06 341.08 109.06 336.98 112.76 336.98 112.76 332.18 126.95 332.18 126.95 328.48 138.36 328.48 138.36 324.18 140.16 324.18 140.16 320.38 148.46 320.38 148.46 315.28 149.86 315.28 149.86 310.48 154.56 310.48 154.56 306.38 164.16 306.38 164.16 302.58 166.96 302.58 166.96 293.68 168.86 293.68 168.86 290.28 169.76 290.28 169.76 277.68 193.36 277.68 193.36 273.48 194.36 273.48 194.36 268.98 198.76 268.98 198.76 264.48 208.46 264.48 208.46 259.98 210.36 259.98 210.36 255.58 213.06 255.58 213.06 251.18 221.46 251.18 221.46 247.28 236.75 247.28 236.75 242.48 251.35 242.48 251.35 237.38 253.06 237.38 253.06 233.48 262.25 233.48 262.25 228.68 270.65 228.68 270.65 224.78 271.75 224.78 271.75 219.78 273.56 219.78 273.56 214.48 276.36 214.48 276.36 210.48 282.25 210.48 282.25 205.38 308.45 205.38 308.45 201.18 315.15 201.18 315.15 196.48 317.36 196.48 317.36 190.88 342.65 190.88 342.65 186.38 358.68 186.38 358.68 189.02 345.3 189.02 345.3 193.52 320 193.52 320 199.12 317.8 199.12 317.8 203.82 311.1 203.82 311.1 208.02 284.9 208.02 284.9 213.12 279 213.12 279 217.12 276.2 217.12 276.2 222.42 274.4 222.42 274.4 227.42 273.3 227.42 273.3 231.32 264.9 231.32 264.9 236.12 255.7 236.12 255.7 240.02 254 240.02 254 245.12 239.4 245.12 239.4 249.92 224.1 249.92 224.1 253.82 215.69 253.82 215.69 258.22 213 258.22 213 262.62 211.09 262.62 211.09 267.12 201.4 267.12 201.4 271.62 197 271.62 197 276.12 196 276.12 196 280.32 172.4 280.32 172.4 292.92 171.5 292.92 171.5 296.32 169.59 296.32 169.59 305.22 166.79 305.22 166.79 309.02 157.19 309.02 157.19 313.12 152.5 313.12 152.5 317.92 151.09 317.92 151.09 323.02 142.79 323.02 142.79 326.82 141 326.82 141 331.12 129.59 331.12 129.59 334.82 115.39 334.82 115.39 339.62 111.69 339.62 111.69 343.72 101.19 343.72 101.19 348.02 100.19 348.02 100.19 351.82 85.19 351.82 85.19 355.72 68.09 355.72 68.09 360.22 65.3 360.22 65.3 364.42 64.5 364.42 64.5 368.72 63.2 368.72 63.2 372.82 49.8 372.82 49.8 377.02 46.2 377.02 46.2 381.72 45.09 381.72 45.09 385.12" fill="#b1b1b1" opacity="0.4" style="isolation: isolate"/>
  <g>
    <g>
      <path d="M230.9,339v-1.73a5.7,5.7,0,0,1,.3-1.86,5.42,5.42,0,0,1,.78-1.52,11.44,11.44,0,0,1,1.07-1.23q.58-.58,1.17-1.1t1.07-1a4.52,4.52,0,0,0,.78-1.1,2.7,2.7,0,0,0,.3-1.23,1.47,1.47,0,0,0-.45-1.15,1.6,1.6,0,0,0-1.11-.41,1.51,1.51,0,0,0-1.12.46,1.76,1.76,0,0,0-.45,1.3H230.9a4,4,0,0,1,1.09-2.91,3.77,3.77,0,0,1,2.81-1.11,4,4,0,0,1,2.84,1,3.62,3.62,0,0,1,1.1,2.75,4.58,4.58,0,0,1-.3,1.65,5.27,5.27,0,0,1-.78,1.4,13.06,13.06,0,0,1-1.06,1.18q-.58.57-1.16,1.09t-1.06,1a4.74,4.74,0,0,0-.79,1,2.42,2.42,0,0,0-.31,1.13h5.29V339Z" fill="#e0592a"/>
      <path d="M240.28,337.79a1.36,1.36,0,0,1,.4-1,1.3,1.3,0,0,1,1-.41,1.33,1.33,0,0,1,1,.41,1.35,1.35,0,0,1,.4,1,1.3,1.3,0,0,1-.4,1,1.35,1.35,0,0,1-1,.4,1.32,1.32,0,0,1-1-.4A1.3,1.3,0,0,1,240.28,337.79Z" fill="#e0592a"/>
      <path d="M244.43,326.92v-2.3h7.2L247.88,339H245.5l3.2-12.09Z" fill="#e0592a"/>
    </g>
    <g>
      <path d="M253.44,325a1.46,1.46,0,0,1,1.08-.41,1.44,1.44,0,0,1,1.37.66,1.84,1.84,0,0,1,.21.89h-.72a1.42,1.42,0,0,0-.14-.58.72.72,0,0,0-.68-.34.85.85,0,0,0-.59.18.62.62,0,0,0-.2.49.67.67,0,0,0,.08.32.72.72,0,0,0,.23.25q.31.21,1.08.65,1.39.77,1.39,1.64a1.32,1.32,0,0,1-.3.86,2.94,2.94,0,0,1-.57.5,1.54,1.54,0,0,1,.34.44,1.13,1.13,0,0,1,.12.52,1.28,1.28,0,0,1-.43,1,1.64,1.64,0,0,1-1.17.41,1.47,1.47,0,0,1-1.36-.63,2.09,2.09,0,0,1-.26-1h.73a1.46,1.46,0,0,0,.14.59.73.73,0,0,0,.69.34,1.28,1.28,0,0,0,.52-.09.6.6,0,0,0,.36-.61.62.62,0,0,0-.11-.35,1,1,0,0,0-.19-.19l-.43-.3-.41-.28-.73-.49a3.21,3.21,0,0,1-.62-.51,1.21,1.21,0,0,1-.33-.83,1.15,1.15,0,0,1,.24-.71,2.32,2.32,0,0,1,.64-.56,1.26,1.26,0,0,1-.28-.35A1.18,1.18,0,0,1,253,326,1.37,1.37,0,0,1,253.44,325Zm1.81,4.76a1.35,1.35,0,0,0,.36-.28.89.89,0,0,0,.21-.6.76.76,0,0,0-.22-.55,3.31,3.31,0,0,0-.55-.4l-1.2-.73a1.4,1.4,0,0,0-.36.26.78.78,0,0,0-.22.56.85.85,0,0,0,.05.31,1,1,0,0,0,.38.43Z" fill="#e0592a"/>
      <g>
        <path d="M257.6,330.7h-.71v-6.15h.71Z" fill="#e0592a"/>
        <path d="M259.79,330.7h-.71v-6.15h.71Z" fill="#e0592a"/>
      </g>
    </g>
  </g>
  <g>
    <rect width="395.25" height="44.9" fill="none"/>
    <g>
      <path d="M1.07,14.53V7.46A4.42,4.42,0,0,1,2.25,4.28,4,4,0,0,1,5.29,3a4,4,0,0,1,3,1.24A4.42,4.42,0,0,1,9.46,7.46v.62H7.62v-.7A2.52,2.52,0,0,0,7,5.5a2.28,2.28,0,0,0-1.68-.65,2.36,2.36,0,0,0-1.69.64A2.48,2.48,0,0,0,3,7.38V14.6a2.51,2.51,0,0,0,.66,1.87,2.32,2.32,0,0,0,1.7.65A2.32,2.32,0,0,0,7,16.48a2.49,2.49,0,0,0,.67-1.89v-.84H9.46v.77A4.39,4.39,0,0,1,8.29,17.7a4,4,0,0,1-3,1.22,4,4,0,0,1-3-1.22A4.39,4.39,0,0,1,1.07,14.53Z" fill="#fff"/>
      <path d="M11.45,14.91V6.41h1.76v8.73a2.23,2.23,0,0,0,.55,1.62,2,2,0,0,0,1.49.56,1.93,1.93,0,0,0,1.45-.57,2.23,2.23,0,0,0,.55-1.61V6.41H19v8.5a4.15,4.15,0,0,1-1,2.94,3.59,3.59,0,0,1-2.76,1.07,3.64,3.64,0,0,1-2.79-1.07A4.14,4.14,0,0,1,11.45,14.91Z" fill="#fff"/>
      <path d="M21.4,18.75V6.41h1.67V7.49a2.45,2.45,0,0,1,2.22-1.22,2.79,2.79,0,0,1,1.48.4,2.54,2.54,0,0,1,1,1.16,2.72,2.72,0,0,1,1-1.1,2.81,2.81,0,0,1,1.61-.46,2.28,2.28,0,0,1,2.08,1,5.65,5.65,0,0,1,.65,3v8.46h-1.8V10.09A3.41,3.41,0,0,0,31,8.39a1.22,1.22,0,0,0-1.14-.55,1.53,1.53,0,0,0-1.32.54A2.81,2.81,0,0,0,28.13,10v8.73H26.37V10.09A3.46,3.46,0,0,0,26,8.3a1.35,1.35,0,0,0-1.25-.59,1.42,1.42,0,0,0-1.18.53,2.45,2.45,0,0,0-.42,1.55v9Z" fill="#fff"/>
      <path d="M35.27,14.91V6.41H37v8.73a2.23,2.23,0,0,0,.55,1.62,2,2,0,0,0,1.49.56,1.93,1.93,0,0,0,1.45-.57A2.23,2.23,0,0,0,41,15.14V6.41h1.8v8.5a4.15,4.15,0,0,1-1,2.94A3.59,3.59,0,0,1,39,18.92a3.64,3.64,0,0,1-2.79-1.07A4.14,4.14,0,0,1,35.27,14.91Z" fill="#fff"/>
      <path d="M45.21,18.75V2.15H47v16.6Z" fill="#fff"/>
      <path d="M49.27,15V10.11a4.22,4.22,0,0,1,.86-2.87,3,3,0,0,1,2.35-1,3.06,3.06,0,0,1,1.7.45,2.67,2.67,0,0,1,1,1V6.41H56.8V18.75H55.15V17.5a2.63,2.63,0,0,1-1,1,3.08,3.08,0,0,1-1.69.45,2.94,2.94,0,0,1-2.36-1A4.34,4.34,0,0,1,49.27,15ZM51,14.95a2.88,2.88,0,0,0,.52,1.86,2,2,0,0,0,2.9.1h0l.1-.1A2.84,2.84,0,0,0,55,14.95V10.16a2.66,2.66,0,0,0-.53-1.78A1.84,1.84,0,0,0,53,7.75a1.81,1.81,0,0,0-1.48.63A2.84,2.84,0,0,0,51,10.22Z" fill="#fff"/>
      <path d="M58.6,8V6.54a1.46,1.46,0,0,0,1.25-.49,3.23,3.23,0,0,0,.37-1.82h1.16V6.41h2.25V8H61.37v7.35a6.86,6.86,0,0,0,.09.85,1.21,1.21,0,0,0,.24.65,1.64,1.64,0,0,0,.46.31,1.91,1.91,0,0,0,.77.15h.72v1.58a7.42,7.42,0,0,1-.88,0,5.16,5.16,0,0,1-1.07-.1,3.16,3.16,0,0,1-.81-.28,1.75,1.75,0,0,1-.57-.48,2.86,2.86,0,0,1-.38-.63,3.43,3.43,0,0,1-.21-.82,8.19,8.19,0,0,1-.1-1V8Z" fill="#fff"/>
      <path d="M65.71,4.67a1.05,1.05,0,0,1-.32-.78,1.1,1.1,0,0,1,1.09-1.11h0a1.1,1.1,0,0,1,1.1,1.1h0a1.05,1.05,0,0,1-.32.78A1.12,1.12,0,0,1,65.71,4.67Zm-.12,14.09V6.41h1.76V18.75Z" fill="#fff"/>
      <path d="M69,6.41h1.89L73.22,16l2.31-9.59h1.89l-3.3,12.34H72.3Z" fill="#fff"/>
      <path d="M78.54,14.87V10.19a4.08,4.08,0,0,1,1-2.88,3.57,3.57,0,0,1,2.75-1.07A3.62,3.62,0,0,1,85,7.31a4,4,0,0,1,1,2.88v3H80.2v1.65a3.14,3.14,0,0,0,.52,1.93,1.77,1.77,0,0,0,1.51.69A2.07,2.07,0,0,0,83.68,17a1.75,1.75,0,0,0,.56-1.35v-.4H86v.2A3.48,3.48,0,0,1,85,18a3.73,3.73,0,0,1-2.78,1,3.52,3.52,0,0,1-2.77-1.09A4.29,4.29,0,0,1,78.54,14.87Zm1.72-3h4V10a2.29,2.29,0,0,0-.55-1.62,1.91,1.91,0,0,0-1.46-.59,2,2,0,0,0-1.48.57,2.21,2.21,0,0,0-.55,1.6Z" fill="#fff"/>
      <path d="M92.24,4.67a1.05,1.05,0,0,1-.32-.78,1.09,1.09,0,1,1,2.18,0h0a1.05,1.05,0,0,1-.32.78,1.12,1.12,0,0,1-1.56,0Zm-.12,14.09V6.41h1.76V18.75Z" fill="#fff"/>
      <path d="M96.37,18.75V6.41H98v1.3a2.61,2.61,0,0,1,1-1,3,3,0,0,1,1.69-.45,2.83,2.83,0,0,1,2.45,1.07,5.42,5.42,0,0,1,.78,3.19v8.23h-1.76V10.61a4.4,4.4,0,0,0-.41-2.18,1.73,1.73,0,0,0-1.61-.68,1.82,1.82,0,0,0-1.51.61,2.92,2.92,0,0,0-.49,1.85v8.54Z" fill="#fff"/>
      <path d="M106.06,14.91V10.24a4.11,4.11,0,0,1,1-2.9,4.09,4.09,0,0,1,5.54,0,4.3,4.3,0,0,1,1,3h-1.76q0-2.49-2-2.49a2,2,0,0,0-1.49.56,2.22,2.22,0,0,0-.54,1.6v5.11a2.24,2.24,0,0,0,.54,1.62,2,2,0,0,0,1.48.57,1.84,1.84,0,0,0,1.5-.62,2.82,2.82,0,0,0,.52-1.84h1.76a4.24,4.24,0,0,1-1,3,4.12,4.12,0,0,1-5.55,0A4.19,4.19,0,0,1,106.06,14.91Z" fill="#fff"/>
      <path d="M115.77,4.67a1.05,1.05,0,0,1-.32-.78,1.1,1.1,0,0,1,1.09-1.11h0a1.1,1.1,0,0,1,1.1,1.1h0a1.05,1.05,0,0,1-.32.78A1.12,1.12,0,0,1,115.77,4.67Zm-.12,14.09V6.41h1.76V18.75Z" fill="#fff"/>
      <path d="M119.65,15.06v-5a4.27,4.27,0,0,1,.85-2.86,3.4,3.4,0,0,1,4-.61,2.41,2.41,0,0,1,.9.91V2.13h1.85V18.75h-1.7V17.48a2.83,2.83,0,0,1-2.67,1.45,3,3,0,0,1-2.37-1A4.3,4.3,0,0,1,119.65,15.06Zm1.76-.11a2.88,2.88,0,0,0,.52,1.85,1.8,1.8,0,0,0,1.49.64,1.83,1.83,0,0,0,1.49-.63,2.84,2.84,0,0,0,.53-1.85V10.13a2.61,2.61,0,0,0-.53-1.77,1.86,1.86,0,0,0-1.48-.61,1.81,1.81,0,0,0-1.49.64,2.83,2.83,0,0,0-.52,1.83Z" fill="#fff"/>
      <path d="M129.5,14.87V10.19a4.08,4.08,0,0,1,1-2.88,3.57,3.57,0,0,1,2.75-1.07A3.62,3.62,0,0,1,136,7.31a4,4,0,0,1,1,2.88v3h-5.8v1.65a3.14,3.14,0,0,0,.52,1.93,1.77,1.77,0,0,0,1.51.69,2.07,2.07,0,0,0,1.45-.51,1.75,1.75,0,0,0,.56-1.35v-.4H137v.2a3.48,3.48,0,0,1-1,2.6,3.73,3.73,0,0,1-2.78,1,3.52,3.52,0,0,1-2.77-1.09A4.29,4.29,0,0,1,129.5,14.87Zm1.72-3h4V10a2.29,2.29,0,0,0-.55-1.62,1.91,1.91,0,0,0-1.46-.59,2,2,0,0,0-1.48.57,2.21,2.21,0,0,0-.55,1.6Z" fill="#fff"/>
      <path d="M139.26,18.75V6.41h1.67v1.3a2.61,2.61,0,0,1,1-1,3,3,0,0,1,1.69-.45A2.83,2.83,0,0,1,146,7.34a5.42,5.42,0,0,1,.78,3.19v8.23H145V10.61a4.4,4.4,0,0,0-.41-2.18A1.73,1.73,0,0,0,143,7.75a1.82,1.82,0,0,0-1.51.61,2.92,2.92,0,0,0-.49,1.85v8.54Z" fill="#fff"/>
      <path d="M149,14.91V10.24a4.11,4.11,0,0,1,1-2.9,4.09,4.09,0,0,1,5.54,0,4.3,4.3,0,0,1,1,3h-1.76q0-2.49-2-2.49a2,2,0,0,0-1.49.56,2.22,2.22,0,0,0-.54,1.6v5.11a2.24,2.24,0,0,0,.54,1.62,2,2,0,0,0,1.48.57,1.84,1.84,0,0,0,1.5-.62,2.82,2.82,0,0,0,.52-1.84h1.76a4.24,4.24,0,0,1-1,3,4.12,4.12,0,0,1-5.55,0A4.19,4.19,0,0,1,149,14.91Z" fill="#fff"/>
      <path d="M158.38,14.87V10.19a4.08,4.08,0,0,1,1-2.88,3.57,3.57,0,0,1,2.75-1.07,3.62,3.62,0,0,1,2.76,1.07,4,4,0,0,1,1,2.88v3h-5.8v1.65a3.14,3.14,0,0,0,.52,1.93,1.77,1.77,0,0,0,1.51.69,2.07,2.07,0,0,0,1.45-.51,1.75,1.75,0,0,0,.56-1.35v-.4h1.76v.2a3.48,3.48,0,0,1-1,2.55,3.73,3.73,0,0,1-2.78,1,3.52,3.52,0,0,1-2.77-1.09A4.29,4.29,0,0,1,158.38,14.87Zm1.72-3h4V10a2.29,2.29,0,0,0-.55-1.62,1.91,1.91,0,0,0-1.46-.59,2,2,0,0,0-1.48.57,2.21,2.21,0,0,0-.55,1.6Z" fill="#fff"/>
      <path d="M171.81,14.91V10.24a4.08,4.08,0,0,1,1-2.88,3.57,3.57,0,0,1,2.75-1.07,3.62,3.62,0,0,1,2.76,1.07,4,4,0,0,1,1,2.88v4.67a4.14,4.14,0,0,1-1,2.94,3.61,3.61,0,0,1-2.77,1.07,3.57,3.57,0,0,1-2.76-1.07A4.19,4.19,0,0,1,171.81,14.91Zm1.72.24a2.24,2.24,0,0,0,.54,1.62,2.19,2.19,0,0,0,2.94,0,2.22,2.22,0,0,0,.55-1.61V10A2.19,2.19,0,0,0,177,8.45a2.22,2.22,0,0,0-3,0,2.21,2.21,0,0,0-.54,1.6Z" fill="#fff"/>
      <path d="M180.74,8V6.41h1.07a16.07,16.07,0,0,1,.07-1.65,6,6,0,0,1,.25-1.21,2,2,0,0,1,.5-.85,2.16,2.16,0,0,1,.82-.46,4,4,0,0,1,1.22-.16h.93v1.6a2.38,2.38,0,0,0-.46,0,3.69,3.69,0,0,0-.61,0,1,1,0,0,0-.43.18.94.94,0,0,0-.27.3,1.72,1.72,0,0,0-.15.52,5.83,5.83,0,0,0-.08.73v1h2V8h-2V18.75h-1.76V8Z" fill="#fff"/>
      <path d="M191.37,18.75V6.41H193v1.3a2.61,2.61,0,0,1,1-1,3,3,0,0,1,1.69-.45,2.83,2.83,0,0,1,2.45,1.07,5.42,5.42,0,0,1,.78,3.19v8.23h-1.76V10.61a4.4,4.4,0,0,0-.41-2.18,1.73,1.73,0,0,0-1.61-.68,1.82,1.82,0,0,0-1.51.61,2.92,2.92,0,0,0-.49,1.85v8.54Z" fill="#fff"/>
      <path d="M201.06,14.91V10.24a4.07,4.07,0,0,1,1-2.88,3.56,3.56,0,0,1,2.75-1.07,3.61,3.61,0,0,1,2.76,1.07,4,4,0,0,1,1,2.88v4.67a4.14,4.14,0,0,1-1,2.94,3.61,3.61,0,0,1-2.77,1.07,3.57,3.57,0,0,1-2.8-1.06A4.19,4.19,0,0,1,201.06,14.91Zm1.72.24a2.24,2.24,0,0,0,.54,1.62,2.19,2.19,0,0,0,2.94,0,2.22,2.22,0,0,0,.55-1.61V10a2.19,2.19,0,0,0-.55-1.59,2.22,2.22,0,0,0-3,0,2.21,2.21,0,0,0-.54,1.6Z" fill="#fff"/>
      <path d="M210.89,18.75V6.41h1.67v1.3a2.61,2.61,0,0,1,1-1,3,3,0,0,1,1.69-.45,2.83,2.83,0,0,1,2.45,1.07,5.41,5.41,0,0,1,.78,3.19v8.23h-1.76V10.61a4.4,4.4,0,0,0-.41-2.18,1.73,1.73,0,0,0-1.61-.68,1.82,1.82,0,0,0-1.51.61,2.92,2.92,0,0,0-.49,1.85v8.54Z" fill="#fff"/>
      <path d="M219.75,6.41h1.89L224,16l2.32-9.59h1.89l-3.3,12.34h-1.83Z" fill="#fff"/>
      <path d="M229.31,14.87V10.19a4.07,4.07,0,0,1,1-2.88,3.56,3.56,0,0,1,2.75-1.07,3.61,3.61,0,0,1,2.76,1.07,4,4,0,0,1,1,2.88v3H231v1.65a3.14,3.14,0,0,0,.52,1.93,1.77,1.77,0,0,0,1.51.69,2.07,2.07,0,0,0,1.45-.51A1.75,1.75,0,0,0,235,15.6v-.4h1.76v.2a3.48,3.48,0,0,1-1,2.55A3.73,3.73,0,0,1,233,19a3.52,3.52,0,0,1-2.77-1.09A4.29,4.29,0,0,1,229.31,14.87Zm1.72-3h4V10a2.29,2.29,0,0,0-.55-1.62A1.91,1.91,0,0,0,233,7.79a2,2,0,0,0-1.48.57A2.21,2.21,0,0,0,231,10Z" fill="#fff"/>
      <path d="M239.08,18.75V6.41h1.67V8a2.63,2.63,0,0,1,.89-1.2,2.57,2.57,0,0,1,1.67-.53h.31v1.8h-.25a2.11,2.11,0,0,0-2,.92,5.24,5.24,0,0,0-.56,2.7v7.06Z" fill="#fff"/>
      <path d="M244.88,8V6.54a1.46,1.46,0,0,0,1.25-.49,3.23,3.23,0,0,0,.37-1.82h1.16V6.41h2.25V8h-2.25v7.35a6.77,6.77,0,0,0,.09.85,1.21,1.21,0,0,0,.24.65,1.65,1.65,0,0,0,.46.31,1.91,1.91,0,0,0,.77.15h.72v1.58a7.43,7.43,0,0,1-.88,0,5.15,5.15,0,0,1-1.07-.1,3.16,3.16,0,0,1-.81-.28,1.75,1.75,0,0,1-.57-.48,2.84,2.84,0,0,1-.38-.63,3.4,3.4,0,0,1-.21-.82,8.19,8.19,0,0,1-.1-1V8Z" fill="#fff"/>
      <path d="M251.1,14.87V10.19a4.07,4.07,0,0,1,1-2.88,3.56,3.56,0,0,1,2.75-1.07,3.61,3.61,0,0,1,2.76,1.07,4,4,0,0,1,1,2.88v3h-5.8v1.65a3.14,3.14,0,0,0,.52,1.93,1.77,1.77,0,0,0,1.51.69,2.07,2.07,0,0,0,1.45-.51,1.75,1.75,0,0,0,.56-1.35v-.4h1.76v.2a3.48,3.48,0,0,1-1,2.55,3.73,3.73,0,0,1-2.78,1,3.52,3.52,0,0,1-2.77-1.09A4.29,4.29,0,0,1,251.1,14.87Zm1.72-3h4V10a2.29,2.29,0,0,0-.55-1.62,1.91,1.91,0,0,0-1.46-.59,2,2,0,0,0-1.48.57,2.21,2.21,0,0,0-.55,1.6Z" fill="#fff"/>
      <path d="M260.86,18.75V2.15h1.76V7.6a2.21,2.21,0,0,1,.89-.93,3.07,3.07,0,0,1,1.66-.41,3,3,0,0,1,2.38,1,4.26,4.26,0,0,1,.85,2.86v5a4.31,4.31,0,0,1-.85,2.88,3,3,0,0,1-2.38,1,2.69,2.69,0,0,1-2.64-1.45v1.28Zm1.76-3.8a2.85,2.85,0,0,0,.52,1.85,1.8,1.8,0,0,0,1.48.63,1.82,1.82,0,0,0,1.49-.64,2.83,2.83,0,0,0,.53-1.84V10.21a2.8,2.8,0,0,0-.53-1.82,2,2,0,0,0-2.82-.18l-.18.18a2.6,2.6,0,0,0-.54,1.76Z" fill="#fff"/>
      <path d="M270.69,18.75V6.41h1.67V8a2.63,2.63,0,0,1,.89-1.2,2.57,2.57,0,0,1,1.67-.53h.31v1.8H275A2.11,2.11,0,0,0,273,9a5.24,5.24,0,0,0-.56,2.7v7.06Z" fill="#fff"/>
      <path d="M276.2,15V10.11a4.22,4.22,0,0,1,.86-2.87,3,3,0,0,1,2.35-1,3.06,3.06,0,0,1,1.7.45,2.67,2.67,0,0,1,1,1V6.41h1.65V18.75h-1.65V17.5a2.64,2.64,0,0,1-1,1,3.07,3.07,0,0,1-1.69.45,2.94,2.94,0,0,1-2.36-1A4.34,4.34,0,0,1,276.2,15Zm1.76-.09a2.88,2.88,0,0,0,.52,1.86,2,2,0,0,0,2.82.17l.08-.07.1-.1a2.84,2.84,0,0,0,.53-1.85V10.16a2.66,2.66,0,0,0-.53-1.78A1.84,1.84,0,0,0,280,7.75a1.81,1.81,0,0,0-1.48.63,2.84,2.84,0,0,0-.52,1.84Z" fill="#fff"/>
      <path d="M286.26,18.75V2.15H288v16.6Z" fill="#fff"/>
      <path d="M293.91,8V6.41H295a16.08,16.08,0,0,1,0-1.65,6,6,0,0,1,.25-1.21,2,2,0,0,1,.5-.85,2.15,2.15,0,0,1,.82-.46,4,4,0,0,1,1.22-.16h.93v1.6a2.39,2.39,0,0,0-.46,0,3.68,3.68,0,0,0-.61,0,1,1,0,0,0-.43.18.94.94,0,0,0-.27.3,1.73,1.73,0,0,0-.15.52,5.92,5.92,0,0,0-.08.73v1h2V8h-2V18.75H295V8Z" fill="#fff"/>
      <path d="M300.65,18.75V6.41h1.67V8a2.63,2.63,0,0,1,.89-1.2,2.57,2.57,0,0,1,1.67-.53h.31v1.8h-.25A2.11,2.11,0,0,0,303,9a5.24,5.24,0,0,0-.56,2.7v7.06Z" fill="#fff"/>
      <path d="M306.16,15V10.11A4.22,4.22,0,0,1,307,7.24a3,3,0,0,1,2.35-1,3.06,3.06,0,0,1,1.7.45,2.67,2.67,0,0,1,1,1V6.41h1.65V18.75H312V17.5a2.64,2.64,0,0,1-1,1,3.07,3.07,0,0,1-1.69.45A2.94,2.94,0,0,1,307,18,4.34,4.34,0,0,1,306.16,15Zm1.76-.09a2.88,2.88,0,0,0,.52,1.86,2,2,0,0,0,2.82.17l.08-.07.1-.1a2.84,2.84,0,0,0,.53-1.85V10.16a2.66,2.66,0,0,0-.53-1.78A1.84,1.84,0,0,0,310,7.76a1.81,1.81,0,0,0-1.48.63,2.84,2.84,0,0,0-.52,1.84Z" fill="#fff"/>
      <path d="M316,14.91V10.24a4.11,4.11,0,0,1,1-2.9,4.09,4.09,0,0,1,5.54,0,4.3,4.3,0,0,1,1,3h-1.76q0-2.49-2-2.49a2,2,0,0,0-1.49.56,2.22,2.22,0,0,0-.54,1.6v5.11a2.24,2.24,0,0,0,.54,1.62,2,2,0,0,0,1.48.57,1.84,1.84,0,0,0,1.5-.62,2.82,2.82,0,0,0,.52-1.84h1.76a4.24,4.24,0,0,1-1,3,4.12,4.12,0,0,1-5.55,0A4.19,4.19,0,0,1,316,14.91Z" fill="#fff"/>
      <path d="M324.92,8V6.54a1.46,1.46,0,0,0,1.25-.49,3.23,3.23,0,0,0,.37-1.82h1.16V6.41H330V8h-2.3v7.35a6.77,6.77,0,0,0,.09.85,1.21,1.21,0,0,0,.24.65,1.65,1.65,0,0,0,.46.31,1.91,1.91,0,0,0,.77.15H330v1.58a7.43,7.43,0,0,1-.88,0,5.15,5.15,0,0,1-1.07-.1,3.16,3.16,0,0,1-.81-.28,1.75,1.75,0,0,1-.57-.48,2.84,2.84,0,0,1-.38-.63,3.4,3.4,0,0,1-.21-.82,8.19,8.19,0,0,1-.1-1V8Z" fill="#fff"/>
      <path d="M331.79,14.91V6.41h1.76v8.73a2.22,2.22,0,0,0,.55,1.62,2,2,0,0,0,1.49.56,1.93,1.93,0,0,0,1.45-.57,2.23,2.23,0,0,0,.55-1.61V6.41h1.76v8.5a4.15,4.15,0,0,1-1,2.94,3.59,3.59,0,0,1-2.76,1.07,3.64,3.64,0,0,1-2.79-1.07A4.14,4.14,0,0,1,331.79,14.91Z" fill="#fff"/>
      <path d="M341.74,18.75V6.41h1.67V8a2.63,2.63,0,0,1,.89-1.2,2.57,2.57,0,0,1,1.7-.54h.31V8.07H346A2.11,2.11,0,0,0,344,9a5.24,5.24,0,0,0-.56,2.7v7.06Z" fill="#fff"/>
      <path d="M347.25,14.87V10.19a4.07,4.07,0,0,1,1-2.88A3.56,3.56,0,0,1,351,6.24a3.61,3.61,0,0,1,2.76,1.07,4,4,0,0,1,1,2.88v3H349v1.65a3.14,3.14,0,0,0,.52,1.93,1.77,1.77,0,0,0,1.51.69,2.07,2.07,0,0,0,1.45-.51A1.75,1.75,0,0,0,353,15.6v-.4h1.76v.2a3.48,3.48,0,0,1-1,2.55A3.73,3.73,0,0,1,351,19a3.52,3.52,0,0,1-2.77-1.09A4.29,4.29,0,0,1,347.25,14.87Zm1.72-3h4V10a2.29,2.29,0,0,0-.55-1.62A1.91,1.91,0,0,0,351,7.8a2,2,0,0,0-1.48.57A2.21,2.21,0,0,0,349,10Z" fill="#fff"/>
      <path d="M356.55,15.21h1.76a2.28,2.28,0,0,0,.56,1.63,2.22,2.22,0,0,0,2.91.09,1.64,1.64,0,0,0,.58-1.31,1.89,1.89,0,0,0-.31-1.07,2.6,2.6,0,0,0-.79-.77,9.84,9.84,0,0,0-1.08-.58q-.59-.27-1.18-.59a7.25,7.25,0,0,1-1.08-.71,2.88,2.88,0,0,1-.79-1,3.18,3.18,0,0,1-.31-1.42,3.1,3.1,0,0,1,.94-2.32,3.51,3.51,0,0,1,2.56-.92,3.65,3.65,0,0,1,2.73,1A3.77,3.77,0,0,1,364,10h-1.68a2.18,2.18,0,0,0-.52-1.59,1.93,1.93,0,0,0-1.44-.52,1.9,1.9,0,0,0-1.33.45,1.5,1.5,0,0,0-.49,1.16,1.56,1.56,0,0,0,.31,1,2.59,2.59,0,0,0,.8.7,11.56,11.56,0,0,0,1.08.55q.59.27,1.18.59A7.36,7.36,0,0,1,363,13a3,3,0,0,1,.79,1.06,3.54,3.54,0,0,1,.3,1.5,3.59,3.59,0,0,1-.21,1.24,3.43,3.43,0,0,1-.64,1.08,2.94,2.94,0,0,1-1.15.78,4.49,4.49,0,0,1-1.67.29,3.86,3.86,0,0,1-2.81-1A3.61,3.61,0,0,1,356.55,15.21Z" fill="#fff"/>
    </g>
    <path d="M366,5.91v-1h2.42V2.23h1.2v2.7H372v1h-2.4V13.5h-1.2V5.91Z" fill="#fff"/>
    <g>
      <path d="M1,36.91V32.24a4.08,4.08,0,0,1,1-2.88,3.57,3.57,0,0,1,2.75-1.07,3.62,3.62,0,0,1,2.76,1.07,4,4,0,0,1,1,2.88v4.67a4.14,4.14,0,0,1-1,2.94,3.61,3.61,0,0,1-2.77,1.07A3.57,3.57,0,0,1,2,39.86,4.19,4.19,0,0,1,1,36.91Zm1.72.24a2.24,2.24,0,0,0,.54,1.62,2,2,0,0,0,1.48.56,2,2,0,0,0,1.46-.57,2.22,2.22,0,0,0,.55-1.61V32a2.19,2.19,0,0,0-.55-1.59,2,2,0,0,0-1.46-.56,2,2,0,0,0-1.49.56A2.21,2.21,0,0,0,2.75,32Z" fill="#fff"/>
      <path d="M9.81,28.41H11.7L14.06,38l2.31-9.59h1.89L15,40.75H13.13Z" fill="#fff"/>
      <path d="M19.37,36.87V32.19a4.08,4.08,0,0,1,1-2.88,3.57,3.57,0,0,1,2.75-1.07,3.62,3.62,0,0,1,2.76,1.07,4,4,0,0,1,1,2.88v3h-5.8v1.65a3.14,3.14,0,0,0,.52,1.93,1.77,1.77,0,0,0,1.51.69A2.07,2.07,0,0,0,24.56,39a1.75,1.75,0,0,0,.56-1.35v-.4h1.76v.2a3.48,3.48,0,0,1-1,2.55,3.73,3.73,0,0,1-2.78,1,3.52,3.52,0,0,1-2.77-1.09A4.29,4.29,0,0,1,19.37,36.87Zm1.72-3h4V32a2.29,2.29,0,0,0-.55-1.62,1.91,1.91,0,0,0-1.46-.59,2,2,0,0,0-1.48.57,2.21,2.21,0,0,0-.55,1.6Z" fill="#fff"/>
      <path d="M29.13,40.75V28.41H30.8V30a2.63,2.63,0,0,1,.89-1.2,2.57,2.57,0,0,1,1.67-.53h.31V30h-.25a2.11,2.11,0,0,0-2,.92,5.24,5.24,0,0,0-.56,2.7v7.06Z" fill="#fff"/>
      <path d="M39.07,36.84v-1.7l5.72-9.9h1.78v9.9H48.1v1.7H46.57v3.91H44.72V36.84Zm1.76-1.72h3.89V28.41Z" fill="#fff"/>
      <path d="M49.84,36.49h1.85a2.94,2.94,0,0,0,.61,1.89,2.2,2.2,0,0,0,1.84.76q2.36,0,2.36-2.59V36.2a2.65,2.65,0,0,0-.59-1.86,2.17,2.17,0,0,0-1.68-.64H52.6V32h1.58a2,2,0,0,0,1.6-.67,2.85,2.85,0,0,0,.58-1.92v-.28a2.42,2.42,0,0,0-.59-1.76,2.79,2.79,0,0,0-3.5,0,2.83,2.83,0,0,0-.58,2H49.93A4.46,4.46,0,0,1,51,26.2a4.53,4.53,0,0,1,6.09,0A3.91,3.91,0,0,1,58.21,29v.58a3.85,3.85,0,0,1-.53,2,2.8,2.8,0,0,1-1.47,1.21A2.84,2.84,0,0,1,57.78,34a3.92,3.92,0,0,1,.56,2.17v.48a4.56,4.56,0,0,1-.27,1.55,4.46,4.46,0,0,1-.77,1.36,3.58,3.58,0,0,1-1.32,1,4.45,4.45,0,0,1-1.84.37A4.16,4.16,0,0,1,51,39.76,4.51,4.51,0,0,1,49.84,36.49Z" fill="#fff"/>
      <path d="M64.44,40.75V28.41h1.67v1.07a2.45,2.45,0,0,1,2.22-1.22,2.79,2.79,0,0,1,1.48.4,2.54,2.54,0,0,1,1,1.16,2.72,2.72,0,0,1,1-1.1,2.81,2.81,0,0,1,1.61-.46,2.28,2.28,0,0,1,2.08,1,5.65,5.65,0,0,1,.65,3v8.46H74.36V32.09a3.41,3.41,0,0,0-.33-1.7,1.22,1.22,0,0,0-1.14-.55,1.53,1.53,0,0,0-1.32.54A2.81,2.81,0,0,0,71.18,32v8.73H69.42V32.09A3.46,3.46,0,0,0,69,30.31a1.35,1.35,0,0,0-1.25-.59,1.42,1.42,0,0,0-1.18.53,2.45,2.45,0,0,0-.42,1.55v9Z" fill="#fff"/>
      <path d="M78.27,36.91V32.24a4.08,4.08,0,0,1,1-2.88A3.57,3.57,0,0,1,82,28.28a3.62,3.62,0,0,1,2.76,1.07,4,4,0,0,1,1,2.88V36.9a4.14,4.14,0,0,1-1,2.94A3.61,3.61,0,0,1,82,40.93a3.57,3.57,0,0,1-2.76-1.07A4.19,4.19,0,0,1,78.27,36.91Zm1.72.24a2.24,2.24,0,0,0,.54,1.62,2.19,2.19,0,0,0,2.94,0A2.22,2.22,0,0,0,84,37.15V32a2.19,2.19,0,0,0-.55-1.59,2.26,2.26,0,0,0-2.94,0A2.21,2.21,0,0,0,80,32Z" fill="#fff"/>
      <path d="M88.1,40.75V28.41h1.67v1.3a2.61,2.61,0,0,1,1-1,3,3,0,0,1,1.69-.45,2.83,2.83,0,0,1,2.45,1.07,5.42,5.42,0,0,1,.78,3.19v8.23H93.88V32.61a4.4,4.4,0,0,0-.41-2.18,1.73,1.73,0,0,0-1.61-.68,1.82,1.82,0,0,0-1.51.61,2.92,2.92,0,0,0-.49,1.85v8.54Z" fill="#fff"/>
      <path d="M97.28,30V28.54a1.46,1.46,0,0,0,1.25-.49,3.23,3.23,0,0,0,.37-1.82h1.16v2.18h2.25V30h-2.25v7.35a6.86,6.86,0,0,0,.09.85,1.21,1.21,0,0,0,.24.65,1.64,1.64,0,0,0,.46.31,1.91,1.91,0,0,0,.77.15h.72v1.58a7.42,7.42,0,0,1-.88,0,5.16,5.16,0,0,1-1.07-.1,3.16,3.16,0,0,1-.81-.28A1.75,1.75,0,0,1,99,40a2.86,2.86,0,0,1-.38-.63,3.43,3.43,0,0,1-.21-.82,8.19,8.19,0,0,1-.1-1V30Z" fill="#fff"/>
      <path d="M104.34,40.75V24.13h1.76V29.7a2.05,2.05,0,0,1,1-1.06,3.4,3.4,0,0,1,1.61-.37,2.77,2.77,0,0,1,2.4,1.08,5.93,5.93,0,0,1,.79,3.45v8h-1.76V33q0-.66,0-1.11A4.63,4.63,0,0,0,110,31a1.77,1.77,0,0,0-.34-.68,1.52,1.52,0,0,0-.59-.4,2.4,2.4,0,0,0-.9-.15,1.83,1.83,0,0,0-1.52.6,3,3,0,0,0-.48,1.87v8.54Z" fill="#fff"/>
      <path d="M113.79,37.21h1.76a2.28,2.28,0,0,0,.56,1.63,2.22,2.22,0,0,0,2.91.09,1.64,1.64,0,0,0,.58-1.31,1.89,1.89,0,0,0-.31-1.07,2.61,2.61,0,0,0-.79-.77,9.85,9.85,0,0,0-1.08-.58q-.59-.27-1.18-.59a7.25,7.25,0,0,1-1.08-.71,2.88,2.88,0,0,1-.79-1,3.18,3.18,0,0,1-.31-1.42,3.1,3.1,0,0,1,.94-2.32,3.5,3.5,0,0,1,2.56-.92,3.64,3.64,0,0,1,2.73,1,3.77,3.77,0,0,1,.95,2.75h-1.68A2.18,2.18,0,0,0,119,30.4a1.93,1.93,0,0,0-1.44-.52,1.9,1.9,0,0,0-1.33.45,1.51,1.51,0,0,0-.49,1.16,1.56,1.56,0,0,0,.31,1,2.59,2.59,0,0,0,.8.7,11.62,11.62,0,0,0,1.08.55q.59.27,1.18.59a7.36,7.36,0,0,1,1.08.73A3,3,0,0,1,121,36a3.54,3.54,0,0,1,.3,1.5,3.59,3.59,0,0,1-.21,1.24,3.41,3.41,0,0,1-.64,1.08,2.93,2.93,0,0,1-1.15.78,4.49,4.49,0,0,1-1.67.29,3.86,3.86,0,0,1-2.81-1A3.61,3.61,0,0,1,113.79,37.21Z" fill="#fff"/>
    </g>
    <g>
      <path d="M123.15,27.08v-.86a4.59,4.59,0,0,0,1.7-.4,2,2,0,0,0,.72-1.32h.89v8.93h-1.2V27.08Z" fill="#fff"/>
      <path d="M130.12,34.74a.79.79,0,0,0,.61-.61,1.74,1.74,0,0,0,.09-.55V33.5a.48.48,0,0,0,0-.08h-.68V32.06h1.34v1.27a2.74,2.74,0,0,1-.3,1.31,1.37,1.37,0,0,1-1,.7Z" fill="#fff"/>
      <path d="M133.5,31.41a3.88,3.88,0,0,1,1.63-1.56l1.2-.69a5.64,5.64,0,0,0,1.13-.8,1.76,1.76,0,0,0,0-2.44,1.71,1.71,0,0,0-1.25-.46,1.64,1.64,0,0,0-1.6.88,3.16,3.16,0,0,0-.26,1.31H133.2a4,4,0,0,1,.43-1.91,2.71,2.71,0,0,1,2.59-1.3,2.66,2.66,0,0,1,3,2.69,2.52,2.52,0,0,1-.76,1.84,7.42,7.42,0,0,1-1.57,1l-.86.48a5.57,5.57,0,0,0-1,.65,2.35,2.35,0,0,0-.79,1.21h4.9V33.4H133A5.22,5.22,0,0,1,133.5,31.41Z" fill="#fff"/>
      <path d="M140.82,34.74a.79.79,0,0,0,.61-.61,1.74,1.74,0,0,0,.09-.55V33.5a.48.48,0,0,0,0-.08h-.68V32.06h1.34v1.27a2.74,2.74,0,0,1-.3,1.31,1.37,1.37,0,0,1-1,.7Z" fill="#fff"/>
      <path d="M147.58,33.43V31.24h-3.93v-1.1l4.11-5.7h1v5.82H150v1h-1.3v2.19Zm0-3.18V26.18l-2.87,4.07Z" fill="#fff"/>
      <path d="M151,32.88v-1h2.42V27.8H151v-1h2.42V24.2h1.2v2.6H157v1h-2.42v4.1H157v1h-2.42v2.6h-1.2V32.9Z" fill="#fff"/>
    </g>
  </g>
</svg>
