<svg id="dac7db73-6874-49d0-bf58-8fc9df49f3c7" data-name="Layer 1" xmlns="http://www.w3.org/2000/svg" xmlns:xlink="http://www.w3.org/1999/xlink" viewBox="0 0 57.56 20.03"><defs><linearGradient id="a7f861c0-018b-4c65-9719-7d613ee0fb5f" x1="32" y1="4.89" x2="53.83" y2="4.89" gradientUnits="userSpaceOnUse"><stop offset="0.22" stop-color="#fff"/><stop offset="0.31" stop-color="#fff" stop-opacity="0.98"/><stop offset="0.42" stop-color="#fff" stop-opacity="0.92"/><stop offset="0.54" stop-color="#fff" stop-opacity="0.81"/><stop offset="0.67" stop-color="#fff" stop-opacity="0.67"/><stop offset="0.82" stop-color="#fff" stop-opacity="0.48"/><stop offset="0.96" stop-color="#fff" stop-opacity="0.26"/><stop offset="1" stop-color="#fff" stop-opacity="0.2"/></linearGradient></defs><title>radius-logo</title><path d="M3.64,12.91c.54,0,1.29,0,2.14,0,1.68,0,3-.54,3-2.5,0-1.7-.8-2.84-3-2.84-1.6,0-2.11.32-2.11,1.08Zm7.93,4.22c0,1.53-.5,2.8-2.22,2.8-1.4,0-2.11-1.23-2.11-2.95,0-3-.9-3.4-2.87-3.4H3.64v4.37c0,.9.32,1.23,1.85,1.23v.63H0v-.63c1.42,0,1.73-.34,1.73-1.23V8.84c0-.9-.32-1.23-1.73-1.23V7H6.73c3.08,0,4,1.94,4,3.21,0,2.35-2.28,3.26-4.46,3.26v0c3.6.58,2.46,5.13,4,5.13.5,0,.69-.88.69-1.49Z" fill="#fff"/><path d="M17.89,14.94c-1.31.32-3.51,1.25-3.51,2.87a1.26,1.26,0,0,0,1.31,1.44,2.44,2.44,0,0,0,2.2-2.69Zm3.58,2.7c0,1.21-.6,2.28-1.92,2.28-1.1,0-1.36-.71-1.51-1.68h0A2.81,2.81,0,0,1,15,20c-1.32,0-2.63-.69-2.63-2.15,0-2.14,3.94-3,5.52-3.54V12.61c0-.93-1.21-1.16-1.92-1.16a3.07,3.07,0,0,0-1.75.47.94.94,0,0,1,.8,1,1.08,1.08,0,0,1-2.16,0c0-1.14,1.48-2.09,3.17-2.09,2.42,0,3.62.6,3.62,2.58v4.51c0,.93.22,1,.58,1,.6,0,.73-.86.73-1.3Z" fill="#fff"/><path d="M28.43,15.37c0-2.57-.86-3.92-2.27-3.92-1.61,0-2.28,1.62-2.28,3.92,0,2.78.82,4,2.15,4s2.41-1.51,2.41-4m-.07-6.86c0-.6-.34-.78-1.42-.78V7.09L30.11,7V18.51c0,.6.33.78,1.27.78v.52l-2.91.11V18.17h0A3,3,0,0,1,25.56,20c-1.9,0-3.69-2.13-3.69-4.61A4.39,4.39,0,0,1,26,10.82a2.41,2.41,0,0,1,2.31,1.44h0Z" fill="#fff"/><path d="M31.88,19.81v-.63c1.08,0,1.42-.19,1.42-.78V12.46c0-.6-.34-.78-1.42-.78V11l3.17-.11v7.46c0,.6.34.78,1.42.78v.63Z" fill="#fff"/><path d="M44,19.92V18.17h0A3.21,3.21,0,0,1,41.09,20c-1.68,0-2.78-1.16-2.78-3.36V12.46c0-.6-.34-.78-1.33-.78V11h3.08V17.5c0,1,.41,1.79,1.4,1.79,1.53,0,2.2-1.42,2.37-2.65V12.46c0-.6-.33-.78-1.45-.78V11h3.21v7.35c0,.6.34.78,1.31.78v.63Z" fill="#fff"/><path d="M47.64,19.92V16.71h.52a3.31,3.31,0,0,0,3.26,2.69c.88,0,2-.54,2-1.55,0-2.59-5.73-1.1-5.73-4.44,0-1.64,1.48-2.59,3.17-2.59a5.72,5.72,0,0,1,2.42.63c.3,0,.39-.3.43-.48h.63v2.72h-.63c-.56-1.4-1.23-2.24-2.83-2.24-.82,0-1.7.34-1.7,1.27,0,2.28,5.73.84,5.73,4.29,0,2-1.64,3-3.47,3s-2.2-.71-2.78-.71c-.34,0-.43.37-.5.6Z" fill="#fff"/><path d="M56.36,11.95h.11c.13,0,.24,0,.24-.15s-.07-.15-.22-.15h-.13Zm0,.57h-.24v-1a2.82,2.82,0,0,1,.39,0,.54.54,0,0,1,.35.08.26.26,0,0,1,.11.22.26.26,0,0,1-.21.24h0c.1,0,.15.11.18.25a.93.93,0,0,0,.07.25h-.25a.77.77,0,0,1-.08-.25c0-.1-.08-.16-.21-.16h-.11ZM55.73,12a.79.79,0,0,0,.8.81A.78.78,0,0,0,57.3,12a.79.79,0,1,0-1.57,0m1.84,0a1,1,0,1,1-1-1,1,1,0,0,1,1,1" fill="#fff"/><path d="M44.31,0A12,12,0,0,0,32.76,9.78l2.11,0A10.78,10.78,0,0,1,45,1.77,10.73,10.73,0,0,1,55,9.33,11.14,11.14,0,0,0,44.32,0Z" fill="url(#a7f861c0-018b-4c65-9719-7d613ee0fb5f)"/></svg>