<?xml version="1.0" encoding="utf-8"?>
<!-- Generator: Adobe Illustrator 21.1.0, SVG Export Plug-In . SVG Version: 6.00 Build 0)  -->
<svg version="1.1" id="Layer_1" xmlns="http://www.w3.org/2000/svg" xmlns:xlink="http://www.w3.org/1999/xlink" x="0px" y="0px"
	 viewBox="0 0 179 126" enable-background="new 0 0 179 126" xml:space="preserve">
<g>
	<line fill="none" stroke="#FD8204" stroke-width="0.5628" stroke-miterlimit="10" x1="153.1" y1="26.9" x2="153.1" y2="27.2"/>
	<path fill="#FD8204" d="M116,0C81.4,0,53.3,28,53,62.5H16.4v2H53c0.8,34,28.7,61.5,63,61.5c34.7,0,63-28.3,63-63S150.7,0,116,0z
		 M116,124c-33.6,0-61-27.4-61-61S82.4,2,116,2s61,27.4,61,61S149.6,124,116,124z"/>
	<path fill="#FD8204" d="M140.5,90.8l-13.7-15.3l12-13.5h5v-5.7h-14.4V62h1.8l-8.2,9.2l-8.3-9.4c4.4-0.2,8.1-1.7,10.8-4.7
		c2.9-3.1,4.3-6.9,4.3-11.3c0-4.4-1.5-8.2-4.3-11.4c-2.9-3.2-6.7-4.8-11.5-4.8H93.6V78h-4.4v5.7h14.5V78h-4.3V61.8h7.6l12.2,13.7
		l-13.7,15.3h-5.2v5.7h14.4v-5.7h-1.6l9.8-11.1l9.9,11.1h-2v5.7h14.5v-5.7H140.5z M114.2,35.2L99.3,50.2v-5.8l9.1-9.1h5.5
		C114,35.2,114.1,35.2,114.2,35.2z M99.5,35.2h5.4l-5.6,5.6v-5.4L99.5,35.2z M99.3,56.2v-2.5l17.9-18c1.3,0.4,2.4,1.1,3.4,2.1
		l-18.3,18.3h3.6l16.4-16.4c0.7,1.1,1.1,2.3,1.3,3.7l-12.7,12.7h2.7c0.3,0,0.6,0,0.9,0l9.3-9.3c-0.2,2.6-1,4.7-2.7,6.5
		c-1.8,2.1-4.1,3-7.2,3H99.3z"/>
	<g>
		<circle fill="#FD8204" cx="15.6" cy="61.7" r="15.6"/>
		<g enable-background="new    ">
			<path fill="#FFFFFF" d="M9.1,66.1l4.5-0.6c-0.1,0.7,0.1,1.2,0.4,1.4c0.3,0.2,0.7,0.3,1.1,0.2c0.4-0.1,0.8-0.2,1.2-0.5
				c0.3-0.3,0.5-0.7,0.6-1.3c0-0.6-0.1-0.9-0.4-1.1C16.3,64,15.7,63.9,15,64l-1.7,0.2l0.3-4c0.6-0.1,1.1-0.2,1.6-0.3
				c0.7-0.1,1.2-0.3,1.5-0.7c0.4-0.3,0.6-0.8,0.6-1.3c0-0.5-0.1-0.8-0.4-1c-0.3-0.2-0.6-0.3-1-0.2c-1,0.1-1.5,0.8-1.6,1.9l-4.5,0.7
				c0.2-2,0.8-3.6,1.8-4.8c1-1.2,2.5-2,4.3-2.2c1.7-0.3,3.1,0,4.2,0.9c1.1,0.9,1.6,2,1.6,3.6c0,1-0.2,1.9-0.7,2.6
				c-0.5,0.8-1.1,1.4-1.9,1.8c0.7,0.1,1.2,0.5,1.7,1c0.5,0.6,0.7,1.4,0.7,2.4c0,1.9-0.6,3.4-1.8,4.7c-1.1,1.2-2.7,2-4.7,2.3
				c-1.8,0.3-3.3-0.1-4.4-1.1C9.5,69.5,9,68,9.1,66.1z"/>
		</g>
	</g>
</g>
</svg>
